<svg xmlns="http://www.w3.org/2000/svg" width="24" height="24" viewBox="0 0 24 24"><title>3d print settings</title><g fill="#212121" class="nc-icon-wrapper"><defs></defs><circle class="a" cx="17.25" cy="16.5" r="1.5" fill="none" stroke="#212121" stroke-linecap="round" stroke-linejoin="round" stroke-width="1.5px"></circle><path class="a" d="M18.524 10.7l.442 1.452a.993.993 0 0 0 1.174.681l1.472-.341a1.339 1.339 0 0 1 1.275 2.218l-1.031 1.111a1 1 0 0 0 0 1.362l1.031 1.111a1.339 1.339 0 0 1-1.275 2.219l-1.472-.342a1 1 0 0 0-1.174.681l-.442 1.448a1.33 1.33 0 0 1-2.548 0l-.442-1.453a1 1 0 0 0-1.174-.681l-1.472.342a1.339 1.339 0 0 1-1.275-2.219l1.031-1.111a1 1 0 0 0 0-1.362l-1.031-1.111a1.339 1.339 0 0 1 1.275-2.218l1.472.341a.993.993 0 0 0 1.174-.681l.442-1.452a1.33 1.33 0 0 1 2.548.005z" fill="none" stroke="#212121" stroke-linecap="round" stroke-linejoin="round" stroke-width="1.5px"></path><path class="a" d="M8.25 20.25h-4.5a3 3 0 0 1-3-3V3.75a3 3 0 0 1 3-3h13.5a3 3 0 0 1 3 3v4.5" fill="none" stroke="#212121" stroke-linecap="round" stroke-linejoin="round" stroke-width="1.5px"></path><path class="a" d="M.75 17.25h7.5" fill="none" stroke="#212121" stroke-linecap="round" stroke-linejoin="round" stroke-width="1.5px"></path><path class="a" d="M14.25.75v3a1.5 1.5 0 0 1-1.5 1.5h-4.5" fill="none" stroke="#212121" stroke-linecap="round" stroke-linejoin="round" stroke-width="1.5px"></path><path class="a" d="M8.25 5.25v3l-1.5 1.5-1.5-1.5v-3h3z" fill="none" stroke="#212121" stroke-linecap="round" stroke-linejoin="round" stroke-width="1.5px"></path><path class="a" d="M17.25 5.25h3" fill="none" stroke="#212121" stroke-linecap="round" stroke-linejoin="round" stroke-width="1.5px"></path><path class="a" d="M.75 5.25h1.5" fill="none" stroke="#212121" stroke-linecap="round" stroke-linejoin="round" stroke-width="1.5px"></path></g></svg>