<svg xmlns="http://www.w3.org/2000/svg" width="24" height="24" viewBox="0 0 24 24"><title>3d print triangle 1</title><g fill="#212121" class="nc-icon-wrapper"><defs></defs><path class="a" d="M9.75 20.25h-6a3 3 0 0 1-3-3V3.75a3 3 0 0 1 3-3h13.5a3 3 0 0 1 3 3v9" fill="none" stroke="#212121" stroke-linecap="round" stroke-linejoin="round" stroke-width="1.5px"></path><path class="a" d="M.75 17.25h9" fill="none" stroke="#212121" stroke-linecap="round" stroke-linejoin="round" stroke-width="1.5px"></path><path class="a" d="M14.25.75v3a1.5 1.5 0 0 1-1.5 1.5h-4.5" fill="none" stroke="#212121" stroke-linecap="round" stroke-linejoin="round" stroke-width="1.5px"></path><path class="a" d="M8.25 5.25v3l-1.5 1.5-1.5-1.5v-3h3z" fill="none" stroke="#212121" stroke-linecap="round" stroke-linejoin="round" stroke-width="1.5px"></path><path class="a" d="M17.25 5.25h3" fill="none" stroke="#212121" stroke-linecap="round" stroke-linejoin="round" stroke-width="1.5px"></path><path class="a" d="M5.25 17.25l5.25-7.5 2.098 2.997" fill="none" stroke="#212121" stroke-linecap="round" stroke-linejoin="round" stroke-width="1.5px"></path><path class="a" d="M.75 5.25h1.5" fill="none" stroke="#212121" stroke-linecap="round" stroke-linejoin="round" stroke-width="1.5px"></path><path class="a" d="M20.25 23.25a3 3 0 0 0 3-3v-1.5a3 3 0 0 0-3-3z" fill="none" stroke="#212121" stroke-linecap="round" stroke-linejoin="round" stroke-width="1.5px"></path><path class="a" d="M12.75 17.25a1.5 1.5 0 0 1 1.5-1.5l1.135.005a1.873 1.873 0 0 1-.008 3.745 1.873 1.873 0 0 1 .008 3.746H14.25a1.5 1.5 0 0 1-1.5-1.5" fill="none" stroke="#212121" stroke-linecap="round" stroke-linejoin="round" stroke-width="1.5px"></path></g></svg>