<svg xmlns="http://www.w3.org/2000/svg" width="24" height="24" viewBox="0 0 24 24"><title>accounting withdraw</title><g fill="#212121" class="nc-icon-wrapper"><defs></defs><path class="a" d="M14.758 21.375H2.25a.75.75 0 0 1-.742-.861L7.379 6.375h10.5L15.5 20.514a.75.75 0 0 1-.742.861z" fill="none" stroke="#212121" stroke-linecap="round" stroke-linejoin="round" stroke-width="1.5px"></path><path class="a" d="M12.525 11.2l-1.969-.5a1.341 1.341 0 0 0-1.125 2.382l1.793 1.312a1.341 1.341 0 0 1-1.124 2.378l-1.97-.5" fill="none" stroke="#212121" stroke-linecap="round" stroke-linejoin="round" stroke-width="1.5px"></path><path class="a" d="M11.072 10.828l.373-1.453" fill="none" stroke="#212121" stroke-linecap="round" stroke-linejoin="round" stroke-width="1.5px"></path><path class="a" d="M9.21 18.093l.372-1.453" fill="none" stroke="#212121" stroke-linecap="round" stroke-linejoin="round" stroke-width="1.5px"></path><path class="a" d="M2.25 10.125H1.5a.75.75 0 0 1-.75-.75v-6a.75.75 0 0 1 .75-.75h21a.75.75 0 0 1 .75.75v6a.75.75 0 0 1-.75.75h-2.25" fill="none" stroke="#212121" stroke-linecap="round" stroke-linejoin="round" stroke-width="1.5px"></path></g></svg>