<svg xmlns="http://www.w3.org/2000/svg" width="24" height="24" viewBox="0 0 24 24"><title>advertising megaphone 2</title><g fill="#212121" class="nc-icon-wrapper"><defs></defs><path class="cls-1" d="M9.663 16.462a2.308 2.308 0 0 0-.946 3.128h.006a2.328 2.328 0 0 0 3.144.953l.349-.189c6.067-3.268 7.053-2.875 10.784-3.127l-4.356-8.179c-2.499 3.286-2.595 3.939-8.981 7.414z" fill="none" stroke="#212121" stroke-linecap="round" stroke-linejoin="round" stroke-width="1.5px"></path><path class="cls-1" d="M11.5 15.444l2.99 6.329a2.317 2.317 0 0 0 3.133.955" fill="none" stroke="#212121" stroke-linecap="round" stroke-linejoin="round" stroke-width="1.5px"></path><path class="cls-1" d="M12.985 10.25V4.782" fill="none" stroke="#212121" stroke-linecap="round" stroke-linejoin="round" stroke-width="1.5px"></path><path class="cls-1" d="M3.985 4.782v6.968a1.5 1.5 0 0 0 1.5 1.5h4.5" fill="none" stroke="#212121" stroke-linecap="round" stroke-linejoin="round" stroke-width="1.5px"></path><path class="cls-1" d="M15.985 7.482l-6.5-5.847a1.5 1.5 0 0 0-2.007 0L.985 7.482" fill="none" stroke="#212121" stroke-linecap="round" stroke-linejoin="round" stroke-width="1.5px"></path><path class="cls-1" d="M14.485 6.132V2" fill="none" stroke="#212121" stroke-linecap="round" stroke-linejoin="round" stroke-width="1.5px"></path></g></svg>