<svg xmlns="http://www.w3.org/2000/svg" width="24" height="24" viewBox="0 0 24 24"><title>adventure car</title><g fill="#212121" class="nc-icon-wrapper"><defs></defs><circle class="a" cx="17.625" cy="17.375" r="2.625" fill="none" stroke="#212121" stroke-linecap="round" stroke-linejoin="round" stroke-width="1.5px"></circle><circle class="a" cx="4.875" cy="17.375" r="2.625" fill="none" stroke="#212121" stroke-linecap="round" stroke-linejoin="round" stroke-width="1.5px"></circle><path class="a" d="M20.224 17.75h1.526a1.5 1.5 0 0 0 1.5-1.5V11a1.5 1.5 0 0 0-1.5-1.5H16.5l-3 4.5H9.75c-1.014-2.029-.935-3-2.25-3H2.25a1.5 1.5 0 0 0-1.5 1.5v3.75a1.523 1.523 0 0 0 1.527 1.5" fill="none" stroke="#212121" stroke-linecap="round" stroke-linejoin="round" stroke-width="1.5px"></path><path class="a" d="M16.5 9.5l-1.5-6" fill="none" stroke="#212121" stroke-linecap="round" stroke-linejoin="round" stroke-width="1.5px"></path><path class="a" d="M3.825 11L3.29 7.865a1.18 1.18 0 0 1 2.258-.638L7.063 11" fill="none" stroke="#212121" stroke-linecap="round" stroke-linejoin="round" stroke-width="1.5px"></path><path class="a" d="M15.027 17.75H7.473" fill="none" stroke="#212121" stroke-linecap="round" stroke-linejoin="round" stroke-width="1.5px"></path></g></svg>