<svg xmlns="http://www.w3.org/2000/svg" width="24" height="24" viewBox="0 0 24 24"><title>adventure car 1</title><g fill="#212121" class="nc-icon-wrapper"><defs></defs><circle class="a" cx="18" cy="16.75" r="2.25" fill="none" stroke="#212121" stroke-linecap="round" stroke-linejoin="round" stroke-width="1.5px"></circle><circle class="a" cx="3" cy="16.75" r="2.25" fill="none" stroke="#212121" stroke-linecap="round" stroke-linejoin="round" stroke-width="1.5px"></circle><path class="a" d="M20.25 16.75h1.5a1.5 1.5 0 0 0 1.5-1.5v-1.8a1.493 1.493 0 0 0-.259-.841c-1.167-1.721-5.972-8.1-16.475-8.579A1.5 1.5 0 0 0 4.983 5.2L3.75 10.75" fill="none" stroke="#212121" stroke-linecap="round" stroke-linejoin="round" stroke-width="1.5px"></path><path class="a" d="M2.079 14.7L.828 12.729A1.5 1.5 0 0 1 2.25 10.75h1.5l3 2.25H15l4.874-3.878" fill="none" stroke="#212121" stroke-linecap="round" stroke-linejoin="round" stroke-width="1.5px"></path><path class="a" d="M5.25 16.75h10.5" fill="none" stroke="#212121" stroke-linecap="round" stroke-linejoin="round" stroke-width="1.5px"></path><path class="a" d="M9 13L7.5 8.5" fill="none" stroke="#212121" stroke-linecap="round" stroke-linejoin="round" stroke-width="1.5px"></path><path class="a" d="M15 9.25l-2.25 1.5" fill="none" stroke="#212121" stroke-linecap="round" stroke-linejoin="round" stroke-width="1.5px"></path><path class="a" d="M15.642 12.489L13.875 10" fill="none" stroke="#212121" stroke-linecap="round" stroke-linejoin="round" stroke-width="1.5px"></path></g></svg>