<svg xmlns="http://www.w3.org/2000/svg" width="24" height="24" viewBox="0 0 24 24"><title>agriculture machine harvester 1</title><g fill="#212121" class="nc-icon-wrapper"><defs></defs><circle class="cls-1" cx="3" cy="19.5" r="2.25" fill="none" stroke="#212121" stroke-linecap="round" stroke-linejoin="round" stroke-width="1.5px"></circle><circle class="cls-1" cx="12" cy="18.75" r="3" fill="none" stroke="#212121" stroke-linecap="round" stroke-linejoin="round" stroke-width="1.5px"></circle><path class="cls-1" d="M5.12 18.75H9" fill="none" stroke="#212121" stroke-linecap="round" stroke-linejoin="round" stroke-width="1.5px"></path><path class="cls-2" d="M7.5 10.5h-3a3 3 0 0 0-3 3v4.327" fill="none" stroke="#212121" stroke-linecap="round" stroke-linejoin="round" stroke-width="1.5px" fill-rule="evenodd"></path><path class="cls-2" d="M1.5 7.5H3A1.5 1.5 0 0 1 4.5 9v1.5" fill="none" stroke="#212121" stroke-linecap="round" stroke-linejoin="round" stroke-width="1.5px" fill-rule="evenodd"></path><path class="cls-1" d="M15 18.75l2.25-13.5H7.5v7.5a3 3 0 0 0 3 3H12" fill="none" stroke="#212121" stroke-linecap="round" stroke-linejoin="round" stroke-width="1.5px"></path><path class="cls-2" d="M18 5.25a3 3 0 0 0-3-3H9.75a3 3 0 0 0-3 3z" fill="none" stroke="#212121" stroke-linecap="round" stroke-linejoin="round" stroke-width="1.5px" fill-rule="evenodd"></path><path class="cls-2" d="M18 14.25h5.25l-3.75 6h-2.25" fill="none" stroke="#212121" stroke-linecap="round" stroke-linejoin="round" stroke-width="1.5px" fill-rule="evenodd"></path></g></svg>