<svg xmlns="http://www.w3.org/2000/svg" width="24" height="24" viewBox="0 0 24 24"><title>aircraft chopper 1</title><g fill="#212121" class="nc-icon-wrapper"><defs></defs><path class="a" d="M22.928 21.75l-1.5 1.5h-13.5" fill="none" stroke="#212121" stroke-linecap="round" stroke-linejoin="round" stroke-width="1.5px"></path><path class="a" d="M4.513 7.421a1.5 1.5 0 0 0 1.342.829h8.823c2.25 0 8.25 1.5 8.25 6.75a5.249 5.249 0 0 1-5.25 5.25h-2.25c-4.247 0-5.863-3.381-6.446-5.357a3 3 0 0 0-1.825-1.963l-3.2-1.2A3 3 0 0 1 2.2 9.973L1.165 7.217A1.456 1.456 0 0 1 3.83 6.055z" fill="none" stroke="#212121" stroke-linecap="round" stroke-linejoin="round" stroke-width="1.5px"></path><path class="a" d="M13.928 8.25V.75" fill="none" stroke="#212121" stroke-linecap="round" stroke-linejoin="round" stroke-width="1.5px"></path><path class="a" d="M22.928 2.25h-18" fill="none" stroke="#212121" stroke-linecap="round" stroke-linejoin="round" stroke-width="1.5px"></path><path class="a" d="M22.885 14.25h-4.457a3 3 0 0 1-3-3V8.294" fill="none" stroke="#212121" stroke-linecap="round" stroke-linejoin="round" stroke-width="1.5px"></path><path class="a" d="M18.415 20.199l.763 3.051" fill="none" stroke="#212121" stroke-linecap="round" stroke-linejoin="round" stroke-width="1.5px"></path><path class="a" d="M11.927 19.253l-.999 3.997" fill="none" stroke="#212121" stroke-linecap="round" stroke-linejoin="round" stroke-width="1.5px"></path><path class="a" d="M12.428 11.25h-1.5" fill="none" stroke="#212121" stroke-linecap="round" stroke-linejoin="round" stroke-width="1.5px"></path></g></svg>