<svg xmlns="http://www.w3.org/2000/svg" width="24" height="24" viewBox="0 0 24 24"><title>alert user</title><g fill="#212121" class="nc-icon-wrapper"><defs></defs><path class="a" d="M18 .75a5.227 5.227 0 0 0-3.938 8.69l-.656 3.779 3.423-2.11A5.246 5.246 0 1 0 18 .75z" fill="none" stroke="#212121" stroke-linecap="round" stroke-width="1.5px" stroke-linejoin="round"></path><circle class="a" cx="8.232" cy="15.375" r="3.375" fill="none" stroke="#212121" stroke-linecap="round" stroke-width="1.5px" stroke-linejoin="round"></circle><path class="a" d="M13.46 23.243A6.062 6.062 0 0 0 3 23.25" fill="none" stroke="#212121" stroke-linecap="round" stroke-width="1.5px" stroke-linejoin="round"></path><path class="a" d="M18 7.5a.375.375 0 1 1-.375.375A.375.375 0 0 1 18 7.5" fill="none" stroke="#212121" stroke-linecap="round" stroke-width="1.5px" stroke-linejoin="round"></path><path class="b" d="M18 5.25v-1.5" fill="none" stroke="#212121" stroke-linecap="round" stroke-width="1.5px" stroke-miterlimit="10"></path><path class="a" d="M18 14.25v9" fill="none" stroke="#212121" stroke-linecap="round" stroke-width="1.5px" stroke-linejoin="round"></path><path class="a" d="M.75 23.25V3.75a3 3 0 0 1 3-3h7.5" fill="none" stroke="#212121" stroke-linecap="round" stroke-width="1.5px" stroke-linejoin="round"></path><path class="a" d="M.75 6.75h9" fill="none" stroke="#212121" stroke-linecap="round" stroke-width="1.5px" stroke-linejoin="round"></path><path class="a" d="M6.75 3.75h3" fill="none" stroke="#212121" stroke-linecap="round" stroke-width="1.5px" stroke-linejoin="round"></path></g></svg>