<svg xmlns="http://www.w3.org/2000/svg" width="24" height="24" viewBox="0 0 24 24"><title>ambulance car</title><g fill="#212121" class="nc-icon-wrapper"><defs></defs><path class="cls-1" d="M8.25 18.75v-9a1.5 1.5 0 0 1 1.5-1.5h12a1.5 1.5 0 0 1 1.5 1.5v10.5a1.5 1.5 0 0 1-1.5 1.5h-.878" fill="none" stroke="#212121" stroke-linecap="round" stroke-linejoin="round" stroke-width="1.5px"></path><path class="cls-1" d="M8.25 18.878V9.75H4.921a1.5 1.5 0 0 0-1.455 1.136L3 13.5l-1.582 1.055A1.5 1.5 0 0 0 .75 15.8v4.45a1.5 1.5 0 0 0 1.5 1.5h3.128" fill="none" stroke="#212121" stroke-linecap="round" stroke-linejoin="round" stroke-width="1.5px"></path><circle class="cls-1" cx="7.5" cy="21" r="2.25" fill="none" stroke="#212121" stroke-linecap="round" stroke-linejoin="round" stroke-width="1.5px"></circle><circle class="cls-1" cx="18.75" cy="21" r="2.25" fill="none" stroke="#212121" stroke-linecap="round" stroke-linejoin="round" stroke-width="1.5px"></circle><path class="cls-1" d="M9.622 21.75h7.006" fill="none" stroke="#212121" stroke-linecap="round" stroke-linejoin="round" stroke-width="1.5px"></path><path class="cls-1" d="M16.5 7.5a2.25 2.25 0 0 0-4.5 0v.75h4.5z" fill="none" stroke="#212121" stroke-linecap="round" stroke-linejoin="round" stroke-width="1.5px"></path><path class="cls-1" d="M15.75 12v4.5" fill="none" stroke="#212121" stroke-linecap="round" stroke-linejoin="round" stroke-width="1.5px"></path><path class="cls-1" d="M13.5 14.25H18" fill="none" stroke="#212121" stroke-linecap="round" stroke-linejoin="round" stroke-width="1.5px"></path><path class="cls-1" d="M14.25 2.25V.75" fill="none" stroke="#212121" stroke-linecap="round" stroke-linejoin="round" stroke-width="1.5px"></path><path class="cls-1" d="M18 3.75l.75-1.5" fill="none" stroke="#212121" stroke-linecap="round" stroke-linejoin="round" stroke-width="1.5px"></path><path class="cls-1" d="M10.5 3.75l-.75-1.5" fill="none" stroke="#212121" stroke-linecap="round" stroke-linejoin="round" stroke-width="1.5px"></path></g></svg>