<svg xmlns="http://www.w3.org/2000/svg" width="24" height="24" viewBox="0 0 24 24"><title>american football helmet</title><g fill="#212121" class="nc-icon-wrapper"><defs></defs><path class="cls-1" d="M10.737 18.379l2.47 2.822a6 6 0 0 0 4.516 2.049h2.527a3 3 0 0 0 3-3v-1.5a1.5 1.5 0 0 0-1.5-1.5h-10.5" fill="none" stroke="#212121" stroke-linecap="round" stroke-linejoin="round" stroke-width="1.5px"></path><circle class="cls-1" cx="9.75" cy="17.25" r="1.5" fill="none" stroke="#212121" stroke-linecap="round" stroke-linejoin="round" stroke-width="1.5px"></circle><path class="cls-1" d="M9.75 15.75v-1.5a6 6 0 0 1 6-6h6.881" fill="none" stroke="#212121" stroke-linecap="round" stroke-linejoin="round" stroke-width="1.5px"></path><path class="cls-1" d="M11.187 23.221A11.251 11.251 0 1 1 22.631 8.25a2.249 2.249 0 0 1-2.12 3H15.75a3 3 0 0 0-3 3" fill="none" stroke="#212121" stroke-linecap="round" stroke-linejoin="round" stroke-width="1.5px"></path><path class="cls-1" d="M15.75 17.25v3a2.989 2.989 0 0 1-.984 2.221" fill="none" stroke="#212121" stroke-linecap="round" stroke-linejoin="round" stroke-width="1.5px"></path><path class="cls-1" d="M20.25 17.25v3a3 3 0 0 1-2.8 2.994" fill="none" stroke="#212121" stroke-linecap="round" stroke-linejoin="round" stroke-width="1.5px"></path></g></svg>