<svg xmlns="http://www.w3.org/2000/svg" width="24" height="24" viewBox="0 0 24 24"><title>american football ball 1</title><g fill="#212121" class="nc-icon-wrapper"><defs></defs><path class="cls-1" d="M23.248 3.85a2.991 2.991 0 0 0-3.1-3.1c-3.67.14-9.889 1.05-14.117 5.281S.891 16.474.752 20.15a2.991 2.991 0 0 0 3.1 3.1c3.675-.138 9.894-1.05 14.122-5.279S23.109 7.526 23.248 3.85z" fill="none" stroke="#212121" stroke-linecap="round" stroke-linejoin="round" stroke-width="1.5px"></path><path class="cls-1" d="M15.75 8.25l-7.5 7.5" fill="none" stroke="#212121" stroke-linecap="round" stroke-linejoin="round" stroke-width="1.5px"></path><path class="cls-1" d="M10.875 10.875l2.25 2.25" fill="none" stroke="#212121" stroke-linecap="round" stroke-linejoin="round" stroke-width="1.5px"></path><path class="cls-1" d="M8.25 13.5l2.25 2.25" fill="none" stroke="#212121" stroke-linecap="round" stroke-linejoin="round" stroke-width="1.5px"></path><path class="cls-1" d="M13.5 8.25l2.25 2.25" fill="none" stroke="#212121" stroke-linecap="round" stroke-linejoin="round" stroke-width="1.5px"></path><path class="cls-1" d="M1.426 14.926l7.648 7.648" fill="none" stroke="#212121" stroke-linecap="round" stroke-linejoin="round" stroke-width="1.5px"></path><path class="cls-1" d="M22.574 9.074l-7.648-7.648" fill="none" stroke="#212121" stroke-linecap="round" stroke-linejoin="round" stroke-width="1.5px"></path></g></svg>