<svg xmlns="http://www.w3.org/2000/svg" width="24" height="24" viewBox="0 0 24 24"><title>amphibian chameleon 2</title><g fill="#212121" class="nc-icon-wrapper"><defs></defs><path class="cls-1" d="M6.75 5.25h-1.5a4.791 4.791 0 0 0-4.5 4.5c0 2.071 2.015 3 4.5 3 6.75 0 13.5-.75 13.5 1.5s-3 2.25-3 2.25" fill="none" stroke="#212121" stroke-linecap="round" stroke-linejoin="round" stroke-width="1.5px"></path><path class="cls-1" d="M15.992 12.755a4.569 4.569 0 0 0-4.742 2.995c-.75 3 1.5 4.5 4.5 4.5 3.75 0 7.5-1.5 7.5-8.25 0-4.38-3.158-5.918-8.245-6.458" fill="none" stroke="#212121" stroke-linecap="round" stroke-linejoin="round" stroke-width="1.5px"></path><path class="cls-1" d="M5.625 8.25A.375.375 0 0 1 6 8.625" fill="none" stroke="#212121" stroke-linecap="round" stroke-linejoin="round" stroke-width="1.5px"></path><path class="cls-1" d="M5.25 8.625a.375.375 0 0 1 .375-.375" fill="none" stroke="#212121" stroke-linecap="round" stroke-linejoin="round" stroke-width="1.5px"></path><path class="cls-1" d="M5.625 9a.375.375 0 0 1-.375-.375" fill="none" stroke="#212121" stroke-linecap="round" stroke-linejoin="round" stroke-width="1.5px"></path><path class="cls-1" d="M6 8.625A.375.375 0 0 1 5.625 9" fill="none" stroke="#212121" stroke-linecap="round" stroke-linejoin="round" stroke-width="1.5px"></path><path class="cls-1" d="M6.746 12.739c.3.753 1.016 3.842-3 4.511" fill="none" stroke="#212121" stroke-linecap="round" stroke-linejoin="round" stroke-width="1.5px"></path><path class="cls-1" d="M9 5.25l2.25-1.5" fill="none" stroke="#212121" stroke-linecap="round" stroke-linejoin="round" stroke-width="1.5px"></path><path class="cls-1" d="M10.5 6.75h2.25" fill="none" stroke="#212121" stroke-linecap="round" stroke-linejoin="round" stroke-width="1.5px"></path><path class="cls-1" d="M9 8.25l2.25 1.5" fill="none" stroke="#212121" stroke-linecap="round" stroke-linejoin="round" stroke-width="1.5px"></path></g></svg>