<svg xmlns="http://www.w3.org/2000/svg" width="24" height="24" viewBox="0 0 24 24"><title>animal print bird 3</title><g fill="#212121" class="nc-icon-wrapper"><defs></defs><path class="cls-1" d="M20.443 8.132a1.876 1.876 0 0 0-2.625-.374l-3.871 2.906V4.875a1.875 1.875 0 0 0-3.75 0v5.789l-3.87-2.906a1.875 1.875 0 0 0-2.251 3l6.121 4.6v3.772a1.875 1.875 0 0 0 3.75 0v-3.777l6.122-4.6a1.876 1.876 0 0 0 .374-2.621z" fill="none" stroke="#212121" stroke-linecap="round" stroke-linejoin="round" stroke-width="1.5px"></path><path class="cls-1" d="M12.072 3V.75" fill="none" stroke="#212121" stroke-linecap="round" stroke-linejoin="round" stroke-width="1.5px"></path><path class="cls-1" d="M12.072 21v1.625" fill="none" stroke="#212121" stroke-linecap="round" stroke-linejoin="round" stroke-width="1.5px"></path><path class="cls-1" d="M20.443 8.132l1.317-.882" fill="none" stroke="#212121" stroke-linecap="round" stroke-linejoin="round" stroke-width="1.5px"></path><path class="cls-1" d="M3.702 8.132L2.51 7.062" fill="none" stroke="#212121" stroke-linecap="round" stroke-linejoin="round" stroke-width="1.5px"></path></g></svg>