<svg xmlns="http://www.w3.org/2000/svg" width="24" height="24" viewBox="0 0 24 24"><title>animal products eggs</title><g fill="#212121" class="nc-icon-wrapper"><defs></defs><path class="cls-1" d="M21.75 14.245a1.5 1.5 0 0 0 0-3H2.25a1.5 1.5 0 0 0 0 3z" fill="none" stroke="#212121" stroke-linecap="round" stroke-linejoin="round" stroke-width="1.5px"></path><path class="cls-1" d="M3 14.245l1.158 3.474a1.5 1.5 0 0 0 1.423 1.026h3.838a1.5 1.5 0 0 0 1.423-1.026L12 14.245" fill="none" stroke="#212121" stroke-linecap="round" stroke-linejoin="round" stroke-width="1.5px"></path><path class="cls-1" d="M12 14.245l1.158 3.474a1.5 1.5 0 0 0 1.423 1.026h3.838a1.5 1.5 0 0 0 1.423-1.026L21 14.245" fill="none" stroke="#212121" stroke-linecap="round" stroke-linejoin="round" stroke-width="1.5px"></path><path class="cls-1" d="M3 11.245c0-3.314 2.015-6 4.5-6s4.5 2.686 4.5 6" fill="none" stroke="#212121" stroke-linecap="round" stroke-linejoin="round" stroke-width="1.5px"></path><path class="cls-1" d="M12 11.245c0-3.314 2.015-6 4.5-6s4.5 2.686 4.5 6" fill="none" stroke="#212121" stroke-linecap="round" stroke-linejoin="round" stroke-width="1.5px"></path></g></svg>