<svg xmlns="http://www.w3.org/2000/svg" width="24" height="24" viewBox="0 0 24 24"><title>animal print paw 1</title><g fill="#212121" class="nc-icon-wrapper"><defs></defs><path class="cls-1" d="M12.01 11.25c-4.556 0-8.25 3.022-8.25 6.75a5.616 5.616 0 0 0 .473 2.251 3.016 3.016 0 0 0 3.981 1.432A10.118 10.118 0 0 1 12.01 21a10.118 10.118 0 0 1 3.8.683 3.016 3.016 0 0 0 3.981-1.432A5.616 5.616 0 0 0 20.26 18c0-3.728-3.694-6.75-8.25-6.75z" fill="none" stroke="#212121" stroke-linecap="round" stroke-linejoin="round" stroke-width="1.5px"></path><ellipse class="cls-1" cx="8.629" cy="6.005" rx="1.875" ry="2.25" transform="rotate(-6.787 8.63 6.003)" fill="none" stroke="#212121" stroke-linecap="round" stroke-linejoin="round" stroke-width="1.5px"></ellipse><ellipse class="cls-1" cx="2.678" cy="9.714" rx="1.875" ry="2.25" transform="rotate(-18.905 2.679 9.715)" fill="none" stroke="#212121" stroke-linecap="round" stroke-linejoin="round" stroke-width="1.5px"></ellipse><ellipse class="cls-1" cx="15.391" cy="6.005" rx="2.25" ry="1.875" transform="rotate(-83.213 15.391 6.004)" fill="none" stroke="#212121" stroke-linecap="round" stroke-linejoin="round" stroke-width="1.5px"></ellipse><ellipse class="cls-1" cx="21.342" cy="9.714" rx="2.25" ry="1.875" transform="rotate(-71.095 21.342 9.714)" fill="none" stroke="#212121" stroke-linecap="round" stroke-linejoin="round" stroke-width="1.5px"></ellipse><path class="cls-1" d="M1.629 7.737L.76 6" fill="none" stroke="#212121" stroke-linecap="round" stroke-linejoin="round" stroke-width="1.5px"></path><path class="cls-1" d="M7.653 4.036L6.76 2.25" fill="none" stroke="#212121" stroke-linecap="round" stroke-linejoin="round" stroke-width="1.5px"></path><path class="cls-1" d="M16.367 4.036l.893-1.786" fill="none" stroke="#212121" stroke-linecap="round" stroke-linejoin="round" stroke-width="1.5px"></path><path class="cls-1" d="M22.391 7.737L23.26 6" fill="none" stroke="#212121" stroke-linecap="round" stroke-linejoin="round" stroke-width="1.5px"></path></g></svg>