<svg xmlns="http://www.w3.org/2000/svg" width="24" height="24" viewBox="0 0 24 24"><title>animal products egg</title><g fill="#212121" class="nc-icon-wrapper"><defs></defs><path class="cls-1" d="M19.036 12.745a7.5 7.5 0 0 0 .464-2.625c0-5.178-3.358-9.375-7.5-9.375s-7.5 4.2-7.5 9.375a8.206 8.206 0 0 0 .423 2.625" fill="none" stroke="#212121" stroke-linecap="round" stroke-linejoin="round" stroke-width="1.5px"></path><path class="cls-1" d="M13.942 23.245a11.707 11.707 0 0 0 7.021-9.5c.033-.514-.2-1-.713-1H3.75c-.515 0-.746.482-.713 1a11.707 11.707 0 0 0 7.021 9.5" fill="none" stroke="#212121" stroke-linecap="round" stroke-linejoin="round" stroke-width="1.5px"></path><path class="cls-1" d="M3 23.245h18" fill="none" stroke="#212121" stroke-linecap="round" stroke-linejoin="round" stroke-width="1.5px"></path></g></svg>