<svg xmlns="http://www.w3.org/2000/svg" width="24" height="24" viewBox="0 0 24 24"><title>animal print paw 2</title><g fill="#212121" class="nc-icon-wrapper"><defs></defs><path class="cls-1" d="M12.01 11.25a4.5 4.5 0 0 0-4.5 4.5V21a2.25 2.25 0 0 0 4.5 0 2.25 2.25 0 0 0 4.5 0v-5.25a4.5 4.5 0 0 0-4.5-4.5z" fill="none" stroke="#212121" stroke-linecap="round" stroke-linejoin="round" stroke-width="1.5px"></path><path class="cls-1" d="M2.26 8.25a1.5 1.5 0 0 1 3 0v3a1.5 1.5 0 0 1-3 0z" fill="none" stroke="#212121" stroke-linecap="round" stroke-linejoin="round" stroke-width="1.5px"></path><path class="cls-1" d="M18.76 8.25a1.5 1.5 0 0 1 3 0v3a1.5 1.5 0 0 1-3 0z" fill="none" stroke="#212121" stroke-linecap="round" stroke-linejoin="round" stroke-width="1.5px"></path><path class="cls-1" d="M13.51 3.75a1.5 1.5 0 0 1 3 0v3a1.5 1.5 0 0 1-3 0z" fill="none" stroke="#212121" stroke-linecap="round" stroke-linejoin="round" stroke-width="1.5px"></path><path class="cls-1" d="M7.51 3.75a1.5 1.5 0 0 1 3 0v3a1.5 1.5 0 0 1-3 0z" fill="none" stroke="#212121" stroke-linecap="round" stroke-linejoin="round" stroke-width="1.5px"></path><path class="cls-1" d="M3.76 6.75v-1.5" fill="none" stroke="#212121" stroke-linecap="round" stroke-linejoin="round" stroke-width="1.5px"></path><path class="cls-1" d="M9.01 2.25V.75" fill="none" stroke="#212121" stroke-linecap="round" stroke-linejoin="round" stroke-width="1.5px"></path><path class="cls-1" d="M15.01 2.25V.75" fill="none" stroke="#212121" stroke-linecap="round" stroke-linejoin="round" stroke-width="1.5px"></path><path class="cls-1" d="M20.26 6.75v-1.5" fill="none" stroke="#212121" stroke-linecap="round" stroke-linejoin="round" stroke-width="1.5px"></path></g></svg>