<svg xmlns="http://www.w3.org/2000/svg" width="24" height="24" viewBox="0 0 24 24"><title>anteater</title><g fill="#212121" class="nc-icon-wrapper"><defs></defs><path class="cls-1" d="M19.25 20.677H23v-8.25a11.013 11.013 0 0 0-11.25-11.25c-5.25 0-8.25 2.25-9.75 5.25a5.4 5.4 0 0 0 0 5.25 26.52 26.52 0 0 0-.75 4.5c0 1.5 1.5 2.25 2.25.75.949-1.9.984-4.617 3.75-6 3-1.5 3.75 0 3.75 0s-5.97 3.98-1.865 8.5" fill="none" stroke="#212121" stroke-linecap="round" stroke-linejoin="round" stroke-width="1.5px"></path><path class="cls-1" d="M13.25 13.177s.75.75.75 3v4.5h-1.5" fill="none" stroke="#212121" stroke-linecap="round" stroke-linejoin="round" stroke-width="1.5px"></path><path class="cls-1" d="M14 20.677h2.25l.75-5.25s3-.75 3.75 5.25" fill="none" stroke="#212121" stroke-linecap="round" stroke-linejoin="round" stroke-width="1.5px"></path><path class="cls-1" d="M2.2 17.713l-.2.714s-1.5 5.25 1.5 4.5" fill="none" stroke="#212121" stroke-linecap="round" stroke-linejoin="round" stroke-width="1.5px"></path><path class="cls-1" d="M4.625 7.927A.375.375 0 0 1 5 8.3" fill="none" stroke="#212121" stroke-linecap="round" stroke-linejoin="round" stroke-width="1.5px"></path><path class="cls-1" d="M4.25 8.3a.375.375 0 0 1 .375-.375" fill="none" stroke="#212121" stroke-linecap="round" stroke-linejoin="round" stroke-width="1.5px"></path><path class="cls-1" d="M4.625 8.677A.375.375 0 0 1 4.25 8.3" fill="none" stroke="#212121" stroke-linecap="round" stroke-linejoin="round" stroke-width="1.5px"></path><path class="cls-1" d="M5 8.3a.375.375 0 0 1-.375.375" fill="none" stroke="#212121" stroke-linecap="round" stroke-linejoin="round" stroke-width="1.5px"></path><path class="cls-1" d="M8 4.927a1.642 1.642 0 0 1 2.25-.75c.949.474.75 3-.75 3" fill="none" stroke="#212121" stroke-linecap="round" stroke-linejoin="round" stroke-width="1.5px"></path></g></svg>