<svg xmlns="http://www.w3.org/2000/svg" width="24" height="24" viewBox="0 0 24 24"><title>antique swords</title><g fill="#212121" class="nc-icon-wrapper"><defs></defs><path class="a" d="M19.057 9.222l-4.279-4.279-13.4 13.4a.759.759 0 0 0-.217.451l-.4 3.611a.757.757 0 0 0 .836.836l3.611-.4a.759.759 0 0 0 .451-.217z" fill="none" stroke="#212121" stroke-linecap="round" stroke-linejoin="round" stroke-width="1.5px"></path><path class="a" d="M15.313 5.477l4.063-4.062a2.269 2.269 0 0 1 3.209 3.209l-4.062 4.063z" fill="none" stroke="#212121" stroke-linecap="round" stroke-linejoin="round" stroke-width="1.5px"></path><path class="a" d="M13.513 3.678l6.809 6.809" fill="none" stroke="#212121" stroke-linecap="round" stroke-linejoin="round" stroke-width="1.5px"></path><path class="a" d="M5.466 18.534L16.918 7.082" fill="none" stroke="#212121" stroke-linecap="round" stroke-linejoin="round" stroke-width="1.5px"></path><path class="a" d="M8.687 5.477L4.624 1.415a2.269 2.269 0 0 0-3.209 3.209l4.062 4.063z" fill="none" stroke="#212121" stroke-linecap="round" stroke-linejoin="round" stroke-width="1.5px"></path><path class="a" d="M10.487 3.678l-6.809 6.809" fill="none" stroke="#212121" stroke-linecap="round" stroke-linejoin="round" stroke-width="1.5px"></path><path class="a" d="M9.73 9.73L7.082 7.082" fill="none" stroke="#212121" stroke-linecap="round" stroke-linejoin="round" stroke-width="1.5px"></path><path class="a" d="M12 7.72L9.222 4.943 4.943 9.222 7.72 12" fill="none" stroke="#212121" stroke-linecap="round" stroke-linejoin="round" stroke-width="1.5px"></path><path class="a" d="M12 16.28l6.346 6.346a.759.759 0 0 0 .451.217l3.611.4a.757.757 0 0 0 .836-.836l-.4-3.611a.759.759 0 0 0-.217-.451L16.28 12" fill="none" stroke="#212121" stroke-linecap="round" stroke-linejoin="round" stroke-width="1.5px"></path><path class="a" d="M18.534 18.534L14.14 14.14" fill="none" stroke="#212121" stroke-linecap="round" stroke-linejoin="round" stroke-width="1.5px"></path></g></svg>