<svg xmlns="http://www.w3.org/2000/svg" width="24" height="24" viewBox="0 0 24 24"><title>antique catapult 1</title><g fill="#212121" class="nc-icon-wrapper"><defs></defs><path class="a" d="M22.3 18.341a1.5 1.5 0 0 1 .955 1.4v.512a1.5 1.5 0 0 1-1.5 1.5H2.25a1.5 1.5 0 0 1-1.5-1.5v-.512a1.5 1.5 0 0 1 .955-1.4A28.874 28.874 0 0 1 12 16.5a28.874 28.874 0 0 1 10.3 1.841z" fill="none" stroke="#212121" stroke-linecap="round" stroke-linejoin="round" stroke-width="1.5px"></path><path class="a" d="M12.75 16.5V3.75a1.5 1.5 0 0 1 3 0v12.983" fill="none" stroke="#212121" stroke-linecap="round" stroke-linejoin="round" stroke-width="1.5px"></path><path class="a" d="M15.75 6.75l6.09 11.419" fill="none" stroke="#212121" stroke-linecap="round" stroke-linejoin="round" stroke-width="1.5px"></path><path class="a" d="M12.75 16.5l-9.039-5.511-1.492 7.159" fill="none" stroke="#212121" stroke-linecap="round" stroke-linejoin="round" stroke-width="1.5px"></path><path class="a" d="M8.9 9.307a4.466 4.466 0 0 1-7.37-5.046z" fill="none" stroke="#212121" stroke-linecap="round" stroke-linejoin="round" stroke-width="1.5px"></path></g></svg>