<svg xmlns="http://www.w3.org/2000/svg" width="24" height="24" viewBox="0 0 24 24"><title>app window skull</title><g fill="#212121" class="nc-icon-wrapper"><defs></defs><path class="a" d="M19.51 21h1.5a1.5 1.5 0 0 0 1.5-1.5V3a1.5 1.5 0 0 0-1.5-1.5h-18A1.5 1.5 0 0 0 1.51 3v16.5a1.5 1.5 0 0 0 1.5 1.5h1.5" fill="none" stroke="#212121" stroke-linecap="round" stroke-linejoin="round" stroke-width="1.5px"></path><path class="a" d="M1.51 6.003h21" fill="none" stroke="#212121" stroke-linecap="round" stroke-linejoin="round" stroke-width="1.5px"></path><path class="a" d="M18.01 15a6 6 0 0 0-12 0 4.9 4.9 0 0 0 3 4.638v2.112a.75.75 0 0 0 .75.75h4.5a.75.75 0 0 0 .75-.75v-2.109a4.9 4.9 0 0 0 3-4.641z" fill="none" stroke="#212121" stroke-linecap="round" stroke-linejoin="round" stroke-width="1.5px"></path><path class="a" d="M12.01 22.503v-2.25" fill="none" stroke="#212121" stroke-linecap="round" stroke-linejoin="round" stroke-width="1.5px"></path><path class="a" d="M9.76 14.253a.75.75 0 1 1-.75.75.75.75 0 0 1 .75-.75" fill="none" stroke="#212121" stroke-linecap="round" stroke-linejoin="round" stroke-width="1.5px"></path><path class="a" d="M14.26 14.253a.75.75 0 1 1-.75.75.75.75 0 0 1 .75-.75" fill="none" stroke="#212121" stroke-linecap="round" stroke-linejoin="round" stroke-width="1.5px"></path></g></svg>