<svg xmlns="http://www.w3.org/2000/svg" width="24" height="24" viewBox="0 0 24 24"><title>architecture fence 1</title><g fill="#212121" class="nc-icon-wrapper"><defs></defs><path class="a" d="M5.25 19.5a.75.75 0 0 1-.75.75h-3a.75.75 0 0 1-.75-.75V5.25a2.25 2.25 0 0 1 4.5 0z" fill="none" stroke="#212121" stroke-linecap="round" stroke-linejoin="round" stroke-width="1.5px"></path><path class="a" d="M14.25 19.5a.75.75 0 0 1-.75.75h-3a.75.75 0 0 1-.75-.75V5.25a2.25 2.25 0 0 1 4.5 0z" fill="none" stroke="#212121" stroke-linecap="round" stroke-linejoin="round" stroke-width="1.5px"></path><path class="a" d="M23.25 19.5a.75.75 0 0 1-.75.75h-3a.75.75 0 0 1-.75-.75V5.25a2.25 2.25 0 0 1 4.5 0z" fill="none" stroke="#212121" stroke-linecap="round" stroke-linejoin="round" stroke-width="1.5px"></path><path class="a" d="M5.25 8.25h4.5" fill="none" stroke="#212121" stroke-linecap="round" stroke-linejoin="round" stroke-width="1.5px"></path><path class="a" d="M14.25 8.25h4.5" fill="none" stroke="#212121" stroke-linecap="round" stroke-linejoin="round" stroke-width="1.5px"></path><path class="a" d="M5.25 17.25h4.5" fill="none" stroke="#212121" stroke-linecap="round" stroke-linejoin="round" stroke-width="1.5px"></path><path class="a" d="M14.25 17.25h4.5" fill="none" stroke="#212121" stroke-linecap="round" stroke-linejoin="round" stroke-width="1.5px"></path></g></svg>