<svg xmlns="http://www.w3.org/2000/svg" width="24" height="24" viewBox="0 0 24 24"><title>architecture fence</title><g fill="#212121" class="nc-icon-wrapper"><defs></defs><path class="a" d="M5.25 19.542a1.5 1.5 0 0 1-1.5 1.5h-1.5a1.5 1.5 0 0 1-1.5-1.5v-13.5l1.607-2.678a.75.75 0 0 1 1.286 0L5.25 6.042z" fill="none" stroke="#212121" stroke-linecap="round" stroke-linejoin="round" stroke-width="1.5px"></path><path class="a" d="M14.25 19.542a1.5 1.5 0 0 1-1.5 1.5h-1.5a1.5 1.5 0 0 1-1.5-1.5v-13.5l1.607-2.678a.75.75 0 0 1 1.286 0l1.607 2.678z" fill="none" stroke="#212121" stroke-linecap="round" stroke-linejoin="round" stroke-width="1.5px"></path><path class="a" d="M23.25 19.542a1.5 1.5 0 0 1-1.5 1.5h-1.5a1.5 1.5 0 0 1-1.5-1.5v-13.5l1.607-2.678a.75.75 0 0 1 1.286 0l1.607 2.678z" fill="none" stroke="#212121" stroke-linecap="round" stroke-linejoin="round" stroke-width="1.5px"></path><path class="a" d="M5.25 9.042h4.5" fill="none" stroke="#212121" stroke-linecap="round" stroke-linejoin="round" stroke-width="1.5px"></path><path class="a" d="M14.25 9.042h4.5" fill="none" stroke="#212121" stroke-linecap="round" stroke-linejoin="round" stroke-width="1.5px"></path><path class="a" d="M5.25 18.042h4.5" fill="none" stroke="#212121" stroke-linecap="round" stroke-linejoin="round" stroke-width="1.5px"></path><path class="a" d="M14.25 18.042h4.5" fill="none" stroke="#212121" stroke-linecap="round" stroke-linejoin="round" stroke-width="1.5px"></path></g></svg>