<svg xmlns="http://www.w3.org/2000/svg" width="24" height="24" viewBox="0 0 24 24"><title>armadillo</title><g fill="#212121" class="nc-icon-wrapper"><defs></defs><path class="cls-1" d="M19.5 13.091c0 2.659-1.5 2.659-6.75 2.659S6 15.75 6 13.091A6.927 6.927 0 0 1 12.75 6a6.927 6.927 0 0 1 6.75 7.091z" fill="none" stroke="#212121" stroke-linecap="round" stroke-linejoin="round" stroke-width="1.5px"></path><path class="cls-1" d="M6.408 10.657C4.133 9.663.75 10.361.75 12.75.75 15 6 15 6 15h.625" fill="none" stroke="#212121" stroke-linecap="round" stroke-linejoin="round" stroke-width="1.5px"></path><path class="cls-1" d="M6.921 9.513L6.75 9S6 6.75 4.5 6.75c-.75 0-.75 3-.75 3v.489" fill="none" stroke="#212121" stroke-linecap="round" stroke-linejoin="round" stroke-width="1.5px"></path><path class="cls-1" d="M19.381 14.155c0 3 3.869 3.1 3.869 3.1" fill="none" stroke="#212121" stroke-linecap="round" stroke-linejoin="round" stroke-width="1.5px"></path><path class="cls-1" d="M8.297 15.608L7.5 18" fill="none" stroke="#212121" stroke-linecap="round" stroke-linejoin="round" stroke-width="1.5px"></path><path class="cls-1" d="M10.5 15.75V18" fill="none" stroke="#212121" stroke-linecap="round" stroke-linejoin="round" stroke-width="1.5px"></path><path class="cls-1" d="M15 15.75V18" fill="none" stroke="#212121" stroke-linecap="round" stroke-linejoin="round" stroke-width="1.5px"></path><path class="cls-1" d="M17.203 15.608L18 18" fill="none" stroke="#212121" stroke-linecap="round" stroke-linejoin="round" stroke-width="1.5px"></path></g></svg>