<svg xmlns="http://www.w3.org/2000/svg" width="24" height="24" viewBox="0 0 24 24"><title>armchair 2</title><g fill="#212121" class="nc-icon-wrapper"><defs></defs><path class="cls-1" d="M19.5 15.75a1.5 1.5 0 0 1-1.5 1.5h-7.278a4.5 4.5 0 0 1-4.465-3.941l-.771-7.321A2.5 2.5 0 0 0 3 3.75a1.5 1.5 0 0 1 0-3 6.045 6.045 0 0 1 6.025 5.561L9.5 12.28a2.249 2.249 0 0 0 2.232 1.97H18a1.5 1.5 0 0 1 1.5 1.5z" fill="none" stroke="#212121" stroke-linecap="round" stroke-linejoin="round" stroke-width="1.5px"></path><path class="cls-1" d="M9.301 9.75h7.949" fill="none" stroke="#212121" stroke-linecap="round" stroke-linejoin="round" stroke-width="1.5px"></path><path class="cls-1" d="M19.5 15.825a3.75 3.75 0 0 1-.748 7.425H5.25" fill="none" stroke="#212121" stroke-linecap="round" stroke-linejoin="round" stroke-width="1.5px"></path></g></svg>