<svg xmlns="http://www.w3.org/2000/svg" width="24" height="24" viewBox="0 0 24 24"><title>army dog tag 1</title><g fill="#212121" class="nc-icon-wrapper"><defs></defs><path class="a" d="M17.972 4.9a2.993 2.993 0 0 1 1.319 2.482v12.236a3.011 3.011 0 0 1-2.27 2.912 17.741 17.741 0 0 1-5.25.72 17.73 17.73 0 0 1-5.25-.72 3.011 3.011 0 0 1-2.271-2.912V7.382A3.011 3.011 0 0 1 6.521 4.47a17.658 17.658 0 0 1 4.309-.7" fill="none" stroke="#212121" stroke-linecap="round" stroke-linejoin="round" stroke-width="1.5px"></path><path class="a" d="M11.771 7.5l6-6.75" fill="none" stroke="#212121" stroke-linecap="round" stroke-linejoin="round" stroke-width="1.5px"></path><path class="a" d="M8.646 3.984L5.771.75" fill="none" stroke="#212121" stroke-linecap="round" stroke-linejoin="round" stroke-width="1.5px"></path><path class="a" d="M12.521 11.25v7.5" fill="none" stroke="#212121" stroke-linecap="round" stroke-linejoin="round" stroke-width="1.5px"></path><path class="a" d="M9.521 18.75v-3" fill="none" stroke="#212121" stroke-linecap="round" stroke-linejoin="round" stroke-width="1.5px"></path><path class="a" d="M9.521 12.75v-1.5" fill="none" stroke="#212121" stroke-linecap="round" stroke-linejoin="round" stroke-width="1.5px"></path></g></svg>