<svg xmlns="http://www.w3.org/2000/svg" width="24" height="24" viewBox="0 0 24 24"><title>arrow dot corner down right</title><g fill="#212121" class="nc-icon-wrapper"><defs></defs><rect class="cls-1" x=".75" y=".75" width="22.5" height="22.5" rx="2" ry="2" transform="rotate(-180 12 12)" fill="none" stroke="#212121" stroke-linecap="round" stroke-linejoin="round" stroke-width="1.5px"></rect><path class="cls-1" d="M16.235 7.235a.375.375 0 1 0 .53 0 .374.374 0 0 0-.53 0" fill="none" stroke="#212121" stroke-linecap="round" stroke-linejoin="round" stroke-width="1.5px"></path><path class="cls-1" d="M15.485 12.485a.375.375 0 1 0 .53 0 .374.374 0 0 0-.53 0" fill="none" stroke="#212121" stroke-linecap="round" stroke-linejoin="round" stroke-width="1.5px"></path><path class="cls-1" d="M12.485 15.485a.375.375 0 1 0 .53 0 .374.374 0 0 0-.53 0" fill="none" stroke="#212121" stroke-linecap="round" stroke-linejoin="round" stroke-width="1.5px"></path><path class="cls-1" d="M13.235 10.235a.375.375 0 1 0 .53 0 .374.374 0 0 0-.53 0" fill="none" stroke="#212121" stroke-linecap="round" stroke-linejoin="round" stroke-width="1.5px"></path><path class="cls-1" d="M10.235 13.235a.375.375 0 1 0 .53 0 .374.374 0 0 0-.53 0" fill="none" stroke="#212121" stroke-linecap="round" stroke-linejoin="round" stroke-width="1.5px"></path><path class="cls-1" d="M10.985 7.985a.375.375 0 1 0 .53 0 .374.374 0 0 0-.53 0" fill="none" stroke="#212121" stroke-linecap="round" stroke-linejoin="round" stroke-width="1.5px"></path><path class="cls-1" d="M7.985 10.985a.375.375 0 1 0 .53 0 .374.374 0 0 0-.53 0" fill="none" stroke="#212121" stroke-linecap="round" stroke-linejoin="round" stroke-width="1.5px"></path><path class="cls-1" d="M8.735 5.735a.375.375 0 1 0 .53 0 .374.374 0 0 0-.53 0" fill="none" stroke="#212121" stroke-linecap="round" stroke-linejoin="round" stroke-width="1.5px"></path><path class="cls-1" d="M5.735 8.735a.375.375 0 1 0 .53 0 .374.374 0 0 0-.53 0" fill="none" stroke="#212121" stroke-linecap="round" stroke-linejoin="round" stroke-width="1.5px"></path><path class="cls-1" d="M16.235 16.235a.375.375 0 1 0 .53 0 .374.374 0 0 0-.53 0" fill="none" stroke="#212121" stroke-linecap="round" stroke-linejoin="round" stroke-width="1.5px"></path><path class="cls-1" d="M7.235 16.235a.375.375 0 1 0 .53 0 .374.374 0 0 0-.53 0" fill="none" stroke="#212121" stroke-linecap="round" stroke-linejoin="round" stroke-width="1.5px"></path></g></svg>