<svg xmlns="http://www.w3.org/2000/svg" width="24" height="24" viewBox="0 0 24 24"><title>arrow thick left 4</title><g fill="#212121" class="nc-icon-wrapper"><defs></defs><rect class="cls-1" x=".75" y=".75" width="22.5" height="22.5" rx="3" ry="3" fill="none" stroke="#212121" stroke-linecap="round" stroke-linejoin="round" stroke-width="1.5px"></rect><path class="cls-1" d="M18 9.75h-7.5l3.22-3.22a.75.75 0 0 0-.531-1.28h-2.068a1.5 1.5 0 0 0-1.06.439L4.28 11.47a.749.749 0 0 0 0 1.06l5.781 5.781a1.5 1.5 0 0 0 1.06.439h2.068a.75.75 0 0 0 .531-1.28l-3.22-3.22H18a.75.75 0 0 0 .75-.75v-3a.75.75 0 0 0-.75-.75z" fill="none" stroke="#212121" stroke-linecap="round" stroke-linejoin="round" stroke-width="1.5px"></path></g></svg>