<svg xmlns="http://www.w3.org/2000/svg" width="24" height="24" viewBox="0 0 24 24"><title>arrow thick circle up 2</title><g fill="#212121" class="nc-icon-wrapper"><defs></defs><circle class="cls-1" cx="12" cy="12" r="11.25" fill="none" stroke="#212121" stroke-linecap="round" stroke-linejoin="round" stroke-width="1.5px"></circle><path class="cls-1" d="M12 18.75a2.25 2.25 0 0 0 2.25-2.25v-5.25l1.125 1.125a1.592 1.592 0 0 0 2.25 0 1.592 1.592 0 0 0 0-2.25L12.53 5.03a.749.749 0 0 0-1.06 0l-5.1 5.1a1.592 1.592 0 0 0 0 2.25 1.592 1.592 0 0 0 2.25 0l1.13-1.13v5.25A2.25 2.25 0 0 0 12 18.75z" fill="none" stroke="#212121" stroke-linecap="round" stroke-linejoin="round" stroke-width="1.5px"></path></g></svg>