<svg xmlns="http://www.w3.org/2000/svg" width="24" height="24" viewBox="0 0 24 24"><title>arrow thick circle down 1</title><g fill="#212121" class="nc-icon-wrapper"><defs></defs><circle class="cls-1" cx="12" cy="12" r="11.25" fill="none" stroke="#212121" stroke-linecap="round" stroke-linejoin="round" stroke-width="1.5px"></circle><path class="cls-1" d="M10.5 5.25a.75.75 0 0 0-.75.75v6.75l-1.72-1.72a.749.749 0 0 0-1.06 0l-1.19 1.19a.749.749 0 0 0 0 1.06l5.69 5.69a.749.749 0 0 0 1.06 0l5.69-5.69a.749.749 0 0 0 0-1.06l-1.19-1.19a.749.749 0 0 0-1.06 0l-1.72 1.72V6a.75.75 0 0 0-.75-.75z" fill="none" stroke="#212121" stroke-linecap="round" stroke-linejoin="round" stroke-width="1.5px"></path></g></svg>