<svg xmlns="http://www.w3.org/2000/svg" width="24" height="24" viewBox="0 0 24 24"><title>arrow double left 1</title><g fill="#212121" class="nc-icon-wrapper"><defs></defs><path class="cls-1" d="M5.211 14.59l6.54 4.162 6.538-4.162c.667-.424 1.711-.08 1.711.565v2.411a1.372 1.372 0 0 1-.7 1.129l-6.87 4.369a1.332 1.332 0 0 1-1.358 0L4.2 18.7a1.372 1.372 0 0 1-.7-1.129v-2.416c0-.645 1.044-.989 1.711-.565z" fill="none" stroke="#212121" stroke-linecap="round" stroke-linejoin="round" stroke-width="1.5px" fill-rule="evenodd"></path><path class="cls-1" d="M5.211 6.187l6.539 4.162 6.539-4.162c.667-.424 1.711-.08 1.711.564v1.771a1.371 1.371 0 0 1-.7 1.129l-6.867 4.37a1.337 1.337 0 0 1-1.358 0L4.2 9.651a1.371 1.371 0 0 1-.7-1.129V6.751c0-.644 1.044-.988 1.711-.564z" fill="none" stroke="#212121" stroke-linecap="round" stroke-linejoin="round" stroke-width="1.5px" fill-rule="evenodd"></path><path class="cls-1" d="M4.25.75L11.75 6l7.5-5.25" fill="none" stroke="#212121" stroke-linecap="round" stroke-linejoin="round" stroke-width="1.5px" fill-rule="evenodd"></path></g></svg>