<svg xmlns="http://www.w3.org/2000/svg" width="24" height="24" viewBox="0 0 24 24"><title>arrow thick dot corner down left</title><g fill="#212121" class="nc-icon-wrapper"><defs></defs><path class="cls-1" d="M5.89 18.36a.375.375 0 1 0 0 .53.374.374 0 0 0 0-.53" fill="none" stroke="#212121" stroke-linecap="round" stroke-linejoin="round" stroke-width="1.5px"></path><path class="cls-1" d="M11.89 18.36a.375.375 0 1 0 0 .53.374.374 0 0 0 0-.53" fill="none" stroke="#212121" stroke-linecap="round" stroke-linejoin="round" stroke-width="1.5px"></path><path class="cls-1" d="M5.89 6.36a.375.375 0 1 0 0 .53.374.374 0 0 0 0-.53" fill="none" stroke="#212121" stroke-linecap="round" stroke-linejoin="round" stroke-width="1.5px"></path><path class="cls-1" d="M10.39 13.86a.375.375 0 1 0 0 .53.374.374 0 0 0 0-.53" fill="none" stroke="#212121" stroke-linecap="round" stroke-linejoin="round" stroke-width="1.5px"></path><path class="cls-1" d="M14.89 9.36a.375.375 0 1 0 0 .53.374.374 0 0 0 0-.53" fill="none" stroke="#212121" stroke-linecap="round" stroke-linejoin="round" stroke-width="1.5px"></path><path class="cls-1" d="M19.39 4.86a.375.375 0 1 0 0 .53.374.374 0 0 0 0-.53" fill="none" stroke="#212121" stroke-linecap="round" stroke-linejoin="round" stroke-width="1.5px"></path><path class="cls-1" d="M5.89 12.36a.375.375 0 1 0 0 .53.374.374 0 0 0 0-.53" fill="none" stroke="#212121" stroke-linecap="round" stroke-linejoin="round" stroke-width="1.5px"></path><path class="cls-1" d="M17.89 18.89a.375.375 0 1 0-.53 0 .374.374 0 0 0 .53 0" fill="none" stroke="#212121" stroke-linecap="round" stroke-linejoin="round" stroke-width="1.5px"></path></g></svg>