<svg xmlns="http://www.w3.org/2000/svg" width="24" height="24" viewBox="0 0 24 24"><title>astrology tent</title><g fill="#212121" class="nc-icon-wrapper"><defs></defs><path class="a" d="M.773 9.5L12.023 2l11.25 7.5" fill="none" stroke="#212121" stroke-linecap="round" stroke-linejoin="round" stroke-width="1.5px"></path><path class="a" d="M3.119 20.728V8" fill="none" stroke="#212121" stroke-linecap="round" stroke-linejoin="round" stroke-width="1.5px"></path><path class="a" d="M21.119 8v12.728" fill="none" stroke="#212121" stroke-linecap="round" stroke-linejoin="round" stroke-width="1.5px"></path><path class="a" d="M6.847 18.965a.826.826 0 0 1-.716-1.234l5.176-9.057a.825.825 0 0 1 1.432 0l5.175 9.057a.825.825 0 0 1-.716 1.234z" fill="none" stroke="#212121" stroke-linecap="round" stroke-linejoin="round" stroke-width="1.5px"></path><path class="a" d="M17.2 11.544a.824.824 0 0 1 .716 1.233l-5.175 9.058a.825.825 0 0 1-1.432 0l-5.178-9.058a.825.825 0 0 1 .716-1.233z" fill="none" stroke="#212121" stroke-linecap="round" stroke-linejoin="round" stroke-width="1.5px"></path></g></svg>