<svg xmlns="http://www.w3.org/2000/svg" width="24" height="24" viewBox="0 0 24 24"><title>astrology virgo</title><g fill="#212121" class="nc-icon-wrapper"><defs></defs><path class="a" d="M9.344 19V5.607a4.286 4.286 0 0 0-4.286-4.286A4.285 4.285 0 0 0 .773 5.607V19" fill="none" stroke="#212121" stroke-linecap="round" stroke-linejoin="round" stroke-width="1.5px"></path><path class="a" d="M9.344 19V5.607a4.286 4.286 0 0 1 4.286-4.286 4.286 4.286 0 0 1 4.286 4.286v14.464a2.678 2.678 0 0 0 2.678 2.679 2.679 2.679 0 0 0 2.679-2.679v-.535" fill="none" stroke="#212121" stroke-linecap="round" stroke-linejoin="round" stroke-width="1.5px"></path><path class="a" d="M17.916 6.679h2.553a2.8 2.8 0 0 1 2.8 2.8 2.8 2.8 0 0 1-.574 1.7l-8 10.5" fill="none" stroke="#212121" stroke-linecap="round" stroke-linejoin="round" stroke-width="1.5px"></path></g></svg>