<svg xmlns="http://www.w3.org/2000/svg" width="24" height="24" viewBox="0 0 24 24"><title>astrology aries</title><g fill="#212121" class="nc-icon-wrapper"><defs></defs><path class="a" d="M18.031 11.071a9.732 9.732 0 0 1 3.742 7.679.933.933 0 0 1-1.591.659L18.773 18l-5.829 4.934a1.5 1.5 0 0 1-1.842 0L5.273 18l-1.409 1.409a.933.933 0 0 1-1.591-.659 9.733 9.733 0 0 1 3.75-7.686" fill="none" stroke="#212121" stroke-linecap="round" stroke-linejoin="round" stroke-width="1.5px"></path><path class="a" d="M14.987 7.831a2.11 2.11 0 0 1 .51-3.1L21.471.913A1.2 1.2 0 0 1 22.922 2.8l-4.735 5.141a2.11 2.11 0 0 1-3.2-.11z" fill="none" stroke="#212121" stroke-linecap="round" stroke-linejoin="round" stroke-width="1.5px"></path><path class="a" d="M9.058 7.831a2.11 2.11 0 0 0-.51-3.1L2.574.913A1.2 1.2 0 0 0 1.124 2.8l4.735 5.141a2.109 2.109 0 0 0 3.2-.11z" fill="none" stroke="#212121" stroke-linecap="round" stroke-linejoin="round" stroke-width="1.5px"></path><path class="a" d="M8.636 4.8a6 6 0 0 1 6.772 0" fill="none" stroke="#212121" stroke-linecap="round" stroke-linejoin="round" stroke-width="1.5px"></path><path class="a" d="M17.834 8.251a6.019 6.019 0 0 1 .189 1.5V12c0 1.868-4.053 5.7-5.5 7.01a.749.749 0 0 1-1.006 0c-1.443-1.307-5.5-5.143-5.5-7.011V9.75a6 6 0 0 1 .186-1.49" fill="none" stroke="#212121" stroke-linecap="round" stroke-linejoin="round" stroke-width="1.5px"></path><path class="a" d="M9.023 10.5l1.5.75" fill="none" stroke="#212121" stroke-linecap="round" stroke-linejoin="round" stroke-width="1.5px"></path><path class="a" d="M15.023 10.5l-1.5.75" fill="none" stroke="#212121" stroke-linecap="round" stroke-linejoin="round" stroke-width="1.5px"></path></g></svg>