<svg xmlns="http://www.w3.org/2000/svg" width="24" height="24" viewBox="0 0 24 24"><title>astronomy earth rotation</title><g fill="#212121" class="nc-icon-wrapper"><defs></defs><path class="a" d="M23.245 12.1a11.173 11.173 0 0 1-.707 3.807" fill="none" stroke="#212121" stroke-linecap="round" stroke-linejoin="round" stroke-width="1.5px"></path><path class="a" d="M20.428 19.434a11.214 11.214 0 0 1-3.017 2.429" fill="none" stroke="#212121" stroke-linecap="round" stroke-linejoin="round" stroke-width="1.5px"></path><path class="a" d="M13.5 23.138A11.694 11.694 0 0 1 9.633 23" fill="none" stroke="#212121" stroke-linecap="round" stroke-linejoin="round" stroke-width="1.5px"></path><path class="a" d="M5.839 21.407a11.454 11.454 0 0 1-2.82-2.652" fill="none" stroke="#212121" stroke-linecap="round" stroke-linejoin="round" stroke-width="1.5px"></path><path class="a" d="M1.186 15.076a10.78 10.78 0 0 1-.4-3.852" fill="none" stroke="#212121" stroke-linecap="round" stroke-linejoin="round" stroke-width="1.5px"></path><path class="a" d="M1.815 7.245a11.282 11.282 0 0 1 2.211-3.179" fill="none" stroke="#212121" stroke-linecap="round" stroke-linejoin="round" stroke-width="1.5px"></path><path class="a" d="M7.414 1.734a11.382 11.382 0 0 1 3.755-.942" fill="none" stroke="#212121" stroke-linecap="round" stroke-linejoin="round" stroke-width="1.5px"></path><circle class="a" cx="21" cy="3" r="2.25" fill="none" stroke="#212121" stroke-linecap="round" stroke-linejoin="round" stroke-width="1.5px"></circle><circle class="a" cx="12" cy="12" r="6.75" fill="none" stroke="#212121" stroke-linecap="round" stroke-linejoin="round" stroke-width="1.5px"></circle><path class="a" d="M7.486 6.981l1.042 1.39a1.5 1.5 0 0 1 .223 1.375l-.363 1.09a1.5 1.5 0 0 0-.032.838l.374 1.5a1.5 1.5 0 0 1-.683 1.65l-1.628.976" fill="none" stroke="#212121" stroke-linecap="round" stroke-linejoin="round" stroke-width="1.5px"></path><path class="a" d="M18.709 11.25H16.08a1.5 1.5 0 0 0-1.471 1.794l.3 1.511a1.5 1.5 0 0 0 .41.766l1.452 1.452" fill="none" stroke="#212121" stroke-linecap="round" stroke-linejoin="round" stroke-width="1.5px"></path></g></svg>