<svg xmlns="http://www.w3.org/2000/svg" width="24" height="24" viewBox="0 0 24 24"><title>astronomy telescope</title><g fill="#212121" class="nc-icon-wrapper"><defs></defs><path class="a" d="M9.775 12.368l-4.17 2.095a1.973 1.973 0 0 1-2.65-.878 1.973 1.973 0 0 1 .878-2.65l6.174-3.1 1.183 2.355" fill="none" stroke="#212121" stroke-linecap="round" stroke-linejoin="round" stroke-width="1.5px"></path><path class="a" d="M10.45 8.714a1.973 1.973 0 0 1 .877-2.65l6.175-3.1 2.659 5.292-5.112 2.568" fill="none" stroke="#212121" stroke-linecap="round" stroke-linejoin="round" stroke-width="1.5px"></path><path class="a" d="M.75 14.694l2.205-1.109" fill="none" stroke="#212121" stroke-linecap="round" stroke-linejoin="round" stroke-width="1.5px"></path><path class="a" d="M18.822 1.192l.882-.443 3.547 7.059-.882.443a1.974 1.974 0 0 1-2.65-.877l-1.774-3.53a1.974 1.974 0 0 1 .877-2.652z" fill="none" stroke="#212121" stroke-linecap="round" stroke-linejoin="round" stroke-width="1.5px"></path><path class="a" d="M15.43 11.4a3 3 0 1 1-4.03-1.33 3 3 0 0 1 4.03 1.33z" fill="none" stroke="#212121" stroke-linecap="round" stroke-linejoin="round" stroke-width="1.5px"></path><path class="a" d="M12.75 15.75v7.5" fill="none" stroke="#212121" stroke-linecap="round" stroke-linejoin="round" stroke-width="1.5px"></path><path class="a" d="M6 23.25l4.591-8.417" fill="none" stroke="#212121" stroke-linecap="round" stroke-linejoin="round" stroke-width="1.5px"></path><path class="a" d="M19.5 23.25l-4.591-8.417" fill="none" stroke="#212121" stroke-linecap="round" stroke-linejoin="round" stroke-width="1.5px"></path></g></svg>