<svg xmlns="http://www.w3.org/2000/svg" width="24" height="24" viewBox="0 0 24 24"><title>astrology book</title><g fill="#212121" class="nc-icon-wrapper"><defs></defs><path class="a" d="M8.968 20.75h-5.25a3 3 0 0 1-3-3V4.25" fill="none" stroke="#212121" stroke-linecap="round" stroke-linejoin="round" stroke-width="1.5px"></path><path class="a" d="M14.218 1.25H3.878a3.111 3.111 0 0 0-3.119 2.5 3 3 0 0 0 2.959 3.5h9.75" fill="none" stroke="#212121" stroke-linecap="round" stroke-linejoin="round" stroke-width="1.5px"></path><path class="a" d="M3.718 4.25h9" fill="none" stroke="#212121" stroke-linecap="round" stroke-linejoin="round" stroke-width="1.5px"></path><path class="a" d="M11.914 19.585a.75.75 0 0 1-.651-1.122l5.3-9.282a.75.75 0 0 1 1.3 0l5.3 9.282a.75.75 0 0 1-.651 1.122z" fill="none" stroke="#212121" stroke-linecap="round" stroke-linejoin="round" stroke-width="1.5px"></path><path class="a" d="M22.522 12.165a.751.751 0 0 1 .651 1.122l-5.3 9.282a.75.75 0 0 1-1.3 0l-5.3-9.282a.75.75 0 0 1 .651-1.122z" fill="none" stroke="#212121" stroke-linecap="round" stroke-linejoin="round" stroke-width="1.5px"></path></g></svg>