<svg xmlns="http://www.w3.org/2000/svg" width="24" height="24" viewBox="0 0 24 24"><title>audio book headphones person</title><g fill="#212121" class="nc-icon-wrapper"><defs></defs><path class="a" d="M18 9V6.419a5.841 5.841 0 0 0-6-5.668 5.841 5.841 0 0 0-6 5.668V9" fill="none" stroke="#212121" stroke-linecap="round" stroke-linejoin="round" stroke-width="1.5px"></path><circle class="a" cx="12" cy="7.501" r="3.75" fill="none" stroke="#212121" stroke-linecap="round" stroke-linejoin="round" stroke-width="1.5px"></circle><path class="a" d="M12 23.251l-8.778-2.989a1.281 1.281 0 0 1-.972-1.2v-6.551a1.388 1.388 0 0 1 1.841-1.2L12 14.051z" fill="none" stroke="#212121" stroke-linecap="round" stroke-linejoin="round" stroke-width="1.5px"></path><path class="a" d="M20.778 20.262L12 23.251v-9.2l7.909-2.737a1.388 1.388 0 0 1 1.841 1.2v6.554a1.281 1.281 0 0 1-.972 1.194z" fill="none" stroke="#212121" stroke-linecap="round" stroke-linejoin="round" stroke-width="1.5px"></path><path class="a" d="M15.75 15.751l2.25-.75" fill="none" stroke="#212121" stroke-linecap="round" stroke-linejoin="round" stroke-width="1.5px"></path></g></svg>