<svg xmlns="http://www.w3.org/2000/svg" width="24" height="24" viewBox="0 0 24 24"><title>audio book exam f</title><g fill="#212121" class="nc-icon-wrapper"><defs></defs><path class="a" d="M5.25 11.251v-6a1.5 1.5 0 0 1 1.5-1.5h1.5" fill="none" stroke="#212121" stroke-linecap="round" stroke-linejoin="round" stroke-width="1.5px"></path><path class="a" d="M5.25 8.251H7.5" fill="none" stroke="#212121" stroke-linecap="round" stroke-linejoin="round" stroke-width="1.5px"></path><path class="a" d="M2.25 20.251a1.5 1.5 0 0 1-1.5-1.5v-16.5a1.5 1.5 0 0 1 1.5-1.5h10.629a1.5 1.5 0 0 1 1.06.44l2.872 2.871a1.5 1.5 0 0 1 .439 1.061v3.128" fill="none" stroke="#212121" stroke-linecap="round" stroke-linejoin="round" stroke-width="1.5px"></path><path class="a" d="M20.25 22.5v-5.581a5.841 5.841 0 0 0-6-5.668 5.841 5.841 0 0 0-6 5.668V22.5" fill="none" stroke="#212121" stroke-linecap="round" stroke-linejoin="round" stroke-width="1.5px"></path><circle class="a" cx="14.25" cy="19.501" r="3.75" fill="none" stroke="#212121" stroke-linecap="round" stroke-linejoin="round" stroke-width="1.5px"></circle><path class="a" d="M8.25 22.5a3 3 0 1 1 .016-6" fill="none" stroke="#212121" stroke-linecap="round" stroke-linejoin="round" stroke-width="1.5px"></path><path class="a" d="M20.25 22.5a3 3 0 1 0-.016-6" fill="none" stroke="#212121" stroke-linecap="round" stroke-linejoin="round" stroke-width="1.5px"></path></g></svg>