<svg xmlns="http://www.w3.org/2000/svg" width="24" height="24" viewBox="0 0 24 24"><title>audio file edit</title><g fill="#212121" class="nc-icon-wrapper"><defs></defs><path class="a" d="M22.63 14.87L15 22.5l-3.75.75.75-3.75 7.63-7.63a2.116 2.116 0 0 1 2.992 0l.008.008a2.114 2.114 0 0 1 0 2.992z" fill="none" stroke="#212121" stroke-linecap="round" stroke-linejoin="round" stroke-width="1.5px"></path><path class="a" d="M8.25 20.25h-6a1.5 1.5 0 0 1-1.5-1.5V2.25a1.5 1.5 0 0 1 1.5-1.5h10.629a1.5 1.5 0 0 1 1.06.439l2.872 2.872a1.5 1.5 0 0 1 .439 1.06V8.25" fill="none" stroke="#212121" stroke-linecap="round" stroke-linejoin="round" stroke-width="1.5px"></path><ellipse class="a" cx="6" cy="12.75" rx="2.25" ry="1.5" fill="none" stroke="#212121" stroke-linecap="round" stroke-linejoin="round" stroke-width="1.5px"></ellipse><path class="a" d="M8.25 12.75l-.295-5.929 1.062-.113A2.685 2.685 0 0 1 11.6 7.99" fill="none" stroke="#212121" stroke-linecap="round" stroke-linejoin="round" stroke-width="1.5px"></path></g></svg>