<svg xmlns="http://www.w3.org/2000/svg" width="24" height="24" viewBox="0 0 24 24"><title>audio book blind exam f</title><g fill="#212121" class="nc-icon-wrapper"><defs></defs><path class="a" d="M9.75 20.251h-7.5a1.5 1.5 0 0 1-1.5-1.5v-16.5a1.5 1.5 0 0 1 1.5-1.5h10.629a1.5 1.5 0 0 1 1.06.44l2.872 2.871a1.5 1.5 0 0 1 .439 1.061v7.628" fill="none" stroke="#212121" stroke-linecap="round" stroke-linejoin="round" stroke-width="1.5px"></path><path class="a" d="M12.844 20.186a.558.558 0 0 1 0-.619A6.52 6.52 0 0 1 18 16.5a6.52 6.52 0 0 1 5.156 3.066.558.558 0 0 1 0 .619A6.522 6.522 0 0 1 18 23.251a6.522 6.522 0 0 1-5.156-3.065z" fill="none" stroke="#212121" stroke-linecap="round" stroke-linejoin="round" stroke-width="1.5px"></path><path class="a" d="M20.476 17.112l-4.952 5.528" fill="none" stroke="#212121" stroke-linecap="round" stroke-linejoin="round" stroke-width="1.5px"></path><path class="a" d="M6.75 13.5v-6A1.5 1.5 0 0 1 8.25 6h1.5" fill="none" stroke="#212121" stroke-linecap="round" stroke-linejoin="round" stroke-width="1.5px"></path><path class="a" d="M6.75 10.501H9" fill="none" stroke="#212121" stroke-linecap="round" stroke-linejoin="round" stroke-width="1.5px"></path></g></svg>