<svg xmlns="http://www.w3.org/2000/svg" width="24" height="24" viewBox="0 0 24 24"><title>auto pilot car radius</title><g fill="#212121" class="nc-icon-wrapper"><defs></defs><path class="a" d="M23.25 16.013a6 6 0 0 1-6 6" fill="none" stroke="#212121" stroke-linecap="round" stroke-linejoin="round" stroke-width="1.5px"></path><path class="a" d="M20.25 16.013a3 3 0 0 1-3 3" fill="none" stroke="#212121" stroke-linecap="round" stroke-linejoin="round" stroke-width="1.5px"></path><path class="a" d="M18.713 10.763H21a.752.752 0 0 0 .75-.75V8.05a1.678 1.678 0 0 0-.928-1.5L17.25 5.513l-1.017-2.034a1.747 1.747 0 0 0-1.563-.966H8.58a1.747 1.747 0 0 0-1.563.966L6 5.513H3.75a1.5 1.5 0 0 0-1.5 1.5v3a.753.753 0 0 0 .75.75h2.287" fill="none" stroke="#212121" stroke-linecap="round" stroke-linejoin="round" stroke-width="1.5px"></path><circle class="a" cx="7.125" cy="11.138" r="1.875" fill="none" stroke="#212121" stroke-linecap="round" stroke-linejoin="round" stroke-width="1.5px"></circle><circle class="a" cx="16.875" cy="11.138" r="1.875" fill="none" stroke="#212121" stroke-linecap="round" stroke-linejoin="round" stroke-width="1.5px"></circle><path class="a" d="M8.962 10.763h6.076" fill="none" stroke="#212121" stroke-linecap="round" stroke-linejoin="round" stroke-width="1.5px"></path><path class="a" d="M.75 16.013a6 6 0 0 0 6 6" fill="none" stroke="#212121" stroke-linecap="round" stroke-linejoin="round" stroke-width="1.5px"></path><path class="a" d="M3.75 16.013a3 3 0 0 0 3 3" fill="none" stroke="#212121" stroke-linecap="round" stroke-linejoin="round" stroke-width="1.5px"></path></g></svg>