<svg xmlns="http://www.w3.org/2000/svg" width="24" height="24" viewBox="0 0 24 24"><title>award ribbon star 2</title><g fill="#212121" class="nc-icon-wrapper"><defs></defs><path class="a" d="M12.531 5.042L13.78 7.5h2.126a.582.582 0 0 1 .419 1l-1.952 1.922 1.082 2.478a.59.59 0 0 1-.84.737L12 12.169 9.385 13.64a.589.589 0 0 1-.839-.737l1.082-2.485L7.675 8.5a.582.582 0 0 1 .42-1h2.126l1.249-2.458a.6.6 0 0 1 1.061 0z" fill="none" stroke="#212121" stroke-linecap="round" stroke-linejoin="round" stroke-width="1.5px"></path><path class="a" d="M4.717 13.152L.75 18l3.75.75 1.5 4.5 3.991-6.332" fill="none" stroke="#212121" stroke-linecap="round" stroke-linejoin="round" stroke-width="1.5px"></path><path class="a" d="M19.283 13.152L23.25 18l-3.75.75-1.5 4.5-3.99-6.332" fill="none" stroke="#212121" stroke-linecap="round" stroke-linejoin="round" stroke-width="1.5px"></path><path class="a" d="M12.471.916L14.318 2.4l2.369-.118a.75.75 0 0 1 .761.553l.62 2.29 1.986 1.3a.752.752 0 0 1 .291.9L19.5 9.537l.845 2.216a.751.751 0 0 1-.291.895l-1.986 1.3-.62 2.29a.75.75 0 0 1-.761.553l-2.369-.118-1.847 1.488a.751.751 0 0 1-.941 0L9.683 16.67l-2.369.118a.751.751 0 0 1-.762-.553l-.619-2.29-1.986-1.3a.748.748 0 0 1-.291-.895L4.5 9.537 3.656 7.32a.749.749 0 0 1 .291-.9l1.986-1.3.619-2.29a.751.751 0 0 1 .762-.553l2.369.123L11.53.916a.751.751 0 0 1 .941 0z" fill="none" stroke="#212121" stroke-linecap="round" stroke-linejoin="round" stroke-width="1.5px"></path></g></svg>