<svg xmlns="http://www.w3.org/2000/svg" width="24" height="24" viewBox="0 0 24 24"><title>award medal</title><g fill="#212121" class="nc-icon-wrapper"><defs></defs><circle class="a" cx="12" cy="15" r="8.25" fill="none" stroke="#212121" stroke-linecap="round" stroke-linejoin="round" stroke-width="1.5px"></circle><path class="a" d="M12.531 10.292l1.248 2.458h2.127a.582.582 0 0 1 .419 1l-1.953 1.922 1.082 2.485a.589.589 0 0 1-.839.737L12 17.419 9.385 18.89a.589.589 0 0 1-.839-.737l1.082-2.485-1.953-1.922a.582.582 0 0 1 .419-1h2.127l1.249-2.458a.6.6 0 0 1 1.061.004z" fill="none" stroke="#212121" stroke-linecap="round" stroke-linejoin="round" stroke-width="1.5px"></path><path class="a" d="M8.25.75l1.694 6.258" fill="none" stroke="#212121" stroke-linecap="round" stroke-linejoin="round" stroke-width="1.5px"></path><path class="a" d="M4.807 10.958L.75.75" fill="none" stroke="#212121" stroke-linecap="round" stroke-linejoin="round" stroke-width="1.5px"></path><path class="a" d="M15.75.75l-1.694 6.258" fill="none" stroke="#212121" stroke-linecap="round" stroke-linejoin="round" stroke-width="1.5px"></path><path class="a" d="M19.193 10.958L23.25.75" fill="none" stroke="#212121" stroke-linecap="round" stroke-linejoin="round" stroke-width="1.5px"></path></g></svg>