<svg xmlns="http://www.w3.org/2000/svg" width="24" height="24" viewBox="0 0 24 24"><title>award medal 4</title><g fill="#212121" class="nc-icon-wrapper"><defs></defs><path class="a" d="M16.706 17.25a2.4 2.4 0 0 0-2.353-4.075 2.4 2.4 0 0 0-4.7 0A2.4 2.4 0 0 0 7.3 17.25a2.4 2.4 0 0 0 2.353 4.075 2.4 2.4 0 0 0 4.705 0 2.4 2.4 0 0 0 2.353-4.075z" fill="none" stroke="#212121" stroke-linecap="round" stroke-linejoin="round" stroke-width="1.5px"></path><path class="a" d="M12 16.875" fill="none" stroke="#212121" stroke-linecap="round" stroke-linejoin="round" stroke-width="1.5px"></path><path class="a" d="M12 16.875a.375.375 0 1 0 .375.375.375.375 0 0 0-.375-.375" fill="none" stroke="#212121" stroke-linecap="round" stroke-linejoin="round" stroke-width="1.5px"></path><path class="a" d="M12.84 11.4l3.782-2.7a1.5 1.5 0 0 0 .628-1.221V2.25a1.5 1.5 0 0 0-1.5-1.5h-7.5a1.5 1.5 0 0 0-1.5 1.5v5.228A1.5 1.5 0 0 0 7.378 8.7l3.785 2.7" fill="none" stroke="#212121" stroke-linecap="round" stroke-linejoin="round" stroke-width="1.5px"></path><path class="a" d="M12 .75v10.5" fill="none" stroke="#212121" stroke-linecap="round" stroke-linejoin="round" stroke-width="1.5px"></path></g></svg>