<svg xmlns="http://www.w3.org/2000/svg" width="24" height="24" viewBox="0 0 24 24"><title>badminton shuttlecock racquet</title><g fill="#212121" class="nc-icon-wrapper"><defs></defs><path class="cls-1" d="M3.311 22.811a1.5 1.5 0 0 1-2.122-2.122L4.682 17.2 6.8 19.318z" fill="none" stroke="#212121" stroke-linecap="round" stroke-linejoin="round" stroke-width="1.5px"></path><path class="cls-1" d="M8.25 15.75l-2.507 2.507" fill="none" stroke="#212121" stroke-linecap="round" stroke-linejoin="round" stroke-width="1.5px"></path><path class="cls-1" d="M10.417 5.1a8.341 8.341 0 0 1 1.471-1.983c2.861-2.861 7.195-3.166 9.68-.68s2.181 6.819-.68 9.68-7.2 3.165-9.68.68a5.7 5.7 0 0 1-1.544-2.884" fill="none" stroke="#212121" stroke-linecap="round" stroke-linejoin="round" stroke-width="1.5px"></path><path class="cls-1" d="M9.664 9.912L8.25 15.75l5.838-1.414" fill="none" stroke="#212121" stroke-linecap="round" stroke-linejoin="round" stroke-width="1.5px"></path><path class="cls-1" d="M22.358 10.129l-8.487-8.487" fill="none" stroke="#212121" stroke-linecap="round" stroke-linejoin="round" stroke-width="1.5px"></path><path class="cls-1" d="M10.418 5.095l8.487 8.487" fill="none" stroke="#212121" stroke-linecap="round" stroke-linejoin="round" stroke-width="1.5px"></path><path class="cls-1" d="M19.773 1.227l-9.77 9.77" fill="none" stroke="#212121" stroke-linecap="round" stroke-linejoin="round" stroke-width="1.5px"></path><path class="cls-1" d="M13.003 13.997l9.77-9.77" fill="none" stroke="#212121" stroke-linecap="round" stroke-linejoin="round" stroke-width="1.5px"></path><path class="cls-1" d="M.75 5.024L4.993.781 8.008 5.99a1.5 1.5 0 0 1-2.05 2.049z" fill="none" stroke="#212121" stroke-linecap="round" stroke-linejoin="round" stroke-width="1.5px"></path><path class="cls-1" d="M4.109 6.969L6.937 4.14" fill="none" stroke="#212121" stroke-linecap="round" stroke-linejoin="round" stroke-width="1.5px"></path></g></svg>