<svg xmlns="http://www.w3.org/2000/svg" width="24" height="24" viewBox="0 0 24 24"><title>badminton shuttlecock</title><g fill="#212121" class="nc-icon-wrapper"><defs></defs><path class="cls-1" d="M7.152 22.152a3.75 3.75 0 0 1-5.3-5.3l.531-.53 5.3 5.3z" fill="none" stroke="#212121" stroke-linecap="round" stroke-linejoin="round" stroke-width="1.5px"></path><path class="cls-1" d="M4.501 14.196L9.804 19.5l-2.121 2.12-5.303-5.302z" fill="none" stroke="#212121" stroke-linecap="round" stroke-linejoin="round" stroke-width="1.5px"></path><path class="cls-1" d="M9.8 19.5l12.5-4.877a1.5 1.5 0 0 0 .954-1.4V11.25a1.5 1.5 0 0 0-1.5-1.5h-3v-3a1.5 1.5 0 0 0-1.5-1.5h-3v-3a1.5 1.5 0 0 0-1.5-1.5h-1.979a1.5 1.5 0 0 0-1.4.954L4.5 14.2z" fill="none" stroke="#212121" stroke-linecap="round" stroke-linejoin="round" stroke-width="1.5px"></path><path class="cls-1" d="M14.25 5.25L6.237 15.934" fill="none" stroke="#212121" stroke-linecap="round" stroke-linejoin="round" stroke-width="1.5px"></path><path class="cls-1" d="M18.75 9.75L8.066 17.763" fill="none" stroke="#212121" stroke-linecap="round" stroke-linejoin="round" stroke-width="1.5px"></path></g></svg>