<svg xmlns="http://www.w3.org/2000/svg" width="24" height="24" viewBox="0 0 24 24"><title>bag elegant</title><g fill="#212121" class="nc-icon-wrapper"><defs></defs><path class="cls-1" d="M12 12L8.276 9.314a.7.7 0 0 0-.953.3 5.258 5.258 0 0 0 0 4.774.7.7 0 0 0 .953.3L12 12l3.724 2.686a.7.7 0 0 0 .953-.3 5.258 5.258 0 0 0 0-4.774.7.7 0 0 0-.953-.3z" fill="none" stroke="#212121" stroke-linecap="round" stroke-linejoin="round" stroke-width="1.5px"></path><path class="cls-1" d="M1.75 4.5h20.5a1 1 0 0 1 1 1v12a2 2 0 0 1-2 2H2.75a2 2 0 0 1-2-2v-12a1 1 0 0 1 1-1z" fill="none" stroke="#212121" stroke-linecap="round" stroke-linejoin="round" stroke-width="1.5px"></path><path class="cls-1" d="M.75 12h6" fill="none" stroke="#212121" stroke-linecap="round" stroke-linejoin="round" stroke-width="1.5px"></path><path class="cls-1" d="M17.25 12h6" fill="none" stroke="#212121" stroke-linecap="round" stroke-linejoin="round" stroke-width="1.5px"></path></g></svg>