<svg xmlns="http://www.w3.org/2000/svg" width="24" height="24" viewBox="0 0 24 24"><title>baggage check in plane</title><g fill="#212121" class="nc-icon-wrapper"><defs></defs><path class="a" d="M21.479 3.062l-.983.182-3-2.493-1.176.217a.5.5 0 0 0-.308.793l1.534 2.031-1.966.365-.674-.892-1.337.248a.5.5 0 0 0-.363.7l1.122 2.457a1 1 0 0 0 1.092.568l6.607-1.226a1.5 1.5 0 1 0-.548-2.95z" fill="none" stroke="#212121" stroke-linecap="round" stroke-linejoin="round" stroke-width="1.5px"></path><rect class="a" x=".747" y="14.248" width="12" height="9" rx="1.5" ry="1.5" fill="none" stroke="#212121" stroke-linecap="round" stroke-linejoin="round" stroke-width="1.5px"></rect><path class="a" d="M9.747 23.248v-10.5a1.5 1.5 0 0 0-1.5-1.5h-3a1.5 1.5 0 0 0-1.5 1.5v10.5" fill="none" stroke="#212121" stroke-linecap="round" stroke-linejoin="round" stroke-width="1.5px"></path><path class="a" d="M17.997 13.498l2.25-2.25 2.25 2.25" fill="none" stroke="#212121" stroke-linecap="round" stroke-linejoin="round" stroke-width="1.5px"></path><path class="a" d="M20.247 11.248v4.5a4.5 4.5 0 0 1-4.5 4.5" fill="none" stroke="#212121" stroke-linecap="round" stroke-linejoin="round" stroke-width="1.5px"></path></g></svg>