<svg xmlns="http://www.w3.org/2000/svg" width="24" height="24" viewBox="0 0 24 24"><title>bandage leg</title><g fill="#212121" class="nc-icon-wrapper"><defs></defs><path class="cls-1" d="M11 14.25H8.75c-3.328 0-5.425 2.051-6.292 5.243a3 3 0 0 0 2.913 3.757H20a1.5 1.5 0 0 0 1.5-1.5V2.25A1.5 1.5 0 0 0 20 .75h-7.5" fill="none" stroke="#212121" stroke-linecap="round" stroke-linejoin="round" stroke-width="1.5px"></path><path class="cls-1" d="M21.5 6.75L7.129 1.275A1.5 1.5 0 0 0 5.2 2.12L3.307 6.857a1.5 1.5 0 0 0 .836 1.95L21.5 15.75z" fill="none" stroke="#212121" stroke-linecap="round" stroke-linejoin="round" stroke-width="1.5px"></path><path class="cls-1" d="M17.002 16.831L11.75 23.25" fill="none" stroke="#212121" stroke-linecap="round" stroke-linejoin="round" stroke-width="1.5px"></path><path class="cls-1" d="M3.411 17.205l9.428 4.714" fill="none" stroke="#212121" stroke-linecap="round" stroke-linejoin="round" stroke-width="1.5px"></path><path class="cls-1" d="M11 14.25l3.782 5.294" fill="none" stroke="#212121" stroke-linecap="round" stroke-linejoin="round" stroke-width="1.5px"></path><path class="cls-1" d="M18.5.75l-1.686 4.215" fill="none" stroke="#212121" stroke-linecap="round" stroke-linejoin="round" stroke-width="1.5px"></path></g></svg>