<svg xmlns="http://www.w3.org/2000/svg" width="24" height="24" viewBox="0 0 24 24"><title>bandage shoulder</title><g fill="#212121" class="nc-icon-wrapper"><defs></defs><circle class="cls-1" cx="10" cy="3.375" r="2.625" fill="none" stroke="#212121" stroke-linecap="round" stroke-linejoin="round" stroke-width="1.5px"></circle><path class="cls-1" d="M10 17.25v4.5" fill="none" stroke="#212121" stroke-linecap="round" stroke-linejoin="round" stroke-width="1.5px"></path><path class="cls-1" d="M7 17.25v4.5a1.5 1.5 0 0 0 3 0 1.5 1.5 0 0 0 3 0v-9.5A5.956 5.956 0 0 0 18.032 15h.218a1.5 1.5 0 0 0 0-3h-.218a3 3 0 0 1-2.684-1.659l-.177-.354a4.5 4.5 0 0 0-2.31-2.148" fill="none" stroke="#212121" stroke-linecap="round" stroke-linejoin="round" stroke-width="1.5px"></path><path class="cls-1" d="M7.049 7.739A4.5 4.5 0 0 0 4 12v.75a1.5 1.5 0 0 0 1.5 1.5H7" fill="none" stroke="#212121" stroke-linecap="round" stroke-linejoin="round" stroke-width="1.5px"></path><path class="cls-1" d="M10 7.5l-3 6.75" fill="none" stroke="#212121" stroke-linecap="round" stroke-linejoin="round" stroke-width="1.5px"></path><path class="cls-1" d="M8.333 11.25h.917a1.5 1.5 0 0 1 0 3H7" fill="none" stroke="#212121" stroke-linecap="round" stroke-linejoin="round" stroke-width="1.5px"></path></g></svg>