<svg xmlns="http://www.w3.org/2000/svg" width="24" height="24" viewBox="0 0 24 24"><title>barbecue steak</title><g fill="#212121" class="nc-icon-wrapper"><defs></defs><path class="cls-1" d="M23.25 6.75a6 6 0 0 0-6-6h-7.5a9 9 0 0 0-9 9V18A5.251 5.251 0 0 0 6 23.25 5.251 5.251 0 0 0 11.25 18v-.75a4.5 4.5 0 0 1 4.5-4.5h1.5a6 6 0 0 0 6-6z" fill="none" stroke="#212121" stroke-linecap="round" stroke-linejoin="round" stroke-width="1.5px"></path><circle class="cls-1" cx="6" cy="18" r="2.25" fill="none" stroke="#212121" stroke-linecap="round" stroke-linejoin="round" stroke-width="1.5px"></circle><path class="cls-1" d="M17.25 3.75h-7.5a6 6 0 0 0-6 6v1.5a1.5 1.5 0 0 0 1.5 1.5 1.5 1.5 0 0 0 1.5-1.5 1.5 1.5 0 0 1 1.5-1.5h9a3 3 0 0 0 3-3 3 3 0 0 0-3-3z" fill="none" stroke="#212121" stroke-linecap="round" stroke-linejoin="round" stroke-width="1.5px"></path></g></svg>