<svg xmlns="http://www.w3.org/2000/svg" width="24" height="24" viewBox="0 0 24 24"><title>barcode tag</title><g fill="#212121" class="nc-icon-wrapper"><defs></defs><path class="a" d="M4.183 7.605l-.546 3.888a1.5 1.5 0 0 0 .439 1.068l9.5 9.5a1.5 1.5 0 0 0 2.122 0l6.363-6.361a1.5 1.5 0 0 0 0-2.121l-9.623-9.626a1.5 1.5 0 0 0-1.1-.439L7.5 4.122" fill="none" stroke="#212121" stroke-linecap="round" stroke-linejoin="round" stroke-width="1.5px"></path><circle class="a" cx="8.442" cy="8.442" r="1.5" fill="none" stroke="#212121" stroke-linecap="round" stroke-linejoin="round" stroke-width="1.5px"></circle><path class="a" d="M7.382 7.382L1.5 1.5" fill="none" stroke="#212121" stroke-linecap="round" stroke-linejoin="round" stroke-width="1.5px"></path><path class="a" d="M11.454 11.454l2.121-2.121" fill="none" stroke="#212121" stroke-linecap="round" stroke-linejoin="round" stroke-width="1.5px"></path><path class="a" d="M13.575 13.575l2.122-2.121" fill="none" stroke="#212121" stroke-linecap="round" stroke-linejoin="round" stroke-width="1.5px"></path><path class="a" d="M15.697 15.696l2.121-2.121" fill="none" stroke="#212121" stroke-linecap="round" stroke-linejoin="round" stroke-width="1.5px"></path><path class="a" d="M9.333 13.575l4.242 4.243" fill="none" stroke="#212121" stroke-linecap="round" stroke-linejoin="round" stroke-width="1.5px"></path></g></svg>