<svg xmlns="http://www.w3.org/2000/svg" width="24" height="24" viewBox="0 0 24 24"><title>bat</title><g fill="#212121" class="nc-icon-wrapper"><defs></defs><path class="cls-1" d="M.75.75h22.5" fill="none" stroke="#212121" stroke-linecap="round" stroke-linejoin="round" stroke-width="1.5px"></path><path class="cls-1" d="M8.25 23.25V18c0-3 3.75-3.75 3.75-3.75s3.75.75 3.75 3.75v5.25" fill="none" stroke="#212121" stroke-linecap="round" stroke-linejoin="round" stroke-width="1.5px"></path><path class="cls-1" d="M8.25 21A5.738 5.738 0 0 0 12 22.5a5.738 5.738 0 0 0 3.75-1.5" fill="none" stroke="#212121" stroke-linecap="round" stroke-linejoin="round" stroke-width="1.5px"></path><path class="cls-1" d="M7.183 14.443A6.38 6.38 0 0 1 6.75 12c0-5.25 4.594-8.25 5.25-8.25s5.25 3 5.25 8.25a6.393 6.393 0 0 1-.432 2.441" fill="none" stroke="#212121" stroke-linecap="round" stroke-linejoin="round" stroke-width="1.5px"></path><path class="cls-1" d="M9.97 5.049L8.25.75" fill="none" stroke="#212121" stroke-linecap="round" stroke-linejoin="round" stroke-width="1.5px"></path><path class="cls-1" d="M14.03 5.049L15.75.75" fill="none" stroke="#212121" stroke-linecap="round" stroke-linejoin="round" stroke-width="1.5px"></path><path class="cls-1" d="M11.25 18h1.5" fill="none" stroke="#212121" stroke-linecap="round" stroke-linejoin="round" stroke-width="1.5px"></path><path class="cls-1" d="M12.5 7.832a9.377 9.377 0 0 0-1.219 6.629" fill="none" stroke="#212121" stroke-linecap="round" stroke-linejoin="round" stroke-width="1.5px"></path></g></svg>