<svg xmlns="http://www.w3.org/2000/svg" width="24" height="24" viewBox="0 0 24 24"><title>beach palm water</title><g fill="#212121" class="nc-icon-wrapper"><defs></defs><path class="cls-1" d="M21 18.55a20.2 20.2 0 0 0-9-1.8 20.2 20.2 0 0 0-9 1.8" fill="none" stroke="#212121" stroke-linecap="round" stroke-linejoin="round" stroke-width="1.5px"></path><path class="cls-1" d="M15.752 8.477l-.767 8.433" fill="none" stroke="#212121" stroke-linecap="round" stroke-linejoin="round" stroke-width="1.5px"></path><path class="cls-1" d="M8.906 16.922l4.946-9.067" fill="none" stroke="#212121" stroke-linecap="round" stroke-linejoin="round" stroke-width="1.5px"></path><path class="cls-1" d="M13.852 7.855l8.276 2.709A.75.75 0 0 0 23.1 9.7a4.73 4.73 0 0 0-3.6-4.016 6.814 6.814 0 0 0-2.4-.082" fill="none" stroke="#212121" stroke-linecap="round" stroke-linejoin="round" stroke-width="1.5px"></path><path class="cls-1" d="M13.852 7.855L6.317 9.9a.75.75 0 0 1-.934-.873A4.756 4.756 0 0 1 9 4.937a6.347 6.347 0 0 1 3.112.079" fill="none" stroke="#212121" stroke-linecap="round" stroke-linejoin="round" stroke-width="1.5px"></path><path class="cls-1" d="M18.7 5.567l3.1-3.116a.747.747 0 0 0-.21-1.211 4.871 4.871 0 0 0-5.089.51 3.7 3.7 0 0 0-1.282 2.01" fill="none" stroke="#212121" stroke-linecap="round" stroke-linejoin="round" stroke-width="1.5px"></path><path class="cls-1" d="M10.3 4.784L8.348 2.668a.747.747 0 0 1 .392-1.242 13.166 13.166 0 0 1 2.51-.239 5.084 5.084 0 0 1 3.968 2.573" fill="none" stroke="#212121" stroke-linecap="round" stroke-linejoin="round" stroke-width="1.5px"></path><path class="cls-1" d="M.75 23.25a5.511 5.511 0 0 0 4.5-1.5 4.547 4.547 0 0 0 6.75 0 4.547 4.547 0 0 0 6.75 0 5.511 5.511 0 0 0 4.5 1.5" fill="none" stroke="#212121" stroke-linecap="round" stroke-linejoin="round" stroke-width="1.5px"></path></g></svg>