<svg xmlns="http://www.w3.org/2000/svg" width="24" height="24" viewBox="0 0 24 24"><title>beard style razor</title><g fill="#212121" class="nc-icon-wrapper"><defs></defs><path class="cls-1" d="M18.475 10.978l-4.449-2.542-.238.418a.987.987 0 0 1-1.346.366l-6.836-3.9a.987.987 0 0 1-.367-1.346L6.936 1a.492.492 0 0 1 .672-.185l12.434 7.07" fill="none" stroke="#212121" stroke-linecap="round" stroke-linejoin="round" stroke-width="1.5px"></path><path class="cls-1" d="M5.208 23.25a2.958 2.958 0 0 1 0-5.916c7.4 0 12.325-3.451 14.3-8.381.339-.942.662-1.479 1.479-1.479a1.479 1.479 0 0 1 1.479 1.479C22.464 12.4 14.575 23.25 5.208 23.25z" fill="none" stroke="#212121" stroke-linecap="round" stroke-linejoin="round" stroke-width="1.5px"></path></g></svg>