<svg xmlns="http://www.w3.org/2000/svg" width="24" height="24" viewBox="0 0 24 24"><title>bendable phone</title><g fill="#212121" class="nc-icon-wrapper"><defs></defs><path class="a" d="M9.75 9.75h-7.5a1.5 1.5 0 0 1-1.5-1.5v-1.5a6 6 0 0 1 12 0v15a1.5 1.5 0 0 0 1.5 1.5h7.5a1.5 1.5 0 0 0 1.5-1.5v-15a6 6 0 0 0-6-6H6.75" fill="none" stroke="#212121" stroke-linecap="round" stroke-linejoin="round" stroke-width="1.5px"></path><path class="a" d="M18.75 3.75a3.25 3.25 0 0 1 1.5 3v10.5h-4.5V6.75c0-2.25-.75-3-.75-3" fill="none" stroke="#212121" stroke-linecap="round" stroke-linejoin="round" stroke-width="1.5px"></path><path class="a" d="M18 19.875a.375.375 0 1 0 .375.375.375.375 0 0 0-.375-.375" fill="none" stroke="#212121" stroke-linecap="round" stroke-linejoin="round" stroke-width="1.5px"></path></g></svg>