<svg xmlns="http://www.w3.org/2000/svg" width="24" height="24" viewBox="0 0 24 24"><title>bin paper 1</title><g fill="#212121" class="nc-icon-wrapper"><defs></defs><path class="a" d="M3.346 15.404l9.411-9.411" fill="none" stroke="#212121" stroke-linecap="round" stroke-linejoin="round" stroke-width="1.5px"></path><path class="a" d="M10.552 23.198l10.562-10.562" fill="none" stroke="#212121" stroke-linecap="round" stroke-linejoin="round" stroke-width="1.5px"></path><path class="a" d="M5.016 21.234L22.439 3.811" fill="none" stroke="#212121" stroke-linecap="round" stroke-linejoin="round" stroke-width="1.5px"></path><path class="a" d="M20.655 15.404l-9.411-9.411" fill="none" stroke="#212121" stroke-linecap="round" stroke-linejoin="round" stroke-width="1.5px"></path><path class="a" d="M13.449 23.198L2.888 12.636" fill="none" stroke="#212121" stroke-linecap="round" stroke-linejoin="round" stroke-width="1.5px"></path><path class="a" d="M18.985 21.234L1.562 3.811" fill="none" stroke="#212121" stroke-linecap="round" stroke-linejoin="round" stroke-width="1.5px"></path><path class="a" d="M12 .75c5.8 0 10.5 1.175 10.5 2.625 0 0-2.25 16.125-3 17.25-.8 1.206-2.944 2.625-7.5 2.625s-6.7-1.419-7.5-2.625c-.75-1.125-3-17.25-3-17.25C1.5 1.925 6.2.75 12 .75z" fill="none" stroke="#212121" stroke-linecap="round" stroke-linejoin="round" stroke-width="1.5px"></path><path class="a" d="M22.5 3.375C22.5 4.824 17.8 6 12 6S1.5 4.824 1.5 3.375" fill="none" stroke="#212121" stroke-linecap="round" stroke-linejoin="round" stroke-width="1.5px"></path></g></svg>