<svg xmlns="http://www.w3.org/2000/svg" width="24" height="24" viewBox="0 0 24 24"><title>bird cage 2</title><g fill="#212121" class="nc-icon-wrapper"><defs></defs><path class="cls-1" d="M1.288 21.2a3 3 0 0 0 2.846 2.05h15.757a3 3 0 0 0 2.846-2.05l.487-1.462a.75.75 0 0 0-.711-.987h-21a.75.75 0 0 0-.712.987z" fill="none" stroke="#212121" stroke-linecap="round" stroke-linejoin="round" stroke-width="1.5px"></path><path class="cls-1" d="M4.513 18.75L5.864 6.584A1.5 1.5 0 0 1 7.355 5.25h9.315a1.5 1.5 0 0 1 1.491 1.334l1.352 12.166" fill="none" stroke="#212121" stroke-linecap="round" stroke-linejoin="round" stroke-width="1.5px"></path><path class="cls-1" d="M15.013 5.25v-1.5a3 3 0 0 0-6 0v1.5" fill="none" stroke="#212121" stroke-linecap="round" stroke-linejoin="round" stroke-width="1.5px"></path><path class="cls-1" d="M13.513 15.75v-3.375a2.625 2.625 0 0 0-5.25 0v3.375" fill="none" stroke="#212121" stroke-linecap="round" stroke-linejoin="round" stroke-width="1.5px"></path><path class="cls-1" d="M13.513 12.75l2.25 1.5" fill="none" stroke="#212121" stroke-linecap="round" stroke-linejoin="round" stroke-width="1.5px"></path><path class="cls-1" d="M10.888 12.75a.374.374 0 0 0-.375.375" fill="none" stroke="#212121" stroke-linecap="round" stroke-linejoin="round" stroke-width="1.5px"></path><path class="cls-1" d="M11.263 13.125a.375.375 0 0 0-.375-.375" fill="none" stroke="#212121" stroke-linecap="round" stroke-linejoin="round" stroke-width="1.5px"></path><path class="cls-1" d="M10.888 13.5a.375.375 0 0 0 .375-.375" fill="none" stroke="#212121" stroke-linecap="round" stroke-linejoin="round" stroke-width="1.5px"></path><path class="cls-1" d="M10.513 13.125a.374.374 0 0 0 .375.375" fill="none" stroke="#212121" stroke-linecap="round" stroke-linejoin="round" stroke-width="1.5px"></path></g></svg>