<svg xmlns="http://www.w3.org/2000/svg" width="24" height="24" viewBox="0 0 24 24"><title>body care cream</title><g fill="#212121" class="nc-icon-wrapper"><defs></defs><path class="cls-1" d="M1.25 11.6h21.5a.5.5 0 0 1 .5.5v8a2 2 0 0 1-2 2H2.75a2 2 0 0 1-2-2v-8a.5.5 0 0 1 .5-.5z" fill="none" stroke="#212121" stroke-linecap="round" stroke-linejoin="round" stroke-width="1.5px"></path><path class="cls-1" d="M4.75 8.6h14.5a1 1 0 0 1 1 1v2H3.75v-2a1 1 0 0 1 1-1z" fill="none" stroke="#212121" stroke-linecap="round" stroke-linejoin="round" stroke-width="1.5px"></path><path class="cls-1" d="M5.25 8.6c0-2.25 1.5-4.5 3.75-4.5h4.5A3.649 3.649 0 0 0 17 1.731a.745.745 0 0 1 1.286-.191c2.951 3.953.464 7.062.464 7.062" fill="none" stroke="#212121" stroke-linecap="round" stroke-linejoin="round" stroke-width="1.5px"></path><path class="cls-1" d="M5.25 14.602h13.5v4.5H5.25z" fill="none" stroke="#212121" stroke-linecap="round" stroke-linejoin="round" stroke-width="1.5px"></path></g></svg>