<svg xmlns="http://www.w3.org/2000/svg" width="24" height="24" viewBox="0 0 24 24"><title>body care snail</title><g fill="#212121" class="nc-icon-wrapper"><defs></defs><path class="cls-1" d="M7.057 19.9a5.81 5.81 0 0 1 5.231-8.3c7.438 0 7.729 11.558.466 9.371a3.379 3.379 0 0 1-2.326-4.171A2.621 2.621 0 0 1 12 15.116" fill="none" stroke="#212121" stroke-linecap="round" stroke-linejoin="round" stroke-width="1.5px"></path><path class="cls-1" d="M17.4 19.7a7.882 7.882 0 0 1 5.85 3.55H7.067c-4.041 0-3.991-2.822-6.317-10.5a3 3 0 0 1 3-3 3 3 0 0 1 2.6 1.507" fill="none" stroke="#212121" stroke-linecap="round" stroke-linejoin="round" stroke-width="1.5px"></path><path class="cls-1" d="M15.75 4.5h7.5" fill="none" stroke="#212121" stroke-linecap="round" stroke-linejoin="round" stroke-width="1.5px"></path><path class="cls-1" d="M19.5.75v7.5" fill="none" stroke="#212121" stroke-linecap="round" stroke-linejoin="round" stroke-width="1.5px"></path><path class="cls-1" d="M9 6.75h4.5" fill="none" stroke="#212121" stroke-linecap="round" stroke-linejoin="round" stroke-width="1.5px"></path><path class="cls-1" d="M11.25 4.5V9" fill="none" stroke="#212121" stroke-linecap="round" stroke-linejoin="round" stroke-width="1.5px"></path><path class="cls-1" d="M3.75 9.75a3 3 0 0 0-3-3" fill="none" stroke="#212121" stroke-linecap="round" stroke-linejoin="round" stroke-width="1.5px"></path></g></svg>