<svg xmlns="http://www.w3.org/2000/svg" width="24" height="24" viewBox="0 0 24 24"><title>body care soap</title><g fill="#212121" class="nc-icon-wrapper"><defs></defs><path class="cls-1" d="M11.227 20.25h-4.5a3 3 0 0 1-3-3v-7.5a3 3 0 0 1 3-3h6a3 3 0 0 1 3 3v.75" fill="none" stroke="#212121" stroke-linecap="round" stroke-linejoin="round" stroke-width="1.5px"></path><path class="cls-1" d="M3.727 2.25l.622-.621A3 3 0 0 1 6.47.75h7.007" fill="none" stroke="#212121" stroke-linecap="round" stroke-linejoin="round" stroke-width="1.5px"></path><path class="cls-1" d="M12.727 6.75h-6v-1.5a1.5 1.5 0 0 1 1.5-1.5h3a1.5 1.5 0 0 1 1.5 1.5z" fill="none" stroke="#212121" stroke-linecap="round" stroke-linejoin="round" stroke-width="1.5px"></path><path class="cls-1" d="M9.727 3.75v-3" fill="none" stroke="#212121" stroke-linecap="round" stroke-linejoin="round" stroke-width="1.5px"></path><path class="cls-1" d="M21.727 19.544a3.75 3.75 0 0 1-7.5 0c0-2.47 3.125-6.794 3.75-6.794s3.75 4.324 3.75 6.794z" fill="none" stroke="#212121" stroke-linecap="round" stroke-linejoin="round" stroke-width="1.5px"></path></g></svg>