<svg xmlns="http://www.w3.org/2000/svg" width="24" height="24" viewBox="0 0 24 24"><title>book close bookmark 1</title><g fill="#212121" class="nc-icon-wrapper"><defs></defs><path class="a" d="M21 23.25H5.25A2.25 2.25 0 0 1 3 21" fill="none" stroke="#212121" stroke-linecap="round" stroke-linejoin="round" stroke-width="1.5px"></path><path class="a" d="M12 2.25H6a3 3 0 0 0-3 3V21a2.25 2.25 0 0 1 2.25-2.25h15A.75.75 0 0 0 21 18V3a.75.75 0 0 0-.75-.75H18" fill="none" stroke="#212121" stroke-linecap="round" stroke-linejoin="round" stroke-width="1.5px"></path><path class="a" d="M19.5 23.25v-4.5" fill="none" stroke="#212121" stroke-linecap="round" stroke-linejoin="round" stroke-width="1.5px"></path><path class="a" d="M18 12.75l-3-3-3 3V2.25a1.5 1.5 0 0 1 1.5-1.5h3a1.5 1.5 0 0 1 1.5 1.5z" fill="none" stroke="#212121" stroke-linecap="round" stroke-linejoin="round" stroke-width="1.5px"></path></g></svg>