<svg xmlns="http://www.w3.org/2000/svg" width="24" height="24" viewBox="0 0 24 24"><title>book address 1</title><g fill="#212121" class="nc-icon-wrapper"><defs></defs><path class="a" d="M21 23.25H5.25A2.25 2.25 0 0 1 3 21" fill="none" stroke="#212121" stroke-linecap="round" stroke-linejoin="round" stroke-width="1.5px"></path><path class="a" d="M6 .75a3 3 0 0 0-3 3V21a2.25 2.25 0 0 1 2.25-2.25h15A.75.75 0 0 0 21 18V1.5a.75.75 0 0 0-.75-.75z" fill="none" stroke="#212121" stroke-linecap="round" stroke-linejoin="round" stroke-width="1.5px"></path><path class="a" d="M19.5 23.25v-4.5" fill="none" stroke="#212121" stroke-linecap="round" stroke-linejoin="round" stroke-width="1.5px"></path><path class="a" d="M7.5 15.75a4.5 4.5 0 0 1 9 0z" fill="none" stroke="#212121" stroke-linecap="round" stroke-linejoin="round" stroke-width="1.5px"></path><circle class="a" cx="12" cy="8.25" r="3" fill="none" stroke="#212121" stroke-linecap="round" stroke-linejoin="round" stroke-width="1.5px"></circle></g></svg>