<svg xmlns="http://www.w3.org/2000/svg" width="24" height="24" viewBox="0 0 24 24"><title>book close</title><g fill="#212121" class="nc-icon-wrapper"><defs></defs><path class="a" d="M13 22.906a16.989 16.989 0 0 1 8.856-3.89 1.6 1.6 0 0 0 1.391-1.587V6.21a1.611 1.611 0 0 0-1.835-1.6A17.067 17.067 0 0 0 13 8.442a1.636 1.636 0 0 1-2.006 0 17.067 17.067 0 0 0-8.409-3.829A1.611 1.611 0 0 0 .75 6.21v11.219a1.6 1.6 0 0 0 1.391 1.587A16.989 16.989 0 0 1 11 22.906a1.633 1.633 0 0 0 2 0z" fill="none" stroke="#212121" stroke-linecap="round" stroke-linejoin="round" stroke-width="1.5px"></path><path class="a" d="M20.02.75A17.679 17.679 0 0 0 13 4.315a1.636 1.636 0 0 1-2.006 0A17.668 17.668 0 0 0 3.984.751" fill="none" stroke="#212121" stroke-linecap="round" stroke-linejoin="round" stroke-width="1.5px"></path><path class="a" d="M12 8.784v14.463" fill="none" stroke="#212121" stroke-linecap="round" stroke-linejoin="round" stroke-width="1.5px"></path></g></svg>