<svg xmlns="http://www.w3.org/2000/svg" width="24" height="24" viewBox="0 0 24 24"><title>book image</title><g fill="#212121" class="nc-icon-wrapper"><defs></defs><path class="a" d="M8.25 23.25H3A2.25 2.25 0 0 1 .75 21" fill="none" stroke="#212121" stroke-linecap="round" stroke-linejoin="round" stroke-width="1.5px"></path><path class="a" d="M18.75 8.25V1.5A.75.75 0 0 0 18 .75H3.75a3 3 0 0 0-3 3V21A2.25 2.25 0 0 1 3 18.75h5.25" fill="none" stroke="#212121" stroke-linecap="round" stroke-linejoin="round" stroke-width="1.5px"></path><rect class="a" x="11.25" y="11.25" width="12" height="12" rx="1" ry="1" fill="none" stroke="#212121" stroke-linecap="round" stroke-linejoin="round" stroke-width="1.5px"></rect><path class="a" d="M15.375 14.25a.375.375 0 1 0 .375.375.375.375 0 0 0-.375-.375" fill="none" stroke="#212121" stroke-linecap="round" stroke-linejoin="round" stroke-width="1.5px"></path><path class="a" d="M23.25 21l-2.391-3.587a.75.75 0 0 0-1.239-.013l-2 2.851-1.236-.989a.751.751 0 0 0-1.093.17L12.75 23.25" fill="none" stroke="#212121" stroke-linecap="round" stroke-linejoin="round" stroke-width="1.5px"></path></g></svg>