<svg xmlns="http://www.w3.org/2000/svg" width="24" height="24" viewBox="0 0 24 24"><title>book edit</title><g fill="#212121" class="nc-icon-wrapper"><defs></defs><path class="a" d="M8.249 23.25H3A2.25 2.25 0 0 1 .751 21" fill="none" stroke="#212121" stroke-linecap="round" stroke-linejoin="round" stroke-width="1.5px"></path><path class="a" d="M18.751 9V1.5A.75.75 0 0 0 18 .75H3.751a3 3 0 0 0-3 3V21A2.25 2.25 0 0 1 3 18.75h6" fill="none" stroke="#212121" stroke-linecap="round" stroke-linejoin="round" stroke-width="1.5px"></path><path class="a" d="M22.629 14.87L15 22.5l-3.75.75.75-3.75 7.63-7.63a2.114 2.114 0 0 1 2.992 0l.008.008a2.116 2.116 0 0 1-.001 2.992z" fill="none" stroke="#212121" stroke-linecap="round" stroke-linejoin="round" stroke-width="1.5px"></path></g></svg>