<svg xmlns="http://www.w3.org/2000/svg" width="24" height="24" viewBox="0 0 24 24"><title>brain</title><g fill="#212121" class="nc-icon-wrapper"><defs></defs><path class="a" d="M22.8 12a2.808 2.808 0 0 1-2.614 2.8 3.493 3.493 0 0 1-3.095 5.622 1.874 1.874 0 1 1-3.677.592 2.819 2.819 0 0 1-2.82 0 1.874 1.874 0 1 1-3.677-.592A3.493 3.493 0 0 1 3.818 14.8a2.8 2.8 0 0 1 0-5.592 3.493 3.493 0 0 1 3.1-5.622 1.874 1.874 0 1 1 3.672-.596 2.819 2.819 0 0 1 2.82 0 1.874 1.874 0 1 1 3.677.592A3.493 3.493 0 0 1 20.182 9.2 2.808 2.808 0 0 1 22.8 12z" fill="none" stroke="#212121" stroke-linecap="round" stroke-linejoin="round" stroke-width="1.5px"></path><path class="a" d="M12 13.597v.939" fill="none" stroke="#212121" stroke-linecap="round" stroke-linejoin="round" stroke-width="1.5px"></path><path class="a" d="M12 9.278v.939" fill="none" stroke="#212121" stroke-linecap="round" stroke-linejoin="round" stroke-width="1.5px"></path><path class="a" d="M12 4.959v.939" fill="none" stroke="#212121" stroke-linecap="round" stroke-linejoin="round" stroke-width="1.5px"></path><path class="a" d="M12 17.916v.939" fill="none" stroke="#212121" stroke-linecap="round" stroke-linejoin="round" stroke-width="1.5px"></path><circle class="a" cx="8.01" cy="8.339" r="1.408" fill="none" stroke="#212121" stroke-linecap="round" stroke-linejoin="round" stroke-width="1.5px"></circle><circle class="a" cx="16.224" cy="8.245" r="1.408" fill="none" stroke="#212121" stroke-linecap="round" stroke-linejoin="round" stroke-width="1.5px"></circle><circle class="a" cx="7.306" cy="16.694" r="1.408" fill="none" stroke="#212121" stroke-linecap="round" stroke-linejoin="round" stroke-width="1.5px"></circle><circle class="a" cx="16.342" cy="14.816" r="1.408" fill="none" stroke="#212121" stroke-linecap="round" stroke-linejoin="round" stroke-width="1.5px"></circle><path class="a" d="M6.133 11.625h.938a.938.938 0 0 0 .939-.939v-.939" fill="none" stroke="#212121" stroke-linecap="round" stroke-linejoin="round" stroke-width="1.5px"></path></g></svg>