<svg xmlns="http://www.w3.org/2000/svg" width="24" height="24" viewBox="0 0 24 24"><title>brain chip</title><g fill="#212121" class="nc-icon-wrapper"><defs></defs><path class="a" d="M23.25 12a3 3 0 0 0-2.183-2.886 2.249 2.249 0 0 0-1.383-3.856 2.29 2.29 0 0 0-.411-.363 3 3 0 0 0-5.461-2.478 2.249 2.249 0 0 0-3.624 0 3 3 0 0 0-5.461 2.478 2.29 2.29 0 0 0-.411.363 2.249 2.249 0 0 0-1.383 3.856 3 3 0 0 0 0 5.773 2.248 2.248 0 0 0 1.383 3.855 2.29 2.29 0 0 0 .411.363 3 3 0 0 0 5.461 2.478 2.249 2.249 0 0 0 3.624 0 3 3 0 0 0 5.461-2.478 2.29 2.29 0 0 0 .411-.363 2.248 2.248 0 0 0 1.383-3.855A3 3 0 0 0 23.25 12z" fill="none" stroke="#212121" stroke-linecap="round" stroke-linejoin="round" stroke-width="1.5px"></path><rect class="a" x="7.5" y="7.5" width="9" height="9" rx="1.5" ry="1.5" fill="none" stroke="#212121" stroke-linecap="round" stroke-linejoin="round" stroke-width="1.5px"></rect><path class="a" d="M9.75 7.5V6" fill="none" stroke="#212121" stroke-linecap="round" stroke-linejoin="round" stroke-width="1.5px"></path><path class="a" d="M14.25 7.5V6" fill="none" stroke="#212121" stroke-linecap="round" stroke-linejoin="round" stroke-width="1.5px"></path><path class="a" d="M9.75 18v-1.5" fill="none" stroke="#212121" stroke-linecap="round" stroke-linejoin="round" stroke-width="1.5px"></path><path class="a" d="M14.25 18v-1.5" fill="none" stroke="#212121" stroke-linecap="round" stroke-linejoin="round" stroke-width="1.5px"></path><path class="a" d="M16.5 9.75H18" fill="none" stroke="#212121" stroke-linecap="round" stroke-linejoin="round" stroke-width="1.5px"></path><path class="a" d="M16.5 14.25H18" fill="none" stroke="#212121" stroke-linecap="round" stroke-linejoin="round" stroke-width="1.5px"></path><path class="a" d="M6 9.75h1.5" fill="none" stroke="#212121" stroke-linecap="round" stroke-linejoin="round" stroke-width="1.5px"></path><path class="a" d="M6 14.25h1.5" fill="none" stroke="#212121" stroke-linecap="round" stroke-linejoin="round" stroke-width="1.5px"></path><path class="a" d="M10.5 10.5h3v3h-3z" fill="none" stroke="#212121" stroke-linecap="round" stroke-linejoin="round" stroke-width="1.5px"></path></g></svg>