<svg xmlns="http://www.w3.org/2000/svg" width="24" height="24" viewBox="0 0 24 24"><title>brain lightning</title><g fill="#212121" class="nc-icon-wrapper"><defs></defs><path class="a" d="M23.251 12a3 3 0 0 0-2.183-2.886 2.249 2.249 0 0 0-1.383-3.856 2.262 2.262 0 0 0-.412-.363 3 3 0 0 0-5.46-2.478 2.25 2.25 0 0 0-3.625 0 3 3 0 0 0-5.46 2.478 2.223 2.223 0 0 0-.411.363 2.25 2.25 0 0 0-1.384 3.856 3 3 0 0 0 0 5.773 2.249 2.249 0 0 0 1.384 3.855 2.29 2.29 0 0 0 .411.363 3 3 0 0 0 5.46 2.478 2.25 2.25 0 0 0 3.625 0 3 3 0 0 0 5.46-2.478 2.223 2.223 0 0 0 .411-.363 2.248 2.248 0 0 0 1.384-3.855A3 3 0 0 0 23.251 12z" fill="none" stroke="#212121" stroke-linecap="round" stroke-linejoin="round" stroke-width="1.5px"></path><path class="a" d="M13.5 5.25l-5.91 6.882a.375.375 0 0 0 .286.618H10.5v6l5.91-6.882a.375.375 0 0 0-.285-.618H13.5z" fill="none" stroke="#212121" stroke-linecap="round" stroke-linejoin="round" stroke-width="1.5px"></path></g></svg>