<svg xmlns="http://www.w3.org/2000/svg" width="24" height="24" viewBox="0 0 24 24"><title>bread loaf</title><g fill="#212121" class="nc-icon-wrapper"><defs></defs><path class="cls-1" d="M17.25 5.986A5.25 5.25 0 0 0 12 .736H6A5.237 5.237 0 0 0 3.725 10.7L2.447 21.56a1.5 1.5 0 0 0 1.49 1.676H15.75L14.275 10.7a5.234 5.234 0 0 0 2.975-4.714z" fill="none" stroke="#212121" stroke-linecap="round" stroke-linejoin="round" stroke-width="1.5px"></path><path class="cls-1" d="M15.75 23.236h4.313a1.5 1.5 0 0 0 1.49-1.676L20.275 10.7A5.237 5.237 0 0 0 18 .736h-6" fill="none" stroke="#212121" stroke-linecap="round" stroke-linejoin="round" stroke-width="1.5px"></path><path class="cls-1" d="M20.338 11.236h-6" fill="none" stroke="#212121" stroke-linecap="round" stroke-linejoin="round" stroke-width="1.5px"></path></g></svg>