<svg xmlns="http://www.w3.org/2000/svg" width="24" height="24" viewBox="0 0 24 24"><title>breakfast english</title><g fill="#212121" class="nc-icon-wrapper"><defs></defs><circle class="cls-1" cx="5.813" cy="14.04" r="2.363" fill="none" stroke="#212121" stroke-linecap="round" stroke-linejoin="round" stroke-width="1.5px"></circle><path class="cls-1" d="M6.15 8.978a5.4 5.4 0 1 0 5.225 6.7 3.368 3.368 0 0 0-.5-6.7z" fill="none" stroke="#212121" stroke-linecap="round" stroke-linejoin="round" stroke-width="1.5px"></path><path class="cls-1" d="M23.028 10.673c-.606 1.26.351 2.5-.255 3.756S20.605 15.713 20 16.973s.351 2.5-.254 3.755-2.169 1.284-2.774 2.544l-3.15-1.514c.606-1.26 2.168-1.284 2.774-2.544s-.352-2.495.254-3.755 2.168-1.284 2.774-2.544-.352-2.5.254-3.756z" fill="none" stroke="#212121" stroke-linecap="round" stroke-linejoin="round" stroke-width="1.5px"></path><path class="cls-1" d="M20.625 5.978a2.625 2.625 0 1 0 0-5.25h-12a2.625 2.625 0 0 0 0 5.25z" fill="none" stroke="#212121" stroke-linecap="round" stroke-linejoin="round" stroke-width="1.5px"></path><path class="cls-1" d="M9.75.728l.75 2.25" fill="none" stroke="#212121" stroke-linecap="round" stroke-linejoin="round" stroke-width="1.5px"></path><path class="cls-1" d="M13.5.728l.75 2.25" fill="none" stroke="#212121" stroke-linecap="round" stroke-linejoin="round" stroke-width="1.5px"></path><path class="cls-1" d="M17.25.728l.75 2.25" fill="none" stroke="#212121" stroke-linecap="round" stroke-linejoin="round" stroke-width="1.5px"></path></g></svg>