<svg xmlns="http://www.w3.org/2000/svg" width="24" height="24" viewBox="0 0 24 24"><title>bread baguette</title><g fill="#212121" class="nc-icon-wrapper"><defs></defs><path class="cls-1" d="M22.988 19.363a.75.75 0 0 0-.488-1.319h-21a.75.75 0 0 0-.488 1.319l3.5 3a.748.748 0 0 0 .488.181h14a.748.748 0 0 0 .488-.181z" fill="none" stroke="#212121" stroke-linecap="round" stroke-linejoin="round" stroke-width="1.5px"></path><path class="cls-1" d="M18.75 12.044h-4.5a4.5 4.5 0 0 0-4.5 4.5 1.5 1.5 0 0 0 1.5 1.5h10.5a1.5 1.5 0 0 0 1.5-1.5 4.5 4.5 0 0 0-4.5-4.5z" fill="none" stroke="#212121" stroke-linecap="round" stroke-linejoin="round" stroke-width="1.5px"></path><path class="cls-1" d="M14.25 12.044v3" fill="none" stroke="#212121" stroke-linecap="round" stroke-linejoin="round" stroke-width="1.5px"></path><path class="cls-1" d="M18.75 12.044v3" fill="none" stroke="#212121" stroke-linecap="round" stroke-linejoin="round" stroke-width="1.5px"></path><path class="cls-1" d="M4.207 12.175l1.209 1.082a2.127 2.127 0 0 0 3-.166.873.873 0 0 0-.068-1.232L6.208 9.94z" fill="none" stroke="#212121" stroke-linecap="round" stroke-linejoin="round" stroke-width="1.5px"></path><path class="cls-1" d="M9.209 6.587l1.209 1.083a2.128 2.128 0 0 0 3-.166.873.873 0 0 0-.068-1.233l-2.139-1.919z" fill="none" stroke="#212121" stroke-linecap="round" stroke-linejoin="round" stroke-width="1.5px"></path><path class="cls-1" d="M3 18.044a3.75 3.75 0 0 1 .207-4.751l9.504-10.617a3.751 3.751 0 0 1 5.3-.293 3.75 3.75 0 0 1 .292 5.3l-3.908 4.365" fill="none" stroke="#212121" stroke-linecap="round" stroke-linejoin="round" stroke-width="1.5px"></path></g></svg>