<svg xmlns="http://www.w3.org/2000/svg" width="24" height="24" viewBox="0 0 24 24"><title>breakup cry</title><g fill="#212121" class="nc-icon-wrapper"><defs></defs><path class="a" d="M.762 14.665a13.755 13.755 0 0 0 6.163 1.517c4.837.079 9.734-3.216 12.759-6.445a1.857 1.857 0 0 0 0-2.544C16.592 3.9 11.677.674 6.925.751A13.793 13.793 0 0 0 .75 2.28" fill="none" stroke="#212121" stroke-linecap="round" stroke-linejoin="round" stroke-width="1.5px"></path><circle class="a" cx="7.512" cy="8.25" r="3.75" fill="none" stroke="#212121" stroke-linecap="round" stroke-linejoin="round" stroke-width="1.5px"></circle><path class="a" d="M23.262 20.25a3 3 0 0 1-6 0c0-1.167 1.488-3.666 2.368-5.042a.75.75 0 0 1 1.263 0c.88 1.375 2.369 3.875 2.369 5.042z" fill="none" stroke="#212121" stroke-linecap="round" stroke-linejoin="round" stroke-width="1.5px"></path></g></svg>