<svg xmlns="http://www.w3.org/2000/svg" width="24" height="24" viewBox="0 0 24 24"><title>bridge</title><g fill="#212121" class="nc-icon-wrapper"><defs></defs><path class="a" d="M.75 12.5a4.5 4.5 0 0 1 4.5 4.5" fill="none" stroke="#212121" stroke-linecap="round" stroke-linejoin="round" stroke-width="1.5px"></path><path class="a" d="M23.25 12.5a4.5 4.5 0 0 0-4.5 4.5" fill="none" stroke="#212121" stroke-linecap="round" stroke-linejoin="round" stroke-width="1.5px"></path><path class="a" d="M4.104 14h15.792" fill="none" stroke="#212121" stroke-linecap="round" stroke-linejoin="round" stroke-width="1.5px"></path><path class="a" d="M1.211 12.523L3.184 6.21A6 6 0 0 1 8.911 2h6.178a6 6 0 0 1 5.727 4.21l1.973 6.313" fill="none" stroke="#212121" stroke-linecap="round" stroke-linejoin="round" stroke-width="1.5px"></path><path class="a" d="M3.258 5.988L7.5 14 12 2" fill="none" stroke="#212121" stroke-linecap="round" stroke-linejoin="round" stroke-width="1.5px"></path><path class="a" d="M20.742 5.988L16.5 14 12 2" fill="none" stroke="#212121" stroke-linecap="round" stroke-linejoin="round" stroke-width="1.5px"></path><path class="a" d="M23.25 21.5a2.553 2.553 0 0 1-2.475-2.25c0 1.243-1.31 2.25-2.925 2.25s-2.925-1.007-2.925-2.25c0 1.243-1.31 2.25-2.925 2.25s-2.925-1.007-2.925-2.25c0 1.243-1.31 2.25-2.925 2.25s-2.925-1.007-2.925-2.25A2.553 2.553 0 0 1 .75 21.5" fill="none" stroke="#212121" stroke-linecap="round" stroke-linejoin="round" stroke-width="1.5px"></path></g></svg>