<svg xmlns="http://www.w3.org/2000/svg" width="24" height="24" viewBox="0 0 24 24"><title>bridge 1</title><g fill="#212121" class="nc-icon-wrapper"><defs></defs><path class="a" d="M23.215 10.75A18.6 18.6 0 0 1 19.184 7c-1.263-1.5-3.249-5.25-7.219-5.25S6.009 5.5 4.745 7a18.6 18.6 0 0 1-4.03 3.75z" fill="none" stroke="#212121" stroke-linecap="round" stroke-linejoin="round" stroke-width="1.5px"></path><path class="a" d="M14.215 2.19v8.56" fill="none" stroke="#212121" stroke-linecap="round" stroke-linejoin="round" stroke-width="1.5px"></path><path class="a" d="M17.215 4.474v6.276" fill="none" stroke="#212121" stroke-linecap="round" stroke-linejoin="round" stroke-width="1.5px"></path><path class="a" d="M9.715 2.19v8.56" fill="none" stroke="#212121" stroke-linecap="round" stroke-linejoin="round" stroke-width="1.5px"></path><path class="a" d="M6.715 4.474v6.276" fill="none" stroke="#212121" stroke-linecap="round" stroke-linejoin="round" stroke-width="1.5px"></path><path class="a" d="M.715 15.25v-4.5" fill="none" stroke="#212121" stroke-linecap="round" stroke-linejoin="round" stroke-width="1.5px"></path><path class="a" d="M18.9 14.523a8.251 8.251 0 0 0-13.856-.007" fill="none" stroke="#212121" stroke-linecap="round" stroke-linejoin="round" stroke-width="1.5px"></path><path class="a" d="M23.215 10.75v4.5" fill="none" stroke="#212121" stroke-linecap="round" stroke-linejoin="round" stroke-width="1.5px"></path><path class="a" d="M23.25 21.25A2.553 2.553 0 0 1 20.775 19c0 1.243-1.31 2.25-2.925 2.25s-2.925-1.007-2.925-2.25c0 1.243-1.31 2.25-2.925 2.25S9.075 20.243 9.075 19c0 1.243-1.31 2.25-2.925 2.25S3.225 20.243 3.225 19A2.553 2.553 0 0 1 .75 21.25" fill="none" stroke="#212121" stroke-linecap="round" stroke-linejoin="round" stroke-width="1.5px"></path></g></svg>