<svg xmlns="http://www.w3.org/2000/svg" width="24" height="24" viewBox="0 0 24 24"><title>building modern</title><g fill="#212121" class="nc-icon-wrapper"><defs></defs><path class="a" d="M3.25 9.75h8.5a1 1 0 0 1 1 1v12.5H2.25v-12.5a1 1 0 0 1 1-1z" fill="none" stroke="#212121" stroke-linecap="round" stroke-linejoin="round" stroke-width="1.5px"></path><path class="a" d="M15.75 23.25h6v-21a1.5 1.5 0 0 0-1.5-1.5h-9a1.5 1.5 0 0 0-1.5 1.5v4.5h1.5" fill="none" stroke="#212121" stroke-linecap="round" stroke-linejoin="round" stroke-width="1.5px"></path><path class="a" d="M2.25 23.25H.75" fill="none" stroke="#212121" stroke-linecap="round" stroke-linejoin="round" stroke-width="1.5px"></path><path class="a" d="M21.75 23.25h1.5" fill="none" stroke="#212121" stroke-linecap="round" stroke-linejoin="round" stroke-width="1.5px"></path><path class="a" d="M9.75 3.75h4.5" fill="none" stroke="#212121" stroke-linecap="round" stroke-linejoin="round" stroke-width="1.5px"></path><path class="a" d="M2.25 12.75H4.5" fill="none" stroke="#212121" stroke-linecap="round" stroke-linejoin="round" stroke-width="1.5px"></path><path class="a" d="M8.25 23.25h-3v-3a1.5 1.5 0 0 1 3 0z" fill="none" stroke="#212121" stroke-linecap="round" stroke-linejoin="round" stroke-width="1.5px"></path><path class="a" d="M18.75 23.25h-3v-4.5a1.5 1.5 0 0 1 3 0z" fill="none" stroke="#212121" stroke-linecap="round" stroke-linejoin="round" stroke-width="1.5px"></path></g></svg>