<svg xmlns="http://www.w3.org/2000/svg" width="24" height="24" viewBox="0 0 24 24"><title>building daylight</title><g fill="#212121" class="nc-icon-wrapper"><defs></defs><path class="a" d="M16.208 23.25h-9v-9.5a1 1 0 0 1 1-1h7a1 1 0 0 1 1 1v9.5z" fill="none" stroke="#212121" stroke-linecap="round" stroke-linejoin="round" stroke-width="1.5px"></path><path class="a" d="M4.2 23.25H2.7v-18a1.5 1.5 0 0 1 1.5-1.5h4.5a1.5 1.5 0 0 1 1.5 1.5v4.5H8.7" fill="none" stroke="#212121" stroke-linecap="round" stroke-linejoin="round" stroke-width="1.5px"></path><path class="a" d="M16.203 23.25h6" fill="none" stroke="#212121" stroke-linecap="round" stroke-linejoin="round" stroke-width="1.5px"></path><path class="a" d="M2.703 23.25h-1.5" fill="none" stroke="#212121" stroke-linecap="round" stroke-linejoin="round" stroke-width="1.5px"></path><path class="a" d="M10.203 6.75h-3" fill="none" stroke="#212121" stroke-linecap="round" stroke-linejoin="round" stroke-width="1.5px"></path><path class="a" d="M16.203 15.75h-2.25" fill="none" stroke="#212121" stroke-linecap="round" stroke-linejoin="round" stroke-width="1.5px"></path><path class="a" d="M10.2 23.25h3v-3a1.5 1.5 0 0 0-3 0z" fill="none" stroke="#212121" stroke-linecap="round" stroke-linejoin="round" stroke-width="1.5px"></path><circle class="a" cx="18.453" cy="6" r="2.25" fill="none" stroke="#212121" stroke-linecap="round" stroke-linejoin="round" stroke-width="1.5px"></circle><path class="a" d="M18.453.75v.75" fill="none" stroke="#212121" stroke-linecap="round" stroke-linejoin="round" stroke-width="1.5px"></path><path class="a" d="M13.907 3.375l.649.375" fill="none" stroke="#212121" stroke-linecap="round" stroke-linejoin="round" stroke-width="1.5px"></path><path class="a" d="M13.907 8.625l.649-.375" fill="none" stroke="#212121" stroke-linecap="round" stroke-linejoin="round" stroke-width="1.5px"></path><path class="a" d="M18.453 11.25v-.75" fill="none" stroke="#212121" stroke-linecap="round" stroke-linejoin="round" stroke-width="1.5px"></path><path class="a" d="M23 8.625l-.65-.375" fill="none" stroke="#212121" stroke-linecap="round" stroke-linejoin="round" stroke-width="1.5px"></path><path class="a" d="M23 3.375l-.65.375" fill="none" stroke="#212121" stroke-linecap="round" stroke-linejoin="round" stroke-width="1.5px"></path></g></svg>