<svg xmlns="http://www.w3.org/2000/svg" width="24" height="24" viewBox="0 0 24 24"><title>business flame</title><g fill="#212121" class="nc-icon-wrapper"><defs></defs><path class="a" d="M19.5 6.5h1.3a1.146 1.146 0 0 1 1.139.941l1.282 7.506a1.646 1.646 0 0 1 .025.29A1.786 1.786 0 0 1 21.443 17H2.557A1.786 1.786 0 0 1 .75 15.237a1.646 1.646 0 0 1 .025-.29l1.282-7.506A1.146 1.146 0 0 1 3.2 6.5h1.3" fill="none" stroke="#212121" stroke-linecap="round" stroke-linejoin="round" stroke-width="1.5px"></path><path class="a" d="M1.728 20h20.544" fill="none" stroke="#212121" stroke-linecap="round" stroke-linejoin="round" stroke-width="1.5px"></path><path class="a" d="M3 23h18.587" fill="none" stroke="#212121" stroke-linecap="round" stroke-linejoin="round" stroke-width="1.5px"></path><path class="a" d="M11.946 1.043a.49.49 0 0 1 .624.694 3.147 3.147 0 0 0 .587 3.963 3.559 3.559 0 0 0 .907-1.5.489.489 0 0 1 .737-.257A5.1 5.1 0 0 1 17 8.145a4.892 4.892 0 1 1-9.783 0 7.959 7.959 0 0 1 4.729-7.102z" fill="none" stroke="#212121" stroke-linecap="round" stroke-linejoin="round" stroke-width="1.5px"></path></g></svg>