<svg xmlns="http://www.w3.org/2000/svg" width="24" height="24" viewBox="0 0 24 24"><title>business human plant</title><g fill="#212121" class="nc-icon-wrapper"><defs></defs><path class="a" d="M15.5 23.25v-2.935h1.088a2.935 2.935 0 0 0 2.935-2.935v-2.935h3.314C20.69 8 19.461.75 11.342.75a9.53 9.53 0 0 0-5.625 17.228v5.272" fill="none" stroke="#212121" stroke-linecap="round" stroke-linejoin="round" stroke-width="1.5px"></path><path class="a" d="M8.621 14.113a2.242 2.242 0 0 1-2.778-1.445 2.241 2.241 0 0 1 .8-3.028 2.242 2.242 0 0 1 2.778 1.445" fill="none" stroke="#212121" stroke-linecap="round" stroke-linejoin="round" stroke-width="1.5px"></path><path class="a" d="M17.212 9.75a.375.375 0 1 1-.375.375.375.375 0 0 1 .375-.375" fill="none" stroke="#212121" stroke-linecap="round" stroke-linejoin="round" stroke-width="1.5px"></path><path class="a" d="M11 3.815l-.75 1.5.75 1.5" fill="none" stroke="#212121" stroke-linecap="round" stroke-linejoin="round" stroke-width="1.5px"></path><path class="a" d="M8 3.815l-.75 1.5.75 1.5" fill="none" stroke="#212121" stroke-linecap="round" stroke-linejoin="round" stroke-width="1.5px"></path><path class="a" d="M14 3.815l-.75 1.5.75 1.5" fill="none" stroke="#212121" stroke-linecap="round" stroke-linejoin="round" stroke-width="1.5px"></path><path class="a" d="M1.25 5.315H15.5" fill="none" stroke="#212121" stroke-linecap="round" stroke-linejoin="round" stroke-width="1.5px"></path></g></svg>