<svg xmlns="http://www.w3.org/2000/svg" width="24" height="24" viewBox="0 0 24 24"><title>business piggy bank broken</title><g fill="#212121" class="nc-icon-wrapper"><defs></defs><path class="a" d="M8.625 6a.375.375 0 1 1-.375.375A.376.376 0 0 1 8.625 6" fill="none" stroke="#212121" stroke-linecap="round" stroke-linejoin="round" stroke-width="1.5px"></path><path class="a" d="M8.25 13.395v3.757" fill="none" stroke="#212121" stroke-linecap="round" stroke-linejoin="round" stroke-width="1.5px"></path><path class="a" d="M14.707 9.016l-2.918-2.188a.489.489 0 0 1-.172-.54l1.391-4.346a9.546 9.546 0 0 0-2.43.2 2.907 2.907 0 0 0-3.906-1.023 2.742 2.742 0 0 1 1.4 1.986A6.354 6.354 0 0 0 4.9 7.5H3v3h2.25a7.874 7.874 0 0 0 6 3.848z" fill="none" stroke="#212121" stroke-linecap="round" stroke-linejoin="round" stroke-width="1.5px"></path><path class="a" d="M16.6 6.1a.488.488 0 0 0 .074.6l1.9 1.9a.487.487 0 0 1 .067.608l-3.21 5.044c.029 0 .056.006.085.006 4.274 0 7.738-2.8 7.738-6.261 0-2.511-1.824-4.645-4.405-5.644z" fill="none" stroke="#212121" stroke-linecap="round" stroke-linejoin="round" stroke-width="1.5px"></path><ellipse class="a" cx="3.375" cy="21.75" rx="2.625" ry="1.5" fill="none" stroke="#212121" stroke-linecap="round" stroke-linejoin="round" stroke-width="1.5px"></ellipse><ellipse class="a" cx="20.625" cy="21.75" rx="2.625" ry="1.5" fill="none" stroke="#212121" stroke-linecap="round" stroke-linejoin="round" stroke-width="1.5px"></ellipse><ellipse class="a" cx="12.375" cy="21" rx="2.625" ry="1.5" fill="none" stroke="#212121" stroke-linecap="round" stroke-linejoin="round" stroke-width="1.5px"></ellipse><path class="a" d="M23.25 17.25H.75" fill="none" stroke="#212121" stroke-linecap="round" stroke-linejoin="round" stroke-width="1.5px"></path><path class="a" d="M19.5 13.355v3.895" fill="none" stroke="#212121" stroke-linecap="round" stroke-linejoin="round" stroke-width="1.5px"></path></g></svg>