<svg xmlns="http://www.w3.org/2000/svg" width="24" height="24" viewBox="0 0 24 24"><title>business money basket</title><g fill="#212121" class="nc-icon-wrapper"><defs></defs><path class="a" d="M6.718 5.731L2.05 7.793a1.5 1.5 0 0 0-.766 1.978l2.644 5.989" fill="none" stroke="#212121" stroke-linecap="round" stroke-linejoin="round" stroke-width="1.5px"></path><path class="a" d="M12.02 15.76l10.258-4.531a1.5 1.5 0 0 0 .767-1.978l-3.36-7.607a1.5 1.5 0 0 0-1.978-.766l-5.086 2.246" fill="none" stroke="#212121" stroke-linecap="round" stroke-linejoin="round" stroke-width="1.5px"></path><path class="a" d="M3.891 18.407l1.536 4.765" fill="none" stroke="#212121" stroke-linecap="round" stroke-linejoin="round" stroke-width="1.5px"></path><path class="a" d="M9.028 18.407l.788 4.765" fill="none" stroke="#212121" stroke-linecap="round" stroke-linejoin="round" stroke-width="1.5px"></path><path class="a" d="M21.864 23.172l1.362-3.438a1.1 1.1 0 0 0-1.073-1.327H1.847a1.1 1.1 0 0 0-1.073 1.327l1.362 3.438" fill="none" stroke="#212121" stroke-linecap="round" stroke-linejoin="round" stroke-width="1.5px"></path><path class="a" d="M20.129 18.407l-1.536 4.765" fill="none" stroke="#212121" stroke-linecap="round" stroke-linejoin="round" stroke-width="1.5px"></path><path class="a" d="M14.972 18.407l-.768 4.765" fill="none" stroke="#212121" stroke-linecap="round" stroke-linejoin="round" stroke-width="1.5px"></path><path class="a" d="M10.715 11.24a2.221 2.221 0 0 0 2.052.094 1.861 1.861 0 0 0 1.308-2.222 1.861 1.861 0 0 0-2.5-.634 1.861 1.861 0 0 1-2.5-.636 1.861 1.861 0 0 1 1.308-2.221 2.224 2.224 0 0 1 2.052.093" fill="none" stroke="#212121" stroke-linecap="round" stroke-linejoin="round" stroke-width="1.5px"></path><path class="a" d="M12.767 11.334l.396.951" fill="none" stroke="#212121" stroke-linecap="round" stroke-linejoin="round" stroke-width="1.5px"></path><path class="a" d="M9.99 4.67l.396.951" fill="none" stroke="#212121" stroke-linecap="round" stroke-linejoin="round" stroke-width="1.5px"></path></g></svg>