<svg xmlns="http://www.w3.org/2000/svg" width="24" height="24" viewBox="0 0 24 24"><title>business deal handshake circle</title><g fill="#212121" class="nc-icon-wrapper"><defs></defs><path class="a" d="M18.75 14.004l-4.787.957" fill="none" stroke="#212121" stroke-linecap="round" stroke-linejoin="round" stroke-width="1.5px"></path><path class="a" d="M14.438 9.531l-2.26.955a1.42 1.42 0 0 1-1.122-.016 1.478 1.478 0 0 1-.781-.83 1.525 1.525 0 0 1 .706-1.9l2.259-1.127a1.961 1.961 0 0 1 1.594-.094l4.639 1.828" fill="none" stroke="#212121" stroke-linecap="round" stroke-linejoin="round" stroke-width="1.5px"></path><path class="a" d="M5.2 15h1.6l3.049 2.326a.83.83 0 0 0 1.15.09l4.26-3.518a.842.842 0 0 0 .129-1.164l-2.347-2.609" fill="none" stroke="#212121" stroke-linecap="round" stroke-linejoin="round" stroke-width="1.5px"></path><path class="a" d="M10.736 7.9l-.247-.2a1.787 1.787 0 0 0-1.725-.221L5.194 9" fill="none" stroke="#212121" stroke-linecap="round" stroke-linejoin="round" stroke-width="1.5px"></path><path class="a" d="M1.39 15.75h2.66a1.141 1.141 0 0 0 1.2-1.072V9.321a1.141 1.141 0 0 0-1.2-1.071H1.39" fill="none" stroke="#212121" stroke-linecap="round" stroke-linejoin="round" stroke-width="1.5px"></path><path class="a" d="M22.61 15.75h-2.66a1.141 1.141 0 0 1-1.2-1.072V9.321a1.141 1.141 0 0 1 1.2-1.071h2.66" fill="none" stroke="#212121" stroke-linecap="round" stroke-linejoin="round" stroke-width="1.5px"></path><circle class="a" cx="12" cy="12" r="11.25" fill="none" stroke="#212121" stroke-linecap="round" stroke-linejoin="round" stroke-width="1.5px"></circle></g></svg>