<svg xmlns="http://www.w3.org/2000/svg" width="24" height="24" viewBox="0 0 24 24"><title>business rabbit hat</title><g fill="#212121" class="nc-icon-wrapper"><defs></defs><path class="a" d="M18.72 21.931a.977.977 0 0 1-.245.913 1.326 1.326 0 0 1-.974.406H5a1.326 1.326 0 0 1-.974-.406.977.977 0 0 1-.245-.913l2.16-8.431h10.618z" fill="none" stroke="#212121" stroke-linecap="round" stroke-linejoin="round" stroke-width="1.5px"></path><path class="a" d="M2.25 13.5h18" fill="none" stroke="#212121" stroke-linecap="round" stroke-linejoin="round" stroke-width="1.5px"></path><path class="a" d="M4.787 18h12.926" fill="none" stroke="#212121" stroke-linecap="round" stroke-linejoin="round" stroke-width="1.5px"></path><path class="a" d="M12.235 13.5l-1.416-9.672C10.574 2.159 9.773.57 8.1.815s-1.982 2-1.738 3.665l1.325 9.02" fill="none" stroke="#212121" stroke-linecap="round" stroke-linejoin="round" stroke-width="1.5px"></path><path class="a" d="M15.604 13.5l2.432-6.254" fill="none" stroke="#212121" stroke-linecap="round" stroke-linejoin="round" stroke-width="1.5px"></path><path class="a" d="M17.067 6.221a3.248 3.248 0 0 0 4.146 1.264c1.066-.662.3-1.945-.2-2.712a5.475 5.475 0 0 0-3.473-2.446l-.046-.008a2.1 2.1 0 0 0-2.326 1.306c-2.88 7.359-3.163 8.094-3.184 8.153" fill="none" stroke="#212121" stroke-linecap="round" stroke-linejoin="round" stroke-width="1.5px"></path></g></svg>