<svg xmlns="http://www.w3.org/2000/svg" width="24" height="24" viewBox="0 0 24 24"><title>business climb top 1</title><g fill="#212121" class="nc-icon-wrapper"><defs></defs><path class="a" d="M4.25 23.229l8.5-13.5a1.261 1.261 0 0 1 2 0l8.5 13.5z" fill="none" stroke="#212121" stroke-linecap="round" stroke-linejoin="round" stroke-width="1.5px"></path><path class="a" d="M4.25 23.229H.75l3.75-6.75 2.175 2.9" fill="none" stroke="#212121" stroke-linecap="round" stroke-linejoin="round" stroke-width="1.5px"></path><path class="a" d="M8.711 16.144l2.337 1.991a1 1 0 0 0 1.353-.056l.642-.642a1 1 0 0 1 1.414 0l.642.642a1 1 0 0 0 1.353.056l2.353-1.966" fill="none" stroke="#212121" stroke-linecap="round" stroke-linejoin="round" stroke-width="1.5px"></path><path class="a" d="M13.5 9.267V.729" fill="none" stroke="#212121" stroke-linecap="round" stroke-linejoin="round" stroke-width="1.5px"></path><path class="a" d="M13.5.729h3.75v1.5h4.5l-1.5 2.25 1.5 2.25h-4.5v-.75H13.5" fill="none" stroke="#212121" stroke-linecap="round" stroke-linejoin="round" stroke-width="1.5px"></path></g></svg>