<svg xmlns="http://www.w3.org/2000/svg" width="24" height="24" viewBox="0 0 24 24"><title>business message bottle</title><g fill="#212121" class="nc-icon-wrapper"><defs></defs><path class="a" d="M.75 18.083a8.983 8.983 0 0 1 6-2.25c3.75 0 10.5 6.334 16.5.334" fill="none" stroke="#212121" stroke-linecap="round" stroke-linejoin="round" stroke-width="1.5px"></path><path class="a" d="M.75 22.583a8.983 8.983 0 0 1 6-2.25c3.75 0 10.5 6.334 16.5.334" fill="none" stroke="#212121" stroke-linecap="round" stroke-linejoin="round" stroke-width="1.5px"></path><path class="a" d="M16.915 18.737l3.729-7.6a3.749 3.749 0 0 0-.025-3.354 3.749 3.749 0 0 1-.025-3.354l1.156-2.358L19.057.749 17.9 3.106a3.751 3.751 0 0 1-2.668 2.033 3.752 3.752 0 0 0-2.669 2.032L8.2 16.068" fill="none" stroke="#212121" stroke-linecap="round" stroke-linejoin="round" stroke-width="1.5px"></path><path class="a" d="M11.026 17.117l3.736-7.614 2.694 1.321-3.6 7.337" fill="none" stroke="#212121" stroke-linecap="round" stroke-linejoin="round" stroke-width="1.5px"></path><path class="a" d="M17.719 3.434l2.727 1.338" fill="none" stroke="#212121" stroke-linecap="round" stroke-linejoin="round" stroke-width="1.5px"></path></g></svg>