<svg xmlns="http://www.w3.org/2000/svg" width="24" height="24" viewBox="0 0 24 24"><title>cake birthday</title><g fill="#212121" class="nc-icon-wrapper"><defs></defs><path class="cls-1" d="M1.473 23.25h21" fill="none" stroke="#212121" stroke-linecap="round" stroke-linejoin="round" stroke-width="1.5px"></path><rect class="cls-1" x="2.973" y="9.75" width="18" height="10.5" rx="1.5" ry="1.5" fill="none" stroke="#212121" stroke-linecap="round" stroke-linejoin="round" stroke-width="1.5px"></rect><path class="cls-1" d="M11.973 7.5v2.25" fill="none" stroke="#212121" stroke-linecap="round" stroke-linejoin="round" stroke-width="1.5px"></path><path class="cls-1" d="M13.473 3a1.5 1.5 0 0 1-3 0c0-.828 1.5-2.25 1.5-2.25s1.5 1.422 1.5 2.25z" fill="none" stroke="#212121" stroke-linecap="round" stroke-linejoin="round" stroke-width="1.5px"></path><path class="cls-1" d="M17.973 7.5v2.25" fill="none" stroke="#212121" stroke-linecap="round" stroke-linejoin="round" stroke-width="1.5px"></path><path class="cls-1" d="M19.473 3a1.5 1.5 0 0 1-3 0c0-.828 1.5-2.25 1.5-2.25s1.5 1.422 1.5 2.25z" fill="none" stroke="#212121" stroke-linecap="round" stroke-linejoin="round" stroke-width="1.5px"></path><path class="cls-1" d="M5.973 7.5v2.25" fill="none" stroke="#212121" stroke-linecap="round" stroke-linejoin="round" stroke-width="1.5px"></path><path class="cls-1" d="M7.473 3a1.5 1.5 0 0 1-3 0c0-.828 1.5-2.25 1.5-2.25s1.5 1.422 1.5 2.25z" fill="none" stroke="#212121" stroke-linecap="round" stroke-linejoin="round" stroke-width="1.5px"></path><path class="cls-1" d="M2.973 13.125a2.622 2.622 0 0 0 4.5 1.833 2.61 2.61 0 0 0 4.125-.5 2.605 2.605 0 0 0 4.5 0 2.618 2.618 0 0 0 4.875-1.333" fill="none" stroke="#212121" stroke-linecap="round" stroke-linejoin="round" stroke-width="1.5px"></path></g></svg>