<svg xmlns="http://www.w3.org/2000/svg" width="24" height="24" viewBox="0 0 24 24"><title>cake sugar cane</title><g fill="#212121" class="nc-icon-wrapper"><defs></defs><path class="cls-1" d="M17.973 23.25a2.25 2.25 0 0 1-2.25-2.25V9a3.75 3.75 0 0 0-7.5 0 2.25 2.25 0 0 1-4.5 0 8.25 8.25 0 0 1 16.5 0v12a2.25 2.25 0 0 1-2.25 2.25z" fill="none" stroke="#212121" stroke-linecap="round" stroke-linejoin="round" stroke-width="1.5px"></path><path class="cls-1" d="M3.725 8.833l4.699-1.044" fill="none" stroke="#212121" stroke-linecap="round" stroke-linejoin="round" stroke-width="1.5px"></path><path class="cls-1" d="M6.262 3.052l4.059 2.582" fill="none" stroke="#212121" stroke-linecap="round" stroke-linejoin="round" stroke-width="1.5px"></path><path class="cls-1" d="M12.14.752l1.044 4.699" fill="none" stroke="#212121" stroke-linecap="round" stroke-linejoin="round" stroke-width="1.5px"></path><path class="cls-1" d="M17.922 3.289l-2.583 4.058" fill="none" stroke="#212121" stroke-linecap="round" stroke-linejoin="round" stroke-width="1.5px"></path><path class="cls-1" d="M20.223 9.167l-4.5 1" fill="none" stroke="#212121" stroke-linecap="round" stroke-linejoin="round" stroke-width="1.5px"></path><path class="cls-1" d="M20.223 13.667l-4.5 1" fill="none" stroke="#212121" stroke-linecap="round" stroke-linejoin="round" stroke-width="1.5px"></path><path class="cls-1" d="M20.223 18.167l-4.5 1" fill="none" stroke="#212121" stroke-linecap="round" stroke-linejoin="round" stroke-width="1.5px"></path></g></svg>