<svg xmlns="http://www.w3.org/2000/svg" width="24" height="24" viewBox="0 0 24 24"><title>cake cream</title><g fill="#212121" class="nc-icon-wrapper"><defs></defs><path class="cls-1" d="M18.306 23.25H5.64a1.5 1.5 0 0 1-1.491-1.334l-1.166-12a1.5 1.5 0 0 1 1.49-1.666h15a1.5 1.5 0 0 1 1.491 1.666l-1.167 12a1.5 1.5 0 0 1-1.491 1.334z" fill="none" stroke="#212121" stroke-linecap="round" stroke-linejoin="round" stroke-width="1.5px"></path><path class="cls-1" d="M7.473 8.25v15" fill="none" stroke="#212121" stroke-linecap="round" stroke-linejoin="round" stroke-width="1.5px"></path><path class="cls-1" d="M11.973 8.25v15" fill="none" stroke="#212121" stroke-linecap="round" stroke-linejoin="round" stroke-width="1.5px"></path><path class="cls-1" d="M16.473 8.25v15" fill="none" stroke="#212121" stroke-linecap="round" stroke-linejoin="round" stroke-width="1.5px"></path><path class="cls-1" d="M19.367 5.25a2.952 2.952 0 0 0-3.894-2.066 3.733 3.733 0 0 0-7 0 2.962 2.962 0 0 0-1-.184 2.993 2.993 0 0 0-2.894 2.25" fill="none" stroke="#212121" stroke-linecap="round" stroke-linejoin="round" stroke-width="1.5px"></path></g></svg>