<svg xmlns="http://www.w3.org/2000/svg" width="24" height="24" viewBox="0 0 24 24"><title>calendar school</title><g fill="#212121" class="nc-icon-wrapper"><defs></defs><path class="a" d="M6.75 17.25h-4.5a1.5 1.5 0 0 1-1.5-1.5v-12a1.5 1.5 0 0 1 1.5-1.5h13.5a1.5 1.5 0 0 1 1.5 1.5v7.5" fill="none" stroke="#212121" stroke-linejoin="round" stroke-width="1.5px" stroke-linecap="round"></path><path class="b" d="M.75 6.75h16.5" fill="none" stroke="#212121" stroke-linejoin="round" stroke-width="1.5px"></path><path class="a" d="M5.25 3.75v-3" fill="none" stroke="#212121" stroke-linejoin="round" stroke-width="1.5px" stroke-linecap="round"></path><path class="a" d="M12.75 3.75v-3" fill="none" stroke="#212121" stroke-linejoin="round" stroke-width="1.5px" stroke-linecap="round"></path><path class="a" d="M16.5 14.308l-6.75 2.779 6.75 2.471 6.75-2.471-6.75-2.779z" fill="none" stroke="#212121" stroke-linejoin="round" stroke-width="1.5px" stroke-linecap="round"></path><path class="a" d="M9.75 17.087v3.75" fill="none" stroke="#212121" stroke-linejoin="round" stroke-width="1.5px" stroke-linecap="round"></path><path class="a" d="M12.75 18.186V21.3a.751.751 0 0 0 .471.7l3 1.2a.758.758 0 0 0 .558 0l3-1.2a.751.751 0 0 0 .471-.7v-3.114" fill="none" stroke="#212121" stroke-linejoin="round" stroke-width="1.5px" stroke-linecap="round"></path></g></svg>