<svg xmlns="http://www.w3.org/2000/svg" width="24" height="24" viewBox="0 0 24 24"><title>calendar lock</title><g fill="#212121" class="nc-icon-wrapper"><defs></defs><path class="a" d="M4.5 23.25H3a1.5 1.5 0 0 1-1.5-1.5V5.25A1.5 1.5 0 0 1 3 3.75h18a1.5 1.5 0 0 1 1.5 1.5v16.5a1.5 1.5 0 0 1-1.5 1.5h-1.5" fill="none" stroke="#212121" stroke-linejoin="round" stroke-width="1.5px" stroke-linecap="round"></path><path class="b" d="M1.5 9.75h21" fill="none" stroke="#212121" stroke-linejoin="round" stroke-width="1.5px"></path><path class="a" d="M7.5 6V.75" fill="none" stroke="#212121" stroke-linejoin="round" stroke-width="1.5px" stroke-linecap="round"></path><path class="a" d="M16.5 6V.75" fill="none" stroke="#212121" stroke-linejoin="round" stroke-width="1.5px" stroke-linecap="round"></path><path class="a" d="M12 19.875a.375.375 0 1 1-.375.375.375.375 0 0 1 .375-.375" fill="none" stroke="#212121" stroke-linejoin="round" stroke-width="1.5px" stroke-linecap="round"></path><rect class="a" x="7.5" y="17.25" width="9" height="6" rx=".375" ry=".375" fill="none" stroke="#212121" stroke-linejoin="round" stroke-width="1.5px" stroke-linecap="round"></rect><path class="a" d="M9 17.25v-1.5a3 3 0 0 1 6 0v1.5" fill="none" stroke="#212121" stroke-linejoin="round" stroke-width="1.5px" stroke-linecap="round"></path></g></svg>