<svg xmlns="http://www.w3.org/2000/svg" width="24" height="24" viewBox="0 0 24 24"><title>calendar favorite heart 1</title><g fill="#212121" class="nc-icon-wrapper"><defs></defs><path class="a" d="M17.25 23.25l-5.114-5.334a3.025 3.025 0 0 1-.566-3.493 3.025 3.025 0 0 1 4.845-.786l.835.835.835-.835a3.026 3.026 0 0 1 4.846.786 3.027 3.027 0 0 1-.567 3.493z" fill="none" stroke="#212121" stroke-linejoin="round" stroke-width="1.5px" stroke-linecap="round"></path><path class="a" d="M8.25 17.25h-6a1.5 1.5 0 0 1-1.5-1.5V3.765a1.5 1.5 0 0 1 1.5-1.5h13.5a1.5 1.5 0 0 1 1.5 1.5V8.25" fill="none" stroke="#212121" stroke-linejoin="round" stroke-width="1.5px" stroke-linecap="round"></path><path class="b" d="M.75 6.75h16.5" fill="none" stroke="#212121" stroke-linejoin="round" stroke-width="1.5px"></path><path class="a" d="M5.243 3.75v-3" fill="none" stroke="#212121" stroke-linejoin="round" stroke-width="1.5px" stroke-linecap="round"></path><path class="a" d="M12.743 3.75v-3" fill="none" stroke="#212121" stroke-linejoin="round" stroke-width="1.5px" stroke-linecap="round"></path></g></svg>