<svg xmlns="http://www.w3.org/2000/svg" width="24" height="24" viewBox="0 0 24 24"><title>calendar skull</title><g fill="#212121" class="nc-icon-wrapper"><defs></defs><path class="a" d="M11.25 17.25h-9a1.5 1.5 0 0 1-1.5-1.5V3.765a1.5 1.5 0 0 1 1.5-1.5h13.5a1.5 1.5 0 0 1 1.5 1.5V10.5" fill="none" stroke="#212121" stroke-linejoin="round" stroke-width="1.5px" stroke-linecap="round"></path><path class="b" d="M.75 6.75h16.5" fill="none" stroke="#212121" stroke-linejoin="round" stroke-width="1.5px"></path><path class="a" d="M5.243 3.75v-3" fill="none" stroke="#212121" stroke-linejoin="round" stroke-width="1.5px" stroke-linecap="round"></path><path class="a" d="M12.743 3.75v-3" fill="none" stroke="#212121" stroke-linejoin="round" stroke-width="1.5px" stroke-linecap="round"></path><path class="a" d="M15.75 23.25V21l-.158-.079a2.425 2.425 0 0 1-1.342-2.171 4.5 4.5 0 0 1 9 0 2.425 2.425 0 0 1-1.342 2.171L21.75 21v2.25" fill="none" stroke="#212121" stroke-linejoin="round" stroke-width="1.5px" stroke-linecap="round"></path><path class="a" d="M18.75 21.75v1.5" fill="none" stroke="#212121" stroke-linejoin="round" stroke-width="1.5px" stroke-linecap="round"></path><path class="a" d="M16.875 18" fill="none" stroke="#212121" stroke-linejoin="round" stroke-width="1.5px" stroke-linecap="round"></path><path class="a" d="M16.875 18a.375.375 0 1 0 .375.375.375.375 0 0 0-.375-.375" fill="none" stroke="#212121" stroke-linejoin="round" stroke-width="1.5px" stroke-linecap="round"></path><path class="a" d="M20.625 18" fill="none" stroke="#212121" stroke-linejoin="round" stroke-width="1.5px" stroke-linecap="round"></path><path class="a" d="M20.625 18a.375.375 0 1 0 .375.375.375.375 0 0 0-.375-.375" fill="none" stroke="#212121" stroke-linejoin="round" stroke-width="1.5px" stroke-linecap="round"></path></g></svg>