<svg xmlns="http://www.w3.org/2000/svg" width="24" height="24" viewBox="0 0 24 24"><title>calendar question</title><g fill="#212121" class="nc-icon-wrapper"><defs></defs><circle class="a" cx="17.25" cy="17.25" r="6" fill="none" stroke="#212121" stroke-linejoin="round" stroke-width="1.5px" stroke-linecap="round"></circle><path class="a" d="M15.375 16.125A1.875 1.875 0 1 1 17.25 18" fill="none" stroke="#212121" stroke-linejoin="round" stroke-width="1.5px" stroke-linecap="round"></path><path class="a" d="M17.25 20.25a.375.375 0 1 0 .375.375.375.375 0 0 0-.375-.375" fill="none" stroke="#212121" stroke-linejoin="round" stroke-width="1.5px" stroke-linecap="round"></path><path class="a" d="M8.25 17.25h-6a1.5 1.5 0 0 1-1.5-1.5V3.765a1.5 1.5 0 0 1 1.5-1.5h13.5a1.5 1.5 0 0 1 1.5 1.5V8.25" fill="none" stroke="#212121" stroke-linejoin="round" stroke-width="1.5px" stroke-linecap="round"></path><path class="b" d="M.75 6.75h16.5" fill="none" stroke="#212121" stroke-linejoin="round" stroke-width="1.5px"></path><path class="a" d="M5.243 3.75v-3" fill="none" stroke="#212121" stroke-linejoin="round" stroke-width="1.5px" stroke-linecap="round"></path><path class="a" d="M12.743 3.75v-3" fill="none" stroke="#212121" stroke-linejoin="round" stroke-width="1.5px" stroke-linecap="round"></path></g></svg>