<svg xmlns="http://www.w3.org/2000/svg" width="24" height="24" viewBox="0 0 24 24"><title>camera tripod 1</title><g fill="#212121" class="nc-icon-wrapper"><defs></defs><path class="a" d="M12 14.982v8.268" fill="none" stroke="#212121" stroke-linecap="round" stroke-linejoin="round" stroke-width="1.5px"></path><path class="a" d="M9.75 14.982h4.5" fill="none" stroke="#212121" stroke-linecap="round" stroke-linejoin="round" stroke-width="1.5px"></path><path class="a" d="M15.75 23.25L12 19.5l-3.75 3.75" fill="none" stroke="#212121" stroke-linecap="round" stroke-linejoin="round" stroke-width="1.5px"></path><path class="a" d="M12 17.982H7.5" fill="none" stroke="#212121" stroke-linecap="round" stroke-linejoin="round" stroke-width="1.5px"></path><path class="a" d="M8.526 2.25L10.1.75h3.775l1.574 1.5h1.57a1.812 1.812 0 0 1 1.731 1.742v6.437a1.654 1.654 0 0 1-1.731 1.553H6.981a1.654 1.654 0 0 1-1.731-1.553V3.992A1.812 1.812 0 0 1 6.981 2.25h1.545" fill="none" stroke="#212121" stroke-linecap="round" stroke-linejoin="round" stroke-width="1.5px"></path><circle class="a" cx="12" cy="6.732" r="2.25" fill="none" stroke="#212121" stroke-linecap="round" stroke-linejoin="round" stroke-width="1.5px"></circle><path class="a" d="M7.5 17.232v1.5" fill="none" stroke="#212121" stroke-linecap="round" stroke-linejoin="round" stroke-width="1.5px"></path></g></svg>