<svg xmlns="http://www.w3.org/2000/svg" width="24" height="24" viewBox="0 0 24 24"><title>camera small</title><g fill="#212121" class="nc-icon-wrapper"><defs></defs><path class="a" d="M8.25.75h-4.5a3 3 0 0 0-3 3v16.5a3 3 0 0 0 3 3H7.5a.75.75 0 0 0 .75-.75v-9.75h2.25a.75.75 0 0 0 .75-.75V3.75a3 3 0 0 0-3-3z" fill="none" stroke="#212121" stroke-linecap="round" stroke-linejoin="round" stroke-width="1.5px"></path><path class="a" d="M14.25 9.75h6a3 3 0 0 0 3-3v-1.5a3 3 0 0 0-3-3h-6z" fill="none" stroke="#212121" stroke-linecap="round" stroke-linejoin="round" stroke-width="1.5px"></path><circle class="a" cx="6" cy="6" r="2.25" fill="none" stroke="#212121" stroke-linecap="round" stroke-linejoin="round" stroke-width="1.5px"></circle><path class="a" d="M5.25 18.75V12" fill="none" stroke="#212121" stroke-linecap="round" stroke-linejoin="round" stroke-width="1.5px"></path><path class="a" d="M14.25 6.75h-3" fill="none" stroke="#212121" stroke-linecap="round" stroke-linejoin="round" stroke-width="1.5px"></path></g></svg>