<svg xmlns="http://www.w3.org/2000/svg" width="24" height="24" viewBox="0 0 24 24"><title>camera carry</title><g fill="#212121" class="nc-icon-wrapper"><defs></defs><path class="a" d="M18 23.25h3.75a1.5 1.5 0 0 0 1.5-1.5V12a1.5 1.5 0 0 0-1.494-1.5H15.8l-1.2-2.461a.959.959 0 0 0-.862-.539h-3.7a.96.96 0 0 0-.862.539L7.973 10.5H2.25A1.5 1.5 0 0 0 .75 12v9.751a1.5 1.5 0 0 0 1.5 1.5h3.812" fill="none" stroke="#212121" stroke-linecap="round" stroke-linejoin="round" stroke-width="1.5px"></path><path class="a" d="M10.875 10.5h2.25" fill="none" stroke="#212121" stroke-linecap="round" stroke-linejoin="round" stroke-width="1.5px"></path><path class="a" d="M2.736 10.5l8.488-9.4a1.044 1.044 0 0 1 1.551 0l8.488 9.4" fill="none" stroke="#212121" stroke-linecap="round" stroke-linejoin="round" stroke-width="1.5px"></path><circle class="a" cx="12" cy="18.375" r="4.875" fill="none" stroke="#212121" stroke-linecap="round" stroke-linejoin="round" stroke-width="1.5px"></circle></g></svg>