<svg xmlns="http://www.w3.org/2000/svg" width="24" height="24" viewBox="0 0 24 24"><title>camera lens</title><g fill="#212121" class="nc-icon-wrapper"><defs></defs><path class="a" d="M17.25 23.25h-9V15a.75.75 0 0 1 .75-.75h7.5a.75.75 0 0 1 .75.75z" fill="none" stroke="#212121" stroke-linecap="round" stroke-linejoin="round" stroke-width="1.5px"></path><path class="a" d="M8.25 23.25h-4.5a3 3 0 0 1-3-3v-1.5a3 3 0 0 1 3-3h4.5z" fill="none" stroke="#212121" stroke-linecap="round" stroke-linejoin="round" stroke-width="1.5px"></path><path class="a" d="M20.25 23.25h-3v-7.5h3a3 3 0 0 1 3 3v1.5a3 3 0 0 1-3 3z" fill="none" stroke="#212121" stroke-linecap="round" stroke-linejoin="round" stroke-width="1.5px"></path><path class="a" d="M15.979 9.75H9.521a1.5 1.5 0 0 1-1.48-1.25l-1-6A1.5 1.5 0 0 1 8.521.75h8.458a1.5 1.5 0 0 1 1.48 1.75l-1 6a1.5 1.5 0 0 1-1.48 1.25z" fill="none" stroke="#212121" stroke-linecap="round" stroke-linejoin="round" stroke-width="1.5px"></path><path class="a" d="M9.75 9.75h6v4.5h-6z" fill="none" stroke="#212121" stroke-linecap="round" stroke-linejoin="round" stroke-width="1.5px"></path><path class="a" d="M11.25 3.75v3" fill="none" stroke="#212121" stroke-linecap="round" stroke-linejoin="round" stroke-width="1.5px"></path><path class="a" d="M14.25 3.75v3" fill="none" stroke="#212121" stroke-linecap="round" stroke-linejoin="round" stroke-width="1.5px"></path><path class="a" d="M4.5 19.125a.375.375 0 1 1-.375.375.375.375 0 0 1 .375-.375" fill="none" stroke="#212121" stroke-linecap="round" stroke-linejoin="round" stroke-width="1.5px"></path><path class="a" d="M11.25 18.75h3" fill="none" stroke="#212121" stroke-linecap="round" stroke-linejoin="round" stroke-width="1.5px"></path></g></svg>