<svg xmlns="http://www.w3.org/2000/svg" width="24" height="24" viewBox="0 0 24 24"><title>camera settings flip</title><g fill="#212121" class="nc-icon-wrapper"><defs></defs><path class="a" d="M15.806 1.492A11.155 11.155 0 0 1 12 23.166" fill="none" stroke="#212121" stroke-linecap="round" stroke-linejoin="round" stroke-width="1.5px"></path><path class="a" d="M16.5 3.75l-.694-2.258L18 .75" fill="none" stroke="#212121" stroke-linecap="round" stroke-linejoin="round" stroke-width="1.5px"></path><path class="a" d="M8.194 22.508A11.155 11.155 0 0 1 12 .834" fill="none" stroke="#212121" stroke-linecap="round" stroke-linejoin="round" stroke-width="1.5px"></path><path class="a" d="M7.5 20.25l.694 2.258L6 23.25" fill="none" stroke="#212121" stroke-linecap="round" stroke-linejoin="round" stroke-width="1.5px"></path><path class="a" d="M8.526 7.5L10.1 6h3.775l1.574 1.5h1.57a1.812 1.812 0 0 1 1.731 1.742v5.7a1.654 1.654 0 0 1-1.731 1.558H6.981a1.654 1.654 0 0 1-1.731-1.554v-5.7A1.812 1.812 0 0 1 6.981 7.5h1.545" fill="none" stroke="#212121" stroke-linecap="round" stroke-linejoin="round" stroke-width="1.5px"></path><circle class="a" cx="12" cy="12" r="2.25" fill="none" stroke="#212121" stroke-linecap="round" stroke-linejoin="round" stroke-width="1.5px"></circle></g></svg>