<svg xmlns="http://www.w3.org/2000/svg" width="24" height="24" viewBox="0 0 24 24"><title>camera settings pin</title><g fill="#212121" class="nc-icon-wrapper"><defs></defs><circle class="a" cx="12" cy="10.051" r="3.75" fill="none" stroke="#212121" stroke-linecap="round" stroke-linejoin="round" stroke-width="1.5px"></circle><path class="a" d="M20.25 4.051H18l-.671-1.342a3 3 0 0 0-2.683-1.658H9.354a3 3 0 0 0-2.683 1.658L6 4.051H3.75a3 3 0 0 0-3 3v7.5a3 3 0 0 0 3 3H8l3.376 5.064a.75.75 0 0 0 1.248 0L16 17.551h4.25a3 3 0 0 0 3-3v-7.5a3 3 0 0 0-3-3z" fill="none" stroke="#212121" stroke-linecap="round" stroke-linejoin="round" stroke-width="1.5px"></path></g></svg>