<svg xmlns="http://www.w3.org/2000/svg" width="24" height="24" viewBox="0 0 24 24"><title>camera glasses</title><g fill="#212121" class="nc-icon-wrapper"><defs></defs><path class="a" d="M2.451 18.861a4.436 4.436 0 0 0 7.914.986l.778-1.216a1.92 1.92 0 0 1 3.214 0l.778 1.216a4.418 4.418 0 0 0 3.724 2.014 4.339 4.339 0 0 0 4.391-4.285v-6.215h-21v3" fill="none" stroke="#212121" stroke-linecap="round" stroke-linejoin="round" stroke-width="1.5px"></path><path class="a" d="M2.25 11.361l3.267-7.35A3.154 3.154 0 0 1 8.4 2.139h1.023" fill="none" stroke="#212121" stroke-linecap="round" stroke-linejoin="round" stroke-width="1.5px"></path><path class="a" d="M23.25 11.361l-3.267-7.35A3.154 3.154 0 0 0 17.1 2.139h-1.023" fill="none" stroke="#212121" stroke-linecap="round" stroke-linejoin="round" stroke-width="1.5px"></path><rect class="a" x=".75" y="14.361" width="7.5" height="4.5" rx="1.5" ry="1.5" fill="none" stroke="#212121" stroke-linecap="round" stroke-linejoin="round" stroke-width="1.5px"></rect></g></svg>