<svg xmlns="http://www.w3.org/2000/svg" width="24" height="24" viewBox="0 0 24 24"><title>candy</title><g fill="#212121" class="nc-icon-wrapper"><defs></defs><circle class="cls-1" cx="11.973" cy="12" r="6.082" fill="none" stroke="#212121" stroke-linecap="round" stroke-linejoin="round" stroke-width="1.5px"></circle><path class="cls-1" d="M17.268 9a7.286 7.286 0 0 1-4.757 1.711A7.162 7.162 0 0 1 7.1 8.358" fill="none" stroke="#212121" stroke-linecap="round" stroke-linejoin="round" stroke-width="1.5px"></path><path class="cls-1" d="M18.055 11.708A6.986 6.986 0 0 1 11.973 15a6.984 6.984 0 0 1-6.081-3.292" fill="none" stroke="#212121" stroke-linecap="round" stroke-linejoin="round" stroke-width="1.5px"></path><path class="cls-1" d="M17.441 1.37a.752.752 0 0 0-1.173.142c-1.192 1.974-1.356 4.825.006 6.187s4.213 1.2 6.187.006a.751.751 0 0 0 .139-1.173z" fill="none" stroke="#212121" stroke-linecap="round" stroke-linejoin="round" stroke-width="1.5px"></path><path class="cls-1" d="M1.343 17.467a.75.75 0 0 1 .143-1.167c1.973-1.2 4.824-1.361 6.186 0s1.2 4.213.007 6.186a.751.751 0 0 1-1.173.143z" fill="none" stroke="#212121" stroke-linecap="round" stroke-linejoin="round" stroke-width="1.5px"></path></g></svg>