<svg xmlns="http://www.w3.org/2000/svg" width="24" height="24" viewBox="0 0 24 24"><title>canoe single</title><g fill="#212121" class="nc-icon-wrapper"><defs></defs><path class="cls-1" d="M13.75 23.25a1.5 1.5 0 0 1-1.5-1.5v-9.9a15.3 15.3 0 0 1 3.06-9.18l.84-1.12a.75.75 0 0 1 1.2 0l.84 1.12a15.3 15.3 0 0 1 3.06 9.18v9.9a1.5 1.5 0 0 1-1.5 1.5z" fill="none" stroke="#212121" stroke-linecap="round" stroke-linejoin="round" stroke-width="1.5px"></path><path class="cls-1" d="M5.5 7.75v8.5" fill="none" stroke="#212121" stroke-linecap="round" stroke-linejoin="round" stroke-width="1.5px"></path><path class="cls-1" d="M4 .75a.75.75 0 0 0-.75.75V5a.753.753 0 0 0 .15.45l1.5 2a.75.75 0 0 0 1.2 0l1.5-2A.753.753 0 0 0 7.75 5V1.5A.75.75 0 0 0 7 .75z" fill="none" stroke="#212121" stroke-linecap="round" stroke-linejoin="round" stroke-width="1.5px"></path><path class="cls-1" d="M4 23.25a.75.75 0 0 1-.75-.75V19a.753.753 0 0 1 .15-.45l1.5-2a.75.75 0 0 1 1.2 0l1.5 2a.753.753 0 0 1 .15.45v3.5a.75.75 0 0 1-.75.75z" fill="none" stroke="#212121" stroke-linecap="round" stroke-linejoin="round" stroke-width="1.5px"></path><ellipse class="cls-1" cx="16.75" cy="15" rx="2.25" ry="3" fill="none" stroke="#212121" stroke-linecap="round" stroke-linejoin="round" stroke-width="1.5px"></ellipse></g></svg>