<svg xmlns="http://www.w3.org/2000/svg" width="24" height="24" viewBox="0 0 24 24"><title>canoe person</title><g fill="#212121" class="nc-icon-wrapper"><defs></defs><path class="cls-1" d="M.75 14.5H16.5a3.053 3.053 0 0 0 2.868-2.5.75.75 0 0 1 1.236-.384c1.411 1.291 3.47 3.928 1.685 7.269" fill="none" stroke="#212121" stroke-linecap="round" stroke-linejoin="round" stroke-width="1.5px"></path><circle class="cls-1" cx="8.25" cy="3.625" r="2.625" fill="none" stroke="#212121" stroke-linecap="round" stroke-linejoin="round" stroke-width="1.5px"></circle><path class="cls-1" d="M2.073 14.5l2.585-5.171a1.5 1.5 0 0 1 1.554-.814l2.609.372a4.49 4.49 0 0 0 3.519-1l1.639-1.365A1.5 1.5 0 0 1 15.9 8.83l-1.641 1.37A7.531 7.531 0 0 1 8.4 11.857l-1.538-.219L5.427 14.5" fill="none" stroke="#212121" stroke-linecap="round" stroke-linejoin="round" stroke-width="1.5px"></path><path class="cls-1" d="M15.488 6.281L17.25 1.75" fill="none" stroke="#212121" stroke-linecap="round" stroke-linejoin="round" stroke-width="1.5px"></path><path class="cls-1" d="M12.292 14.5l1.548-3.981" fill="none" stroke="#212121" stroke-linecap="round" stroke-linejoin="round" stroke-width="1.5px"></path><path class="cls-1" d="M.75 22.75a4.666 4.666 0 0 0 3.75-1.9 4.649 4.649 0 0 0 7.5 0 4.649 4.649 0 0 0 7.5 0 4.666 4.666 0 0 0 3.75 1.9" fill="none" stroke="#212121" stroke-linecap="round" stroke-linejoin="round" stroke-width="1.5px"></path></g></svg>