<svg xmlns="http://www.w3.org/2000/svg" width="24" height="24" viewBox="0 0 24 24"><title>canoe 1</title><g fill="#212121" class="nc-icon-wrapper"><defs></defs><path class="cls-1" d="M14.072 1.66a2.818 2.818 0 0 0-4.146 0C8.458 3.318 6.75 6.439 6.75 12s1.708 8.682 3.176 10.338a2.822 2.822 0 0 0 4.146 0C15.54 20.686 17.25 17.564 17.25 12s-1.71-8.686-3.178-10.34z" fill="none" stroke="#212121" stroke-linecap="round" stroke-linejoin="round" stroke-width="1.5px"></path><ellipse class="cls-1" cx="12" cy="14.25" rx="2.25" ry="3" fill="none" stroke="#212121" stroke-linecap="round" stroke-linejoin="round" stroke-width="1.5px"></ellipse><path class="cls-1" d="M7.241 16.759l-2.339 2.339" fill="none" stroke="#212121" stroke-linecap="round" stroke-linejoin="round" stroke-width="1.5px"></path><path class="cls-1" d="M3.091 23.03a.75.75 0 0 1-1.061 0L.97 21.97a.75.75 0 0 1 0-1.061L2.78 19.1a1.5 1.5 0 1 1 2.12 2.12z" fill="none" stroke="#212121" stroke-linecap="round" stroke-linejoin="round" stroke-width="1.5px"></path><path class="cls-1" d="M16.759 7.241l2.339-2.339" fill="none" stroke="#212121" stroke-linecap="round" stroke-linejoin="round" stroke-width="1.5px"></path><path class="cls-1" d="M20.909.97a.75.75 0 0 1 1.061 0l1.06 1.06a.75.75 0 0 1 0 1.061L21.22 4.9a1.5 1.5 0 0 1-2.12-2.12z" fill="none" stroke="#212121" stroke-linecap="round" stroke-linejoin="round" stroke-width="1.5px"></path></g></svg>