<svg xmlns="http://www.w3.org/2000/svg" width="24" height="24" viewBox="0 0 24 24"><title>canoe</title><g fill="#212121" class="nc-icon-wrapper"><defs></defs><path class="cls-1" d="M16.126 7.876c5.186 5.186 6.674 12.424 7.029 14.678a.5.5 0 0 1-.6.6c-2.255-.354-9.493-1.842-14.679-7.028S1.2 3.7.847 1.449A.534.534 0 0 1 .981.98a.538.538 0 0 1 .468-.133C3.7 1.2 10.941 2.691 16.126 7.876z" fill="none" stroke="#212121" stroke-linecap="round" stroke-linejoin="round" stroke-width="1.5px"></path><path class="cls-1" d="M15 11.573A2.424 2.424 0 0 1 11.571 15L9 12.43A2.424 2.424 0 0 1 12.428 9z" fill="none" stroke="#212121" stroke-linecap="round" stroke-linejoin="round" stroke-width="1.5px"></path><path class="cls-1" d="M7.876 16.126l-2.133 2.131" fill="none" stroke="#212121" stroke-linecap="round" stroke-linejoin="round" stroke-width="1.5px"></path><path class="cls-1" d="M5.107 17.622a.75.75 0 0 0-.933-.1L1.1 19.746a.749.749 0 0 0-.13 1.163l2.121 2.121a.751.751 0 0 0 1.163-.13l2.226-3.074a.75.75 0 0 0-.1-.933z" fill="none" stroke="#212121" stroke-linecap="round" stroke-linejoin="round" stroke-width="1.5px"></path><path class="cls-1" d="M16.124 7.874l2.133-2.131" fill="none" stroke="#212121" stroke-linecap="round" stroke-linejoin="round" stroke-width="1.5px"></path><path class="cls-1" d="M18.893 6.378a.75.75 0 0 0 .933.1L22.9 4.254a.751.751 0 0 0 .127-1.163L20.909.97a.749.749 0 0 0-1.163.127L17.52 4.174a.75.75 0 0 0 .1.933z" fill="none" stroke="#212121" stroke-linecap="round" stroke-linejoin="round" stroke-width="1.5px"></path></g></svg>