<svg xmlns="http://www.w3.org/2000/svg" width="24" height="24" viewBox="0 0 24 24"><title>cap 1</title><g fill="#212121" class="nc-icon-wrapper"><defs></defs><path class="cls-1" d="M2.25 15.908v-3.75a9.75 9.75 0 0 1 19.5 0v3.75" fill="none" stroke="#212121" stroke-linecap="round" stroke-linejoin="round" stroke-width="1.5px"></path><path class="cls-1" d="M23.193 21.2A1.5 1.5 0 0 1 21.23 23 28.084 28.084 0 0 0 12 21.158 28.078 28.078 0 0 0 2.77 23a1.5 1.5 0 0 1-1.963-1.8l1.443-5.29a42.146 42.146 0 0 1 9.75-1.5 42.146 42.146 0 0 1 9.75 1.5z" fill="none" stroke="#212121" stroke-linecap="round" stroke-linejoin="round" stroke-width="1.5px"></path><path class="cls-1" d="M12 2.408v-1.5" fill="none" stroke="#212121" stroke-linecap="round" stroke-linejoin="round" stroke-width="1.5px"></path><circle class="cls-1" cx="12.004" cy="8.408" r="3" fill="none" stroke="#212121" stroke-linecap="round" stroke-linejoin="round" stroke-width="1.5px"></circle></g></svg>