<svg xmlns="http://www.w3.org/2000/svg" width="24" height="24" viewBox="0 0 24 24"><title>car repair fire 1</title><g fill="#212121" class="nc-icon-wrapper"><defs></defs><path class="a" d="M22.06 9.8a4.48 4.48 0 0 0 1.19-3.05c0-2.051-2.072-5.343-4.5-6 1.032 1.115 2.162 3.891-.1 4.691-2.09.74-2.73-1.788-2.73-1.788A6.006 6.006 0 0 0 14.738 5.1" fill="none" stroke="#212121" stroke-linecap="round" stroke-linejoin="round" stroke-width="1.5px"></path><path class="a" d="M21.75 20.25a1.5 1.5 0 0 0 1.5-1.5 3.624 3.624 0 0 0-1.061-2.561L20.25 14.25H3.75l-1.939 1.939A3.624 3.624 0 0 0 .75 18.75a1.5 1.5 0 0 0 1.5 1.5z" fill="none" stroke="#212121" stroke-linecap="round" stroke-linejoin="round" stroke-width="1.5px"></path><path class="a" d="M1.075 17.25H5.25" fill="none" stroke="#212121" stroke-linecap="round" stroke-linejoin="round" stroke-width="1.5px"></path><path class="a" d="M22.925 17.25H18.75" fill="none" stroke="#212121" stroke-linecap="round" stroke-linejoin="round" stroke-width="1.5px"></path><path class="a" d="M3.75 14.25l1.7-4.54a2.249 2.249 0 0 1 2.109-1.46h8.882a2.249 2.249 0 0 1 2.106 1.46l1.7 4.54z" fill="none" stroke="#212121" stroke-linecap="round" stroke-linejoin="round" stroke-width="1.5px"></path><path class="a" d="M2.25 20.25v1.5a1.5 1.5 0 0 0 3 0v-1.5z" fill="none" stroke="#212121" stroke-linecap="round" stroke-linejoin="round" stroke-width="1.5px"></path><path class="a" d="M21.75 20.25v1.5a1.5 1.5 0 0 1-3 0v-1.5z" fill="none" stroke="#212121" stroke-linecap="round" stroke-linejoin="round" stroke-width="1.5px"></path></g></svg>