<svg xmlns="http://www.w3.org/2000/svg" width="24" height="24" viewBox="0 0 24 24"><title>car repair engine</title><g fill="#212121" class="nc-icon-wrapper"><defs></defs><circle class="a" cx="16.5" cy="21" r="2.25" fill="none" stroke="#212121" stroke-linecap="round" stroke-linejoin="round" stroke-width="1.5px"></circle><circle class="a" cx="6" cy="21" r="2.25" fill="none" stroke="#212121" stroke-linecap="round" stroke-linejoin="round" stroke-width="1.5px"></circle><path class="a" d="M14.382 21.75H8.118" fill="none" stroke="#212121" stroke-linecap="round" stroke-linejoin="round" stroke-width="1.5px"></path><path class="a" d="M3.881 21.75H2.25a1.5 1.5 0 0 1-1.5-1.5v-1.5a3 3 0 0 1 3-3l1.835-3.671a1.5 1.5 0 0 1 1.342-.829h4.9a1.5 1.5 0 0 1 1.342.829L15 15.75h5.25a3 3 0 0 1 3 3v1.5a1.5 1.5 0 0 1-1.5 1.5h-3.13" fill="none" stroke="#212121" stroke-linecap="round" stroke-linejoin="round" stroke-width="1.5px"></path><path class="a" d="M15 15.75H3.75" fill="none" stroke="#212121" stroke-linecap="round" stroke-linejoin="round" stroke-width="1.5px"></path><path class="a" d="M15 15.75l4.5-4.5h3" fill="none" stroke="#212121" stroke-linecap="round" stroke-linejoin="round" stroke-width="1.5px"></path><path class="a" d="M22.5 7.5a2.447 2.447 0 0 1-.75-1.841c0-1.227 1.5-1.841 1.5-3.068A2.447 2.447 0 0 0 22.5.75" fill="none" stroke="#212121" stroke-linecap="round" stroke-linejoin="round" stroke-width="1.5px"></path><path class="a" d="M18 9a2.447 2.447 0 0 1-.75-1.841c0-1.227 1.5-1.841 1.5-3.068A2.447 2.447 0 0 0 18 2.25" fill="none" stroke="#212121" stroke-linecap="round" stroke-linejoin="round" stroke-width="1.5px"></path></g></svg>