<svg xmlns="http://www.w3.org/2000/svg" width="24" height="24" viewBox="0 0 24 24"><title>car actions check</title><g fill="#212121" class="nc-icon-wrapper"><defs></defs><path class="a" d="M23.164 10.466a3.621 3.621 0 0 0-.975-1.777L20.25 6.75H3.75L1.811 8.689A3.624 3.624 0 0 0 .75 11.25a1.5 1.5 0 0 0 1.5 1.5h7.5" fill="none" stroke="#212121" stroke-linecap="round" stroke-linejoin="round" stroke-width="1.5px"></path><path class="a" d="M1.075 9.75H5.25" fill="none" stroke="#212121" stroke-linecap="round" stroke-linejoin="round" stroke-width="1.5px"></path><path class="a" d="M3.75 6.75l1.7-4.54A2.249 2.249 0 0 1 7.559.75h8.882a2.249 2.249 0 0 1 2.106 1.46l1.7 4.54z" fill="none" stroke="#212121" stroke-linecap="round" stroke-linejoin="round" stroke-width="1.5px"></path><path class="a" d="M2.25 12.75v1.5a1.5 1.5 0 0 0 3 0v-1.5z" fill="none" stroke="#212121" stroke-linecap="round" stroke-linejoin="round" stroke-width="1.5px"></path><circle class="a" cx="17.25" cy="17.25" r="6" fill="none" stroke="#212121" stroke-linecap="round" stroke-linejoin="round" stroke-width="1.5px"></circle><path class="a" d="M19.924 15.506l-2.905 3.873a.752.752 0 0 1-1.131.081l-1.5-1.5" fill="none" stroke="#212121" stroke-linecap="round" stroke-linejoin="round" stroke-width="1.5px"></path></g></svg>