<svg xmlns="http://www.w3.org/2000/svg" width="24" height="24" viewBox="0 0 24 24"><title>car retro luggage</title><g fill="#212121" class="nc-icon-wrapper"><defs></defs><circle class="a" cx="18.718" cy="21.75" r="1.5" fill="none" stroke="#212121" stroke-linecap="round" stroke-linejoin="round" stroke-width="1.5px"></circle><circle class="a" cx="5.218" cy="21.75" r="1.5" fill="none" stroke="#212121" stroke-linecap="round" stroke-linejoin="round" stroke-width="1.5px"></circle><path class="a" d="M20.218 21.75h1.532a1.5 1.5 0 0 0 1.5-1.5 4.527 4.527 0 0 0-4.532-4.5S16.468 9 10.468 9c-4.5 0-9.334 2.682-9.717 11.216a1.47 1.47 0 0 0 1.467 1.534h1.5" fill="none" stroke="#212121" stroke-linecap="round" stroke-linejoin="round" stroke-width="1.5px"></path><path class="a" d="M17.218 21.75h-10.5" fill="none" stroke="#212121" stroke-linecap="round" stroke-linejoin="round" stroke-width="1.5px"></path><path class="a" d="M18.718 15.75H1.484" fill="none" stroke="#212121" stroke-linecap="round" stroke-linejoin="round" stroke-width="1.5px"></path><path class="a" d="M9.75 15.75V9.025" fill="none" stroke="#212121" stroke-linecap="round" stroke-linejoin="round" stroke-width="1.5px"></path><rect class="a" x="4.5" y="4.5" width="10.5" height="4.5" rx="1" ry="1" transform="rotate(-180 9.75 6.75)" fill="none" stroke="#212121" stroke-linecap="round" stroke-linejoin="round" stroke-width="1.5px"></rect><rect class="a" x="6" y=".75" width="7.5" height="3.75" rx="1" ry="1" transform="rotate(-180 9.75 2.625)" fill="none" stroke="#212121" stroke-linecap="round" stroke-linejoin="round" stroke-width="1.5px"></rect><path class="a" d="M12 4.5V9" fill="none" stroke="#212121" stroke-linecap="round" stroke-linejoin="round" stroke-width="1.5px"></path><path class="a" d="M7.5 4.5V9" fill="none" stroke="#212121" stroke-linecap="round" stroke-linejoin="round" stroke-width="1.5px"></path></g></svg>