<svg xmlns="http://www.w3.org/2000/svg" width="24" height="24" viewBox="0 0 24 24"><title>car tool keys</title><g fill="#212121" class="nc-icon-wrapper"><defs></defs><rect class="a" x="2.032" y="5.567" width="10.398" height="14.854" rx="2" ry="2" transform="rotate(14.767 7.231 12.994)" fill="none" stroke="#212121" stroke-linecap="round" stroke-linejoin="round" stroke-width="1.5px"></rect><circle class="a" cx="7.799" cy="10.84" r="2.228" fill="none" stroke="#212121" stroke-linecap="round" stroke-linejoin="round" stroke-width="1.5px"></circle><path class="a" d="M4.68 15.39a.376.376 0 0 1 .267.458" fill="none" stroke="#212121" stroke-linecap="round" stroke-linejoin="round" stroke-width="1.5px"></path><path class="a" d="M4.221 15.657a.376.376 0 0 1 .459-.267" fill="none" stroke="#212121" stroke-linecap="round" stroke-linejoin="round" stroke-width="1.5px"></path><path class="a" d="M4.488 16.115a.376.376 0 0 1-.267-.458" fill="none" stroke="#212121" stroke-linecap="round" stroke-linejoin="round" stroke-width="1.5px"></path><path class="a" d="M4.947 15.848a.375.375 0 0 1-.459.267" fill="none" stroke="#212121" stroke-linecap="round" stroke-linejoin="round" stroke-width="1.5px"></path><path class="a" d="M8.27 16.337a.374.374 0 0 1 .267.458" fill="none" stroke="#212121" stroke-linecap="round" stroke-linejoin="round" stroke-width="1.5px"></path><path class="a" d="M7.812 16.6a.375.375 0 0 1 .458-.267" fill="none" stroke="#212121" stroke-linecap="round" stroke-linejoin="round" stroke-width="1.5px"></path><path class="a" d="M8.079 17.062a.375.375 0 0 1-.267-.458" fill="none" stroke="#212121" stroke-linecap="round" stroke-linejoin="round" stroke-width="1.5px"></path><path class="a" d="M8.537 16.8a.375.375 0 0 1-.458.267" fill="none" stroke="#212121" stroke-linecap="round" stroke-linejoin="round" stroke-width="1.5px"></path><path class="a" d="M17.309 11.11a2.971 2.971 0 1 1 5.941 0v2.228a1.485 1.485 0 0 1-1.485 1.485h-2.971a1.485 1.485 0 0 1-1.485-1.485z" fill="none" stroke="#212121" stroke-linecap="round" stroke-linejoin="round" stroke-width="1.5px"></path><path class="a" d="M21.765 20.765l-1.486 1.485-1.485-1.485v-5.942h2.971v5.942z" fill="none" stroke="#212121" stroke-linecap="round" stroke-linejoin="round" stroke-width="1.5px"></path><path class="a" d="M9.124 5.813C10.9 1.109 19.1-.773 20.279 8.139" fill="none" stroke="#212121" stroke-linecap="round" stroke-linejoin="round" stroke-width="1.5px"></path></g></svg>