<svg xmlns="http://www.w3.org/2000/svg" width="24" height="24" viewBox="0 0 24 24"><title>car retro</title><g fill="#212121" class="nc-icon-wrapper"><defs></defs><path class="a" d="M2.25 19v1.9a1.5 1.5 0 0 0 3 0v-1.5" fill="none" stroke="#212121" stroke-linecap="round" stroke-linejoin="round" stroke-width="1.5px"></path><path class="a" d="M21.75 19v1.9a1.5 1.5 0 0 1-3 0v-1.5" fill="none" stroke="#212121" stroke-linecap="round" stroke-linejoin="round" stroke-width="1.5px"></path><circle class="a" cx="4.875" cy="15.651" r="1.5" fill="none" stroke="#212121" stroke-linecap="round" stroke-linejoin="round" stroke-width="1.5px"></circle><circle class="a" cx="19.125" cy="15.651" r="1.5" fill="none" stroke="#212121" stroke-linecap="round" stroke-linejoin="round" stroke-width="1.5px"></circle><path class="a" d="M14.7 16.4c.6-2.144 1.947-4.5 4.8-4.5 2.25 0 3.75 1.343 3.75 3v1.5a3 3 0 0 1-3 3H3.75a3 3 0 0 1-3-3v-1.5c0-1.657 1.5-3 3.75-3 2.857 0 4.2 2.356 4.8 4.5" fill="none" stroke="#212121" stroke-linecap="round" stroke-linejoin="round" stroke-width="1.5px"></path><path class="a" d="M15.957 10.147a16.032 16.032 0 0 0-7.914 0" fill="none" stroke="#212121" stroke-linecap="round" stroke-linejoin="round" stroke-width="1.5px"></path><path class="a" d="M19.5 11.9l-.964-5.709C18 3.338 15.314 1.4 12 1.4S6 3.338 5.464 6.192L4.5 11.9" fill="none" stroke="#212121" stroke-linecap="round" stroke-linejoin="round" stroke-width="1.5px"></path></g></svg>