<svg xmlns="http://www.w3.org/2000/svg" width="24" height="24" viewBox="0 0 24 24"><title>car tool spark plug</title><g fill="#212121" class="nc-icon-wrapper"><defs></defs><path class="a" d="M6.5 13.5H17" fill="none" stroke="#212121" stroke-linecap="round" stroke-linejoin="round" stroke-width="1.5px"></path><path class="a" d="M8.75 16.5h6" fill="none" stroke="#212121" stroke-linecap="round" stroke-linejoin="round" stroke-width="1.5px"></path><path class="a" d="M8.75 19.5h6" fill="none" stroke="#212121" stroke-linecap="round" stroke-linejoin="round" stroke-width="1.5px"></path><path class="a" d="M13.25 19.5v2.25a1.5 1.5 0 0 1-1.5 1.5h-1.5" fill="none" stroke="#212121" stroke-linecap="round" stroke-linejoin="round" stroke-width="1.5px"></path><path class="a" d="M14.75 13.5V6.454a1.5 1.5 0 0 0-.252-.832l-1-1.494a1.5 1.5 0 0 1-.248-.828V2.25a1.5 1.5 0 0 0-3 0V3.3a1.5 1.5 0 0 1-.25.828L9 5.622a1.5 1.5 0 0 0-.252.832V13.5" fill="none" stroke="#212121" stroke-linecap="round" stroke-linejoin="round" stroke-width="1.5px"></path></g></svg>