<svg xmlns="http://www.w3.org/2000/svg" width="24" height="24" viewBox="0 0 24 24"><title>car dashboard window rear</title><g fill="#212121" class="nc-icon-wrapper"><defs></defs><path class="a" d="M12 2.375A13.467 13.467 0 0 0 1.418 7a3 3 0 0 0-.552 2.713l2.034 7.13a1.5 1.5 0 0 0 2.23.865A12.286 12.286 0 0 1 12 15.875a12.288 12.288 0 0 1 6.868 1.833 1.5 1.5 0 0 0 2.23-.865l2.037-7.13A3.007 3.007 0 0 0 22.582 7 13.467 13.467 0 0 0 12 2.375z" fill="none" stroke="#212121" stroke-linecap="round" stroke-linejoin="round" stroke-width="1.5px"></path><path class="a" d="M8.25 21.875v-11.25" fill="none" stroke="#212121" stroke-linecap="round" stroke-linejoin="round" stroke-width="1.5px"></path><path class="a" d="M6 12.875l2.25-2.25 2.25 2.25" fill="none" stroke="#212121" stroke-linecap="round" stroke-linejoin="round" stroke-width="1.5px"></path><path class="a" d="M15.75 21.875v-11.25" fill="none" stroke="#212121" stroke-linecap="round" stroke-linejoin="round" stroke-width="1.5px"></path><path class="a" d="M13.5 12.875l2.25-2.25 2.25 2.25" fill="none" stroke="#212121" stroke-linecap="round" stroke-linejoin="round" stroke-width="1.5px"></path></g></svg>