<svg xmlns="http://www.w3.org/2000/svg" width="24" height="24" viewBox="0 0 24 24"><title>car 2</title><g fill="#212121" class="nc-icon-wrapper"><defs></defs><path class="a" d="M21.75 18.249a1.5 1.5 0 0 0 1.5-1.5V13a1.811 1.811 0 0 0-.53-1.279L20.25 9.25H3.75l-2.47 2.47A1.811 1.811 0 0 0 .75 13v3.75a1.5 1.5 0 0 0 1.5 1.5z" fill="none" stroke="#212121" stroke-linecap="round" stroke-linejoin="round" stroke-width="1.5px"></path><path class="a" d="M3.75 9.25l1.723-4.595A2.166 2.166 0 0 1 7.5 3.25h9a2.166 2.166 0 0 1 2.027 1.405l1.723 4.6z" fill="none" stroke="#212121" stroke-linecap="round" stroke-linejoin="round" stroke-width="1.5px"></path><path class="a" d="M3.75 9.25l-1.5-1.5H.75" fill="none" stroke="#212121" stroke-linecap="round" stroke-linejoin="round" stroke-width="1.5px"></path><path class="a" d="M20.25 9.25l1.5-1.5h1.5" fill="none" stroke="#212121" stroke-linecap="round" stroke-linejoin="round" stroke-width="1.5px"></path><path class="a" d="M2.25 18.249v1.5a1.5 1.5 0 0 0 3 0v-1.5z" fill="none" stroke="#212121" stroke-linecap="round" stroke-linejoin="round" stroke-width="1.5px"></path><path class="a" d="M21.75 18.249v1.5a1.5 1.5 0 0 1-3 0v-1.5z" fill="none" stroke="#212121" stroke-linecap="round" stroke-linejoin="round" stroke-width="1.5px"></path><path class="a" d="M10.125 15.249L8.967 13.4a.751.751 0 0 1 .633-1.151h4.8a.751.751 0 0 1 .636 1.148l-1.158 1.852" fill="none" stroke="#212121" stroke-linecap="round" stroke-linejoin="round" stroke-width="1.5px"></path><path class="a" d="M23.085 12.249h-3.121a.751.751 0 0 0-.671 1.086l.128.256a3 3 0 0 0 2.679 1.658h1.15" fill="none" stroke="#212121" stroke-linecap="round" stroke-linejoin="round" stroke-width="1.5px"></path><path class="a" d="M.915 12.249h3.121a.751.751 0 0 1 .671 1.086l-.128.256A3 3 0 0 1 1.9 15.249H.75" fill="none" stroke="#212121" stroke-linecap="round" stroke-linejoin="round" stroke-width="1.5px"></path></g></svg>