<svg xmlns="http://www.w3.org/2000/svg" width="24" height="24" viewBox="0 0 24 24"><title>car actions wifi</title><g fill="#212121" class="nc-icon-wrapper"><defs></defs><path class="a" d="M21.75 20.25a1.5 1.5 0 0 0 1.5-1.5 3.624 3.624 0 0 0-1.061-2.561L20.25 14.25H3.75l-1.939 1.939A3.624 3.624 0 0 0 .75 18.75a1.5 1.5 0 0 0 1.5 1.5z" fill="none" stroke="#212121" stroke-linecap="round" stroke-linejoin="round" stroke-width="1.5px"></path><path class="a" d="M1.075 17.25H5.25" fill="none" stroke="#212121" stroke-linecap="round" stroke-linejoin="round" stroke-width="1.5px"></path><path class="a" d="M22.925 17.25H18.75" fill="none" stroke="#212121" stroke-linecap="round" stroke-linejoin="round" stroke-width="1.5px"></path><path class="a" d="M3.75 14.25l1.7-4.54a2.249 2.249 0 0 1 2.109-1.46h8.882a2.249 2.249 0 0 1 2.106 1.46l1.7 4.54z" fill="none" stroke="#212121" stroke-linecap="round" stroke-linejoin="round" stroke-width="1.5px"></path><path class="a" d="M2.25 20.25v1.5a1.5 1.5 0 0 0 3 0v-1.5z" fill="none" stroke="#212121" stroke-linecap="round" stroke-linejoin="round" stroke-width="1.5px"></path><path class="a" d="M21.75 20.25v1.5a1.5 1.5 0 0 1-3 0v-1.5z" fill="none" stroke="#212121" stroke-linecap="round" stroke-linejoin="round" stroke-width="1.5px"></path><path class="a" d="M17.262 5.475A8.52 8.52 0 0 0 12 3.75a8.52 8.52 0 0 0-5.262 1.725" fill="none" stroke="#212121" stroke-linecap="round" stroke-linejoin="round" stroke-width="1.5px"></path><path class="a" d="M19.893 3.337A12.783 12.783 0 0 0 12 .75a12.783 12.783 0 0 0-7.893 2.587" fill="none" stroke="#212121" stroke-linecap="round" stroke-linejoin="round" stroke-width="1.5px"></path></g></svg>