<svg xmlns="http://www.w3.org/2000/svg" width="24" height="24" viewBox="0 0 24 24"><title>card game symbols</title><g fill="#212121" class="nc-icon-wrapper"><defs></defs><path class="cls-1" d="M18.829 22.914a1.191 1.191 0 0 1-1.658 0L13.526 19.3a2.426 2.426 0 0 1-.5-2.906 2.72 2.72 0 0 1 4.239-.654l.731.694.731-.694a2.721 2.721 0 0 1 4.24.654 2.429 2.429 0 0 1-.5 2.906z" fill="none" stroke="#212121" stroke-linecap="round" stroke-linejoin="round" stroke-width="1.5px"></path><path class="cls-1" d="M5.171 13.836a1.191 1.191 0 0 1 1.658 0l3.645 3.616a2.426 2.426 0 0 1 .5 2.906 2.72 2.72 0 0 1-4.239.654L6 20.318l-.731.694a2.721 2.721 0 0 1-4.24-.654 2.429 2.429 0 0 1 .5-2.906z" fill="none" stroke="#212121" stroke-linecap="round" stroke-linejoin="round" stroke-width="1.5px"></path><path class="cls-1" d="M6 20.318v2.932" fill="none" stroke="#212121" stroke-linecap="round" stroke-linejoin="round" stroke-width="1.5px"></path><path class="cls-1" d="M20.625 10.5a2.625 2.625 0 1 0-1.08-5.012 2.625 2.625 0 1 0-3.09 0 2.623 2.623 0 1 0-1.08 5.012z" fill="none" stroke="#212121" stroke-linecap="round" stroke-linejoin="round" stroke-width="1.5px"></path><path class="cls-1" d="M18 10.5V12" fill="none" stroke="#212121" stroke-linecap="round" stroke-linejoin="round" stroke-width="1.5px"></path><path class="cls-1" d="M6 11.25L1.5 6 6 .75 10.5 6 6 11.25z" fill="none" stroke="#212121" stroke-linecap="round" stroke-linejoin="round" stroke-width="1.5px"></path></g></svg>