<svg xmlns="http://www.w3.org/2000/svg" width="24" height="24" viewBox="0 0 24 24"><title>card game cards spade diamond</title><g fill="#212121" class="nc-icon-wrapper"><defs></defs><path class="cls-1" d="M12.511 1.96A1.493 1.493 0 0 0 10.76.778l-8.8 1.708A1.5 1.5 0 0 0 .778 4.238l2.563 13.2a1.494 1.494 0 0 0 1.751 1.182l.825-.16" fill="none" stroke="#212121" stroke-linecap="round" stroke-linejoin="round" stroke-width="1.5px"></path><path class="cls-1" d="M8.357 6.836l-1.631 3.361.753.68" fill="none" stroke="#212121" stroke-linecap="round" stroke-linejoin="round" stroke-width="1.5px"></path><path class="cls-1" d="M3.487 4.472a.374.374 0 0 1 .439.3" fill="none" stroke="#212121" stroke-linecap="round" stroke-linejoin="round" stroke-width="1.5px"></path><path class="cls-1" d="M3.19 4.911a.374.374 0 0 1 .3-.439" fill="none" stroke="#212121" stroke-linecap="round" stroke-linejoin="round" stroke-width="1.5px"></path><path class="cls-1" d="M3.629 5.208a.375.375 0 0 1-.439-.3" fill="none" stroke="#212121" stroke-linecap="round" stroke-linejoin="round" stroke-width="1.5px"></path><path class="cls-1" d="M3.926 4.768a.375.375 0 0 1-.3.44" fill="none" stroke="#212121" stroke-linecap="round" stroke-linejoin="round" stroke-width="1.5px"></path><rect class="cls-1" x="9.966" y="5.972" width="11.953" height="16.435" rx="1" ry="1" transform="rotate(11.48 15.957 14.171)" fill="none" stroke="#212121" stroke-linecap="round" stroke-linejoin="round" stroke-width="1.5px"></rect><path class="cls-1" d="M15.35 17.118l.296-1.464" fill="none" stroke="#212121" stroke-linecap="round" stroke-linejoin="round" stroke-width="1.5px"></path><path class="cls-1" d="M16.682 10.528s-2.493 1.021-2.789 2.485a2.241 2.241 0 1 0 4.394.888c.296-1.465-1.605-3.373-1.605-3.373z" fill="none" stroke="#212121" stroke-linecap="round" stroke-linejoin="round" stroke-width="1.5px"></path><path class="cls-1" d="M13.831 7.664a.375.375 0 0 1 .293.442" fill="none" stroke="#212121" stroke-linecap="round" stroke-linejoin="round" stroke-width="1.5px"></path><path class="cls-1" d="M13.389 7.957a.375.375 0 0 1 .442-.293" fill="none" stroke="#212121" stroke-linecap="round" stroke-linejoin="round" stroke-width="1.5px"></path><path class="cls-1" d="M13.682 8.4a.375.375 0 0 1-.293-.442" fill="none" stroke="#212121" stroke-linecap="round" stroke-linejoin="round" stroke-width="1.5px"></path><path class="cls-1" d="M14.124 8.106a.375.375 0 0 1-.442.293" fill="none" stroke="#212121" stroke-linecap="round" stroke-linejoin="round" stroke-width="1.5px"></path><path class="cls-1" d="M18.2 19.979a.375.375 0 0 1 .293.442" fill="none" stroke="#212121" stroke-linecap="round" stroke-linejoin="round" stroke-width="1.5px"></path><path class="cls-1" d="M17.76 20.272a.375.375 0 0 1 .442-.293" fill="none" stroke="#212121" stroke-linecap="round" stroke-linejoin="round" stroke-width="1.5px"></path><path class="cls-1" d="M18.053 20.714a.376.376 0 0 1-.293-.442" fill="none" stroke="#212121" stroke-linecap="round" stroke-linejoin="round" stroke-width="1.5px"></path><path class="cls-1" d="M18.5 20.421a.375.375 0 0 1-.442.293" fill="none" stroke="#212121" stroke-linecap="round" stroke-linejoin="round" stroke-width="1.5px"></path></g></svg>