<svg xmlns="http://www.w3.org/2000/svg" width="24" height="24" viewBox="0 0 24 24"><title>card game card club</title><g fill="#212121" class="nc-icon-wrapper"><defs></defs><rect class="cls-1" x="3.75" y=".75" width="16.5" height="22.5" rx="1" ry="1" fill="none" stroke="#212121" stroke-linecap="round" stroke-linejoin="round" stroke-width="1.5px"></rect><path class="cls-1" d="M14.25 14.25a2.25 2.25 0 0 0 0-4.5c-.049 0-.094.011-.142.014A2.224 2.224 0 0 0 14.25 9a2.25 2.25 0 0 0-4.5 0 2.224 2.224 0 0 0 .142.764c-.048 0-.093-.014-.142-.014a2.25 2.25 0 0 0 0 4.5z" fill="none" stroke="#212121" stroke-linecap="round" stroke-linejoin="round" stroke-width="1.5px"></path><path class="cls-1" d="M12 14.25v2.25" fill="none" stroke="#212121" stroke-linecap="round" stroke-linejoin="round" stroke-width="1.5px"></path></g></svg>