<svg xmlns="http://www.w3.org/2000/svg" width="24" height="24" viewBox="0 0 24 24"><title>cash pin radius</title><g fill="#212121" class="nc-icon-wrapper"><defs></defs><path class="a" d="M18.406 17.393c2.927.58 4.844 1.547 4.844 2.642 0 1.776-5.037 3.215-11.25 3.215S.75 21.811.75 20.035c0-1.092 1.908-2.057 4.824-2.638" fill="none" stroke="#212121" stroke-linecap="round" stroke-linejoin="round" stroke-width="1.5px"></path><path class="a" d="M18.75 7.5c0 3.25-5.132 10.527-6.446 12.336a.375.375 0 0 1-.607 0C10.383 18.027 5.25 10.75 5.25 7.5a6.75 6.75 0 0 1 13.5 0z" fill="none" stroke="#212121" stroke-linecap="round" stroke-linejoin="round" stroke-width="1.5px"></path><path class="a" d="M13.821 5.25H11.2a1.342 1.342 0 0 0-.5 2.587l2.655.825a1.342 1.342 0 0 1-.5 2.588H9.7" fill="none" stroke="#212121" stroke-linecap="round" stroke-linejoin="round" stroke-width="1.5px"></path><path class="a" d="M11.946 5.25v-1.5" fill="none" stroke="#212121" stroke-linecap="round" stroke-linejoin="round" stroke-width="1.5px"></path><path class="a" d="M11.946 12.75v-1.5" fill="none" stroke="#212121" stroke-linecap="round" stroke-linejoin="round" stroke-width="1.5px"></path></g></svg>