<svg xmlns="http://www.w3.org/2000/svg" width="24" height="24" viewBox="0 0 24 24"><title>cash pin map</title><g fill="#212121" class="nc-icon-wrapper"><defs></defs><path class="a" d="M4.25 14.25a1.5 1.5 0 0 0-1.423 1.025l-2 6A1.5 1.5 0 0 0 2.25 23.25h19.5a1.5 1.5 0 0 0 1.423-1.975l-2-6a1.5 1.5 0 0 0-1.423-1.025" fill="none" stroke="#212121" stroke-linecap="round" stroke-linejoin="round" stroke-width="1.5px"></path><path class="a" d="M18.75 7.5c0 3.25-5.132 10.527-6.446 12.336a.375.375 0 0 1-.607 0C10.383 18.027 5.25 10.75 5.25 7.5a6.75 6.75 0 0 1 13.5 0z" fill="none" stroke="#212121" stroke-linecap="round" stroke-linejoin="round" stroke-width="1.5px"></path><path class="a" d="M13.875 5.25H11.25a1.341 1.341 0 0 0-.5 2.587l2.655.825a1.342 1.342 0 0 1-.5 2.588H9.75" fill="none" stroke="#212121" stroke-linecap="round" stroke-linejoin="round" stroke-width="1.5px"></path><path class="a" d="M12 5.25v-1.5" fill="none" stroke="#212121" stroke-linecap="round" stroke-linejoin="round" stroke-width="1.5px"></path><path class="a" d="M12 12.75v-1.5" fill="none" stroke="#212121" stroke-linecap="round" stroke-linejoin="round" stroke-width="1.5px"></path></g></svg>