<svg xmlns="http://www.w3.org/2000/svg" width="24" height="24" viewBox="0 0 24 24"><title>cash payment bill</title><g fill="#212121" class="nc-icon-wrapper"><defs></defs><path class="a" d="M.75 14.25v9" fill="none" stroke="#212121" stroke-linecap="round" stroke-linejoin="round" stroke-width="1.5px"></path><path class="a" d="M.75 21.75h16.5a3 3 0 0 0-3-3H10.5a3 3 0 0 0-3-3H.75" fill="none" stroke="#212121" stroke-linecap="round" stroke-linejoin="round" stroke-width="1.5px"></path><path class="a" d="M6.75 18.75h3.75" fill="none" stroke="#212121" stroke-linecap="round" stroke-linejoin="round" stroke-width="1.5px"></path><path class="a" d="M7.875 3a.375.375 0 1 1-.375.375A.375.375 0 0 1 7.875 3" fill="none" stroke="#212121" stroke-linecap="round" stroke-linejoin="round" stroke-width="1.5px"></path><path class="a" d="M20.625 9a.375.375 0 1 1-.375.375.375.375 0 0 1 .375-.375" fill="none" stroke="#212121" stroke-linecap="round" stroke-linejoin="round" stroke-width="1.5px"></path><path class="a" d="M6.635.75h15.23a1.4 1.4 0 0 1 1.385 1.406v8.438A1.4 1.4 0 0 1 21.865 12H6.635a1.4 1.4 0 0 1-1.385-1.406V2.156A1.4 1.4 0 0 1 6.635.75z" fill="none" stroke="#212121" stroke-linecap="round" stroke-linejoin="round" stroke-width="1.5px"></path><circle class="a" cx="14.25" cy="6" r="2.25" fill="none" stroke="#212121" stroke-linecap="round" stroke-linejoin="round" stroke-width="1.5px"></circle></g></svg>