<svg xmlns="http://www.w3.org/2000/svg" width="24" height="24" viewBox="0 0 24 24"><title>cash payment bill 1</title><g fill="#212121" class="nc-icon-wrapper"><defs></defs><path class="a" d="M3.818 16.125l2.331-1.043a2.044 2.044 0 0 0 .883-1.365l.368-2.194 3.151-2.251a1.022 1.022 0 0 0 .428-.832v-.58a1.022 1.022 0 0 0-1.368-.96L5.41 8.4a9.5 9.5 0 0 0-2.89 1.65L.75 11.523" fill="none" stroke="#212121" stroke-linecap="round" stroke-linejoin="round" stroke-width="1.5px"></path><path class="a" d="M.75 21.75l2.3-1.683a2.871 2.871 0 0 1 1.7-.567h6.5" fill="none" stroke="#212121" stroke-linecap="round" stroke-linejoin="round" stroke-width="1.5px"></path><path class="a" d="M11.25 19.5h3.592a1.021 1.021 0 0 0 .971-.676l1.836-5.324" fill="none" stroke="#212121" stroke-linecap="round" stroke-linejoin="round" stroke-width="1.5px"></path><path class="a" d="M13.329 9.344a2.224 2.224 0 0 0 1.858.875c1.139 0 2.063-.693 2.063-1.547s-.924-1.546-2.063-1.546-2.062-.693-2.062-1.548.924-1.547 2.062-1.547a2.221 2.221 0 0 1 1.858.875" fill="none" stroke="#212121" stroke-linecap="round" stroke-linejoin="round" stroke-width="1.5px"></path><path class="a" d="M15.187 10.219v1.031" fill="none" stroke="#212121" stroke-linecap="round" stroke-linejoin="round" stroke-width="1.5px"></path><path class="a" d="M15.187 3v1.031" fill="none" stroke="#212121" stroke-linecap="round" stroke-linejoin="round" stroke-width="1.5px"></path><path class="a" d="M13.5 16.5h-2.25a1.5 1.5 0 0 0-1.5 1.5 1.5 1.5 0 0 0 1.5 1.5" fill="none" stroke="#212121" stroke-linecap="round" stroke-linejoin="round" stroke-width="1.5px"></path><path class="a" d="M18 13.5h-4.5A1.5 1.5 0 0 0 12 15a1.5 1.5 0 0 0 1.5 1.5h3.114" fill="none" stroke="#212121" stroke-linecap="round" stroke-linejoin="round" stroke-width="1.5px"></path><path class="a" d="M18.75 2.25h3a1.5 1.5 0 0 1 1.5 1.5V12a1.5 1.5 0 0 1-1.5 1.5H10.5" fill="none" stroke="#212121" stroke-linecap="round" stroke-linejoin="round" stroke-width="1.5px"></path><path class="a" d="M5.25 5.25v-1.5a1.5 1.5 0 0 1 1.5-1.5H12" fill="none" stroke="#212121" stroke-linecap="round" stroke-linejoin="round" stroke-width="1.5px"></path></g></svg>