<svg xmlns="http://www.w3.org/2000/svg" width="24" height="24" viewBox="0 0 24 24"><title>casino player diamond</title><g fill="#212121" class="nc-icon-wrapper"><defs></defs><path class="cls-1" d="M16.678 22.5v-2.25l1.006.168a3 3 0 0 0 3.494-2.96V15l.935-.234A1.5 1.5 0 0 0 23 12.479L21.178 9.75V9c0-3.766-3.243-6.885-7.5-7.427" fill="none" stroke="#212121" stroke-linecap="round" stroke-linejoin="round" stroke-width="1.5px"></path><path class="cls-1" d="M3.209 11.25a8.993 8.993 0 0 0 4.469 7.036V22.5" fill="none" stroke="#212121" stroke-linecap="round" stroke-linejoin="round" stroke-width="1.5px"></path><path class="cls-1" d="M6.178 10.5l-5.25-6 2.25-3h6l2.25 3-5.25 6z" fill="none" stroke="#212121" stroke-linecap="round" stroke-linejoin="round" stroke-width="1.5px"></path><path class="cls-1" d="M.928 4.5h10.5" fill="none" stroke="#212121" stroke-linecap="round" stroke-linejoin="round" stroke-width="1.5px"></path><path class="cls-1" d="M6.178 1.5v9" fill="none" stroke="#212121" stroke-linecap="round" stroke-linejoin="round" stroke-width="1.5px"></path></g></svg>