<svg xmlns="http://www.w3.org/2000/svg" width="24" height="24" viewBox="0 0 24 24"><title>cat bed</title><g fill="#212121" class="nc-icon-wrapper"><defs></defs><path class="cls-1" d="M16.618 3.238a3.375 3.375 0 1 1 4.691 3.943" fill="none" stroke="#212121" stroke-linecap="round" stroke-linejoin="round" stroke-width="1.5px"></path><path class="cls-1" d="M7.393 3.278a3.376 3.376 0 1 0-4.576 3.959" fill="none" stroke="#212121" stroke-linecap="round" stroke-linejoin="round" stroke-width="1.5px"></path><path class="cls-1" d="M18.75 13.5a6.75 6.75 0 0 0-13.5 0v5.25h13.5z" fill="none" stroke="#212121" stroke-linecap="round" stroke-linejoin="round" stroke-width="1.5px"></path><path class="cls-1" d="M5.25 18.75c0-2.485 3.022-4.5 6.75-4.5s6.75 2.015 6.75 4.5" fill="none" stroke="#212121" stroke-linecap="round" stroke-linejoin="round" stroke-width="1.5px"></path><path class="cls-1" d="M23.25 21.75a1.5 1.5 0 0 1-1.5 1.5H2.25a1.5 1.5 0 0 1-1.5-1.5v-7.778C.75 7.812 5.5 2.44 11.654 2.255A11.251 11.251 0 0 1 23.25 13.5z" fill="none" stroke="#212121" stroke-linecap="round" stroke-linejoin="round" stroke-width="1.5px"></path></g></svg>