<svg xmlns="http://www.w3.org/2000/svg" width="24" height="24" viewBox="0 0 24 24"><title>cat mouse toy</title><g fill="#212121" class="nc-icon-wrapper"><defs></defs><path class="cls-1" d="M17.25 15.375a.375.375 0 0 1 .375.375" fill="none" stroke="#212121" stroke-linecap="round" stroke-linejoin="round" stroke-width="1.5px"></path><path class="cls-1" d="M16.875 15.75a.375.375 0 0 1 .375-.375" fill="none" stroke="#212121" stroke-linecap="round" stroke-linejoin="round" stroke-width="1.5px"></path><path class="cls-1" d="M17.25 16.125a.375.375 0 0 1-.375-.375" fill="none" stroke="#212121" stroke-linecap="round" stroke-linejoin="round" stroke-width="1.5px"></path><path class="cls-1" d="M17.625 15.75a.375.375 0 0 1-.375.375" fill="none" stroke="#212121" stroke-linecap="round" stroke-linejoin="round" stroke-width="1.5px"></path><path class="cls-1" d="M11.25 3S8.743 5.25 7.5 5.25a2.25 2.25 0 0 1 0-4.5C8.743.75 11.25 3 11.25 3z" fill="none" stroke="#212121" stroke-linecap="round" stroke-linejoin="round" stroke-width="1.5px"></path><path class="cls-1" d="M11.25 3S13.757 5.25 15 5.25a2.25 2.25 0 0 0 0-4.5C13.757.75 11.25 3 11.25 3z" fill="none" stroke="#212121" stroke-linecap="round" stroke-linejoin="round" stroke-width="1.5px"></path><path class="cls-1" d="M11.25 3v6" fill="none" stroke="#212121" stroke-linecap="round" stroke-linejoin="round" stroke-width="1.5px"></path><path class="cls-1" d="M3.75 17.25a1.5 1.5 0 0 0 1.5 1.5h16.031a1.969 1.969 0 0 0 1.119-3.587l-6.994-4.842A7.429 7.429 0 0 0 3.75 16.429z" fill="none" stroke="#212121" stroke-linecap="round" stroke-linejoin="round" stroke-width="1.5px"></path><path class="cls-1" d="M3.781 15.75a3 3 0 1 0-.031 6h6.729a7.493 7.493 0 0 1 4.16 1.26l.361.24" fill="none" stroke="#212121" stroke-linecap="round" stroke-linejoin="round" stroke-width="1.5px"></path></g></svg>