<svg xmlns="http://www.w3.org/2000/svg" width="24" height="24" viewBox="0 0 24 24"><title>cat fish toy</title><g fill="#212121" class="nc-icon-wrapper"><defs></defs><path class="cls-1" d="M14.842 3.542a3 3 0 0 0-1.992 3.926 6 6 0 0 0 5.246 3.9 3 3 0 0 0 2.534-1.122l2.62-3.275-3.75-1.738.038-3.033z" fill="none" stroke="#212121" stroke-linecap="round" stroke-linejoin="round" stroke-width="1.5px"></path><path class="cls-1" d="M16.621 6.708a.374.374 0 0 0 0 .53" fill="none" stroke="#212121" stroke-linecap="round" stroke-linejoin="round" stroke-width="1.5px"></path><path class="cls-1" d="M17.151 6.708a.374.374 0 0 0-.53 0" fill="none" stroke="#212121" stroke-linecap="round" stroke-linejoin="round" stroke-width="1.5px"></path><path class="cls-1" d="M17.151 7.238a.374.374 0 0 0 0-.53" fill="none" stroke="#212121" stroke-linecap="round" stroke-linejoin="round" stroke-width="1.5px"></path><path class="cls-1" d="M16.621 7.238a.374.374 0 0 0 .53 0" fill="none" stroke="#212121" stroke-linecap="round" stroke-linejoin="round" stroke-width="1.5px"></path><path class="cls-1" d="M6.341 17.518l7.893-7.893" fill="none" stroke="#212121" stroke-linecap="round" stroke-linejoin="round" stroke-width="1.5px"></path><path class="cls-1" d="M4.282 19.7a5.945 5.945 0 0 1 1.708 3.533 3.306 3.306 0 0 0 .413-.35 3.75 3.75 0 1 0-5.3-5.3 3.306 3.306 0 0 0-.35.413A5.945 5.945 0 0 1 4.282 19.7z" fill="none" stroke="#212121" stroke-linecap="round" stroke-linejoin="round" stroke-width="1.5px"></path><path class="cls-1" d="M8.931 8.564l5.834 5.834" fill="none" stroke="#212121" stroke-linecap="round" stroke-linejoin="round" stroke-width="1.5px"></path><path class="cls-1" d="M5.749 9.625l7.955 7.955" fill="none" stroke="#212121" stroke-linecap="round" stroke-linejoin="round" stroke-width="1.5px"></path><path class="cls-1" d="M4.688 12.807l5.834 5.833" fill="none" stroke="#212121" stroke-linecap="round" stroke-linejoin="round" stroke-width="1.5px"></path></g></svg>