<svg xmlns="http://www.w3.org/2000/svg" width="24" height="24" viewBox="0 0 24 24"><title>cellular network 3g</title><g fill="#212121" class="nc-icon-wrapper"><defs></defs><path class="a" d="M6.863 16.5a1.5 1.5 0 0 1 1.5-1.5l1.135.005a1.873 1.873 0 0 1-.008 3.745 1.873 1.873 0 0 1 .01 3.75H8.365a1.5 1.5 0 0 1-1.5-1.5" fill="none" stroke="#212121" stroke-linecap="round" stroke-linejoin="round" stroke-width="1.5px"></path><path class="a" d="M5.363 4.5l3-3 3 3" fill="none" stroke="#212121" stroke-linecap="round" stroke-linejoin="round" stroke-width="1.5px"></path><path class="a" d="M8.363 1.5v9.75" fill="none" stroke="#212121" stroke-linecap="round" stroke-linejoin="round" stroke-width="1.5px"></path><path class="a" d="M18.863 8.25l-3 3-3-3" fill="none" stroke="#212121" stroke-linecap="round" stroke-linejoin="round" stroke-width="1.5px"></path><path class="a" d="M15.863 11.25V1.5" fill="none" stroke="#212121" stroke-linecap="round" stroke-linejoin="round" stroke-width="1.5px"></path><path class="a" d="M18.113 15h-1.5a2.251 2.251 0 0 0-2.25 2.25v3a2.25 2.25 0 0 0 2.25 2.25 2.25 2.25 0 0 0 2.25-2.25v-.75h-1.5" fill="none" stroke="#212121" stroke-linecap="round" stroke-linejoin="round" stroke-width="1.5px"></path></g></svg>