<svg xmlns="http://www.w3.org/2000/svg" width="24" height="24" viewBox="0 0 24 24"><title>certified ribbon 1</title><g fill="#212121" class="nc-icon-wrapper"><defs></defs><path class="a" d="M18 5.25l-5.47 5.47a.749.749 0 0 1-1.06 0L9.75 9" fill="none" stroke="#212121" stroke-linecap="round" stroke-linejoin="round" stroke-width="1.5px"></path><path class="a" d="M4.717 13.152L.75 18l3.75.75 1.5 4.5 3.99-6.332" fill="none" stroke="#212121" stroke-linecap="round" stroke-linejoin="round" stroke-width="1.5px"></path><path class="a" d="M19.283 13.152L23.25 18l-3.75.75-1.5 4.5-3.99-6.332" fill="none" stroke="#212121" stroke-linecap="round" stroke-linejoin="round" stroke-width="1.5px"></path><path class="a" d="M19.5 9.537l.844 2.216a.749.749 0 0 1-.29.895l-1.986 1.3-.62 2.29a.75.75 0 0 1-.761.553l-2.369-.118-1.847 1.488a.752.752 0 0 1-.942 0L9.682 16.67l-2.369.118a.75.75 0 0 1-.761-.553l-.62-2.29-1.986-1.3a.749.749 0 0 1-.29-.895L4.5 9.537 3.656 7.32a.75.75 0 0 1 .29-.9l1.986-1.3.62-2.29a.75.75 0 0 1 .761-.553l2.369.123L11.529.916a.752.752 0 0 1 .942 0L14.318 2.4" fill="none" stroke="#212121" stroke-linecap="round" stroke-linejoin="round" stroke-width="1.5px"></path></g></svg>