<svg xmlns="http://www.w3.org/2000/svg" width="24" height="24" viewBox="0 0 24 24"><title>chair 2</title><g fill="#212121" class="nc-icon-wrapper"><defs></defs><path class="cls-1" d="M5.25 12.747a.75.75 0 0 0-.6 1.2l1.125 1.5a.75.75 0 0 0 .6.3h11.25a.75.75 0 0 0 .6-.3l1.125-1.5a.75.75 0 0 0-.6-1.2z" fill="none" stroke="#212121" stroke-linecap="round" stroke-linejoin="round" stroke-width="1.5px"></path><path class="cls-1" d="M17.25 12.747l-.75-12h-9l-.75 12" fill="none" stroke="#212121" stroke-linecap="round" stroke-linejoin="round" stroke-width="1.5px"></path><path class="cls-1" d="M7.083 8.247h9.834" fill="none" stroke="#212121" stroke-linecap="round" stroke-linejoin="round" stroke-width="1.5px"></path><path class="cls-1" d="M20.25 3.747a1.5 1.5 0 0 0 0-3H3.75a1.5 1.5 0 0 0 0 3" fill="none" stroke="#212121" stroke-linecap="round" stroke-linejoin="round" stroke-width="1.5px"></path><path class="cls-1" d="M3.75 23.247c0 .15 3-2.388 3-7.5" fill="none" stroke="#212121" stroke-linecap="round" stroke-linejoin="round" stroke-width="1.5px"></path><path class="cls-1" d="M20.25 23.247c0 .15-3-2.388-3-7.5" fill="none" stroke="#212121" stroke-linecap="round" stroke-linejoin="round" stroke-width="1.5px"></path></g></svg>