<svg xmlns="http://www.w3.org/2000/svg" width="24" height="24" viewBox="0 0 24 24"><title>chair retro</title><g fill="#212121" class="nc-icon-wrapper"><defs></defs><path class="cls-1" d="M6 17.25a5.237 5.237 0 0 0-1.5 3c0 1.5 1.5 1.5 1.5 2.25a.735.735 0 0 1-.75.75" fill="none" stroke="#212121" stroke-linecap="round" stroke-linejoin="round" stroke-width="1.5px"></path><path class="cls-1" d="M18 17.25a5.237 5.237 0 0 1 1.5 3c0 1.5-1.5 1.5-1.5 2.25a.735.735 0 0 0 .75.75" fill="none" stroke="#212121" stroke-linecap="round" stroke-linejoin="round" stroke-width="1.5px"></path><path class="cls-1" d="M18.75 17.25a1.5 1.5 0 0 0 0-3H5.25a1.5 1.5 0 0 0 0 3z" fill="none" stroke="#212121" stroke-linecap="round" stroke-linejoin="round" stroke-width="1.5px"></path><path class="cls-1" d="M18 14.25s-.75-.75-.75-4.5a14.937 14.937 0 0 1 1.123-4.967A2.99 2.99 0 0 0 15.559.75H8.441a2.99 2.99 0 0 0-2.814 4.033A14.937 14.937 0 0 1 6.75 9.75c0 3.75-.75 4.5-.75 4.5" fill="none" stroke="#212121" stroke-linecap="round" stroke-linejoin="round" stroke-width="1.5px"></path></g></svg>