<svg xmlns="http://www.w3.org/2000/svg" width="24" height="24" viewBox="0 0 24 24"><title>chair 4</title><g fill="#212121" class="nc-icon-wrapper"><defs></defs><path class="cls-1" d="M16.3 6.75H7.7a1.5 1.5 0 0 1-1.489-1.686l.375-3A1.5 1.5 0 0 1 8.074.75h7.852a1.5 1.5 0 0 1 1.488 1.314l.375 3A1.5 1.5 0 0 1 16.3 6.75z" fill="none" stroke="#212121" stroke-linecap="round" stroke-linejoin="round" stroke-width="1.5px"></path><path class="cls-1" d="M12 17.25a10.178 10.178 0 0 1-7.217-2.69 1.5 1.5 0 1 1 2.124-2.119A7.289 7.289 0 0 0 12 14.25a7.287 7.287 0 0 0 5.093-1.809 1.5 1.5 0 1 1 2.124 2.119A10.178 10.178 0 0 1 12 17.25z" fill="none" stroke="#212121" stroke-linecap="round" stroke-linejoin="round" stroke-width="1.5px"></path><path class="cls-1" d="M7.5 6.738L6.743 12.3a1.44 1.44 0 0 1 .164.141" fill="none" stroke="#212121" stroke-linecap="round" stroke-linejoin="round" stroke-width="1.5px"></path><path class="cls-1" d="M17.093 12.441a1.44 1.44 0 0 1 .164-.141L16.5 6.737" fill="none" stroke="#212121" stroke-linecap="round" stroke-linejoin="round" stroke-width="1.5px"></path><path class="cls-1" d="M18.75 23.25l-1.025-7.518" fill="none" stroke="#212121" stroke-linecap="round" stroke-linejoin="round" stroke-width="1.5px"></path><path class="cls-1" d="M6.275 15.732L5.25 23.25" fill="none" stroke="#212121" stroke-linecap="round" stroke-linejoin="round" stroke-width="1.5px"></path></g></svg>