<svg xmlns="http://www.w3.org/2000/svg" width="24" height="24" viewBox="0 0 24 24"><title>champagne cheers</title><g fill="#212121" class="nc-icon-wrapper"><defs></defs><path class="cls-1" d="M1.475 21.553l5.522 1.684" fill="none" stroke="#212121" stroke-linecap="round" stroke-linejoin="round" stroke-width="1.5px"></path><path class="cls-1" d="M4.236 22.395l1.688-5.535" fill="none" stroke="#212121" stroke-linecap="round" stroke-linejoin="round" stroke-width="1.5px"></path><path class="cls-1" d="M8.324 16.864a4 4 0 0 1-4.315-1.316 4.169 4.169 0 0 1-.559-4.28l4.214-10.1A.726.726 0 0 1 8.543.75l4.275 1.3a.727.727 0 0 1 .494.842l-2.136 10.732a4.173 4.173 0 0 1-2.852 3.24z" fill="none" stroke="#212121" stroke-linecap="round" stroke-linejoin="round" stroke-width="1.5px"></path><path class="cls-1" d="M5.679 5.926l6.627 2.021" fill="none" stroke="#212121" stroke-linecap="round" stroke-linejoin="round" stroke-width="1.5px"></path><path class="cls-1" d="M7.211 9.047a.372.372 0 0 1 .247.467.379.379 0 0 1-.469.252.372.372 0 0 1-.247-.466.379.379 0 0 1 .469-.252" fill="none" stroke="#212121" stroke-linecap="round" stroke-linejoin="round" stroke-width="1.5px"></path><path class="cls-1" d="M15.461 9.047a.372.372 0 0 1 .247.467.379.379 0 0 1-.469.252.372.372 0 0 1-.247-.467.379.379 0 0 1 .469-.252" fill="none" stroke="#212121" stroke-linecap="round" stroke-linejoin="round" stroke-width="1.5px"></path><path class="cls-1" d="M17.711 11.3a.372.372 0 0 1 .247.467.379.379 0 0 1-.469.252.372.372 0 0 1-.247-.467.379.379 0 0 1 .469-.252" fill="none" stroke="#212121" stroke-linecap="round" stroke-linejoin="round" stroke-width="1.5px"></path><path class="cls-1" d="M16.211 13.547a.372.372 0 0 1 .247.467.379.379 0 0 1-.469.252.372.372 0 0 1-.247-.467.379.379 0 0 1 .469-.252" fill="none" stroke="#212121" stroke-linecap="round" stroke-linejoin="round" stroke-width="1.5px"></path><path class="cls-1" d="M8.711 11.3a.372.372 0 0 1 .247.467.379.379 0 0 1-.469.252.372.372 0 0 1-.247-.467.379.379 0 0 1 .469-.252" fill="none" stroke="#212121" stroke-linecap="round" stroke-linejoin="round" stroke-width="1.5px"></path><path class="cls-1" d="M6.461 13.547a.372.372 0 0 1 .247.467.379.379 0 0 1-.469.252.372.372 0 0 1-.247-.467.379.379 0 0 1 .469-.252" fill="none" stroke="#212121" stroke-linecap="round" stroke-linejoin="round" stroke-width="1.5px"></path><path class="cls-1" d="M16.995 23.281l5.53-1.657" fill="none" stroke="#212121" stroke-linecap="round" stroke-linejoin="round" stroke-width="1.5px"></path><path class="cls-1" d="M19.76 22.453l-1.661-5.544" fill="none" stroke="#212121" stroke-linecap="round" stroke-linejoin="round" stroke-width="1.5px"></path><path class="cls-1" d="M15.062.935l.575-.172a.726.726 0 0 1 .877.427l4.165 10.117a4.171 4.171 0 0 1-.579 4.277 4.006 4.006 0 0 1-4.322 1.3 4.141 4.141 0 0 1-2.313-1.845" fill="none" stroke="#212121" stroke-linecap="round" stroke-linejoin="round" stroke-width="1.5px"></path><path class="cls-1" d="M15.805 6.754l2.671-.8" fill="none" stroke="#212121" stroke-linecap="round" stroke-linejoin="round" stroke-width="1.5px"></path></g></svg>