<svg xmlns="http://www.w3.org/2000/svg" width="24" height="24" viewBox="0 0 24 24"><title>charging wireless charging</title><g fill="#212121" class="nc-icon-wrapper"><defs></defs><path class="a" d="M5.467 12.71l10.444-2.566a1.955 1.955 0 0 1 2.365 1.432l1.167 4.748a1.955 1.955 0 0 1-1.432 2.366L7.568 21.256a1.956 1.956 0 0 1-2.366-1.433l-1.168-4.75a1.955 1.955 0 0 1 1.433-2.362z" fill="none" stroke="#212121" stroke-linecap="round" stroke-linejoin="round" stroke-width="1.5px"></path><path class="a" d="M12 8.25V.75" fill="none" stroke="#212121" stroke-linecap="round" stroke-linejoin="round" stroke-width="1.5px"></path><path class="a" d="M.75 8.25a7.5 7.5 0 0 1 7.5-7.5" fill="none" stroke="#212121" stroke-linecap="round" stroke-linejoin="round" stroke-width="1.5px"></path><path class="a" d="M3.75 8.25a4.5 4.5 0 0 1 4.5-4.5" fill="none" stroke="#212121" stroke-linecap="round" stroke-linejoin="round" stroke-width="1.5px"></path><path class="a" d="M23.25 8.25a7.5 7.5 0 0 0-7.5-7.5" fill="none" stroke="#212121" stroke-linecap="round" stroke-linejoin="round" stroke-width="1.5px"></path><path class="a" d="M20.25 8.25a4.5 4.5 0 0 0-4.5-4.5" fill="none" stroke="#212121" stroke-linecap="round" stroke-linejoin="round" stroke-width="1.5px"></path><path class="a" d="M17.049 10.2a7.5 7.5 0 0 0-11.966 2.646" fill="none" stroke="#212121" stroke-linecap="round" stroke-linejoin="round" stroke-width="1.5px"></path><path class="a" d="M6.961 21.305a7.5 7.5 0 0 0 12.255-3.5" fill="none" stroke="#212121" stroke-linecap="round" stroke-linejoin="round" stroke-width="1.5px"></path><path class="a" d="M6.961 12.341l2.153 8.532" fill="none" stroke="#212121" stroke-linecap="round" stroke-linejoin="round" stroke-width="1.5px"></path></g></svg>