<svg xmlns="http://www.w3.org/2000/svg" width="24" height="24" viewBox="0 0 24 24"><title>charging battery empty</title><g fill="#212121" class="nc-icon-wrapper"><defs></defs><path class="a" d="M15.751 17.251H18a1.5 1.5 0 0 0 1.5-1.5v-1.5H21a1.5 1.5 0 0 0 1.5-1.5v-1.5a1.5 1.5 0 0 0-1.5-1.5h-1.5v-1.5a1.5 1.5 0 0 0-1.5-1.5h-2.25" fill="none" stroke="#212121" stroke-linecap="round" stroke-linejoin="round" stroke-width="1.5px"></path><path class="a" d="M6 6.751H3a1.5 1.5 0 0 0-1.5 1.5v7.5a1.5 1.5 0 0 0 1.5 1.5h3" fill="none" stroke="#212121" stroke-linecap="round" stroke-linejoin="round" stroke-width="1.5px"></path><path class="a" d="M12.001 6.001l-6 6.75h3v5.25l6-6.75h-3v-5.25z" fill="none" stroke="#212121" stroke-linecap="round" stroke-linejoin="round" stroke-width="1.5px"></path></g></svg>