<svg xmlns="http://www.w3.org/2000/svg" width="24" height="24" viewBox="0 0 24 24"><title>charging battery cable 1</title><g fill="#212121" class="nc-icon-wrapper"><defs></defs><path class="a" d="M17.251 14.251A2.25 2.25 0 0 0 19.5 12v-.75H21a1.5 1.5 0 0 0 1.5-1.5v-1.5a1.5 1.5 0 0 0-1.5-1.5h-1.5V6a2.25 2.25 0 0 0-2.25-2.25H3.751A2.25 2.25 0 0 0 1.5 6v6a2.251 2.251 0 0 0 2.25 2.25" fill="none" stroke="#212121" stroke-linecap="round" stroke-linejoin="round" stroke-width="1.5px"></path><path class="a" d="M11.251 17.251h-1.5a3 3 0 0 1-3-3V12a.75.75 0 0 1 .75-.75h6a.75.75 0 0 1 .75.75v2.25a3 3 0 0 1-3 3.001z" fill="none" stroke="#212121" stroke-linecap="round" stroke-linejoin="round" stroke-width="1.5px"></path><path class="a" d="M10.501 17.251v3" fill="none" stroke="#212121" stroke-linecap="round" stroke-linejoin="round" stroke-width="1.5px"></path><path class="a" d="M8.251 11.251v-4.5" fill="none" stroke="#212121" stroke-linecap="round" stroke-linejoin="round" stroke-width="1.5px"></path><path class="a" d="M12.751 11.251v-4.5" fill="none" stroke="#212121" stroke-linecap="round" stroke-linejoin="round" stroke-width="1.5px"></path></g></svg>