<svg xmlns="http://www.w3.org/2000/svg" width="24" height="24" viewBox="0 0 24 24"><title>chef gear dumplings</title><g fill="#212121" class="nc-icon-wrapper"><defs></defs><path class="cls-1" d="M9.264 5.25a1.5 1.5 0 0 1 .118-2.118l2.236-2a1.5 1.5 0 0 1 2 2.236 1.5 1.5 0 1 1-2.236 2 1.5 1.5 0 0 1-2.118-.118z" fill="none" stroke="#212121" stroke-linecap="round" stroke-linejoin="round" stroke-width="1.5px"></path><path class="cls-1" d="M4.787 11a1.5 1.5 0 0 1-1.776-1.167L2.4 6.9a1.5 1.5 0 0 1 2.937-.614 1.5 1.5 0 0 1 .614 2.936A1.5 1.5 0 0 1 4.787 11z" fill="none" stroke="#212121" stroke-linecap="round" stroke-linejoin="round" stroke-width="1.5px"></path><path class="cls-1" d="M7.523 17.744a1.5 1.5 0 0 1-1.894.957l-2.85-.936a1.5 1.5 0 1 1 .937-2.85 1.469 1.469 0 0 1 1.893-.957 1.469 1.469 0 0 1 .957 1.893 1.5 1.5 0 0 1 .957 1.893z" fill="none" stroke="#212121" stroke-linecap="round" stroke-linejoin="round" stroke-width="1.5px"></path><path class="cls-1" d="M14.736 18.75a1.5 1.5 0 0 1-.118 2.118l-2.236 2a1.5 1.5 0 1 1-2-2.236 1.5 1.5 0 0 1 2.236-2 1.5 1.5 0 0 1 2.118.118z" fill="none" stroke="#212121" stroke-linecap="round" stroke-linejoin="round" stroke-width="1.5px"></path><path class="cls-1" d="M19.214 13.005a1.5 1.5 0 0 1 1.775 1.162L21.6 17.1a1.5 1.5 0 0 1-2.936.614 1.5 1.5 0 1 1-.614-2.936 1.5 1.5 0 0 1 1.164-1.773z" fill="none" stroke="#212121" stroke-linecap="round" stroke-linejoin="round" stroke-width="1.5px"></path><path class="cls-1" d="M16.478 6.256a1.5 1.5 0 0 1 1.893-.956l2.85.936a1.5 1.5 0 1 1-.936 2.85 1.5 1.5 0 1 1-2.85-.936 1.5 1.5 0 0 1-.957-1.894z" fill="none" stroke="#212121" stroke-linecap="round" stroke-linejoin="round" stroke-width="1.5px"></path><circle class="cls-1" cx="12" cy="12" r="3" fill="none" stroke="#212121" stroke-linecap="round" stroke-linejoin="round" stroke-width="1.5px"></circle></g></svg>