<svg xmlns="http://www.w3.org/2000/svg" width="24" height="24" viewBox="0 0 24 24"><title>chef gear hat moustache</title><g fill="#212121" class="nc-icon-wrapper"><defs></defs><path class="cls-1" d="M17.25 3a3.7 3.7 0 0 0-1.25.23 4.467 4.467 0 0 0-8 0A3.706 3.706 0 0 0 6.75 3a3.75 3.75 0 0 0 0 7.5v5.25h10.5V10.5a3.75 3.75 0 0 0 0-7.5z" fill="none" stroke="#212121" stroke-linecap="round" stroke-linejoin="round" stroke-width="1.5px"></path><path class="cls-1" d="M5.936 21.522a3.529 3.529 0 0 0 1.871-1.658A2.251 2.251 0 0 1 12 21c0 1.243-1.5 2.25-3 2.25-3.75 0-3.75-1.5-3.75-1.5z" fill="none" stroke="#212121" stroke-linecap="round" stroke-linejoin="round" stroke-width="1.5px"></path><path class="cls-1" d="M18.065 21.522a3.531 3.531 0 0 1-1.872-1.658A2.251 2.251 0 0 0 12 21c0 1.243 1.5 2.25 3 2.25 3.75 0 3.75-1.5 3.75-1.5z" fill="none" stroke="#212121" stroke-linecap="round" stroke-linejoin="round" stroke-width="1.5px"></path><path class="cls-1" d="M6.75 12.75h10.5" fill="none" stroke="#212121" stroke-linecap="round" stroke-linejoin="round" stroke-width="1.5px"></path><path class="cls-1" d="M9.75 12.75v-1.5" fill="none" stroke="#212121" stroke-linecap="round" stroke-linejoin="round" stroke-width="1.5px"></path><path class="cls-1" d="M14.25 12.75v-1.5" fill="none" stroke="#212121" stroke-linecap="round" stroke-linejoin="round" stroke-width="1.5px"></path></g></svg>