<svg xmlns="http://www.w3.org/2000/svg" width="24" height="24" viewBox="0 0 24 24"><title>chess figures</title><g fill="#212121" class="nc-icon-wrapper"><defs></defs><path class="cls-1" d="M15.75 18h5.479a1.5 1.5 0 0 1 1.48 1.253l.521 1.5a1.5 1.5 0 0 1-1.48 1.747H16.5" fill="none" stroke="#212121" stroke-linecap="round" stroke-linejoin="round" stroke-width="1.5px"></path><path class="cls-1" d="M2.812 18v-1.1A9.159 9.159 0 0 1 6.25 9.75H2.208a1.459 1.459 0 0 1-1.031-2.49l3.7-3.7V1.5l.364.081a7.429 7.429 0 0 1 5.814 7.259v.91c-3.437 3.438.69 8.27.69 8.27" fill="none" stroke="#212121" stroke-linecap="round" stroke-linejoin="round" stroke-width="1.5px"></path><path class="cls-1" d="M15.092 9.241L14.045 15" fill="none" stroke="#212121" stroke-linecap="round" stroke-linejoin="round" stroke-width="1.5px"></path><path class="cls-1" d="M20.25 18l-1.592-8.757" fill="none" stroke="#212121" stroke-linecap="round" stroke-linejoin="round" stroke-width="1.5px"></path><circle class="cls-1" cx="16.875" cy="6.375" r="3.375" fill="none" stroke="#212121" stroke-linecap="round" stroke-linejoin="round" stroke-width="1.5px"></circle><path class="cls-1" d="M13.423 20.526l-.5-1.5A1.5 1.5 0 0 0 11.5 18H2.75a1.5 1.5 0 0 0-1.423 1.026l-.5 1.5A1.5 1.5 0 0 0 2.25 22.5H12a1.5 1.5 0 0 0 1.423-1.974z" fill="none" stroke="#212121" stroke-linecap="round" stroke-linejoin="round" stroke-width="1.5px"></path></g></svg>