<svg xmlns="http://www.w3.org/2000/svg" width="24" height="24" viewBox="0 0 24 24"><title>chicken body</title><g fill="#212121" class="nc-icon-wrapper"><defs></defs><path class="cls-1" d="M.75 8.137a3.632 3.632 0 0 1 2-.625 4.272 4.272 0 0 1 4 4.5v1.5a6.75 6.75 0 0 0 13.5 0v-6a3.75 3.75 0 0 0-3.75-3.75c-2.071 0-3 1.679-3 3.75v2.25a1.613 1.613 0 0 1-1.5 1.5H9.75s-.75 3.75 3 3.75" fill="none" stroke="#212121" stroke-linecap="round" stroke-linejoin="round" stroke-width="1.5px"></path><path class="cls-1" d="M.75 12.012a4.386 4.386 0 0 1 5.939-.786" fill="none" stroke="#212121" stroke-linecap="round" stroke-linejoin="round" stroke-width="1.5px"></path><path class="cls-1" d="M.75 15.762s2.268-3.779 6.044-1.473" fill="none" stroke="#212121" stroke-linecap="round" stroke-linejoin="round" stroke-width="1.5px"></path><path class="cls-1" d="M16.875 6.762a.375.375 0 0 0-.375.375" fill="none" stroke="#212121" stroke-linecap="round" stroke-linejoin="round" stroke-width="1.5px"></path><path class="cls-1" d="M17.25 7.137a.375.375 0 0 0-.375-.375" fill="none" stroke="#212121" stroke-linecap="round" stroke-linejoin="round" stroke-width="1.5px"></path><path class="cls-1" d="M16.875 7.512a.374.374 0 0 0 .375-.375" fill="none" stroke="#212121" stroke-linecap="round" stroke-linejoin="round" stroke-width="1.5px"></path><path class="cls-1" d="M16.5 7.137a.374.374 0 0 0 .375.375" fill="none" stroke="#212121" stroke-linecap="round" stroke-linejoin="round" stroke-width="1.5px"></path><path class="cls-1" d="M20.175 6.764c1.525-.041 3.075 1.179 3.075 2.4-.75.6-3 .6-3 .6" fill="none" stroke="#212121" stroke-linecap="round" stroke-linejoin="round" stroke-width="1.5px"></path><path class="cls-1" d="M14.526 4.512h-.276s-.75 0-.75-1.363c0-1.318 1.511-2.387 3.375-2.387s3.375 1.069 3.375 2.387a2.323 2.323 0 0 1-.75 1.363l-.365.332" fill="none" stroke="#212121" stroke-linecap="round" stroke-linejoin="round" stroke-width="1.5px"></path><path class="cls-1" d="M13.5 20.262v3" fill="none" stroke="#212121" stroke-linecap="round" stroke-linejoin="round" stroke-width="1.5px"></path></g></svg>