<svg xmlns="http://www.w3.org/2000/svg" width="24" height="24" viewBox="0 0 24 24"><title>chick 1</title><g fill="#212121" class="nc-icon-wrapper"><defs></defs><path class="cls-1" d="M13.661.791A6.173 6.173 0 0 0 8.25 7.02v.492a6 6 0 0 1-6 6H.75a9.75 9.75 0 0 0 10.05 9.746A10.021 10.021 0 0 0 20.25 13.1V6.762A6 6 0 0 0 13.661.791z" fill="none" stroke="#212121" stroke-linecap="round" stroke-linejoin="round" stroke-width="1.5px"></path><path class="cls-1" d="M15 15.762a3.75 3.75 0 0 1-7.5 0h3" fill="none" stroke="#212121" stroke-linecap="round" stroke-linejoin="round" stroke-width="1.5px"></path><path class="cls-1" d="M20.25 6.762a2.938 2.938 0 0 1 3 3h-3" fill="none" stroke="#212121" stroke-linecap="round" stroke-linejoin="round" stroke-width="1.5px"></path><path class="cls-1" d="M14.625 6.012a.375.375 0 0 1 .375.375" fill="none" stroke="#212121" stroke-linecap="round" stroke-linejoin="round" stroke-width="1.5px"></path><path class="cls-1" d="M14.25 6.387a.375.375 0 0 1 .375-.375" fill="none" stroke="#212121" stroke-linecap="round" stroke-linejoin="round" stroke-width="1.5px"></path><path class="cls-1" d="M14.625 6.762a.374.374 0 0 1-.375-.375" fill="none" stroke="#212121" stroke-linecap="round" stroke-linejoin="round" stroke-width="1.5px"></path><path class="cls-1" d="M15 6.387a.374.374 0 0 1-.375.375" fill="none" stroke="#212121" stroke-linecap="round" stroke-linejoin="round" stroke-width="1.5px"></path></g></svg>