<svg xmlns="http://www.w3.org/2000/svg" width="24" height="24" viewBox="0 0 24 24"><title>chicken hatch</title><g fill="#212121" class="nc-icon-wrapper"><defs></defs><path class="cls-1" d="M21 14.262a9 9 0 0 1-18 0V13.12a.751.751 0 0 1 1.029-.7l2.262.905a.751.751 0 0 0 .809-.166l1.44-1.441a.751.751 0 0 1 .98-.069l2.03 1.522a.75.75 0 0 0 .9 0l2.03-1.522a.751.751 0 0 1 .98.069l1.376 1.382a.749.749 0 0 0 .916.113l2.112-1.267a.751.751 0 0 1 1.136.641z" fill="none" stroke="#212121" stroke-linecap="round" stroke-linejoin="round" stroke-width="1.5px"></path><path class="cls-1" d="M6 9.762v-3a6 6 0 0 1 12 0v3" fill="none" stroke="#212121" stroke-linecap="round" stroke-linejoin="round" stroke-width="1.5px"></path><path class="cls-1" d="M20.204 4.512l-2.25 1.5 2.25 1.5" fill="none" stroke="#212121" stroke-linecap="round" stroke-linejoin="round" stroke-width="1.5px"></path><path class="cls-1" d="M12.375 5.262a.375.375 0 0 1 .375.375" fill="none" stroke="#212121" stroke-linecap="round" stroke-linejoin="round" stroke-width="1.5px"></path><path class="cls-1" d="M12 5.637a.375.375 0 0 1 .375-.375" fill="none" stroke="#212121" stroke-linecap="round" stroke-linejoin="round" stroke-width="1.5px"></path><path class="cls-1" d="M12.375 6.012A.374.374 0 0 1 12 5.637" fill="none" stroke="#212121" stroke-linecap="round" stroke-linejoin="round" stroke-width="1.5px"></path><path class="cls-1" d="M12.75 5.637a.374.374 0 0 1-.375.375" fill="none" stroke="#212121" stroke-linecap="round" stroke-linejoin="round" stroke-width="1.5px"></path></g></svg>