<svg xmlns="http://www.w3.org/2000/svg" width="24" height="24" viewBox="0 0 24 24"><title>chocolate bar</title><g fill="#212121" class="nc-icon-wrapper"><defs></defs><path class="cls-1" d="M17.892 23.25H6.054a1.581 1.581 0 0 1-1.581-1.581V14.25a1.5 1.5 0 0 1 1.5-1.5h12a1.5 1.5 0 0 1 1.5 1.5v7.419a1.581 1.581 0 0 1-1.581 1.581z" fill="none" stroke="#212121" stroke-linecap="round" stroke-linejoin="round" stroke-width="1.5px"></path><path class="cls-1" d="M5.021 13.091l9.007 5.609a1.5 1.5 0 0 0 2.07-.485l3.036-4.915" fill="none" stroke="#212121" stroke-linecap="round" stroke-linejoin="round" stroke-width="1.5px"></path><path class="cls-1" d="M16.37.75H7.577a1.6 1.6 0 0 0-1.6 1.6v10.4h12V2.354A1.6 1.6 0 0 0 16.37.75z" fill="none" stroke="#212121" stroke-linecap="round" stroke-linejoin="round" stroke-width="1.5px"></path><path class="cls-1" d="M11.973.75v12" fill="none" stroke="#212121" stroke-linecap="round" stroke-linejoin="round" stroke-width="1.5px"></path><path class="cls-1" d="M5.973 6.75h12" fill="none" stroke="#212121" stroke-linecap="round" stroke-linejoin="round" stroke-width="1.5px"></path></g></svg>