<svg xmlns="http://www.w3.org/2000/svg" width="24" height="24" viewBox="0 0 24 24"><title>christmas mistletoe</title><g fill="#212121" class="nc-icon-wrapper"><defs></defs><path class="cls-1" d="M6 15.508l-2.434-.615A.75.75 0 0 1 3 14.166V12.1a.752.752 0 0 0-.266-.574l-1.718-1.449A.752.752 0 0 1 .75 9.5v-3a.75.75 0 0 1 .75-.75h3.349a.75.75 0 0 1 .624.334l1.116 1.675a.75.75 0 0 0 .442.311l2.263.566a.751.751 0 0 1 .552.574l.715 3.144" fill="none" stroke="#212121" stroke-linecap="round" stroke-linejoin="round" stroke-width="1.5px"></path><path class="cls-1" d="M7.491 12.908l-1.829-2.233" fill="none" stroke="#212121" stroke-linecap="round" stroke-linejoin="round" stroke-width="1.5px"></path><path class="cls-1" d="M15.009 14.342l4.7-1.274a.75.75 0 0 0 .539-.716l.014-2.933a.75.75 0 0 1 .35-.632L22.9 7.353a.75.75 0 0 0 .351-.635V3.5a.75.75 0 0 0-.75-.75h-4.064a.749.749 0 0 0-.632.346l-1.34 2.093a.751.751 0 0 1-.556.341l-2.972.3a.751.751 0 0 0-.661.6l-.585 2.928" fill="none" stroke="#212121" stroke-linecap="round" stroke-linejoin="round" stroke-width="1.5px"></path><path class="cls-1" d="M16.092 10.241l1.919-2.78" fill="none" stroke="#212121" stroke-linecap="round" stroke-linejoin="round" stroke-width="1.5px"></path><path class="cls-1" d="M11.265 17.468a3 3 0 1 1 .722-1.687" fill="none" stroke="#212121" stroke-linecap="round" stroke-linejoin="round" stroke-width="1.5px"></path><path class="cls-1" d="M10.835 13.126a3 3 0 1 1 .83 1" fill="none" stroke="#212121" stroke-linecap="round" stroke-linejoin="round" stroke-width="1.5px"></path><circle class="cls-1" cx="14.25" cy="17.75" r="3" fill="none" stroke="#212121" stroke-linecap="round" stroke-linejoin="round" stroke-width="1.5px"></circle></g></svg>