<svg xmlns="http://www.w3.org/2000/svg" width="24" height="24" viewBox="0 0 24 24"><title>christmas door wreath</title><g fill="#212121" class="nc-icon-wrapper"><defs></defs><path class="cls-1" d="M19.245 5.928a10.125 10.125 0 1 1-14.854.664" fill="none" stroke="#212121" stroke-linecap="round" stroke-linejoin="round" stroke-width="1.5px"></path><path class="cls-1" d="M16.779 16.349a5.641 5.641 0 0 1-9.308 0" fill="none" stroke="#212121" stroke-linecap="round" stroke-linejoin="round" stroke-width="1.5px"></path><path class="cls-1" d="M9.324 18.059a10.775 10.775 0 0 0-3.254 3.183" fill="none" stroke="#212121" stroke-linecap="round" stroke-linejoin="round" stroke-width="1.5px"></path><path class="cls-1" d="M4.266 12.389a10.073 10.073 0 0 0-2.247.117" fill="none" stroke="#212121" stroke-linecap="round" stroke-linejoin="round" stroke-width="1.5px"></path><path class="cls-1" d="M10.892 3.171L8.9 1.446A2.925 2.925 0 0 0 6.962.75a2.579 2.579 0 0 0-2.71 2.426v2.68A2.587 2.587 0 0 0 7 8.253a2.923 2.923 0 0 0 1.927-.716l1.032-.921" fill="none" stroke="#212121" stroke-linecap="round" stroke-linejoin="round" stroke-width="1.5px"></path><circle class="cls-1" cx="11.75" cy="5.252" r="2.25" fill="none" stroke="#212121" stroke-linecap="round" stroke-linejoin="round" stroke-width="1.5px"></circle><path class="cls-1" d="M9.628 4.502H8" fill="none" stroke="#212121" stroke-linecap="round" stroke-linejoin="round" stroke-width="1.5px"></path><path class="cls-1" d="M13.872 4.502H15.5" fill="none" stroke="#212121" stroke-linecap="round" stroke-linejoin="round" stroke-width="1.5px"></path><path class="cls-1" d="M15.1 7.907l1.508 5.131a.285.285 0 0 1-.385.343l-1.321-.557a.287.287 0 0 0-.349.1l-.687 1.031a.286.286 0 0 1-.508-.068l-1.252-3.767a.286.286 0 0 0-.542 0l-1.257 3.771a.286.286 0 0 1-.508.068l-.687-1.031a.286.286 0 0 0-.348-.1l-1.321.557a.285.285 0 0 1-.385-.343L8.61 7.781" fill="none" stroke="#212121" stroke-linecap="round" stroke-linejoin="round" stroke-width="1.5px"></path><path class="cls-1" d="M12.618 3.176l1.982-1.73a2.925 2.925 0 0 1 1.935-.7 2.579 2.579 0 0 1 2.71 2.426l-.005 2.68a2.587 2.587 0 0 1-2.745 2.4 2.923 2.923 0 0 1-1.927-.716l-1.032-.921" fill="none" stroke="#212121" stroke-linecap="round" stroke-linejoin="round" stroke-width="1.5px"></path><path class="cls-1" d="M14.927 18.059a10.775 10.775 0 0 1 3.254 3.183" fill="none" stroke="#212121" stroke-linecap="round" stroke-linejoin="round" stroke-width="1.5px"></path><path class="cls-1" d="M19.985 12.389a10.2 10.2 0 0 1 2.249.161" fill="none" stroke="#212121" stroke-linecap="round" stroke-linejoin="round" stroke-width="1.5px"></path></g></svg>