<svg xmlns="http://www.w3.org/2000/svg" width="24" height="24" viewBox="0 0 24 24"><title>christmas sled</title><g fill="#212121" class="nc-icon-wrapper"><defs></defs><path class="cls-1" d="M6.75 16l-3 4.5" fill="none" stroke="#212121" stroke-linecap="round" stroke-linejoin="round" stroke-width="1.5px"></path><path class="cls-1" d="M15 16l2.25 4.5" fill="none" stroke="#212121" stroke-linecap="round" stroke-linejoin="round" stroke-width="1.5px"></path><path class="cls-1" d="M.75 6.25l5.228.932a3 3 0 0 1 2.272 2.91V11.5a1.5 1.5 0 0 0 1.5 1.5h1.5a1.486 1.486 0 0 0 1.5-1.481A1.5 1.5 0 0 1 14.25 10h5.25a.75.75 0 0 1 .75.75v3.75a1.5 1.5 0 0 1-1.5 1.5H5.25a4.5 4.5 0 0 1-4.5-4.5V3.25" fill="none" stroke="#212121" stroke-linecap="round" stroke-linejoin="round" stroke-width="1.5px"></path><path class="cls-1" d="M.75 20.5H21a2.245 2.245 0 0 0 2.123-3" fill="none" stroke="#212121" stroke-linecap="round" stroke-linejoin="round" stroke-width="1.5px"></path></g></svg>