<svg xmlns="http://www.w3.org/2000/svg" width="24" height="24" viewBox="0 0 24 24"><title>christmas tree ornament</title><g fill="#212121" class="nc-icon-wrapper"><defs></defs><circle class="cls-1" cx="12" cy="14.25" r="9" fill="none" stroke="#212121" stroke-linecap="round" stroke-linejoin="round" stroke-width="1.5px"></circle><path class="cls-1" d="M4.368 19.022l2.492-2.493a1.5 1.5 0 0 1 2.113-.008l1.991 1.959a1.5 1.5 0 0 0 2.088.017l2.077-1.982a1.5 1.5 0 0 1 2.1.025l2.436 2.435" fill="none" stroke="#212121" stroke-linecap="round" stroke-linejoin="round" stroke-width="1.5px"></path><path class="cls-1" d="M19.678 9.552l-2.49 2.489a1.5 1.5 0 0 1-2.113.009l-2.006-1.976a1.5 1.5 0 0 0-2.121.017L8.973 12.1a1.5 1.5 0 0 1-2.129.008L4.31 9.571" fill="none" stroke="#212121" stroke-linecap="round" stroke-linejoin="round" stroke-width="1.5px"></path><path class="cls-1" d="M12 2.25V.75" fill="none" stroke="#212121" stroke-linecap="round" stroke-linejoin="round" stroke-width="1.5px"></path><path class="cls-1" d="M9 5.762V3.75a1.5 1.5 0 0 1 1.5-1.5h3a1.5 1.5 0 0 1 1.5 1.5v2.012" fill="none" stroke="#212121" stroke-linecap="round" stroke-linejoin="round" stroke-width="1.5px"></path></g></svg>