<svg xmlns="http://www.w3.org/2000/svg" width="24" height="24" viewBox="0 0 24 24"><title>christmas santa</title><g fill="#212121" class="nc-icon-wrapper"><defs></defs><path class="cls-1" d="M9 21.482c1.242 1.893 4.948 2.582 6.707.472a.188.188 0 0 0 0-.233.191.191 0 0 0-.228-.059 1.939 1.939 0 0 1-.779.162 2.288 2.288 0 0 1-2.308-1.924A1.959 1.959 0 0 0 9 18.6a1.959 1.959 0 0 0-3.392 1.3A2.288 2.288 0 0 1 3.3 21.824a1.939 1.939 0 0 1-.779-.162.191.191 0 0 0-.228.059.188.188 0 0 0 .005.233c1.754 2.11 5.46 1.421 6.702-.472z" fill="none" stroke="#212121" stroke-linecap="round" stroke-linejoin="round" stroke-width="1.5px"></path><path class="cls-1" d="M15.746 9l-.655-1.434a1.422 1.422 0 0 1 1.533-1.988l4.254.7c-1.372-1.171-5.7-7.015-12.232-5.153C4.951 2.181 3.252 5.149 2.475 9" fill="none" stroke="#212121" stroke-linecap="round" stroke-linejoin="round" stroke-width="1.5px"></path><circle class="cls-1" cx="21.75" cy="7.5" r="1.5" fill="none" stroke="#212121" stroke-linecap="round" stroke-linejoin="round" stroke-width="1.5px"></circle><rect class="cls-1" x=".75" y="9" width="16.5" height="3" rx="1.5" ry="1.5" fill="none" stroke="#212121" stroke-linecap="round" stroke-linejoin="round" stroke-width="1.5px"></rect><path class="cls-1" d="M6.375 14.25a.375.375 0 0 1 .375.375" fill="none" stroke="#212121" stroke-linecap="round" stroke-linejoin="round" stroke-width="1.5px"></path><path class="cls-1" d="M6 14.625a.375.375 0 0 1 .375-.375" fill="none" stroke="#212121" stroke-linecap="round" stroke-linejoin="round" stroke-width="1.5px"></path><path class="cls-1" d="M6.375 15A.375.375 0 0 1 6 14.625" fill="none" stroke="#212121" stroke-linecap="round" stroke-linejoin="round" stroke-width="1.5px"></path><path class="cls-1" d="M6.75 14.625a.375.375 0 0 1-.375.375" fill="none" stroke="#212121" stroke-linecap="round" stroke-linejoin="round" stroke-width="1.5px"></path><path class="cls-1" d="M11.625 14.25a.375.375 0 0 1 .375.375" fill="none" stroke="#212121" stroke-linecap="round" stroke-linejoin="round" stroke-width="1.5px"></path><path class="cls-1" d="M11.25 14.625a.375.375 0 0 1 .375-.375" fill="none" stroke="#212121" stroke-linecap="round" stroke-linejoin="round" stroke-width="1.5px"></path><path class="cls-1" d="M11.625 15a.375.375 0 0 1-.375-.375" fill="none" stroke="#212121" stroke-linecap="round" stroke-linejoin="round" stroke-width="1.5px"></path><path class="cls-1" d="M12 14.625a.375.375 0 0 1-.375.375" fill="none" stroke="#212121" stroke-linecap="round" stroke-linejoin="round" stroke-width="1.5px"></path></g></svg>