<svg xmlns="http://www.w3.org/2000/svg" width="24" height="24" viewBox="0 0 24 24"><title>circus tent 1</title><g fill="#212121" class="nc-icon-wrapper"><defs></defs><path class="cls-1" d="M12.706.779a.749.749 0 0 0-.956.721v3l4.589-1.419a.75.75 0 0 0-.089-1.411z" fill="none" stroke="#212121" stroke-linecap="round" stroke-linejoin="round" stroke-width="1.5px"></path><path class="cls-1" d="M19.25 10.125a2.564 2.564 0 0 1-2.5 2.625 2.5 2.5 0 0 1-2.289-1.576 3.12 3.12 0 0 1-5.422 0A2.5 2.5 0 0 1 6.75 12.75a2.564 2.564 0 0 1-2.5-2.625.73.73 0 0 1 .293-.59L11.75 4.5l7.2 5.049a.692.692 0 0 1 .3.576z" fill="none" stroke="#212121" stroke-linecap="round" stroke-linejoin="round" stroke-width="1.5px"></path><path class="cls-1" d="M10.75 17.25h2a2 2 0 0 1 2 2v4h-6v-4a2 2 0 0 1 2-2z" fill="none" stroke="#212121" stroke-linecap="round" stroke-linejoin="round" stroke-width="1.5px"></path><path class="cls-1" d="M4.323 10.758A32.733 32.733 0 0 1 2.8 21.351a1.5 1.5 0 0 0 1.447 1.9h15a1.5 1.5 0 0 0 1.447-1.9 32.733 32.733 0 0 1-1.519-10.593" fill="none" stroke="#212121" stroke-linecap="round" stroke-linejoin="round" stroke-width="1.5px"></path><path class="cls-1" d="M11.75 4.5l-2.711 6.674" fill="none" stroke="#212121" stroke-linecap="round" stroke-linejoin="round" stroke-width="1.5px"></path><path class="cls-1" d="M11.75 4.5l2.711 6.674" fill="none" stroke="#212121" stroke-linecap="round" stroke-linejoin="round" stroke-width="1.5px"></path></g></svg>