<svg xmlns="http://www.w3.org/2000/svg" width="24" height="24" viewBox="0 0 24 24"><title>circus elephant</title><g fill="#212121" class="nc-icon-wrapper"><defs></defs><path class="cls-1" d="M8.453 9.871l-4.378.973A1.5 1.5 0 0 1 2.249 9.38V6c-.037-.086-.758-1.729-1.376-3.154A1.5 1.5 0 0 1 2.25.75H6a3.628 3.628 0 0 1 2.545 1.325 5.164 5.164 0 0 1 6.908 0A3.63 3.63 0 0 1 18 .75h3.75a1.5 1.5 0 0 1 1.377 2.1c-.618 1.421-1.341 3.064-1.378 3.15v3.38a1.5 1.5 0 0 1-1.825 1.464l-4.379-.973" fill="none" stroke="#212121" stroke-linecap="round" stroke-linejoin="round" stroke-width="1.5px"></path><path class="cls-1" d="M10.5 11.034a5.266 5.266 0 0 1-3.25-2.787" fill="none" stroke="#212121" stroke-linecap="round" stroke-linejoin="round" stroke-width="1.5px"></path><path class="cls-1" d="M16.744 8.251a5.26 5.26 0 0 1-3.244 2.781" fill="none" stroke="#212121" stroke-linecap="round" stroke-linejoin="round" stroke-width="1.5px"></path><path class="cls-1" d="M10.499 9.75v6l1.5-.75 1.5.75v-6" fill="none" stroke="#212121" stroke-linecap="round" stroke-linejoin="round" stroke-width="1.5px"></path><path class="cls-1" d="M17.865 10.388a8.528 8.528 0 0 1 .884 3.862 9.921 9.921 0 0 1-3.1 6.847" fill="none" stroke="#212121" stroke-linecap="round" stroke-linejoin="round" stroke-width="1.5px"></path><path class="cls-1" d="M6.133 10.388a8.541 8.541 0 0 0-.884 3.862 9.922 9.922 0 0 0 3.1 6.847" fill="none" stroke="#212121" stroke-linecap="round" stroke-linejoin="round" stroke-width="1.5px"></path><path class="cls-1" d="M5.635 23.25a8.251 8.251 0 0 1 12.726 0" fill="none" stroke="#212121" stroke-linecap="round" stroke-linejoin="round" stroke-width="1.5px"></path><path class="cls-1" d="M11.999 18v2.25" fill="none" stroke="#212121" stroke-linecap="round" stroke-linejoin="round" stroke-width="1.5px"></path><path class="cls-1" d="M9.374 5.25a.375.375 0 0 1 .375.375" fill="none" stroke="#212121" stroke-linecap="round" stroke-linejoin="round" stroke-width="1.5px"></path><path class="cls-1" d="M9 5.625a.375.375 0 0 1 .375-.375" fill="none" stroke="#212121" stroke-linecap="round" stroke-linejoin="round" stroke-width="1.5px"></path><path class="cls-1" d="M9.374 6A.375.375 0 0 1 9 5.625" fill="none" stroke="#212121" stroke-linecap="round" stroke-linejoin="round" stroke-width="1.5px"></path><path class="cls-1" d="M9.749 5.625A.375.375 0 0 1 9.374 6" fill="none" stroke="#212121" stroke-linecap="round" stroke-linejoin="round" stroke-width="1.5px"></path><path class="cls-1" d="M14.624 5.25a.375.375 0 0 1 .376.375" fill="none" stroke="#212121" stroke-linecap="round" stroke-linejoin="round" stroke-width="1.5px"></path><path class="cls-1" d="M14.249 5.625a.375.375 0 0 1 .375-.375" fill="none" stroke="#212121" stroke-linecap="round" stroke-linejoin="round" stroke-width="1.5px"></path><path class="cls-1" d="M14.624 6a.375.375 0 0 1-.375-.375" fill="none" stroke="#212121" stroke-linecap="round" stroke-linejoin="round" stroke-width="1.5px"></path><path class="cls-1" d="M15 5.625a.375.375 0 0 1-.376.375" fill="none" stroke="#212121" stroke-linecap="round" stroke-linejoin="round" stroke-width="1.5px"></path></g></svg>