<svg xmlns="http://www.w3.org/2000/svg" width="24" height="24" viewBox="0 0 24 24"><title>circus lion ring</title><g fill="#212121" class="nc-icon-wrapper"><defs></defs><path class="cls-1" d="M18 4.8c1.5 0 3 2.25 3 2.25h1.5a.748.748 0 0 1 .749.818c-.122 1.3-.567 4.13-2.2 4.13H18.75S15 11.25 15 8.25a3.521 3.521 0 0 1 3-3.45z" fill="none" stroke="#212121" stroke-linecap="round" stroke-linejoin="round" stroke-width="1.5px"></path><path class="cls-1" d="M18 4.8a8.982 8.982 0 0 0-3-3 9.026 9.026 0 0 0-1.847-.941 1.631 1.631 0 0 0-2.172 1.847l.269 1.346-1.617 1.212a1.5 1.5 0 0 0-.16 2.261L11.25 9.3l-.632.688a1.5 1.5 0 0 0 .235 2.235l.441.315" fill="none" stroke="#212121" stroke-linecap="round" stroke-linejoin="round" stroke-width="1.5px"></path><path class="cls-1" d="M4.5 20.25v3" fill="none" stroke="#212121" stroke-linecap="round" stroke-linejoin="round" stroke-width="1.5px"></path><path class="cls-1" d="M1.018 6.87a20.438 20.438 0 0 1 8.045-.109" fill="none" stroke="#212121" stroke-linecap="round" stroke-linejoin="round" stroke-width="1.5px"></path><path class="cls-1" d="M18.375 8.25a.375.375 0 0 1 .375.375" fill="none" stroke="#212121" stroke-linecap="round" stroke-linejoin="round" stroke-width="1.5px"></path><path class="cls-1" d="M18 8.625a.375.375 0 0 1 .375-.375" fill="none" stroke="#212121" stroke-linecap="round" stroke-linejoin="round" stroke-width="1.5px"></path><path class="cls-1" d="M18.375 9A.375.375 0 0 1 18 8.625" fill="none" stroke="#212121" stroke-linecap="round" stroke-linejoin="round" stroke-width="1.5px"></path><path class="cls-1" d="M18.75 8.625a.375.375 0 0 1-.375.375" fill="none" stroke="#212121" stroke-linecap="round" stroke-linejoin="round" stroke-width="1.5px"></path><path class="cls-1" d="M18.263 11.868a5.572 5.572 0 0 0-2.548 2.454" fill="none" stroke="#212121" stroke-linecap="round" stroke-linejoin="round" stroke-width="1.5px"></path><path class="cls-1" d="M6.9 3C6.246 1.6 5.411.75 4.5.75 2.429.75.75 5.115.75 10.5s1.679 9.75 3.75 9.75a2.561 2.561 0 0 0 2-1.5" fill="none" stroke="#212121" stroke-linecap="round" stroke-linejoin="round" stroke-width="1.5px"></path><path class="cls-1" d="M11.293 12.539a25.477 25.477 0 0 1 9.373 5.118 1.875 1.875 0 1 1-2.332 2.936C12.707 16.124 9.4 15.75 6.75 15.75H1.339" fill="none" stroke="#212121" stroke-linecap="round" stroke-linejoin="round" stroke-width="1.5px"></path><path class="cls-1" d="M18.75 12a29.313 29.313 0 0 1 3.75 3 1.875 1.875 0 0 1-1.284 3.368" fill="none" stroke="#212121" stroke-linecap="round" stroke-linejoin="round" stroke-width="1.5px"></path></g></svg>