<svg xmlns="http://www.w3.org/2000/svg" width="24" height="24" viewBox="0 0 24 24"><title>clamp expand 1</title><g fill="#212121" class="nc-icon-wrapper"><defs></defs><path class="a" d="M.75 23.25h22.5" fill="none" stroke="#212121" stroke-linecap="round" stroke-linejoin="round" stroke-width="1.5px"></path><path class="a" d="M23.25 5.25H.75v-3a1.5 1.5 0 0 1 1.5-1.5h19.5a1.5 1.5 0 0 1 1.5 1.5z" fill="none" stroke="#212121" stroke-linecap="round" stroke-linejoin="round" stroke-width="1.5px"></path><path class="a" d="M12 20.553l4.046 2.7h4.2A1.5 1.5 0 0 0 19.582 22L14.7 18.75" fill="none" stroke="#212121" stroke-linecap="round" stroke-linejoin="round" stroke-width="1.5px"></path><path class="a" d="M12 16.947l-4.046-2.7L19.582 6.5a1.5 1.5 0 0 0 .668-1.25h-4.2L4.418 13a1.5 1.5 0 0 0 0 2.5L9.3 18.75" fill="none" stroke="#212121" stroke-linecap="round" stroke-linejoin="round" stroke-width="1.5px"></path><path class="a" d="M12 7.947L7.954 5.25H3.75a1.5 1.5 0 0 0 .668 1.25L9.3 9.75" fill="none" stroke="#212121" stroke-linecap="round" stroke-linejoin="round" stroke-width="1.5px"></path><path class="a" d="M12 11.553l4.046 2.7L4.418 22a1.5 1.5 0 0 0-.668 1.25h4.2l11.632-7.75a1.5 1.5 0 0 0 0-2.5L14.7 9.75" fill="none" stroke="#212121" stroke-linecap="round" stroke-linejoin="round" stroke-width="1.5px"></path></g></svg>