<svg xmlns="http://www.w3.org/2000/svg" width="24" height="24" viewBox="0 0 24 24"><title>cleaning robot</title><g fill="#212121" class="nc-icon-wrapper"><defs></defs><ellipse class="a" cx="12" cy="9.75" rx="11.25" ry="6.75" fill="none" stroke="#212121" stroke-linecap="round" stroke-linejoin="round" stroke-width="1.5px"></ellipse><path class="a" d="M.75 9.75v4.5C.75 17.978 5.787 21 12 21s11.25-3.022 11.25-6.75v-4.5" fill="none" stroke="#212121" stroke-linecap="round" stroke-linejoin="round" stroke-width="1.5px"></path><path class="a" d="M15.731 16.12a3.75 3.75 0 0 0-7.462 0" fill="none" stroke="#212121" stroke-linecap="round" stroke-linejoin="round" stroke-width="1.5px"></path><path class="a" d="M12 8.625a.375.375 0 1 1-.375.375.375.375 0 0 1 .375-.375" fill="none" stroke="#212121" stroke-linecap="round" stroke-linejoin="round" stroke-width="1.5px"></path><path class="a" d="M6.75 7.547A8.2 8.2 0 0 1 12 6a8.205 8.205 0 0 1 5.251 1.547" fill="none" stroke="#212121" stroke-linecap="round" stroke-linejoin="round" stroke-width="1.5px"></path></g></svg>