<svg xmlns="http://www.w3.org/2000/svg" width="24" height="24" viewBox="0 0 24 24"><title>clean car leaf</title><g fill="#212121" class="nc-icon-wrapper"><defs></defs><path class="cls-1" d="M14.579 20.771s1.219 2.494 3.27 2.307c4.158-.38 3.88-5.907 5.4-7.859a9.105 9.105 0 0 0-8.265.075c-2.154 1.217-2.307 3.271-.405 5.477z" fill="none" stroke="#212121" stroke-linecap="round" stroke-linejoin="round" stroke-width="1.5px"></path><path class="cls-1" d="M17.52 18.236s-2.7.334-4.623 5.03" fill="none" stroke="#212121" stroke-linecap="round" stroke-linejoin="round" stroke-width="1.5px"></path><path class="cls-1" d="M20.25 11.267V9.638a1.5 1.5 0 0 0-.439-1.061L18 6.767H3l-1.811 1.81A1.5 1.5 0 0 0 .75 9.638v3.129a1.5 1.5 0 0 0 1.5 1.5h9" fill="none" stroke="#212121" stroke-linecap="round" stroke-linejoin="round" stroke-width="1.5px"></path><path class="cls-1" d="M18 6.767H3l1.158-4.975A1.5 1.5 0 0 1 5.581.767h9.838a1.5 1.5 0 0 1 1.423 1.025z" fill="none" stroke="#212121" stroke-linecap="round" stroke-linejoin="round" stroke-width="1.5px"></path><path class="cls-1" d="M3.75 9.767h1.5" fill="none" stroke="#212121" stroke-linecap="round" stroke-linejoin="round" stroke-width="1.5px"></path><path class="cls-1" d="M15.75 9.767h1.5" fill="none" stroke="#212121" stroke-linecap="round" stroke-linejoin="round" stroke-width="1.5px"></path><path class="cls-1" d="M5.25 15.767a1.5 1.5 0 0 1-3 0v-1.5h3z" fill="none" stroke="#212121" stroke-linecap="round" stroke-linejoin="round" stroke-width="1.5px"></path></g></svg>