<svg xmlns="http://www.w3.org/2000/svg" width="24" height="24" viewBox="0 0 24 24"><title>cleaning woman 1</title><g fill="#212121" class="nc-icon-wrapper"><defs></defs><path class="a" d="M21 18.75l-4.243 4.243-2.493-3.2a2.251 2.251 0 0 1 .186-2.973l.373-.373a2.251 2.251 0 0 1 2.972-.185z" fill="none" stroke="#212121" stroke-linecap="round" stroke-linejoin="round" stroke-width="1.5px"></path><path class="a" d="M14.636 16.629L7.629 9.622" fill="none" stroke="#212121" stroke-linecap="round" stroke-linejoin="round" stroke-width="1.5px"></path><circle class="a" cx="6.75" cy="3.75" r="3" fill="none" stroke="#212121" stroke-linecap="round" stroke-linejoin="round" stroke-width="1.5px"></circle><path class="a" d="M4.5 8.652A3 3 0 0 0 3 11.25v4.5a1.5 1.5 0 0 0 1.5 1.5V21A2.25 2.25 0 0 0 9 21v-3.75a1.5 1.5 0 0 0 1.5-1.5" fill="none" stroke="#212121" stroke-linecap="round" stroke-linejoin="round" stroke-width="1.5px"></path></g></svg>