<svg xmlns="http://www.w3.org/2000/svg" width="24" height="24" viewBox="0 0 24 24"><title>cleaning vacuum 2</title><g fill="#212121" class="nc-icon-wrapper"><defs></defs><circle class="a" cx="4.5" cy="19.5" r="3.75" fill="none" stroke="#212121" stroke-linecap="round" stroke-linejoin="round" stroke-width="1.5px"></circle><path class="a" d="M4.5 19.125a.375.375 0 1 1-.375.375.375.375 0 0 1 .375-.375" fill="none" stroke="#212121" stroke-linecap="round" stroke-linejoin="round" stroke-width="1.5px"></path><path class="a" d="M8.25 12.75h-3a4.5 4.5 0 0 0-4.5 4.5v2.25a3.75 3.75 0 0 0 3.75 3.75h9.75a1.5 1.5 0 0 0 1.5-1.5v-1.5a7.5 7.5 0 0 0-7.5-7.5z" fill="none" stroke="#212121" stroke-linecap="round" stroke-linejoin="round" stroke-width="1.5px"></path><path class="a" d="M18.75 20.25h1.5a3 3 0 0 1 3 3h-3a1.5 1.5 0 0 1-1.5-1.5z" fill="none" stroke="#212121" stroke-linecap="round" stroke-linejoin="round" stroke-width="1.5px"></path><path class="a" d="M18.75 20.25V4.5a3.75 3.75 0 0 0-7.5 0c0 2.25 3 3 3 5.25 0 1.269-.954 3.014-1.786 4.3" fill="none" stroke="#212121" stroke-linecap="round" stroke-linejoin="round" stroke-width="1.5px"></path><path class="a" d="M11.25 17.25h3.872" fill="none" stroke="#212121" stroke-linecap="round" stroke-linejoin="round" stroke-width="1.5px"></path></g></svg>