<svg xmlns="http://www.w3.org/2000/svg" width="24" height="24" viewBox="0 0 24 24"><title>cloud photo</title><g fill="#212121" class="nc-icon-wrapper"><defs></defs><circle class="a" cx="16.5" cy="17.25" r="3" fill="none" stroke="#212121" stroke-linecap="round" stroke-linejoin="round" stroke-width="1.5px"></circle><path class="a" d="M21.75 12.75H19.5l-.466-1.864a1.5 1.5 0 0 0-1.455-1.136h-2.158a1.5 1.5 0 0 0-1.455 1.136L13.5 12.75h-2.25a1.5 1.5 0 0 0-1.5 1.5v7.5a1.5 1.5 0 0 0 1.5 1.5h10.5a1.5 1.5 0 0 0 1.5-1.5v-7.5a1.5 1.5 0 0 0-1.5-1.5z" fill="none" stroke="#212121" stroke-linecap="round" stroke-linejoin="round" stroke-width="1.5px"></path><path class="a" d="M17.057 6.75a3.374 3.374 0 0 0-5.812-.988A5.25 5.25 0 1 0 6 11.25h1.5" fill="none" stroke="#212121" stroke-linecap="round" stroke-linejoin="round" stroke-width="1.5px"></path></g></svg>