<svg xmlns="http://www.w3.org/2000/svg" width="24" height="24" viewBox="0 0 24 24"><title>cloud storage drive</title><g fill="#212121" class="nc-icon-wrapper"><defs></defs><path class="a" d="M15 19.5a.375.375 0 1 0 .375.375A.375.375 0 0 0 15 19.5" fill="none" stroke="#212121" stroke-linecap="round" stroke-linejoin="round" stroke-width="1.5px"></path><path class="a" d="M15.374 23.251a3.375 3.375 0 0 0 0-6.75h-8.25a3.375 3.375 0 0 0 0 6.75z" fill="none" stroke="#212121" stroke-linecap="round" stroke-linejoin="round" stroke-width="1.5px"></path><path class="a" d="M18.489 18.577l-1.971-4.73A3 3 0 0 0 13.749 12h-5a3 3 0 0 0-2.769 1.847l-1.971 4.73" fill="none" stroke="#212121" stroke-linecap="round" stroke-linejoin="round" stroke-width="1.5px"></path><path class="a" d="M20.883 15.056a4.873 4.873 0 1 0-5.273-8.191 7.5 7.5 0 1 0-12.927 6.412" fill="none" stroke="#212121" stroke-linecap="round" stroke-linejoin="round" stroke-width="1.5px"></path></g></svg>