<svg xmlns="http://www.w3.org/2000/svg" width="24" height="24" viewBox="0 0 24 24"><title>cloud image</title><g fill="#212121" class="nc-icon-wrapper"><defs></defs><rect class="a" x="11.25" y="11.25" width="12" height="12" rx="1.5" ry="1.5" fill="none" stroke="#212121" stroke-linecap="round" stroke-linejoin="round" stroke-width="1.5px"></rect><path class="a" d="M15.375 14.25a.375.375 0 1 0 .375.375.375.375 0 0 0-.375-.375" fill="none" stroke="#212121" stroke-linecap="round" stroke-linejoin="round" stroke-width="1.5px"></path><path class="a" d="M23.25 21l-2.391-3.586a.749.749 0 0 0-1.238-.014l-2 2.85-1.236-.989a.751.751 0 0 0-1.093.17L12.75 23.25" fill="none" stroke="#212121" stroke-linecap="round" stroke-linejoin="round" stroke-width="1.5px"></path><path class="a" d="M22.483 8.25a4.865 4.865 0 0 0-6.872-1.385A7.5 7.5 0 1 0 8.25 15.75" fill="none" stroke="#212121" stroke-linecap="round" stroke-linejoin="round" stroke-width="1.5px"></path></g></svg>