<svg xmlns="http://www.w3.org/2000/svg" width="24" height="24" viewBox="0 0 24 24"><title>coffee read</title><g fill="#212121" class="nc-icon-wrapper"><defs></defs><path class="cls-1" d="M21.75 12.75V2.2A1.45 1.45 0 0 0 20.1.766a15.364 15.364 0 0 0-7.57 3.446 2.791 2.791 0 0 1-2.556 0A15.363 15.363 0 0 0 2.4.766 1.45 1.45 0 0 0 .75 2.2v13.561A1.439 1.439 0 0 0 2 17.19a15.28 15.28 0 0 1 7.97 3.5" fill="none" stroke="#212121" stroke-linecap="round" stroke-linejoin="round" stroke-width="1.5px"></path><path class="cls-1" d="M11.25 4.519v8.231" fill="none" stroke="#212121" stroke-linecap="round" stroke-linejoin="round" stroke-width="1.5px"></path><path class="cls-1" d="M20.25 17.25H21a2.25 2.25 0 0 1 0 4.5h-1.5" fill="none" stroke="#212121" stroke-linecap="round" stroke-linejoin="round" stroke-width="1.5px"></path><path class="cls-1" d="M12.75 19.5a3.75 3.75 0 0 0 7.5 0v-3.75h-7.5z" fill="none" stroke="#212121" stroke-linecap="round" stroke-linejoin="round" stroke-width="1.5px"></path></g></svg>