<svg xmlns="http://www.w3.org/2000/svg" width="24" height="24" viewBox="0 0 24 24"><title>coffee cup hot</title><g fill="#212121" class="nc-icon-wrapper"><defs></defs><path class="cls-1" d="M8.25.75c-1.5 1.5 1.5 2.25 0 3.75" fill="none" stroke="#212121" stroke-linecap="round" stroke-linejoin="round" stroke-width="1.5px"></path><path class="cls-1" d="M12 .75C10.5 2.25 13.5 3 12 4.5" fill="none" stroke="#212121" stroke-linecap="round" stroke-linejoin="round" stroke-width="1.5px"></path><path class="cls-1" d="M15.75.75c-1.5 1.5 1.5 2.25 0 3.75" fill="none" stroke="#212121" stroke-linecap="round" stroke-linejoin="round" stroke-width="1.5px"></path><path class="cls-1" d="M18.338 16.51c2.529.685 4.162 1.769 4.162 2.99 0 2.071-4.7 3.75-10.5 3.75S1.5 21.571 1.5 19.5c0-1.221 1.633-2.3 4.161-2.99" fill="none" stroke="#212121" stroke-linecap="round" stroke-linejoin="round" stroke-width="1.5px"></path><path class="cls-1" d="M5.25 10.5C4.5 15.75 6.437 18 6.437 18c.313.75 2.491 2.25 5.563 2.25s5.25-1.5 5.563-2.25c0 0 1.937-2.25 1.187-7.5" fill="none" stroke="#212121" stroke-linecap="round" stroke-linejoin="round" stroke-width="1.5px"></path><ellipse class="cls-1" cx="12" cy="10.5" rx="6.75" ry="3" fill="none" stroke="#212121" stroke-linecap="round" stroke-linejoin="round" stroke-width="1.5px"></ellipse><path class="cls-1" d="M6.99 12.51L7.5 12a6.57 6.57 0 0 1 4.5-1.5 6.57 6.57 0 0 1 4.5 1.5l.51.51" fill="none" stroke="#212121" stroke-linecap="round" stroke-linejoin="round" stroke-width="1.5px"></path></g></svg>