<svg xmlns="http://www.w3.org/2000/svg" width="24" height="24" viewBox="0 0 24 24"><title>cog hand give 1</title><g fill="#212121" class="nc-icon-wrapper"><defs></defs><path class="a" d="M.75 14.25v9" fill="none" stroke="#212121" stroke-linecap="round" stroke-linejoin="round" stroke-width="1.5px"></path><path class="a" d="M.75 21.75h16.5a3 3 0 0 0-3-3H10.5a3 3 0 0 0-3-3H.75" fill="none" stroke="#212121" stroke-linecap="round" stroke-linejoin="round" stroke-width="1.5px"></path><path class="a" d="M6.75 18.75h3.75" fill="none" stroke="#212121" stroke-linecap="round" stroke-linejoin="round" stroke-width="1.5px"></path><path class="a" d="M16.474 1.651a1.046 1.046 0 0 0 1.551 0l.5-.556a1.045 1.045 0 0 1 1.819.754l-.038.747a1.044 1.044 0 0 0 1.1 1.1l.747-.039a1.046 1.046 0 0 1 .753 1.82l-.555.5a1.044 1.044 0 0 0 0 1.551l.555.5a1.045 1.045 0 0 1-.753 1.819l-.747-.038a1.044 1.044 0 0 0-1.1 1.1l.038.747a1.045 1.045 0 0 1-1.819.754l-.5-.556a1.046 1.046 0 0 0-1.551 0l-.5.556a1.045 1.045 0 0 1-1.819-.754l.038-.747a1.044 1.044 0 0 0-1.1-1.1l-.747.038a1.045 1.045 0 0 1-.746-1.82l.555-.5a1.044 1.044 0 0 0 0-1.551l-.555-.5a1.046 1.046 0 0 1 .753-1.82l.747.039a1.044 1.044 0 0 0 1.1-1.1l-.038-.747a1.045 1.045 0 0 1 1.811-.748z" fill="none" stroke="#212121" stroke-linecap="round" stroke-linejoin="round" stroke-width="1.5px"></path><circle class="a" cx="17.25" cy="6.75" r="1.5" fill="none" stroke="#212121" stroke-linecap="round" stroke-linejoin="round" stroke-width="1.5px"></circle></g></svg>