<svg xmlns="http://www.w3.org/2000/svg" width="24" height="24" viewBox="0 0 24 24"><title>color brush 2</title><g fill="#212121" class="nc-icon-wrapper"><defs></defs><path class="a" d="M.988 22.942S2.4 21.485 2.55 17.73a3.81 3.81 0 0 1 1.089-2.743 3.75 3.75 0 0 1 5.3 5.3 8.838 8.838 0 0 1-7.951 2.655z" fill="none" stroke="#212121" stroke-linecap="round" stroke-linejoin="round" stroke-width="1.5px"></path><path class="a" d="M10.817 10.497l2.642 2.642" fill="none" stroke="#212121" stroke-linecap="round" stroke-linejoin="round" stroke-width="1.5px"></path><path class="a" d="M22.2 1.729a2.771 2.771 0 0 0-4.067.162L7.7 14.163a3.752 3.752 0 0 1 2.087 2.118L22.039 5.8a2.771 2.771 0 0 0 .161-4.071z" fill="none" stroke="#212121" stroke-linecap="round" stroke-linejoin="round" stroke-width="1.5px"></path></g></svg>