<svg xmlns="http://www.w3.org/2000/svg" width="24" height="24" viewBox="0 0 24 24"><title>color brush paint 1</title><g fill="#212121" class="nc-icon-wrapper"><defs></defs><path class="a" d="M10.644 17.865c1.589-1.9.1-4.338 1.513-5.981a2.759 2.759 0 1 1 4.18 3.6 6.506 6.506 0 0 1-5.693 2.381z" fill="none" stroke="#212121" stroke-linecap="round" stroke-linejoin="round" stroke-width="1.5px"></path><path class="a" d="M16.62 12.277l6.232-8.253A2.038 2.038 0 1 0 19.4 1.88L14.871 11" fill="none" stroke="#212121" stroke-linecap="round" stroke-linejoin="round" stroke-width="1.5px"></path><path class="a" d="M13.5 5.224H3.75a3 3 0 0 0-3 3v12a3 3 0 0 0 3 3h12a3 3 0 0 0 3-3v-1.5" fill="none" stroke="#212121" stroke-linecap="round" stroke-linejoin="round" stroke-width="1.5px"></path></g></svg>