<svg xmlns="http://www.w3.org/2000/svg" width="24" height="24" viewBox="0 0 24 24"><title>common file text star</title><g fill="#212121" class="nc-icon-wrapper"><defs></defs><path class="a" d="M17.947 11.68L19.488 15h3a.735.735 0 0 1 .518 1.283l-2.6 2.563 1.442 3.313a.786.786 0 0 1-1.119.982l-3.489-1.958-3.487 1.961a.786.786 0 0 1-1.119-.982l1.443-3.313-2.6-2.563A.734.734 0 0 1 11.988 15h3l1.544-3.323a.8.8 0 0 1 1.415.003z" fill="none" stroke="#212121" stroke-linecap="round" stroke-linejoin="round" stroke-width="1.5px"></path><path class="a" d="M3.75 6.75h10.5" fill="none" stroke="#212121" stroke-linecap="round" stroke-linejoin="round" stroke-width="1.5px"></path><path class="a" d="M3.75 11.25h7.5" fill="none" stroke="#212121" stroke-linecap="round" stroke-linejoin="round" stroke-width="1.5px"></path><path class="a" d="M3.75 15.75H7.5" fill="none" stroke="#212121" stroke-linecap="round" stroke-linejoin="round" stroke-width="1.5px"></path><path class="a" d="M7.5 20.25H2.25a1.5 1.5 0 0 1-1.5-1.5V2.25a1.5 1.5 0 0 1 1.5-1.5h10.629a1.5 1.5 0 0 1 1.06.439l2.872 2.872a1.5 1.5 0 0 1 .439 1.06V7.5" fill="none" stroke="#212121" stroke-linecap="round" stroke-linejoin="round" stroke-width="1.5px"></path></g></svg>