<svg xmlns="http://www.w3.org/2000/svg" width="24" height="24" viewBox="0 0 24 24"><title>common file module</title><g fill="#212121" class="nc-icon-wrapper"><defs></defs><path class="a" d="M10.059 3.56a1.5 1.5 0 0 1 .441 1.062V8.5A1.5 1.5 0 0 1 9 10H4.5A1.5 1.5 0 0 1 3 8.5v-6A1.5 1.5 0 0 1 4.5 1h2.372a1.5 1.5 0 0 1 1.06.438z" fill="none" stroke="#212121" stroke-linecap="round" stroke-linejoin="round" stroke-width="1.5px"></path><path class="a" d="M20.559 3.56A1.5 1.5 0 0 1 21 4.622V8.5a1.5 1.5 0 0 1-1.5 1.5H15a1.5 1.5 0 0 1-1.5-1.5v-6A1.5 1.5 0 0 1 15 1h2.372a1.5 1.5 0 0 1 1.06.438z" fill="none" stroke="#212121" stroke-linecap="round" stroke-linejoin="round" stroke-width="1.5px"></path><path class="a" d="M10.059 16.56a1.5 1.5 0 0 1 .441 1.062V21.5A1.5 1.5 0 0 1 9 23H4.5A1.5 1.5 0 0 1 3 21.5v-6A1.5 1.5 0 0 1 4.5 14h2.372a1.5 1.5 0 0 1 1.06.438z" fill="none" stroke="#212121" stroke-linecap="round" stroke-linejoin="round" stroke-width="1.5px"></path><path class="a" d="M20.559 16.56A1.5 1.5 0 0 1 21 17.622V21.5a1.5 1.5 0 0 1-1.5 1.5H15a1.5 1.5 0 0 1-1.5-1.5v-6A1.5 1.5 0 0 1 15 14h2.372a1.5 1.5 0 0 1 1.06.438z" fill="none" stroke="#212121" stroke-linecap="round" stroke-linejoin="round" stroke-width="1.5px"></path></g></svg>