<svg xmlns="http://www.w3.org/2000/svg" width="24" height="24" viewBox="0 0 24 24"><title>common file star</title><g fill="#212121" class="nc-icon-wrapper"><defs></defs><path class="a" d="M17.956 11.68L19.5 15h2.99a.735.735 0 0 1 .517 1.283l-2.6 2.563 1.44 3.313a.785.785 0 0 1-1.117.982l-3.48-1.958-3.48 1.961a.785.785 0 0 1-1.117-.982l1.44-3.313-2.6-2.563A.734.734 0 0 1 12.008 15h3l1.541-3.323a.8.8 0 0 1 1.407.003z" fill="none" stroke="#212121" stroke-linecap="round" stroke-linejoin="round" stroke-width="1.5px"></path><path class="a" d="M8.25 20.25h-6a1.5 1.5 0 0 1-1.5-1.5V2.25a1.5 1.5 0 0 1 1.5-1.5h10.629a1.5 1.5 0 0 1 1.06.439l2.872 2.872a1.5 1.5 0 0 1 .439 1.06V8.25" fill="none" stroke="#212121" stroke-linecap="round" stroke-linejoin="round" stroke-width="1.5px"></path></g></svg>