<svg xmlns="http://www.w3.org/2000/svg" width="24" height="24" viewBox="0 0 24 24"><title>common file give hand</title><g fill="#212121" class="nc-icon-wrapper"><defs></defs><path class="a" d="M.75 14.25v9" fill="none" stroke="#212121" stroke-linecap="round" stroke-linejoin="round" stroke-width="1.5px"></path><path class="a" d="M.75 21.75h15a3 3 0 0 0-3-3H9a3 3 0 0 0-3-3H.75" fill="none" stroke="#212121" stroke-linecap="round" stroke-linejoin="round" stroke-width="1.5px"></path><path class="a" d="M6 18.75h3" fill="none" stroke="#212121" stroke-linecap="round" stroke-linejoin="round" stroke-width="1.5px"></path><path class="a" d="M23.25 14.417a1.333 1.333 0 0 1-1.333 1.333h-9.334a1.333 1.333 0 0 1-1.333-1.333V2.083A1.333 1.333 0 0 1 12.583.75h6.781a1.33 1.33 0 0 1 .943.391l2.552 2.552a1.33 1.33 0 0 1 .391.943z" fill="none" stroke="#212121" stroke-linecap="round" stroke-linejoin="round" stroke-width="1.5px"></path></g></svg>