<svg xmlns="http://www.w3.org/2000/svg" width="24" height="24" viewBox="0 0 24 24"><title>compass 2</title><g fill="#212121" class="nc-icon-wrapper"><defs></defs><circle class="a" cx="12" cy="12" r="11.25" fill="none" stroke="#212121" stroke-linecap="round" stroke-linejoin="round" stroke-width="1.5px"></circle><path class="a" d="M8.014 15.654a.244.244 0 0 0 .332.332L12 13.957l3.654 2.029a.244.244 0 0 0 .332-.332L13.957 12l2.029-3.654a.244.244 0 0 0-.332-.333L12 10.043l-3.654-2.03a.244.244 0 0 0-.332.333L10.043 12z" fill="none" stroke="#212121" stroke-linecap="round" stroke-linejoin="round" stroke-width="1.5px"></path><path class="a" d="M6 10.5L.75 12 6 13.5" fill="none" stroke="#212121" stroke-linecap="round" stroke-linejoin="round" stroke-width="1.5px"></path><path class="a" d="M13.5 6L12 .75 10.5 6" fill="none" stroke="#212121" stroke-linecap="round" stroke-linejoin="round" stroke-width="1.5px"></path><path class="a" d="M18 13.5l5.25-1.5L18 10.5" fill="none" stroke="#212121" stroke-linecap="round" stroke-linejoin="round" stroke-width="1.5px"></path><path class="a" d="M10.5 18l1.5 5.25L13.5 18" fill="none" stroke="#212121" stroke-linecap="round" stroke-linejoin="round" stroke-width="1.5px"></path></g></svg>