<svg xmlns="http://www.w3.org/2000/svg" width="24" height="24" viewBox="0 0 24 24"><title>computer ram</title><g fill="#212121" class="nc-icon-wrapper"><defs></defs><path class="a" d="M22.78 8.028L8.028 22.78a1.6 1.6 0 0 1-2.269 0L1.22 18.241a1.6 1.6 0 0 1 0-2.269L7.461 9.73l.477.1a1.605 1.605 0 0 0 1.888-1.892l-.1-.477 6.246-6.241a1.6 1.6 0 0 1 2.269 0l4.539 4.539a1.6 1.6 0 0 1 0 2.269z" fill="none" stroke="#212121" stroke-linecap="round" stroke-linejoin="round" stroke-width="1.5px"></path><path class="a" d="M5.759 18.241l1.135 1.135 2.269-2.27-1.135-1.134" fill="none" stroke="#212121" stroke-linecap="round" stroke-linejoin="round" stroke-width="1.5px"></path><path class="a" d="M15.972 8.028l1.134 1.135 2.27-2.269-1.135-1.135" fill="none" stroke="#212121" stroke-linecap="round" stroke-linejoin="round" stroke-width="1.5px"></path><path class="a" d="M10.298 13.702l1.135 1.135 3.404-3.404-1.135-1.135" fill="none" stroke="#212121" stroke-linecap="round" stroke-linejoin="round" stroke-width="1.5px"></path><path class="a" d="M2.355 14.837l1.134 1.135" fill="none" stroke="#212121" stroke-linecap="round" stroke-linejoin="round" stroke-width="1.5px"></path><path class="a" d="M4.624 12.567l1.135 1.135" fill="none" stroke="#212121" stroke-linecap="round" stroke-linejoin="round" stroke-width="1.5px"></path><path class="a" d="M12.567 4.624l1.135 1.135" fill="none" stroke="#212121" stroke-linecap="round" stroke-linejoin="round" stroke-width="1.5px"></path><path class="a" d="M14.837 2.355l1.135 1.134" fill="none" stroke="#212121" stroke-linecap="round" stroke-linejoin="round" stroke-width="1.5px"></path></g></svg>