<svg xmlns="http://www.w3.org/2000/svg" width="24" height="24" viewBox="0 0 24 24"><title>concert rock 1</title><g fill="#212121" class="nc-icon-wrapper"><defs></defs><path class="cls-1" d="M17.439 9V5.25a1.5 1.5 0 0 1 1.5-1.5 1.5 1.5 0 0 1 1.5 1.5v10.5a5.168 5.168 0 0 1-1.5 3.75v3.75" fill="none" stroke="#212121" stroke-linecap="round" stroke-linejoin="round" stroke-width="1.5px"></path><path class="cls-1" d="M11.439 9V2.25a1.5 1.5 0 0 0-1.5-1.5 1.5 1.5 0 0 0-1.5 1.5V13.5L6 11.548a1.539 1.539 0 0 0-2.242.348 1.541 1.541 0 0 0 0 1.707L8.75 19.5v3.75" fill="none" stroke="#212121" stroke-linecap="round" stroke-linejoin="round" stroke-width="1.5px"></path><path class="cls-1" d="M14.439 9a1.5 1.5 0 0 0-1.5-1.5 1.5 1.5 0 0 0-1.5 1.5v3a1.5 1.5 0 0 0 3 0z" fill="none" stroke="#212121" stroke-linecap="round" stroke-linejoin="round" stroke-width="1.5px"></path><path class="cls-1" d="M17.439 9a1.5 1.5 0 0 0-1.5-1.5 1.5 1.5 0 0 0-1.5 1.5v3a1.5 1.5 0 0 0 3 0z" fill="none" stroke="#212121" stroke-linecap="round" stroke-linejoin="round" stroke-width="1.5px"></path></g></svg>