<svg xmlns="http://www.w3.org/2000/svg" width="24" height="24" viewBox="0 0 24 24"><title>concert guitarist</title><g fill="#212121" class="nc-icon-wrapper"><defs></defs><circle class="cls-1" cx="6" cy="3.75" r="3" fill="none" stroke="#212121" stroke-linecap="round" stroke-linejoin="round" stroke-width="1.5px"></circle><path class="cls-1" d="M11.25 13.5a5.25 5.25 0 0 0-10.5 0v2.25H3l.75 7.5h4.5l.75-7.5h2.25z" fill="none" stroke="#212121" stroke-linecap="round" stroke-linejoin="round" stroke-width="1.5px"></path><path class="cls-1" d="M18 9V.75" fill="none" stroke="#212121" stroke-linecap="round" stroke-linejoin="round" stroke-width="1.5px"></path><path class="cls-1" d="M16.5 5.25h3" fill="none" stroke="#212121" stroke-linecap="round" stroke-linejoin="round" stroke-width="1.5px"></path><path class="cls-1" d="M16.5 2.25h3" fill="none" stroke="#212121" stroke-linecap="round" stroke-linejoin="round" stroke-width="1.5px"></path><path class="cls-1" d="M21.889 16.229a2.165 2.165 0 0 1-.5-2.933 2.169 2.169 0 0 0 .364-1.2A3.094 3.094 0 0 0 18.656 9h-1.312a3.094 3.094 0 0 0-3.094 3.094 2.169 2.169 0 0 0 .364 1.2 2.165 2.165 0 0 1-.5 2.933l-.027.021a3.332 3.332 0 0 0-1.334 2.667 4.333 4.333 0 0 0 4.333 4.333h1.868a4.3 4.3 0 0 0 4.3-4.3 3.4 3.4 0 0 0-1.365-2.719z" fill="none" stroke="#212121" stroke-linecap="round" stroke-linejoin="round" stroke-width="1.5px"></path><path class="cls-1" d="M16.5 20.25h3" fill="none" stroke="#212121" stroke-linecap="round" stroke-linejoin="round" stroke-width="1.5px"></path></g></svg>