<svg xmlns="http://www.w3.org/2000/svg" width="24" height="24" viewBox="0 0 24 24"><title>connect device exchange</title><g fill="#212121" class="nc-icon-wrapper"><defs></defs><path class="a" d="M9.75 14.25V18a2.25 2.25 0 0 1-2.25 2.25H3A2.25 2.25 0 0 1 .75 18V6A2.25 2.25 0 0 1 3 3.75h4.5A2.25 2.25 0 0 1 9.75 6v2.25" fill="none" stroke="#212121" stroke-linecap="round" stroke-linejoin="round" stroke-width="1.5px"></path><path class="a" d="M.75 17.25h9" fill="none" stroke="#212121" stroke-linecap="round" stroke-linejoin="round" stroke-width="1.5px"></path><path class="a" d="M14.25 8.25V6a2.25 2.25 0 0 1 2.25-2.25H21A2.25 2.25 0 0 1 23.25 6v12A2.25 2.25 0 0 1 21 20.25h-4.5A2.25 2.25 0 0 1 14.25 18v-3.749" fill="none" stroke="#212121" stroke-linecap="round" stroke-linejoin="round" stroke-width="1.5px"></path><path class="a" d="M14.25 6.75h9" fill="none" stroke="#212121" stroke-linecap="round" stroke-linejoin="round" stroke-width="1.5px"></path><path class="a" d="M14.25 17.25h9" fill="none" stroke="#212121" stroke-linecap="round" stroke-linejoin="round" stroke-width="1.5px"></path><path class="a" d="M6.75 9L4.5 11.25l2.25 2.25" fill="none" stroke="#212121" stroke-linecap="round" stroke-linejoin="round" stroke-width="1.5px"></path><path class="a" d="M17.25 9l2.25 2.25-2.25 2.25" fill="none" stroke="#212121" stroke-linecap="round" stroke-linejoin="round" stroke-width="1.5px"></path><path class="a" d="M4.5 11.25h15" fill="none" stroke="#212121" stroke-linecap="round" stroke-linejoin="round" stroke-width="1.5px"></path></g></svg>