<svg xmlns="http://www.w3.org/2000/svg" width="24" height="24" viewBox="0 0 24 24"><title>controls camera record</title><g fill="#212121" class="nc-icon-wrapper"><defs></defs><path class="a" d="M9 12.75H2.25a1.5 1.5 0 0 1-1.5-1.5v-9a1.5 1.5 0 0 1 1.5-1.5h12a1.5 1.5 0 0 1 1.5 1.5V9" fill="none" stroke="#212121" stroke-linecap="round" stroke-linejoin="round" stroke-width="1.5px"></path><path class="a" d="M19.579 10.165l2.586 1.292a.75.75 0 0 0 1.085-.671V2.714a.75.75 0 0 0-1.085-.671l-2.586 1.292a1.5 1.5 0 0 0-.829 1.342v4.146a1.5 1.5 0 0 0 .829 1.342z" fill="none" stroke="#212121" stroke-linecap="round" stroke-linejoin="round" stroke-width="1.5px"></path><circle class="a" cx="15.75" cy="18.75" r="4.5" fill="none" stroke="#212121" stroke-linecap="round" stroke-linejoin="round" stroke-width="1.5px"></circle><path class="a" d="M15.75 18.375a.375.375 0 1 0 .375.375.375.375 0 0 0-.375-.375" fill="none" stroke="#212121" stroke-linecap="round" stroke-linejoin="round" stroke-width="1.5px"></path></g></svg>