<svg xmlns="http://www.w3.org/2000/svg" width="24" height="24" viewBox="0 0 24 24"><title>controls camera previous</title><g fill="#212121" class="nc-icon-wrapper"><defs></defs><path class="a" d="M6.75 12.75h-4.5a1.5 1.5 0 0 1-1.5-1.5v-9a1.5 1.5 0 0 1 1.5-1.5h12a1.5 1.5 0 0 1 1.5 1.5V9" fill="none" stroke="#212121" stroke-linecap="round" stroke-linejoin="round" stroke-width="1.5px"></path><path class="a" d="M19.579 10.165l2.585 1.292a.75.75 0 0 0 1.086-.671V2.714a.75.75 0 0 0-1.086-.671l-2.585 1.292a1.5 1.5 0 0 0-.829 1.342v4.146a1.5 1.5 0 0 0 .829 1.342z" fill="none" stroke="#212121" stroke-linecap="round" stroke-linejoin="round" stroke-width="1.5px"></path><path class="a" d="M18.05 18.15a.75.75 0 0 0 0 1.2l4 3a.75.75 0 0 0 1.2-.6v-6a.75.75 0 0 0-1.2-.6z" fill="none" stroke="#212121" stroke-linecap="round" stroke-linejoin="round" stroke-width="1.5px"></path><rect class="a" x="11.999" y="14.25" width="3.001" height="9" rx=".75" ry=".75" fill="none" stroke="#212121" stroke-linecap="round" stroke-linejoin="round" stroke-width="1.5px"></rect></g></svg>