<svg xmlns="http://www.w3.org/2000/svg" width="24" height="24" viewBox="0 0 24 24"><title>content browser edit</title><g fill="#212121" class="nc-icon-wrapper"><defs></defs><path class="a" d="M18.746 2.25h-16.5a1.5 1.5 0 0 0-1.5 1.5v16.5a1.5 1.5 0 0 0 1.5 1.5h18a1.5 1.5 0 0 0 1.5-1.5v-9" fill="none" stroke="#212121" stroke-linecap="round" stroke-linejoin="round" stroke-width="1.5px"></path><path class="a" d="M.746 6.75h12.75" fill="none" stroke="#212121" stroke-linecap="round" stroke-linejoin="round" stroke-width="1.5px"></path><path class="a" d="M22.782 6.465l-5.723 5.723-2.813.562.563-2.812 5.723-5.723a1.585 1.585 0 0 1 2.243 0l.007.006a1.588 1.588 0 0 1 0 2.244z" fill="none" stroke="#212121" stroke-linecap="round" stroke-linejoin="round" stroke-width="1.5px"></path><path class="a" d="M5.246 12.75h4.5" fill="none" stroke="#212121" stroke-linecap="round" stroke-linejoin="round" stroke-width="1.5px"></path><path class="a" d="M5.246 17.25h9.75" fill="none" stroke="#212121" stroke-linecap="round" stroke-linejoin="round" stroke-width="1.5px"></path></g></svg>