<svg xmlns="http://www.w3.org/2000/svg" width="24" height="24" viewBox="0 0 24 24"><title>content quill pen</title><g fill="#212121" class="nc-icon-wrapper"><defs></defs><path class="a" d="M23.254 23.251l-6.375-6.375" fill="none" stroke="#212121" stroke-linecap="round" stroke-linejoin="round" stroke-width="1.5px"></path><path class="a" d="M3.64 11.267A18.262 18.262 0 0 1 .759.825c.121 0 6.678-.808 11.178 2.9" fill="none" stroke="#212121" stroke-linecap="round" stroke-linejoin="round" stroke-width="1.5px"></path><path class="a" d="M19.913 15.758c.238 1.541.039 2.793-.66 3.492-1.06 1.06-3.247 1.056-5.757.137" fill="none" stroke="#212121" stroke-linecap="round" stroke-linejoin="round" stroke-width="1.5px"></path><path class="a" d="M4.867 14.9a1.5 1.5 0 0 0 0 2.121l2.121 2.122a1.5 1.5 0 0 0 2.121 0L22.368 5.879a3 3 0 0 0-4.243-4.242z" fill="none" stroke="#212121" stroke-linecap="round" stroke-linejoin="round" stroke-width="1.5px"></path><path class="a" d="M22.368 5.879a3 3 0 0 1 0 4.243L19.186 13.3" fill="none" stroke="#212121" stroke-linecap="round" stroke-linejoin="round" stroke-width="1.5px"></path><path class="a" d="M5.914 18.064a2.314 2.314 0 0 0-3.247.065c-.9.9-1.921 5.122-1.921 5.122s4.2-1.035 5.1-1.94a2.313 2.313 0 0 0 .068-3.247z" fill="none" stroke="#212121" stroke-linecap="round" stroke-linejoin="round" stroke-width="1.5px"></path><path class="a" d="M17.048 11.199l-4.243-4.242" fill="none" stroke="#212121" stroke-linecap="round" stroke-linejoin="round" stroke-width="1.5px"></path></g></svg>