<svg xmlns="http://www.w3.org/2000/svg" width="24" height="24" viewBox="0 0 24 24"><title>content pen 4</title><g fill="#212121" class="nc-icon-wrapper"><defs></defs><path class="a" d="M21.482 6.758L8.169 20.07a1.5 1.5 0 0 1-2.121 0l-2.122-2.121a1.5 1.5 0 0 1 0-2.121L17.239 2.515z" fill="none" stroke="#212121" stroke-linecap="round" stroke-linejoin="round" stroke-width="1.5px"></path><path class="a" d="M17.239 2.515a3 3 0 0 0-4.243 0L9.76 5.751" fill="none" stroke="#212121" stroke-linecap="round" stroke-linejoin="round" stroke-width="1.5px"></path><path class="a" d="M11.881 7.873l4.243 4.242" fill="none" stroke="#212121" stroke-linecap="round" stroke-linejoin="round" stroke-width="1.5px"></path><path class="a" d="M1.805 20.07l2.12-2.121 2.122 2.12-2.12 2.122z" fill="none" stroke="#212121" stroke-linecap="round" stroke-linejoin="round" stroke-width="1.5px"></path><path class="a" d="M2.866 21.131L.921 23.076" fill="none" stroke="#212121" stroke-linecap="round" stroke-linejoin="round" stroke-width="1.5px"></path><path class="a" d="M23.072.924l-1.591 1.591" fill="none" stroke="#212121" stroke-linecap="round" stroke-linejoin="round" stroke-width="1.5px"></path><path class="a" d="M17.769 3.046l1.061-1.061a1.5 1.5 0 0 1 2.121 0l1.061 1.061a1.5 1.5 0 0 1 0 2.121l-1.061 1.061" fill="none" stroke="#212121" stroke-linecap="round" stroke-linejoin="round" stroke-width="1.5px"></path></g></svg>