<svg xmlns="http://www.w3.org/2000/svg" width="24" height="24" viewBox="0 0 24 24"><title>cookie</title><g fill="#212121" class="nc-icon-wrapper"><defs></defs><path class="cls-1" d="M20.973 8.989a3.746 3.746 0 0 1-3.748-3.769 3.716 3.716 0 0 1-2.252.769A3.747 3.747 0 0 1 11.528.761a11.238 11.238 0 1 0 11.158 7.8 3.708 3.708 0 0 1-1.713.428z" fill="none" stroke="#212121" stroke-linecap="round" stroke-linejoin="round" stroke-width="1.5px"></path><circle class="cls-1" cx="7.473" cy="10.489" r="2.25" fill="none" stroke="#212121" stroke-linecap="round" stroke-linejoin="round" stroke-width="1.5px"></circle><circle class="cls-1" cx="14.223" cy="17.239" r="1.5" fill="none" stroke="#212121" stroke-linecap="round" stroke-linejoin="round" stroke-width="1.5px"></circle><path class="cls-1" d="M7.1 16.489a.375.375 0 1 1-.375.375.375.375 0 0 1 .375-.375" fill="none" stroke="#212121" stroke-linecap="round" stroke-linejoin="round" stroke-width="1.5px"></path><path class="cls-1" d="M13.038 9.744a.375.375 0 1 1-.31.43.374.374 0 0 1 .31-.43" fill="none" stroke="#212121" stroke-linecap="round" stroke-linejoin="round" stroke-width="1.5px"></path><path class="cls-1" d="M19.038 12.744a.375.375 0 1 1-.31.43.375.375 0 0 1 .31-.43" fill="none" stroke="#212121" stroke-linecap="round" stroke-linejoin="round" stroke-width="1.5px"></path></g></svg>