<svg xmlns="http://www.w3.org/2000/svg" width="24" height="24" viewBox="0 0 24 24"><title>crafts calligraphy</title><g fill="#212121" class="nc-icon-wrapper"><defs></defs><path class="cls-1" d="M9.065 18a4.507 4.507 0 0 1-2.274 3.156L4.5 22.336v-6.883a3.033 3.033 0 0 1 1.622-2.7l2.943-1.632z" fill="none" stroke="#212121" stroke-linecap="round" stroke-linejoin="round" stroke-width="1.5px"></path><path class="cls-1" d="M9.065 11.118l2.185-1.125" fill="none" stroke="#212121" stroke-linecap="round" stroke-linejoin="round" stroke-width="1.5px"></path><path class="cls-1" d="M4.5 22.336l-1.691.754a1.4 1.4 0 0 1-2.035-.935 1.52 1.52 0 0 1-.024-.272" fill="none" stroke="#212121" stroke-linecap="round" stroke-linejoin="round" stroke-width="1.5px"></path><path class="cls-1" d="M18.75.75l-2.518 1.079a1.275 1.275 0 0 0-.752.949L14.25 9.75l6.972-1.23a1.275 1.275 0 0 0 .949-.752L23.25 5.25" fill="none" stroke="#212121" stroke-linecap="round" stroke-linejoin="round" stroke-width="1.5px"></path><path class="cls-1" d="M14.25 9.75L19.2 4.8" fill="none" stroke="#212121" stroke-linecap="round" stroke-linejoin="round" stroke-width="1.5px"></path></g></svg>