<svg xmlns="http://www.w3.org/2000/svg" width="24" height="24" viewBox="0 0 24 24"><title>credit card visa</title><g fill="#212121" class="nc-icon-wrapper"><defs></defs><rect class="a" x=".75" y="3.75" width="22.5" height="16.5" rx="1.5" ry="1.5" fill="none" stroke="#212121" stroke-linecap="round" stroke-linejoin="round" stroke-width="1.5px"></rect><path class="a" d="M9.75 15V9" fill="none" stroke="#212121" stroke-linecap="round" stroke-linejoin="round" stroke-width="1.5px"></path><path class="a" d="M3.75 9v2.037A7.488 7.488 0 0 0 5.25 15a7.488 7.488 0 0 0 1.5-3.963V9" fill="none" stroke="#212121" stroke-linecap="round" stroke-linejoin="round" stroke-width="1.5px"></path><path class="a" d="M14.4 9h-1.2a1.2 1.2 0 0 0-1.2 1.2c0 1.8 2.4 1.8 2.4 3.6a1.2 1.2 0 0 1-1.2 1.2H12" fill="none" stroke="#212121" stroke-linecap="round" stroke-linejoin="round" stroke-width="1.5px"></path><path class="a" d="M17.25 12.75h3" fill="none" stroke="#212121" stroke-linecap="round" stroke-linejoin="round" stroke-width="1.5px"></path><path class="a" d="M20.25 15v-4.5a1.5 1.5 0 0 0-3 0V15" fill="none" stroke="#212121" stroke-linecap="round" stroke-linejoin="round" stroke-width="1.5px"></path></g></svg>