<svg xmlns="http://www.w3.org/2000/svg" width="24" height="24" viewBox="0 0 24 24"><title>crime man riot 1</title><g fill="#212121" class="nc-icon-wrapper"><defs></defs><path class="a" d="M7.476 3.334A8.711 8.711 0 0 0 13.75 6a8.709 8.709 0 0 0 3.45-.711" fill="none" stroke="#212121" stroke-linecap="round" stroke-linejoin="round" stroke-width="1.5px"></path><path class="a" d="M8.348 9.907l-.684-.947a5.25 5.25 0 1 1 8.672 0l-.684.947" fill="none" stroke="#212121" stroke-linecap="round" stroke-linejoin="round" stroke-width="1.5px"></path><path class="a" d="M21.75 23.25a9.73 9.73 0 0 0-3.659-7.614" fill="none" stroke="#212121" stroke-linecap="round" stroke-linejoin="round" stroke-width="1.5px"></path><path class="a" d="M5.909 15.636A9.73 9.73 0 0 0 2.25 23.25" fill="none" stroke="#212121" stroke-linecap="round" stroke-linejoin="round" stroke-width="1.5px"></path><path class="a" d="M12 19.5c.75 0 4.5-4.5 4.5-9 0 0-3-2.25-4.5-2.25S7.5 10.5 7.5 10.5c0 4.5 3.75 9 4.5 9z" fill="none" stroke="#212121" stroke-linecap="round" stroke-linejoin="round" stroke-width="1.5px"></path></g></svg>