<svg xmlns="http://www.w3.org/2000/svg" width="24" height="24" viewBox="0 0 24 24"><title>crime robber</title><g fill="#212121" class="nc-icon-wrapper"><defs></defs><circle class="a" cx="12.273" cy="3.391" r="2.641" fill="none" stroke="#212121" stroke-linecap="round" stroke-linejoin="round" stroke-width="1.5px"></circle><path class="a" d="M12.4 12.342l2.09-1.393 1.742 2.906-1.811 2.245a1.321 1.321 0 0 0 0 1.868l2.641 2.641a1.321 1.321 0 1 0 1.868-1.867l-1.446-1.517 1.823-2.263 2.935 2.454a1.321 1.321 0 0 0 .732.221 1.281 1.281 0 0 0 .276-.029" fill="none" stroke="#212121" stroke-linecap="round" stroke-linejoin="round" stroke-width="1.5px"></path><path class="a" d="M23.25 6.082l-3.343-1.671a1.32 1.32 0 0 0-1.323.083L11.25 9.306" fill="none" stroke="#212121" stroke-linecap="round" stroke-linejoin="round" stroke-width="1.5px"></path><path class="a" d="M23.25 14.25l-5.135-5.751 1.495-1.075 3.64 1.745" fill="none" stroke="#212121" stroke-linecap="round" stroke-linejoin="round" stroke-width="1.5px"></path><path class="a" d="M7.05 15.9H5.627a.939.939 0 0 0-.349 1.811l1.444.578a.939.939 0 0 1-.349 1.811H4.95" fill="none" stroke="#212121" stroke-linecap="round" stroke-linejoin="round" stroke-width="1.5px"></path><path class="a" d="M6 15.9v-.525" fill="none" stroke="#212121" stroke-linecap="round" stroke-linejoin="round" stroke-width="1.5px"></path><path class="a" d="M6 20.625V20.1" fill="none" stroke="#212121" stroke-linecap="round" stroke-linejoin="round" stroke-width="1.5px"></path><path class="a" d="M7.313 13.187l1.375-2.407a.437.437 0 0 0-.379-.655H3.691a.437.437 0 0 0-.379.655l1.376 2.407C4 13.639.75 14.861.75 18.437a4.976 4.976 0 0 0 5.177 4.813c2.779 0 5.323-2.034 5.323-4.813 0-3.437-3.183-4.665-3.937-5.25z" fill="none" stroke="#212121" stroke-linecap="round" stroke-linejoin="round" stroke-width="1.5px"></path></g></svg>