<svg xmlns="http://www.w3.org/2000/svg" width="24" height="24" viewBox="0 0 24 24"><title>crime cut</title><g fill="#212121" class="nc-icon-wrapper"><defs></defs><path class="a" d="M5.355 13.652a.377.377 0 0 1 .531 0" fill="none" stroke="#212121" stroke-linecap="round" stroke-linejoin="round" stroke-width="1.5px"></path><path class="a" d="M5.355 14.182a.375.375 0 0 1 0-.53" fill="none" stroke="#212121" stroke-linecap="round" stroke-linejoin="round" stroke-width="1.5px"></path><path class="a" d="M5.886 14.182a.375.375 0 0 1-.531 0" fill="none" stroke="#212121" stroke-linecap="round" stroke-linejoin="round" stroke-width="1.5px"></path><path class="a" d="M5.886 13.652a.375.375 0 0 1 0 .53" fill="none" stroke="#212121" stroke-linecap="round" stroke-linejoin="round" stroke-width="1.5px"></path><path class="a" d="M18.083 8.349a.375.375 0 0 1 .531 0" fill="none" stroke="#212121" stroke-linecap="round" stroke-linejoin="round" stroke-width="1.5px"></path><path class="a" d="M18.083 8.879a.375.375 0 0 1 0-.53" fill="none" stroke="#212121" stroke-linecap="round" stroke-linejoin="round" stroke-width="1.5px"></path><path class="a" d="M18.614 8.879a.375.375 0 0 1-.531 0" fill="none" stroke="#212121" stroke-linecap="round" stroke-linejoin="round" stroke-width="1.5px"></path><path class="a" d="M18.614 8.349a.375.375 0 0 1 0 .53" fill="none" stroke="#212121" stroke-linecap="round" stroke-linejoin="round" stroke-width="1.5px"></path><path class="a" d="M10.393 21.342a1.5 1.5 0 0 1-2.121 0l-6.364-6.364a1.5 1.5 0 0 1 0-2.121L13.575 1.189a1.5 1.5 0 0 1 2.122 0l6.364 6.364a1.5 1.5 0 0 1 0 2.122l-.825.825" fill="none" stroke="#212121" stroke-linecap="round" stroke-linejoin="round" stroke-width="1.5px"></path><circle class="a" cx="11.984" cy="11.266" r="3" fill="none" stroke="#212121" stroke-linecap="round" stroke-linejoin="round" stroke-width="1.5px"></circle><path class="a" d="M13.5 17.25v4.5a1.5 1.5 0 0 0 3 0v-4.5a1.5 1.5 0 0 0 3 0v-4.5" fill="none" stroke="#212121" stroke-linecap="round" stroke-linejoin="round" stroke-width="1.5px"></path><path class="a" d="M4.5 21.75a1.5 1.5 0 0 1-3 0v-3" fill="none" stroke="#212121" stroke-linecap="round" stroke-linejoin="round" stroke-width="1.5px"></path></g></svg>