<svg xmlns="http://www.w3.org/2000/svg" width="24" height="24" viewBox="0 0 24 24"><title>crypto currency bitcoin monitor shield</title><g fill="#212121" class="nc-icon-wrapper"><defs></defs><path class="a" d="M21.75 5.25a1.5 1.5 0 0 1 1.5 1.5V18a1.5 1.5 0 0 1-1.5 1.5H2.25A1.5 1.5 0 0 1 .75 18V6.75a1.5 1.5 0 0 1 1.5-1.5" fill="none" stroke="#212121" stroke-linecap="round" stroke-linejoin="round" stroke-width="1.5px"></path><path class="a" d="M18.75 9A7.854 7.854 0 0 1 12 16.5 7.854 7.854 0 0 1 5.25 9V2.25a1.5 1.5 0 0 1 1.5-1.5h10.5a1.5 1.5 0 0 1 1.5 1.5z" fill="none" stroke="#212121" stroke-linecap="round" stroke-linejoin="round" stroke-width="1.5px"></path><path class="a" d="M8.25 23.25h7.5" fill="none" stroke="#212121" stroke-linecap="round" stroke-linejoin="round" stroke-width="1.5px"></path><path class="a" d="M12 19.5v3.75" fill="none" stroke="#212121" stroke-linecap="round" stroke-linejoin="round" stroke-width="1.5px"></path><path class="a" d="M10.5 10.5v-6h2.25a1.5 1.5 0 0 1 0 3 1.5 1.5 0 0 1 0 3z" fill="none" stroke="#212121" stroke-linecap="round" stroke-linejoin="round" stroke-width="1.5px"></path><path class="a" d="M10.5 7.5h2.25" fill="none" stroke="#212121" stroke-linecap="round" stroke-linejoin="round" stroke-width="1.5px"></path><path class="a" d="M12 4.5v-.75" fill="none" stroke="#212121" stroke-linecap="round" stroke-linejoin="round" stroke-width="1.5px"></path><path class="a" d="M12 10.5v.75" fill="none" stroke="#212121" stroke-linecap="round" stroke-linejoin="round" stroke-width="1.5px"></path></g></svg>