<svg xmlns="http://www.w3.org/2000/svg" width="24" height="24" viewBox="0 0 24 24"><title>crypto currency bitcoin bill</title><g fill="#212121" class="nc-icon-wrapper"><defs></defs><path class="a" d="M22.5 12a4.5 4.5 0 0 0-3-4.243V6A1.5 1.5 0 0 0 18 4.5H6A1.5 1.5 0 0 0 4.5 6v1.757a4.5 4.5 0 0 0 0 8.486V18A1.5 1.5 0 0 0 6 19.5h12a1.5 1.5 0 0 0 1.5-1.5v-1.757a4.5 4.5 0 0 0 3-4.243z" fill="none" stroke="#212121" stroke-linecap="round" stroke-linejoin="round" stroke-width="1.5px"></path><path class="a" d="M10.5 15V9h2.25a1.5 1.5 0 0 1 0 3 1.5 1.5 0 0 1 0 3z" fill="none" stroke="#212121" stroke-linecap="round" stroke-linejoin="round" stroke-width="1.5px"></path><path class="a" d="M10.5 12h2.25" fill="none" stroke="#212121" stroke-linecap="round" stroke-linejoin="round" stroke-width="1.5px"></path><path class="a" d="M12 9V7.5" fill="none" stroke="#212121" stroke-linecap="round" stroke-linejoin="round" stroke-width="1.5px"></path><path class="a" d="M12 15v1.5" fill="none" stroke="#212121" stroke-linecap="round" stroke-linejoin="round" stroke-width="1.5px"></path></g></svg>