<svg xmlns="http://www.w3.org/2000/svg" width="24" height="24" viewBox="0 0 24 24"><title>crypto currency bitcoin increase</title><g fill="#212121" class="nc-icon-wrapper"><defs></defs><path class="a" d="M22.5 17.248v-4.5H18" fill="none" stroke="#212121" stroke-linecap="round" stroke-linejoin="round" stroke-width="1.5px"></path><path class="a" d="M22.5 12.748L17.45 17.8a2.252 2.252 0 0 1-2.237.565L9.5 16.837a2.251 2.251 0 0 0-2.172.583L1.5 23.252" fill="none" stroke="#212121" stroke-linecap="round" stroke-linejoin="round" stroke-width="1.5px"></path><path class="a" d="M17.852 9.737A7.5 7.5 0 1 0 6 14.251" fill="none" stroke="#212121" stroke-linecap="round" stroke-linejoin="round" stroke-width="1.5px"></path><path class="a" d="M9 11.248v-6h2.25a1.5 1.5 0 0 1 0 3 1.5 1.5 0 0 1 0 3z" fill="none" stroke="#212121" stroke-linecap="round" stroke-linejoin="round" stroke-width="1.5px"></path><path class="a" d="M9 8.248h2.25" fill="none" stroke="#212121" stroke-linecap="round" stroke-linejoin="round" stroke-width="1.5px"></path><path class="a" d="M10.5 5.248v-1.5" fill="none" stroke="#212121" stroke-linecap="round" stroke-linejoin="round" stroke-width="1.5px"></path><path class="a" d="M10.5 11.248v1.5" fill="none" stroke="#212121" stroke-linecap="round" stroke-linejoin="round" stroke-width="1.5px"></path></g></svg>