<svg xmlns="http://www.w3.org/2000/svg" width="24" height="24" viewBox="0 0 24 24"><title>crypto currency bitcoin wallet open</title><g fill="#212121" class="nc-icon-wrapper"><defs></defs><path class="a" d="M16.48 18h2.14a3.108 3.108 0 0 0 3.15-3.047v-3.7" fill="none" stroke="#212121" stroke-linecap="round" stroke-linejoin="round" stroke-width="1.5px"></path><path class="a" d="M2.94 5.394l10.948 3.111A3.769 3.769 0 0 1 16.48 12v9.01a2.052 2.052 0 0 1-2.6 2.167l-9.049-2.46a3.7 3.7 0 0 1-2.6-3.457V7.312A2.752 2.752 0 0 1 4.9 4.5h9.37" fill="none" stroke="#212121" stroke-linecap="round" stroke-linejoin="round" stroke-width="1.5px"></path><circle class="a" cx="11.98" cy="16.5" r="1.5" fill="none" stroke="#212121" stroke-linecap="round" stroke-linejoin="round" stroke-width="1.5px"></circle><path class="a" d="M17.27 7.5v-6h2.25a1.5 1.5 0 0 1 0 3 1.5 1.5 0 0 1 0 3z" fill="none" stroke="#212121" stroke-linecap="round" stroke-linejoin="round" stroke-width="1.5px"></path><path class="a" d="M17.27 4.5h2.25" fill="none" stroke="#212121" stroke-linecap="round" stroke-linejoin="round" stroke-width="1.5px"></path><path class="a" d="M18.77 1.5V.75" fill="none" stroke="#212121" stroke-linecap="round" stroke-linejoin="round" stroke-width="1.5px"></path><path class="a" d="M18.77 7.5v.75" fill="none" stroke="#212121" stroke-linecap="round" stroke-linejoin="round" stroke-width="1.5px"></path></g></svg>