<svg xmlns="http://www.w3.org/2000/svg" width="24" height="24" viewBox="0 0 24 24"><title>currency dollar bubble</title><g fill="#212121" class="nc-icon-wrapper"><defs></defs><path class="a" d="M22.5 12a3.5 3.5 0 0 0-2.443-3.337 3.5 3.5 0 0 0-4.72-4.72 3.5 3.5 0 0 0-6.674 0 3.5 3.5 0 0 0-4.72 4.72 3.5 3.5 0 0 0 0 6.674 3.5 3.5 0 0 0 4.72 4.72 3.5 3.5 0 0 0 6.674 0 3.5 3.5 0 0 0 4.72-4.72A3.5 3.5 0 0 0 22.5 12z" fill="none" stroke="#212121" stroke-linecap="round" stroke-linejoin="round" stroke-width="1.5px"></path><path class="a" d="M15 7.5h-4.211A1.662 1.662 0 0 0 9 9.289c0 1.961 6 3.461 6 5.422a1.757 1.757 0 0 1-1.789 1.789H9" fill="none" stroke="#212121" stroke-linecap="round" stroke-linejoin="round" stroke-width="1.5px"></path><path class="a" d="M12 7.5V5.25" fill="none" stroke="#212121" stroke-linecap="round" stroke-linejoin="round" stroke-width="1.5px"></path><path class="a" d="M12 18.75V16.5" fill="none" stroke="#212121" stroke-linecap="round" stroke-linejoin="round" stroke-width="1.5px"></path></g></svg>