<svg xmlns="http://www.w3.org/2000/svg" width="24" height="24" viewBox="0 0 24 24"><title>currency pound bubble</title><g fill="#212121" class="nc-icon-wrapper"><defs></defs><path class="a" d="M22.5 12a3.5 3.5 0 0 0-2.443-3.337 3.5 3.5 0 0 0-4.72-4.72 3.5 3.5 0 0 0-6.674 0 3.5 3.5 0 0 0-4.72 4.72 3.5 3.5 0 0 0 0 6.674 3.5 3.5 0 0 0 4.72 4.72 3.5 3.5 0 0 0 6.674 0 3.5 3.5 0 0 0 4.72-4.72A3.5 3.5 0 0 0 22.5 12z" fill="none" stroke="#212121" stroke-linecap="round" stroke-linejoin="round" stroke-width="1.5px"></path><path class="a" d="M15 8.25a2.25 2.25 0 0 0-4.5 0V15A1.5 1.5 0 0 1 9 16.5h6" fill="none" stroke="#212121" stroke-linecap="round" stroke-linejoin="round" stroke-width="1.5px"></path><path class="a" d="M9 12h4.5" fill="none" stroke="#212121" stroke-linecap="round" stroke-linejoin="round" stroke-width="1.5px"></path></g></svg>