<svg xmlns="http://www.w3.org/2000/svg" width="24" height="24" viewBox="0 0 24 24"><title>database heart</title><g fill="#212121" class="nc-icon-wrapper"><defs></defs><ellipse class="a" cx="12" cy="5.251" rx="11.25" ry="4.5" fill="none" stroke="#212121" stroke-linecap="round" stroke-linejoin="round" stroke-width="1.5px"></ellipse><path class="a" d="M23.25 9.751v-4.5" fill="none" stroke="#212121" stroke-linecap="round" stroke-linejoin="round" stroke-width="1.5px"></path><path class="a" d="M.75 5.251v6c0 1.843 2.771 3.428 6.738 4.123" fill="none" stroke="#212121" stroke-linecap="round" stroke-linejoin="round" stroke-width="1.5px"></path><path class="a" d="M.75 11.251v6c0 2.277 4.229 4.159 9.717 4.458" fill="none" stroke="#212121" stroke-linecap="round" stroke-linejoin="round" stroke-width="1.5px"></path><path class="a" d="M17.261 23.251l-5.114-5.335a3.026 3.026 0 0 1-.567-3.492 3.026 3.026 0 0 1 4.846-.787l.835.835.835-.835a3.025 3.025 0 0 1 4.845.787 3.026 3.026 0 0 1-.567 3.492z" fill="none" stroke="#212121" stroke-linecap="round" stroke-linejoin="round" stroke-width="1.5px"></path></g></svg>