<svg xmlns="http://www.w3.org/2000/svg" width="24" height="24" viewBox="0 0 24 24"><title>database flash</title><g fill="#212121" class="nc-icon-wrapper"><defs></defs><path class="a" d="M16.49 9.378a26.308 26.308 0 0 1-4.49.373C5.787 9.751.75 7.736.75 5.251S5.787.751 12 .751s11.26 2.014 11.26 4.5A2.915 2.915 0 0 1 21.743 7.5" fill="none" stroke="#212121" stroke-linecap="round" stroke-linejoin="round" stroke-width="1.5px"></path><path class="a" d="M23.26 11.251v-6" fill="none" stroke="#212121" stroke-linecap="round" stroke-linejoin="round" stroke-width="1.5px"></path><path class="a" d="M.75 5.251v6c0 2.374 4.6 4.318 10.424 4.488" fill="none" stroke="#212121" stroke-linecap="round" stroke-linejoin="round" stroke-width="1.5px"></path><path class="a" d="M.75 11.251v6c0 2.78 6.3 4.971 13.5 4.412" fill="none" stroke="#212121" stroke-linecap="round" stroke-linejoin="round" stroke-width="1.5px"></path><path class="a" d="M20.261 9.751l-5.911 6.882a.375.375 0 0 0 .286.618h2.625v6l5.91-6.883a.374.374 0 0 0-.285-.617h-2.625z" fill="none" stroke="#212121" stroke-linecap="round" stroke-linejoin="round" stroke-width="1.5px"></path></g></svg>