<svg xmlns="http://www.w3.org/2000/svg" width="24" height="24" viewBox="0 0 24 24"><title>database clock</title><g fill="#212121" class="nc-icon-wrapper"><defs></defs><circle class="a" cx="17.25" cy="17.251" r="6" fill="none" stroke="#212121" stroke-linecap="round" stroke-linejoin="round" stroke-width="1.5px"></circle><path class="a" d="M19.902 17.251H17.25v-2.652" fill="none" stroke="#212121" stroke-linecap="round" stroke-linejoin="round" stroke-width="1.5px"></path><path class="a" d="M19.611 8.564c2.237-.822 3.639-2 3.639-3.313 0-2.486-5.037-4.5-11.25-4.5S.75 2.765.75 5.251s5.037 4.5 11.25 4.5" fill="none" stroke="#212121" stroke-linecap="round" stroke-linejoin="round" stroke-width="1.5px"></path><path class="a" d="M.75 11.251c0 1.984 3.211 3.668 7.667 4.266" fill="none" stroke="#212121" stroke-linecap="round" stroke-linejoin="round" stroke-width="1.5px"></path><path class="a" d="M.75 5.251v12c0 2.125 3.683 3.906 8.635 4.377" fill="none" stroke="#212121" stroke-linecap="round" stroke-linejoin="round" stroke-width="1.5px"></path><path class="a" d="M23.25 10.543V5.251" fill="none" stroke="#212121" stroke-linecap="round" stroke-linejoin="round" stroke-width="1.5px"></path><path class="a" d="M19.611 8.564c2.237-.822 3.639-2 3.639-3.313 0-2.486-5.037-4.5-11.25-4.5S.75 2.765.75 5.251s5.037 4.5 11.25 4.5" fill="none" stroke="#212121" stroke-linecap="round" stroke-linejoin="round" stroke-width="1.5px"></path><path class="a" d="M.75 11.251c0 1.984 3.211 3.668 7.667 4.266" fill="none" stroke="#212121" stroke-linecap="round" stroke-linejoin="round" stroke-width="1.5px"></path><path class="a" d="M.75 5.251v12c0 2.125 3.683 3.906 8.635 4.377" fill="none" stroke="#212121" stroke-linecap="round" stroke-linejoin="round" stroke-width="1.5px"></path><path class="a" d="M23.25 10.543V5.251" fill="none" stroke="#212121" stroke-linecap="round" stroke-linejoin="round" stroke-width="1.5px"></path></g></svg>