<svg xmlns="http://www.w3.org/2000/svg" width="24" height="24" viewBox="0 0 24 24"><title>database question</title><g fill="#212121" class="nc-icon-wrapper"><defs></defs><path class="a" d="M12 9.751C5.787 9.751.75 7.736.75 5.251S5.787.751 12 .751s11.25 2.014 11.25 4.5c0 1.33-1.443 2.526-3.738 3.349" fill="none" stroke="#212121" stroke-linecap="round" stroke-linejoin="round" stroke-width="1.5px"></path><path class="a" d="M23.25 8.281v-3.03" fill="none" stroke="#212121" stroke-linecap="round" stroke-linejoin="round" stroke-width="1.5px"></path><path class="a" d="M.75 5.251v6c0 1.953 3.112 3.616 7.461 4.238" fill="none" stroke="#212121" stroke-linecap="round" stroke-linejoin="round" stroke-width="1.5px"></path><path class="a" d="M.75 11.251v6c0 2.176 3.863 3.992 9 4.409" fill="none" stroke="#212121" stroke-linecap="round" stroke-linejoin="round" stroke-width="1.5px"></path><circle class="a" cx="17.249" cy="17.251" r="6" fill="none" stroke="#212121" stroke-linecap="round" stroke-linejoin="round" stroke-width="1.5px"></circle><path class="a" d="M15.374 16.126A1.875 1.875 0 1 1 17.249 18" fill="none" stroke="#212121" stroke-linecap="round" stroke-linejoin="round" stroke-width="1.5px"></path><path class="a" d="M17.249 20.251a.375.375 0 1 0 .375.375.374.374 0 0 0-.375-.375" fill="none" stroke="#212121" stroke-linecap="round" stroke-linejoin="round" stroke-width="1.5px"></path></g></svg>