<svg xmlns="http://www.w3.org/2000/svg" width="24" height="24" viewBox="0 0 24 24"><title>dating flowers vase</title><g fill="#212121" class="nc-icon-wrapper"><defs></defs><path class="a" d="M18.692 22.494a4.678 4.678 0 0 0-2.162-6.6L14.51 15l.677-1.693A1.5 1.5 0 0 0 13.8 11.25H7.726a1.5 1.5 0 0 0-1.393 2.057L7.01 15l-2.02.9a4.679 4.679 0 0 0-2.162 6.6 1.5 1.5 0 0 0 1.3.756H17.39a1.5 1.5 0 0 0 1.302-.762z" fill="none" stroke="#212121" stroke-linecap="round" stroke-linejoin="round" stroke-width="1.5px"></path><path class="a" d="M10.54 4.319A1.788 1.788 0 0 0 8.3 2.6a1.779 1.779 0 1 0-3.556 0 1.777 1.777 0 0 0-1.222 3.32 1.777 1.777 0 0 0 3 1.8 1.777 1.777 0 0 0 3-1.8 1.779 1.779 0 0 0 1.018-1.601z" fill="none" stroke="#212121" stroke-linecap="round" stroke-linejoin="round" stroke-width="1.5px"></path><path class="a" d="M21.79 5.069a1.788 1.788 0 0 0-2.237-1.72 1.779 1.779 0 1 0-3.556 0 1.777 1.777 0 0 0-1.225 3.321 1.777 1.777 0 0 0 3 1.8 1.777 1.777 0 0 0 3-1.8 1.779 1.779 0 0 0 1.018-1.601z" fill="none" stroke="#212121" stroke-linecap="round" stroke-linejoin="round" stroke-width="1.5px"></path><path class="a" d="M9.309 7.609a6.157 6.157 0 0 1 .7 3.641" fill="none" stroke="#212121" stroke-linecap="round" stroke-linejoin="round" stroke-width="1.5px"></path><path class="a" d="M14.772 6.67a10.49 10.49 0 0 0-2.512 4.58" fill="none" stroke="#212121" stroke-linecap="round" stroke-linejoin="round" stroke-width="1.5px"></path><path class="a" d="M2.433 18.75h16.654" fill="none" stroke="#212121" stroke-linecap="round" stroke-linejoin="round" stroke-width="1.5px"></path><path class="a" d="M17.585 5.25a.374.374 0 0 1 .375.375" fill="none" stroke="#212121" stroke-linecap="round" stroke-linejoin="round" stroke-width="1.5px"></path><path class="a" d="M17.21 5.625a.375.375 0 0 1 .375-.375" fill="none" stroke="#212121" stroke-linecap="round" stroke-linejoin="round" stroke-width="1.5px"></path><path class="a" d="M17.585 6a.375.375 0 0 1-.375-.375" fill="none" stroke="#212121" stroke-linecap="round" stroke-linejoin="round" stroke-width="1.5px"></path><path class="a" d="M17.96 5.625a.374.374 0 0 1-.375.375" fill="none" stroke="#212121" stroke-linecap="round" stroke-linejoin="round" stroke-width="1.5px"></path><path class="a" d="M6.335 4.583a.374.374 0 0 1 .375.375" fill="none" stroke="#212121" stroke-linecap="round" stroke-linejoin="round" stroke-width="1.5px"></path><path class="a" d="M5.96 4.958a.375.375 0 0 1 .375-.375" fill="none" stroke="#212121" stroke-linecap="round" stroke-linejoin="round" stroke-width="1.5px"></path><path class="a" d="M6.335 5.333a.375.375 0 0 1-.375-.375" fill="none" stroke="#212121" stroke-linecap="round" stroke-linejoin="round" stroke-width="1.5px"></path><path class="a" d="M6.71 4.958a.374.374 0 0 1-.375.375" fill="none" stroke="#212121" stroke-linecap="round" stroke-linejoin="round" stroke-width="1.5px"></path></g></svg>