<svg xmlns="http://www.w3.org/2000/svg" width="24" height="24" viewBox="0 0 24 24"><title>dating calendar</title><g fill="#212121" class="nc-icon-wrapper"><defs></defs><rect class="a" x="1.5" y="3.75" width="21" height="19.5" rx="1.5" ry="1.5" fill="none" stroke="#212121" stroke-linecap="round" stroke-linejoin="round" stroke-width="1.5px"></rect><path class="a" d="M1.5 9.75h21" fill="none" stroke="#212121" stroke-linecap="round" stroke-linejoin="round" stroke-width="1.5px"></path><path class="a" d="M7.5 6V.75" fill="none" stroke="#212121" stroke-linecap="round" stroke-linejoin="round" stroke-width="1.5px"></path><path class="a" d="M16.5 6V.75" fill="none" stroke="#212121" stroke-linecap="round" stroke-linejoin="round" stroke-width="1.5px"></path><path class="a" d="M15.93 13.36a1.856 1.856 0 0 0-2.751 0L12 14.622l-1.179-1.262a1.856 1.856 0 0 0-2.751 0 2.187 2.187 0 0 0 0 2.945l3.511 3.759a.565.565 0 0 0 .838 0l3.511-3.759a2.187 2.187 0 0 0 0-2.945z" fill="none" stroke="#212121" stroke-linecap="round" stroke-linejoin="round" stroke-width="1.5px"></path></g></svg>