<svg xmlns="http://www.w3.org/2000/svg" width="24" height="24" viewBox="0 0 24 24"><title>dating smartphone woman</title><g fill="#212121" class="nc-icon-wrapper"><defs></defs><path class="a" d="M12.75 19.5a4.5 4.5 0 0 0-9 0" fill="none" stroke="#212121" stroke-linecap="round" stroke-linejoin="round" stroke-width="1.5px"></path><circle class="a" cx="8.25" cy="10.5" r="3" fill="none" stroke="#212121" stroke-linecap="round" stroke-linejoin="round" stroke-width="1.5px"></circle><path class="a" d="M5.25 10.5s0 3.75-2.25 3.75" fill="none" stroke="#212121" stroke-linecap="round" stroke-linejoin="round" stroke-width="1.5px"></path><path class="a" d="M11.25 10.5s0 3.75 2.25 3.75" fill="none" stroke="#212121" stroke-linecap="round" stroke-linejoin="round" stroke-width="1.5px"></path><path class="a" d="M15.75 14.25V21a2.25 2.25 0 0 1-2.25 2.25H3A2.25 2.25 0 0 1 .75 21V4.5A2.25 2.25 0 0 1 3 2.25h3.75" fill="none" stroke="#212121" stroke-linecap="round" stroke-linejoin="round" stroke-width="1.5px"></path><path class="a" d="M17.25 11.25l-5.114-5.335a3.023 3.023 0 0 1-.566-3.492 3.025 3.025 0 0 1 4.845-.786l.835.835.835-.835a3.026 3.026 0 0 1 4.846.786 3.025 3.025 0 0 1-.567 3.492z" fill="none" stroke="#212121" stroke-linecap="round" stroke-linejoin="round" stroke-width="1.5px"></path></g></svg>