<svg xmlns="http://www.w3.org/2000/svg" width="24" height="24" viewBox="0 0 24 24"><title>death grave</title><g fill="#212121" class="nc-icon-wrapper"><defs></defs><path class="a" d="M18.106 9.5l-.085-1.017a5.705 5.705 0 0 0-5.686-5.233 5.707 5.707 0 0 0-5.686 5.232L6.565 9.5a3 3 0 0 1-2.99 2.751H2.75a.75.75 0 0 0-.735.9l1.079 5.4a1.5 1.5 0 0 0 1.471 1.199h15.541a1.5 1.5 0 0 0 1.471-1.206l1.079-5.4a.75.75 0 0 0-.735-.9H21.1A3 3 0 0 1 18.106 9.5z" fill="none" stroke="#212121" stroke-linecap="round" stroke-linejoin="round" stroke-width="1.5px"></path><path class="a" d="M2.735 16.75h19.2" fill="none" stroke="#212121" stroke-linecap="round" stroke-linejoin="round" stroke-width="1.5px"></path><path class="a" d="M10.46 7.375l3.75 3.75" fill="none" stroke="#212121" stroke-linecap="round" stroke-linejoin="round" stroke-width="1.5px"></path><path class="a" d="M14.21 7.375l-3.75 3.75" fill="none" stroke="#212121" stroke-linecap="round" stroke-linejoin="round" stroke-width="1.5px"></path></g></svg>