<svg xmlns="http://www.w3.org/2000/svg" width="24" height="24" viewBox="0 0 24 24"><title>death coffin</title><g fill="#212121" class="nc-icon-wrapper"><defs></defs><path class="a" d="M15.419 23.25H8.761a1.5 1.5 0 0 1-1.455-1.136L3.974 8.788a1.5 1.5 0 0 1 .114-1.034l3.087-6.175A1.5 1.5 0 0 1 8.517.75h7.146A1.5 1.5 0 0 1 17 1.579l3.088 6.175a1.5 1.5 0 0 1 .112 1.034l-3.326 13.326a1.5 1.5 0 0 1-1.455 1.136z" fill="none" stroke="#212121" stroke-linecap="round" stroke-linejoin="round" stroke-width="1.5px"></path><path class="a" d="M12.09 5.25V16.5" fill="none" stroke="#212121" stroke-linecap="round" stroke-linejoin="round" stroke-width="1.5px"></path><path class="a" d="M9.09 8.25h6" fill="none" stroke="#212121" stroke-linecap="round" stroke-linejoin="round" stroke-width="1.5px"></path></g></svg>