<svg xmlns="http://www.w3.org/2000/svg" width="24" height="24" viewBox="0 0 24 24"><title>decoration cabin</title><g fill="#212121" class="nc-icon-wrapper"><defs></defs><path class="cls-1" d="M20.25 13.9v-2.65a6 6 0 0 0-4.5-5.811V4.5a3.75 3.75 0 0 0-7.5 0v.939a6 6 0 0 0-4.5 5.811v2.65a14.2 14.2 0 0 1-1.5 6.354h19.5a14.2 14.2 0 0 1-1.5-6.354z" fill="none" stroke="#212121" stroke-linecap="round" stroke-linejoin="round" stroke-width="1.5px"></path><path class="cls-1" d="M2.25 20.25h19.5v3H2.25z" fill="none" stroke="#212121" stroke-linecap="round" stroke-linejoin="round" stroke-width="1.5px"></path><path class="cls-1" d="M.75 20.25h22.5" fill="none" stroke="#212121" stroke-linecap="round" stroke-linejoin="round" stroke-width="1.5px"></path><path class="cls-1" d="M17.25 20.25H6.75v-9a3 3 0 0 1 3-3h4.5a3 3 0 0 1 3 3z" fill="none" stroke="#212121" stroke-linecap="round" stroke-linejoin="round" stroke-width="1.5px"></path><path class="cls-1" d="M12 8.25v12" fill="none" stroke="#212121" stroke-linecap="round" stroke-linejoin="round" stroke-width="1.5px"></path></g></svg>