<svg xmlns="http://www.w3.org/2000/svg" width="24" height="24" viewBox="0 0 24 24"><title>deer body</title><g fill="#212121" class="nc-icon-wrapper"><defs></defs><path class="cls-1" d="M2.75 23.242v-7.5a3.75 3.75 0 0 1 3.75-3.75h6c2.25 0 3-3 3-3h-2.25c-1.5 0-2.25-2.25-2.25-2.25s3-2.25 5.25-2.25h2.25v9a5.958 5.958 0 0 1-3 5.25v4.5" fill="none" stroke="#212121" stroke-linecap="round" stroke-linejoin="round" stroke-width="1.5px"></path><path class="cls-1" d="M12.5 23.242v-4.5H6.103" fill="none" stroke="#212121" stroke-linecap="round" stroke-linejoin="round" stroke-width="1.5px"></path><path class="cls-1" d="M7.25 16.492s0 3.388-4.5 2.963" fill="none" stroke="#212121" stroke-linecap="round" stroke-linejoin="round" stroke-width="1.5px"></path><path class="cls-1" d="M23 .742c0 2.25-2.25 3.75-5.25 3.75h-4.5A4.018 4.018 0 0 1 9.5.742" fill="none" stroke="#212121" stroke-linecap="round" stroke-linejoin="round" stroke-width="1.5px"></path><path class="cls-1" d="M19.25 2.242v2.116" fill="none" stroke="#212121" stroke-linecap="round" stroke-linejoin="round" stroke-width="1.5px"></path><path class="cls-1" d="M13.25 2.242v2.25" fill="none" stroke="#212121" stroke-linecap="round" stroke-linejoin="round" stroke-width="1.5px"></path><path class="cls-1" d="M3.5 13.492a2.664 2.664 0 0 1-2.25-1.5" fill="none" stroke="#212121" stroke-linecap="round" stroke-linejoin="round" stroke-width="1.5px"></path></g></svg>