<svg xmlns="http://www.w3.org/2000/svg" width="24" height="24" viewBox="0 0 24 24"><title>deforestation axe forbidden</title><g fill="#212121" class="nc-icon-wrapper"><defs></defs><path class="cls-1" d="M10.046 9.752L8.584 8.289" fill="none" stroke="#212121" stroke-linecap="round" stroke-linejoin="round" stroke-width="1.5px"></path><path class="cls-1" d="M16.492 11.958L21.3 16.77a1.5 1.5 0 1 1-2.12 2.119l-4.943-4.943" fill="none" stroke="#212121" stroke-linecap="round" stroke-linejoin="round" stroke-width="1.5px"></path><path class="cls-1" d="M10.415 5.88l1.618 1.619" fill="none" stroke="#212121" stroke-linecap="round" stroke-linejoin="round" stroke-width="1.5px"></path><path class="cls-1" d="M11.786 3.655a.7.7 0 0 1-.059 1.045c-3.4 2.717-3.975 5.345-4.05 6.477a.749.749 0 0 1-.672.7 5.684 5.684 0 0 1-6.042-6.27.749.749 0 0 1 .711-.672c1.112-.051 3.637-.575 6.311-3.9A.75.75 0 0 1 9.1.969z" fill="none" stroke="#212121" stroke-linecap="round" stroke-linejoin="round" stroke-width="1.5px"></path><path class="cls-1" d="M.743 23.25l22.5-22.5" fill="none" stroke="#212121" stroke-linecap="round" stroke-linejoin="round" stroke-width="1.5px"></path></g></svg>