<svg xmlns="http://www.w3.org/2000/svg" width="24" height="24" viewBox="0 0 24 24"><title>delivery parachute</title><g fill="#212121" class="nc-icon-wrapper"><defs></defs><path class="a" d="M6.75 21.75l6-6" fill="none" stroke="#212121" stroke-linecap="round" stroke-linejoin="round" stroke-width="1.5px"></path><path class="a" d="M10.5 23.25l6.75-7.5" fill="none" stroke="#212121" stroke-linecap="round" stroke-linejoin="round" stroke-width="1.5px"></path><path class="a" d="M17.25 22.083a1.113 1.113 0 0 1-1.05 1.167H7.8a1.113 1.113 0 0 1-1.05-1.167v-8.166A1.113 1.113 0 0 1 7.8 12.75h8.4a1.113 1.113 0 0 1 1.05 1.167z" fill="none" stroke="#212121" stroke-linecap="round" stroke-linejoin="round" stroke-width="1.5px"></path><path class="a" d="M6.75 15.75h10.5" fill="none" stroke="#212121" stroke-linecap="round" stroke-linejoin="round" stroke-width="1.5px"></path><path class="a" d="M9 8.105l2.25 4.645" fill="none" stroke="#212121" stroke-linecap="round" stroke-linejoin="round" stroke-width="1.5px"></path><path class="a" d="M3 8.105l5.469 4.645" fill="none" stroke="#212121" stroke-linecap="round" stroke-linejoin="round" stroke-width="1.5px"></path><path class="a" d="M15 8.105l-2.25 4.645" fill="none" stroke="#212121" stroke-linecap="round" stroke-linejoin="round" stroke-width="1.5px"></path><path class="a" d="M21 8.105l-5.469 4.645" fill="none" stroke="#212121" stroke-linecap="round" stroke-linejoin="round" stroke-width="1.5px"></path><path class="a" d="M21.866 8.105a.717.717 0 0 0 .5-.188.394.394 0 0 0 .111-.417C21.257 3.964 17.029.75 12 .75S2.743 3.963 1.521 7.5a.394.394 0 0 0 .111.417.716.716 0 0 0 .5.188z" fill="none" stroke="#212121" stroke-linecap="round" stroke-linejoin="round" stroke-width="1.5px"></path></g></svg>