<svg xmlns="http://www.w3.org/2000/svg" width="24" height="24" viewBox="0 0 24 24"><title>delivery person motorcycle 1</title><g fill="#212121" class="nc-icon-wrapper"><defs></defs><path class="a" d="M.75 20.25v-1.5a3 3 0 0 1 3-3h4.5a3 3 0 0 1 3 3 1.5 1.5 0 0 0 1.5 1.5h6V9.75a1.5 1.5 0 0 0-1.5-1.5h-1.5" fill="none" stroke="#212121" stroke-linecap="round" stroke-linejoin="round" stroke-width="1.5px"></path><circle class="a" cx="6" cy="21" r="2.25" fill="none" stroke="#212121" stroke-linecap="round" stroke-linejoin="round" stroke-width="1.5px"></circle><path class="a" d="M21.75 21a2.25 2.25 0 0 1-4.5 0v-.75h4.5z" fill="none" stroke="#212121" stroke-linecap="round" stroke-linejoin="round" stroke-width="1.5px"></path><path class="a" d="M22.5 20.25a.751.751 0 0 0 .735-.9 4.585 4.585 0 0 0-4.485-3.6v4.5z" fill="none" stroke="#212121" stroke-linecap="round" stroke-linejoin="round" stroke-width="1.5px"></path><path class="a" d="M21.75 11.25a1.5 1.5 0 0 1-1.5 1.5h-1.5v-3h1.5a1.5 1.5 0 0 1 1.5 1.5z" fill="none" stroke="#212121" stroke-linecap="round" stroke-linejoin="round" stroke-width="1.5px"></path><path class="a" d="M11.25 12.75h-9a1.5 1.5 0 0 0 0 3h9a1.5 1.5 0 0 0 0-3z" fill="none" stroke="#212121" stroke-linecap="round" stroke-linejoin="round" stroke-width="1.5px"></path><rect class="a" x="2.25" y=".75" width="9" height="9" rx="1" ry="1" fill="none" stroke="#212121" stroke-linecap="round" stroke-linejoin="round" stroke-width="1.5px"></rect><path class="a" d="M8.25 4.125L7.125 3.75 5.25 5.625l.375 1.125" fill="none" stroke="#212121" stroke-linecap="round" stroke-linejoin="round" stroke-width="1.5px"></path></g></svg>