<svg xmlns="http://www.w3.org/2000/svg" width="24" height="24" viewBox="0 0 24 24"><title>delivery man give</title><g fill="#212121" class="nc-icon-wrapper"><defs></defs><path class="a" d="M7.484 20.11c0 .5-.562.9-1.251.894-1.377-.007-2.49-.817-2.486-1.81v-.9c0-.993 1.125-1.793 2.5-1.787.688 0 1.245.409 1.242.9z" fill="none" stroke="#212121" stroke-linecap="round" stroke-linejoin="round" stroke-width="1.5px"></path><path class="a" d="M16.51 20.11c0 .5.563.9 1.253.894 1.38-.007 2.494-.817 2.49-1.81v-.9c0-.993-1.127-1.793-2.507-1.787-.69 0-1.247.409-1.245.9z" fill="none" stroke="#212121" stroke-linecap="round" stroke-linejoin="round" stroke-width="1.5px"></path><path class="a" d="M18 21v.75a1.5 1.5 0 0 1-1.5 1.5H7.49a1.5 1.5 0 0 1-1.5-1.5V21" fill="none" stroke="#212121" stroke-linecap="round" stroke-linejoin="round" stroke-width="1.5px"></path><path class="a" d="M5.99 16.5v-2.25a1.5 1.5 0 0 1 1.5-1.5h9.01a1.5 1.5 0 0 1 1.5 1.5v2.25" fill="none" stroke="#212121" stroke-linecap="round" stroke-linejoin="round" stroke-width="1.5px"></path><path class="a" d="M10.498 12.75h3v4.5h-3z" fill="none" stroke="#212121" stroke-linecap="round" stroke-linejoin="round" stroke-width="1.5px"></path><path class="a" d="M6.747 6.75V3.9a1.522 1.522 0 0 1 .909-1.4l3.75-1.627a1.481 1.481 0 0 1 1.182 0l3.75 1.627a1.52 1.52 0 0 1 .909 1.4v2.85" fill="none" stroke="#212121" stroke-linecap="round" stroke-linejoin="round" stroke-width="1.5px"></path><path class="a" d="M12 3.374a.375.375 0 1 0 .375.375.375.375 0 0 0-.375-.375" fill="none" stroke="#212121" stroke-linecap="round" stroke-linejoin="round" stroke-width="1.5px"></path><path class="a" d="M5.247 6.75h13.5" fill="none" stroke="#212121" stroke-linecap="round" stroke-linejoin="round" stroke-width="1.5px"></path><path class="a" d="M9.092 10.187A4.493 4.493 0 0 1 7.5 6.75" fill="none" stroke="#212121" stroke-linecap="round" stroke-linejoin="round" stroke-width="1.5px"></path><path class="a" d="M16.5 6.75a4.49 4.49 0 0 1-1.6 3.437" fill="none" stroke="#212121" stroke-linecap="round" stroke-linejoin="round" stroke-width="1.5px"></path></g></svg>