<svg xmlns="http://www.w3.org/2000/svg" width="24" height="24" viewBox="0 0 24 24"><title>delivery person motorcycle</title><g fill="#212121" class="nc-icon-wrapper"><defs></defs><path class="a" d="M16.125 3.75h-6" fill="none" stroke="#212121" stroke-linecap="round" stroke-linejoin="round" stroke-width="1.5px"></path><path class="a" d="M19.875 17.39a2.932 2.932 0 0 1 2.99 2.343.49.49 0 0 1-.1.406.308.308 0 0 1-.379.111h-9.233a.883.883 0 0 1-.978-.909v-.006A2.835 2.835 0 0 0 9.34 16.5H6.216a2.835 2.835 0 0 0-2.835 2.835v.984" fill="none" stroke="#212121" stroke-linecap="round" stroke-linejoin="round" stroke-width="1.5px"></path><path class="a" d="M18.375 12h1.5v8.25" fill="none" stroke="#212121" stroke-linecap="round" stroke-linejoin="round" stroke-width="1.5px"></path><path class="a" d="M9.34 16.5h3.785" fill="none" stroke="#212121" stroke-linecap="round" stroke-linejoin="round" stroke-width="1.5px"></path><rect class="a" x="1.125" y="8.25" width="6" height="5.25" rx=".75" ry=".75" fill="none" stroke="#212121" stroke-linecap="round" stroke-linejoin="round" stroke-width="1.5px"></rect><path class="a" d="M19.875 13.139l1.915-.761a.919.919 0 0 1 .729.026.582.582 0 0 1 .356.507v2.243a.582.582 0 0 1-.356.507.919.919 0 0 1-.729.026l-1.915-.761" fill="none" stroke="#212121" stroke-linecap="round" stroke-linejoin="round" stroke-width="1.5px"></path><circle class="a" cx="7.875" cy="21" r="2.25" fill="none" stroke="#212121" stroke-linecap="round" stroke-linejoin="round" stroke-width="1.5px"></circle><path class="a" d="M16.946 20.245a2.582 2.582 0 0 0-.071.6 2.255 2.255 0 1 0 4.5 0 2.558 2.558 0 0 0-.071-.6" fill="none" stroke="#212121" stroke-linecap="round" stroke-linejoin="round" stroke-width="1.5px"></path><path class="a" d="M4.125 8.25v2.25" fill="none" stroke="#212121" stroke-linecap="round" stroke-linejoin="round" stroke-width="1.5px"></path><path class="a" d="M17.625 9.75c-4.048-2.64-4.1-2.884-5.523-2.884a1.967 1.967 0 0 0-1.977 1.954V12a1.5 1.5 0 0 0 1.5 1.5h1.5a3 3 0 0 1 2.846 2.051L16.787 18" fill="none" stroke="#212121" stroke-linecap="round" stroke-linejoin="round" stroke-width="1.5px"></path><path class="a" d="M11.625.75h1.5a1.5 1.5 0 0 1 1.5 1.5v1.5h-4.5v-1.5a1.5 1.5 0 0 1 1.5-1.5z" fill="none" stroke="#212121" stroke-linecap="round" stroke-linejoin="round" stroke-width="1.5px"></path></g></svg>