<svg xmlns="http://www.w3.org/2000/svg" width="24" height="24" viewBox="0 0 24 24"><title>design tool pen station</title><g fill="#212121" class="nc-icon-wrapper"><defs></defs><path class="a" d="M2.161.76c2.6 2.331 1.975 1.39 3.324 2.259a2.164 2.164 0 0 1 .783.929 2.25 2.25 0 1 1-4.107 1.839 5.686 5.686 0 0 1 0-5.027z" fill="none" stroke="#212121" stroke-linecap="round" stroke-linejoin="round" stroke-width="1.5px"></path><path class="a" d="M4.228 7.117l.931 2.643" fill="none" stroke="#212121" stroke-linecap="round" stroke-linejoin="round" stroke-width="1.5px"></path><path class="a" d="M11.911 23.26h-4.5a4.5 4.5 0 0 1-4.5-4.5v-9h13.5v9a4.5 4.5 0 0 1-4.5 4.5z" fill="none" stroke="#212121" stroke-linecap="round" stroke-linejoin="round" stroke-width="1.5px"></path><path class="a" d="M17.911 18.76h-1.5v-9h1.5a4.5 4.5 0 0 1 4.5 4.5 4.5 4.5 0 0 1-4.5 4.5z" fill="none" stroke="#212121" stroke-linecap="round" stroke-linejoin="round" stroke-width="1.5px"></path><path class="a" d="M6.24 5.848L8.668 9.76" fill="none" stroke="#212121" stroke-linecap="round" stroke-linejoin="round" stroke-width="1.5px"></path><path class="a" d="M9.644 9.76l2.023-5.731L15.074.74l.587 4.698-1.525 4.322" fill="none" stroke="#212121" stroke-linecap="round" stroke-linejoin="round" stroke-width="1.5px"></path><path class="a" d="M15.426 6.1a3.528 3.528 0 0 1-3.994-1.41" fill="none" stroke="#212121" stroke-linecap="round" stroke-linejoin="round" stroke-width="1.5px"></path></g></svg>