<svg xmlns="http://www.w3.org/2000/svg" width="24" height="24" viewBox="0 0 24 24"><title>design tool ink</title><g fill="#212121" class="nc-icon-wrapper"><defs></defs><rect class="a" x="3" y=".75" width="18" height="6" rx=".75" ry=".75" fill="none" stroke="#212121" stroke-linecap="round" stroke-linejoin="round" stroke-width="1.5px"></rect><path class="a" d="M19.872 10.248A4.205 4.205 0 0 1 18 6.75H6a4.205 4.205 0 0 1-1.872 3.5l-.624.416a4.5 4.5 0 0 0-2 3.744v5.84a3 3 0 0 0 3 3h15a3 3 0 0 0 3-3v-5.842a4.5 4.5 0 0 0-2-3.744z" fill="none" stroke="#212121" stroke-linecap="round" stroke-linejoin="round" stroke-width="1.5px"></path><path class="a" d="M7.5.75v6" fill="none" stroke="#212121" stroke-linecap="round" stroke-linejoin="round" stroke-width="1.5px"></path><path class="a" d="M16.5.75v6" fill="none" stroke="#212121" stroke-linecap="round" stroke-linejoin="round" stroke-width="1.5px"></path><path class="a" d="M12 .75v6" fill="none" stroke="#212121" stroke-linecap="round" stroke-linejoin="round" stroke-width="1.5px"></path><path class="a" d="M14.25 16.5A2.025 2.025 0 0 1 12 18.75a2.025 2.025 0 0 1-2.25-2.25c0-1.657 2.25-3.75 2.25-3.75s2.25 2.093 2.25 3.75z" fill="none" stroke="#212121" stroke-linecap="round" stroke-linejoin="round" stroke-width="1.5px"></path></g></svg>