<svg xmlns="http://www.w3.org/2000/svg" width="24" height="24" viewBox="0 0 24 24"><title>design tool compass</title><g fill="#212121" class="nc-icon-wrapper"><defs></defs><path class="a" d="M14.625 6.75h-4.5V3a2.25 2.25 0 0 1 2.25-2.25A2.25 2.25 0 0 1 14.625 3z" fill="none" stroke="#212121" stroke-linecap="round" stroke-linejoin="round" stroke-width="1.5px"></path><path class="a" d="M4.125 18.75V21l-1.5 2.25-1.5-2.25V9.75a1.5 1.5 0 0 1 1.5-1.5 1.5 1.5 0 0 1 1.5 1.5v4.5" fill="none" stroke="#212121" stroke-linecap="round" stroke-linejoin="round" stroke-width="1.5px"></path><path class="a" d="M1.125 18.75h4.5l9-12 7.222 10.505a1.891 1.891 0 0 1-.424 2.584 1.89 1.89 0 0 1-2.673-.414l-6.644-9.316" fill="none" stroke="#212121" stroke-linecap="round" stroke-linejoin="round" stroke-width="1.5px"></path><path class="a" d="M10.125 6.75l-6 7.5" fill="none" stroke="#212121" stroke-linecap="round" stroke-linejoin="round" stroke-width="1.5px"></path><path class="a" d="M21.423 19.839l1.452 1.911" fill="none" stroke="#212121" stroke-linecap="round" stroke-linejoin="round" stroke-width="1.5px"></path><path class="a" d="M1.125 14.25h3" fill="none" stroke="#212121" stroke-linecap="round" stroke-linejoin="round" stroke-width="1.5px"></path></g></svg>