<svg xmlns="http://www.w3.org/2000/svg" width="24" height="24" viewBox="0 0 24 24"><title>design tool pen</title><g fill="#212121" class="nc-icon-wrapper"><defs></defs><path class="a" d="M11.25 18.4A5.064 5.064 0 0 1 6 23.25 5.064 5.064 0 0 1 .75 18.4V8.691a2.025 2.025 0 0 1 2.1-1.941h6.3a2.025 2.025 0 0 1 2.1 1.941z" fill="none" stroke="#212121" stroke-linecap="round" stroke-linejoin="round" stroke-width="1.5px"></path><path class="a" d="M.75 12h10.5" fill="none" stroke="#212121" stroke-linecap="round" stroke-linejoin="round" stroke-width="1.5px"></path><path class="a" d="M21 .75L18.75 4.5v10.75a2.136 2.136 0 0 0 2.25 2 2.136 2.136 0 0 0 2.25-2V4.5z" fill="none" stroke="#212121" stroke-linecap="round" stroke-linejoin="round" stroke-width="1.5px"></path><path class="a" d="M6 12V5.25a4.5 4.5 0 0 1 4.5-4.5 4.5 4.5 0 0 1 4.5 4.5V19.5a3 3 0 0 0 3 3 3 3 0 0 0 3-3v-2.25" fill="none" stroke="#212121" stroke-linecap="round" stroke-linejoin="round" stroke-width="1.5px"></path><path class="a" d="M18.75 14.25h4.5" fill="none" stroke="#212121" stroke-linecap="round" stroke-linejoin="round" stroke-width="1.5px"></path><path class="a" d="M18.75 6h4.5" fill="none" stroke="#212121" stroke-linecap="round" stroke-linejoin="round" stroke-width="1.5px"></path></g></svg>