<svg xmlns="http://www.w3.org/2000/svg" width="24" height="24" viewBox="0 0 24 24"><title>design tool paper glue</title><g fill="#212121" class="nc-icon-wrapper"><defs></defs><path class="a" d="M9.255 20.067l-5.3-5.3a.749.749 0 0 1 0-1.06l9.714-9.714 6.364 6.364-9.714 9.714a.752.752 0 0 1-1.064-.004z" fill="none" stroke="#212121" stroke-linecap="round" stroke-linejoin="round" stroke-width="1.5px"></path><path class="a" d="M9.145 19.957l-5.083-5.084-2.769 2.768C-.94 19.875 4.272 25.427 6.8 22.3z" fill="none" stroke="#212121" stroke-linecap="round" stroke-linejoin="round" stroke-width="1.5px"></path><path class="a" d="M20.03 10.353l-6.364-6.364 2.781-2.781a1.5 1.5 0 0 1 2.121 0l4.243 4.242a1.5 1.5 0 0 1 0 2.122z" fill="none" stroke="#212121" stroke-linecap="round" stroke-linejoin="round" stroke-width="1.5px"></path><path class="a" d="M20.78 3.42l-3.842 3.841" fill="none" stroke="#212121" stroke-linecap="round" stroke-linejoin="round" stroke-width="1.5px"></path><path class="a" d="M13.737 10.462l-2.561 2.562" fill="none" stroke="#212121" stroke-linecap="round" stroke-linejoin="round" stroke-width="1.5px"></path></g></svg>