<svg xmlns="http://www.w3.org/2000/svg" width="24" height="24" viewBox="0 0 24 24"><title>design tool pens</title><g fill="#212121" class="nc-icon-wrapper"><defs></defs><path class="a" d="M19.594.75s.025 1.572 2 3.712a4.139 4.139 0 0 1 .315.36 2.9 2.9 0 1 1-5.221 1.741A6.851 6.851 0 0 1 19.594.75z" fill="none" stroke="#212121" stroke-linecap="round" stroke-linejoin="round" stroke-width="1.5px"></path><path class="a" d="M19.594 23.25a2.146 2.146 0 0 0 2.139-2.318L20.726 9.24a2.908 2.908 0 0 1-2.3-.018l-.968 11.71a2.147 2.147 0 0 0 2.136 2.318z" fill="none" stroke="#212121" stroke-linecap="round" stroke-linejoin="round" stroke-width="1.5px"></path><path class="a" d="M13.5 6L11.25.75 9 6v15a2.25 2.25 0 0 0 2.25 2.25A2.25 2.25 0 0 0 13.5 21z" fill="none" stroke="#212121" stroke-linecap="round" stroke-linejoin="round" stroke-width="1.5px"></path><path class="a" d="M9 6l2.25 1.5L13.5 6" fill="none" stroke="#212121" stroke-linecap="round" stroke-linejoin="round" stroke-width="1.5px"></path><path class="a" d="M9 19.5h4.5" fill="none" stroke="#212121" stroke-linecap="round" stroke-linejoin="round" stroke-width="1.5px"></path><path class="a" d="M9 16.5h4.5" fill="none" stroke="#212121" stroke-linecap="round" stroke-linejoin="round" stroke-width="1.5px"></path><path class="a" d="M6 18l-2.25 5.25L1.5 18V3A2.25 2.25 0 0 1 3.75.75 2.25 2.25 0 0 1 6 3z" fill="none" stroke="#212121" stroke-linecap="round" stroke-linejoin="round" stroke-width="1.5px"></path><path class="a" d="M1.5 18H6" fill="none" stroke="#212121" stroke-linecap="round" stroke-linejoin="round" stroke-width="1.5px"></path><path class="a" d="M1.5 4.5H6" fill="none" stroke="#212121" stroke-linecap="round" stroke-linejoin="round" stroke-width="1.5px"></path><path class="a" d="M1.5 12H6" fill="none" stroke="#212121" stroke-linecap="round" stroke-linejoin="round" stroke-width="1.5px"></path></g></svg>