<svg xmlns="http://www.w3.org/2000/svg" width="24" height="24" viewBox="0 0 24 24"><title>design tool fibonacci</title><g fill="#212121" class="nc-icon-wrapper"><defs></defs><path class="a" d="M6.237.75C12.1 1.3 19.5 5.775 19.5 14.446c0 6.063-4.218 8.4-8.25 8.8" fill="none" stroke="#212121" stroke-linecap="round" stroke-linejoin="round" stroke-width="1.5px"></path><path class="a" d="M9.364 14.446a3.289 3.289 0 0 1 1.115.708 2.486 2.486 0 0 1 0 3.6 2.159 2.159 0 0 1-2.979 0" fill="none" stroke="#212121" stroke-linecap="round" stroke-linejoin="round" stroke-width="1.5px"></path><path class="a" d="M6 .75h12.5a1 1 0 0 1 1 1v20.5a1 1 0 0 1-1 1H7.36a2.86 2.86 0 0 1-2.86-2.86V2.25A1.5 1.5 0 0 1 6 .75z" fill="none" stroke="#212121" stroke-linecap="round" stroke-linejoin="round" stroke-width="1.5px"></path><path class="a" d="M19.5 14.446h-15" fill="none" stroke="#212121" stroke-linecap="round" stroke-linejoin="round" stroke-width="1.5px"></path><path class="a" d="M11.25 14.446v8.804" fill="none" stroke="#212121" stroke-linecap="round" stroke-linejoin="round" stroke-width="1.5px"></path></g></svg>