<svg xmlns="http://www.w3.org/2000/svg" width="24" height="24" viewBox="0 0 24 24"><title>desktop computer 3</title><g fill="#212121" class="nc-icon-wrapper"><defs></defs><rect class="a" x="6.728" y=".75" width="10.5" height="19.5" rx="1.5" ry="1.5" fill="none" stroke="#212121" stroke-linecap="round" stroke-linejoin="round" stroke-width="1.5px"></rect><path class="a" d="M11.228.75v19.5" fill="none" stroke="#212121" stroke-linecap="round" stroke-linejoin="round" stroke-width="1.5px"></path><path class="a" d="M17.228 5.25h-6" fill="none" stroke="#212121" stroke-linecap="round" stroke-linejoin="round" stroke-width="1.5px"></path><path class="a" d="M17.228 9.75h-6" fill="none" stroke="#212121" stroke-linecap="round" stroke-linejoin="round" stroke-width="1.5px"></path><path class="a" d="M14.228 15.375a.375.375 0 1 0 .375.375.375.375 0 0 0-.375-.375" fill="none" stroke="#212121" stroke-linecap="round" stroke-linejoin="round" stroke-width="1.5px"></path><path class="a" d="M17.228 14.25h1.919a1.5 1.5 0 0 1 1.423 1.026l2 6a1.5 1.5 0 0 1-1.423 1.974H2.809a1.5 1.5 0 0 1-1.423-1.974l2-6a1.5 1.5 0 0 1 1.423-1.026h1.919" fill="none" stroke="#212121" stroke-linecap="round" stroke-linejoin="round" stroke-width="1.5px"></path></g></svg>