<svg xmlns="http://www.w3.org/2000/svg" width="24" height="24" viewBox="0 0 24 24"><title>desktop monitor back</title><g fill="#212121" class="nc-icon-wrapper"><defs></defs><path class="a" d="M15.759 21.75h-7.5L9.55 14a1.5 1.5 0 0 1 1.48-1.253h1.958A1.5 1.5 0 0 1 14.468 14z" fill="none" stroke="#212121" stroke-linecap="round" stroke-linejoin="round" stroke-width="1.5px"></path><path class="a" d="M8.259 21.75h10.5" fill="none" stroke="#212121" stroke-linecap="round" stroke-linejoin="round" stroke-width="1.5px"></path><path class="a" d="M15.009 17.25h6.42a1.5 1.5 0 0 0 1.471-1.794l-2.4-12a1.5 1.5 0 0 0-1.471-1.206H2.589a1.5 1.5 0 0 0-1.471 1.794l2.4 12a1.5 1.5 0 0 0 1.471 1.206h4.02" fill="none" stroke="#212121" stroke-linecap="round" stroke-linejoin="round" stroke-width="1.5px"></path><path class="a" d="M18.759 14.25h-1.5" fill="none" stroke="#212121" stroke-linecap="round" stroke-linejoin="round" stroke-width="1.5px"></path></g></svg>