<svg xmlns="http://www.w3.org/2000/svg" width="24" height="24" viewBox="0 0 24 24"><title>diagram arrow corner point right</title><g fill="#212121" class="nc-icon-wrapper"><defs></defs><path class="cls-1" d="M23.011 6.951L16.862.853c-.2-.185-.362-.114-.362.158V4.5H2.25A1.5 1.5 0 0 0 .75 6v15.75a1.5 1.5 0 0 0 1.5 1.5H4.5a1.5 1.5 0 0 0 1.5-1.5V12a1.5 1.5 0 0 1 1.5-1.5h9v3.489c0 .272.163.343.362.158l6.149-6.1a.75.75 0 0 0 0-1.1z" fill="none" stroke="#212121" stroke-linecap="round" stroke-linejoin="round" stroke-width="1.5px"></path></g></svg>