<svg xmlns="http://www.w3.org/2000/svg" width="24" height="24" viewBox="0 0 24 24"><title>diagram arrow diagonal</title><g fill="#212121" class="nc-icon-wrapper"><defs></defs><path class="cls-1" d="M16.408 20.279l-2.131 2.593c-.172.207-.093.377.176.378h8.308a.488.488 0 0 0 .489-.487v-8.34c0-.269-.168-.347-.374-.174L20.3 16.418" fill="none" stroke="#212121" stroke-linecap="round" stroke-linejoin="round" stroke-width="1.5px"></path><path class="cls-1" d="M20.318 16.369L7.581 3.702" fill="none" stroke="#212121" stroke-linecap="round" stroke-linejoin="round" stroke-width="1.5px"></path><path class="cls-1" d="M3.72 7.592l12.688 12.687" fill="none" stroke="#212121" stroke-linecap="round" stroke-linejoin="round" stroke-width="1.5px"></path><path class="cls-1" d="M3.72 7.592L1.128 9.723C.921 9.9.751 9.816.75 9.547V1.239A.488.488 0 0 1 1.237.75h8.34c.269 0 .347.168.174.374L7.581 3.7" fill="none" stroke="#212121" stroke-linecap="round" stroke-linejoin="round" stroke-width="1.5px"></path></g></svg>