<svg xmlns="http://www.w3.org/2000/svg" width="24" height="24" viewBox="0 0 24 24"><title>diagram arrow diagonal 1</title><g fill="#212121" class="nc-icon-wrapper"><defs></defs><path class="cls-1" d="M3.721 16.408l-2.593-2.131c-.207-.172-.377-.093-.378.176v8.308a.488.488 0 0 0 .487.489h8.34c.269 0 .347-.168.174-.374L7.582 20.3" fill="none" stroke="#212121" stroke-linecap="round" stroke-linejoin="round" stroke-width="1.5px"></path><path class="cls-1" d="M7.631 20.318L20.298 7.581" fill="none" stroke="#212121" stroke-linecap="round" stroke-linejoin="round" stroke-width="1.5px"></path><path class="cls-1" d="M16.408 3.72L3.721 16.408" fill="none" stroke="#212121" stroke-linecap="round" stroke-linejoin="round" stroke-width="1.5px"></path><path class="cls-1" d="M16.408 3.72l-2.131-2.592c-.172-.207-.093-.377.176-.378h8.308a.488.488 0 0 1 .489.487v8.34c0 .269-.168.347-.374.174L20.3 7.581" fill="none" stroke="#212121" stroke-linecap="round" stroke-linejoin="round" stroke-width="1.5px"></path></g></svg>