<svg xmlns="http://www.w3.org/2000/svg" width="24" height="24" viewBox="0 0 24 24"><title>diamond hold</title><g fill="#212121" class="nc-icon-wrapper"><defs></defs><path class="a" d="M16.279 9.327a4.723 4.723 0 0 1 2.258 3.8 2.8 2.8 0 0 1-.7 1.97l-.994 1.136a1.884 1.884 0 0 1-2.75.091l-1.935-1.935a1.412 1.412 0 0 0-2 2l3.51 3.981a3.766 3.766 0 0 1 1.1 2.663v.208" fill="none" stroke="#212121" stroke-linecap="round" stroke-linejoin="round" stroke-width="1.5px"></path><path class="a" d="M23.25 23.242v-9.179a10.409 10.409 0 0 0-.414-2.555 7.688 7.688 0 0 0-4.459-4.957" fill="none" stroke="#212121" stroke-linecap="round" stroke-linejoin="round" stroke-width="1.5px"></path><path class="a" d="M.879 5.492h14.742" fill="none" stroke="#212121" stroke-linecap="round" stroke-linejoin="round" stroke-width="1.5px"></path><path class="a" d="M3.47.75a.935.935 0 0 0-.831.5L.84 4.705a.771.771 0 0 0 .129.9l6.648 6.988a.886.886 0 0 0 1.266 0l6.648-6.988a.771.771 0 0 0 .129-.9l-1.947-3.476A.937.937 0 0 0 12.9.75z" fill="none" stroke="#212121" stroke-linecap="round" stroke-linejoin="round" stroke-width="1.5px"></path><path class="a" d="M.75 14.992h3" fill="none" stroke="#212121" stroke-linecap="round" stroke-linejoin="round" stroke-width="1.5px"></path><path class="a" d="M2.25 13.492v3" fill="none" stroke="#212121" stroke-linecap="round" stroke-linejoin="round" stroke-width="1.5px"></path><path class="a" d="M20.25 2.242h3" fill="none" stroke="#212121" stroke-linecap="round" stroke-linejoin="round" stroke-width="1.5px"></path><path class="a" d="M21.75.742v3" fill="none" stroke="#212121" stroke-linecap="round" stroke-linejoin="round" stroke-width="1.5px"></path><path class="a" d="M4.459.75l3.749 12.108" fill="none" stroke="#212121" stroke-linecap="round" stroke-linejoin="round" stroke-width="1.5px"></path><path class="a" d="M12.041.75L8.292 12.858" fill="none" stroke="#212121" stroke-linecap="round" stroke-linejoin="round" stroke-width="1.5px"></path></g></svg>