<svg xmlns="http://www.w3.org/2000/svg" width="24" height="24" viewBox="0 0 24 24"><title>diamond give</title><g fill="#212121" class="nc-icon-wrapper"><defs></defs><path class="a" d="M4.087 5.242h15.826" fill="none" stroke="#212121" stroke-linecap="round" stroke-linejoin="round" stroke-width="1.5px"></path><path class="a" d="M8.561.742h6.878a.755.755 0 0 1 .531.22l3.724 3.724a.751.751 0 0 1-.026 1.086l-7.163 6.512a.751.751 0 0 1-1.01 0L4.332 5.772a.751.751 0 0 1-.026-1.086L8.03.962a.755.755 0 0 1 .531-.22z" fill="none" stroke="#212121" stroke-linecap="round" stroke-linejoin="round" stroke-width="1.5px"></path><path class="a" d="M8.269.802l3.647 11.672" fill="none" stroke="#212121" stroke-linecap="round" stroke-linejoin="round" stroke-width="1.5px"></path><path class="a" d="M15.731.802l-3.647 11.672" fill="none" stroke="#212121" stroke-linecap="round" stroke-linejoin="round" stroke-width="1.5px"></path><path class="a" d="M3.75 23.242l-2.014-2.517a4.5 4.5 0 0 1-.986-2.811v-5.172a1.5 1.5 0 0 1 1.5-1.5 1.5 1.5 0 0 1 1.5 1.5v3.75" fill="none" stroke="#212121" stroke-linecap="round" stroke-linejoin="round" stroke-width="1.5px"></path><path class="a" d="M8.25 23.106v-3a4.5 4.5 0 0 0-.757-2.5L6.351 15.9a1.4 1.4 0 0 0-1.977-.444 1.4 1.4 0 0 0-.476 1.79l1.352 2.25" fill="none" stroke="#212121" stroke-linecap="round" stroke-linejoin="round" stroke-width="1.5px"></path><path class="a" d="M20.25 23.242l2.014-2.517a4.5 4.5 0 0 0 .986-2.811v-5.172a1.5 1.5 0 0 0-1.5-1.5 1.5 1.5 0 0 0-1.5 1.5v3.75" fill="none" stroke="#212121" stroke-linecap="round" stroke-linejoin="round" stroke-width="1.5px"></path><path class="a" d="M15.75 23.106v-3a4.5 4.5 0 0 1 .757-2.5l1.142-1.706a1.4 1.4 0 0 1 1.977-.444 1.4 1.4 0 0 1 .476 1.79l-1.352 2.25" fill="none" stroke="#212121" stroke-linecap="round" stroke-linejoin="round" stroke-width="1.5px"></path></g></svg>