<svg xmlns="http://www.w3.org/2000/svg" width="24" height="24" viewBox="0 0 24 24"><title>diet waist</title><g fill="#212121" class="nc-icon-wrapper"><defs></defs><path class="cls-1" d="M5.25.75s1.5 1.5 1.5 6c0 5.25-4.5 6-4.5 12a6.57 6.57 0 0 0 1.5 4.5" fill="none" stroke="#212121" stroke-linecap="round" stroke-linejoin="round" stroke-width="1.5px"></path><path class="cls-1" d="M18.75.75s-1.5 1.5-1.5 6c0 5.25 4.5 6 4.5 12a6.57 6.57 0 0 1-1.5 4.5" fill="none" stroke="#212121" stroke-linecap="round" stroke-linejoin="round" stroke-width="1.5px"></path><path class="cls-1" d="M.75 3.75l2.47 2.47a.749.749 0 0 1 0 1.06L.75 9.75" fill="none" stroke="#212121" stroke-linecap="round" stroke-linejoin="round" stroke-width="1.5px"></path><path class="cls-1" d="M23.25 3.75l-2.47 2.47a.749.749 0 0 0 0 1.06l2.47 2.47" fill="none" stroke="#212121" stroke-linecap="round" stroke-linejoin="round" stroke-width="1.5px"></path><path class="cls-1" d="M12 23.25v-3" fill="none" stroke="#212121" stroke-linecap="round" stroke-linejoin="round" stroke-width="1.5px"></path><path class="cls-1" d="M9.75 18L12 20.25 14.25 18" fill="none" stroke="#212121" stroke-linecap="round" stroke-linejoin="round" stroke-width="1.5px"></path></g></svg>