<svg xmlns="http://www.w3.org/2000/svg" width="24" height="24" viewBox="0 0 24 24"><title>disability blind read book 1</title><g fill="#212121" class="nc-icon-wrapper"><defs></defs><path class="a" d="M6.844 4.435a.559.559 0 0 1 0-.62A6.522 6.522 0 0 1 12 .75a6.522 6.522 0 0 1 5.156 3.065.559.559 0 0 1 0 .62A6.522 6.522 0 0 1 12 7.5a6.522 6.522 0 0 1-5.156-3.065z" fill="none" stroke="#212121" stroke-linecap="round" stroke-linejoin="round" stroke-width="1.5px"></path><path class="a" d="M14.476 1.361L9.524 6.889" fill="none" stroke="#212121" stroke-linecap="round" stroke-linejoin="round" stroke-width="1.5px"></path><path class="a" d="M12 23.25l-8.778-3.34a1.406 1.406 0 0 1-.972-1.338V11.25a1.406 1.406 0 0 1 1.841-1.337L12 12.971z" fill="none" stroke="#212121" stroke-linecap="round" stroke-linejoin="round" stroke-width="1.5px"></path><path class="a" d="M20.778 19.91L12 23.25V12.971l7.909-3.058a1.406 1.406 0 0 1 1.841 1.337v7.322a1.406 1.406 0 0 1-.972 1.338z" fill="none" stroke="#212121" stroke-linecap="round" stroke-linejoin="round" stroke-width="1.5px"></path><path class="a" d="M15.75 15.75L18 15" fill="none" stroke="#212121" stroke-linecap="round" stroke-linejoin="round" stroke-width="1.5px"></path></g></svg>