<svg xmlns="http://www.w3.org/2000/svg" width="24" height="24" viewBox="0 0 24 24"><title>disability walking help</title><g fill="#212121" class="nc-icon-wrapper"><defs></defs><path class="a" d="M15.75 11.25a1.5 1.5 0 0 0-1.5-1.5c-3.448 0-4.62-2.1-4.658-2.171a1.571 1.571 0 0 0-1.376-.829 1.5 1.5 0 0 0-1.337.891l-6 13.5a1.5 1.5 0 0 0 2.742 1.219L6.1 16.777a2.964 2.964 0 0 1 1.4 2.5v2.473a1.5 1.5 0 0 0 3 0v-2.468A5.959 5.959 0 0 0 7.334 14l1.351-3.039a8.751 8.751 0 0 0 5.565 1.789 1.5 1.5 0 0 0 1.5-1.5z" fill="none" stroke="#212121" stroke-linecap="round" stroke-linejoin="round" stroke-width="1.5px"></path><circle class="a" cx="10.5" cy="3.375" r="2.625" fill="none" stroke="#212121" stroke-linecap="round" stroke-linejoin="round" stroke-width="1.5px"></circle><circle class="a" cx="21.75" cy="21.75" r="1.5" fill="none" stroke="#212121" stroke-linecap="round" stroke-linejoin="round" stroke-width="1.5px"></circle><circle class="a" cx="14.25" cy="21.75" r="1.5" fill="none" stroke="#212121" stroke-linecap="round" stroke-linejoin="round" stroke-width="1.5px"></circle><path class="a" d="M15.75 11.25h1.408a3 3 0 0 1 2.91 2.273l1.682 6.727" fill="none" stroke="#212121" stroke-linecap="round" stroke-linejoin="round" stroke-width="1.5px"></path><path class="a" d="M14.25 20.25l.75-1.864a3 3 0 0 1 2.781-1.886h3.032" fill="none" stroke="#212121" stroke-linecap="round" stroke-linejoin="round" stroke-width="1.5px"></path></g></svg>