<svg xmlns="http://www.w3.org/2000/svg" width="24" height="24" viewBox="0 0 24 24"><title>disability blind read finger</title><g fill="#212121" class="nc-icon-wrapper"><defs></defs><path class="a" d="M8.817 18.418a19.96 19.96 0 0 0-6.66-1.307A1.5 1.5 0 0 1 .75 15.6V2.253a1.5 1.5 0 0 1 1.607-1.5c6.3.329 9.624 2.574 9.643 4.3" fill="none" stroke="#212121" stroke-linecap="round" stroke-linejoin="round" stroke-width="1.5px"></path><path class="a" d="M23.25 16.5V2.253a1.5 1.5 0 0 0-1.607-1.5c-6.3.329-9.624 2.574-9.643 4.3" fill="none" stroke="#212121" stroke-linecap="round" stroke-linejoin="round" stroke-width="1.5px"></path><path class="a" d="M12 5.051v3.902" fill="none" stroke="#212121" stroke-linecap="round" stroke-linejoin="round" stroke-width="1.5px"></path><path class="a" d="M3.75 13.1a.375.375 0 1 1 .375.375.375.375 0 0 1-.375-.375" fill="none" stroke="#212121" stroke-linecap="round" stroke-linejoin="round" stroke-width="1.5px"></path><path class="a" d="M3.75 8.6a.375.375 0 1 1 .375.375.375.375 0 0 1-.375-.375" fill="none" stroke="#212121" stroke-linecap="round" stroke-linejoin="round" stroke-width="1.5px"></path><path class="a" d="M3.75 4.1a.375.375 0 1 1 .375.375.375.375 0 0 1-.375-.375" fill="none" stroke="#212121" stroke-linecap="round" stroke-linejoin="round" stroke-width="1.5px"></path><path class="a" d="M8.25 7.1a.375.375 0 1 1 .375.375.375.375 0 0 1-.375-.375" fill="none" stroke="#212121" stroke-linecap="round" stroke-linejoin="round" stroke-width="1.5px"></path><path class="a" d="M8.25 11.625a.375.375 0 1 1 .375.375.375.375 0 0 1-.375-.375" fill="none" stroke="#212121" stroke-linecap="round" stroke-linejoin="round" stroke-width="1.5px"></path><path class="a" d="M19.5 10.875a.375.375 0 1 1 .375.375.375.375 0 0 1-.375-.375" fill="none" stroke="#212121" stroke-linecap="round" stroke-linejoin="round" stroke-width="1.5px"></path><path class="a" d="M15 7.125a.375.375 0 1 1 .375.375.375.375 0 0 1-.375-.375" fill="none" stroke="#212121" stroke-linecap="round" stroke-linejoin="round" stroke-width="1.5px"></path><path class="a" d="M19.5 6.375a.375.375 0 1 1 .375.375.375.375 0 0 1-.375-.375" fill="none" stroke="#212121" stroke-linecap="round" stroke-linejoin="round" stroke-width="1.5px"></path><path class="a" d="M23.136 23.25l.1-1.122a3 3 0 0 0-2.337-3.2l-3.651-.811v-5.742a1.875 1.875 0 0 0-3.75 0v9.2l-1.477-1.108a1.533 1.533 0 0 0-2.146 2.146l.474.632" fill="none" stroke="#212121" stroke-linecap="round" stroke-linejoin="round" stroke-width="1.5px"></path></g></svg>