<svg xmlns="http://www.w3.org/2000/svg" width="24" height="24" viewBox="0 0 24 24"><title>disability microphone</title><g fill="#212121" class="nc-icon-wrapper"><defs></defs><path class="a" d="M23.25 23.15V7.55a1.5 1.5 0 0 0-.794-1.323l-9.75-5.2a1.5 1.5 0 0 0-1.412 0l-9.75 5.2A1.5 1.5 0 0 0 .75 7.55v15.6" fill="none" stroke="#212121" stroke-linecap="round" stroke-linejoin="round" stroke-width="1.5px"></path><path class="a" d="M8.25 23.15h7.5" fill="none" stroke="#212121" stroke-linecap="round" stroke-linejoin="round" stroke-width="1.5px"></path><path class="a" d="M12 18.65v4.5" fill="none" stroke="#212121" stroke-linecap="round" stroke-linejoin="round" stroke-width="1.5px"></path><path class="a" d="M17.25 13.4a5.25 5.25 0 0 1-10.5 0" fill="none" stroke="#212121" stroke-linecap="round" stroke-linejoin="round" stroke-width="1.5px"></path><path class="a" d="M15 9.65a3 3 0 1 0-6 0v3a3 3 0 0 0 6 0z" fill="none" stroke="#212121" stroke-linecap="round" stroke-linejoin="round" stroke-width="1.5px"></path><path class="a" d="M9 9.65h6" fill="none" stroke="#212121" stroke-linecap="round" stroke-linejoin="round" stroke-width="1.5px"></path></g></svg>