<svg xmlns="http://www.w3.org/2000/svg" width="24" height="24" viewBox="0 0 24 24"><title>dislike 2</title><g fill="#212121" class="nc-icon-wrapper"><defs></defs><path class="a" d="M18.75 2.248a5.954 5.954 0 0 1-1.558-.229L13.558.981A6 6 0 0 0 11.911.75H7.026a6 6 0 0 0-5.97 5.4l-.3 5.1a4.5 4.5 0 0 0 3.4 4.594l1.455.318a1.5 1.5 0 0 1 1.139 1.455V21a2.25 2.25 0 0 0 4.5 0v-1.554a7.5 7.5 0 0 1 7.5-7.5z" fill="none" stroke="#212121" stroke-linecap="round" stroke-linejoin="round" stroke-width="1.5px"></path><path class="a" d="M18.75.75h4.5v13.5h-4.5z" fill="none" stroke="#212121" stroke-linecap="round" stroke-linejoin="round" stroke-width="1.5px"></path></g></svg>