<svg xmlns="http://www.w3.org/2000/svg" width="24" height="24" viewBox="0 0 24 24"><title>diving oxygen</title><g fill="#212121" class="nc-icon-wrapper"><defs></defs><path class="cls-1" d="M3.75 6.75h-1.5a1.5 1.5 0 0 1-1.5-1.5v-1.5a3 3 0 0 1 3-3h3v3a3 3 0 0 1-3 3z" fill="none" stroke="#212121" stroke-linecap="round" stroke-linejoin="round" stroke-width="1.5px"></path><path class="cls-1" d="M11.25 6.75h-1.5a3 3 0 0 1-3-3v-3h3a3 3 0 0 1 3 3v1.5a1.5 1.5 0 0 1-1.5 1.5z" fill="none" stroke="#212121" stroke-linecap="round" stroke-linejoin="round" stroke-width="1.5px"></path><circle class="cls-1" cx="6.75" cy="10.5" r="2.25" fill="none" stroke="#212121" stroke-linecap="round" stroke-linejoin="round" stroke-width="1.5px"></circle><path class="cls-1" d="M15.75 12.75h7.5v7.5h-7.5z" fill="none" stroke="#212121" stroke-linecap="round" stroke-linejoin="round" stroke-width="1.5px"></path><path class="cls-1" d="M6.75 12.75v7.5a3 3 0 0 0 3 3h3" fill="none" stroke="#212121" stroke-linecap="round" stroke-linejoin="round" stroke-width="1.5px"></path><path class="cls-1" d="M17.25 7.5v-3a.75.75 0 0 1 .75-.75h3a.75.75 0 0 1 .75.75v3" fill="none" stroke="#212121" stroke-linecap="round" stroke-linejoin="round" stroke-width="1.5px"></path><path class="cls-1" d="M15.75 10.5a3.75 3.75 0 0 1 7.5 0v11.25a1.5 1.5 0 0 1-1.5 1.5h-4.5a1.5 1.5 0 0 1-1.5-1.5z" fill="none" stroke="#212121" stroke-linecap="round" stroke-linejoin="round" stroke-width="1.5px"></path></g></svg>