<svg xmlns="http://www.w3.org/2000/svg" width="24" height="24" viewBox="0 0 24 24"><title>diving diver</title><g fill="#212121" class="nc-icon-wrapper"><defs></defs><circle class="cls-1" cx="19.5" cy="12.5" r="2.25" fill="none" stroke="#212121" stroke-linecap="round" stroke-linejoin="round" stroke-width="1.5px"></circle><path class="cls-1" d="M5.266 13.263a.752.752 0 0 1 .45.149L9.5 16.25h6.25a1.506 1.506 0 0 1 .744.2l5.25 3a1.5 1.5 0 1 1-1.488 2.6l-4.9-2.8H9a1.493 1.493 0 0 1-.9-.3l-5.784-4.339a.75.75 0 0 1 .45-1.35z" fill="none" stroke="#212121" stroke-linecap="round" stroke-linejoin="round" stroke-width="1.5px"></path><path class="cls-1" d="M14.25 12.5a.75.75 0 0 1-.75.75H9.75a1.5 1.5 0 0 1 0-3h3.75a.75.75 0 0 1 .75.75z" fill="none" stroke="#212121" stroke-linecap="round" stroke-linejoin="round" stroke-width="1.5px"></path><path class="cls-1" d="M4.854 16.514l2.644-1.763" fill="none" stroke="#212121" stroke-linecap="round" stroke-linejoin="round" stroke-width="1.5px"></path><path class="cls-1" d="M.75 3.9A4.668 4.668 0 0 0 4.5 2a4.668 4.668 0 0 0 3.75 1.9A4.668 4.668 0 0 0 12 2a4.668 4.668 0 0 0 3.75 1.9A4.668 4.668 0 0 0 19.5 2a4.668 4.668 0 0 0 3.75 1.9" fill="none" stroke="#212121" stroke-linecap="round" stroke-linejoin="round" stroke-width="1.5px"></path></g></svg>