<svg xmlns="http://www.w3.org/2000/svg" width="24" height="24" viewBox="0 0 24 24"><title>diving gun</title><g fill="#212121" class="nc-icon-wrapper"><defs></defs><path class="cls-1" d="M1.043 17.675l1.214-1.213a1 1 0 0 1 1.414 0l2.97 2.97-1.92 1.92a1 1 0 0 1-1.415 0L1.043 19.09a1 1 0 0 1 0-1.414z" fill="none" stroke="#212121" stroke-linecap="round" stroke-linejoin="round" stroke-width="1.5px"></path><path class="cls-1" d="M11.169 14.905l-4.527 4.527-2.628-2.627L12.422 8.4a5.911 5.911 0 0 1-1.253 6.505z" fill="none" stroke="#212121" stroke-linecap="round" stroke-linejoin="round" stroke-width="1.5px"></path><path class="cls-1" d="M12.889 10.367L23.246.75H19.53" fill="none" stroke="#212121" stroke-linecap="round" stroke-linejoin="round" stroke-width="1.5px"></path><path class="cls-1" d="M22.2 1.8L22 5.158c-.188 3.187-3.557 5.5-6.741 5.713l-2.364.153" fill="none" stroke="#212121" stroke-linecap="round" stroke-linejoin="round" stroke-width="1.5px"></path><path class="cls-1" d="M9.4 20.609a1.486 1.486 0 0 1-.315 1.637l-.363.363a1.487 1.487 0 0 1-2.422-.465l-.711-1.661 2.627-2.627z" fill="none" stroke="#212121" stroke-linecap="round" stroke-linejoin="round" stroke-width="1.5px"></path><path class="cls-1" d="M10.106 15.968l1.25 1.875" fill="none" stroke="#212121" stroke-linecap="round" stroke-linejoin="round" stroke-width="1.5px"></path></g></svg>