<svg xmlns="http://www.w3.org/2000/svg" width="24" height="24" viewBox="0 0 24 24"><title>dog poop clean</title><g fill="#212121" class="nc-icon-wrapper"><defs></defs><circle class="cls-1" cx="10.25" cy="3.625" r="2.625" fill="none" stroke="#212121" stroke-linecap="round" stroke-linejoin="round" stroke-width="1.5px"></circle><path class="cls-1" d="M5 15.625H3.5a1.5 1.5 0 0 1 0-3H5a1.5 1.5 0 0 0 1.5-1.5 3 3 0 0 1 3-3H11a3 3 0 0 1 3 3v4.5a1.5 1.5 0 0 1-1.5 1.5v3.75a2.25 2.25 0 0 1-4.5 0v-6" fill="none" stroke="#212121" stroke-linecap="round" stroke-linejoin="round" stroke-width="1.5px"></path><path class="cls-1" d="M5.75 19.375a2.25 2.25 0 0 1-4.5 0c0-1.243 2.25-3.75 2.25-3.75s2.25 2.507 2.25 3.75z" fill="none" stroke="#212121" stroke-linecap="round" stroke-linejoin="round" stroke-width="1.5px"></path><path class="cls-1" d="M15.5 23.125v-3.464a1.036 1.036 0 0 1 1.036-1.036h2.714l1.5-2.25 1.866 2.488a1.036 1.036 0 0 1-1.293 1.548l-.573-.286" fill="none" stroke="#212121" stroke-linecap="round" stroke-linejoin="round" stroke-width="1.5px"></path><path class="cls-1" d="M18.5 21.625v1.5" fill="none" stroke="#212121" stroke-linecap="round" stroke-linejoin="round" stroke-width="1.5px"></path><path class="cls-1" d="M18.5 18.625l-4.5-4.5" fill="none" stroke="#212121" stroke-linecap="round" stroke-linejoin="round" stroke-width="1.5px"></path></g></svg>