<svg xmlns="http://www.w3.org/2000/svg" width="24" height="24" viewBox="0 0 24 24"><title>dress 2</title><g fill="#212121" class="nc-icon-wrapper"><defs></defs><path class="cls-1" d="M9.69 3.75a2.566 2.566 0 0 0-2.434 3.377l.831 2.493a15.9 15.9 0 0 0 7.826 0l.831-2.493A2.566 2.566 0 0 0 14.31 3.75a1.512 1.512 0 0 0-1.259.674l-.427.64a.75.75 0 0 1-1.248 0l-.427-.64A1.512 1.512 0 0 0 9.69 3.75z" fill="none" stroke="#212121" stroke-linecap="round" stroke-linejoin="round" stroke-width="1.5px"></path><path class="cls-1" d="M8.087 9.554L4.7 20.971a.977.977 0 0 0 .581 1.172 20.95 20.95 0 0 0 13.44 0 .979.979 0 0 0 .581-1.172L15.913 9.554" fill="none" stroke="#212121" stroke-linecap="round" stroke-linejoin="round" stroke-width="1.5px"></path><path class="cls-1" d="M5.683 17.657a17.348 17.348 0 0 0 12.634 0" fill="none" stroke="#212121" stroke-linecap="round" stroke-linejoin="round" stroke-width="1.5px"></path><path class="cls-1" d="M9 3.761V.75" fill="none" stroke="#212121" stroke-linecap="round" stroke-linejoin="round" stroke-width="1.5px"></path><path class="cls-1" d="M15 3.761V.75" fill="none" stroke="#212121" stroke-linecap="round" stroke-linejoin="round" stroke-width="1.5px"></path></g></svg>