<svg xmlns="http://www.w3.org/2000/svg" width="24" height="24" viewBox="0 0 24 24"><title>dress</title><g fill="#212121" class="nc-icon-wrapper"><defs></defs><path class="cls-1" d="M5.25 16.5v6a.75.75 0 0 0 .75.75h12a.75.75 0 0 0 .75-.75v-6c0-2.121-1.547-4.013-3.076-5.25H8.326C6.8 12.487 5.25 14.379 5.25 16.5z" fill="none" stroke="#212121" stroke-linecap="round" stroke-linejoin="round" stroke-width="1.5px"></path><path class="cls-1" d="M12 6a5.239 5.239 0 0 1-4.021-1.875 5.249 5.249 0 0 0 .347 7.125h7.348a5.249 5.249 0 0 0 .347-7.125A5.239 5.239 0 0 1 12 6z" fill="none" stroke="#212121" stroke-linecap="round" stroke-linejoin="round" stroke-width="1.5px"></path><path class="cls-1" d="M8.25 4.422V.75" fill="none" stroke="#212121" stroke-linecap="round" stroke-linejoin="round" stroke-width="1.5px"></path><path class="cls-1" d="M15.75 4.423V.75" fill="none" stroke="#212121" stroke-linecap="round" stroke-linejoin="round" stroke-width="1.5px"></path></g></svg>