<svg xmlns="http://www.w3.org/2000/svg" width="24" height="24" viewBox="0 0 24 24"><title>dressing mirror 1</title><g fill="#212121" class="nc-icon-wrapper"><defs></defs><path class="cls-1" d="M17.25 20.25H6.75a1.5 1.5 0 0 1-1.5-1.5v-3h13.5v3a1.5 1.5 0 0 1-1.5 1.5z" fill="none" stroke="#212121" stroke-linecap="round" stroke-linejoin="round" stroke-width="1.5px"></path><path class="cls-1" d="M6.75 20.25v3" fill="none" stroke="#212121" stroke-linecap="round" stroke-linejoin="round" stroke-width="1.5px"></path><path class="cls-1" d="M17.25 20.25v3" fill="none" stroke="#212121" stroke-linecap="round" stroke-linejoin="round" stroke-width="1.5px"></path><rect class="cls-1" x="3.75" y="12.75" width="16.5" height="3" rx=".75" ry=".75" fill="none" stroke="#212121" stroke-linecap="round" stroke-linejoin="round" stroke-width="1.5px"></rect><path class="cls-1" d="M16.8 12.75a8.745 8.745 0 0 0 1.2-4.5c0-4.142-2.686-7.5-6-7.5s-6 3.358-6 7.5a8.745 8.745 0 0 0 1.2 4.5z" fill="none" stroke="#212121" stroke-linecap="round" stroke-linejoin="round" stroke-width="1.5px"></path></g></svg>