<svg xmlns="http://www.w3.org/2000/svg" width="24" height="24" viewBox="0 0 24 24"><title>drone camera</title><g fill="#212121" class="nc-icon-wrapper"><defs></defs><path class="a" d="M21.75 6.565h-2.988a4.363 4.363 0 0 1-3.34-1.421 4.5 4.5 0 0 0-6.844 0 4.362 4.362 0 0 1-3.34 1.421H2.25a1.5 1.5 0 0 0 0 3h2.988a4.362 4.362 0 0 1 3.34 1.421 4.5 4.5 0 0 0 6.844 0 4.363 4.363 0 0 1 3.34-1.421h2.988a1.5 1.5 0 1 0 0-3z" fill="none" stroke="#212121" stroke-linecap="round" stroke-linejoin="round" stroke-width="1.5px"></path><path class="a" d="M.75 2.065h1.5" fill="none" stroke="#212121" stroke-linecap="round" stroke-linejoin="round" stroke-width="1.5px"></path><path class="a" d="M5.25 2.065h1.5" fill="none" stroke="#212121" stroke-linecap="round" stroke-linejoin="round" stroke-width="1.5px"></path><path class="a" d="M3.75 3.565v3" fill="none" stroke="#212121" stroke-linecap="round" stroke-linejoin="round" stroke-width="1.5px"></path><path class="a" d="M17.25 2.065h1.5" fill="none" stroke="#212121" stroke-linecap="round" stroke-linejoin="round" stroke-width="1.5px"></path><path class="a" d="M21.75 2.065h1.5" fill="none" stroke="#212121" stroke-linecap="round" stroke-linejoin="round" stroke-width="1.5px"></path><path class="a" d="M20.25 3.565v3" fill="none" stroke="#212121" stroke-linecap="round" stroke-linejoin="round" stroke-width="1.5px"></path><path class="a" d="M6.75 12.565a8.88 8.88 0 0 0-4.3 5.641 1.515 1.515 0 0 0 1.464 1.859H5.25" fill="none" stroke="#212121" stroke-linecap="round" stroke-linejoin="round" stroke-width="1.5px"></path><path class="a" d="M17.25 12.565a8.88 8.88 0 0 1 4.3 5.641 1.515 1.515 0 0 1-1.464 1.859H18.75" fill="none" stroke="#212121" stroke-linecap="round" stroke-linejoin="round" stroke-width="1.5px"></path><circle class="a" cx="12" cy="18.565" r="3.375" fill="none" stroke="#212121" stroke-linecap="round" stroke-linejoin="round" stroke-width="1.5px"></circle><path class="a" d="M12 18.19a.375.375 0 1 0 .375.375.375.375 0 0 0-.375-.375" fill="none" stroke="#212121" stroke-linecap="round" stroke-linejoin="round" stroke-width="1.5px"></path></g></svg>