<svg xmlns="http://www.w3.org/2000/svg" width="24" height="24" viewBox="0 0 24 24"><title>e commerce touch buy</title><g fill="#212121" class="nc-icon-wrapper"><defs></defs><path class="a" d="M23.022 23.25l.1-1.122a3 3 0 0 0-2.337-3.2L16.613 18v-6a1.5 1.5 0 0 0-3 0v9.75l-1.7-1.278a1.532 1.532 0 0 0-2.145 2.145l.474.633" fill="none" stroke="#212121" stroke-linecap="round" stroke-linejoin="round" stroke-width="1.5px"></path><path class="a" d="M10.613 14.25h-8.25a1.5 1.5 0 0 1-1.5-1.5V2.25a1.5 1.5 0 0 1 1.5-1.5h2.25" fill="none" stroke="#212121" stroke-linecap="round" stroke-linejoin="round" stroke-width="1.5px"></path><path class="a" d="M16.613.75h2.25a1.5 1.5 0 0 1 1.5 1.5v10.5a1.5 1.5 0 0 1-1.5 1.5" fill="none" stroke="#212121" stroke-linecap="round" stroke-linejoin="round" stroke-width="1.5px"></path><path class="a" d="M9.863 14.25v3" fill="none" stroke="#212121" stroke-linecap="round" stroke-linejoin="round" stroke-width="1.5px"></path><path class="a" d="M7.613 17.25h3" fill="none" stroke="#212121" stroke-linecap="round" stroke-linejoin="round" stroke-width="1.5px"></path><path class="a" d="M15.391 7.528l.375-1a1.5 1.5 0 0 0-1.4-2.026H6.691a1.5 1.5 0 0 0-1.405 2.024l1.308 3.487a.749.749 0 0 0 .7.487h3.317" fill="none" stroke="#212121" stroke-linecap="round" stroke-linejoin="round" stroke-width="1.5px"></path><path class="a" d="M6.776 4.5l1.5-3.75" fill="none" stroke="#212121" stroke-linecap="round" stroke-linejoin="round" stroke-width="1.5px"></path><path class="a" d="M14.276 4.5l-1.5-3.75" fill="none" stroke="#212121" stroke-linecap="round" stroke-linejoin="round" stroke-width="1.5px"></path></g></svg>