<svg xmlns="http://www.w3.org/2000/svg" width="24" height="24" viewBox="0 0 24 24"><title>e commerce basket browser</title><g fill="#212121" class="nc-icon-wrapper"><defs></defs><path class="a" d="M19.5 21.75h2.25a1.5 1.5 0 0 0 1.5-1.5V3.865a1.62 1.62 0 0 0-1.616-1.615H2.357A1.612 1.612 0 0 0 .75 3.857v16.277a1.62 1.62 0 0 0 1.615 1.616H4.5" fill="none" stroke="#212121" stroke-linecap="round" stroke-linejoin="round" stroke-width="1.5px"></path><path class="a" d="M.75 6.75h22.5" fill="none" stroke="#212121" stroke-linecap="round" stroke-linejoin="round" stroke-width="1.5px"></path><path class="a" d="M15.749 15.75H8.078a1.5 1.5 0 0 0-1.4 2.026l1.308 3.487a.748.748 0 0 0 .7.487h6.46a.751.751 0 0 0 .7-.487l1.307-3.487a1.5 1.5 0 0 0-1.404-2.026z" fill="none" stroke="#212121" stroke-linecap="round" stroke-linejoin="round" stroke-width="1.5px"></path><path class="a" d="M8.163 15.75l1.5-3.75" fill="none" stroke="#212121" stroke-linecap="round" stroke-linejoin="round" stroke-width="1.5px"></path><path class="a" d="M15.663 15.75l-1.5-3.75" fill="none" stroke="#212121" stroke-linecap="round" stroke-linejoin="round" stroke-width="1.5px"></path><path class="a" d="M10.5 19.5V18" fill="none" stroke="#212121" stroke-linecap="round" stroke-linejoin="round" stroke-width="1.5px"></path><path class="a" d="M13.5 19.5V18" fill="none" stroke="#212121" stroke-linecap="round" stroke-linejoin="round" stroke-width="1.5px"></path></g></svg>