<svg xmlns="http://www.w3.org/2000/svg" width="24" height="24" viewBox="0 0 24 24"><title>e commerce buy</title><g fill="#212121" class="nc-icon-wrapper"><defs></defs><path class="a" d="M16.356 16.355l2.651 6.895 1.591-2.652 2.652-1.591-6.894-2.652z" fill="none" stroke="#212121" stroke-linecap="round" stroke-linejoin="round" stroke-width="1.5px"></path><path class="a" d="M23.25 23.25l-2.652-2.652" fill="none" stroke="#212121" stroke-linecap="round" stroke-linejoin="round" stroke-width="1.5px"></path><path class="a" d="M4.5 12V4.5" fill="none" stroke="#212121" stroke-linecap="round" stroke-linejoin="round" stroke-width="1.5px"></path><path class="a" d="M4.5 4.5H6A1.5 1.5 0 0 1 7.5 6v.75A1.5 1.5 0 0 1 6 8.25H4.5" fill="none" stroke="#212121" stroke-linecap="round" stroke-linejoin="round" stroke-width="1.5px"></path><path class="a" d="M4.5 8.25H6a1.5 1.5 0 0 1 1.5 1.5v.75A1.5 1.5 0 0 1 6 12H4.5" fill="none" stroke="#212121" stroke-linecap="round" stroke-linejoin="round" stroke-width="1.5px"></path><path class="a" d="M10.5 4.5v6a1.5 1.5 0 0 0 3 0v-6" fill="none" stroke="#212121" stroke-linecap="round" stroke-linejoin="round" stroke-width="1.5px"></path><path class="a" d="M16.5 4.5v2.25a1.5 1.5 0 0 0 3 0V4.5" fill="none" stroke="#212121" stroke-linecap="round" stroke-linejoin="round" stroke-width="1.5px"></path><path class="a" d="M18 8.25V12" fill="none" stroke="#212121" stroke-linecap="round" stroke-linejoin="round" stroke-width="1.5px"></path><path class="a" d="M12.75 15.75h-9a3 3 0 0 1-3-3v-9a3 3 0 0 1 3-3h16.5a3 3 0 0 1 3 3v9a3 3 0 0 1-1.541 2.622" fill="none" stroke="#212121" stroke-linecap="round" stroke-linejoin="round" stroke-width="1.5px"></path></g></svg>