<svg xmlns="http://www.w3.org/2000/svg" width="24" height="24" viewBox="0 0 24 24"><title>e commerce open basket</title><g fill="#212121" class="nc-icon-wrapper"><defs></defs><path class="a" d="M3.75 5.25A2.147 2.147 0 0 1 5.9 3.1" fill="none" stroke="#212121" stroke-linecap="round" stroke-linejoin="round" stroke-width="1.5px"></path><path class="a" d="M.75 4.687A3.937 3.937 0 0 1 4.687.75" fill="none" stroke="#212121" stroke-linecap="round" stroke-linejoin="round" stroke-width="1.5px"></path><path class="a" d="M10.5 16.5H7.673a1.267 1.267 0 0 1-1.231-.952l-1.9-6.487A1.26 1.26 0 0 1 5.77 7.5h13.21a1.259 1.259 0 0 1 1.231 1.561l-.311 1.055" fill="none" stroke="#212121" stroke-linecap="round" stroke-linejoin="round" stroke-width="1.5px"></path><path class="a" d="M16.5 7.5l-.829-3.75" fill="none" stroke="#212121" stroke-linecap="round" stroke-linejoin="round" stroke-width="1.5px"></path><path class="a" d="M9 7.5l.828-3.75" fill="none" stroke="#212121" stroke-linecap="round" stroke-linejoin="round" stroke-width="1.5px"></path><path class="a" d="M23.135 23.25l.1-1.122a3 3 0 0 0-2.337-3.2L16.726 18v-6a1.5 1.5 0 1 0-3 0v9.75l-1.7-1.278a1.532 1.532 0 0 0-2.145 2.145l.474.633" fill="none" stroke="#212121" stroke-linecap="round" stroke-linejoin="round" stroke-width="1.5px"></path></g></svg>