<svg xmlns="http://www.w3.org/2000/svg" width="24" height="24" viewBox="0 0 24 24"><title>e commerce shop</title><g fill="#212121" class="nc-icon-wrapper"><defs></defs><path class="a" d="M20.25 11.25v3a1.5 1.5 0 0 1-1.5 1.5H5.25a1.5 1.5 0 0 1-1.5-1.5v-3" fill="none" stroke="#212121" stroke-linecap="round" stroke-linejoin="round" stroke-width="1.5px"></path><path class="a" d="M21.748 23.25H2.252A1.5 1.5 0 0 1 .91 21.079l1.836-3.671a3 3 0 0 1 2.683-1.658h13.142a3 3 0 0 1 2.683 1.658l1.836 3.671a1.5 1.5 0 0 1-1.342 2.171z" fill="none" stroke="#212121" stroke-linecap="round" stroke-linejoin="round" stroke-width="1.5px"></path><path class="a" d="M10.5 20.25h3" fill="none" stroke="#212121" stroke-linecap="round" stroke-linejoin="round" stroke-width="1.5px"></path><path class="a" d="M21.148.75H2.852a.751.751 0 0 0-.733.587L.75 6a2.25 2.25 0 0 0 4.5 0 2.25 2.25 0 0 0 4.5 0 2.25 2.25 0 0 0 4.5 0 2.25 2.25 0 0 0 4.5 0 2.25 2.25 0 0 0 4.5 0l-1.37-4.663a.749.749 0 0 0-.732-.587z" fill="none" stroke="#212121" stroke-linecap="round" stroke-linejoin="round" stroke-width="1.5px"></path></g></svg>