<svg xmlns="http://www.w3.org/2000/svg" width="24" height="24" viewBox="0 0 24 24"><title>e learning share</title><g fill="#212121" class="nc-icon-wrapper"><defs></defs><circle class="a" cx="12" cy="3.736" r="2.25" fill="none" stroke="#212121" stroke-linecap="round" stroke-linejoin="round" stroke-width="1.5px"></circle><path class="a" d="M7.974 7.369l2.251-2.251" fill="none" stroke="#212121" stroke-linecap="round" stroke-linejoin="round" stroke-width="1.5px"></path><circle class="a" cx="6.75" cy="8.236" r="1.5" fill="none" stroke="#212121" stroke-linecap="round" stroke-linejoin="round" stroke-width="1.5px"></circle><path class="a" d="M16.026 7.369l-2.251-2.251" fill="none" stroke="#212121" stroke-linecap="round" stroke-linejoin="round" stroke-width="1.5px"></path><circle class="a" cx="17.25" cy="8.236" r="1.5" fill="none" stroke="#212121" stroke-linecap="round" stroke-linejoin="round" stroke-width="1.5px"></circle><path class="a" d="M3.75 22.5l-2.014-2.516a4.5 4.5 0 0 1-.986-2.811V12a1.5 1.5 0 0 1 1.5-1.5 1.5 1.5 0 0 1 1.5 1.5v3.75" fill="none" stroke="#212121" stroke-linecap="round" stroke-linejoin="round" stroke-width="1.5px"></path><path class="a" d="M8.25 22.5v-3.135a4.5 4.5 0 0 0-.757-2.5l-1.142-1.71a1.4 1.4 0 0 0-1.977-.445A1.4 1.4 0 0 0 3.9 16.5l1.352 2.25" fill="none" stroke="#212121" stroke-linecap="round" stroke-linejoin="round" stroke-width="1.5px"></path><path class="a" d="M20.25 22.5l2.014-2.517a4.5 4.5 0 0 0 .986-2.811V12a1.5 1.5 0 0 0-1.5-1.5 1.5 1.5 0 0 0-1.5 1.5v3.75" fill="none" stroke="#212121" stroke-linecap="round" stroke-linejoin="round" stroke-width="1.5px"></path><path class="a" d="M15.75 22.5v-3.135a4.5 4.5 0 0 1 .757-2.5l1.142-1.712a1.4 1.4 0 0 1 1.977-.445A1.4 1.4 0 0 1 20.1 16.5l-1.352 2.25" fill="none" stroke="#212121" stroke-linecap="round" stroke-linejoin="round" stroke-width="1.5px"></path></g></svg>