<svg xmlns="http://www.w3.org/2000/svg" width="24" height="24" viewBox="0 0 24 24"><title>e learning book smartphone</title><g fill="#212121" class="nc-icon-wrapper"><defs></defs><path class="a" d="M16.5 13.98s.613-1.9 5.864-2.1a.812.812 0 0 1 .886.739v7.8a.808.808 0 0 1-.843.731c-5.285.187-5.907 2.1-5.907 2.1v-9.27s-.613-1.9-5.864-2.1a.812.812 0 0 0-.886.739v7.8a.808.808 0 0 0 .843.731c5.285.187 5.907 2.1 5.907 2.1" fill="none" stroke="#212121" stroke-linecap="round" stroke-linejoin="round" stroke-width="1.5px"></path><path class="a" d="M6.75 21.751H3.483A2.732 2.732 0 0 1 .75 19.019V3.484A2.733 2.733 0 0 1 3.483.751H9.75a3 3 0 0 1 3 3V9" fill="none" stroke="#212121" stroke-linecap="round" stroke-linejoin="round" stroke-width="1.5px"></path><path class="a" d="M.75 17.251h6" fill="none" stroke="#212121" stroke-linecap="round" stroke-linejoin="round" stroke-width="1.5px"></path></g></svg>