<svg xmlns="http://www.w3.org/2000/svg" width="24" height="24" viewBox="0 0 24 24"><title>e learning book laptop</title><g fill="#212121" class="nc-icon-wrapper"><defs></defs><path class="a" d="M20.25 5.251v9a1.5 1.5 0 0 1-1.5 1.5H5.25a1.5 1.5 0 0 1-1.5-1.5v-9" fill="none" stroke="#212121" stroke-linecap="round" stroke-linejoin="round" stroke-width="1.5px"></path><path class="a" d="M21.748 23.251H2.252a1.5 1.5 0 0 1-1.342-2.17l1.836-3.671a3 3 0 0 1 2.683-1.659h13.142a3 3 0 0 1 2.683 1.659l1.836 3.671a1.5 1.5 0 0 1-1.342 2.17z" fill="none" stroke="#212121" stroke-linecap="round" stroke-linejoin="round" stroke-width="1.5px"></path><path class="a" d="M10.5 20.251h3" fill="none" stroke="#212121" stroke-linecap="round" stroke-linejoin="round" stroke-width="1.5px"></path><path class="a" d="M12 2.412s.477-1.5 4.561-1.66a.635.635 0 0 1 .689.585v6.174a.634.634 0 0 1-.656.58C12.484 8.238 12 9.751 12 9.751V2.412S11.523.907 7.439.752a.635.635 0 0 0-.689.585v6.174a.634.634 0 0 0 .656.58c4.11.147 4.594 1.66 4.594 1.66" fill="none" stroke="#212121" stroke-linecap="round" stroke-linejoin="round" stroke-width="1.5px"></path></g></svg>