<svg xmlns="http://www.w3.org/2000/svg" width="24" height="24" viewBox="0 0 24 24"><title>Earth Sync</title><g fill="#212121" class="nc-icon-wrapper"><defs></defs><path class="a" d="M9.651 23A11.251 11.251 0 1 1 22.334 7.547" fill="none" stroke="#212121" stroke-linecap="round" stroke-linejoin="round" stroke-width="1.5px"></path><path class="a" d="M7.079 15.75a1.5 1.5 0 0 0 1.455-1.864l-.75-3A1.5 1.5 0 0 0 6.329 9.75H.976a11.246 11.246 0 0 0 4.016 11.042L6 15.75z" fill="none" stroke="#212121" stroke-linecap="round" stroke-linejoin="round" stroke-width="1.5px"></path><path class="a" d="M20.985 5.25h-4.064a1.5 1.5 0 0 0-1.455 1.136l-.472 1.89" fill="none" stroke="#212121" stroke-linecap="round" stroke-linejoin="round" stroke-width="1.5px"></path><path class="a" d="M19.5 15.75h3.75v-4.5" fill="none" stroke="#212121" stroke-linecap="round" stroke-linejoin="round" stroke-width="1.5px"></path><path class="a" d="M23.061 15.75a6.013 6.013 0 0 0-7.256-4.331 6 6 0 1 0 6.135 9.574" fill="none" stroke="#212121" stroke-linecap="round" stroke-linejoin="round" stroke-width="1.5px"></path></g></svg>