<svg xmlns="http://www.w3.org/2000/svg" width="24" height="24" viewBox="0 0 24 24"><title>Earth Share</title><g fill="#212121" class="nc-icon-wrapper"><defs></defs><path class="a" d="M9.651 23A11.251 11.251 0 1 1 22.6 8.223" fill="none" stroke="#212121" stroke-linecap="round" stroke-linejoin="round" stroke-width="1.5px"></path><path class="a" d="M7.079 15.75a1.5 1.5 0 0 0 1.455-1.864l-.75-3A1.5 1.5 0 0 0 6.329 9.75H.976a11.246 11.246 0 0 0 4.016 11.042L6 15.75z" fill="none" stroke="#212121" stroke-linecap="round" stroke-linejoin="round" stroke-width="1.5px"></path><path class="a" d="M20.985 5.25h-4.064a1.5 1.5 0 0 0-1.455 1.136l-.75 3" fill="none" stroke="#212121" stroke-linecap="round" stroke-linejoin="round" stroke-width="1.5px"></path><circle class="a" cx="13.5" cy="18" r="2.25" fill="none" stroke="#212121" stroke-linecap="round" stroke-linejoin="round" stroke-width="1.5px"></circle><circle class="a" cx="21" cy="21" r="2.25" fill="none" stroke="#212121" stroke-linecap="round" stroke-linejoin="round" stroke-width="1.5px"></circle><circle class="a" cx="21" cy="13.5" r="2.25" fill="none" stroke="#212121" stroke-linecap="round" stroke-linejoin="round" stroke-width="1.5px"></circle><path class="a" d="M15.425 16.845l3.65-2.19" fill="none" stroke="#212121" stroke-linecap="round" stroke-linejoin="round" stroke-width="1.5px"></path><path class="a" d="M15.588 18.835l3.324 1.33" fill="none" stroke="#212121" stroke-linecap="round" stroke-linejoin="round" stroke-width="1.5px"></path></g></svg>