<svg xmlns="http://www.w3.org/2000/svg" width="24" height="24" viewBox="0 0 24 24"><title>Earth Model 2</title><g fill="#212121" class="nc-icon-wrapper"><defs></defs><circle class="a" cx="11" cy="9.485" r="7.5" fill="none" stroke="#212121" stroke-linecap="round" stroke-linejoin="round" stroke-width="1.5px"></circle><path class="a" d="M18.425 2.061A10.5 10.5 0 0 1 3.575 16.91" fill="none" stroke="#212121" stroke-linecap="round" stroke-linejoin="round" stroke-width="1.5px"></path><path class="a" d="M19.485 1l-1.06 1.061" fill="none" stroke="#212121" stroke-linecap="round" stroke-linejoin="round" stroke-width="1.5px"></path><path class="a" d="M3.575 16.91l-1.06 1.061" fill="none" stroke="#212121" stroke-linecap="round" stroke-linejoin="round" stroke-width="1.5px"></path><path class="a" d="M11 19.985v3" fill="none" stroke="#212121" stroke-linecap="round" stroke-linejoin="round" stroke-width="1.5px"></path><path class="a" d="M5 22.985h12" fill="none" stroke="#212121" stroke-linecap="round" stroke-linejoin="round" stroke-width="1.5px"></path><path class="a" d="M4.124 6.485H5.75a1.5 1.5 0 0 1 1.5 1.5v1.629a1.5 1.5 0 0 0 .439 1.061l1.155 1.155a1.5 1.5 0 0 1 .363 1.535l-.309.926a1.5 1.5 0 0 1-.523.725l-1.216.912" fill="none" stroke="#212121" stroke-linecap="round" stroke-linejoin="round" stroke-width="1.5px"></path><path class="a" d="M13.4 2.379c-.407.325-.841.662-1.226.959a1.5 1.5 0 0 0-.285 2.088l.911 1.209a1.5 1.5 0 0 0 1.2.6h.879a1.5 1.5 0 0 1 1.06.44l1.155 1.155a1.5 1.5 0 0 0 1.4.4" fill="none" stroke="#212121" stroke-linecap="round" stroke-linejoin="round" stroke-width="1.5px"></path></g></svg>