<svg xmlns="http://www.w3.org/2000/svg" width="24" height="24" viewBox="0 0 24 24"><title>Earth Cash</title><g fill="#212121" class="nc-icon-wrapper"><defs></defs><path class="a" d="M9.651 23a11.251 11.251 0 1 1 13.5-12.488" fill="none" stroke="#212121" stroke-linecap="round" stroke-linejoin="round" stroke-width="1.5px"></path><path class="a" d="M7.079 15.75a1.5 1.5 0 0 0 1.455-1.864l-.75-3A1.5 1.5 0 0 0 6.329 9.75H.976a11.246 11.246 0 0 0 4.016 11.042L6 15.75z" fill="none" stroke="#212121" stroke-linecap="round" stroke-linejoin="round" stroke-width="1.5px"></path><path class="a" d="M20.985 5.25h-4.064a1.5 1.5 0 0 0-1.455 1.136L15 8.232" fill="none" stroke="#212121" stroke-linecap="round" stroke-linejoin="round" stroke-width="1.5px"></path><path class="a" d="M18.75 14.25h-2.033a1.342 1.342 0 0 0-.5 2.587l2.064.826a1.342 1.342 0 0 1-.5 2.587H15.75" fill="none" stroke="#212121" stroke-linecap="round" stroke-linejoin="round" stroke-width="1.5px"></path><path class="a" d="M17.25 14.25v-.75" fill="none" stroke="#212121" stroke-linecap="round" stroke-linejoin="round" stroke-width="1.5px"></path><path class="a" d="M17.25 21v-.75" fill="none" stroke="#212121" stroke-linecap="round" stroke-linejoin="round" stroke-width="1.5px"></path><circle class="a" cx="17.25" cy="17.25" r="6" fill="none" stroke="#212121" stroke-linecap="round" stroke-linejoin="round" stroke-width="1.5px"></circle></g></svg>