<svg xmlns="http://www.w3.org/2000/svg" width="24" height="24" viewBox="0 0 24 24"><title>eco house sun</title><g fill="#212121" class="nc-icon-wrapper"><defs></defs><path class="cls-1" d="M6.334 18.274s1.472 1.5 2.9.881c2.9-1.264 1.384-5.173 2.014-6.94a6.9 6.9 0 0 0-5.928 2.023c-1.259 1.388-.879 2.902 1.014 4.036z" fill="none" stroke="#212121" stroke-linecap="round" stroke-linejoin="round" stroke-width="1.5px"></path><path class="cls-1" d="M7.846 15.75s-1.79.849-2.11 4.5" fill="none" stroke="#212121" stroke-linecap="round" stroke-linejoin="round" stroke-width="1.5px"></path><path class="cls-1" d="M20.25 8.25h3" fill="none" stroke="#212121" stroke-linecap="round" stroke-linejoin="round" stroke-width="1.5px"></path><path class="cls-1" d="M15.75 3.75v-3" fill="none" stroke="#212121" stroke-linecap="round" stroke-linejoin="round" stroke-width="1.5px"></path><path class="cls-1" d="M18.932 11.432l2.121 2.121" fill="none" stroke="#212121" stroke-linecap="round" stroke-linejoin="round" stroke-width="1.5px"></path><path class="cls-1" d="M18.932 5.068l2.121-2.121" fill="none" stroke="#212121" stroke-linecap="round" stroke-linejoin="round" stroke-width="1.5px"></path><path class="cls-1" d="M13.266 4.5A4.5 4.5 0 1 1 18 12.147" fill="none" stroke="#212121" stroke-linecap="round" stroke-linejoin="round" stroke-width="1.5px"></path><path class="cls-1" d="M14.25 23.25a1.5 1.5 0 0 0 1.5-1.5v-8.379a1.5 1.5 0 0 0-.439-1.06l-6-6a1.5 1.5 0 0 0-2.122 0l-6 6a1.5 1.5 0 0 0-.439 1.06v8.379a1.5 1.5 0 0 0 1.5 1.5z" fill="none" stroke="#212121" stroke-linecap="round" stroke-linejoin="round" stroke-width="1.5px"></path></g></svg>