<svg xmlns="http://www.w3.org/2000/svg" width="24" height="24" viewBox="0 0 24 24"><title>ecology leaf book open</title><g fill="#212121" class="nc-icon-wrapper"><defs></defs><path class="cls-1" d="M3.749 4.825a17.447 17.447 0 0 0-1.164-.212A1.611 1.611 0 0 0 .75 6.21v11.219a1.6 1.6 0 0 0 1.391 1.587A16.989 16.989 0 0 1 11 22.906a1.633 1.633 0 0 0 2.006 0 16.989 16.989 0 0 1 8.856-3.89 1.6 1.6 0 0 0 1.391-1.587V6.21a1.611 1.611 0 0 0-1.835-1.6q-.6.088-1.166.213" fill="none" stroke="#212121" stroke-linecap="round" stroke-linejoin="round" stroke-width="1.5px"></path><path class="cls-1" d="M12 12.75v10.497" fill="none" stroke="#212121" stroke-linecap="round" stroke-linejoin="round" stroke-width="1.5px"></path><path class="cls-1" d="M9.328 7.254s1.22 2.5 3.271 2.308c4.158-.38 3.88-5.907 5.4-7.859a9.105 9.105 0 0 0-8.265.075C7.58 3 7.427 5.048 9.328 7.254z" fill="none" stroke="#212121" stroke-linecap="round" stroke-linejoin="round" stroke-width="1.5px"></path><path class="cls-1" d="M12.27 4.719s-2.7.335-4.623 5.031" fill="none" stroke="#212121" stroke-linecap="round" stroke-linejoin="round" stroke-width="1.5px"></path></g></svg>