<svg xmlns="http://www.w3.org/2000/svg" width="24" height="24" viewBox="0 0 24 24"><title>ecology leaf bulb</title><g fill="#212121" class="nc-icon-wrapper"><defs></defs><path class="cls-1" d="M12 23.25v-1.5" fill="none" stroke="#212121" stroke-linecap="round" stroke-linejoin="round" stroke-width="1.5px"></path><path class="cls-1" d="M9.75 21.75h4.5" fill="none" stroke="#212121" stroke-linecap="round" stroke-linejoin="round" stroke-width="1.5px"></path><path class="cls-1" d="M20.25 9a8.25 8.25 0 1 0-10.5 7.931V18a.75.75 0 0 0 .75.75h3a.75.75 0 0 0 .75-.75v-1.069a8.247 8.247 0 0 0 6-7.931z" fill="none" stroke="#212121" stroke-linecap="round" stroke-linejoin="round" stroke-width="1.5px"></path><path class="cls-1" d="M11.645 11.736s2.067.412 2.9-.912c1.683-2.684-1.78-5.058-2.258-6.874a6.909 6.909 0 0 0-3.76 5.022c-.257 1.86.912 2.897 3.118 2.764z" fill="none" stroke="#212121" stroke-linecap="round" stroke-linejoin="round" stroke-width="1.5px"></path><path class="cls-1" d="M11.657 14.25a12.031 12.031 0 0 1-.381-4.281l.088-.634" fill="none" stroke="#212121" stroke-linecap="round" stroke-linejoin="round" stroke-width="1.5px"></path></g></svg>