<svg xmlns="http://www.w3.org/2000/svg" width="24" height="24" viewBox="0 0 24 24"><title>elephant mother</title><g fill="#212121" class="nc-icon-wrapper"><defs></defs><path class="cls-1" d="M3 15.75A2.2 2.2 0 0 1 .75 13.5V5.533A4.691 4.691 0 0 1 5.529.759a4.487 4.487 0 0 1 2.847 1.262A4.329 4.329 0 0 1 11.25.75h1.581a1.5 1.5 0 0 1 1.5 1.46c.033 2.029-.225 5.513-2.331 6.04-2.373.593-2.863-.213-2.967-.58" fill="none" stroke="#212121" stroke-linecap="round" stroke-linejoin="round" stroke-width="1.5px"></path><path class="cls-1" d="M14.25 3.75h6c2.25 0 3 2.25 3 3.75v3.75" fill="none" stroke="#212121" stroke-linecap="round" stroke-linejoin="round" stroke-width="1.5px"></path><path class="cls-1" d="M6.75 23.25v-9a4 4 0 0 0-3-3.75" fill="none" stroke="#212121" stroke-linecap="round" stroke-linejoin="round" stroke-width="1.5px"></path><path class="cls-1" d="M15.7 17.021a2.355 2.355 0 0 0 2.3.229c1.5-.75 1.5-3 1.5-3.75s0-1.5-1.5-1.5a4.222 4.222 0 0 0-2.328.94A2.994 2.994 0 0 0 10.5 15v5.25a1.469 1.469 0 0 0 1.5 1.5" fill="none" stroke="#212121" stroke-linecap="round" stroke-linejoin="round" stroke-width="1.5px"></path><path class="cls-1" d="M15 23.25v-3h8.25" fill="none" stroke="#212121" stroke-linecap="round" stroke-linejoin="round" stroke-width="1.5px"></path><path class="cls-1" d="M19.5 14.25h3.75" fill="none" stroke="#212121" stroke-linecap="round" stroke-linejoin="round" stroke-width="1.5px"></path><path class="cls-1" d="M13.5 18.75a1.469 1.469 0 0 1 1.5 1.5" fill="none" stroke="#212121" stroke-linecap="round" stroke-linejoin="round" stroke-width="1.5px"></path><circle class="cls-1" cx="4.875" cy="4.875" r=".375" fill="none" stroke="#212121" stroke-linecap="round" stroke-linejoin="round" stroke-width="1.5px"></circle></g></svg>