<svg xmlns="http://www.w3.org/2000/svg" width="24" height="24" viewBox="0 0 24 24"><title>email action image</title><g fill="#212121" class="nc-icon-wrapper"><defs></defs><path class="a" d="M19.5 12.88V2.25A1.5 1.5 0 0 0 18 .75H6a1.5 1.5 0 0 0-1.5 1.5v10.63" fill="none" stroke="#212121" stroke-linecap="round" stroke-linejoin="round" stroke-width="1.5px"></path><path class="a" d="M21.284 11.465a.75.75 0 0 1 1.216.587v9.7a1.5 1.5 0 0 1-1.5 1.5H3a1.5 1.5 0 0 1-1.5-1.5v-9.7a.75.75 0 0 1 1.216-.587l7.431 5.894a3 3 0 0 0 3.706 0z" fill="none" stroke="#212121" stroke-linecap="round" stroke-linejoin="round" stroke-width="1.5px"></path><circle class="a" cx="9" cy="5.25" r="1.5" fill="none" stroke="#212121" stroke-linecap="round" stroke-linejoin="round" stroke-width="1.5px"></circle><path class="a" d="M9 12.75l2.55-4.4a1.5 1.5 0 0 1 2.4 0l2.55 4.4z" fill="none" stroke="#212121" stroke-linecap="round" stroke-linejoin="round" stroke-width="1.5px"></path></g></svg>