<svg xmlns="http://www.w3.org/2000/svg" width="24" height="24" viewBox="0 0 24 24"><title>escalator ascend person</title><g fill="#212121" class="nc-icon-wrapper"><defs></defs><path class="a" d="M7.5 22.313H3a2.25 2.25 0 0 1 0-4.5h3.568l8.341-8.341a2.251 2.251 0 0 1 1.591-.659H21a2.25 2.25 0 0 1 0 4.5h-3.568l-8.341 8.341a2.255 2.255 0 0 1-1.591.659z" fill="none" stroke="#212121" stroke-linecap="round" stroke-linejoin="round" stroke-width="1.5px"></path><path class="a" d="M18.75 16.313h4.5v4.5" fill="none" stroke="#212121" stroke-linecap="round" stroke-linejoin="round" stroke-width="1.5px"></path><path class="a" d="M23.25 16.313l-6 6" fill="none" stroke="#212121" stroke-linecap="round" stroke-linejoin="round" stroke-width="1.5px"></path><circle class="a" cx="9" cy="3.938" r="2.25" fill="none" stroke="#212121" stroke-linecap="round" stroke-linejoin="round" stroke-width="1.5px"></circle><path class="a" d="M6.75 13.313v-3.75a2.25 2.25 0 1 1 4.5 0" fill="none" stroke="#212121" stroke-linecap="round" stroke-linejoin="round" stroke-width="1.5px"></path></g></svg>