<svg xmlns="http://www.w3.org/2000/svg" width="24" height="24" viewBox="0 0 24 24"><title>exotic food samosa 1</title><g fill="#212121" class="nc-icon-wrapper"><defs></defs><path class="cls-1" d="M13.915 9.738a1.5 1.5 0 0 0 1.3-2.244L11.8 1.517a1.5 1.5 0 0 0-2.6 0L5.782 7.494a1.5 1.5 0 0 0 1.3 2.244z" fill="none" stroke="#212121" stroke-linecap="round" stroke-linejoin="round" stroke-width="1.5px"></path><path class="cls-1" d="M8.25 9.738s4.36-2.848 4.36-6.807" fill="none" stroke="#212121" stroke-linecap="round" stroke-linejoin="round" stroke-width="1.5px"></path><path class="cls-1" d="M10.5 14.238c-5.385 0-9.75-2.015-9.75-4.5a3.1 3.1 0 0 1 1.5-2.4" fill="none" stroke="#212121" stroke-linecap="round" stroke-linejoin="round" stroke-width="1.5px"></path><path class="cls-1" d="M18.75 7.339a3.1 3.1 0 0 1 1.5 2.4 2.476 2.476 0 0 1-.593 1.548" fill="none" stroke="#212121" stroke-linecap="round" stroke-linejoin="round" stroke-width="1.5px"></path><ellipse class="cls-1" cx="18" cy="16.488" rx="5.25" ry="2.25" fill="none" stroke="#212121" stroke-linecap="round" stroke-linejoin="round" stroke-width="1.5px"></ellipse><path class="cls-1" d="M12.75 16.488v1.5a5.25 5.25 0 0 0 10.5 0v-1.5" fill="none" stroke="#212121" stroke-linecap="round" stroke-linejoin="round" stroke-width="1.5px"></path></g></svg>