<svg xmlns="http://www.w3.org/2000/svg" width="24" height="24" viewBox="0 0 24 24"><title>face id 2</title><g fill="#212121" class="nc-icon-wrapper"><defs></defs><path class="a" d="M23.25 18.75v3a1.5 1.5 0 0 1-1.5 1.5h-3" fill="none" stroke="#212121" stroke-linecap="round" stroke-linejoin="round" stroke-width="1.5px"></path><path class="a" d="M18.75.75h3a1.5 1.5 0 0 1 1.5 1.5v3" fill="none" stroke="#212121" stroke-linecap="round" stroke-linejoin="round" stroke-width="1.5px"></path><path class="a" d="M.75 5.25v-3a1.5 1.5 0 0 1 1.5-1.5h3" fill="none" stroke="#212121" stroke-linecap="round" stroke-linejoin="round" stroke-width="1.5px"></path><path class="a" d="M5.25 23.25h-3a1.5 1.5 0 0 1-1.5-1.5v-3" fill="none" stroke="#212121" stroke-linecap="round" stroke-linejoin="round" stroke-width="1.5px"></path><path class="a" d="M6.75 12.75v.75a5.25 5.25 0 0 0 10.5 0v-.75" fill="none" stroke="#212121" stroke-linecap="round" stroke-linejoin="round" stroke-width="1.5px"></path><path class="a" d="M12.749 5.3a5.25 5.25 0 0 0-6 5.2v2.25A6 6 0 0 0 12 9.656a6 6 0 0 0 5.25 3.094V10.5a5.251 5.251 0 0 0-4.501-5.2z" fill="none" stroke="#212121" stroke-linecap="round" stroke-linejoin="round" stroke-width="1.5px"></path><path class="a" d="M11.25 15.75h1.5" fill="none" stroke="#212121" stroke-linecap="round" stroke-linejoin="round" stroke-width="1.5px"></path></g></svg>