<svg xmlns="http://www.w3.org/2000/svg" width="24" height="24" viewBox="0 0 24 24"><title>family child teeter</title><g fill="#212121" class="nc-icon-wrapper"><defs></defs><circle class="a" cx="21" cy="3" r="2.25" fill="none" stroke="#212121" stroke-linecap="round" stroke-linejoin="round" stroke-width="1.5px"></circle><path class="a" d="M17.706 17.221a1.5 1.5 0 0 1-1.177-1.765l.75-3.75A1.5 1.5 0 0 1 18.75 10.5h1.5V8.25a1.5 1.5 0 0 1 3 0V12a1.5 1.5 0 0 1-1.5 1.5h-1.771l-.508 2.545a1.515 1.515 0 0 1-1.765 1.176z" fill="none" stroke="#212121" stroke-linecap="round" stroke-linejoin="round" stroke-width="1.5px"></path><circle class="a" cx="3" cy="6.75" r="2.25" fill="none" stroke="#212121" stroke-linecap="round" stroke-linejoin="round" stroke-width="1.5px"></circle><path class="a" d="M4.529 19.8l-.508-2.55H2.25a1.5 1.5 0 0 1-1.5-1.5V12a1.5 1.5 0 0 1 3 0v2.25h1.5a1.5 1.5 0 0 1 1.471 1.206l.75 3.75a1.5 1.5 0 0 1-2.942.589z" fill="none" stroke="#212121" stroke-linecap="round" stroke-linejoin="round" stroke-width="1.5px"></path><path class="a" d="M.75 20.25l1.438-.297" fill="none" stroke="#212121" stroke-linecap="round" stroke-linejoin="round" stroke-width="1.5px"></path><path class="a" d="M12 17.923v5.327" fill="none" stroke="#212121" stroke-linecap="round" stroke-linejoin="round" stroke-width="1.5px"></path><path class="a" d="M9.75 23.25h4.5" fill="none" stroke="#212121" stroke-linecap="round" stroke-linejoin="round" stroke-width="1.5px"></path><path class="a" d="M9.681 18.403l4.461-.924" fill="none" stroke="#212121" stroke-linecap="round" stroke-linejoin="round" stroke-width="1.5px"></path><path class="a" d="M21.632 15.93l1.587-.329" fill="none" stroke="#212121" stroke-linecap="round" stroke-linejoin="round" stroke-width="1.5px"></path></g></svg>