<svg xmlns="http://www.w3.org/2000/svg" width="24" height="24" viewBox="0 0 24 24"><title>family child</title><g fill="#212121" class="nc-icon-wrapper"><defs></defs><circle class="a" cx="19.5" cy="5.25" r="3" fill="none" stroke="#212121" stroke-linecap="round" stroke-linejoin="round" stroke-width="1.5px"></circle><path class="a" d="M17.812 20.25l.188 1.5h3l.75-6h1.5V13.5a3.75 3.75 0 0 0-6-3" fill="none" stroke="#212121" stroke-linecap="round" stroke-linejoin="round" stroke-width="1.5px"></path><circle class="a" cx="4.5" cy="5.25" r="3" fill="none" stroke="#212121" stroke-linecap="round" stroke-linejoin="round" stroke-width="1.5px"></circle><path class="a" d="M6.188 20.25L6 21.75H3l-.75-6H.75V13.5a3.75 3.75 0 0 1 6-3" fill="none" stroke="#212121" stroke-linecap="round" stroke-linejoin="round" stroke-width="1.5px"></path><circle class="a" cx="12" cy="9" r="2.25" fill="none" stroke="#212121" stroke-linecap="round" stroke-linejoin="round" stroke-width="1.5px"></circle><path class="a" d="M12 12.75a3.75 3.75 0 0 0-3.75 3.75v.75h1.5l.75 4.5H12" fill="none" stroke="#212121" stroke-linecap="round" stroke-linejoin="round" stroke-width="1.5px"></path><path class="a" d="M12 12.75a3.75 3.75 0 0 1 3.75 3.75v.75h-1.5l-.75 4.5H12" fill="none" stroke="#212121" stroke-linecap="round" stroke-linejoin="round" stroke-width="1.5px"></path></g></svg>