<svg xmlns="http://www.w3.org/2000/svg" width="24" height="24" viewBox="0 0 24 24"><title>family baby change diaper</title><g fill="#212121" class="nc-icon-wrapper"><defs></defs><path class="a" d="M15.75 23.063h-1.5a3 3 0 0 1-3-3h-.75a1.5 1.5 0 0 1 0-3h.75a3 3 0 0 1 3 3h1.5v-3a1.5 1.5 0 0 1 3 0v3a3 3 0 0 1-3 3z" fill="none" stroke="#212121" stroke-linecap="round" stroke-linejoin="round" stroke-width="1.5px"></path><circle class="a" cx="21" cy="20.813" r="2.25" fill="none" stroke="#212121" stroke-linecap="round" stroke-linejoin="round" stroke-width="1.5px"></circle><circle class="a" cx="12" cy="3.563" r="2.625" fill="none" stroke="#212121" stroke-linecap="round" stroke-linejoin="round" stroke-width="1.5px"></circle><path class="a" d="M.75 13.313l5.621-6.238a1.5 1.5 0 0 1 2.614.775c.024.156.639 3.963 3.765 3.963a1.5 1.5 0 0 1 0 3 6.408 6.408 0 0 1-5.843-3.794A19.992 19.992 0 0 0 3 22.892v.171" fill="none" stroke="#212121" stroke-linecap="round" stroke-linejoin="round" stroke-width="1.5px"></path></g></svg>