<svg xmlns="http://www.w3.org/2000/svg" width="24" height="24" viewBox="0 0 24 24"><title>famous character megaman</title><g fill="#212121" class="nc-icon-wrapper"><defs></defs><path class="cls-1" d="M.75 9a11.254 11.254 0 0 1 2.359-3.9" fill="none" stroke="#212121" stroke-linecap="round" stroke-linejoin="round" stroke-width="1.5px"></path><path class="cls-1" d="M20.573 10.8l2.677-2.544A11.243 11.243 0 0 0 8.89 1.4l-.642 3.188" fill="none" stroke="#212121" stroke-linecap="round" stroke-linejoin="round" stroke-width="1.5px"></path><circle class="cls-1" cx="12" cy="13.5" r="3" fill="none" stroke="#212121" stroke-linecap="round" stroke-linejoin="round" stroke-width="1.5px"></circle><path class="cls-1" d="M9 18.75l-.842 2.526a1.5 1.5 0 0 0 1.423 1.974h7.669a1.5 1.5 0 0 0 1.5-1.5V18h-.011a8.558 8.558 0 0 0 2-5.5 8.75 8.75 0 0 0-17.326-1.75s3.629-1.967 6.919.257" fill="none" stroke="#212121" stroke-linecap="round" stroke-linejoin="round" stroke-width="1.5px"></path></g></svg>