<svg xmlns="http://www.w3.org/2000/svg" width="24" height="24" viewBox="0 0 24 24"><title>famous character power ranger</title><g fill="#212121" class="nc-icon-wrapper"><defs></defs><path class="cls-1" d="M4.5 12.75v3.75c0 4.5 4.5 6.75 7.5 6.75s7.5-2.25 7.5-6.75v-3.75" fill="none" stroke="#212121" stroke-linecap="round" stroke-linejoin="round" stroke-width="1.5px"></path><path class="cls-1" d="M4.5 6.75c0-3.314 3.358-6 7.5-6s7.5 2.686 7.5 6" fill="none" stroke="#212121" stroke-linecap="round" stroke-linejoin="round" stroke-width="1.5px"></path><path class="cls-1" d="M19.5 6.75h-15c-1.243 0-2.25 1.343-2.25 3s1.007 3 2.25 3h15c1.243 0 2.25-1.343 2.25-3s-1.007-3-2.25-3z" fill="none" stroke="#212121" stroke-linecap="round" stroke-linejoin="round" stroke-width="1.5px"></path><path class="cls-1" d="M6 9.75h12" fill="none" stroke="#212121" stroke-linecap="round" stroke-linejoin="round" stroke-width="1.5px"></path><path class="cls-1" d="M5.503 3.75h12.994" fill="none" stroke="#212121" stroke-linecap="round" stroke-linejoin="round" stroke-width="1.5px"></path><path class="cls-1" d="M10.5 16.5a1.875 1.875 0 0 1 3 0" fill="none" stroke="#212121" stroke-linecap="round" stroke-linejoin="round" stroke-width="1.5px"></path><path class="cls-1" d="M7.5 12.75v4.5A2.774 2.774 0 0 0 9 19.5s.75-.75 3-.75 3 .75 3 .75 1.5 0 1.5-2.25v-4.5" fill="none" stroke="#212121" stroke-linecap="round" stroke-linejoin="round" stroke-width="1.5px"></path></g></svg>