<svg xmlns="http://www.w3.org/2000/svg" width="24" height="24" viewBox="0 0 24 24"><title>famous character 1</title><g fill="#212121" class="nc-icon-wrapper"><defs></defs><path class="cls-1" d="M10.5 20.25h3l2.25 1.685L17.25 15l3-2.25v-4.5c0-4.142-4.108-7.5-8.25-7.5s-8.25 3.358-8.25 7.5v4.5l3 2.25 1.5 6.935 2.25-1.685h3" fill="none" stroke="#212121" stroke-linecap="round" stroke-linejoin="round" stroke-width="1.5px"></path><path class="cls-1" d="M8.014 1.777L10.5 6.75h3l2.486-4.973" fill="none" stroke="#212121" stroke-linecap="round" stroke-linejoin="round" stroke-width="1.5px"></path><path class="cls-1" d="M13.5 9.75V12l3.75-.75V9l-3.75.75h-3L6.75 9v2.25l3.75.75V9.75" fill="none" stroke="#212121" stroke-linecap="round" stroke-linejoin="round" stroke-width="1.5px"></path><path class="cls-1" d="M3.75 12.75v4.569a1.5 1.5 0 0 0 .512 1.129l5.064 4.431a1.5 1.5 0 0 0 .988.371h3.372a1.5 1.5 0 0 0 .988-.371l5.064-4.431a1.5 1.5 0 0 0 .512-1.129V12.75" fill="none" stroke="#212121" stroke-linecap="round" stroke-linejoin="round" stroke-width="1.5px"></path><path class="cls-1" d="M10.5 17.25h3" fill="none" stroke="#212121" stroke-linecap="round" stroke-linejoin="round" stroke-width="1.5px"></path></g></svg>