<svg xmlns="http://www.w3.org/2000/svg" width="24" height="24" viewBox="0 0 24 24"><title>famous character</title><g fill="#212121" class="nc-icon-wrapper"><defs></defs><path class="cls-1" d="M7.583 21.662L6.75 15l-3-2.25v-4.5c0-4.142 4.108-7.5 8.25-7.5s8.25 3.358 8.25 7.5v4.5l-3 2.25-.833 6.662" fill="none" stroke="#212121" stroke-linecap="round" stroke-linejoin="round" stroke-width="1.5px"></path><path class="cls-1" d="M3.75 9.75l-1.224.408A1.5 1.5 0 0 0 1.5 11.581v2.338a1.5 1.5 0 0 0 1.026 1.423l1.224.408c0 4.142 5.25 7.5 8.25 7.5s8.25-3.358 8.25-7.5l1.224-.408a1.5 1.5 0 0 0 1.026-1.423v-2.338a1.5 1.5 0 0 0-1.026-1.423L20.25 9.75" fill="none" stroke="#212121" stroke-linecap="round" stroke-linejoin="round" stroke-width="1.5px"></path><path class="cls-1" d="M3.75 8.25s1.5-3 4.5-3A3.742 3.742 0 0 1 12 7.5a3.742 3.742 0 0 1 3.75-2.25c3 0 4.5 3 4.5 3" fill="none" stroke="#212121" stroke-linecap="round" stroke-linejoin="round" stroke-width="1.5px"></path><path class="cls-1" d="M13.5 12l2.25-1.5" fill="none" stroke="#212121" stroke-linecap="round" stroke-linejoin="round" stroke-width="1.5px"></path><path class="cls-1" d="M10.5 12l-2.25-1.5" fill="none" stroke="#212121" stroke-linecap="round" stroke-linejoin="round" stroke-width="1.5px"></path><path class="cls-1" d="M10.5 18h3" fill="none" stroke="#212121" stroke-linecap="round" stroke-linejoin="round" stroke-width="1.5px"></path></g></svg>