<svg xmlns="http://www.w3.org/2000/svg" width="24" height="24" viewBox="0 0 24 24"><title>farming milk cow</title><g fill="#212121" class="nc-icon-wrapper"><defs></defs><path class="cls-1" d="M1.39 1.124A11.265 11.265 0 0 0 4.5 5.76v6.221a1.7 1.7 0 0 0 3.337.439l1.127-4.21A11.223 11.223 0 0 0 12 8.626a11.225 11.225 0 0 0 3.037-.416l1.127 4.21a1.7 1.7 0 0 0 3.336-.439V5.76a11.265 11.265 0 0 0 3.11-4.634" fill="none" stroke="#212121" stroke-linecap="round" stroke-linejoin="round" stroke-width="1.5px"></path><path class="cls-1" d="M6 16.876v1.5" fill="none" stroke="#212121" stroke-linecap="round" stroke-linejoin="round" stroke-width="1.5px"></path><path class="cls-1" d="M6 21.376v1.5" fill="none" stroke="#212121" stroke-linecap="round" stroke-linejoin="round" stroke-width="1.5px"></path><path class="cls-1" d="M18 16.876v1.5" fill="none" stroke="#212121" stroke-linecap="round" stroke-linejoin="round" stroke-width="1.5px"></path><path class="cls-1" d="M18 21.376v1.5" fill="none" stroke="#212121" stroke-linecap="round" stroke-linejoin="round" stroke-width="1.5px"></path></g></svg>