<svg xmlns="http://www.w3.org/2000/svg" width="24" height="24" viewBox="0 0 24 24"><title>file code warning</title><g fill="#212121" class="nc-icon-wrapper"><defs></defs><path class="a" d="M17.237 20.254a.375.375 0 1 1-.375.375.374.374 0 0 1 .375-.375" fill="none" stroke="#212121" stroke-linecap="round" stroke-linejoin="round" stroke-width="1.5px"></path><path class="a" d="M17.237 18.004v-3" fill="none" stroke="#212121" stroke-linecap="round" stroke-linejoin="round" stroke-width="1.5px"></path><path class="a" d="M23.049 20.686a1.774 1.774 0 0 1-1.586 2.568h-8.452a1.775 1.775 0 0 1-1.587-2.568l4.226-8.452a1.774 1.774 0 0 1 3.173 0z" fill="none" stroke="#212121" stroke-linecap="round" stroke-linejoin="round" stroke-width="1.5px"></path><path class="a" d="M8.237 20.254h-6a1.5 1.5 0 0 1-1.5-1.5v-16.5a1.5 1.5 0 0 1 1.5-1.5h10.628a1.5 1.5 0 0 1 1.061.439L16.8 4.064a1.5 1.5 0 0 1 .44 1.061v3.129" fill="none" stroke="#212121" stroke-linecap="round" stroke-linejoin="round" stroke-width="1.5px"></path><rect class="a" x="6.737" y="5.254" width="3" height="4.5" rx=".75" ry=".75" fill="none" stroke="#212121" stroke-linecap="round" stroke-linejoin="round" stroke-width="1.5px"></rect><path class="a" d="M3.737 5.254v4.5" fill="none" stroke="#212121" stroke-linecap="round" stroke-linejoin="round" stroke-width="1.5px"></path><path class="a" d="M12.737 5.254v4.5" fill="none" stroke="#212121" stroke-linecap="round" stroke-linejoin="round" stroke-width="1.5px"></path><rect class="a" x="3.737" y="12.754" width="3" height="4.5" rx=".75" ry=".75" fill="none" stroke="#212121" stroke-linecap="round" stroke-linejoin="round" stroke-width="1.5px"></rect></g></svg>