<svg xmlns="http://www.w3.org/2000/svg" width="24" height="24" viewBox="0 0 24 24"><title>file code star 1</title><g fill="#212121" class="nc-icon-wrapper"><defs></defs><path class="a" d="M17.953 11.681l1.539 4.07h3a.735.735 0 0 1 .518 1.283l-2.6 1.815 1.441 3.313a.785.785 0 0 1-1.118.983l-3.483-1.961-3.483 1.961a.785.785 0 0 1-1.118-.983l1.441-3.313-2.6-1.815a.734.734 0 0 1 .51-1.283h3l1.542-4.07a.8.8 0 0 1 1.411 0z" fill="none" stroke="#212121" stroke-linecap="round" stroke-linejoin="round" stroke-width="1.5px"></path><path class="a" d="M8.25 20.254h-6a1.5 1.5 0 0 1-1.5-1.5v-16.5a1.5 1.5 0 0 1 1.5-1.5h10.629a1.5 1.5 0 0 1 1.061.439l2.871 2.871a1.5 1.5 0 0 1 .439 1.061v3.129" fill="none" stroke="#212121" stroke-linecap="round" stroke-linejoin="round" stroke-width="1.5px"></path><path class="a" d="M9 6.004l2.25 2.25L9 10.504" fill="none" stroke="#212121" stroke-linecap="round" stroke-linejoin="round" stroke-width="1.5px"></path><path class="a" d="M6 6.004l-2.25 2.25L6 10.504" fill="none" stroke="#212121" stroke-linecap="round" stroke-linejoin="round" stroke-width="1.5px"></path></g></svg>