<svg xmlns="http://www.w3.org/2000/svg" width="24" height="24" viewBox="0 0 24 24"><title>file c plus plus</title><g fill="#212121" class="nc-icon-wrapper"><defs></defs><path class="a" d="M.75 12.753v-10.5a1.5 1.5 0 0 1 1.5-1.5h10.629a1.5 1.5 0 0 1 1.06.44l5.872 5.871a1.5 1.5 0 0 1 .439 1.061v4.628" fill="none" stroke="#212121" stroke-linecap="round" stroke-linejoin="round" stroke-width="1.5px"></path><path class="a" d="M20.25 8.253h-6a1.5 1.5 0 0 1-1.5-1.5v-6" fill="none" stroke="#212121" stroke-linecap="round" stroke-linejoin="round" stroke-width="1.5px"></path><path class="a" d="M5.25 15.753a3 3 0 0 0-3 3v1.5a3 3 0 0 0 3 3" fill="none" stroke="#212121" stroke-linecap="round" stroke-linejoin="round" stroke-width="1.5px"></path><path class="a" d="M8.25 20.253h6" fill="none" stroke="#212121" stroke-linecap="round" stroke-linejoin="round" stroke-width="1.5px"></path><path class="a" d="M11.25 23.253v-6" fill="none" stroke="#212121" stroke-linecap="round" stroke-linejoin="round" stroke-width="1.5px"></path><path class="a" d="M17.25 20.253h6" fill="none" stroke="#212121" stroke-linecap="round" stroke-linejoin="round" stroke-width="1.5px"></path><path class="a" d="M20.25 23.253v-6" fill="none" stroke="#212121" stroke-linecap="round" stroke-linejoin="round" stroke-width="1.5px"></path></g></svg>