<svg xmlns="http://www.w3.org/2000/svg" width="24" height="24" viewBox="0 0 24 24"><title>file asp</title><g fill="#212121" class="nc-icon-wrapper"><defs></defs><path class="a" d="M5.244 23.254h-3a1.5 1.5 0 0 1-1.5-1.5v-19.5a1.5 1.5 0 0 1 1.5-1.5h10.628a1.5 1.5 0 0 1 1.061.439L19.8 7.064a1.5 1.5 0 0 1 .44 1.061v4.629" fill="none" stroke="#212121" stroke-linecap="round" stroke-linejoin="round" stroke-width="1.5px"></path><path class="a" d="M20.244 8.254h-6a1.5 1.5 0 0 1-1.5-1.5v-6" fill="none" stroke="#212121" stroke-linecap="round" stroke-linejoin="round" stroke-width="1.5px"></path><path class="a" d="M8.244 23.254v-6a1.5 1.5 0 0 1 3 0v6" fill="none" stroke="#212121" stroke-linecap="round" stroke-linejoin="round" stroke-width="1.5px"></path><path class="a" d="M8.244 20.254h3" fill="none" stroke="#212121" stroke-linecap="round" stroke-linejoin="round" stroke-width="1.5px"></path><path class="a" d="M17.244 15.754h-1.5a1.5 1.5 0 0 0-1.5 1.5c0 2.25 3 2.25 3 4.5a1.5 1.5 0 0 1-1.5 1.5h-1.5" fill="none" stroke="#212121" stroke-linecap="round" stroke-linejoin="round" stroke-width="1.5px"></path><path class="a" d="M20.244 23.254v-7.5" fill="none" stroke="#212121" stroke-linecap="round" stroke-linejoin="round" stroke-width="1.5px"></path><path class="a" d="M20.244 15.754h.75a2.25 2.25 0 0 1 0 4.5h-.75" fill="none" stroke="#212121" stroke-linecap="round" stroke-linejoin="round" stroke-width="1.5px"></path></g></svg>