<svg xmlns="http://www.w3.org/2000/svg" width="24" height="24" viewBox="0 0 24 24"><title>file code 1</title><g fill="#212121" class="nc-icon-wrapper"><defs></defs><path class="a" d="M22.5 21.753a1.5 1.5 0 0 1-1.5 1.5H3a1.5 1.5 0 0 1-1.5-1.5v-19.5A1.5 1.5 0 0 1 3 .753h15.045a1.5 1.5 0 0 1 1.048.427l2.955 2.882a1.5 1.5 0 0 1 .452 1.074z" fill="none" stroke="#212121" stroke-linecap="round" stroke-linejoin="round" stroke-width="1.5px"></path><path class="a" d="M10.5 8.253h-.75a1.409 1.409 0 0 0-1.5 1.294v1.247a1.256 1.256 0 0 1-.668 1.076L6 12.78l1.582.909a1.258 1.258 0 0 1 .668 1.076v1.248a1.408 1.408 0 0 0 1.5 1.293h.75" fill="none" stroke="#212121" stroke-linecap="round" stroke-linejoin="round" stroke-width="1.5px"></path><path class="a" d="M13.5 8.253h.75a1.408 1.408 0 0 1 1.5 1.294v1.247a1.256 1.256 0 0 0 .668 1.076l1.582.91-1.582.909a1.258 1.258 0 0 0-.668 1.076v1.248a1.408 1.408 0 0 1-1.5 1.293h-.75" fill="none" stroke="#212121" stroke-linecap="round" stroke-linejoin="round" stroke-width="1.5px"></path></g></svg>