<svg xmlns="http://www.w3.org/2000/svg" width="24" height="24" viewBox="0 0 24 24"><title>file code cash 1</title><g fill="#212121" class="nc-icon-wrapper"><defs></defs><path class="a" d="M18.738 14.254H16.7a1.342 1.342 0 0 0-.5 2.587l2.063.825a1.342 1.342 0 0 1-.5 2.588h-2.025" fill="none" stroke="#212121" stroke-linecap="round" stroke-linejoin="round" stroke-width="1.5px"></path><path class="a" d="M17.238 14.254v-.75" fill="none" stroke="#212121" stroke-linecap="round" stroke-linejoin="round" stroke-width="1.5px"></path><path class="a" d="M17.238 21.004v-.75" fill="none" stroke="#212121" stroke-linecap="round" stroke-linejoin="round" stroke-width="1.5px"></path><circle class="a" cx="17.238" cy="17.254" r="6" fill="none" stroke="#212121" stroke-linecap="round" stroke-linejoin="round" stroke-width="1.5px"></circle><path class="a" d="M8.238 20.254h-6a1.5 1.5 0 0 1-1.5-1.5v-16.5a1.5 1.5 0 0 1 1.5-1.5h10.628a1.5 1.5 0 0 1 1.061.439L16.8 4.064a1.5 1.5 0 0 1 .44 1.061v3.129" fill="none" stroke="#212121" stroke-linecap="round" stroke-linejoin="round" stroke-width="1.5px"></path><path class="a" d="M8.988 6.004l2.25 2.25-2.25 2.25" fill="none" stroke="#212121" stroke-linecap="round" stroke-linejoin="round" stroke-width="1.5px"></path><path class="a" d="M5.988 6.004l-2.25 2.25 2.25 2.25" fill="none" stroke="#212121" stroke-linecap="round" stroke-linejoin="round" stroke-width="1.5px"></path></g></svg>