<svg xmlns="http://www.w3.org/2000/svg" width="24" height="24" viewBox="0 0 24 24"><title>file code shield 1</title><g fill="#212121" class="nc-icon-wrapper"><defs></defs><path class="a" d="M11.252.954v4.3a1.4 1.4 0 0 0 1.371 1.5h4.428" fill="none" stroke="#212121" stroke-linecap="round" stroke-linejoin="round" stroke-width="1.5px"></path><path class="a" d="M17.087 6.717l-5.524-5.524A1.5 1.5 0 0 0 10.5.753H2.252a1.5 1.5 0 0 0-1.5 1.5v16.5a1.5 1.5 0 0 0 1.5 1.5h6" fill="none" stroke="#212121" stroke-linecap="round" stroke-linejoin="round" stroke-width="1.5px"></path><path class="a" d="M6.002 8.253l-2.25 2.25 2.25 2.25" fill="none" stroke="#212121" stroke-linecap="round" stroke-linejoin="round" stroke-width="1.5px"></path><path class="a" d="M23.252 15.753a7.669 7.669 0 0 1-6 7.5 7.669 7.669 0 0 1-6-7.5v-3.541a1.5 1.5 0 0 1 .915-1.381 12.535 12.535 0 0 1 10.17 0 1.5 1.5 0 0 1 .915 1.381z" fill="none" stroke="#212121" stroke-linecap="round" stroke-linejoin="round" stroke-width="1.5px"></path><path class="a" d="M17.252 12.753v6" fill="none" stroke="#212121" stroke-linecap="round" stroke-linejoin="round" stroke-width="1.5px"></path><path class="a" d="M14.252 15.753h6" fill="none" stroke="#212121" stroke-linecap="round" stroke-linejoin="round" stroke-width="1.5px"></path></g></svg>