<svg xmlns="http://www.w3.org/2000/svg" width="24" height="24" viewBox="0 0 24 24"><title>file xml</title><g fill="#212121" class="nc-icon-wrapper"><defs></defs><path class="a" d="M3.751 23.254h-1.5a1.5 1.5 0 0 1-1.5-1.5v-19.5a1.5 1.5 0 0 1 1.5-1.5H12.88a1.5 1.5 0 0 1 1.061.439l5.871 5.871a1.5 1.5 0 0 1 .439 1.061v4.629" fill="none" stroke="#212121" stroke-linecap="round" stroke-linejoin="round" stroke-width="1.5px"></path><path class="a" d="M20.251 8.254h-6a1.5 1.5 0 0 1-1.5-1.5v-6" fill="none" stroke="#212121" stroke-linecap="round" stroke-linejoin="round" stroke-width="1.5px"></path><path class="a" d="M6.751 15.754l3 7.5" fill="none" stroke="#212121" stroke-linecap="round" stroke-linejoin="round" stroke-width="1.5px"></path><path class="a" d="M9.751 15.754l-3 7.5" fill="none" stroke="#212121" stroke-linecap="round" stroke-linejoin="round" stroke-width="1.5px"></path><path class="a" d="M20.251 15.754v6a1.5 1.5 0 0 0 1.5 1.5h1.5" fill="none" stroke="#212121" stroke-linecap="round" stroke-linejoin="round" stroke-width="1.5px"></path><path class="a" d="M17.251 23.254v-7.5l-2.25 3.75-2.25-3.75v7.5" fill="none" stroke="#212121" stroke-linecap="round" stroke-linejoin="round" stroke-width="1.5px"></path></g></svg>