<svg xmlns="http://www.w3.org/2000/svg" width="24" height="24" viewBox="0 0 24 24"><title>finger tap 1</title><g fill="#212121" class="nc-icon-wrapper"><defs></defs><path class="a" d="M18 23.25v-3.458a3 3 0 0 0-2.507-2.96L13.5 16.5v-3a1.5 1.5 0 0 0-3 0v5.25l-1.174-.587a1.638 1.638 0 0 0-1.755 2.744L10.5 23.25" fill="none" stroke="#212121" stroke-linecap="round" stroke-linejoin="round" stroke-width="1.5px"></path><path class="a" d="M6.386 15.749A6.75 6.75 0 1 1 18.048 15" fill="none" stroke="#212121" stroke-linecap="round" stroke-linejoin="round" stroke-width="1.5px"></path><path class="a" d="M23.25 9.75L21 12l2.25 2.25" fill="none" stroke="#212121" stroke-linecap="round" stroke-linejoin="round" stroke-width="1.5px"></path><path class="a" d="M9.75.75L12 3 14.25.75" fill="none" stroke="#212121" stroke-linecap="round" stroke-linejoin="round" stroke-width="1.5px"></path><path class="a" d="M.75 14.25L3 12 .75 9.75" fill="none" stroke="#212121" stroke-linecap="round" stroke-linejoin="round" stroke-width="1.5px"></path></g></svg>