<svg xmlns="http://www.w3.org/2000/svg" width="24" height="24" viewBox="0 0 24 24"><title>fireworks rocket</title><g fill="#212121" class="nc-icon-wrapper"><defs></defs><path class="cls-1" d="M21.034 2.183a.717.717 0 0 0-.717-.717L13.941.75a.716.716 0 0 0-.506 1.223l7.092 7.092a.716.716 0 0 0 1.223-.506z" fill="none" stroke="#212121" stroke-linecap="round" stroke-linejoin="round" stroke-width="1.5px"></path><path class="cls-1" d="M14.449 2.987l5.066 5.066-6.893 6.892a1 1 0 0 1-1.414 0l-3.651-3.652a1 1 0 0 1 0-1.414l6.892-6.892z" fill="none" stroke="#212121" stroke-linecap="round" stroke-linejoin="round" stroke-width="1.5px"></path><path class="cls-1" d="M9.382 13.118l-7.801 7.801" fill="none" stroke="#212121" stroke-linecap="round" stroke-linejoin="round" stroke-width="1.5px"></path><path class="cls-1" d="M10.9 14.638a3.582 3.582 0 0 0 0 5.066" fill="none" stroke="#212121" stroke-linecap="round" stroke-linejoin="round" stroke-width="1.5px"></path><path class="cls-1" d="M18.728 18.184l-1.52 1.52" fill="none" stroke="#212121" stroke-linecap="round" stroke-linejoin="round" stroke-width="1.5px"></path><path class="cls-1" d="M15.182 21.73l-1.52 1.52" fill="none" stroke="#212121" stroke-linecap="round" stroke-linejoin="round" stroke-width="1.5px"></path><path class="cls-1" d="M18.728 23.25l-1.52-1.52" fill="none" stroke="#212121" stroke-linecap="round" stroke-linejoin="round" stroke-width="1.5px"></path><path class="cls-1" d="M15.182 19.704l-1.52-1.52" fill="none" stroke="#212121" stroke-linecap="round" stroke-linejoin="round" stroke-width="1.5px"></path></g></svg>