<svg xmlns="http://www.w3.org/2000/svg" width="24" height="24" viewBox="0 0 24 24"><title>fitness hand grip</title><g fill="#212121" class="nc-icon-wrapper"><defs></defs><circle class="cls-1" cx="11.853" cy="3.751" r="3" fill="none" stroke="#212121" stroke-linecap="round" stroke-linejoin="round" stroke-width="1.5px"></circle><path class="cls-1" d="M8.853 3.751l-2.689 7.926" fill="none" stroke="#212121" stroke-linecap="round" stroke-linejoin="round" stroke-width="1.5px"></path><path class="cls-1" d="M5.131 21.722A2.25 2.25 0 1 1 .87 20.276l2.681-7.9a1.5 1.5 0 0 1 1.9-.938l1.42.482a1.5 1.5 0 0 1 .939 1.9z" fill="none" stroke="#212121" stroke-linecap="round" stroke-linejoin="round" stroke-width="1.5px"></path><path class="cls-1" d="M14.853 3.751l2.69 7.926" fill="none" stroke="#212121" stroke-linecap="round" stroke-linejoin="round" stroke-width="1.5px"></path><path class="cls-1" d="M18.576 21.722a2.25 2.25 0 1 0 4.261-1.446l-2.681-7.9a1.5 1.5 0 0 0-1.9-.938l-1.42.482a1.5 1.5 0 0 0-.939 1.9z" fill="none" stroke="#212121" stroke-linecap="round" stroke-linejoin="round" stroke-width="1.5px"></path></g></svg>