<svg xmlns="http://www.w3.org/2000/svg" width="24" height="24" viewBox="0 0 24 24"><title>fitness bicycle 1</title><g fill="#212121" class="nc-icon-wrapper"><defs></defs><path class="cls-1" d="M11.4 13.2A3 3 0 0 0 9 12H6a5.25 5.25 0 0 0 0 10.5h15a2.25 2.25 0 0 0 0-4.5h-4.5a3 3 0 0 1-2.4-1.2z" fill="none" stroke="#212121" stroke-linecap="round" stroke-linejoin="round" stroke-width="1.5px"></path><path class="cls-1" d="M6.75 16.5l2.25 3" fill="none" stroke="#212121" stroke-linecap="round" stroke-linejoin="round" stroke-width="1.5px"></path><path class="cls-1" d="M13.433 15.911l1.922-6.964A1.964 1.964 0 0 1 17.25 7.5h3a3 3 0 0 0 0-6h-6" fill="none" stroke="#212121" stroke-linecap="round" stroke-linejoin="round" stroke-width="1.5px"></path><path class="cls-1" d="M2.25 7.5h6" fill="none" stroke="#212121" stroke-linecap="round" stroke-linejoin="round" stroke-width="1.5px"></path><path class="cls-1" d="M4.5 7.5l3 4.5" fill="none" stroke="#212121" stroke-linecap="round" stroke-linejoin="round" stroke-width="1.5px"></path></g></svg>