<svg xmlns="http://www.w3.org/2000/svg" width="24" height="24" viewBox="0 0 24 24"><title>fitness shaker</title><g fill="#212121" class="nc-icon-wrapper"><defs></defs><path class="cls-1" d="M18 6.75a3 3 0 0 0-3-3H9a3 3 0 0 0-3 3V9a5.237 5.237 0 0 0 1.5 3A5.237 5.237 0 0 0 6 15v5.25a3 3 0 0 0 3 3h6a3 3 0 0 0 3-3V15a5.237 5.237 0 0 0-1.5-3A5.237 5.237 0 0 0 18 9z" fill="none" stroke="#212121" stroke-linecap="round" stroke-linejoin="round" stroke-width="1.5px"></path><path class="cls-1" d="M12 3.75v-3" fill="none" stroke="#212121" stroke-linecap="round" stroke-linejoin="round" stroke-width="1.5px"></path><path class="cls-1" d="M6 6.75h12" fill="none" stroke="#212121" stroke-linecap="round" stroke-linejoin="round" stroke-width="1.5px"></path><path class="cls-1" d="M13.5 12l-3.75 3.75h4.5L10.5 19.5" fill="none" stroke="#212121" stroke-linecap="round" stroke-linejoin="round" stroke-width="1.5px"></path></g></svg>