<svg xmlns="http://www.w3.org/2000/svg" width="24" height="24" viewBox="0 0 24 24"><title>fitness jumping rope 2</title><g fill="#212121" class="nc-icon-wrapper"><defs></defs><path class="cls-1" d="M6 12.75a1.5 1.5 0 0 0-1.5 1.5V21A2.25 2.25 0 0 0 9 21v-6.75a1.5 1.5 0 0 0-1.5-1.5z" fill="none" stroke="#212121" stroke-linecap="round" stroke-linejoin="round" stroke-width="1.5px"></path><circle class="cls-1" cx="12" cy="3" r="2.25" fill="none" stroke="#212121" stroke-linecap="round" stroke-linejoin="round" stroke-width="1.5px"></circle><path class="cls-1" d="M6.75 12.75A7.357 7.357 0 0 1 12 5.25" fill="none" stroke="#212121" stroke-linecap="round" stroke-linejoin="round" stroke-width="1.5px"></path><path class="cls-1" d="M18 12.75a1.5 1.5 0 0 1 1.5 1.5V21a2.25 2.25 0 0 1-4.5 0v-6.75a1.5 1.5 0 0 1 1.5-1.5z" fill="none" stroke="#212121" stroke-linecap="round" stroke-linejoin="round" stroke-width="1.5px"></path><path class="cls-1" d="M17.25 12.75A7.357 7.357 0 0 0 12 5.25" fill="none" stroke="#212121" stroke-linecap="round" stroke-linejoin="round" stroke-width="1.5px"></path></g></svg>