<svg xmlns="http://www.w3.org/2000/svg" width="24" height="24" viewBox="0 0 24 24"><title>flag</title><g fill="#212121" class="nc-icon-wrapper"><defs></defs><path class="a" d="M.75.75v22.5" fill="none" stroke="#212121" stroke-linecap="round" stroke-linejoin="round" stroke-width="1.5px"></path><path class="a" d="M.75 2.25h12a1.5 1.5 0 0 1 1.5 1.5v12H.75" fill="none" stroke="#212121" stroke-linecap="round" stroke-linejoin="round" stroke-width="1.5px"></path><path class="a" d="M9.75 20.25a4.5 4.5 0 0 1 4.5-4.5" fill="none" stroke="#212121" stroke-linecap="round" stroke-linejoin="round" stroke-width="1.5px"></path><path class="a" d="M14.25 6.75h8.25A.75.75 0 0 1 23.059 8l-4 4.505a1.5 1.5 0 0 0 0 1.994l4 4.5a.75.75 0 0 1-.56 1.248H9a1.5 1.5 0 0 1-1.5-1.5v-3" fill="none" stroke="#212121" stroke-linecap="round" stroke-linejoin="round" stroke-width="1.5px"></path></g></svg>