<svg xmlns="http://www.w3.org/2000/svg" width="24" height="24" viewBox="0 0 24 24"><title>flip right</title><g fill="#212121" class="nc-icon-wrapper"><defs></defs><path class="a" d="M17.249 9.143l.527 4.404-4.446.665" fill="none" stroke="#212121" stroke-linecap="round" stroke-linejoin="round" stroke-width="1.5px"></path><path class="a" d="M9.75.75h-7.5a1.5 1.5 0 0 0-1.5 1.5v19.5a1.5 1.5 0 0 0 1.5 1.5h7.5" fill="none" stroke="#212121" stroke-linecap="round" stroke-linejoin="round" stroke-width="1.5px"></path><path class="a" d="M12.75.75v4.5" fill="none" stroke="#212121" stroke-linecap="round" stroke-linejoin="round" stroke-width="1.5px"></path><path class="a" d="M12.75 17.25v6" fill="none" stroke="#212121" stroke-linecap="round" stroke-linejoin="round" stroke-width="1.5px"></path><path class="a" d="M17.25.75h-1.5" fill="none" stroke="#212121" stroke-linecap="round" stroke-linejoin="round" stroke-width="1.5px"></path><path class="a" d="M17.25 23.25h-1.5" fill="none" stroke="#212121" stroke-linecap="round" stroke-linejoin="round" stroke-width="1.5px"></path><path class="a" d="M23.25 5.25v1.5" fill="none" stroke="#212121" stroke-linecap="round" stroke-linejoin="round" stroke-width="1.5px"></path><path class="a" d="M23.25 11.25v1.5" fill="none" stroke="#212121" stroke-linecap="round" stroke-linejoin="round" stroke-width="1.5px"></path><path class="a" d="M23.25 17.25v1.5" fill="none" stroke="#212121" stroke-linecap="round" stroke-linejoin="round" stroke-width="1.5px"></path><path class="a" d="M23.25 2.25a1.5 1.5 0 0 0-1.5-1.5" fill="none" stroke="#212121" stroke-linecap="round" stroke-linejoin="round" stroke-width="1.5px"></path><path class="a" d="M21.75 23.25a1.5 1.5 0 0 0 1.5-1.5" fill="none" stroke="#212121" stroke-linecap="round" stroke-linejoin="round" stroke-width="1.5px"></path><path class="a" d="M5.635 15a6.751 6.751 0 0 1 12.022-1.433" fill="none" stroke="#212121" stroke-linecap="round" stroke-linejoin="round" stroke-width="1.5px"></path></g></svg>