<svg xmlns="http://www.w3.org/2000/svg" width="24" height="24" viewBox="0 0 24 24"><title>flying insect bee 3</title><g fill="#212121" class="nc-icon-wrapper"><defs></defs><circle class="cls-1" cx="12.853" cy="10.246" r="3.359" fill="none" stroke="#212121" stroke-linecap="round" stroke-linejoin="round" stroke-width="1.5px"></circle><ellipse class="cls-1" cx="6.86" cy="8.528" rx="3.738" ry="2.616" transform="rotate(-43.261 6.86 8.53)" fill="none" stroke="#212121" stroke-linecap="round" stroke-linejoin="round" stroke-width="1.5px"></ellipse><path class="cls-1" d="M22.458 15.985a4.485 4.485 0 0 0-5.312-4.4c-2.427.493-3.894 3.352-3.277 6.385a5.755 5.755 0 0 0 5.6 4.745h3.737s-.748-1.5-.748-6.73z" fill="none" stroke="#212121" stroke-linecap="round" stroke-linejoin="round" stroke-width="1.5px"></path><path class="cls-1" d="M7.162 5.44l-.538-.554a4.632 4.632 0 0 0-4.032-.693l-1.82.469" fill="none" stroke="#212121" stroke-linecap="round" stroke-linejoin="round" stroke-width="1.5px"></path><path class="cls-1" d="M12.945 6.888L22.087.979a.747.747 0 0 1 1.151.634c-.011 1.5-.315 3.935-2.274 5.4a8.567 8.567 0 0 1-2.321 1.268" fill="none" stroke="#212121" stroke-linecap="round" stroke-linejoin="round" stroke-width="1.5px"></path><path class="cls-1" d="M21.171 12.835l-7.191 5.592" fill="none" stroke="#212121" stroke-linecap="round" stroke-linejoin="round" stroke-width="1.5px"></path><path class="cls-1" d="M22.48 17.463l-5.907 4.43" fill="none" stroke="#212121" stroke-linecap="round" stroke-linejoin="round" stroke-width="1.5px"></path></g></svg>