<svg xmlns="http://www.w3.org/2000/svg" width="24" height="24" viewBox="0 0 24 24"><title>flying insect dragonfly 2</title><g fill="#212121" class="nc-icon-wrapper"><defs></defs><rect class="cls-1" x="10.522" y="1" width="3" height="9" rx="1" ry="1" fill="none" stroke="#212121" stroke-linecap="round" stroke-linejoin="round" stroke-width="1.5px"></rect><path class="cls-1" d="M14.57 7.75h-1.048V4h8.467a1.282 1.282 0 0 1 1.283 1.282 1.284 1.284 0 0 1-.93 1.234l-.28.08A24.907 24.907 0 0 1 14.57 7.75z" fill="none" stroke="#212121" stroke-linecap="round" stroke-linejoin="round" stroke-width="1.5px"></path><path class="cls-1" d="M10.522 7.75l-8.169 3.4a1.349 1.349 0 0 0-.831 1.25 1.349 1.349 0 0 0 1.35 1.35h1.65a6 6 0 0 0 6-6z" fill="none" stroke="#212121" stroke-linecap="round" stroke-linejoin="round" stroke-width="1.5px"></path><path class="cls-1" d="M13.522 7.75l8.169 3.4a1.349 1.349 0 0 1 .831 1.246 1.349 1.349 0 0 1-1.35 1.35h-1.65a6 6 0 0 1-6-6z" fill="none" stroke="#212121" stroke-linecap="round" stroke-linejoin="round" stroke-width="1.5px"></path><path class="cls-1" d="M9.474 7.75h1.048V4H2.055A1.282 1.282 0 0 0 .772 5.282 1.284 1.284 0 0 0 1.7 6.516l.28.08A24.907 24.907 0 0 0 9.474 7.75z" fill="none" stroke="#212121" stroke-linecap="round" stroke-linejoin="round" stroke-width="1.5px"></path><path class="cls-1" d="M12.022 10v12.75" fill="none" stroke="#212121" stroke-linecap="round" stroke-linejoin="round" stroke-width="1.5px"></path></g></svg>