<svg xmlns="http://www.w3.org/2000/svg" width="24" height="24" viewBox="0 0 24 24"><title>flying insect bee</title><g fill="#212121" class="nc-icon-wrapper"><defs></defs><path class="cls-1" d="M17.25 13.5c0 5.25-3.75 8.25-5.25 8.25s-5.25-3-5.25-8.25c0-4.142 2.35-6.75 5.25-6.75s5.25 2.608 5.25 6.75z" fill="none" stroke="#212121" stroke-linecap="round" stroke-linejoin="round" stroke-width="1.5px"></path><path class="cls-1" d="M12 21.75v1.5" fill="none" stroke="#212121" stroke-linecap="round" stroke-linejoin="round" stroke-width="1.5px"></path><path class="cls-1" d="M8.325 5.25a3.751 3.751 0 0 1 7.35 0" fill="none" stroke="#212121" stroke-linecap="round" stroke-linejoin="round" stroke-width="1.5px"></path><path class="cls-1" d="M13.5 2.564V2.25s0-1.5 2.25-1.5" fill="none" stroke="#212121" stroke-linecap="round" stroke-linejoin="round" stroke-width="1.5px"></path><path class="cls-1" d="M10.5 2.564V2.25s0-1.5-2.25-1.5" fill="none" stroke="#212121" stroke-linecap="round" stroke-linejoin="round" stroke-width="1.5px"></path><path class="cls-1" d="M8.449 8.382A10.279 10.279 0 0 0 3 6.75C0 6.75 0 12 3 12a10.274 10.274 0 0 0 4.037-.87" fill="none" stroke="#212121" stroke-linecap="round" stroke-linejoin="round" stroke-width="1.5px"></path><path class="cls-1" d="M15.551 8.382A10.279 10.279 0 0 1 21 6.75c3 0 3 5.25 0 5.25a10.274 10.274 0 0 1-4.037-.87" fill="none" stroke="#212121" stroke-linecap="round" stroke-linejoin="round" stroke-width="1.5px"></path><path class="cls-1" d="M6.779 12.721A6.428 6.428 0 0 1 12 10.5a6.432 6.432 0 0 1 5.221 2.221" fill="none" stroke="#212121" stroke-linecap="round" stroke-linejoin="round" stroke-width="1.5px"></path><path class="cls-1" d="M7.265 16.735A6.374 6.374 0 0 1 12 15a6.381 6.381 0 0 1 4.735 1.735" fill="none" stroke="#212121" stroke-linecap="round" stroke-linejoin="round" stroke-width="1.5px"></path></g></svg>