<svg xmlns="http://www.w3.org/2000/svg" width="24" height="24" viewBox="0 0 24 24"><title>flying insect ladybug 1</title><g fill="#212121" class="nc-icon-wrapper"><defs></defs><path class="cls-1" d="M21.466 11.868a7.627 7.627 0 0 1 1.784 4.68c0 1.5-3.694 3-8.25 3s-8.25-1.5-8.25-3" fill="none" stroke="#212121" stroke-linecap="round" stroke-linejoin="round" stroke-width="1.5px"></path><path class="cls-1" d="M6.75 16.548s-3-6.75 2.25-12c4.356-4.357 9.745-2.516 11.454-1.764a.752.752 0 0 1 .429.855 15.887 15.887 0 0 1-5.133 8.409 20.973 20.973 0 0 1-9 4.5z" fill="none" stroke="#212121" stroke-linecap="round" stroke-linejoin="round" stroke-width="1.5px"></path><path class="cls-1" d="M7.491 6.418c2.3 1.152 3.265.124 3.759-.37a2.679 2.679 0 0 0 .52-3.461" fill="none" stroke="#212121" stroke-linecap="round" stroke-linejoin="round" stroke-width="1.5px"></path><path class="cls-1" d="M9.911 15.565c-.4-1.282-.575-2.742.589-3.517.48-.32 2.32-1.395 3.93 1.019" fill="none" stroke="#212121" stroke-linecap="round" stroke-linejoin="round" stroke-width="1.5px"></path><path class="cls-1" d="M20.379 5.33c-2.831-.708-3.695.917-3.879 1.468-.58 1.739.012 2.631 1.234 3.241" fill="none" stroke="#212121" stroke-linecap="round" stroke-linejoin="round" stroke-width="1.5px"></path><path class="cls-1" d="M5.991 13.546c-.225-.034-4.511-.63-5.241 3.754.75 3 4.5 2.25 4.5 2.25" fill="none" stroke="#212121" stroke-linecap="round" stroke-linejoin="round" stroke-width="1.5px"></path><path class="cls-1" d="M.75 12.048l2.051 2.051" fill="none" stroke="#212121" stroke-linecap="round" stroke-linejoin="round" stroke-width="1.5px"></path><path class="cls-1" d="M4.125 15.8a.374.374 0 0 1 .375.375" fill="none" stroke="#212121" stroke-linecap="round" stroke-linejoin="round" stroke-width="1.5px"></path><path class="cls-1" d="M3.75 16.173a.374.374 0 0 1 .375-.375" fill="none" stroke="#212121" stroke-linecap="round" stroke-linejoin="round" stroke-width="1.5px"></path><path class="cls-1" d="M4.125 16.548a.375.375 0 0 1-.375-.375" fill="none" stroke="#212121" stroke-linecap="round" stroke-linejoin="round" stroke-width="1.5px"></path><path class="cls-1" d="M4.5 16.173a.375.375 0 0 1-.375.375" fill="none" stroke="#212121" stroke-linecap="round" stroke-linejoin="round" stroke-width="1.5px"></path><path class="cls-1" d="M9.229 18.633l-.695 2.778a1.5 1.5 0 0 1-1.455 1.137H6.75" fill="none" stroke="#212121" stroke-linecap="round" stroke-linejoin="round" stroke-width="1.5px"></path><path class="cls-1" d="M13.513 19.494l-.479 1.917a1.5 1.5 0 0 1-1.455 1.137h-.329" fill="none" stroke="#212121" stroke-linecap="round" stroke-linejoin="round" stroke-width="1.5px"></path><path class="cls-1" d="M20.771 18.633l.7 2.778a1.5 1.5 0 0 0 1.455 1.137h.329" fill="none" stroke="#212121" stroke-linecap="round" stroke-linejoin="round" stroke-width="1.5px"></path><path class="cls-1" d="M16.487 19.494l.479 1.917a1.5 1.5 0 0 0 1.455 1.137h.329" fill="none" stroke="#212121" stroke-linecap="round" stroke-linejoin="round" stroke-width="1.5px"></path></g></svg>