<svg xmlns="http://www.w3.org/2000/svg" width="24" height="24" viewBox="0 0 24 24"><title>flying insect bee 1</title><g fill="#212121" class="nc-icon-wrapper"><defs></defs><path class="cls-1" d="M6.055 9.61c0-2.873 2.662-5.2 5.945-5.2s5.945 2.329 5.945 5.2v6.69c0 2.873-2.662 5.2-5.945 5.2s-5.945-2.329-5.945-5.2z" fill="none" stroke="#212121" stroke-linecap="round" stroke-linejoin="round" stroke-width="1.5px"></path><path class="cls-1" d="M6.055 9.61h11.89" fill="none" stroke="#212121" stroke-linecap="round" stroke-linejoin="round" stroke-width="1.5px"></path><path class="cls-1" d="M6.055 13.325h11.89" fill="none" stroke="#212121" stroke-linecap="round" stroke-linejoin="round" stroke-width="1.5px"></path><path class="cls-1" d="M6.115 17.041h11.77" fill="none" stroke="#212121" stroke-linecap="round" stroke-linejoin="round" stroke-width="1.5px"></path><path class="cls-1" d="M15.014 5.125c-.391-3.442 2.073-5.291 3.674-3.69" fill="none" stroke="#212121" stroke-linecap="round" stroke-linejoin="round" stroke-width="1.5px"></path><path class="cls-1" d="M8.986 5.125c.391-3.442-2.073-5.291-3.674-3.69" fill="none" stroke="#212121" stroke-linecap="round" stroke-linejoin="round" stroke-width="1.5px"></path><path class="cls-1" d="M6.055 10.353a5.188 5.188 0 0 0-2.973-1.486c-2.972 0-2.972 4.458-.743 4.458" fill="none" stroke="#212121" stroke-linecap="round" stroke-linejoin="round" stroke-width="1.5px"></path><path class="cls-1" d="M6.055 16.3a5.188 5.188 0 0 1-2.973 1.486c-2.972 0-2.972-4.459-.743-4.459" fill="none" stroke="#212121" stroke-linecap="round" stroke-linejoin="round" stroke-width="1.5px"></path><path class="cls-1" d="M17.945 10.353a5.188 5.188 0 0 1 2.973-1.486c2.972 0 2.972 4.458.743 4.458" fill="none" stroke="#212121" stroke-linecap="round" stroke-linejoin="round" stroke-width="1.5px"></path><path class="cls-1" d="M17.945 16.3a5.188 5.188 0 0 0 2.973 1.486c2.972 0 2.972-4.459.743-4.459" fill="none" stroke="#212121" stroke-linecap="round" stroke-linejoin="round" stroke-width="1.5px"></path><path class="cls-1" d="M12 21.5v1.486" fill="none" stroke="#212121" stroke-linecap="round" stroke-linejoin="round" stroke-width="1.5px"></path></g></svg>