<svg xmlns="http://www.w3.org/2000/svg" width="24" height="24" viewBox="0 0 24 24"><title>flying insect moth</title><g fill="#212121" class="nc-icon-wrapper"><defs></defs><circle class="cls-1" cx="12.113" cy="4.875" r="3" fill="none" stroke="#212121" stroke-linecap="round" stroke-linejoin="round" stroke-width="1.5px"></circle><path class="cls-1" d="M10.57 7.448a32.753 32.753 0 0 0-1.457 8.677c0 4.5 6 4.5 6 0a32.72 32.72 0 0 0-1.457-8.677" fill="none" stroke="#212121" stroke-linecap="round" stroke-linejoin="round" stroke-width="1.5px"></path><path class="cls-1" d="M9.133 15.365a7.08 7.08 0 0 1 2.98-.74 7.08 7.08 0 0 1 2.98.74" fill="none" stroke="#212121" stroke-linecap="round" stroke-linejoin="round" stroke-width="1.5px"></path><path class="cls-1" d="M9.113 21.75l-1.5 1.5" fill="none" stroke="#212121" stroke-linecap="round" stroke-linejoin="round" stroke-width="1.5px"></path><path class="cls-1" d="M6.863 18.75l-2.25.75" fill="none" stroke="#212121" stroke-linecap="round" stroke-linejoin="round" stroke-width="1.5px"></path><path class="cls-1" d="M15.113 21.75l1.5 1.5" fill="none" stroke="#212121" stroke-linecap="round" stroke-linejoin="round" stroke-width="1.5px"></path><path class="cls-1" d="M17.363 18.75l2.25.75" fill="none" stroke="#212121" stroke-linecap="round" stroke-linejoin="round" stroke-width="1.5px"></path><path class="cls-1" d="M13.6 2.267A5.7 5.7 0 0 1 17.363.75" fill="none" stroke="#212121" stroke-linecap="round" stroke-linejoin="round" stroke-width="1.5px"></path><path class="cls-1" d="M10.63 2.267A5.7 5.7 0 0 0 6.863.75" fill="none" stroke="#212121" stroke-linecap="round" stroke-linejoin="round" stroke-width="1.5px"></path><path class="cls-1" d="M13.671 7.5c.8 0 10.446-.01 8.942 3.75-1.311 3.277-7.461-.278-8.181-.708" fill="none" stroke="#212121" stroke-linecap="round" stroke-linejoin="round" stroke-width="1.5px"></path><path class="cls-1" d="M10.555 7.5c-.8 0-10.446-.01-8.942 3.75 1.311 3.277 7.461-.278 8.181-.708" fill="none" stroke="#212121" stroke-linecap="round" stroke-linejoin="round" stroke-width="1.5px"></path></g></svg>