<svg xmlns="http://www.w3.org/2000/svg" width="24" height="24" viewBox="0 0 24 24"><title>flying insect bee 2</title><g fill="#212121" class="nc-icon-wrapper"><defs></defs><circle class="cls-1" cx="11.88" cy="9.75" r="3.75" fill="none" stroke="#212121" stroke-linecap="round" stroke-linejoin="round" stroke-width="1.5px"></circle><path class="cls-1" d="M13.953 12.874a6.012 6.012 0 0 1 1.677 4.376c0 3.75-3 6-3.75 6s-3.75-2.25-3.75-6a6.011 6.011 0 0 1 1.677-4.375" fill="none" stroke="#212121" stroke-linecap="round" stroke-linejoin="round" stroke-width="1.5px"></path><path class="cls-1" d="M9.78 6.643a3 3 0 1 1 4.2 0" fill="none" stroke="#212121" stroke-linecap="round" stroke-linejoin="round" stroke-width="1.5px"></path><path class="cls-1" d="M14 2.379l.618-.618a3 3 0 0 1 2.721-.819A5.542 5.542 0 0 1 20.13 2.25" fill="none" stroke="#212121" stroke-linecap="round" stroke-linejoin="round" stroke-width="1.5px"></path><path class="cls-1" d="M9.759 2.379l-.618-.618A3 3 0 0 0 6.422.942 5.545 5.545 0 0 0 3.63 2.25" fill="none" stroke="#212121" stroke-linecap="round" stroke-linejoin="round" stroke-width="1.5px"></path><path class="cls-1" d="M8.168 16.5h7.424" fill="none" stroke="#212121" stroke-linecap="round" stroke-linejoin="round" stroke-width="1.5px"></path><path class="cls-1" d="M8.513 19.5h6.737" fill="none" stroke="#212121" stroke-linecap="round" stroke-linejoin="round" stroke-width="1.5px"></path><path class="cls-1" d="M14.881 7.5l7.671 7.671a.751.751 0 0 1-.083 1.134 4.251 4.251 0 0 1-2.339.944 3.285 3.285 0 0 1-2.25-.75" fill="none" stroke="#212121" stroke-linecap="round" stroke-linejoin="round" stroke-width="1.5px"></path><path class="cls-1" d="M8.879 7.5l-7.671 7.672a.752.752 0 0 0 .084 1.134 4.251 4.251 0 0 0 2.338.944 3.285 3.285 0 0 0 2.25-.75" fill="none" stroke="#212121" stroke-linecap="round" stroke-linejoin="round" stroke-width="1.5px"></path></g></svg>