<svg xmlns="http://www.w3.org/2000/svg" width="24" height="24" viewBox="0 0 24 24"><title>focus flower</title><g fill="#212121" class="nc-icon-wrapper"><defs></defs><path class="a" d="M12 13.494v9.75" fill="none" stroke="#212121" stroke-linecap="round" stroke-linejoin="round" stroke-width="1.5px"></path><path class="a" d="M4.5 15.744a7.5 7.5 0 0 1 7.5 7.5 7.5 7.5 0 0 1-7.5-7.5z" fill="none" stroke="#212121" stroke-linecap="round" stroke-linejoin="round" stroke-width="1.5px"></path><path class="a" d="M19.5 15.744a7.5 7.5 0 0 0-7.5 7.5 7.5 7.5 0 0 0 7.5-7.5z" fill="none" stroke="#212121" stroke-linecap="round" stroke-linejoin="round" stroke-width="1.5px"></path><path class="a" d="M4.5 5.994V2.335A.75.75 0 0 1 5.86 1.9L9 5.244l2.349-4.11a.75.75 0 0 1 1.3 0L15 5.244 18.14 1.9a.75.75 0 0 1 1.36.436v3.658a7.5 7.5 0 0 1-15 0z" fill="none" stroke="#212121" stroke-linecap="round" stroke-linejoin="round" stroke-width="1.5px"></path></g></svg>