<svg xmlns="http://www.w3.org/2000/svg" width="24" height="24" viewBox="0 0 24 24"><title>focus auto 1</title><g fill="#212121" class="nc-icon-wrapper"><defs></defs><path class="a" d="M8.25 18V9.75a3.75 3.75 0 0 1 7.5 0V18" fill="none" stroke="#212121" stroke-linecap="round" stroke-linejoin="round" stroke-width="1.5px"></path><path class="a" d="M8.25 12.75h7.5" fill="none" stroke="#212121" stroke-linecap="round" stroke-linejoin="round" stroke-width="1.5px"></path><path class="a" d="M.75 4.5V2.25a1.5 1.5 0 0 1 1.5-1.5H4.5" fill="none" stroke="#212121" stroke-linecap="round" stroke-linejoin="round" stroke-width="1.5px"></path><path class="a" d="M23.25 4.5V2.25a1.5 1.5 0 0 0-1.5-1.5H19.5" fill="none" stroke="#212121" stroke-linecap="round" stroke-linejoin="round" stroke-width="1.5px"></path><path class="a" d="M.75 19.5v2.25a1.5 1.5 0 0 0 1.5 1.5H4.5" fill="none" stroke="#212121" stroke-linecap="round" stroke-linejoin="round" stroke-width="1.5px"></path><path class="a" d="M23.25 19.5v2.25a1.5 1.5 0 0 1-1.5 1.5H19.5" fill="none" stroke="#212121" stroke-linecap="round" stroke-linejoin="round" stroke-width="1.5px"></path></g></svg>