<svg xmlns="http://www.w3.org/2000/svg" width="24" height="24" viewBox="0 0 24 24"><title>folder file 1</title><g fill="#212121" class="nc-icon-wrapper"><defs></defs><path class="a" d="M23.231 12.435a1 1 0 0 0-.979-1.193H10.424a1 1 0 0 1-.978-.8l-.278-1.391a1 1 0 0 0-.978-.8H1.747a1 1 0 0 0-.978 1.193l2.593 13a1 1 0 0 0 .978.8h15.918a1 1 0 0 0 .978-.8c.411-2.052 1.508-7.575 1.995-10.009z" fill="none" stroke="#212121" stroke-linecap="round" stroke-linejoin="round" stroke-width="1.5px"></path><path class="a" d="M4.5 5.25l.02-3.5a1 1 0 0 1 1-1h12.963a1 1 0 0 1 1 1l.02 6.5" fill="none" stroke="#212121" stroke-linecap="round" stroke-linejoin="round" stroke-width="1.5px"></path><path class="a" d="M7.512 3.742l8.238.008" fill="none" stroke="#212121" stroke-linecap="round" stroke-linejoin="round" stroke-width="1.5px"></path><path class="a" d="M12 6.75h3.75" fill="none" stroke="#212121" stroke-linecap="round" stroke-linejoin="round" stroke-width="1.5px"></path></g></svg>