<svg xmlns="http://www.w3.org/2000/svg" width="24" height="24" viewBox="0 0 24 24"><title>footwear sock</title><g fill="#212121" class="nc-icon-wrapper"><defs></defs><path class="cls-1" d="M18.375 22.938a3.753 3.753 0 0 0 1.151-6.089L15.375 12.7V1.5a.75.75 0 0 0-.75-.75h-.75" fill="none" stroke="#212121" stroke-linecap="round" stroke-linejoin="round" stroke-width="1.5px"></path><path class="cls-1" d="M6.027 18.4A3.75 3.75 0 0 0 3.375 12" fill="none" stroke="#212121" stroke-linecap="round" stroke-linejoin="round" stroke-width="1.5px"></path><path class="cls-1" d="M15.407 17.293a3.75 3.75 0 0 1-5.239 5.238 6 6 0 0 1 5.239-5.238z" fill="none" stroke="#212121" stroke-linecap="round" stroke-linejoin="round" stroke-width="1.5px"></path><path class="cls-1" d="M4.125.75a.75.75 0 0 0-.75.75v12.75a3.749 3.749 0 0 0 1.1 2.651l5.25 5.25a3.749 3.749 0 0 0 5.3-5.3l-4.15-4.151V1.5a.75.75 0 0 0-.75-.75z" fill="none" stroke="#212121" stroke-linecap="round" stroke-linejoin="round" stroke-width="1.5px"></path></g></svg>