<svg xmlns="http://www.w3.org/2000/svg" width="24" height="24" viewBox="0 0 24 24"><title>footwear flip flops</title><g fill="#212121" class="nc-icon-wrapper"><defs></defs><path class="cls-1" d="M9.265 19.271a4.262 4.262 0 0 1-8.515-.283V5.325A4.575 4.575 0 0 1 5.325.75h.285a4.574 4.574 0 0 1 4.565 4.879z" fill="none" stroke="#212121" stroke-linecap="round" stroke-linejoin="round" stroke-width="1.5px"></path><path class="cls-1" d="M.75 10.5l4.5-5.25 4.6 5.25" fill="none" stroke="#212121" stroke-linecap="round" stroke-linejoin="round" stroke-width="1.5px"></path><path class="cls-1" d="M14.735 19.271a4.262 4.262 0 0 0 8.515-.283V5.325A4.575 4.575 0 0 0 18.675.75h-.285a4.574 4.574 0 0 0-4.565 4.879z" fill="none" stroke="#212121" stroke-linecap="round" stroke-linejoin="round" stroke-width="1.5px"></path><path class="cls-1" d="M23.25 10.5l-4.5-5.25-4.6 5.25" fill="none" stroke="#212121" stroke-linecap="round" stroke-linejoin="round" stroke-width="1.5px"></path></g></svg>