<svg xmlns="http://www.w3.org/2000/svg" width="24" height="24" viewBox="0 0 24 24"><title>footwear heels 1</title><g fill="#212121" class="nc-icon-wrapper"><defs></defs><path class="cls-1" d="M.75 11.213V5.537a2.249 2.249 0 0 1 3.086-2.089L6.793 4.63a4.507 4.507 0 0 1 2.236 1.946l3.925 6.87a4.5 4.5 0 0 0 3.908 2.267H20.1a1.5 1.5 0 0 1 1.248.668l1.777 2.666a.75.75 0 0 1-.624 1.166h-8.843a4.5 4.5 0 0 1-3.744-2l-4-5.994a2.25 2.25 0 0 0-1.872-1z" fill="none" stroke="#212121" stroke-linecap="round" stroke-linejoin="round" stroke-width="1.5px"></path><path class="cls-1" d="M.75 11.213l1.322 7.935a1.276 1.276 0 0 0 2.529-.1l.649-7.481" fill="none" stroke="#212121" stroke-linecap="round" stroke-linejoin="round" stroke-width="1.5px"></path></g></svg>