<svg xmlns="http://www.w3.org/2000/svg" width="24" height="24" viewBox="0 0 24 24"><title>force touch double tap</title><g fill="#212121" class="nc-icon-wrapper"><defs></defs><path class="a" d="M11.307 23.25h-7.5a3 3 0 0 1-3-3V3.75a3 3 0 0 1 3-3h7.5a3 3 0 0 1 3 3V6" fill="none" stroke="#212121" stroke-linecap="round" stroke-linejoin="round" stroke-width="1.5px"></path><path class="a" d="M.807 18.75h6" fill="none" stroke="#212121" stroke-linecap="round" stroke-linejoin="round" stroke-width="1.5px"></path><path class="a" d="M23.193 16.152l-2.445-2.446a3 3 0 0 0-3.865-.32l-1.644 1.175-2.122-2.121A1.5 1.5 0 1 0 11 14.561l3.712 3.712-1.245.415a1.637 1.637 0 0 0 .7 3.181l3.728-.414" fill="none" stroke="#212121" stroke-linecap="round" stroke-linejoin="round" stroke-width="1.5px"></path><path class="a" d="M9.061 16.651A4.5 4.5 0 1 1 15.2 10.5" fill="none" stroke="#212121" stroke-linecap="round" stroke-linejoin="round" stroke-width="1.5px"></path></g></svg>