<svg xmlns="http://www.w3.org/2000/svg" width="24" height="24" viewBox="0 0 24 24"><title>fossil energy gas can</title><g fill="#212121" class="nc-icon-wrapper"><defs></defs><path class="cls-1" d="M7.5 11.25l7.5 7.5" fill="none" stroke="#212121" stroke-linecap="round" stroke-linejoin="round" stroke-width="1.5px"></path><path class="cls-1" d="M15 11.25l-7.5 7.5" fill="none" stroke="#212121" stroke-linecap="round" stroke-linejoin="round" stroke-width="1.5px"></path><path class="cls-1" d="M19.5 21a1.5 1.5 0 0 1-1.5 1.5H4.5A1.5 1.5 0 0 1 3 21V6a1.5 1.5 0 0 1 1.5-1.5h9.75l5.25 5.25z" fill="none" stroke="#212121" stroke-linecap="round" stroke-linejoin="round" stroke-width="1.5px"></path><path class="cls-1" d="M4.5 4.5V3A1.5 1.5 0 0 1 6 1.5h4.5A1.5 1.5 0 0 1 12 3v1.5" fill="none" stroke="#212121" stroke-linecap="round" stroke-linejoin="round" stroke-width="1.5px"></path><path class="cls-1" d="M15 5.25l1.189-1.189a1.5 1.5 0 0 1 2.122 0l1.628 1.628a1.5 1.5 0 0 1 0 2.122L18.75 9" fill="none" stroke="#212121" stroke-linecap="round" stroke-linejoin="round" stroke-width="1.5px"></path></g></svg>