<svg xmlns="http://www.w3.org/2000/svg" width="24" height="24" viewBox="0 0 24 24"><title>fruit scale apple</title><g fill="#212121" class="nc-icon-wrapper"><defs></defs><path class="cls-1" d="M21.8 22.908a.51.51 0 0 1-.484.342H2.689a.51.51 0 0 1-.484-.342l-.679-2a.5.5 0 0 1 .483-.658h19.982a.5.5 0 0 1 .483.658z" fill="none" stroke="#212121" stroke-linecap="round" stroke-linejoin="round" stroke-width="1.5px"></path><path class="cls-1" d="M1.5 17.25h9.643" fill="none" stroke="#212121" stroke-linecap="round" stroke-linejoin="round" stroke-width="1.5px"></path><path class="cls-1" d="M6 17.464v2.786" fill="none" stroke="#212121" stroke-linecap="round" stroke-linejoin="round" stroke-width="1.5px"></path><circle class="cls-1" cx="17.25" cy="6" r="5.25" fill="none" stroke="#212121" stroke-linecap="round" stroke-linejoin="round" stroke-width="1.5px"></circle><path class="cls-1" d="M12.217 7.5h10.066" fill="none" stroke="#212121" stroke-linecap="round" stroke-linejoin="round" stroke-width="1.5px"></path><path class="cls-1" d="M15.75 4.5l1.5 3" fill="none" stroke="#212121" stroke-linecap="round" stroke-linejoin="round" stroke-width="1.5px"></path><path class="cls-1" d="M15 10.745v9.505" fill="none" stroke="#212121" stroke-linecap="round" stroke-linejoin="round" stroke-width="1.5px"></path><path class="cls-1" d="M19.5 10.813v9.437" fill="none" stroke="#212121" stroke-linecap="round" stroke-linejoin="round" stroke-width="1.5px"></path><path class="cls-1" d="M9.764 15.029a6.058 6.058 0 0 0 .9-2.9c0-1.74-1.135-3.2-2.5-3.2s-1.362.586-1.816.586-.454-.586-1.816-.586-2.5 1.457-2.5 3.2a6.073 6.073 0 0 0 .912 2.93" fill="none" stroke="#212121" stroke-linecap="round" stroke-linejoin="round" stroke-width="1.5px"></path><path class="cls-1" d="M6.347 9.513v-.586a2.671 2.671 0 0 1 2.385-3.034" fill="none" stroke="#212121" stroke-linecap="round" stroke-linejoin="round" stroke-width="1.5px"></path></g></svg>