<svg xmlns="http://www.w3.org/2000/svg" width="24" height="24" viewBox="0 0 24 24"><title>gaming 100</title><g fill="#212121" class="nc-icon-wrapper"><defs></defs><path class="a" d="M23.25 12a3.751 3.751 0 0 0-2.618-3.576 3.75 3.75 0 0 0-5.056-5.056 3.751 3.751 0 0 0-7.152 0 3.75 3.75 0 0 0-5.056 5.055 3.751 3.751 0 0 0 0 7.152 3.75 3.75 0 0 0 5.056 5.056 3.751 3.751 0 0 0 7.152 0 3.75 3.75 0 0 0 5.056-5.056A3.753 3.753 0 0 0 23.25 12z" fill="none" stroke="#212121" stroke-linecap="round" stroke-linejoin="round" stroke-width="1.5px"></path><path class="a" d="M18.75 12.749a1.5 1.5 0 1 1-3 0v-1.5a1.5 1.5 0 0 1 3 0z" fill="none" stroke="#212121" stroke-linecap="round" stroke-linejoin="round" stroke-width="1.5px"></path><path class="a" d="M13.5 12.749a1.5 1.5 0 1 1-3 0v-1.5a1.5 1.5 0 0 1 3 0z" fill="none" stroke="#212121" stroke-linecap="round" stroke-linejoin="round" stroke-width="1.5px"></path><path class="a" d="M5.25 9.749H6a.75.75 0 0 1 .75.75v3.75" fill="none" stroke="#212121" stroke-linecap="round" stroke-linejoin="round" stroke-width="1.5px"></path><path class="a" d="M5.25 14.249h3" fill="none" stroke="#212121" stroke-linecap="round" stroke-linejoin="round" stroke-width="1.5px"></path></g></svg>