<svg xmlns="http://www.w3.org/2000/svg" width="24" height="24" viewBox="0 0 24 24"><title>gaming first place</title><g fill="#212121" class="nc-icon-wrapper"><defs></defs><path class="a" d="M12.729 1.2l3.346 6.629 6.44.638a.805.805 0 0 1 .5 1.374l-5.3 5.253 1.965 7.138a.813.813 0 0 1-1.151.935L12 19.933l-6.52 3.229a.813.813 0 0 1-1.151-.935l1.965-7.138L.99 9.836a.805.805 0 0 1 .5-1.374l6.44-.638L11.271 1.2a.819.819 0 0 1 1.458 0z" fill="none" stroke="#212121" stroke-linecap="round" stroke-linejoin="round" stroke-width="1.5px"></path><path class="a" d="M13.5 16.499v-6" fill="none" stroke="#212121" stroke-linecap="round" stroke-linejoin="round" stroke-width="1.5px"></path><path class="a" d="M8.25 10.5H9a.75.75 0 0 1 .75.75v5.25" fill="none" stroke="#212121" stroke-linecap="round" stroke-linejoin="round" stroke-width="1.5px"></path><path class="a" d="M8.25 16.499h3" fill="none" stroke="#212121" stroke-linecap="round" stroke-linejoin="round" stroke-width="1.5px"></path><path class="a" d="M13.5 10.5H15a1.5 1.5 0 0 1 0 3h-1.5" fill="none" stroke="#212121" stroke-linecap="round" stroke-linejoin="round" stroke-width="1.5px"></path></g></svg>