<svg xmlns="http://www.w3.org/2000/svg" width="24" height="24" viewBox="0 0 24 24"><title>garbage throw</title><g fill="#212121" class="nc-icon-wrapper"><defs></defs><circle class="a" cx="19.5" cy="3.559" r="2.625" fill="none" stroke="#212121" stroke-linecap="round" stroke-linejoin="round" stroke-width="1.5px"></circle><path class="a" d="M14.25 15.559H12a1.5 1.5 0 0 1 0-3h2.25a1.5 1.5 0 0 0 1.5-1.5 3 3 0 0 1 3-3h1.5a3 3 0 0 1 3 3v4.5a1.5 1.5 0 0 1-1.5 1.5v3.75a2.25 2.25 0 0 1-4.5 0v-6" fill="none" stroke="#212121" stroke-linecap="round" stroke-linejoin="round" stroke-width="1.5px"></path><path class="a" d="M.75 16.309l1.5 6.75h4.5l1.5-6.75" fill="none" stroke="#212121" stroke-linecap="round" stroke-linejoin="round" stroke-width="1.5px"></path><path class="a" d="M4.5 17.434a.375.375 0 1 1-.375.375.375.375 0 0 1 .375-.375" fill="none" stroke="#212121" stroke-linecap="round" stroke-linejoin="round" stroke-width="1.5px"></path><path class="a" d="M3.75 13.684a.375.375 0 1 1-.375.375.375.375 0 0 1 .375-.375" fill="none" stroke="#212121" stroke-linecap="round" stroke-linejoin="round" stroke-width="1.5px"></path></g></svg>