<svg xmlns="http://www.w3.org/2000/svg" width="24" height="24" viewBox="0 0 24 24"><title>gardening lawn mower 1</title><g fill="#212121" class="nc-icon-wrapper"><defs></defs><path class="cls-1" d="M12.881 19h-7.76" fill="none" stroke="#212121" stroke-linecap="round" stroke-linejoin="round" stroke-width="1.5px"></path><path class="cls-1" d="M2.25 17.631V16a3 3 0 0 1 3-3h7.5a3 3 0 0 1 3 3v1.631" fill="none" stroke="#212121" stroke-linecap="round" stroke-linejoin="round" stroke-width="1.5px"></path><path class="cls-1" d="M6 13v-1.5A1.5 1.5 0 0 1 7.5 10h3a1.5 1.5 0 0 1 1.5 1.5V13" fill="none" stroke="#212121" stroke-linecap="round" stroke-linejoin="round" stroke-width="1.5px"></path><path class="cls-1" d="M15.75 16v-5.42a1.5 1.5 0 0 1 .39-1.009l7.11-7.821" fill="none" stroke="#212121" stroke-linecap="round" stroke-linejoin="round" stroke-width="1.5px"></path><circle class="cls-1" cx="3" cy="19.75" r="2.25" fill="none" stroke="#212121" stroke-linecap="round" stroke-linejoin="round" stroke-width="1.5px"></circle><circle class="cls-1" cx="15" cy="19.75" r="2.25" fill="none" stroke="#212121" stroke-linecap="round" stroke-linejoin="round" stroke-width="1.5px"></circle><path class="cls-1" d="M21.211 3.993L18.75 2.062" fill="none" stroke="#212121" stroke-linecap="round" stroke-linejoin="round" stroke-width="1.5px"></path></g></svg>