<svg xmlns="http://www.w3.org/2000/svg" width="24" height="24" viewBox="0 0 24 24"><title>gardening pots</title><g fill="#212121" class="nc-icon-wrapper"><defs></defs><path class="cls-1" d="M20.25 11.5a1.5 1.5 0 0 1-1.5 1.5H5.25a1.5 1.5 0 0 1 0-3h13.5a1.5 1.5 0 0 1 1.5 1.5z" fill="none" stroke="#212121" stroke-linecap="round" stroke-linejoin="round" stroke-width="1.5px"></path><path class="cls-1" d="M18.75 13l-1.3 8.478a1.5 1.5 0 0 1-1.483 1.272h-7.93a1.5 1.5 0 0 1-1.483-1.272L5.25 13" fill="none" stroke="#212121" stroke-linecap="round" stroke-linejoin="round" stroke-width="1.5px"></path><path class="cls-1" d="M20.25 3.25a1.5 1.5 0 0 1-1.5 1.5H5.25a1.5 1.5 0 0 1 0-3h13.5a1.5 1.5 0 0 1 1.5 1.5z" fill="none" stroke="#212121" stroke-linecap="round" stroke-linejoin="round" stroke-width="1.5px"></path><path class="cls-1" d="M6.058 10L5.25 4.75" fill="none" stroke="#212121" stroke-linecap="round" stroke-linejoin="round" stroke-width="1.5px"></path><path class="cls-1" d="M18.75 4.75L17.942 10" fill="none" stroke="#212121" stroke-linecap="round" stroke-linejoin="round" stroke-width="1.5px"></path></g></svg>