<svg xmlns="http://www.w3.org/2000/svg" width="24" height="24" viewBox="0 0 24 24"><title>gardening seed hand</title><g fill="#212121" class="nc-icon-wrapper"><defs></defs><path class="cls-1" d="M20.25 7.3l-7.5 3s-1.186-1.814 0-3A10.789 10.789 0 0 1 15 5.8l-1.611-1.071a1.486 1.486 0 0 0-1.332-.166A18.946 18.946 0 0 1 6.75 5.8C4.5 5.8 4.5 4.3 4.5 4.3l6.929-3.15a4.5 4.5 0 0 1 2.744-.313l6.077 1.216" fill="none" stroke="#212121" stroke-linecap="round" stroke-linejoin="round" stroke-width="1.5px"></path><path class="cls-1" d="M5.25 10.5l1.5 1.5" fill="none" stroke="#212121" stroke-linecap="round" stroke-linejoin="round" stroke-width="1.5px"></path><path class="cls-1" d="M16.5 14.25H15" fill="none" stroke="#212121" stroke-linecap="round" stroke-linejoin="round" stroke-width="1.5px"></path><path class="cls-1" d="M3.75 23.25L6 21.75" fill="none" stroke="#212121" stroke-linecap="round" stroke-linejoin="round" stroke-width="1.5px"></path><path class="cls-1" d="M3.75 16.5l1.5.75" fill="none" stroke="#212121" stroke-linecap="round" stroke-linejoin="round" stroke-width="1.5px"></path><path class="cls-1" d="M15 20.25l-1.5 1.5" fill="none" stroke="#212121" stroke-linecap="round" stroke-linejoin="round" stroke-width="1.5px"></path><path class="cls-1" d="M10.5 17.25v-1.5" fill="none" stroke="#212121" stroke-linecap="round" stroke-linejoin="round" stroke-width="1.5px"></path></g></svg>