<svg xmlns="http://www.w3.org/2000/svg" width="24" height="24" viewBox="0 0 24 24"><title>gas can</title><g fill="#212121" class="nc-icon-wrapper"><defs></defs><path class="a" d="M15.75.75a3 3 0 0 0-3 3v3h-9a3 3 0 0 0-3 3v10.5a3 3 0 0 0 3 3h16.5a3 3 0 0 0 3-3V3.75a3 3 0 0 0-3-3z" fill="none" stroke="#212121" stroke-linecap="round" stroke-linejoin="round" stroke-width="1.5px"></path><path class="a" d="M20.25 5.25a1.5 1.5 0 0 0-1.5-1.5h-1.5a1.5 1.5 0 0 0 0 3h1.5a1.5 1.5 0 0 0 1.5-1.5z" fill="none" stroke="#212121" stroke-linecap="round" stroke-linejoin="round" stroke-width="1.5px"></path><path class="a" d="M4.75 3.75h4a1 1 0 0 1 1 1v2h-6v-2a1 1 0 0 1 1-1z" fill="none" stroke="#212121" stroke-linecap="round" stroke-linejoin="round" stroke-width="1.5px"></path><path class="a" d="M6.75 9.75l10.5 10.5" fill="none" stroke="#212121" stroke-linecap="round" stroke-linejoin="round" stroke-width="1.5px"></path><path class="a" d="M6.75 20.25l10.5-10.5" fill="none" stroke="#212121" stroke-linecap="round" stroke-linejoin="round" stroke-width="1.5px"></path></g></svg>