<svg xmlns="http://www.w3.org/2000/svg" width="24" height="24" viewBox="0 0 24 24"><title>gesture swipe horizontal left 3</title><g fill="#212121" class="nc-icon-wrapper"><defs></defs><path class="a" d="M.748 3.748v6h6" fill="none" stroke="#212121" stroke-linecap="round" stroke-linejoin="round" stroke-width="1.5px"></path><path class="a" d="M3.748.748v6h6" fill="none" stroke="#212121" stroke-linecap="round" stroke-linejoin="round" stroke-width="1.5px"></path><path class="a" d="M3.748 5.18a20.279 20.279 0 0 1 19.5-.827" fill="none" stroke="#212121" stroke-linecap="round" stroke-linejoin="round" stroke-width="1.5px"></path><path class="a" d="M12.109 23.248l-3.79-3.093a1.636 1.636 0 0 1-.565-1.676 1.638 1.638 0 0 1 2.321-1.068l1.174.589v-6.75a1.5 1.5 0 0 1 1.5-1.5 1.5 1.5 0 0 1 1.5 1.5v4.5l1.993.333a3 3 0 0 1 2.507 2.959v4.208" fill="none" stroke="#212121" stroke-linecap="round" stroke-linejoin="round" stroke-width="1.5px"></path></g></svg>