<svg xmlns="http://www.w3.org/2000/svg" width="24" height="24" viewBox="0 0 24 24"><title>gesture zoom out</title><g fill="#212121" class="nc-icon-wrapper"><defs></defs><path class="a" d="M3.939 15.715l1.461-.342" fill="none" stroke="#212121" stroke-linecap="round" stroke-linejoin="round" stroke-width="1.5px"></path><path class="a" d="M10.32 23.248l-2.169-9.287a3.75 3.75 0 0 0-7.3 1.705l1.771 7.582" fill="none" stroke="#212121" stroke-linecap="round" stroke-linejoin="round" stroke-width="1.5px"></path><path class="a" d="M20.057 15.715l-1.46-.342" fill="none" stroke="#212121" stroke-linecap="round" stroke-linejoin="round" stroke-width="1.5px"></path><path class="a" d="M21.379 23.248l1.77-7.582a3.75 3.75 0 1 0-7.3-1.7l-2.169 9.287" fill="none" stroke="#212121" stroke-linecap="round" stroke-linejoin="round" stroke-width="1.5px"></path><path class="a" d="M19.458 6.649l3.79-1.906-1.906-3.79" fill="none" stroke="#212121" stroke-linecap="round" stroke-linejoin="round" stroke-width="1.5px"></path><path class="a" d="M23.248 4.764a26.941 26.941 0 0 0-9-2.353" fill="none" stroke="#212121" stroke-linecap="round" stroke-linejoin="round" stroke-width="1.5px"></path><path class="a" d="M4.539 6.649L.748 4.743 2.654.953" fill="none" stroke="#212121" stroke-linecap="round" stroke-linejoin="round" stroke-width="1.5px"></path><path class="a" d="M.748 4.764a26.953 26.953 0 0 1 9-2.353" fill="none" stroke="#212121" stroke-linecap="round" stroke-linejoin="round" stroke-width="1.5px"></path></g></svg>