<svg xmlns="http://www.w3.org/2000/svg" width="24" height="24" viewBox="0 0 24 24"><title>gesture tap swipe down 1</title><g fill="#212121" class="nc-icon-wrapper"><defs></defs><path class="a" d="M.75 6.108l3.094-3.789a1.637 1.637 0 0 1 1.675-.566 1.637 1.637 0 0 1 1.068 2.321L6 5.248h6.75a1.5 1.5 0 0 1 1.5 1.5 1.5 1.5 0 0 1-1.5 1.5h-4.5l-.332 1.994a3 3 0 0 1-2.959 2.506H.75" fill="none" stroke="#212121" stroke-linecap="round" stroke-linejoin="round" stroke-width="1.5px"></path><path class="a" d="M15.75 23.248v-7.5" fill="none" stroke="#212121" stroke-linecap="round" stroke-linejoin="round" stroke-width="1.5px"></path><path class="a" d="M19.5 19.498l-3.75 3.75-3.75-3.75" fill="none" stroke="#212121" stroke-linecap="round" stroke-linejoin="round" stroke-width="1.5px"></path><path class="a" d="M11.507 10.991a6 6 0 1 0 0-8.485" fill="none" stroke="#212121" stroke-linecap="round" stroke-linejoin="round" stroke-width="1.5px"></path></g></svg>