<svg xmlns="http://www.w3.org/2000/svg" width="24" height="24" viewBox="0 0 24 24"><title>gesture two finger tap</title><g fill="#212121" class="nc-icon-wrapper"><defs></defs><path class="a" d="M19.629 14.515A8.992 8.992 0 1 0 3 9.777 8.919 8.919 0 0 0 4.69 15" fill="none" stroke="#212121" stroke-linecap="round" stroke-linejoin="round" stroke-width="1.5px"></path><path class="a" d="M17.25 9.777a5.25 5.25 0 0 0-10.5 0" fill="none" stroke="#212121" stroke-linecap="round" stroke-linejoin="round" stroke-width="1.5px"></path><path class="a" d="M16.5 23.248l.816-2.856a3 3 0 0 0-1.543-3.507L15 16.5v-3.75a1.5 1.5 0 1 0-3 0v-1.5a1.5 1.5 0 1 0-3 0V18l-1.174-.587a1.638 1.638 0 0 0-1.755 2.744l3.789 3.091" fill="none" stroke="#212121" stroke-linecap="round" stroke-linejoin="round" stroke-width="1.5px"></path><path class="a" d="M12 12.748v4.5" fill="none" stroke="#212121" stroke-linecap="round" stroke-linejoin="round" stroke-width="1.5px"></path></g></svg>