<svg xmlns="http://www.w3.org/2000/svg" width="24" height="24" viewBox="0 0 24 24"><title>gesture flip right</title><g fill="#212121" class="nc-icon-wrapper"><defs></defs><path class="a" d="M3.939 11.964l1.461-.341" fill="none" stroke="#212121" stroke-linecap="round" stroke-linejoin="round" stroke-width="1.5px"></path><path class="a" d="M9.1 14.257l-.95-4.046a3.75 3.75 0 1 0-7.3 1.705L2.618 19.5" fill="none" stroke="#212121" stroke-linecap="round" stroke-linejoin="round" stroke-width="1.5px"></path><path class="a" d="M20.057 11.964l-1.461-.341" fill="none" stroke="#212121" stroke-linecap="round" stroke-linejoin="round" stroke-width="1.5px"></path><path class="a" d="M21.378 19.5l1.771-7.582a3.75 3.75 0 0 0-7.3-1.7l-.949 4.026" fill="none" stroke="#212121" stroke-linecap="round" stroke-linejoin="round" stroke-width="1.5px"></path><path class="a" d="M13.691 17.272l2.723 3.254-3.254 2.722" fill="none" stroke="#212121" stroke-linecap="round" stroke-linejoin="round" stroke-width="1.5px"></path><path class="a" d="M16.4 20.507A26.959 26.959 0 0 1 7.227 19.1" fill="none" stroke="#212121" stroke-linecap="round" stroke-linejoin="round" stroke-width="1.5px"></path><path class="a" d="M11.387 6.748L7.981 4.219 10.51.813" fill="none" stroke="#212121" stroke-linecap="round" stroke-linejoin="round" stroke-width="1.5px"></path><path class="a" d="M8 4.234a26.944 26.944 0 0 1 9.248-.766" fill="none" stroke="#212121" stroke-linecap="round" stroke-linejoin="round" stroke-width="1.5px"></path></g></svg>