<svg xmlns="http://www.w3.org/2000/svg" width="24" height="24" viewBox="0 0 24 24"><title>gesture zoom in</title><g fill="#212121" class="nc-icon-wrapper"><defs></defs><path class="a" d="M3.94 15.715l1.46-.342" fill="none" stroke="#212121" stroke-linecap="round" stroke-linejoin="round" stroke-width="1.5px"></path><path class="a" d="M10.32 23.248l-2.169-9.287a3.75 3.75 0 0 0-7.3 1.705l1.77 7.582" fill="none" stroke="#212121" stroke-linecap="round" stroke-linejoin="round" stroke-width="1.5px"></path><path class="a" d="M20.057 15.715l-1.46-.342" fill="none" stroke="#212121" stroke-linecap="round" stroke-linejoin="round" stroke-width="1.5px"></path><path class="a" d="M21.379 23.248l1.77-7.582a3.75 3.75 0 1 0-7.3-1.7l-2.169 9.287" fill="none" stroke="#212121" stroke-linecap="round" stroke-linejoin="round" stroke-width="1.5px"></path><path class="a" d="M6.561 6.748l2.645-3.317L5.888.786" fill="none" stroke="#212121" stroke-linecap="round" stroke-linejoin="round" stroke-width="1.5px"></path><path class="a" d="M9.206 3.444A35.959 35.959 0 0 0 .749 5.133" fill="none" stroke="#212121" stroke-linecap="round" stroke-linejoin="round" stroke-width="1.5px"></path><path class="a" d="M17.436 6.748l-2.645-3.317L18.109.786" fill="none" stroke="#212121" stroke-linecap="round" stroke-linejoin="round" stroke-width="1.5px"></path><path class="a" d="M14.791 3.444a35.977 35.977 0 0 1 8.458 1.689" fill="none" stroke="#212121" stroke-linecap="round" stroke-linejoin="round" stroke-width="1.5px"></path></g></svg>