<svg xmlns="http://www.w3.org/2000/svg" width="24" height="24" viewBox="0 0 24 24"><title>gesture swipe horizontal right 3</title><g fill="#212121" class="nc-icon-wrapper"><defs></defs><path class="a" d="M10.61 23.248l-3.79-3.093a1.639 1.639 0 0 1-.566-1.676 1.639 1.639 0 0 1 2.322-1.068L9.75 18v-6.75a1.5 1.5 0 0 1 1.5-1.5 1.5 1.5 0 0 1 1.5 1.5v4.5l1.993.333a3 3 0 0 1 2.507 2.957v4.208" fill="none" stroke="#212121" stroke-linecap="round" stroke-linejoin="round" stroke-width="1.5px"></path><path class="a" d="M23.249 3.748v6h-6" fill="none" stroke="#212121" stroke-linecap="round" stroke-linejoin="round" stroke-width="1.5px"></path><path class="a" d="M20.249.748v6h-6" fill="none" stroke="#212121" stroke-linecap="round" stroke-linejoin="round" stroke-width="1.5px"></path><path class="a" d="M20.249 5.18a20.279 20.279 0 0 0-19.5-.827" fill="none" stroke="#212121" stroke-linecap="round" stroke-linejoin="round" stroke-width="1.5px"></path></g></svg>