<svg xmlns="http://www.w3.org/2000/svg" width="24" height="24" viewBox="0 0 24 24"><title>gesture tap horizontal expand</title><g fill="#212121" class="nc-icon-wrapper"><defs></defs><path class="a" d="M1.5 12.109L4.594 8.32a1.633 1.633 0 0 1 1.675-.566 1.637 1.637 0 0 1 1.068 2.321l-.587 1.174h6.75a1.5 1.5 0 0 1 1.5 1.5 1.5 1.5 0 0 1-1.5 1.5H9l-.332 1.993a3 3 0 0 1-2.959 2.507H1.5" fill="none" stroke="#212121" stroke-linecap="round" stroke-linejoin="round" stroke-width="1.5px"></path><path class="a" d="M20.25 3.748l-3-3-3 3" fill="none" stroke="#212121" stroke-linecap="round" stroke-linejoin="round" stroke-width="1.5px"></path><path class="a" d="M20.25 20.249l-3 3-3-3.001" fill="none" stroke="#212121" stroke-linecap="round" stroke-linejoin="round" stroke-width="1.5px"></path><path class="a" d="M15 16.724a5.193 5.193 0 0 0 2.25.524 5.25 5.25 0 1 0-3.667-9" fill="none" stroke="#212121" stroke-linecap="round" stroke-linejoin="round" stroke-width="1.5px"></path></g></svg>