<svg xmlns="http://www.w3.org/2000/svg" width="24" height="24" viewBox="0 0 24 24"><title>gesture two fingers scroll</title><g fill="#212121" class="nc-icon-wrapper"><defs></defs><path class="a" d="M.75 17.248l2.856.816a3 3 0 0 0 3.507-1.543l.387-.773h3.75a1.5 1.5 0 0 0 0-3h1.5a1.5 1.5 0 0 0 0-3H6l.587-1.174a1.637 1.637 0 0 0-2.743-1.755L.75 10.608" fill="none" stroke="#212121" stroke-linecap="round" stroke-linejoin="round" stroke-width="1.5px"></path><path class="a" d="M11.25 12.748h-4.5" fill="none" stroke="#212121" stroke-linecap="round" stroke-linejoin="round" stroke-width="1.5px"></path><path class="a" d="M22.5 4.498L18.75.748 15 4.498" fill="none" stroke="#212121" stroke-linecap="round" stroke-linejoin="round" stroke-width="1.5px"></path><path class="a" d="M18.75.748v22.5" fill="none" stroke="#212121" stroke-linecap="round" stroke-linejoin="round" stroke-width="1.5px"></path><path class="a" d="M22.5 19.498l-3.75 3.75-3.75-3.75" fill="none" stroke="#212121" stroke-linecap="round" stroke-linejoin="round" stroke-width="1.5px"></path></g></svg>