<svg xmlns="http://www.w3.org/2000/svg" width="24" height="24" viewBox="0 0 24 24"><title>gesture swipe vertical up 2</title><g fill="#212121" class="nc-icon-wrapper"><defs></defs><path class="a" d="M2.25 12.109L5.344 8.32a1.633 1.633 0 0 1 1.675-.566 1.637 1.637 0 0 1 1.068 2.321L7.5 11.249h6.75a1.5 1.5 0 0 1 1.5 1.5 1.5 1.5 0 0 1-1.5 1.5h-4.5l-.332 1.993a3 3 0 0 1-2.959 2.507H2.25" fill="none" stroke="#212121" stroke-linecap="round" stroke-linejoin="round" stroke-width="1.5px"></path><path class="a" d="M21.75.748h-6v6" fill="none" stroke="#212121" stroke-linecap="round" stroke-linejoin="round" stroke-width="1.5px"></path><path class="a" d="M18.371 23.248a18 18 0 0 0-1.206-22.5" fill="none" stroke="#212121" stroke-linecap="round" stroke-linejoin="round" stroke-width="1.5px"></path></g></svg>