<svg xmlns="http://www.w3.org/2000/svg" width="24" height="24" viewBox="0 0 24 24"><title>gesture two fingers horizontal zoom in</title><g fill="#212121" class="nc-icon-wrapper"><defs></defs><path class="a" d="M17.247 23l.816-2.856a3 3 0 0 0-1.542-3.507l-.774-.387V12.5a1.5 1.5 0 1 0-3 0V11a1.5 1.5 0 1 0-3 0v6.75l-1.174-.587a1.638 1.638 0 0 0-1.755 2.744L10.607 23" fill="none" stroke="#212121" stroke-linecap="round" stroke-linejoin="round" stroke-width="1.5px"></path><path class="a" d="M12.747 12.498v4.5" fill="none" stroke="#212121" stroke-linecap="round" stroke-linejoin="round" stroke-width="1.5px"></path><path class="a" d="M4.498 1.248l-3.75 3.75 3.75 3.75" fill="none" stroke="#212121" stroke-linecap="round" stroke-linejoin="round" stroke-width="1.5px"></path><path class="a" d="M.748 4.998h22.5" fill="none" stroke="#212121" stroke-linecap="round" stroke-linejoin="round" stroke-width="1.5px"></path><path class="a" d="M19.498 1.248l3.75 3.75-3.75 3.75" fill="none" stroke="#212121" stroke-linecap="round" stroke-linejoin="round" stroke-width="1.5px"></path></g></svg>