<svg xmlns="http://www.w3.org/2000/svg" width="24" height="24" viewBox="0 0 24 24"><title>gesture swipe vertical 3</title><g fill="#212121" class="nc-icon-wrapper"><defs></defs><path class="a" d="M3.25 10.608l3.094-3.789a1.637 1.637 0 0 1 1.675-.566 1.637 1.637 0 0 1 1.068 2.321L8.5 9.748h6.75a1.5 1.5 0 0 1 1.5 1.5 1.5 1.5 0 0 1-1.5 1.5h-4.5l-.332 1.994a3 3 0 0 1-2.959 2.506H3.25" fill="none" stroke="#212121" stroke-linecap="round" stroke-linejoin="round" stroke-width="1.5px"></path><path class="a" d="M16.75.748v5.25" fill="none" stroke="#212121" stroke-linecap="round" stroke-linejoin="round" stroke-width="1.5px"></path><path class="a" d="M20.5 4.498L16.75.748 13 4.498" fill="none" stroke="#212121" stroke-linecap="round" stroke-linejoin="round" stroke-width="1.5px"></path><path class="a" d="M16.75 15.748v7.5" fill="none" stroke="#212121" stroke-linecap="round" stroke-linejoin="round" stroke-width="1.5px"></path><path class="a" d="M20.5 19.498l-3.75 3.75-3.75-3.75" fill="none" stroke="#212121" stroke-linecap="round" stroke-linejoin="round" stroke-width="1.5px"></path></g></svg>