<svg xmlns="http://www.w3.org/2000/svg" width="24" height="24" viewBox="0 0 24 24"><title>gesture tap clock 1</title><g fill="#212121" class="nc-icon-wrapper"><defs></defs><path class="a" d="M9.11 23.248l-3.789-3.093a1.639 1.639 0 0 1-.566-1.676 1.638 1.638 0 0 1 2.321-1.068L8.25 18v-6.75a1.5 1.5 0 0 1 1.5-1.5 1.5 1.5 0 0 1 1.5 1.5v4.5l1.993.333a3 3 0 0 1 2.507 2.957v4.208" fill="none" stroke="#212121" stroke-linecap="round" stroke-linejoin="round" stroke-width="1.5px"></path><path class="a" d="M17.379 14.486a9.258 9.258 0 0 0 .844-1.736" fill="none" stroke="#212121" stroke-linecap="round" stroke-linejoin="round" stroke-width="1.5px"></path><circle class="a" cx="18.75" cy="5.248" r="4.5" fill="none" stroke="#212121" stroke-linecap="round" stroke-linejoin="round" stroke-width="1.5px"></circle><path class="a" d="M18.75 5.248v-1.5" fill="none" stroke="#212121" stroke-linecap="round" stroke-linejoin="round" stroke-width="1.5px"></path><path class="a" d="M12 1.065A8.9 8.9 0 0 0 9.75.748 8.979 8.979 0 0 0 2.44 14.97" fill="none" stroke="#212121" stroke-linecap="round" stroke-linejoin="round" stroke-width="1.5px"></path></g></svg>