<svg xmlns="http://www.w3.org/2000/svg" width="24" height="24" viewBox="0 0 24 24"><title>gift heart</title><g fill="#212121" class="nc-icon-wrapper"><defs></defs><path class="a" d="M22.651 5.387a5.659 5.659 0 0 0-5.4-3.128C14.966 2.385 14.01 3.533 12 5.25 9.99 3.533 9.034 2.385 6.75 2.259a5.659 5.659 0 0 0-5.4 3.128C-1.5 11.25 7.368 17.924 12 21.75c4.632-3.826 13.5-10.5 10.651-16.363z" fill="none" stroke="#212121" stroke-linecap="round" stroke-linejoin="round" stroke-width="1.5px"></path><path class="a" d="M12 5.25v16.5" fill="none" stroke="#212121" stroke-linecap="round" stroke-linejoin="round" stroke-width="1.5px"></path><path class="a" d="M12 10.5l3.75 3.75" fill="none" stroke="#212121" stroke-linecap="round" stroke-linejoin="round" stroke-width="1.5px"></path><path class="a" d="M8.25 14.25L12 10.5" fill="none" stroke="#212121" stroke-linecap="round" stroke-linejoin="round" stroke-width="1.5px"></path><path class="a" d="M12 10.5l3.257-3.257a1.908 1.908 0 1 1 1.349 3.257z" fill="none" stroke="#212121" stroke-linecap="round" stroke-linejoin="round" stroke-width="1.5px"></path><path class="a" d="M12 10.5L8.743 7.243A1.908 1.908 0 1 0 7.394 10.5z" fill="none" stroke="#212121" stroke-linecap="round" stroke-linejoin="round" stroke-width="1.5px"></path></g></svg>