<svg xmlns="http://www.w3.org/2000/svg" width="24" height="24" viewBox="0 0 24 24"><title>glasses ski 2</title><g fill="#212121" class="nc-icon-wrapper"><defs></defs><path class="cls-1" d="M23.25 15a6 6 0 0 1-6 6h-1.782a1.9 1.9 0 0 1-1.652-.974L12.7 16.237a.749.749 0 0 0-1.4 0l-1.115 3.789A1.9 1.9 0 0 1 8.532 21H6.75a6 6 0 0 1-6-6v-1.5a3 3 0 0 1 3-3h16.5a3 3 0 0 1 3 3z" fill="none" stroke="#212121" stroke-linecap="round" stroke-linejoin="round" stroke-width="1.5px"></path><path class="cls-1" d="M1.661 11.349l2.96-6.987A2.347 2.347 0 0 1 6.75 3 2.25 2.25 0 0 1 9 5.25" fill="none" stroke="#212121" stroke-linecap="round" stroke-linejoin="round" stroke-width="1.5px"></path><path class="cls-1" d="M22.339 11.349l-2.96-6.987A2.347 2.347 0 0 0 17.25 3 2.25 2.25 0 0 0 15 5.25" fill="none" stroke="#212121" stroke-linecap="round" stroke-linejoin="round" stroke-width="1.5px"></path></g></svg>