<svg xmlns="http://www.w3.org/2000/svg" width="24" height="24" viewBox="0 0 24 24"><title>glasses ski</title><g fill="#212121" class="nc-icon-wrapper"><defs></defs><path class="cls-1" d="M23.25 11.25a6 6 0 0 1-6 6h-1.782a1.9 1.9 0 0 1-1.652-.974L12.7 12.487a.749.749 0 0 0-1.4 0l-1.115 3.789a1.9 1.9 0 0 1-1.651.974H6.75a6 6 0 0 1-6-6v-1.5a3 3 0 0 1 3-3h16.5a3 3 0 0 1 3 3z" fill="none" stroke="#212121" stroke-linecap="round" stroke-linejoin="round" stroke-width="1.5px"></path><path class="cls-1" d="M.75 9.75h22.5" fill="none" stroke="#212121" stroke-linecap="round" stroke-linejoin="round" stroke-width="1.5px"></path><path class="cls-1" d="M.94 12.75h10.28" fill="none" stroke="#212121" stroke-linecap="round" stroke-linejoin="round" stroke-width="1.5px"></path><path class="cls-1" d="M23.06 12.75H12.78" fill="none" stroke="#212121" stroke-linecap="round" stroke-linejoin="round" stroke-width="1.5px"></path></g></svg>