<svg xmlns="http://www.w3.org/2000/svg" width="24" height="24" viewBox="0 0 24 24"><title>global warming high temperature</title><g fill="#212121" class="nc-icon-wrapper"><defs></defs><path class="cls-1" d="M11.249 2.25a7.5 7.5 0 1 1 0 12" fill="none" stroke="#212121" stroke-linecap="round" stroke-linejoin="round" stroke-width="1.5px"></path><path class="cls-1" d="M14.257 3.74l1.575 1.065a1.5 1.5 0 0 1 .668 1.248V7.77a1.5 1.5 0 0 1-1.206 1.471l-2.544.509.544 2.176" fill="none" stroke="#212121" stroke-linecap="round" stroke-linejoin="round" stroke-width="1.5px"></path><path class="cls-1" d="M23.212 9.013l-3.206 1.068a1.5 1.5 0 0 0-1 1.717l.592 2.888" fill="none" stroke="#212121" stroke-linecap="round" stroke-linejoin="round" stroke-width="1.5px"></path><path class="cls-1" d="M8.25 15.418V3.75a3 3 0 0 0-6 0v11.668a4.493 4.493 0 1 0 7.5 3.332 4.47 4.47 0 0 0-1.5-3.332z" fill="none" stroke="#212121" stroke-linecap="round" stroke-linejoin="round" stroke-width="1.5px"></path><path class="cls-1" d="M5.25 5.25v12" fill="none" stroke="#212121" stroke-linecap="round" stroke-linejoin="round" stroke-width="1.5px"></path><circle class="cls-1" cx="5.25" cy="18.75" r="1.5" fill="none" stroke="#212121" stroke-linecap="round" stroke-linejoin="round" stroke-width="1.5px"></circle></g></svg>