<svg xmlns="http://www.w3.org/2000/svg" width="24" height="24" viewBox="0 0 24 24"><title>global warming globe fire</title><g fill="#212121" class="nc-icon-wrapper"><defs></defs><path class="cls-1" d="M18.228 10.956a.375.375 0 0 0-.492.51 5.289 5.289 0 0 1-.156 4.834 1.811 1.811 0 0 1-1.932-1.545 4.1 4.1 0 0 0-2.125 3.864 4.637 4.637 0 0 0 4.636 4.636 4.7 4.7 0 0 0 4.641-4.641 7.56 7.56 0 0 0-4.572-7.658z" fill="none" stroke="#212121" stroke-linecap="round" stroke-linejoin="round" stroke-width="1.5px"></path><path class="cls-1" d="M10.25 18.75a9 9 0 1 1 8.874-10.51" fill="none" stroke="#212121" stroke-linecap="round" stroke-linejoin="round" stroke-width="1.5px"></path><path class="cls-1" d="M10.25 18.75c-2.071 0-3.75-4.029-3.75-9s1.679-9 3.75-9S14 4.779 14 9.75a20.728 20.728 0 0 1-.213 3" fill="none" stroke="#212121" stroke-linecap="round" stroke-linejoin="round" stroke-width="1.5px"></path><path class="cls-1" d="M1.763 6.75h16.975" fill="none" stroke="#212121" stroke-linecap="round" stroke-linejoin="round" stroke-width="1.5px"></path><path class="cls-1" d="M1.763 12.75H14.75" fill="none" stroke="#212121" stroke-linecap="round" stroke-linejoin="round" stroke-width="1.5px"></path></g></svg>