<svg xmlns="http://www.w3.org/2000/svg" width="24" height="24" viewBox="0 0 24 24"><title>gmo food chicken leg</title><g fill="#212121" class="nc-icon-wrapper"><defs></defs><path class="cls-1" d="M11.25 16.5c0 3.728-2.35 6.75-5.25 6.75S.75 20.228.75 16.5 3.1 9.75 6 9.75" fill="none" stroke="#212121" stroke-linecap="round" stroke-linejoin="round" stroke-width="1.5px"></path><path class="cls-1" d="M8.25 16.5c0 2.071-1.007 3.75-2.25 3.75s-2.25-1.679-2.25-3.75S4.757 12.75 6 12.75" fill="none" stroke="#212121" stroke-linecap="round" stroke-linejoin="round" stroke-width="1.5px"></path><path class="cls-1" d="M7.5 9.719A10.113 10.113 0 0 0 6 9.75" fill="none" stroke="#212121" stroke-linecap="round" stroke-linejoin="round" stroke-width="1.5px"></path><path class="cls-1" d="M14.765 12.417a2.25 2.25 0 1 1-3.182-3.182l4.773-4.773 3.182 3.182z" fill="none" stroke="#212121" stroke-linecap="round" stroke-linejoin="round" stroke-width="1.5px"></path><path class="cls-1" d="M11.583 12.417l-2.121 2.122" fill="none" stroke="#212121" stroke-linecap="round" stroke-linejoin="round" stroke-width="1.5px"></path><path class="cls-1" d="M17.947.75l5.303 5.303" fill="none" stroke="#212121" stroke-linecap="round" stroke-linejoin="round" stroke-width="1.5px"></path><path class="cls-1" d="M19.538 2.341l-2.652 2.652" fill="none" stroke="#212121" stroke-linecap="round" stroke-linejoin="round" stroke-width="1.5px"></path><path class="cls-1" d="M21.659 4.462l-2.651 2.652" fill="none" stroke="#212121" stroke-linecap="round" stroke-linejoin="round" stroke-width="1.5px"></path><path class="cls-1" d="M6 23.25c4.123 0 8.741-1.043 11.6-3.577a3.352 3.352 0 0 0 .421-4.652L18 15" fill="none" stroke="#212121" stroke-linecap="round" stroke-linejoin="round" stroke-width="1.5px"></path><path class="cls-1" d="M18.336 18.75h4.914" fill="none" stroke="#212121" stroke-linecap="round" stroke-linejoin="round" stroke-width="1.5px"></path><path class="cls-1" d="M18.485 15.75h4.765" fill="none" stroke="#212121" stroke-linecap="round" stroke-linejoin="round" stroke-width="1.5px"></path></g></svg>