<svg xmlns="http://www.w3.org/2000/svg" width="24" height="24" viewBox="0 0 24 24"><title>golf hole aim</title><g fill="#212121" class="nc-icon-wrapper"><defs></defs><path class="cls-1" d="M5.25 11.019V.75l4.216 2.108a.514.514 0 0 1 0 .919L7.5 4.76" fill="none" stroke="#212121" stroke-linecap="round" stroke-linejoin="round" stroke-width="1.5px"></path><path class="cls-1" d="M23.25 6l-2.165 16.6a.75.75 0 0 1-.743.653h-2.717a1.875 1.875 0 0 1 0-3.75 2.884 2.884 0 0 1 1.953.762l1.622 1.486" fill="none" stroke="#212121" stroke-linecap="round" stroke-linejoin="round" stroke-width="1.5px"></path><circle class="cls-1" cx="11.25" cy="21" r="1.5" fill="none" stroke="#212121" stroke-linecap="round" stroke-linejoin="round" stroke-width="1.5px"></circle><path class="cls-1" d="M8.25 8.273c3.375.207 6 1.8 6 3.727 0 2.071-3.022 3.75-6.75 3.75S.75 14.071.75 12a2.971 2.971 0 0 1 1.5-2.357" fill="none" stroke="#212121" stroke-linecap="round" stroke-linejoin="round" stroke-width="1.5px"></path></g></svg>