<svg xmlns="http://www.w3.org/2000/svg" width="24" height="24" viewBox="0 0 24 24"><title>grid ruler 1</title><g fill="#212121" class="nc-icon-wrapper"><defs></defs><rect class="a" x="-.562" y="10.312" width="22.5" height="6" rx="1.5" ry="1.5" transform="rotate(-45 10.689 13.312)" fill="none" stroke="#212121" stroke-linecap="round" stroke-linejoin="round" stroke-width="1.5px"></rect><path class="a" d="M15.9 3.994L8.486 1.279a.749.749 0 0 0-.788.174L6.445 2.705a.752.752 0 0 0 0 1.061l4.773 4.773" fill="none" stroke="#212121" stroke-linecap="round" stroke-linejoin="round" stroke-width="1.5px"></path><path class="a" d="M20.008 8.1l2.713 7.412a.749.749 0 0 1-.174.788L21.3 17.555a.752.752 0 0 1-1.061 0l-4.773-4.773" fill="none" stroke="#212121" stroke-linecap="round" stroke-linejoin="round" stroke-width="1.5px"></path><path class="a" d="M9.858 18.384l-1.746-1.746" fill="none" stroke="#212121" stroke-linecap="round" stroke-linejoin="round" stroke-width="1.5px"></path><path class="a" d="M13.608 14.634l-1.746-1.746" fill="none" stroke="#212121" stroke-linecap="round" stroke-linejoin="round" stroke-width="1.5px"></path><path class="a" d="M17.358 10.884l-1.746-1.746" fill="none" stroke="#212121" stroke-linecap="round" stroke-linejoin="round" stroke-width="1.5px"></path></g></svg>