<svg xmlns="http://www.w3.org/2000/svg" width="24" height="24" viewBox="0 0 24 24"><title>gymnastics ribbon person</title><g fill="#212121" class="nc-icon-wrapper"><defs></defs><circle class="cls-1" cx="11.625" cy="6.375" r="2.625" fill="none" stroke="#212121" stroke-linecap="round" stroke-linejoin="round" stroke-width="1.5px"></circle><circle class="cls-1" cx="10.5" cy="10.5" r="9.75" fill="none" stroke="#212121" stroke-linecap="round" stroke-linejoin="round" stroke-width="1.5px"></circle><path class="cls-1" d="M12.75 16.875V14.25a5.176 5.176 0 0 1 1.975.643c.266.121.55.251.856.381" fill="none" stroke="#212121" stroke-linecap="round" stroke-linejoin="round" stroke-width="1.5px"></path><path class="cls-1" d="M16.966 12.6c-.351-.144-.679-.293-1-.438a7.528 7.528 0 0 0-3.219-.913h-3a4.505 4.505 0 0 1-4.5-4.5V6a1.5 1.5 0 0 0-3 0v.75a7.509 7.509 0 0 0 7.5 7.5v3" fill="none" stroke="#212121" stroke-linecap="round" stroke-linejoin="round" stroke-width="1.5px"></path><path class="cls-1" d="M20.906 16.481c.272.012.552.019.844.019a1.5 1.5 0 0 0 .36-2.956" fill="none" stroke="#212121" stroke-linecap="round" stroke-linejoin="round" stroke-width="1.5px"></path><path class="cls-1" d="M13.332 22.163A5.118 5.118 0 0 0 16.5 23.25h5.25a1.5 1.5 0 0 0 0-3H17.5" fill="none" stroke="#212121" stroke-linecap="round" stroke-linejoin="round" stroke-width="1.5px"></path><path class="cls-1" d="M9.75 23.25v-.75" fill="none" stroke="#212121" stroke-linecap="round" stroke-linejoin="round" stroke-width="1.5px"></path></g></svg>