<svg xmlns="http://www.w3.org/2000/svg" width="24" height="24" viewBox="0 0 24 24"><title>halloween cauldron</title><g fill="#212121" class="nc-icon-wrapper"><defs></defs><circle class="cls-1" cx="21.75" cy="3.75" r="1.5" fill="none" stroke="#212121" stroke-linecap="round" stroke-linejoin="round" stroke-width="1.5px"></circle><path class="cls-1" d="M16.5 1.159a.375.375 0 0 1 .375.375" fill="none" stroke="#212121" stroke-linecap="round" stroke-linejoin="round" stroke-width="1.5px"></path><path class="cls-1" d="M16.125 1.534a.375.375 0 0 1 .375-.375" fill="none" stroke="#212121" stroke-linecap="round" stroke-linejoin="round" stroke-width="1.5px"></path><path class="cls-1" d="M16.5 1.909a.375.375 0 0 1-.375-.375" fill="none" stroke="#212121" stroke-linecap="round" stroke-linejoin="round" stroke-width="1.5px"></path><path class="cls-1" d="M16.875 1.534a.375.375 0 0 1-.375.375" fill="none" stroke="#212121" stroke-linecap="round" stroke-linejoin="round" stroke-width="1.5px"></path><path class="cls-1" d="M3 2.625A.375.375 0 0 1 3.375 3" fill="none" stroke="#212121" stroke-linecap="round" stroke-linejoin="round" stroke-width="1.5px"></path><path class="cls-1" d="M2.625 3A.375.375 0 0 1 3 2.625" fill="none" stroke="#212121" stroke-linecap="round" stroke-linejoin="round" stroke-width="1.5px"></path><path class="cls-1" d="M3 3.375A.375.375 0 0 1 2.625 3" fill="none" stroke="#212121" stroke-linecap="round" stroke-linejoin="round" stroke-width="1.5px"></path><path class="cls-1" d="M3.375 3A.375.375 0 0 1 3 3.375" fill="none" stroke="#212121" stroke-linecap="round" stroke-linejoin="round" stroke-width="1.5px"></path><path class="cls-1" d="M10.5 8.25H2.625A1.881 1.881 0 0 0 .75 10.125a1.854 1.854 0 0 0 1.479 1.794.975.975 0 0 1-.013.58l-.063.175a7.936 7.936 0 0 0 .988 7.273A7.792 7.792 0 0 0 9.5 23.25h4.25a7.792 7.792 0 0 0 6.359-3.3 7.936 7.936 0 0 0 .988-7.273l-.063-.175a.975.975 0 0 1-.013-.58 1.854 1.854 0 0 0 1.479-1.797 1.881 1.881 0 0 0-1.875-1.875H19.5" fill="none" stroke="#212121" stroke-linecap="round" stroke-linejoin="round" stroke-width="1.5px"></path><path class="cls-1" d="M13.5 10.866v3.384a2.25 2.25 0 0 0 4.5 0v-3.526a2.721 2.721 0 0 0 1.5-2.36 2.8 2.8 0 0 0-3.589-2.873A3.809 3.809 0 0 0 12.343 3c-1.928 0-3.559 1.006-3.818 2.864-.5-.826-1.909-.955-2.386-.955-2.387 0-2.864 1.76-2.864 3.341" fill="none" stroke="#212121" stroke-linecap="round" stroke-linejoin="round" stroke-width="1.5px"></path></g></svg>