<svg xmlns="http://www.w3.org/2000/svg" width="24" height="24" viewBox="0 0 24 24"><title>hand drag</title><g fill="#212121" class="nc-icon-wrapper"><defs></defs><path class="a" d="M16.5 6.747v-1.5a1.5 1.5 0 0 0-3 0V4.5a1.5 1.5 0 0 0-3 0v.75a1.5 1.5 0 0 0-3 0v5.25a3 3 0 0 0-3 3 7.017 7.017 0 0 0 1.308 4.081l1.1 1.535A4.5 4.5 0 0 0 10.566 21h3.813a5.121 5.121 0 0 0 5.121-5.124V6.747a1.5 1.5 0 0 0-3 0z" fill="none" stroke="#212121" stroke-linecap="round" stroke-linejoin="round" stroke-width="1.5px"></path><path class="a" d="M7.5 10.497v2.25" fill="none" stroke="#212121" stroke-linecap="round" stroke-linejoin="round" stroke-width="1.5px"></path><path class="a" d="M10.5 8.997v-3.75" fill="none" stroke="#212121" stroke-linecap="round" stroke-linejoin="round" stroke-width="1.5px"></path><path class="a" d="M13.5 8.997v-3.75" fill="none" stroke="#212121" stroke-linecap="round" stroke-linejoin="round" stroke-width="1.5px"></path><path class="a" d="M16.5 8.997v-2.25" fill="none" stroke="#212121" stroke-linecap="round" stroke-linejoin="round" stroke-width="1.5px"></path></g></svg>