<svg xmlns="http://www.w3.org/2000/svg" width="24" height="24" viewBox="0 0 24 24"><title>hardware nuts</title><g fill="#212121" class="nc-icon-wrapper"><defs></defs><path class="a" d="M11.644 14.25H5.75a1.5 1.5 0 0 1-1.25-.668L1 8.332a1.5 1.5 0 0 1 0-1.664l3.5-5.25A1.5 1.5 0 0 1 5.75.75h5.894a1.5 1.5 0 0 1 1.248.668l3.5 5.25a1.5 1.5 0 0 1 0 1.664l-3.5 5.25a1.5 1.5 0 0 1-1.248.668z" fill="none" stroke="#212121" stroke-linecap="round" stroke-linejoin="round" stroke-width="1.5px"></path><circle class="a" cx="8.697" cy="7.5" r="2.25" fill="none" stroke="#212121" stroke-linecap="round" stroke-linejoin="round" stroke-width="1.5px"></circle><path class="a" d="M18.25 9.75a1.5 1.5 0 0 1 1.248.668l3.5 5.25a1.5 1.5 0 0 1 0 1.664l-3.5 5.25a1.5 1.5 0 0 1-1.248.668h-5.895a1.5 1.5 0 0 1-1.248-.668l-3.5-5.25" fill="none" stroke="#212121" stroke-linecap="round" stroke-linejoin="round" stroke-width="1.5px"></path><path class="a" d="M15.3 14.25a2.25 2.25 0 1 1-2.25 2.25" fill="none" stroke="#212121" stroke-linecap="round" stroke-linejoin="round" stroke-width="1.5px"></path></g></svg>