<svg xmlns="http://www.w3.org/2000/svg" width="24" height="24" viewBox="0 0 24 24"><title>hardware nuts 1</title><g fill="#212121" class="nc-icon-wrapper"><defs></defs><path class="a" d="M11.645 14.25H5.75a1.5 1.5 0 0 1-1.25-.668L1 8.332a1.5 1.5 0 0 1 0-1.664l3.5-5.25A1.5 1.5 0 0 1 5.75.75h5.9a1.5 1.5 0 0 1 1.248.668l3.5 5.25a1.5 1.5 0 0 1 0 1.664l-3.5 5.25a1.5 1.5 0 0 1-1.253.668z" fill="none" stroke="#212121" stroke-linecap="round" stroke-linejoin="round" stroke-width="1.5px"></path><circle class="a" cx="8.697" cy="7.5" r="2.25" fill="none" stroke="#212121" stroke-linecap="round" stroke-linejoin="round" stroke-width="1.5px"></circle><path class="a" d="M7.228 17.771A8.251 8.251 0 1 0 19.5 8.083" fill="none" stroke="#212121" stroke-linecap="round" stroke-linejoin="round" stroke-width="1.5px"></path><path class="a" d="M12.277 17.577a3.749 3.749 0 0 0 5.862-4.628" fill="none" stroke="#212121" stroke-linecap="round" stroke-linejoin="round" stroke-width="1.5px"></path></g></svg>