<svg xmlns="http://www.w3.org/2000/svg" width="24" height="24" viewBox="0 0 24 24"><title>hat architect</title><g fill="#212121" class="nc-icon-wrapper"><defs></defs><path class="cls-1" d="M18.752 12.3c2.732.958 4.5 2.483 4.5 4.2 0 2.9-5.037 5.25-11.25 5.25S.75 19.4.75 16.5c0-1.717 1.767-3.242 4.5-4.2" fill="none" stroke="#212121" stroke-linecap="round" stroke-linejoin="round" stroke-width="1.5px"></path><path class="cls-1" d="M14.25 16.358V5.634" fill="none" stroke="#212121" stroke-linecap="round" stroke-linejoin="round" stroke-width="1.5px"></path><path class="cls-1" d="M9.75 5.634v10.724" fill="none" stroke="#212121" stroke-linecap="round" stroke-linejoin="round" stroke-width="1.5px"></path><path class="cls-1" d="M18.75 12a6.75 6.75 0 0 0-13.5 0v3S7.5 16.5 12 16.5s6.75-1.5 6.75-1.5z" fill="none" stroke="#212121" stroke-linecap="round" stroke-linejoin="round" stroke-width="1.5px"></path><path class="cls-1" d="M15.86 21.433A12.449 12.449 0 0 1 19 17.677a12.621 12.621 0 0 1 4.012-2.253" fill="none" stroke="#212121" stroke-linecap="round" stroke-linejoin="round" stroke-width="1.5px"></path><path class="cls-1" d="M9.75 5.634V4.5a2.25 2.25 0 0 1 4.5 0v1.134" fill="none" stroke="#212121" stroke-linecap="round" stroke-linejoin="round" stroke-width="1.5px"></path></g></svg>