<svg xmlns="http://www.w3.org/2000/svg" width="24" height="24" viewBox="0 0 24 24"><title>headphones customer support human</title><g fill="#212121" class="nc-icon-wrapper"><defs></defs><path class="a" d="M4.5 18h-.75a3 3 0 0 1-3-3v-3a3 3 0 0 1 3-3h.75a.75.75 0 0 1 .75.75v7.5a.75.75 0 0 1-.75.75z" fill="none" stroke="#212121" stroke-linecap="round" stroke-linejoin="round" stroke-width="1.5px"></path><path class="a" d="M20.25 18h-.75a.75.75 0 0 1-.75-.75v-7.5A.75.75 0 0 1 19.5 9h.75a3 3 0 0 1 3 3v3a3 3 0 0 1-3 3z" fill="none" stroke="#212121" stroke-linecap="round" stroke-linejoin="round" stroke-width="1.5px"></path><path class="a" d="M3.75 9A8.25 8.25 0 0 1 12 .75 8.25 8.25 0 0 1 20.25 9" fill="none" stroke="#212121" stroke-linecap="round" stroke-linejoin="round" stroke-width="1.5px"></path><path class="a" d="M15 21.75h2.25a3 3 0 0 0 3-3V18" fill="none" stroke="#212121" stroke-linecap="round" stroke-linejoin="round" stroke-width="1.5px"></path><path class="a" d="M13.5 23.25H12a1.5 1.5 0 0 1-1.5-1.5 1.5 1.5 0 0 1 1.5-1.5h1.5a1.5 1.5 0 0 1 1.5 1.5 1.5 1.5 0 0 1-1.5 1.5z" fill="none" stroke="#212121" stroke-linecap="round" stroke-linejoin="round" stroke-width="1.5px"></path><path class="a" d="M9 15.442a4.454 4.454 0 0 0 6 0" fill="none" stroke="#212121" stroke-linecap="round" stroke-linejoin="round" stroke-width="1.5px"></path><path class="a" d="M9 9.985v1.312" fill="none" stroke="#212121" stroke-linecap="round" stroke-linejoin="round" stroke-width="1.5px"></path><path class="a" d="M15 9.985v1.312" fill="none" stroke="#212121" stroke-linecap="round" stroke-linejoin="round" stroke-width="1.5px"></path></g></svg>