<svg xmlns="http://www.w3.org/2000/svg" width="24" height="24" viewBox="0 0 24 24"><title>heavy equipment truck</title><g fill="#212121" class="nc-icon-wrapper"><defs></defs><path class="a" d="M23.25 18v-.75a1.5 1.5 0 0 0-1.5-1.5H8.25V10.5a.75.75 0 0 0-.75-.75H5.25a4.5 4.5 0 0 0-4.5 4.5v6a1.5 1.5 0 0 0 1.5 1.5H3" fill="none" stroke="#212121" stroke-linecap="round" stroke-linejoin="round" stroke-width="1.5px"></path><circle class="a" cx="7.5" cy="21" r="2.25" fill="none" stroke="#212121" stroke-linecap="round" stroke-linejoin="round" stroke-width="1.5px"></circle><circle class="a" cx="19.5" cy="21" r="2.25" fill="none" stroke="#212121" stroke-linecap="round" stroke-linejoin="round" stroke-width="1.5px"></circle><path class="a" d="M12 21.75h3" fill="none" stroke="#212121" stroke-linecap="round" stroke-linejoin="round" stroke-width="1.5px"></path><path class="a" d="M12.187 3.492l9.441 2.437a1.5 1.5 0 0 1 1.077 1.827l-1.312 5.083-9.441-2.439a1.5 1.5 0 0 1-1.077-1.828l1.875-7.259L10.571.75" fill="none" stroke="#212121" stroke-linecap="round" stroke-linejoin="round" stroke-width="1.5px"></path><path class="a" d="M15.202 6.686l-.404 1.564" fill="none" stroke="#212121" stroke-linecap="round" stroke-linejoin="round" stroke-width="1.5px"></path><path class="a" d="M19.046 7.811l-.404 1.564" fill="none" stroke="#212121" stroke-linecap="round" stroke-linejoin="round" stroke-width="1.5px"></path><path class="a" d="M17.334 11.791L15.75 15.75" fill="none" stroke="#212121" stroke-linecap="round" stroke-linejoin="round" stroke-width="1.5px"></path><path class="a" d="M21.393 12.839l.357 2.911" fill="none" stroke="#212121" stroke-linecap="round" stroke-linejoin="round" stroke-width="1.5px"></path><path class="a" d="M8.25 14.25H.75" fill="none" stroke="#212121" stroke-linecap="round" stroke-linejoin="round" stroke-width="1.5px"></path></g></svg>