<svg xmlns="http://www.w3.org/2000/svg" width="24" height="24" viewBox="0 0 24 24"><title>heavy equipment mortar truck</title><g fill="#212121" class="nc-icon-wrapper"><defs></defs><circle class="a" cx="5.445" cy="18.75" r="2.25" fill="none" stroke="#212121" stroke-linecap="round" stroke-linejoin="round" stroke-width="1.5px"></circle><circle class="a" cx="18.945" cy="18.75" r="2.25" fill="none" stroke="#212121" stroke-linecap="round" stroke-linejoin="round" stroke-width="1.5px"></circle><path class="a" d="M3.327 19.5h-.882a1.5 1.5 0 0 1-1.5-1.5v-4.447a1.5 1.5 0 0 1 .668-1.248l1.3-.868a1.5 1.5 0 0 0 .454-.476l1.64-2.733A1.5 1.5 0 0 1 6.3 7.5h2.046a1.5 1.5 0 0 1 1.286.728L13.7 15" fill="none" stroke="#212121" stroke-linecap="round" stroke-linejoin="round" stroke-width="1.5px"></path><path class="a" d="M12.146 4.413l5.206 9.181" fill="none" stroke="#212121" stroke-linecap="round" stroke-linejoin="round" stroke-width="1.5px"></path><path class="a" d="M15.945 4.5l4.699 7.831" fill="none" stroke="#212121" stroke-linecap="round" stroke-linejoin="round" stroke-width="1.5px"></path><path class="a" d="M7.567 19.5h9.257" fill="none" stroke="#212121" stroke-linecap="round" stroke-linejoin="round" stroke-width="1.5px"></path><path class="a" d="M6.945 3h2.546a1.5 1.5 0 0 1 .832.252l1.495 1a1.5 1.5 0 0 0 .832.252h6.163a1.5 1.5 0 0 1 1.311.772l2.937 5.286a1.5 1.5 0 0 1 .031 1.4l-2.586 5.171" fill="none" stroke="#212121" stroke-linecap="round" stroke-linejoin="round" stroke-width="1.5px"></path><path class="a" d="M9.988 16.392c2.065-.743 13.261-5.066 13.261-5.066" fill="none" stroke="#212121" stroke-linecap="round" stroke-linejoin="round" stroke-width="1.5px"></path><path class="a" d="M2.07 12h9.825" fill="none" stroke="#212121" stroke-linecap="round" stroke-linejoin="round" stroke-width="1.5px"></path></g></svg>