<svg xmlns="http://www.w3.org/2000/svg" width="24" height="24" viewBox="0 0 24 24"><title>heavy equipment cleaner</title><g fill="#212121" class="nc-icon-wrapper"><defs></defs><path class="a" d="M4.588 20.25h4.5v2a1 1 0 0 1-1 1h-2.5a1 1 0 0 1-1-1v-2z" fill="none" stroke="#212121" stroke-linecap="round" stroke-linejoin="round" stroke-width="1.5px"></path><path class="a" d="M15.088 20.25h4.5v2a1 1 0 0 1-1 1h-2.5a1 1 0 0 1-1-1v-2z" fill="none" stroke="#212121" stroke-linecap="round" stroke-linejoin="round" stroke-width="1.5px"></path><path class="a" d="M21.937 18.321A1.5 1.5 0 0 1 20.5 20.25H3.676a1.5 1.5 0 0 1-1.438-1.929 24.124 24.124 0 0 0 1-8.479 1.5 1.5 0 0 1 1.5-1.592h14.703a1.5 1.5 0 0 1 1.5 1.592 24.147 24.147 0 0 0 .996 8.479z" fill="none" stroke="#212121" stroke-linecap="round" stroke-linejoin="round" stroke-width="1.5px"></path><path class="a" d="M6.088 8.25V4.5" fill="none" stroke="#212121" stroke-linecap="round" stroke-linejoin="round" stroke-width="1.5px"></path><path class="a" d="M18.088 8.25V4.5" fill="none" stroke="#212121" stroke-linecap="round" stroke-linejoin="round" stroke-width="1.5px"></path><path class="a" d="M6.088 1.5V.75" fill="none" stroke="#212121" stroke-linecap="round" stroke-linejoin="round" stroke-width="1.5px"></path><path class="a" d="M18.088 1.5V.75" fill="none" stroke="#212121" stroke-linecap="round" stroke-linejoin="round" stroke-width="1.5px"></path><path class="a" d="M15.838 8.25h-7.5L8.9 2.038A1.5 1.5 0 0 1 10.389.75h3.4a1.5 1.5 0 0 1 1.485 1.288z" fill="none" stroke="#212121" stroke-linecap="round" stroke-linejoin="round" stroke-width="1.5px"></path><path class="a" d="M12.088 12.75v3" fill="none" stroke="#212121" stroke-linecap="round" stroke-linejoin="round" stroke-width="1.5px"></path><path class="a" d="M16.588 12.75l.75 3" fill="none" stroke="#212121" stroke-linecap="round" stroke-linejoin="round" stroke-width="1.5px"></path><path class="a" d="M7.588 12.75l-.75 3" fill="none" stroke="#212121" stroke-linecap="round" stroke-linejoin="round" stroke-width="1.5px"></path><path class="a" d="M8.68 4.557a8.729 8.729 0 0 0 6.81 0" fill="none" stroke="#212121" stroke-linecap="round" stroke-linejoin="round" stroke-width="1.5px"></path></g></svg>