<svg xmlns="http://www.w3.org/2000/svg" width="24" height="24" viewBox="0 0 24 24"><title>hippo</title><g fill="#212121" class="nc-icon-wrapper"><defs></defs><path class="cls-1" d="M6.5 19.42v2.5c0 .75 3 .75 3 0v-2.5" fill="none" stroke="#212121" stroke-linecap="round" stroke-linejoin="round" stroke-width="1.5px"></path><path class="cls-1" d="M14 19.417v2.5c0 .75 3 .75 3 0v-2.5" fill="none" stroke="#212121" stroke-linecap="round" stroke-linejoin="round" stroke-width="1.5px"></path><path class="cls-1" d="M14.609 3.733l.141-.563s.75-3 3-1.5 0 3 0 3l-.878.586.012.019A5.6 5.6 0 0 1 18.5 9.17a5.4 5.4 0 0 1-.5 2.258 4.5 4.5 0 0 1-1.568 8.149 4.559 4.559 0 0 1-2.294-.119 7.916 7.916 0 0 0-4.768 0 4.559 4.559 0 0 1-2.294.119A4.5 4.5 0 0 1 5.5 11.428 5.4 5.4 0 0 1 5 9.17a5.664 5.664 0 0 1 1.931-4.2v-.007L6.5 4.67s-2.25-1.5 0-3 3 1.5 3 1.5l.079.317a7.563 7.563 0 0 1 5.03.246z" fill="none" stroke="#212121" stroke-linecap="round" stroke-linejoin="round" stroke-width="1.5px"></path><circle class="cls-1" cx="15.125" cy="9.545" r=".375" fill="none" stroke="#212121" stroke-linecap="round" stroke-linejoin="round" stroke-width="1.5px"></circle><circle class="cls-1" cx="8.375" cy="9.545" r=".375" fill="none" stroke="#212121" stroke-linecap="round" stroke-linejoin="round" stroke-width="1.5px"></circle><path class="cls-1" d="M13.25 15.17l.75-.75" fill="none" stroke="#212121" stroke-linecap="round" stroke-linejoin="round" stroke-width="1.5px"></path><path class="cls-1" d="M10.25 15.17l-.75-.75" fill="none" stroke="#212121" stroke-linecap="round" stroke-linejoin="round" stroke-width="1.5px"></path></g></svg>