<svg xmlns="http://www.w3.org/2000/svg" width="24" height="24" viewBox="0 0 24 24"><title>history armor shield</title><g fill="#212121" class="nc-icon-wrapper"><defs></defs><path class="a" d="M21 15a3 3 0 0 1 0-6 .527.527 0 0 0 .514-.642 9.753 9.753 0 0 0-19.028 0A.527.527 0 0 0 3 9a3 3 0 0 1 0 6 .527.527 0 0 0-.514.642 9.753 9.753 0 0 0 19.028 0A.527.527 0 0 0 21 15z" fill="none" stroke="#212121" stroke-linecap="round" stroke-linejoin="round" stroke-width="1.5px"></path><path class="a" d="M12 5.25v13.5" fill="none" stroke="#212121" stroke-linecap="round" stroke-linejoin="round" stroke-width="1.5px"></path><path class="a" d="M16.243 6.75l-8.486 10.5" fill="none" stroke="#212121" stroke-linecap="round" stroke-linejoin="round" stroke-width="1.5px"></path><path class="a" d="M7.757 6.75l8.486 10.5" fill="none" stroke="#212121" stroke-linecap="round" stroke-linejoin="round" stroke-width="1.5px"></path><path class="a" d="M9 12h6" fill="none" stroke="#212121" stroke-linecap="round" stroke-linejoin="round" stroke-width="1.5px"></path></g></svg>