<svg xmlns="http://www.w3.org/2000/svg" width="24" height="24" viewBox="0 0 24 24"><title>history seat</title><g fill="#212121" class="nc-icon-wrapper"><defs></defs><path class="a" d="M7.5 17.625L6 21.375" fill="none" stroke="#212121" stroke-linecap="round" stroke-linejoin="round" stroke-width="1.5px"></path><path class="a" d="M19.5 13.875a1.5 1.5 0 0 0 1.5-1.5v-6h.375a1.875 1.875 0 0 0 0-3.75 3.2 3.2 0 0 0-3.14 2.575L16.5 17.625h-9L5.765 5.2a3.2 3.2 0 0 0-3.14-2.574 1.875 1.875 0 0 0 0 3.75H3v6a1.5 1.5 0 0 0 1.5 1.5" fill="none" stroke="#212121" stroke-linecap="round" stroke-linejoin="round" stroke-width="1.5px"></path><path class="a" d="M16.5 17.625l1.5 3.75" fill="none" stroke="#212121" stroke-linecap="round" stroke-linejoin="round" stroke-width="1.5px"></path><path class="a" d="M17.757 8.625H6.243" fill="none" stroke="#212121" stroke-linecap="round" stroke-linejoin="round" stroke-width="1.5px"></path></g></svg>