<svg xmlns="http://www.w3.org/2000/svg" width="24" height="24" viewBox="0 0 24 24"><title>historical building pillar</title><g fill="#212121" class="nc-icon-wrapper"><defs></defs><path class="a" d="M14.258 8.25h-4.5" fill="none" stroke="#212121" stroke-linecap="round" stroke-linejoin="round" stroke-width="1.5px"></path><path class="a" d="M9.758 5.25h4.5" fill="none" stroke="#212121" stroke-linecap="round" stroke-linejoin="round" stroke-width="1.5px"></path><path class="a" d="M17.25 11.25v12" fill="none" stroke="#212121" stroke-linecap="round" stroke-linejoin="round" stroke-width="1.5px"></path><path class="a" d="M6.75 23.25v-12" fill="none" stroke="#212121" stroke-linecap="round" stroke-linejoin="round" stroke-width="1.5px"></path><path class="a" d="M9.75 11.25v12" fill="none" stroke="#212121" stroke-linecap="round" stroke-linejoin="round" stroke-width="1.5px"></path><path class="a" d="M14.25 11.25v12" fill="none" stroke="#212121" stroke-linecap="round" stroke-linejoin="round" stroke-width="1.5px"></path><path class="a" d="M3.774 4.359a1.876 1.876 0 0 1 1.338-.444 2.351 2.351 0 0 1 2.2 2.5 2.937 2.937 0 0 1-3.123 2.74 3.671 3.671 0 0 1-3.431-3.9V5.25a4.5 4.5 0 0 1 4.5-4.5h13.484a4.5 4.5 0 0 1 4.5 4.5v.006a3.671 3.671 0 0 1-3.431 3.9 2.937 2.937 0 0 1-3.119-2.746 2.351 2.351 0 0 1 2.2-2.495 1.874 1.874 0 0 1 1.362.465" fill="none" stroke="#212121" stroke-linecap="round" stroke-linejoin="round" stroke-width="1.5px"></path></g></svg>