<svg xmlns="http://www.w3.org/2000/svg" width="24" height="24" viewBox="0 0 24 24"><title>historical building castle 1</title><g fill="#212121" class="nc-icon-wrapper"><defs></defs><path class="a" d="M18.75 6h4.5v15.5a1 1 0 0 1-1 1h-3.5V6z" fill="none" stroke="#212121" stroke-linecap="round" stroke-linejoin="round" stroke-width="1.5px"></path><path class="a" d="M15.75 13.5h3" fill="none" stroke="#212121" stroke-linecap="round" stroke-linejoin="round" stroke-width="1.5px"></path><path class="a" d="M15.75 22.5h3" fill="none" stroke="#212121" stroke-linecap="round" stroke-linejoin="round" stroke-width="1.5px"></path><path class="a" d="M18.75 6l1.55-4.127a.749.749 0 0 1 1.4 0L23.25 6" fill="none" stroke="#212121" stroke-linecap="round" stroke-linejoin="round" stroke-width="1.5px"></path><path class="a" d="M13.5 9.75a.75.75 0 0 0-.75.75v.75A.75.75 0 0 1 12 12h-1.5a.75.75 0 0 1-.75-.75v-.75A.75.75 0 0 0 9 9.75H7.5a.75.75 0 0 0-.75.75v.75A.75.75 0 0 1 6 12H4.5a.75.75 0 0 1-.75-.75v-.75A.75.75 0 0 0 3 9.75H1.5a.75.75 0 0 0-.75.75V21a1.5 1.5 0 0 0 1.5 1.5h13.5v-12a.75.75 0 0 0-.75-.75z" fill="none" stroke="#212121" stroke-linecap="round" stroke-linejoin="round" stroke-width="1.5px"></path><path class="a" d="M6 22.5V18a2.25 2.25 0 0 1 4.5 0v4.5" fill="none" stroke="#212121" stroke-linecap="round" stroke-linejoin="round" stroke-width="1.5px"></path><path class="a" d="M2.25 9.75v-7.5h4.5A.75.75 0 0 1 7.5 3v2.25a.75.75 0 0 1-.75.75h-4.5" fill="none" stroke="#212121" stroke-linecap="round" stroke-linejoin="round" stroke-width="1.5px"></path></g></svg>