<svg xmlns="http://www.w3.org/2000/svg" width="24" height="24" viewBox="0 0 24 24"><title>history eye mythology</title><g fill="#212121" class="nc-icon-wrapper"><defs></defs><circle class="a" cx="15.757" cy="10.5" r="1.5" fill="none" stroke="#212121" stroke-linecap="round" stroke-linejoin="round" stroke-width="1.5px"></circle><path class="a" d="M22.128 10.257a.452.452 0 0 1 0 .487 7.542 7.542 0 0 1-12.742 0 .452.452 0 0 1 0-.487 7.54 7.54 0 0 1 12.742 0z" fill="none" stroke="#212121" stroke-linecap="round" stroke-linejoin="round" stroke-width="1.5px"></path><path class="a" d="M23.25 6.75A10.664 10.664 0 0 0 15.43 3a10.663 10.663 0 0 0-7.819 3.75H.769" fill="none" stroke="#212121" stroke-linecap="round" stroke-linejoin="round" stroke-width="1.5px"></path><path class="a" d="M9.315 10.5H.769" fill="none" stroke="#212121" stroke-linecap="round" stroke-linejoin="round" stroke-width="1.5px"></path><path class="a" d="M18.75 13.642V21" fill="none" stroke="#212121" stroke-linecap="round" stroke-linejoin="round" stroke-width="1.5px"></path><path class="a" d="M15.861 14.249l-1.169 1.818A10.743 10.743 0 0 1 5.656 21H5.25a2.25 2.25 0 0 1 0-4.5h1.632" fill="none" stroke="#212121" stroke-linecap="round" stroke-linejoin="round" stroke-width="1.5px"></path></g></svg>