<svg xmlns="http://www.w3.org/2000/svg" width="24" height="24" viewBox="0 0 24 24"><title>history egyptian mythology 1</title><g fill="#212121" class="nc-icon-wrapper"><defs></defs><path class="a" d="M6.2 7.5a5.312 5.312 0 0 0-5.316 5.312v9.266a.75.75 0 0 0 1.065.681l4.935-2.278V22.5a.75.75 0 0 0 .75.75h2.25a.75.75 0 0 0 .75-.75v-3.75" fill="none" stroke="#212121" stroke-linecap="round" stroke-linejoin="round" stroke-width="1.5px"></path><path class="a" d="M11.009 7.5a.375.375 0 0 1 .375.375" fill="none" stroke="#212121" stroke-linecap="round" stroke-linejoin="round" stroke-width="1.5px"></path><path class="a" d="M10.634 7.875a.375.375 0 0 1 .375-.375" fill="none" stroke="#212121" stroke-linecap="round" stroke-linejoin="round" stroke-width="1.5px"></path><path class="a" d="M11.009 8.25a.375.375 0 0 1-.375-.375" fill="none" stroke="#212121" stroke-linecap="round" stroke-linejoin="round" stroke-width="1.5px"></path><path class="a" d="M11.384 7.875a.375.375 0 0 1-.375.375" fill="none" stroke="#212121" stroke-linecap="round" stroke-linejoin="round" stroke-width="1.5px"></path><path class="a" d="M3.884 21.866V12.75" fill="none" stroke="#212121" stroke-linecap="round" stroke-linejoin="round" stroke-width="1.5px"></path><path class="a" d="M6.884 14.25v6.231" fill="none" stroke="#212121" stroke-linecap="round" stroke-linejoin="round" stroke-width="1.5px"></path><path class="a" d="M15.134 18.75s-.83-1.847-.154-2.94a3.535 3.535 0 0 1 3.154-1.56h1.5A3.19 3.19 0 0 0 22.48 12l.62-4.34a.75.75 0 0 0-.733-.91H16.7a3 3 0 0 1-2.3-1.072 4.957 4.957 0 0 0-3.766-1.928 4.5 4.5 0 0 0 0 9" fill="none" stroke="#212121" stroke-linecap="round" stroke-linejoin="round" stroke-width="1.5px"></path><path class="a" d="M22.587 11.25h-4.453" fill="none" stroke="#212121" stroke-linecap="round" stroke-linejoin="round" stroke-width="1.5px"></path><path class="a" d="M6.2 7.5L5.036 6.4A4.324 4.324 0 0 1 4.634.75l3.657 3.657" fill="none" stroke="#212121" stroke-linecap="round" stroke-linejoin="round" stroke-width="1.5px"></path></g></svg>