<svg xmlns="http://www.w3.org/2000/svg" width="24" height="24" viewBox="0 0 24 24"><title>historical building tower</title><g fill="#212121" class="nc-icon-wrapper"><defs></defs><path class="a" d="M19.5.75a.75.75 0 0 1 .75.75v6a.75.75 0 0 1-.75.75h-15a.75.75 0 0 1-.75-.75v-6A.75.75 0 0 1 4.5.75h2.25a.75.75 0 0 1 .75.75v.75a1.5 1.5 0 0 0 3 0V1.5a.75.75 0 0 1 .75-.75h1.5a.75.75 0 0 1 .75.75v.75a1.5 1.5 0 0 0 3 0V1.5a.75.75 0 0 1 .75-.75z" fill="none" stroke="#212121" stroke-linecap="round" stroke-linejoin="round" stroke-width="1.5px"></path><path class="a" d="M5.25 8.25l-1.5 15h16.5l-1.5-15H5.25z" fill="none" stroke="#212121" stroke-linecap="round" stroke-linejoin="round" stroke-width="1.5px"></path><path class="a" d="M14.25 23.25h-4.5V18a2.25 2.25 0 0 1 4.5 0z" fill="none" stroke="#212121" stroke-linecap="round" stroke-linejoin="round" stroke-width="1.5px"></path><path class="a" d="M.75 23.25h22.5" fill="none" stroke="#212121" stroke-linecap="round" stroke-linejoin="round" stroke-width="1.5px"></path></g></svg>