<svg xmlns="http://www.w3.org/2000/svg" width="24" height="24" viewBox="0 0 24 24"><title>history fan</title><g fill="#212121" class="nc-icon-wrapper"><defs></defs><path class="a" d="M12 3.223a11.35 11.35 0 0 1 11.226 7.947.493.493 0 0 1-.29.612L12 16.061 1.064 11.782a.494.494 0 0 1-.29-.612A11.35 11.35 0 0 1 12 3.223z" fill="none" stroke="#212121" stroke-linecap="round" stroke-linejoin="round" stroke-width="1.5px"></path><path class="a" d="M15.75 19.277L12 16.061l-3.75 3.216a5.438 5.438 0 0 0 7.5 0z" fill="none" stroke="#212121" stroke-linecap="round" stroke-linejoin="round" stroke-width="1.5px"></path><path class="a" d="M13.298 11.241l2.05-7.616" fill="none" stroke="#212121" stroke-linecap="round" stroke-linejoin="round" stroke-width="1.5px"></path><path class="a" d="M15.36 12.109l4.883-5.747" fill="none" stroke="#212121" stroke-linecap="round" stroke-linejoin="round" stroke-width="1.5px"></path><path class="a" d="M8.64 12.109L3.757 6.362" fill="none" stroke="#212121" stroke-linecap="round" stroke-linejoin="round" stroke-width="1.5px"></path><path class="a" d="M10.702 11.241l-2.05-7.616" fill="none" stroke="#212121" stroke-linecap="round" stroke-linejoin="round" stroke-width="1.5px"></path><path class="a" d="M16.95 14.124a4.942 4.942 0 0 0-4.95-3 4.942 4.942 0 0 0-4.95 3" fill="none" stroke="#212121" stroke-linecap="round" stroke-linejoin="round" stroke-width="1.5px"></path></g></svg>