<svg xmlns="http://www.w3.org/2000/svg" width="24" height="24" viewBox="0 0 24 24"><title>history fish</title><g fill="#212121" class="nc-icon-wrapper"><defs></defs><path class="a" d="M8.148 6.027a2.765 2.765 0 0 0-4.178.441 9.735 9.735 0 0 0-.184 10.774c-.946 1.363-1.129 4.077.714 5.305L6.75 20.3h3C9.2 16.982 7.325 16.518 6 16.5c-.019-.249-.041-.5-.041-.752a9.5 9.5 0 0 1 2.359-5.92 2.735 2.735 0 0 0-.17-3.801z" fill="none" stroke="#212121" stroke-linecap="round" stroke-linejoin="round" stroke-width="1.5px"></path><path class="a" d="M7.779 10.503l1.25 2.232" fill="none" stroke="#212121" stroke-linecap="round" stroke-linejoin="round" stroke-width="1.5px"></path><path class="a" d="M3.002 8.238l-2.255.756" fill="none" stroke="#212121" stroke-linecap="round" stroke-linejoin="round" stroke-width="1.5px"></path><path class="a" d="M15.852 17.973a2.765 2.765 0 0 0 4.178-.441 9.735 9.735 0 0 0 .184-10.774c.946-1.363 1.129-4.077-.714-5.3L17.25 3.7h-3c.55 3.318 2.425 3.782 3.75 3.8.019.249.041.5.041.752a9.5 9.5 0 0 1-2.359 5.922 2.735 2.735 0 0 0 .17 3.799z" fill="none" stroke="#212121" stroke-linecap="round" stroke-linejoin="round" stroke-width="1.5px"></path><path class="a" d="M16.221 13.497l-1.25-2.232" fill="none" stroke="#212121" stroke-linecap="round" stroke-linejoin="round" stroke-width="1.5px"></path><path class="a" d="M20.998 15.762l2.255-.756" fill="none" stroke="#212121" stroke-linecap="round" stroke-linejoin="round" stroke-width="1.5px"></path></g></svg>