<svg xmlns="http://www.w3.org/2000/svg" width="24" height="24" viewBox="0 0 24 24"><title>history caveman symbols</title><g fill="#212121" class="nc-icon-wrapper"><defs></defs><path class="a" d="M2.25.75v22.5" fill="none" stroke="#212121" stroke-linecap="round" stroke-linejoin="round" stroke-width="1.5px"></path><path class="a" d="M2.25 6.75l4.5-4.5" fill="none" stroke="#212121" stroke-linecap="round" stroke-linejoin="round" stroke-width="1.5px"></path><path class="a" d="M2.25 12l4.5-4.5" fill="none" stroke="#212121" stroke-linecap="round" stroke-linejoin="round" stroke-width="1.5px"></path><path class="a" d="M14.25 11.25V2.075a.75.75 0 0 1 1.136-.643l6 3.6a.748.748 0 0 1 .364.643v5.575" fill="none" stroke="#212121" stroke-linecap="round" stroke-linejoin="round" stroke-width="1.5px"></path><path class="a" d="M6.75 23.25l6.22-6.22a.749.749 0 0 0 0-1.06l-2.69-2.69a.749.749 0 0 0-1.06 0l-2.69 2.69a.749.749 0 0 0 0 1.06l6.22 6.22" fill="none" stroke="#212121" stroke-linecap="round" stroke-linejoin="round" stroke-width="1.5px"></path></g></svg>