<svg xmlns="http://www.w3.org/2000/svg" width="24" height="24" viewBox="0 0 24 24"><title>history man viking</title><g fill="#212121" class="nc-icon-wrapper"><defs></defs><path class="a" d="M17.25 6v5.25a5.25 5.25 0 0 1-10.5 0V6a5.25 5.25 0 1 1 10.5 0z" fill="none" stroke="#212121" stroke-linecap="round" stroke-linejoin="round" stroke-width="1.5px"></path><path class="a" d="M21.635 23.25a9.763 9.763 0 0 0-6.55-7.752" fill="none" stroke="#212121" stroke-linecap="round" stroke-linejoin="round" stroke-width="1.5px"></path><path class="a" d="M8.915 15.5a9.763 9.763 0 0 0-6.55 7.752" fill="none" stroke="#212121" stroke-linecap="round" stroke-linejoin="round" stroke-width="1.5px"></path><path class="a" d="M6.865 6.75H17.25" fill="none" stroke="#212121" stroke-linecap="round" stroke-linejoin="round" stroke-width="1.5px"></path><path class="a" d="M6.968 4.5H6.75A3.75 3.75 0 0 1 3 .75c.071 3.72-.011 5.859 3.75 7.45" fill="none" stroke="#212121" stroke-linecap="round" stroke-linejoin="round" stroke-width="1.5px"></path><path class="a" d="M17.074 4.5h.218a3.75 3.75 0 0 0 3.75-3.75c-.073 3.841.142 5.8-3.792 7.47" fill="none" stroke="#212121" stroke-linecap="round" stroke-linejoin="round" stroke-width="1.5px"></path><path class="a" d="M5.123 17.842a9 9 0 0 0 12.948-.721" fill="none" stroke="#212121" stroke-linecap="round" stroke-linejoin="round" stroke-width="1.5px"></path><path class="a" d="M9.75 20.125v3.125" fill="none" stroke="#212121" stroke-linecap="round" stroke-linejoin="round" stroke-width="1.5px"></path><path class="a" d="M6.75 8.335a6.453 6.453 0 0 0 2.315 4.415c.917.5 1.586-1.39 2.935-1.39" fill="none" stroke="#212121" stroke-linecap="round" stroke-linejoin="round" stroke-width="1.5px"></path><path class="a" d="M12 11.36c1.349 0 2.018 1.892 2.935 1.39a6.453 6.453 0 0 0 2.315-4.415" fill="none" stroke="#212121" stroke-linecap="round" stroke-linejoin="round" stroke-width="1.5px"></path></g></svg>