<svg xmlns="http://www.w3.org/2000/svg" width="24" height="24" viewBox="0 0 24 24"><title>honey</title><g fill="#212121" class="nc-icon-wrapper"><defs></defs><rect class="cls-1" x=".723" y="15.75" width="15" height="3" rx="1.5" ry="1.5" fill="none" stroke="#212121" stroke-linecap="round" stroke-linejoin="round" stroke-width="1.5px"></rect><path class="cls-1" d="M9.723 23.25h-3a4.5 4.5 0 0 1-4.5-4.5h12a4.5 4.5 0 0 1-4.5 4.5z" fill="none" stroke="#212121" stroke-linecap="round" stroke-linejoin="round" stroke-width="1.5px"></path><circle class="cls-1" cx="21.723" cy="2.25" r="1.5" fill="none" stroke="#212121" stroke-linecap="round" stroke-linejoin="round" stroke-width="1.5px"></circle><path class="cls-1" d="M11.973 10.413A1.881 1.881 0 0 1 10.12 12a1.881 1.881 0 0 1-1.875-1.875v.75A1.881 1.881 0 0 1 6.37 12.75a1.881 1.881 0 0 1-1.87-1.875v-.75" fill="none" stroke="#212121" stroke-linecap="round" stroke-linejoin="round" stroke-width="1.5px"></path><path class="cls-1" d="M20.293 2.705l-5.717 1.822" fill="none" stroke="#212121" stroke-linecap="round" stroke-linejoin="round" stroke-width="1.5px"></path><rect class="cls-1" x="11.647" y="1.982" width="3" height="6" rx="1.5" ry="1.5" transform="rotate(-17.671 13.147 4.982)" fill="none" stroke="#212121" stroke-linecap="round" stroke-linejoin="round" stroke-width="1.5px"></rect><path class="cls-1" d="M6.038 7.375l-.492-1.546a1.5 1.5 0 0 1 .974-1.884 1.5 1.5 0 0 1 1.88.974l.705 2.212" fill="none" stroke="#212121" stroke-linecap="round" stroke-linejoin="round" stroke-width="1.5px"></path><path class="cls-1" d="M8.876 6.4l-.928-2.914A1.5 1.5 0 0 1 8.921 1.6a1.505 1.505 0 0 1 1.885.974l.594 1.867" fill="none" stroke="#212121" stroke-linecap="round" stroke-linejoin="round" stroke-width="1.5px"></path></g></svg>