<svg xmlns="http://www.w3.org/2000/svg" width="24" height="24" viewBox="0 0 24 24"><title>hospital bedroom</title><g fill="#212121" class="nc-icon-wrapper"><defs></defs><circle class="cls-1" cx="7.5" cy="16.5" r="2.25" fill="none" stroke="#212121" stroke-linecap="round" stroke-linejoin="round" stroke-width="1.5px"></circle><path class="cls-1" d="M12 14.25h8.5a2 2 0 0 1 2 2v2.5H12v-4.5z" fill="none" stroke="#212121" stroke-linecap="round" stroke-linejoin="round" stroke-width="1.5px"></path><path class="cls-1" d="M1.5 18.75h21v3h-21z" fill="none" stroke="#212121" stroke-linecap="round" stroke-linejoin="round" stroke-width="1.5px"></path><path class="cls-1" d="M1.5 23.25v-9" fill="none" stroke="#212121" stroke-linecap="round" stroke-linejoin="round" stroke-width="1.5px"></path><path class="cls-1" d="M22.5 23.25v-1.5" fill="none" stroke="#212121" stroke-linecap="round" stroke-linejoin="round" stroke-width="1.5px"></path><path class="cls-1" d="M17.25 3.75H15V1.5a.75.75 0 0 0-.75-.75h-3a.75.75 0 0 0-.75.75v2.25H8.25a.75.75 0 0 0-.75.75v3a.75.75 0 0 0 .75.75h2.25v2.25a.75.75 0 0 0 .75.75h3a.75.75 0 0 0 .75-.75V8.25h2.25A.75.75 0 0 0 18 7.5v-3a.75.75 0 0 0-.75-.75z" fill="none" stroke="#212121" stroke-linecap="round" stroke-linejoin="round" stroke-width="1.5px"></path></g></svg>