<svg xmlns="http://www.w3.org/2000/svg" width="24" height="24" viewBox="0 0 24 24"><title>hospital board</title><g fill="#212121" class="nc-icon-wrapper"><defs></defs><circle class="cls-1" cx="12" cy="12" r="11.25" fill="none" stroke="#212121" stroke-linecap="round" stroke-linejoin="round" stroke-width="1.5px"></circle><path class="cls-1" d="M18 9.75h-3.75V6a.75.75 0 0 0-.75-.75h-3a.75.75 0 0 0-.75.75v3.75H6a.75.75 0 0 0-.75.75v3a.75.75 0 0 0 .75.75h3.75V18a.75.75 0 0 0 .75.75h3a.75.75 0 0 0 .75-.75v-3.75H18a.75.75 0 0 0 .75-.75v-3a.75.75 0 0 0-.75-.75z" fill="none" stroke="#212121" stroke-linecap="round" stroke-linejoin="round" stroke-width="1.5px"></path></g></svg>