<svg xmlns="http://www.w3.org/2000/svg" width="24" height="24" viewBox="0 0 24 24"><title>hospital sign square</title><g fill="#212121" class="nc-icon-wrapper"><defs></defs><rect class="cls-1" x=".75" y=".75" width="22.5" height="22.5" rx="3" ry="3" fill="none" stroke="#212121" stroke-linecap="round" stroke-linejoin="round" stroke-width="1.5px"></rect><path class="cls-1" d="M14.25 6v3.75h-4.5V6A.75.75 0 0 0 9 5.25H6a.75.75 0 0 0-.75.75v12a.75.75 0 0 0 .75.75h3a.75.75 0 0 0 .75-.75v-3.75h4.5V18a.75.75 0 0 0 .75.75h3a.75.75 0 0 0 .75-.75V6a.75.75 0 0 0-.75-.75h-3a.75.75 0 0 0-.75.75z" fill="none" stroke="#212121" stroke-linecap="round" stroke-linejoin="round" stroke-width="1.5px"></path></g></svg>