<svg xmlns="http://www.w3.org/2000/svg" width="24" height="24" viewBox="0 0 24 24"><title>house user</title><g fill="#212121" class="nc-icon-wrapper"><defs></defs><path class="a" d="M16.5 22.5h2.25a1.5 1.5 0 0 0 1.5-1.5v-7.5" fill="none" stroke="#212121" stroke-linecap="round" stroke-linejoin="round" stroke-width="1.5px"></path><path class="a" d="M3.75 13.5V21a1.5 1.5 0 0 0 1.5 1.5H7.5" fill="none" stroke="#212121" stroke-linecap="round" stroke-linejoin="round" stroke-width="1.5px"></path><path class="a" d="M.75 12.129l10.189-10.19a1.5 1.5 0 0 1 2.122 0l10.189 10.19" fill="none" stroke="#212121" stroke-linecap="round" stroke-linejoin="round" stroke-width="1.5px"></path><path class="a" d="M16.5 5.379V3h3.75v6.129" fill="none" stroke="#212121" stroke-linecap="round" stroke-linejoin="round" stroke-width="1.5px"></path><circle class="a" cx="12" cy="9.75" r="2.25" fill="none" stroke="#212121" stroke-linecap="round" stroke-linejoin="round" stroke-width="1.5px"></circle><path class="a" d="M12 13.5a3.75 3.75 0 0 0-3.75 3.75V18h1.5l.75 4.5h3l.75-4.5h1.5v-.75A3.75 3.75 0 0 0 12 13.5z" fill="none" stroke="#212121" stroke-linecap="round" stroke-linejoin="round" stroke-width="1.5px"></path></g></svg>