<svg xmlns="http://www.w3.org/2000/svg" width="24" height="24" viewBox="0 0 24 24"><title>human resources search employees</title><g fill="#212121" class="nc-icon-wrapper"><defs></defs><path class="a" d="M.749 23.25a7.9 7.9 0 0 1 .651-3.115c.47-.919 2.431-1.557 4.893-2.45.666-.241.557-1.943.262-2.261a4.753 4.753 0 0 1-1.279-3.73 3.2 3.2 0 0 1 2.743-3.422" fill="none" stroke="#212121" stroke-linecap="round" stroke-linejoin="round" stroke-width="1.5px"></path><path class="a" d="M11.4 13.1a4.187 4.187 0 0 1-1.169 2.323c-.295.318-.405 2.02.262 2.261 2.462.893 4.423 1.531 4.893 2.45a8.033 8.033 0 0 1 .666 3.115" fill="none" stroke="#212121" stroke-linecap="round" stroke-linejoin="round" stroke-width="1.5px"></path><path class="a" d="M19.367 23.25h2.368v-.817c0-2.894-2-3.361-4.007-4.1-.665-.247-.556-1.984-.262-2.308a4.349 4.349 0 0 0 1.2-2.551" fill="none" stroke="#212121" stroke-linecap="round" stroke-linejoin="round" stroke-width="1.5px"></path><circle class="a" cx="15.749" cy="6.014" r="5.25" fill="none" stroke="#212121" stroke-linecap="round" stroke-linejoin="round" stroke-width="1.5px"></circle><path class="a" d="M23.249 13.514l-3.788-3.788" fill="none" stroke="#212121" stroke-linecap="round" stroke-linejoin="round" stroke-width="1.5px"></path></g></svg>