<svg xmlns="http://www.w3.org/2000/svg" width="24" height="24" viewBox="0 0 24 24"><title>human resources hierarchy woman</title><g fill="#212121" class="nc-icon-wrapper"><defs></defs><path class="a" d="M14.249 20.25h-1a.51.51 0 0 1-.5-.519V3.518a.509.509 0 0 1 .5-.518h1" fill="none" stroke="#212121" stroke-linecap="round" stroke-linejoin="round" stroke-width="1.5px"></path><circle class="a" cx="19.499" cy="3" r="2.25" fill="none" stroke="#212121" stroke-linecap="round" stroke-linejoin="round" stroke-width="1.5px"></circle><path class="a" d="M23.249 9A4.047 4.047 0 0 0 19.5 6a4.047 4.047 0 0 0-3.75 3z" fill="none" stroke="#212121" stroke-linecap="round" stroke-linejoin="round" stroke-width="1.5px"></path><circle class="a" cx="19.499" cy="17.25" r="2.25" fill="none" stroke="#212121" stroke-linecap="round" stroke-linejoin="round" stroke-width="1.5px"></circle><path class="a" d="M23.249 23.25a4.047 4.047 0 0 0-3.75-3 4.047 4.047 0 0 0-3.75 3z" fill="none" stroke="#212121" stroke-linecap="round" stroke-linejoin="round" stroke-width="1.5px"></path><path class="a" d="M.749 18a4.5 4.5 0 0 1 9 0z" fill="none" stroke="#212121" stroke-linecap="round" stroke-linejoin="round" stroke-width="1.5px"></path><path class="a" d="M8.454 9.235V10a4.506 4.506 0 0 0 .657 2.5" fill="none" stroke="#212121" stroke-linecap="round" stroke-linejoin="round" stroke-width="1.5px"></path><path class="a" d="M2.155 9.235V10a4.515 4.515 0 0 1-.655 2.5" fill="none" stroke="#212121" stroke-linecap="round" stroke-linejoin="round" stroke-width="1.5px"></path><path class="a" d="M2.164 9.4a4.19 4.19 0 0 0 3.141-1.449A4.187 4.187 0 0 0 8.445 9.4" fill="none" stroke="#212121" stroke-linecap="round" stroke-linejoin="round" stroke-width="1.5px"></path><circle class="a" cx="5.305" cy="9.15" r="3.151" fill="none" stroke="#212121" stroke-linecap="round" stroke-linejoin="round" stroke-width="1.5px"></circle><path class="a" d="M12.749 11.25h-1.5" fill="none" stroke="#212121" stroke-linecap="round" stroke-linejoin="round" stroke-width="1.5px"></path></g></svg>