<svg xmlns="http://www.w3.org/2000/svg" width="24" height="24" viewBox="0 0 24 24"><title>human resources woman previous</title><g fill="#212121" class="nc-icon-wrapper"><defs></defs><path class="a" d="M13.5 21.75A9.75 9.75 0 1 0 3.75 12v.75" fill="none" stroke="#212121" stroke-linecap="round" stroke-linejoin="round" stroke-width="1.5px"></path><path class="a" d="M.75 9.75l3 3 3-3" fill="none" stroke="#212121" stroke-linecap="round" stroke-linejoin="round" stroke-width="1.5px"></path><path class="a" d="M9.377 9.486v1a5.9 5.9 0 0 1-.86 3.272" fill="none" stroke="#212121" stroke-linecap="round" stroke-linejoin="round" stroke-width="1.5px"></path><path class="a" d="M17.624 9.486v1a5.9 5.9 0 0 0 .859 3.272" fill="none" stroke="#212121" stroke-linecap="round" stroke-linejoin="round" stroke-width="1.5px"></path><path class="a" d="M9.388 9.7A5.483 5.483 0 0 0 13.5 7.8a5.483 5.483 0 0 0 4.112 1.9" fill="none" stroke="#212121" stroke-linecap="round" stroke-linejoin="round" stroke-width="1.5px"></path><circle class="a" cx="13.5" cy="9.375" r="4.125" fill="none" stroke="#212121" stroke-linecap="round" stroke-linejoin="round" stroke-width="1.5px"></circle><path class="a" d="M18.42 17.139a6.783 6.783 0 0 0-2.413-1.646L13.5 18l-2.507-2.507a6.792 6.792 0 0 0-2.778 2.067" fill="none" stroke="#212121" stroke-linecap="round" stroke-linejoin="round" stroke-width="1.5px"></path></g></svg>