<svg xmlns="http://www.w3.org/2000/svg" width="24" height="24" viewBox="0 0 24 24"><title>ice cream stand</title><g fill="#212121" class="nc-icon-wrapper"><defs></defs><circle class="cls-1" cx="12.724" cy="20.25" r="3" fill="none" stroke="#212121" stroke-linecap="round" stroke-linejoin="round" stroke-width="1.5px"></circle><path class="cls-1" d="M3.724 20.25v3" fill="none" stroke="#212121" stroke-linecap="round" stroke-linejoin="round" stroke-width="1.5px"></path><path class="cls-1" d="M8.224 8.25v4.5" fill="none" stroke="#212121" stroke-linecap="round" stroke-linejoin="round" stroke-width="1.5px"></path><path class="cls-1" d="M18.724 12.75l1.5-3h3" fill="none" stroke="#212121" stroke-linecap="round" stroke-linejoin="round" stroke-width="1.5px"></path><path class="cls-1" d="M4.84 6.75a4.084 4.084 0 0 1 3.14 1.5h.469a4.055 4.055 0 0 1 6.3 0 .906.906 0 0 0 .9-1.03 7.5 7.5 0 0 0-14.86 0 .906.906 0 0 0 .9 1.03 4.1 4.1 0 0 1 3.151-1.5z" fill="none" stroke="#212121" stroke-linecap="round" stroke-linejoin="round" stroke-width="1.5px"></path><path class="cls-1" d="M9.724 20.25H3.8a1.573 1.573 0 0 1-1.573-1.573V12.75h16.5v5.927a1.573 1.573 0 0 1-1.573 1.573h-1.43" fill="none" stroke="#212121" stroke-linecap="round" stroke-linejoin="round" stroke-width="1.5px"></path></g></svg>