<svg xmlns="http://www.w3.org/2000/svg" width="24" height="24" viewBox="0 0 24 24"><title>ice water</title><g fill="#212121" class="nc-icon-wrapper"><defs></defs><path class="cls-1" d="M.75 19.322l1.458 1.246A2.008 2.008 0 0 0 3.5 21a2.012 2.012 0 0 0 1.293-.432l1.622-1.386a2.012 2.012 0 0 1 1.293-.432A2.008 2.008 0 0 1 9 19.182l1.623 1.386a2.151 2.151 0 0 0 2.586 0l1.622-1.386a2.151 2.151 0 0 1 2.586 0l1.623 1.386a2.151 2.151 0 0 0 2.586 0l1.622-1.386" fill="none" stroke="#212121" stroke-linecap="round" stroke-linejoin="round" stroke-width="1.5px"></path><path class="cls-1" d="M18.039 14.461l1 .857a2.151 2.151 0 0 0 2.586 0l1.622-1.386" fill="none" stroke="#212121" stroke-linecap="round" stroke-linejoin="round" stroke-width="1.5px"></path><path class="cls-1" d="M.75 14.072l1.458 1.246a2.008 2.008 0 0 0 1.292.432 2.012 2.012 0 0 0 1.293-.432l.976-.834" fill="none" stroke="#212121" stroke-linecap="round" stroke-linejoin="round" stroke-width="1.5px"></path><path class="cls-1" d="M9.668 4.5l2.25 1.5 2.25-1.5" fill="none" stroke="#212121" stroke-linecap="round" stroke-linejoin="round" stroke-width="1.5px"></path><path class="cls-1" d="M11.918 15V3" fill="none" stroke="#212121" stroke-linecap="round" stroke-linejoin="round" stroke-width="1.5px"></path><path class="cls-1" d="M9.668 13.5l2.25-1.5 2.25 1.5" fill="none" stroke="#212121" stroke-linecap="round" stroke-linejoin="round" stroke-width="1.5px"></path><path class="cls-1" d="M16.418 6.75L14.918 9l1.5 2.25" fill="none" stroke="#212121" stroke-linecap="round" stroke-linejoin="round" stroke-width="1.5px"></path><path class="cls-1" d="M5.918 9h12" fill="none" stroke="#212121" stroke-linecap="round" stroke-linejoin="round" stroke-width="1.5px"></path><path class="cls-1" d="M7.418 6.75L8.918 9l-1.5 2.25" fill="none" stroke="#212121" stroke-linecap="round" stroke-linejoin="round" stroke-width="1.5px"></path></g></svg>