<svg xmlns="http://www.w3.org/2000/svg" width="24" height="24" viewBox="0 0 24 24"><title>ice cream cone</title><g fill="#212121" class="nc-icon-wrapper"><defs></defs><path class="cls-1" d="M7.5 11.25v-1.5A1.5 1.5 0 0 1 9 8.25a1.5 1.5 0 0 1 1.5 1.5v1.5" fill="none" stroke="#212121" stroke-linecap="round" stroke-linejoin="round" stroke-width="1.5px"></path><path class="cls-1" d="M13.5 11.25a1.5 1.5 0 0 1-1.5 1.5 1.5 1.5 0 0 1-1.5-1.5" fill="none" stroke="#212121" stroke-linecap="round" stroke-linejoin="round" stroke-width="1.5px"></path><path class="cls-1" d="M13.5 11.25v-1.5a1.5 1.5 0 0 1 1.5-1.5 1.5 1.5 0 0 1 1.5 1.5v1.5" fill="none" stroke="#212121" stroke-linecap="round" stroke-linejoin="round" stroke-width="1.5px"></path><path class="cls-1" d="M7.5 11.25a1.5 1.5 0 0 1-1.5 1.5 1.5 1.5 0 0 1-1.5-1.5v-3A7.522 7.522 0 0 1 12 .75a7.522 7.522 0 0 1 7.5 7.5v3a1.5 1.5 0 0 1-1.5 1.5 1.5 1.5 0 0 1-1.5-1.5" fill="none" stroke="#212121" stroke-linecap="round" stroke-linejoin="round" stroke-width="1.5px"></path><path class="cls-1" d="M16.928 12.3l-3.546 10.032a1.5 1.5 0 0 1-2.764 0L7.072 12.3" fill="none" stroke="#212121" stroke-linecap="round" stroke-linejoin="round" stroke-width="1.5px"></path></g></svg>