<svg xmlns="http://www.w3.org/2000/svg" width="24" height="24" viewBox="0 0 24 24"><title>ice cream bowl</title><g fill="#212121" class="nc-icon-wrapper"><defs></defs><path class="cls-1" d="M20.918 11.25a1.407 1.407 0 0 1 1.482 1.584 8.837 8.837 0 0 1-8.83 6.666 8.837 8.837 0 0 1-8.834-6.666 1.407 1.407 0 0 1 1.486-1.584z" fill="none" stroke="#212121" stroke-linecap="round" stroke-linejoin="round" stroke-width="1.5px"></path><path class="cls-1" d="M13.57 19.5v3.75" fill="none" stroke="#212121" stroke-linecap="round" stroke-linejoin="round" stroke-width="1.5px"></path><path class="cls-1" d="M10.57 23.25h6" fill="none" stroke="#212121" stroke-linecap="round" stroke-linejoin="round" stroke-width="1.5px"></path><path class="cls-1" d="M6.143 11.252a3.751 3.751 0 1 1 7.427-.752v.75" fill="none" stroke="#212121" stroke-linecap="round" stroke-linejoin="round" stroke-width="1.5px"></path><path class="cls-1" d="M21 11.252a3.751 3.751 0 1 0-7.43-.752v.75" fill="none" stroke="#212121" stroke-linecap="round" stroke-linejoin="round" stroke-width="1.5px"></path><path class="cls-1" d="M17.32 6.75a3.75 3.75 0 0 0-7.5 0" fill="none" stroke="#212121" stroke-linecap="round" stroke-linejoin="round" stroke-width="1.5px"></path><path class="cls-1" d="M7.125 7.892L1.57.75" fill="none" stroke="#212121" stroke-linecap="round" stroke-linejoin="round" stroke-width="1.5px"></path></g></svg>