<svg xmlns="http://www.w3.org/2000/svg" width="24" height="24" viewBox="0 0 24 24"><title>ice cream truck</title><g fill="#212121" class="nc-icon-wrapper"><defs></defs><path class="cls-1" d="M6.75 20.25h6" fill="none" stroke="#212121" stroke-linecap="round" stroke-linejoin="round" stroke-width="1.5px"></path><circle class="cls-1" cx="3.75" cy="20.25" r="3" fill="none" stroke="#212121" stroke-linecap="round" stroke-linejoin="round" stroke-width="1.5px"></circle><circle class="cls-1" cx="17.25" cy="20.25" r="3" fill="none" stroke="#212121" stroke-linecap="round" stroke-linejoin="round" stroke-width="1.5px"></circle><path class="cls-1" d="M20.25 20.25h1.5a1.5 1.5 0 0 0 1.5-1.5v-4.5" fill="none" stroke="#212121" stroke-linecap="round" stroke-linejoin="round" stroke-width="1.5px"></path><path class="cls-1" d="M14.25 20.25h-1.5v-4.5a1.5 1.5 0 0 0-1.5-1.5" fill="none" stroke="#212121" stroke-linecap="round" stroke-linejoin="round" stroke-width="1.5px"></path><path class="cls-1" d="M11.25 11.25a1.5 1.5 0 0 0 0 3h12v-1.5a1.5 1.5 0 0 0-1.5-1.5z" fill="none" stroke="#212121" stroke-linecap="round" stroke-linejoin="round" stroke-width="1.5px"></path><path class="cls-1" d="M9.75 20.25a6 6 0 0 0-9-5.2" fill="none" stroke="#212121" stroke-linecap="round" stroke-linejoin="round" stroke-width="1.5px"></path><path class="cls-1" d="M12.75 17.25H8.947" fill="none" stroke="#212121" stroke-linecap="round" stroke-linejoin="round" stroke-width="1.5px"></path><path class="cls-1" d="M3.75 14.25v-3" fill="none" stroke="#212121" stroke-linecap="round" stroke-linejoin="round" stroke-width="1.5px"></path><path class="cls-1" d="M.75 11.25h6" fill="none" stroke="#212121" stroke-linecap="round" stroke-linejoin="round" stroke-width="1.5px"></path><path class="cls-1" d="M14.25 11.25v-6" fill="none" stroke="#212121" stroke-linecap="round" stroke-linejoin="round" stroke-width="1.5px"></path><path class="cls-1" d="M22.532 4.168a1.5 1.5 0 0 1-.361 2.244A2.215 2.215 0 0 1 21 6.75a2.774 2.774 0 0 1-2.25-1.5 2.774 2.774 0 0 1-2.25 1.5 2.774 2.774 0 0 1-2.25-1.5A2.774 2.774 0 0 1 12 6.75a2.774 2.774 0 0 1-2.25-1.5 2.774 2.774 0 0 1-2.25 1.5 2.215 2.215 0 0 1-1.171-.338 1.5 1.5 0 0 1-.361-2.244C7.882 1.889 11.636.75 14.25.75s6.368 1.139 8.282 3.418z" fill="none" stroke="#212121" stroke-linecap="round" stroke-linejoin="round" stroke-width="1.5px"></path><path class="cls-1" d="M9.75 5.25a4.323 4.323 0 0 1 4.5-4.5" fill="none" stroke="#212121" stroke-linecap="round" stroke-linejoin="round" stroke-width="1.5px"></path><path class="cls-1" d="M18.75 5.25a4.323 4.323 0 0 0-4.5-4.5" fill="none" stroke="#212121" stroke-linecap="round" stroke-linejoin="round" stroke-width="1.5px"></path></g></svg>