<svg xmlns="http://www.w3.org/2000/svg" width="24" height="24" viewBox="0 0 24 24"><title>idea message</title><g fill="#212121" class="nc-icon-wrapper"><defs></defs><path class="a" d="M20.25 7.5a3 3 0 0 1 3 3v6.75a3 3 0 0 1-3 3v3l-5.25-3H8.25a3 3 0 0 1-3-3V10.5a3 3 0 0 1 3-3z" fill="none" stroke="#212121" stroke-linecap="round" stroke-linejoin="round" stroke-width="1.5px"></path><path class="a" d="M.75 15.75V7.5a3 3 0 0 1 3-3V.75L9 4.5h6.75" fill="none" stroke="#212121" stroke-linecap="round" stroke-linejoin="round" stroke-width="1.5px"></path><path class="a" d="M15.75 12.75A2.25 2.25 0 1 0 12 14.416v1.334h3v-1.334a2.236 2.236 0 0 0 .75-1.666z" fill="none" stroke="#212121" stroke-linecap="round" stroke-linejoin="round" stroke-width="1.5px"></path><path class="a" d="M13.5 15.75v1.5" fill="none" stroke="#212121" stroke-linecap="round" stroke-linejoin="round" stroke-width="1.5px"></path></g></svg>