<svg xmlns="http://www.w3.org/2000/svg" width="24" height="24" viewBox="0 0 24 24"><title>image document svg 1</title><g fill="#212121" class="nc-icon-wrapper"><defs></defs><rect class="a" x=".75" y=".75" width="22.5" height="22.5" rx="1" ry="1" fill="none" stroke="#212121" stroke-linecap="round" stroke-linejoin="round" stroke-width="1.5px"></rect><path class="a" d="M10.5 10.5v2.546A8.932 8.932 0 0 0 12 18a8.932 8.932 0 0 0 1.5-4.954V10.5" fill="none" stroke="#212121" stroke-linecap="round" stroke-linejoin="round" stroke-width="1.5px"></path><path class="a" d="M7.5 10.5H6A1.5 1.5 0 0 0 4.5 12c0 2.25 3 2.25 3 4.5A1.5 1.5 0 0 1 6 18H4.5" fill="none" stroke="#212121" stroke-linecap="round" stroke-linejoin="round" stroke-width="1.5px"></path><path class="a" d="M18.75 15h.75v1.5a1.5 1.5 0 0 1-3 0V12a1.5 1.5 0 0 1 1.5-1.5h1.5" fill="none" stroke="#212121" stroke-linecap="round" stroke-linejoin="round" stroke-width="1.5px"></path></g></svg>