<svg xmlns="http://www.w3.org/2000/svg" width="24" height="24" viewBox="0 0 24 24"><title>information desk paper</title><g fill="#212121" class="nc-icon-wrapper"><defs></defs><circle class="a" cx="3" cy="4.8" r="2.25" fill="none" stroke="#212121" stroke-linecap="round" stroke-linejoin="round" stroke-width="1.5px"></circle><circle class="a" cx="21" cy="4.8" r="2.25" fill="none" stroke="#212121" stroke-linecap="round" stroke-linejoin="round" stroke-width="1.5px"></circle><path class="a" d="M17.25 22.05H13.5l-.75-9h.75" fill="none" stroke="#212121" stroke-linecap="round" stroke-linejoin="round" stroke-width="1.5px"></path><path class="a" d="M11.25 13.05h1.5" fill="none" stroke="#212121" stroke-linecap="round" stroke-linejoin="round" stroke-width="1.5px"></path><path class="a" d="M21 22.05a1.5 1.5 0 0 1-1.5-1.5v-6.91a7.424 7.424 0 0 1-4.794.88 1.5 1.5 0 0 1 .575-2.944 4.355 4.355 0 0 0 4.433-2.3 1.5 1.5 0 0 1 2.786.772v10.5A1.5 1.5 0 0 1 21 22.05z" fill="none" stroke="#212121" stroke-linecap="round" stroke-linejoin="round" stroke-width="1.5px"></path><path class="a" d="M3 22.05a1.5 1.5 0 0 1-1.5-1.5v-10.5a1.5 1.5 0 0 1 2.171-1.342 3.371 3.371 0 0 0 4.737-1.579 1.5 1.5 0 0 1 2.684 1.342A6.469 6.469 0 0 1 4.5 12.1v8.45a1.5 1.5 0 0 1-1.5 1.5z" fill="none" stroke="#212121" stroke-linecap="round" stroke-linejoin="round" stroke-width="1.5px"></path><path class="a" d="M9.289 6.372l1.657-4.421L15.16 3.53l-2.106 5.619-1.943-.729" fill="none" stroke="#212121" stroke-linecap="round" stroke-linejoin="round" stroke-width="1.5px"></path></g></svg>