<svg xmlns="http://www.w3.org/2000/svg" width="24" height="24" viewBox="0 0 24 24"><title>insect cricket</title><g fill="#212121" class="nc-icon-wrapper"><defs></defs><path class="cls-1" d="M12.01 15c-2.485 0-4.5 1.007-4.5 2.25v3c0 1.242 2.015 3 4.5 3s4.5-1.758 4.5-3v-3c0-1.243-2.01-2.25-4.5-2.25z" fill="none" stroke="#212121" stroke-linecap="round" stroke-linejoin="round" stroke-width="1.5px"></path><ellipse class="cls-1" cx="17.26" cy="12.375" rx="2.25" ry="4.125" fill="none" stroke="#212121" stroke-linecap="round" stroke-linejoin="round" stroke-width="1.5px"></ellipse><ellipse class="cls-1" cx="6.76" cy="12.375" rx="2.25" ry="4.125" fill="none" stroke="#212121" stroke-linecap="round" stroke-linejoin="round" stroke-width="1.5px"></ellipse><path class="cls-1" d="M7.361 8.4a6.462 6.462 0 0 1 4.649-1.65 6.462 6.462 0 0 1 4.649 1.65" fill="none" stroke="#212121" stroke-linecap="round" stroke-linejoin="round" stroke-width="1.5px"></path><path class="cls-1" d="M15.01 7.327V6.75s0-6 2.25-6" fill="none" stroke="#212121" stroke-linecap="round" stroke-linejoin="round" stroke-width="1.5px"></path><path class="cls-1" d="M9.01 7.327V6.75s0-6-2.25-6" fill="none" stroke="#212121" stroke-linecap="round" stroke-linejoin="round" stroke-width="1.5px"></path><path class="cls-1" d="M12.01 18v5.25" fill="none" stroke="#212121" stroke-linecap="round" stroke-linejoin="round" stroke-width="1.5px"></path><path class="cls-1" d="M10.51 19.5h3" fill="none" stroke="#212121" stroke-linecap="round" stroke-linejoin="round" stroke-width="1.5px"></path><path class="cls-1" d="M7.51 17.303v-1.039" fill="none" stroke="#212121" stroke-linecap="round" stroke-linejoin="round" stroke-width="1.5px"></path><path class="cls-1" d="M16.51 17.25v-.986" fill="none" stroke="#212121" stroke-linecap="round" stroke-linejoin="round" stroke-width="1.5px"></path></g></svg>