<svg xmlns="http://www.w3.org/2000/svg" width="24" height="24" viewBox="0 0 24 24"><title>insect catch 1</title><g fill="#212121" class="nc-icon-wrapper"><defs></defs><path class="cls-1" d="M18.01 13.674a.576.576 0 0 1-.576.576H10.51l1.5-3h2.89a3 3 0 0 1 2.5 1.336l.512.769a.573.573 0 0 1 .098.319z" fill="none" stroke="#212121" stroke-linecap="round" stroke-linejoin="round" stroke-width="1.5px"></path><path class="cls-1" d="M12.01 11.25l-1.1-.827a4.523 4.523 0 0 0-4.15-.673" fill="none" stroke="#212121" stroke-linecap="round" stroke-linejoin="round" stroke-width="1.5px"></path><path class="cls-1" d="M11.26 14.25v1.5" fill="none" stroke="#212121" stroke-linecap="round" stroke-linejoin="round" stroke-width="1.5px"></path><path class="cls-1" d="M14.26 14.25v1.5" fill="none" stroke="#212121" stroke-linecap="round" stroke-linejoin="round" stroke-width="1.5px"></path><path class="cls-1" d="M15.76 14.25l1.5 1.5" fill="none" stroke="#212121" stroke-linecap="round" stroke-linejoin="round" stroke-width="1.5px"></path><path class="cls-1" d="M6.76 13.5a7.105 7.105 0 0 0 3.177.75h.573" fill="none" stroke="#212121" stroke-linecap="round" stroke-linejoin="round" stroke-width="1.5px"></path><path class="cls-1" d="M2.76 5.25h18.5a2 2 0 0 1 2 2v15a1 1 0 0 1-1 1H1.76a1 1 0 0 1-1-1v-15a2 2 0 0 1 2-2z" fill="none" stroke="#212121" stroke-linecap="round" stroke-linejoin="round" stroke-width="1.5px"></path><path class="cls-1" d="M17.26 5.25v-1.5a3 3 0 0 0-3-3h-4.5a3 3 0 0 0-3 3v1.5" fill="none" stroke="#212121" stroke-linecap="round" stroke-linejoin="round" stroke-width="1.5px"></path><path class="cls-1" d="M.76 18.75h22.5" fill="none" stroke="#212121" stroke-linecap="round" stroke-linejoin="round" stroke-width="1.5px"></path></g></svg>