<svg xmlns="http://www.w3.org/2000/svg" width="24" height="24" viewBox="0 0 24 24"><title>insect catch</title><g fill="#212121" class="nc-icon-wrapper"><defs></defs><path class="cls-1" d="M23.26 21.174a.576.576 0 0 1-.576.576H15.76l1.5-3h2.894a3 3 0 0 1 2.5 1.336l.512.769a.573.573 0 0 1 .094.319z" fill="none" stroke="#212121" stroke-linecap="round" stroke-linejoin="round" stroke-width="1.5px"></path><path class="cls-1" d="M17.26 18.75l-1.1-.827a4.523 4.523 0 0 0-4.147-.673" fill="none" stroke="#212121" stroke-linecap="round" stroke-linejoin="round" stroke-width="1.5px"></path><path class="cls-1" d="M16.51 21.75v1.5" fill="none" stroke="#212121" stroke-linecap="round" stroke-linejoin="round" stroke-width="1.5px"></path><path class="cls-1" d="M19.51 21.75v1.5" fill="none" stroke="#212121" stroke-linecap="round" stroke-linejoin="round" stroke-width="1.5px"></path><path class="cls-1" d="M21.01 21.75l1.5 1.5" fill="none" stroke="#212121" stroke-linecap="round" stroke-linejoin="round" stroke-width="1.5px"></path><path class="cls-1" d="M12.01 21a7.105 7.105 0 0 0 3.177.75h.573" fill="none" stroke="#212121" stroke-linecap="round" stroke-linejoin="round" stroke-width="1.5px"></path><ellipse class="cls-1" cx="15.835" cy="5.026" rx="5.25" ry="3" transform="rotate(-45 15.835 5.026)" fill="none" stroke="#212121" stroke-linecap="round" stroke-linejoin="round" stroke-width="1.5px"></ellipse><path class="cls-1" d="M12.123 8.738c5.834 5.834 9.016 4.773 11.137 3.713-1.591-1.591 0-3.182 0-5.3s-.53-2.651-3.712-5.837" fill="none" stroke="#212121" stroke-linecap="round" stroke-linejoin="round" stroke-width="1.5px"></path><path class="cls-1" d="M12.123 8.738L.76 20.101" fill="none" stroke="#212121" stroke-linecap="round" stroke-linejoin="round" stroke-width="1.5px"></path></g></svg>