<svg xmlns="http://www.w3.org/2000/svg" width="24" height="24" viewBox="0 0 24 24"><title>insect scorpion</title><g fill="#212121" class="nc-icon-wrapper"><defs></defs><path class="cls-1" d="M11.01 6.75V15a3 3 0 0 0 6 0V6.75z" fill="none" stroke="#212121" stroke-linecap="round" stroke-linejoin="round" stroke-width="1.5px"></path><path class="cls-1" d="M11.01 6.75s-1.25 3-2.5 3S7.26 6 7.26 6" fill="none" stroke="#212121" stroke-linecap="round" stroke-linejoin="round" stroke-width="1.5px"></path><path class="cls-1" d="M9.51 3c0 1.657-1.007 3-2.25 3S5.01 4.657 5.01 3V.75l2.25 1.5L9.51.75z" fill="none" stroke="#212121" stroke-linecap="round" stroke-linejoin="round" stroke-width="1.5px"></path><path class="cls-1" d="M17.01 6.75s1.25 3 2.5 3S20.76 6 20.76 6" fill="none" stroke="#212121" stroke-linecap="round" stroke-linejoin="round" stroke-width="1.5px"></path><path class="cls-1" d="M18.51 3c0 1.657 1.007 3 2.25 3s2.25-1.343 2.25-3V.75l-2.25 1.5-2.25-1.5z" fill="none" stroke="#212121" stroke-linecap="round" stroke-linejoin="round" stroke-width="1.5px"></path><path class="cls-1" d="M14.01 18s0 5.25-5.25 5.25-5.25-6-5.25-6" fill="none" stroke="#212121" stroke-linecap="round" stroke-linejoin="round" stroke-width="1.5px"></path><path class="cls-1" d="M5.7 14.5a5.5 5.5 0 0 0-2.19-3.25l-.75 2.25-1.5 1.5a2.25 2.25 0 0 0 4.5 0 2.22 2.22 0 0 0-.06-.5z" fill="none" stroke="#212121" stroke-linecap="round" stroke-linejoin="round" stroke-width="1.5px"></path><path class="cls-1" d="M17.01 12.75a2.078 2.078 0 0 0 3 0" fill="none" stroke="#212121" stroke-linecap="round" stroke-linejoin="round" stroke-width="1.5px"></path><path class="cls-1" d="M16.934 15.674a2.04 2.04 0 0 0 3.076.076" fill="none" stroke="#212121" stroke-linecap="round" stroke-linejoin="round" stroke-width="1.5px"></path><path class="cls-1" d="M11.01 12.749a2.078 2.078 0 0 1-3 0" fill="none" stroke="#212121" stroke-linecap="round" stroke-linejoin="round" stroke-width="1.5px"></path><path class="cls-1" d="M11.086 15.673a2.039 2.039 0 0 1-3.076.076" fill="none" stroke="#212121" stroke-linecap="round" stroke-linejoin="round" stroke-width="1.5px"></path><path class="cls-1" d="M12.51 6.75v-1.5" fill="none" stroke="#212121" stroke-linecap="round" stroke-linejoin="round" stroke-width="1.5px"></path><path class="cls-1" d="M15.51 6.75v-1.5" fill="none" stroke="#212121" stroke-linecap="round" stroke-linejoin="round" stroke-width="1.5px"></path><path class="cls-1" d="M14.01 10.5v2.25" fill="none" stroke="#212121" stroke-linecap="round" stroke-linejoin="round" stroke-width="1.5px"></path></g></svg>