<svg xmlns="http://www.w3.org/2000/svg" width="24" height="24" viewBox="0 0 24 24"><title>instrument harp</title><g fill="#212121" class="nc-icon-wrapper"><defs></defs><path class="a" d="M1.536.75h3v22.5h-3z" fill="none" stroke="#212121" stroke-linecap="round" stroke-linejoin="round" stroke-width="1.5px"></path><path class="a" d="M4.536 1.5a26.756 26.756 0 0 0 16.069.527 1.5 1.5 0 0 1 1.855 1.567c-.645 8.8-5.427 15.648-14.347 19.419a3.02 3.02 0 0 1-1.167.237h-2.41" fill="none" stroke="#212121" stroke-linecap="round" stroke-linejoin="round" stroke-width="1.5px"></path><path class="a" d="M4.536 5.25a16.681 16.681 0 0 0 11.671.832A1.5 1.5 0 0 1 18 8.034a19.956 19.956 0 0 1-9.772 11.1A3 3 0 0 1 6.8 19.5H4.536" fill="none" stroke="#212121" stroke-linecap="round" stroke-linejoin="round" stroke-width="1.5px"></path><path class="a" d="M7.536 6.31v13.098" fill="none" stroke="#212121" stroke-linecap="round" stroke-linejoin="round" stroke-width="1.5px"></path><path class="a" d="M10.536 6.734v10.99" fill="none" stroke="#212121" stroke-linecap="round" stroke-linejoin="round" stroke-width="1.5px"></path><path class="a" d="M13.536 6.605v8.607" fill="none" stroke="#212121" stroke-linecap="round" stroke-linejoin="round" stroke-width="1.5px"></path></g></svg>