<svg xmlns="http://www.w3.org/2000/svg" width="24" height="24" viewBox="0 0 24 24"><title>instrument saxophone</title><g fill="#212121" class="nc-icon-wrapper"><defs></defs><path class="a" d="M10.067 6.75h1.5" fill="none" stroke="#212121" stroke-linecap="round" stroke-linejoin="round" stroke-width="1.5px"></path><path class="a" d="M10.067 9.75h1.5" fill="none" stroke="#212121" stroke-linecap="round" stroke-linejoin="round" stroke-width="1.5px"></path><path class="a" d="M10.067 12.75h1.5" fill="none" stroke="#212121" stroke-linecap="round" stroke-linejoin="round" stroke-width="1.5px"></path><path class="a" d="M10.249 3.623A5.249 5.249 0 0 0 5.567.75h-4.5l1.993.332a3 3 0 0 1 2.507 2.959v11.387a7.717 7.717 0 0 0 6.764 7.787 7.5 7.5 0 0 0 8.236-7.465 3.64 3.64 0 0 1 2.012-3.256.641.641 0 0 0 .069-1.106l-6.915-4.611a.75.75 0 0 0-1.166.625v7.223a1.875 1.875 0 0 1-3.452 1.015" fill="none" stroke="#212121" stroke-linecap="round" stroke-linejoin="round" stroke-width="1.5px"></path></g></svg>