<svg xmlns="http://www.w3.org/2000/svg" width="24" height="24" viewBox="0 0 24 24"><title>instrument contrabass sheet</title><g fill="#212121" class="nc-icon-wrapper"><defs></defs><path class="a" d="M10.929 16.988a2.345 2.345 0 0 1-.614-4.043C10.576 10.81 8.412 8.87 6 9c-2.412-.13-4.577 1.81-4.315 3.945a2.345 2.345 0 0 1-.614 4.043.462.462 0 0 0-.321.446c.031 2.3 2.464 4.413 5.081 4.4h.338c2.617.01 5.05-2.1 5.081-4.4a.462.462 0 0 0-.321-.446z" fill="none" stroke="#212121" stroke-linecap="round" stroke-linejoin="round" stroke-width="1.5px"></path><path class="a" d="M6 13.5V.75" fill="none" stroke="#212121" stroke-linecap="round" stroke-linejoin="round" stroke-width="1.5px"></path><path class="a" d="M6 23.25V21" fill="none" stroke="#212121" stroke-linecap="round" stroke-linejoin="round" stroke-width="1.5px"></path><path class="a" d="M4.5 5.25h3" fill="none" stroke="#212121" stroke-linecap="round" stroke-linejoin="round" stroke-width="1.5px"></path><path class="a" d="M4.5 2.25h3" fill="none" stroke="#212121" stroke-linecap="round" stroke-linejoin="round" stroke-width="1.5px"></path><path class="a" d="M13.293 14.076a1.022 1.022 0 0 0 .957.937l7.408-.029a1.022 1.022 0 0 0 .951-.943l.629-4.5a1.258 1.258 0 0 0-.22-.911.917.917 0 0 0-.739-.4l-8.7.034a.919.919 0 0 0-.737.4 1.262 1.262 0 0 0-.212.913z" fill="none" stroke="#212121" stroke-linecap="round" stroke-linejoin="round" stroke-width="1.5px"></path><path class="a" d="M18 12.75v10.5" fill="none" stroke="#212121" stroke-linecap="round" stroke-linejoin="round" stroke-width="1.5px"></path><path class="a" d="M14.25 23.22L18 20.25l3.75 3" fill="none" stroke="#212121" stroke-linecap="round" stroke-linejoin="round" stroke-width="1.5px"></path></g></svg>