<svg xmlns="http://www.w3.org/2000/svg" width="24" height="24" viewBox="0 0 24 24"><title>instrument accordian</title><g fill="#212121" class="nc-icon-wrapper"><defs></defs><path class="a" d="M9.346 17.1a.978.978 0 0 1-.682 1.2l-2.829.782a1.957 1.957 0 0 1-2.407-1.365L.821 8.3a1.957 1.957 0 0 1 1.365-2.411l2.828-.782a.978.978 0 0 1 1.2.682z" fill="none" stroke="#212121" stroke-linecap="round" stroke-linejoin="round" stroke-width="1.5px"></path><path class="a" d="M4.171 9.4L7 8.618" fill="none" stroke="#212121" stroke-linecap="round" stroke-linejoin="round" stroke-width="1.5px"></path><path class="a" d="M5.214 13.171l2.828-.782" fill="none" stroke="#212121" stroke-linecap="round" stroke-linejoin="round" stroke-width="1.5px"></path><path class="a" d="M5.889 15.612l2.828-.782" fill="none" stroke="#212121" stroke-linecap="round" stroke-linejoin="round" stroke-width="1.5px"></path><path class="a" d="M14.478 16.975a.979.979 0 0 0 .659 1.217l2.813.835a1.956 1.956 0 0 0 2.433-1.318l2.785-9.377A1.956 1.956 0 0 0 21.85 5.9l-2.813-.835a.978.978 0 0 0-1.216.659z" fill="none" stroke="#212121" stroke-linecap="round" stroke-linejoin="round" stroke-width="1.5px"></path><path class="a" d="M19.946 9.448a.375.375 0 1 1-.467.252.375.375 0 0 1 .467-.252" fill="none" stroke="#212121" stroke-linecap="round" stroke-linejoin="round" stroke-width="1.5px"></path><path class="a" d="M18.339 14.306a.375.375 0 1 1-.466.253.376.376 0 0 1 .466-.253" fill="none" stroke="#212121" stroke-linecap="round" stroke-linejoin="round" stroke-width="1.5px"></path><path class="a" d="M12 13.155V4.84" fill="none" stroke="#212121" stroke-linecap="round" stroke-linejoin="round" stroke-width="1.5px"></path><path class="a" d="M10.043 12.177l-.978-6.848" fill="none" stroke="#212121" stroke-linecap="round" stroke-linejoin="round" stroke-width="1.5px"></path><path class="a" d="M13.956 12.177l.978-6.848" fill="none" stroke="#212121" stroke-linecap="round" stroke-linejoin="round" stroke-width="1.5px"></path></g></svg>