<svg xmlns="http://www.w3.org/2000/svg" width="24" height="24" viewBox="0 0 24 24"><title>insurance hand</title><g fill="#212121" class="nc-icon-wrapper"><defs></defs><path class="cls-1" d="M.75 14.251v9" fill="none" stroke="#212121" stroke-linecap="round" stroke-linejoin="round" stroke-width="1.5px"></path><path class="cls-1" d="M.75 21.751h15a3 3 0 0 0-3-3H9a3 3 0 0 0-3-3H.75" fill="none" stroke="#212121" stroke-linecap="round" stroke-linejoin="round" stroke-width="1.5px"></path><path class="cls-1" d="M6 18.751h3" fill="none" stroke="#212121" stroke-linecap="round" stroke-linejoin="round" stroke-width="1.5px"></path><path class="cls-1" d="M23.25 6a.75.75 0 0 0-.75-.75h-3.75V1.5A.75.75 0 0 0 18 .75h-3a.75.75 0 0 0-.75.75v3.75H10.5a.75.75 0 0 0-.75.75v3a.75.75 0 0 0 .75.75h3.75v3.75a.75.75 0 0 0 .75.75h3a.75.75 0 0 0 .75-.75V9.75h3.75a.75.75 0 0 0 .75-.75z" fill="none" stroke="#212121" stroke-linecap="round" stroke-linejoin="round" stroke-width="1.5px"></path></g></svg>