<svg xmlns="http://www.w3.org/2000/svg" width="24" height="24" viewBox="0 0 24 24"><title>ipod play</title><g fill="#212121" class="nc-icon-wrapper"><defs></defs><path class="a" d="M10.5 16.18a.43.43 0 0 1 .651-.369l3.034 1.82a.431.431 0 0 1 0 .738l-3.034 1.82a.43.43 0 0 1-.651-.369z" fill="none" stroke="#212121" stroke-linecap="round" stroke-linejoin="round" stroke-width="1.5px"></path><path class="a" d="M17.986 23.25H6.014A1.593 1.593 0 0 1 4.5 21.589V2.279A1.488 1.488 0 0 1 6.028.75H18a1.466 1.466 0 0 1 1.5 1.529v19.31a1.593 1.593 0 0 1-1.514 1.661z" fill="none" stroke="#212121" stroke-linecap="round" stroke-linejoin="round" stroke-width="1.5px"></path><path class="a" d="M4.5 12.75h15" fill="none" stroke="#212121" stroke-linecap="round" stroke-linejoin="round" stroke-width="1.5px"></path></g></svg>