<svg xmlns="http://www.w3.org/2000/svg" width="24" height="24" viewBox="0 0 24 24"><title>iris scan</title><g fill="#212121" class="nc-icon-wrapper"><defs></defs><path class="a" d="M12 5.251C7.969 5.184 3.8 8 1.179 10.885a1.663 1.663 0 0 0 0 2.226C3.742 15.935 7.9 18.817 12 18.749c4.1.068 8.257-2.814 10.824-5.638a1.663 1.663 0 0 0 0-2.226C20.2 8 16.031 5.184 12 5.251z" fill="none" stroke="#212121" stroke-linecap="round" stroke-linejoin="round" stroke-width="1.5px"></path><path class="a" d="M15.75 12A3.75 3.75 0 1 1 12 8.25 3.75 3.75 0 0 1 15.75 12z" fill="none" stroke="#212121" stroke-linecap="round" stroke-linejoin="round" stroke-width="1.5px"></path><path class="a" d="M.75 2.25l6 6" fill="none" stroke="#212121" stroke-linecap="round" stroke-linejoin="round" stroke-width="1.5px"></path><path class="a" d="M23.25 2.25l-6 6" fill="none" stroke="#212121" stroke-linecap="round" stroke-linejoin="round" stroke-width="1.5px"></path><path class="a" d="M.75 21.75l6-6" fill="none" stroke="#212121" stroke-linecap="round" stroke-linejoin="round" stroke-width="1.5px"></path><path class="a" d="M23.25 21.75l-6-6" fill="none" stroke="#212121" stroke-linecap="round" stroke-linejoin="round" stroke-width="1.5px"></path></g></svg>