<svg xmlns="http://www.w3.org/2000/svg" width="24" height="24" viewBox="0 0 24 24"><title>iris scan user</title><g fill="#212121" class="nc-icon-wrapper"><defs></defs><path class="a" d="M22.826 8.611a1.662 1.662 0 0 0 0-2.226C20.2 3.5 16.034.683 12 .751 7.972.683 3.8 3.5 1.182 6.385a1.662 1.662 0 0 0 0 2.226C3.745 11.435 7.9 14.317 12 14.248" fill="none" stroke="#212121" stroke-linecap="round" stroke-linejoin="round" stroke-width="1.5px"></path><path class="a" d="M12 11.25a3.75 3.75 0 1 1 3.75-3.75" fill="none" stroke="#212121" stroke-linecap="round" stroke-linejoin="round" stroke-width="1.5px"></path><circle class="a" cx="18.003" cy="13.125" r="2.625" fill="none" stroke="#212121" stroke-linecap="round" stroke-linejoin="round" stroke-width="1.5px"></circle><path class="a" d="M18 16.5a5.25 5.25 0 0 0-5.25 5.25v1.5h10.5v-1.5A5.251 5.251 0 0 0 18 16.5z" fill="none" stroke="#212121" stroke-linecap="round" stroke-linejoin="round" stroke-width="1.5px"></path></g></svg>