<svg xmlns="http://www.w3.org/2000/svg" width="24" height="24" viewBox="0 0 24 24"><title>jellyfish group</title><g fill="#212121" class="nc-icon-wrapper"><defs></defs><path class="cls-1" d="M12.177 20.528a4.816 4.816 0 0 1 1.816-3.553l-1.162-.593a3.377 3.377 0 0 1 .291-2.091c1-1.963 3.8-2.539 6.257-1.286s3.629 3.859 2.627 5.822a3.378 3.378 0 0 1-1.523 1.462l-1.16-.592a4.821 4.821 0 0 1-1.815 3.553" fill="none" stroke="#212121" stroke-linecap="round" stroke-linejoin="round" stroke-width="1.5px"></path><path class="cls-1" d="M16.657 18.336l-1.361 2.665" fill="none" stroke="#212121" stroke-linecap="round" stroke-linejoin="round" stroke-width="1.5px"></path><path class="cls-1" d="M2.427 8.936a4.814 4.814 0 0 1 1.816-3.553L3.081 4.79a3.38 3.38 0 0 1 .291-2.09c1-1.962 3.8-2.538 6.257-1.285s3.629 3.859 2.627 5.821A3.38 3.38 0 0 1 10.733 8.7l-1.16-.6a4.823 4.823 0 0 1-1.815 3.554" fill="none" stroke="#212121" stroke-linecap="round" stroke-linejoin="round" stroke-width="1.5px"></path><path class="cls-1" d="M6.907 6.743L5.546 9.408" fill="none" stroke="#212121" stroke-linecap="round" stroke-linejoin="round" stroke-width="1.5px"></path></g></svg>