<svg xmlns="http://www.w3.org/2000/svg" width="24" height="24" viewBox="0 0 24 24"><title>kitchenware strainer</title><g fill="#212121" class="nc-icon-wrapper"><defs></defs><circle class="cls-1" cx="15.391" cy="8.609" r="7.561" fill="none" stroke="#212121" stroke-linecap="round" stroke-linejoin="round" stroke-width="1.5px"></circle><path class="cls-1" d="M11.221 14.917l-7.592 7.592a1.511 1.511 0 0 1-2.138 0 1.511 1.511 0 0 1 0-2.138l7.592-7.592" fill="none" stroke="#212121" stroke-linecap="round" stroke-linejoin="round" stroke-width="1.5px"></path><path class="cls-1" d="M15.077 4.154a.375.375 0 1 1 0 .53.375.375 0 0 1 0-.53" fill="none" stroke="#212121" stroke-linecap="round" stroke-linejoin="round" stroke-width="1.5px"></path><path class="cls-1" d="M17.2 6.273a.375.375 0 1 1 0 .53.375.375 0 0 1 0-.53" fill="none" stroke="#212121" stroke-linecap="round" stroke-linejoin="round" stroke-width="1.5px"></path><path class="cls-1" d="M19.316 8.392a.375.375 0 1 1 0 .531.375.375 0 0 1 0-.531" fill="none" stroke="#212121" stroke-linecap="round" stroke-linejoin="round" stroke-width="1.5px"></path><path class="cls-1" d="M12.958 6.273a.375.375 0 1 1 0 .53.375.375 0 0 1 0-.53" fill="none" stroke="#212121" stroke-linecap="round" stroke-linejoin="round" stroke-width="1.5px"></path><path class="cls-1" d="M15.077 8.392a.375.375 0 1 1 0 .531.377.377 0 0 1 0-.531" fill="none" stroke="#212121" stroke-linecap="round" stroke-linejoin="round" stroke-width="1.5px"></path><path class="cls-1" d="M17.2 10.512a.375.375 0 1 1 0 .53.374.374 0 0 1 0-.53" fill="none" stroke="#212121" stroke-linecap="round" stroke-linejoin="round" stroke-width="1.5px"></path><path class="cls-1" d="M10.839 8.392a.375.375 0 1 1 0 .531.375.375 0 0 1 0-.531" fill="none" stroke="#212121" stroke-linecap="round" stroke-linejoin="round" stroke-width="1.5px"></path><path class="cls-1" d="M12.958 10.512a.375.375 0 1 1 0 .53.374.374 0 0 1 0-.53" fill="none" stroke="#212121" stroke-linecap="round" stroke-linejoin="round" stroke-width="1.5px"></path><path class="cls-1" d="M15.077 12.631a.375.375 0 1 1 0 .53.375.375 0 0 1 0-.53" fill="none" stroke="#212121" stroke-linecap="round" stroke-linejoin="round" stroke-width="1.5px"></path><path class="cls-1" d="M4.416 17.446l2.138 2.138" fill="none" stroke="#212121" stroke-linecap="round" stroke-linejoin="round" stroke-width="1.5px"></path></g></svg>