<svg xmlns="http://www.w3.org/2000/svg" width="24" height="24" viewBox="0 0 24 24"><title>kitchenware spatula 1</title><g fill="#212121" class="nc-icon-wrapper"><defs></defs><path class="cls-1" d="M10.9 15.225l-7.385 7.382a1.5 1.5 0 0 1-2.122 0 1.5 1.5 0 0 1 0-2.122L8.775 13.1" fill="none" stroke="#212121" stroke-linecap="round" stroke-linejoin="round" stroke-width="1.5px"></path><path class="cls-1" d="M22.607 7.757l-3.182-3.182-3.182-3.182a1.5 1.5 0 0 0-2.122 0l-3.244 3.244a8.8 8.8 0 0 0-2.144 8.424l1.1 1.1 1.1 1.1a8.8 8.8 0 0 0 8.424-2.144l3.244-3.244a1.5 1.5 0 0 0 .006-2.116z" fill="none" stroke="#212121" stroke-linecap="round" stroke-linejoin="round" stroke-width="1.5px"></path><path class="cls-1" d="M4.575 17.303l2.122 2.122" fill="none" stroke="#212121" stroke-linecap="round" stroke-linejoin="round" stroke-width="1.5px"></path><path class="cls-1" d="M15.182 4.575L11.47 8.288" fill="none" stroke="#212121" stroke-linecap="round" stroke-linejoin="round" stroke-width="1.5px"></path><path class="cls-1" d="M17.303 6.697l-3.712 3.712" fill="none" stroke="#212121" stroke-linecap="round" stroke-linejoin="round" stroke-width="1.5px"></path><path class="cls-1" d="M19.425 8.818l-3.713 3.712" fill="none" stroke="#212121" stroke-linecap="round" stroke-linejoin="round" stroke-width="1.5px"></path></g></svg>