<svg xmlns="http://www.w3.org/2000/svg" width="24" height="24" viewBox="0 0 24 24"><title>kitchenware hammer meat</title><g fill="#212121" class="nc-icon-wrapper"><defs></defs><path class="cls-1" d="M11.25.75h-3v3h-3v3" fill="none" stroke="#212121" stroke-linecap="round" stroke-linejoin="round" stroke-width="1.5px"></path><path class="cls-1" d="M23.25 12.75v3h-3v3h-3" fill="none" stroke="#212121" stroke-linecap="round" stroke-linejoin="round" stroke-width="1.5px"></path><path class="cls-1" d="M12.853 3.647a.75.75 0 0 1 1.154.114l1.328 1.992a10.512 10.512 0 0 0 2.912 2.912l1.992 1.328a.75.75 0 0 1 .114 1.154l-4.706 4.706a.75.75 0 0 1-1.154-.114l-1.328-1.992a10.512 10.512 0 0 0-2.912-2.912L8.261 9.507a.75.75 0 0 1-.114-1.154z" fill="none" stroke="#212121" stroke-linecap="round" stroke-linejoin="round" stroke-width="1.5px"></path><path class="cls-1" d="M.75 23.25l11.102-11.102" fill="none" stroke="#212121" stroke-linecap="round" stroke-linejoin="round" stroke-width="1.5px"></path></g></svg>