<svg xmlns="http://www.w3.org/2000/svg" width="24" height="24" viewBox="0 0 24 24"><title>knife board</title><g fill="#212121" class="nc-icon-wrapper"><defs></defs><path class="cls-1" d="M20.25 14.25h2.25a.75.75 0 0 0 .75-.75v-12a.75.75 0 0 0-.75-.75h-18a.75.75 0 0 0-.75.75v.75a1.5 1.5 0 0 1-.6 1.2L1.35 4.8A1.5 1.5 0 0 0 .75 6v3a1.5 1.5 0 0 0 .6 1.2l1.8 1.35a1.5 1.5 0 0 1 .6 1.2v.75a.75.75 0 0 0 .75.75h2.25" fill="none" stroke="#212121" stroke-linecap="round" stroke-linejoin="round" stroke-width="1.5px"></path><path class="cls-1" d="M3.75 6.75v1.5" fill="none" stroke="#212121" stroke-linecap="round" stroke-linejoin="round" stroke-width="1.5px"></path><path class="cls-1" d="M18.833 17.28l4.1 4.095a1.1 1.1 0 0 1 0 1.553 1.1 1.1 0 0 1-1.553 0l-4.092-4.1" fill="none" stroke="#212121" stroke-linecap="round" stroke-linejoin="round" stroke-width="1.5px"></path><path class="cls-1" d="M10.327 8.775l8.506 8.505-3.387 3.388a1.1 1.1 0 0 1-1.648-.107c-3.535-4.7-5.255-8.728-4.435-11.552a.579.579 0 0 1 .964-.234z" fill="none" stroke="#212121" stroke-linecap="round" stroke-linejoin="round" stroke-width="1.5px"></path></g></svg>