<svg xmlns="http://www.w3.org/2000/svg" width="24" height="24" viewBox="0 0 24 24"><title>koala</title><g fill="#212121" class="nc-icon-wrapper"><defs></defs><path class="cls-1" d="M6.7 8.2a7.5 7.5 0 0 1 10.607 0" fill="none" stroke="#212121" stroke-linecap="round" stroke-linejoin="round" stroke-width="1.5px"></path><path class="cls-1" d="M13.505 12.75a1.631 1.631 0 0 0-1.5-1.5 1.629 1.629 0 0 0-1.5 1.5c-.75 3.75-.75 5.25 1.5 5.25s2.25-1.5 1.5-5.25z" fill="none" stroke="#212121" stroke-linecap="round" stroke-linejoin="round" stroke-width="1.5px"></path><path class="cls-1" d="M7.88 11.25a.375.375 0 0 1 .375.375" fill="none" stroke="#212121" stroke-linecap="round" stroke-linejoin="round" stroke-width="1.5px"></path><path class="cls-1" d="M7.505 11.625a.375.375 0 0 1 .375-.375" fill="none" stroke="#212121" stroke-linecap="round" stroke-linejoin="round" stroke-width="1.5px"></path><path class="cls-1" d="M7.88 12a.375.375 0 0 1-.375-.375" fill="none" stroke="#212121" stroke-linecap="round" stroke-linejoin="round" stroke-width="1.5px"></path><path class="cls-1" d="M8.255 11.625A.375.375 0 0 1 7.88 12" fill="none" stroke="#212121" stroke-linecap="round" stroke-linejoin="round" stroke-width="1.5px"></path><path class="cls-1" d="M16.13 11.25a.375.375 0 0 1 .375.375" fill="none" stroke="#212121" stroke-linecap="round" stroke-linejoin="round" stroke-width="1.5px"></path><path class="cls-1" d="M15.755 11.625a.375.375 0 0 1 .375-.375" fill="none" stroke="#212121" stroke-linecap="round" stroke-linejoin="round" stroke-width="1.5px"></path><path class="cls-1" d="M16.13 12a.375.375 0 0 1-.375-.375" fill="none" stroke="#212121" stroke-linecap="round" stroke-linejoin="round" stroke-width="1.5px"></path><path class="cls-1" d="M16.505 11.625a.375.375 0 0 1-.375.375" fill="none" stroke="#212121" stroke-linecap="round" stroke-linejoin="round" stroke-width="1.5px"></path><path class="cls-1" d="M9 6.625a3.637 3.637 0 0 0-3-3.478A4.087 4.087 0 0 0 .75 6.9c0 2.372 1.5 2.25 1.5 2.25s-.907 3.629 2.268 3.9a7.5 7.5 0 1 0 14.963-.15c3.187-.266 2.278-3.9 2.278-3.9s1.5.122 1.5-2.25A4.087 4.087 0 0 0 18.009 3a3.641 3.641 0 0 0-3 3.624" fill="none" stroke="#212121" stroke-linecap="round" stroke-linejoin="round" stroke-width="1.5px"></path></g></svg>