<svg xmlns="http://www.w3.org/2000/svg" width="24" height="24" viewBox="0 0 24 24"><title>lab flame experiment</title><g fill="#212121" class="nc-icon-wrapper"><defs></defs><path class="a" d="M5.25 15l-3.915 4.154a2.5 2.5 0 0 0 1.985 4.1h7.61a2.5 2.5 0 0 0 1.985-4.1L9 15" fill="none" stroke="#212121" stroke-linecap="round" stroke-linejoin="round" stroke-width="1.5px"></path><path class="a" d="M5.25 8.478V12" fill="none" stroke="#212121" stroke-linecap="round" stroke-linejoin="round" stroke-width="1.5px"></path><path class="a" d="M9 12V8.478" fill="none" stroke="#212121" stroke-linecap="round" stroke-linejoin="round" stroke-width="1.5px"></path><path class="a" d="M.964 19.74a7.117 7.117 0 0 0 2.576.506c2.049 0 3.585-1.5 6.146-1.5a9.947 9.947 0 0 1 3.457.726" fill="none" stroke="#212121" stroke-linecap="round" stroke-linejoin="round" stroke-width="1.5px"></path><path class="a" d="M6.843.769a.242.242 0 0 0-.3.35A2.955 2.955 0 0 1 6.7 4.347a2.07 2.07 0 0 1-.788-.921.257.257 0 0 0-.339-.126A2.786 2.786 0 0 0 3.75 5.9 3.247 3.247 0 0 0 7.125 9 3.247 3.247 0 0 0 10.5 5.9 5.708 5.708 0 0 0 6.843.769z" fill="none" stroke="#212121" stroke-linecap="round" stroke-linejoin="round" stroke-width="1.5px"></path><path class="a" d="M18.75 12V1.222" fill="none" stroke="#212121" stroke-linecap="round" stroke-linejoin="round" stroke-width="1.5px"></path><path class="a" d="M18.75 23.25V15" fill="none" stroke="#212121" stroke-linecap="round" stroke-linejoin="round" stroke-width="1.5px"></path><path class="a" d="M23.25 15H4.5A1.5 1.5 0 0 1 3 13.5 1.5 1.5 0 0 1 4.5 12h18.75" fill="none" stroke="#212121" stroke-linecap="round" stroke-linejoin="round" stroke-width="1.5px"></path></g></svg>