<svg xmlns="http://www.w3.org/2000/svg" width="24" height="24" viewBox="0 0 24 24"><title>lab protection glasses</title><g fill="#212121" class="nc-icon-wrapper"><defs></defs><path class="a" d="M23.25 14.25v3.95a1.941 1.941 0 0 1-.811 1.593C14.37 25.462 13.927 17 12 17c-1.574 0-2.667 8.253-10.439 2.8a1.941 1.941 0 0 1-.811-1.6v-3.95" fill="none" stroke="#212121" stroke-linecap="round" stroke-linejoin="round" stroke-width="1.5px"></path><path class="a" d="M11.723 4.629l-3.195-2.1a1.957 1.957 0 0 0-2.5.4L4.839 4.321" fill="none" stroke="#212121" stroke-linecap="round" stroke-linejoin="round" stroke-width="1.5px"></path><path class="a" d="M14.789 6.414l7.99 4.086a.98.98 0 0 1 .471.837v2.913H.75v-2.913a.98.98 0 0 1 .471-.837l14.251-7.967a1.957 1.957 0 0 1 2.5.4l1.189 1.388" fill="none" stroke="#212121" stroke-linecap="round" stroke-linejoin="round" stroke-width="1.5px"></path><path class="a" d="M.754 11.25h22.492" fill="none" stroke="#212121" stroke-linecap="round" stroke-linejoin="round" stroke-width="1.5px"></path></g></svg>