<svg xmlns="http://www.w3.org/2000/svg" width="24" height="24" viewBox="0 0 24 24"><title>landmark volcano</title><g fill="#212121" class="nc-icon-wrapper"><defs></defs><path class="a" d="M.75 22.5a12.547 12.547 0 0 0 7.967-7.959 1.5 1.5 0 0 1 1.428-1.041H12" fill="none" stroke="#212121" stroke-linecap="round" stroke-linejoin="round" stroke-width="1.5px"></path><path class="a" d="M23.25 22.5a12.547 12.547 0 0 1-7.967-7.959 1.5 1.5 0 0 0-1.428-1.041H12" fill="none" stroke="#212121" stroke-linecap="round" stroke-linejoin="round" stroke-width="1.5px"></path><circle class="a" cx="5.25" cy="4.5" r="3" fill="none" stroke="#212121" stroke-linecap="round" stroke-linejoin="round" stroke-width="1.5px"></circle><path class="a" d="M7.784 16.69l1.55 1.033a.75.75 0 0 0 .832 0l1.418-.946a.75.75 0 0 1 .832 0l1.418.946a.75.75 0 0 0 .832 0l1.55-1.033" fill="none" stroke="#212121" stroke-linecap="round" stroke-linejoin="round" stroke-width="1.5px"></path></g></svg>