<svg xmlns="http://www.w3.org/2000/svg" width="24" height="24" viewBox="0 0 24 24"><title>landmark stonehenge</title><g fill="#212121" class="nc-icon-wrapper"><defs></defs><path class="a" d="M5.25 6.75a1.5 1.5 0 0 0-1.5 1.5v13.5h6V8.25a1.5 1.5 0 0 0-1.5-1.5z" fill="none" stroke="#212121" stroke-linecap="round" stroke-linejoin="round" stroke-width="1.5px"></path><path class="a" d="M20.156 20.161a1.5 1.5 0 0 1-1.5 1.589h-2.992a1.5 1.5 0 0 1-1.5-1.411l-1.407-9.756A1.5 1.5 0 0 1 14.257 9h2.995a1.5 1.5 0 0 1 1.5 1.417z" fill="none" stroke="#212121" stroke-linecap="round" stroke-linejoin="round" stroke-width="1.5px"></path><rect class="a" x=".75" y="2.25" width="21" height="4.5" rx="1" ry="1" fill="none" stroke="#212121" stroke-linecap="round" stroke-linejoin="round" stroke-width="1.5px"></rect><path class="a" d="M.75 21.75h22.5" fill="none" stroke="#212121" stroke-linecap="round" stroke-linejoin="round" stroke-width="1.5px"></path></g></svg>