<svg xmlns="http://www.w3.org/2000/svg" width="24" height="24" viewBox="0 0 24 24"><title>landmark taj mahal</title><g fill="#212121" class="nc-icon-wrapper"><defs></defs><path class="a" d="M.75 11.96h3v10.5h-2a1 1 0 0 1-1-1v-9.5z" fill="none" stroke="#212121" stroke-linecap="round" stroke-linejoin="round" stroke-width="1.5px"></path><path class="a" d="M3.75 10.46a1.5 1.5 0 0 1-3 0c0-.829 1.5-3 1.5-3s1.5 2.171 1.5 3z" fill="none" stroke="#212121" stroke-linecap="round" stroke-linejoin="round" stroke-width="1.5px"></path><path class="a" d="M20.25 11.96h3v9.5a1 1 0 0 1-1 1h-2v-10.5z" fill="none" stroke="#212121" stroke-linecap="round" stroke-linejoin="round" stroke-width="1.5px"></path><path class="a" d="M23.25 10.46a1.5 1.5 0 0 1-3 0c0-.829 1.5-3 1.5-3s1.5 2.171 1.5 3z" fill="none" stroke="#212121" stroke-linecap="round" stroke-linejoin="round" stroke-width="1.5px"></path><path class="a" d="M3.75 13.46h16.5v9H3.75z" fill="none" stroke="#212121" stroke-linecap="round" stroke-linejoin="round" stroke-width="1.5px"></path><path class="a" d="M14.25 22.46h-4.5v-3.75a2.25 2.25 0 0 1 4.5 0z" fill="none" stroke="#212121" stroke-linecap="round" stroke-linejoin="round" stroke-width="1.5px"></path><path class="a" d="M13.431 3.412a1.5 1.5 0 1 1-1.916-1.872" fill="none" stroke="#212121" stroke-linecap="round" stroke-linejoin="round" stroke-width="1.5px"></path><path class="a" d="M7.664 13.46a5.351 5.351 0 0 1-.914-3c0-2.9 5.25-6 5.25-6s5.25 3.1 5.25 6a5.162 5.162 0 0 1-.955 3" fill="none" stroke="#212121" stroke-linecap="round" stroke-linejoin="round" stroke-width="1.5px"></path></g></svg>