<svg xmlns="http://www.w3.org/2000/svg" width="24" height="24" viewBox="0 0 24 24"><title>landmark buckingham palace</title><g fill="#212121" class="nc-icon-wrapper"><defs></defs><path class="a" d="M9.75 15.75V7.811a.751.751 0 0 1 .22-.531L12 5.25l2.03 2.03a.751.751 0 0 1 .22.531v7.939" fill="none" stroke="#212121" stroke-linecap="round" stroke-linejoin="round" stroke-width="1.5px"></path><path class="a" d="M5.25 15.75h13.5" fill="none" stroke="#212121" stroke-linecap="round" stroke-linejoin="round" stroke-width="1.5px"></path><path class="a" d="M12 5.25V.75" fill="none" stroke="#212121" stroke-linecap="round" stroke-linejoin="round" stroke-width="1.5px"></path><path class="a" d="M8.25 18.75v1.5" fill="none" stroke="#212121" stroke-linecap="round" stroke-linejoin="round" stroke-width="1.5px"></path><path class="a" d="M12 18.75v1.5" fill="none" stroke="#212121" stroke-linecap="round" stroke-linejoin="round" stroke-width="1.5px"></path><path class="a" d="M15.75 18.75v1.5" fill="none" stroke="#212121" stroke-linecap="round" stroke-linejoin="round" stroke-width="1.5px"></path><path class="a" d="M18.75 23.25v-9.439a.751.751 0 0 1 .22-.531l1.5-1.5a.749.749 0 0 1 1.06 0l1.5 1.5a.751.751 0 0 1 .22.531v7.939a1.5 1.5 0 0 1-1.5 1.5H2.25a1.5 1.5 0 0 1-1.5-1.5v-7.939a.751.751 0 0 1 .22-.531l1.5-1.5a.749.749 0 0 1 1.06 0l1.5 1.5a.751.751 0 0 1 .22.531v9.439" fill="none" stroke="#212121" stroke-linecap="round" stroke-linejoin="round" stroke-width="1.5px"></path></g></svg>