<svg xmlns="http://www.w3.org/2000/svg" width="24" height="24" viewBox="0 0 24 24"><title>landmark tower</title><g fill="#212121" class="nc-icon-wrapper"><defs></defs><path class="a" d="M.75 22.75h22.5" fill="none" stroke="#212121" stroke-linecap="round" stroke-linejoin="round" stroke-width="1.5px"></path><path class="a" d="M12.75 22.75h-6l.741-19.266a.754.754 0 0 1 .149-.421L9.15 1.05a.75.75 0 0 1 1.2 0l1.51 2.013a.754.754 0 0 1 .149.421z" fill="none" stroke="#212121" stroke-linecap="round" stroke-linejoin="round" stroke-width="1.5px"></path><path class="a" d="M21 1.75a2.249 2.249 0 0 0-2.2 1.767 1.457 1.457 0 0 0-.8-.267 1.5 1.5 0 0 0 0 3h3a2.25 2.25 0 0 0 0-4.5z" fill="none" stroke="#212121" stroke-linecap="round" stroke-linejoin="round" stroke-width="1.5px"></path></g></svg>