<svg xmlns="http://www.w3.org/2000/svg" width="24" height="24" viewBox="0 0 24 24"><title>landmark netherlands windmill 1</title><g fill="#212121" class="nc-icon-wrapper"><defs></defs><path class="a" d="M12.848 5.94l2.325-4.006a1.875 1.875 0 0 1 3.243 1.882l-2.07 3.568" fill="none" stroke="#212121" stroke-linecap="round" stroke-linejoin="round" stroke-width="1.5px"></path><path class="a" d="M13.412 9.15l4.347 2.523a1.875 1.875 0 0 1-1.882 3.243l-3.568-2.07" fill="none" stroke="#212121" stroke-linecap="round" stroke-linejoin="round" stroke-width="1.5px"></path><path class="a" d="M10.6 9.823l-2.58 4.436a1.875 1.875 0 0 1-3.243-1.882l2.07-3.568" fill="none" stroke="#212121" stroke-linecap="round" stroke-linejoin="round" stroke-width="1.5px"></path><path class="a" d="M9.541 6.9L5.434 4.52a1.875 1.875 0 0 1 1.882-3.243l3.568 2.07" fill="none" stroke="#212121" stroke-linecap="round" stroke-linejoin="round" stroke-width="1.5px"></path><path class="a" d="M15.354 18.312l.841 2.526a1.5 1.5 0 0 1-1.423 1.974H8.435a1.5 1.5 0 0 1-1.423-1.974l.842-2.526" fill="none" stroke="#212121" stroke-linecap="round" stroke-linejoin="round" stroke-width="1.5px"></path><circle class="a" cx="11.604" cy="7.812" r="2.25" fill="none" stroke="#212121" stroke-linecap="round" stroke-linejoin="round" stroke-width="1.5px"></circle></g></svg>