<svg xmlns="http://www.w3.org/2000/svg" width="24" height="24" viewBox="0 0 24 24"><title>landmark gate</title><g fill="#212121" class="nc-icon-wrapper"><defs></defs><path class="a" d="M2.75 10.5v12a.75.75 0 0 0 .75.75h3a.75.75 0 0 0 .75-.75V21a4.5 4.5 0 0 1 9 0v1.5a.75.75 0 0 0 .75.75h3a.75.75 0 0 0 .75-.75v-12z" fill="none" stroke="#212121" stroke-linecap="round" stroke-linejoin="round" stroke-width="1.5px"></path><path class="a" d="M1.25 9v1.5h21V9" fill="none" stroke="#212121" stroke-linecap="round" stroke-linejoin="round" stroke-width="1.5px"></path><path class="a" d="M3.5 7.5V5.25H20V7.5" fill="none" stroke="#212121" stroke-linecap="round" stroke-linejoin="round" stroke-width="1.5px"></path><path class="a" d="M9.5 5.25V4.5a2.25 2.25 0 0 1 4.5 0v.75" fill="none" stroke="#212121" stroke-linecap="round" stroke-linejoin="round" stroke-width="1.5px"></path><path class="a" d="M18.5 3v2.25" fill="none" stroke="#212121" stroke-linecap="round" stroke-linejoin="round" stroke-width="1.5px"></path><path class="a" d="M5 3v2.25" fill="none" stroke="#212121" stroke-linecap="round" stroke-linejoin="round" stroke-width="1.5px"></path><path class="a" d="M13.577 14.251a10 10 0 0 0-1.383-1.188.75.75 0 0 0-.887 0 9.992 9.992 0 0 0-1.383 1.187" fill="none" stroke="#212121" stroke-linecap="round" stroke-linejoin="round" stroke-width="1.5px"></path><path class="a" d="M7.25 5.25V7.5" fill="none" stroke="#212121" stroke-linecap="round" stroke-linejoin="round" stroke-width="1.5px"></path><path class="a" d="M16.25 5.25V7.5" fill="none" stroke="#212121" stroke-linecap="round" stroke-linejoin="round" stroke-width="1.5px"></path><path class="a" d="M11.75 2.25V.75" fill="none" stroke="#212121" stroke-linecap="round" stroke-linejoin="round" stroke-width="1.5px"></path></g></svg>