<svg xmlns="http://www.w3.org/2000/svg" width="24" height="24" viewBox="0 0 24 24"><title>landmark london tower</title><g fill="#212121" class="nc-icon-wrapper"><defs></defs><circle class="a" cx="11.75" cy="16.439" r="3.75" fill="none" stroke="#212121" stroke-linecap="round" stroke-linejoin="round" stroke-width="1.5px"></circle><path class="a" d="M11.75 14.939v2.25" fill="none" stroke="#212121" stroke-linecap="round" stroke-linejoin="round" stroke-width="1.5px"></path><path class="a" d="M4.25 9.689h15v12.5a1 1 0 0 1-1 1h-13a1 1 0 0 1-1-1v-12.5z" fill="none" stroke="#212121" stroke-linecap="round" stroke-linejoin="round" stroke-width="1.5px"></path><path class="a" d="M12.28 1.22a.749.749 0 0 0-1.06 0L8.97 3.47a.747.747 0 0 0-.22.53v1.939l-4.5 3.75h15l-4.5-3.75V4a.747.747 0 0 0-.22-.53z" fill="none" stroke="#212121" stroke-linecap="round" stroke-linejoin="round" stroke-width="1.5px"></path><path class="a" d="M11.75 17.189h1.5" fill="none" stroke="#212121" stroke-linecap="round" stroke-linejoin="round" stroke-width="1.5px"></path></g></svg>