<svg xmlns="http://www.w3.org/2000/svg" width="24" height="24" viewBox="0 0 24 24"><title>lantern 1</title><g fill="#212121" class="nc-icon-wrapper"><defs></defs><path class="cls-1" d="M4.875 23.25s1.5-3 6.75-3 6.75 3 6.75 3z" fill="none" stroke="#212121" stroke-linecap="round" stroke-linejoin="round" stroke-width="1.5px"></path><path class="cls-1" d="M8.125 16.5h7a1 1 0 0 1 1 1v2.75h-9V17.5a1 1 0 0 1 1-1z" fill="none" stroke="#212121" stroke-linecap="round" stroke-linejoin="round" stroke-width="1.5px"></path><path class="cls-1" d="M16.125 18h3" fill="none" stroke="#212121" stroke-linecap="round" stroke-linejoin="round" stroke-width="1.5px"></path><path class="cls-1" d="M19.125 16.5v2.25" fill="none" stroke="#212121" stroke-linecap="round" stroke-linejoin="round" stroke-width="1.5px"></path><path class="cls-1" d="M13.875 11.25a2.25 2.25 0 0 1-4.5 0c0-1.243 1.5-3.75 2.25-3.75s2.25 2.507 2.25 3.75z" fill="none" stroke="#212121" stroke-linecap="round" stroke-linejoin="round" stroke-width="1.5px"></path><path class="cls-1" d="M7.875.75v6.867a5.187 5.187 0 0 0-1.5 3.633 5.25 5.25 0 0 0 10.5 0 5.187 5.187 0 0 0-1.5-3.633V.75z" fill="none" stroke="#212121" stroke-linecap="round" stroke-linejoin="round" stroke-width="1.5px"></path></g></svg>