<svg xmlns="http://www.w3.org/2000/svg" width="24" height="24" viewBox="0 0 24 24"><title>lantern</title><g fill="#212121" class="nc-icon-wrapper"><defs></defs><path class="cls-1" d="M11.629 12.75a2.991 2.991 0 0 1 .3 3.409 1.066 1.066 0 0 1-1.129-.909 2.412 2.412 0 0 0-1.25 2.273 2.728 2.728 0 0 0 2.728 2.727A2.765 2.765 0 0 0 15 17.523a4.534 4.534 0 0 0-3.371-4.773z" fill="none" stroke="#212121" stroke-linecap="round" stroke-linejoin="round" stroke-width="1.5px"></path><circle class="cls-1" cx="12" cy="3" r="2.25" fill="none" stroke="#212121" stroke-linecap="round" stroke-linejoin="round" stroke-width="1.5px"></circle><path class="cls-1" d="M16.829 20.25H7.171a1.5 1.5 0 0 0-1.455 1.136L5.25 23.25h13.5l-.466-1.864a1.5 1.5 0 0 0-1.455-1.136z" fill="none" stroke="#212121" stroke-linecap="round" stroke-linejoin="round" stroke-width="1.5px"></path><path class="cls-1" d="M3.75 9.75h16.5" fill="none" stroke="#212121" stroke-linecap="round" stroke-linejoin="round" stroke-width="1.5px"></path><path class="cls-1" d="M10.5 5.25h3l6 4.5h-15l6-4.5z" fill="none" stroke="#212121" stroke-linecap="round" stroke-linejoin="round" stroke-width="1.5px"></path><path class="cls-1" d="M17.238 20.307L19.5 9.75h-15l2.262 10.557" fill="none" stroke="#212121" stroke-linecap="round" stroke-linejoin="round" stroke-width="1.5px"></path></g></svg>