<svg xmlns="http://www.w3.org/2000/svg" width="24" height="24" viewBox="0 0 24 24"><title>laptop shopping cart</title><g fill="#212121" class="nc-icon-wrapper"><defs></defs><path class="a" d="M22.371 19.978a1.226 1.226 0 0 1-1.1 1.775H2.727a1.225 1.225 0 0 1-1.1-1.775L3 15.749h18z" fill="none" stroke="#212121" stroke-linecap="round" stroke-linejoin="round" stroke-width="1.5px"></path><path class="a" d="M19.5 3.753a1.5 1.5 0 0 1 1.5 1.5v10.5H3.006v-10.5a1.5 1.5 0 0 1 1.5-1.5" fill="none" stroke="#212121" stroke-linecap="round" stroke-linejoin="round" stroke-width="1.5px"></path><path class="a" d="M11.25 18.751h1.5" fill="none" stroke="#212121" stroke-linecap="round" stroke-linejoin="round" stroke-width="1.5px"></path><path class="a" d="M13.919 9.753H9v-4.5h7.5l-1.158 3.475a1.5 1.5 0 0 1-1.423 1.025z" fill="none" stroke="#212121" stroke-linecap="round" stroke-linejoin="round" stroke-width="1.5px"></path><path class="a" d="M9 5.253v-2.25l-1.5-.75" fill="none" stroke="#212121" stroke-linecap="round" stroke-linejoin="round" stroke-width="1.5px"></path><path class="a" d="M9.75 12a.375.375 0 1 1-.375.375A.375.375 0 0 1 9.75 12" fill="none" stroke="#212121" stroke-linecap="round" stroke-linejoin="round" stroke-width="1.5px"></path><path class="a" d="M14.25 12a.375.375 0 1 1-.375.375.375.375 0 0 1 .375-.375" fill="none" stroke="#212121" stroke-linecap="round" stroke-linejoin="round" stroke-width="1.5px"></path></g></svg>