<svg xmlns="http://www.w3.org/2000/svg" width="24" height="24" viewBox="0 0 24 24"><title>laptop shield</title><g fill="#212121" class="nc-icon-wrapper"><defs></defs><path class="a" d="M22.371 19.228A1.226 1.226 0 0 1 21.273 21H2.727a1.225 1.225 0 0 1-1.1-1.775L3 15h18z" fill="none" stroke="#212121" stroke-linecap="round" stroke-linejoin="round" stroke-width="1.5px"></path><path class="a" d="M19.5 3A1.5 1.5 0 0 1 21 4.5V15H3.006V4.5a1.5 1.5 0 0 1 1.5-1.5" fill="none" stroke="#212121" stroke-linecap="round" stroke-linejoin="round" stroke-width="1.5px"></path><path class="a" d="M11.25 18.001h1.5" fill="none" stroke="#212121" stroke-linecap="round" stroke-linejoin="round" stroke-width="1.5px"></path><path class="a" d="M16.5 6.378A5.75 5.75 0 0 1 12 12a5.751 5.751 0 0 1-4.5-5.622v-2.25A1.125 1.125 0 0 1 8.625 3h6.75A1.125 1.125 0 0 1 16.5 4.128z" fill="none" stroke="#212121" stroke-linecap="round" stroke-linejoin="round" stroke-width="1.5px"></path></g></svg>