<svg xmlns="http://www.w3.org/2000/svg" width="24" height="24" viewBox="0 0 24 24"><title>laptop idea</title><g fill="#212121" class="nc-icon-wrapper"><defs></defs><path class="a" d="M12 .75v1.5" fill="none" stroke="#212121" stroke-linecap="round" stroke-linejoin="round" stroke-width="1.5px"></path><path class="a" d="M4.5 8.25h1.607" fill="none" stroke="#212121" stroke-linecap="round" stroke-linejoin="round" stroke-width="1.5px"></path><path class="a" d="M19.5 8.25h-1.607" fill="none" stroke="#212121" stroke-linecap="round" stroke-linejoin="round" stroke-width="1.5px"></path><path class="a" d="M5.814 3.35l1.365 1.364" fill="none" stroke="#212121" stroke-linecap="round" stroke-linejoin="round" stroke-width="1.5px"></path><path class="a" d="M18.186 3.35l-1.365 1.364" fill="none" stroke="#212121" stroke-linecap="round" stroke-linejoin="round" stroke-width="1.5px"></path><path class="a" d="M6.214 11.25a.941.941 0 0 0-.964.917v6.416a.942.942 0 0 0 .964.917h11.572a.942.942 0 0 0 .964-.917v-6.416a.941.941 0 0 0-.964-.917" fill="none" stroke="#212121" stroke-linecap="round" stroke-linejoin="round" stroke-width="1.5px"></path><path class="a" d="M5.25 19.5l-1.868 1.616a1.214 1.214 0 0 0 0 1.768 1.335 1.335 0 0 0 .922.366H19.7a1.335 1.335 0 0 0 .922-.366 1.214 1.214 0 0 0 0-1.768L18.75 19.5z" fill="none" stroke="#212121" stroke-linecap="round" stroke-linejoin="round" stroke-width="1.5px"></path><path class="a" d="M15.75 8.25a3.75 3.75 0 1 0-5.25 3.433V13.5h3v-1.817a3.747 3.747 0 0 0 2.25-3.433z" fill="none" stroke="#212121" stroke-linecap="round" stroke-linejoin="round" stroke-width="1.5px"></path><path class="a" d="M10.5 15.75h3" fill="none" stroke="#212121" stroke-linecap="round" stroke-linejoin="round" stroke-width="1.5px"></path></g></svg>