<svg xmlns="http://www.w3.org/2000/svg" width="24" height="24" viewBox="0 0 24 24"><title>laptop launch</title><g fill="#212121" class="nc-icon-wrapper"><defs></defs><path class="a" d="M13.772 20.36A11.579 11.579 0 0 1 12 23.25a11.328 11.328 0 0 1-1.816-3" fill="none" stroke="#212121" stroke-linecap="round" stroke-linejoin="round" stroke-width="1.5px"></path><path class="a" d="M12 2.598V.75" fill="none" stroke="#212121" stroke-linecap="round" stroke-linejoin="round" stroke-width="1.5px"></path><path class="a" d="M15.352 4.984L12 2.6 8.648 4.984A2.7 2.7 0 0 0 7.6 7.847l2.3 8.72h4.2l2.3-8.72a2.7 2.7 0 0 0-1.048-2.863z" fill="none" stroke="#212121" stroke-linecap="round" stroke-linejoin="round" stroke-width="1.5px"></path><path class="a" d="M8.881 12.709l-1 .461a1.9 1.9 0 0 0-1.135 1.7v2.719a.473.473 0 0 0 .277.42.572.572 0 0 0 .539-.023L9.9 16.567" fill="none" stroke="#212121" stroke-linecap="round" stroke-linejoin="round" stroke-width="1.5px"></path><path class="a" d="M15.119 12.709l1 .461a1.9 1.9 0 0 1 1.135 1.7v2.719a.473.473 0 0 1-.277.42.572.572 0 0 1-.539-.023L14.1 16.567" fill="none" stroke="#212121" stroke-linecap="round" stroke-linejoin="round" stroke-width="1.5px"></path><circle class="a" cx="12" cy="7.5" r="1.5" fill="none" stroke="#212121" stroke-linecap="round" stroke-linejoin="round" stroke-width="1.5px"></circle><path class="a" d="M23 4.25h-1.75a.955.955 0 0 0-.894 1.006 1.012 1.012 0 0 0 .562.934l1.77.619a1.014 1.014 0 0 1 .562.934.955.955 0 0 1-.894 1.007H20.25" fill="none" stroke="#212121" stroke-linecap="round" stroke-linejoin="round" stroke-width="1.5px"></path><path class="a" d="M21.75 4.25v-1" fill="none" stroke="#212121" stroke-linecap="round" stroke-linejoin="round" stroke-width="1.5px"></path><path class="a" d="M21.75 9.75v-1" fill="none" stroke="#212121" stroke-linecap="round" stroke-linejoin="round" stroke-width="1.5px"></path><path class="a" d="M3.5 1.75H1.75a.955.955 0 0 0-.894 1.006 1.012 1.012 0 0 0 .562.934l1.77.619a1.014 1.014 0 0 1 .562.934.955.955 0 0 1-.894 1.007H.75" fill="none" stroke="#212121" stroke-linecap="round" stroke-linejoin="round" stroke-width="1.5px"></path><path class="a" d="M2.25 1.75v-1" fill="none" stroke="#212121" stroke-linecap="round" stroke-linejoin="round" stroke-width="1.5px"></path><path class="a" d="M2.25 7.25v-1" fill="none" stroke="#212121" stroke-linecap="round" stroke-linejoin="round" stroke-width="1.5px"></path></g></svg>