<svg xmlns="http://www.w3.org/2000/svg" width="24" height="24" viewBox="0 0 24 24"><title>layers grid settings</title><g fill="#212121" class="nc-icon-wrapper"><defs></defs><path class="a" d="M8.25 18.75h-4.5a3 3 0 0 1-3-3v-12a3 3 0 0 1 3-3h12a3 3 0 0 1 3 3v3" fill="none" stroke="#212121" stroke-linecap="round" stroke-linejoin="round" stroke-width="1.5px"></path><path class="a" d="M6.75.75v18" fill="none" stroke="#212121" stroke-linecap="round" stroke-linejoin="round" stroke-width="1.5px"></path><path class="a" d="M12.75.75v9" fill="none" stroke="#212121" stroke-linecap="round" stroke-linejoin="round" stroke-width="1.5px"></path><path class="a" d="M18.75 6.75h-18" fill="none" stroke="#212121" stroke-linecap="round" stroke-linejoin="round" stroke-width="1.5px"></path><path class="a" d="M8.25 12.75H.75" fill="none" stroke="#212121" stroke-linecap="round" stroke-linejoin="round" stroke-width="1.5px"></path><circle class="a" cx="17.25" cy="16.5" r="1.5" fill="none" stroke="#212121" stroke-linecap="round" stroke-linejoin="round" stroke-width="1.5px"></circle><path class="a" d="M18.525 10.7l.442 1.453a.993.993 0 0 0 1.173.681l1.473-.341a1.338 1.338 0 0 1 1.274 2.218l-1.03 1.111a1 1 0 0 0 0 1.362l1.03 1.111a1.338 1.338 0 0 1-1.274 2.218l-1.473-.341a.993.993 0 0 0-1.173.681l-.442 1.447a1.331 1.331 0 0 1-2.549 0l-.442-1.453a.993.993 0 0 0-1.173-.681l-1.473.341a1.338 1.338 0 0 1-1.274-2.218l1.03-1.111a1 1 0 0 0 0-1.362l-1.03-1.111a1.338 1.338 0 0 1 1.274-2.218l1.473.341a.993.993 0 0 0 1.173-.681l.442-1.453a1.331 1.331 0 0 1 2.549.006z" fill="none" stroke="#212121" stroke-linecap="round" stroke-linejoin="round" stroke-width="1.5px"></path></g></svg>