<svg xmlns="http://www.w3.org/2000/svg" width="24" height="24" viewBox="0 0 24 24"><title>legal hammer</title><g fill="#212121" class="nc-icon-wrapper"><defs></defs><path class="a" d="M13.27 8.612l9.33 8.794a1.309 1.309 0 0 1 0 1.852l-.926.925a1.307 1.307 0 0 1-1.851 0l-8.794-9.325" fill="none" stroke="#212121" stroke-linecap="round" stroke-linejoin="round" stroke-width="1.5px"></path><path class="a" d="M3.58 8.575a19.034 19.034 0 0 0 7.407-7.407 1.307 1.307 0 0 1 1.851 0l3.51 3.51a1.307 1.307 0 0 1 0 1.851 18.119 18.119 0 0 0-7.407 7.407 1.309 1.309 0 0 1-1.852 0L3.58 10.427a1.309 1.309 0 0 1 0-1.852z" fill="none" stroke="#212121" stroke-linecap="round" stroke-linejoin="round" stroke-width="1.5px"></path><path class="a" d="M12.75 21.75a1.5 1.5 0 0 0-1.5-1.5h-7.5a1.5 1.5 0 0 0-1.5 1.5v1.5h10.5z" fill="none" stroke="#212121" stroke-linecap="round" stroke-linejoin="round" stroke-width="1.5px"></path><path class="a" d="M.75 23.25h13.5" fill="none" stroke="#212121" stroke-linecap="round" stroke-linejoin="round" stroke-width="1.5px"></path></g></svg>