<svg xmlns="http://www.w3.org/2000/svg" width="24" height="24" viewBox="0 0 24 24"><title>library music</title><g fill="#212121" class="nc-icon-wrapper"><defs></defs><path class="a" d="M16.156.751a5.251 5.251 0 1 0 7.094 4.918" fill="none" stroke="#212121" stroke-linecap="round" stroke-linejoin="round" stroke-width="1.5px"></path><circle class="a" cx="18" cy="6.419" r="1.5" fill="none" stroke="#212121" stroke-linecap="round" stroke-linejoin="round" stroke-width="1.5px"></circle><path class="a" d="M19.5 6.419v-5.25l2.25 1.5" fill="none" stroke="#212121" stroke-linecap="round" stroke-linejoin="round" stroke-width="1.5px"></path><path class="a" d="M15.75 13.5v8.25a1.5 1.5 0 0 1-1.5 1.5h-12a1.5 1.5 0 0 1-1.5-1.5V5.251a1.5 1.5 0 0 1 1.5-1.5h7.5" fill="none" stroke="#212121" stroke-linecap="round" stroke-linejoin="round" stroke-width="1.5px"></path><path class="a" d="M.75 13.501h15" fill="none" stroke="#212121" stroke-linecap="round" stroke-linejoin="round" stroke-width="1.5px"></path><path class="a" d="M.75 7.501h3v6h-3z" fill="none" stroke="#212121" stroke-linecap="round" stroke-linejoin="round" stroke-width="1.5px"></path><path class="a" d="M3.75 7.5h2.493a.5.5 0 0 1 .5.5v5.5H3.75v-6z" fill="none" stroke="#212121" stroke-linecap="round" stroke-linejoin="round" stroke-width="1.5px"></path><path class="a" d="M.75 17.251h2.5a.5.5 0 0 1 .5.5v5.5" fill="none" stroke="#212121" stroke-linecap="round" stroke-linejoin="round" stroke-width="1.5px"></path><path class="a" d="M7.25 17.251h2a.5.5 0 0 1 .5.5v5.5h-3v-5.5a.5.5 0 0 1 .5-.5z" fill="none" stroke="#212121" stroke-linecap="round" stroke-linejoin="round" stroke-width="1.5px"></path><path class="a" d="M3.75 18.001h3v5.25h-3z" fill="none" stroke="#212121" stroke-linecap="round" stroke-linejoin="round" stroke-width="1.5px"></path><rect class="a" x="8.703" y="7.891" width="2.759" height="5.519" rx=".5" ry=".5" transform="rotate(-13.535 10.084 10.652)" fill="none" stroke="#212121" stroke-linecap="round" stroke-linejoin="round" stroke-width="1.5px"></rect></g></svg>