<svg xmlns="http://www.w3.org/2000/svg" width="24" height="24" viewBox="0 0 24 24"><title>library sports</title><g fill="#212121" class="nc-icon-wrapper"><defs></defs><path class="a" d="M17.947 4.479l.267-1.76a2.132 2.132 0 0 1 3.077 0 2.132 2.132 0 0 1 0 3.078l-1.576.45" fill="none" stroke="#212121" stroke-linecap="round" stroke-linejoin="round" stroke-width="1.5px"></path><path class="a" d="M21.291 5.8s1.539-.769 1.924 1.154c.261 1.306-.326 1.2-5.5 2.659" fill="none" stroke="#212121" stroke-linecap="round" stroke-linejoin="round" stroke-width="1.5px"></path><path class="a" d="M18.214 2.719S18.983 1.181 17.06.8c-1.42-.284-1.335.7-2.531 5.632" fill="none" stroke="#212121" stroke-linecap="round" stroke-linejoin="round" stroke-width="1.5px"></path><path class="a" d="M17.711 9.61l-.53.531a2.257 2.257 0 0 1-3.182 0 2.257 2.257 0 0 1 0-3.182l.53-.531z" fill="none" stroke="#212121" stroke-linecap="round" stroke-linejoin="round" stroke-width="1.5px"></path><path class="a" d="M15.75 13.511v8.25a1.5 1.5 0 0 1-1.5 1.5h-12a1.5 1.5 0 0 1-1.5-1.5v-16.5a1.5 1.5 0 0 1 1.5-1.5h7.5" fill="none" stroke="#212121" stroke-linecap="round" stroke-linejoin="round" stroke-width="1.5px"></path><path class="a" d="M.75 13.511h15" fill="none" stroke="#212121" stroke-linecap="round" stroke-linejoin="round" stroke-width="1.5px"></path><path class="a" d="M.75 7.511h3v6h-3z" fill="none" stroke="#212121" stroke-linecap="round" stroke-linejoin="round" stroke-width="1.5px"></path><path class="a" d="M3.75 7.511h2.493a.5.5 0 0 1 .5.5v5.5H3.75v-6z" fill="none" stroke="#212121" stroke-linecap="round" stroke-linejoin="round" stroke-width="1.5px"></path><path class="a" d="M.75 17.261h2.5a.5.5 0 0 1 .5.5v5.5" fill="none" stroke="#212121" stroke-linecap="round" stroke-linejoin="round" stroke-width="1.5px"></path><path class="a" d="M7.25 17.261h2a.5.5 0 0 1 .5.5v5.5h-3v-5.5a.5.5 0 0 1 .5-.5z" fill="none" stroke="#212121" stroke-linecap="round" stroke-linejoin="round" stroke-width="1.5px"></path><path class="a" d="M3.75 18.011h3v5.25h-3z" fill="none" stroke="#212121" stroke-linecap="round" stroke-linejoin="round" stroke-width="1.5px"></path><rect class="a" x="8.703" y="7.9" width="2.759" height="5.519" rx=".5" ry=".5" transform="rotate(-13.535 10.083 10.66)" fill="none" stroke="#212121" stroke-linecap="round" stroke-linejoin="round" stroke-width="1.5px"></rect></g></svg>