<svg xmlns="http://www.w3.org/2000/svg" width="24" height="24" viewBox="0 0 24 24"><title>light mode brightness</title><g fill="#212121" class="nc-icon-wrapper"><defs></defs><path class="a" d="M20.25 15.372l2.357-2.357a1.5 1.5 0 0 0 0-2.121L20.25 8.537V5.2a1.5 1.5 0 0 0-1.5-1.5h-3.333l-2.356-2.353a1.5 1.5 0 0 0-2.122 0L8.583 3.7H5.25a1.5 1.5 0 0 0-1.5 1.5v3.337l-2.357 2.357a1.5 1.5 0 0 0 0 2.121l2.357 2.357V18.7a1.5 1.5 0 0 0 1.5 1.5h3.333l2.356 2.357a1.5 1.5 0 0 0 2.122 0l2.356-2.357h3.333a1.5 1.5 0 0 0 1.5-1.5z" fill="none" stroke="#212121" stroke-linecap="round" stroke-linejoin="round" stroke-width="1.5px"></path><circle class="a" cx="12" cy="11.954" r="5.25" fill="none" stroke="#212121" stroke-linecap="round" stroke-linejoin="round" stroke-width="1.5px"></circle></g></svg>