<svg xmlns="http://www.w3.org/2000/svg" width="24" height="24" viewBox="0 0 24 24"><title>light mode bw</title><g fill="#212121" class="nc-icon-wrapper"><defs></defs><rect class="a" x=".75" y=".75" width="22.5" height="22.5" rx="1" ry="1" fill="none" stroke="#212121" stroke-linecap="round" stroke-linejoin="round" stroke-width="1.5px"></rect><path class="a" d="M6 15.75v-7.5" fill="none" stroke="#212121" stroke-linecap="round" stroke-linejoin="round" stroke-width="1.5px"></path><path class="a" d="M6 8.25h1.5A1.5 1.5 0 0 1 9 9.75v.75A1.5 1.5 0 0 1 7.5 12H6" fill="none" stroke="#212121" stroke-linecap="round" stroke-linejoin="round" stroke-width="1.5px"></path><path class="a" d="M6 12h1.5A1.5 1.5 0 0 1 9 13.5v.75a1.5 1.5 0 0 1-1.5 1.5H6" fill="none" stroke="#212121" stroke-linecap="round" stroke-linejoin="round" stroke-width="1.5px"></path><path class="a" d="M12 8.25v2.017a8.982 8.982 0 0 0 .644 3.342l.856 2.141L15 10.5l1.5 5.25.856-2.141A8.982 8.982 0 0 0 18 10.267V8.25" fill="none" stroke="#212121" stroke-linecap="round" stroke-linejoin="round" stroke-width="1.5px"></path></g></svg>