<svg xmlns="http://www.w3.org/2000/svg" width="24" height="24" viewBox="0 0 24 24"><title>light mode night woman</title><g fill="#212121" class="nc-icon-wrapper"><defs></defs><path class="a" d="M12.749 23.25a6.008 6.008 0 0 0-5.99-5.99 6.008 6.008 0 0 0-5.99 5.99" fill="none" stroke="#212121" stroke-linecap="round" stroke-linejoin="round" stroke-width="1.5px"></path><path class="a" d="M2.844 11.822v.92a5.464 5.464 0 0 1-.793 3.021" fill="none" stroke="#212121" stroke-linecap="round" stroke-linejoin="round" stroke-width="1.5px"></path><path class="a" d="M10.458 11.822v.92a5.456 5.456 0 0 0 .793 3.021" fill="none" stroke="#212121" stroke-linecap="round" stroke-linejoin="round" stroke-width="1.5px"></path><path class="a" d="M2.855 12.024a5.068 5.068 0 0 0 3.8-1.754 5.066 5.066 0 0 0 3.8 1.754" fill="none" stroke="#212121" stroke-linecap="round" stroke-linejoin="round" stroke-width="1.5px"></path><circle class="a" cx="6.651" cy="11.719" r="3.808" fill="none" stroke="#212121" stroke-linecap="round" stroke-linejoin="round" stroke-width="1.5px"></circle><path class="a" d="M18.129 1.961a4.827 4.827 0 0 1 .882 2.444 4.938 4.938 0 0 1-2.5 4.61 4.656 4.656 0 0 1-1.628.559.748.748 0 0 0-.269 1.376A5.6 5.6 0 1 0 18.912.773a.753.753 0 0 0-.783 1.188z" fill="none" stroke="#212121" stroke-linecap="round" stroke-linejoin="round" stroke-width="1.5px"></path></g></svg>