<svg xmlns="http://www.w3.org/2000/svg" width="24" height="24" viewBox="0 0 24 24"><title>like dislike</title><g fill="#212121" class="nc-icon-wrapper"><defs></defs><circle class="a" cx="12" cy="12" r="11.25" fill="none" stroke="#212121" stroke-linecap="round" stroke-linejoin="round" stroke-width="1.5px"></circle><path class="a" d="M7.5 7.6a3.576 3.576 0 0 0 .909-.13l2.12-.588a3.581 3.581 0 0 1 .961-.131h2.849a3.464 3.464 0 0 1 3.483 3.062L18 12.7a2.561 2.561 0 0 1-1.985 2.6l-.849.181a.854.854 0 0 0-.663.824v1.917a1.313 1.313 0 0 1-2.625 0v-.88A4.314 4.314 0 0 0 7.5 13.1z" fill="none" stroke="#212121" stroke-linecap="round" stroke-linejoin="round" stroke-width="1.5px"></path><path class="a" d="M5.8 14.247h1.7v-7.5H5.8" fill="none" stroke="#212121" stroke-linecap="round" stroke-linejoin="round" stroke-width="1.5px"></path></g></svg>