<svg xmlns="http://www.w3.org/2000/svg" width="24" height="24" viewBox="0 0 24 24"><title>livestock sheep body</title><g fill="#212121" class="nc-icon-wrapper"><defs></defs><ellipse class="cls-1" cx="17.76" cy="5" rx="3" ry="3.75" fill="none" stroke="#212121" stroke-linecap="round" stroke-linejoin="round" stroke-width="1.5px"></ellipse><path class="cls-1" d="M15.01 3.5a3.448 3.448 0 0 1-2.5 1.5" fill="none" stroke="#212121" stroke-linecap="round" stroke-linejoin="round" stroke-width="1.5px"></path><path class="cls-1" d="M20.51 3.5a3.448 3.448 0 0 0 2.5 1.5" fill="none" stroke="#212121" stroke-linecap="round" stroke-linejoin="round" stroke-width="1.5px"></path><path class="cls-1" d="M18.921 8.459c.844.611 1.839 2.142 1.839 5.166a6.2 6.2 0 0 1-6 6.375 5.735 5.735 0 0 1-3.75-1.435A5.735 5.735 0 0 1 7.26 20a6.2 6.2 0 0 1-6-6.375 6.2 6.2 0 0 1 6-6.375 5.735 5.735 0 0 1 3.75 1.435" fill="none" stroke="#212121" stroke-linecap="round" stroke-linejoin="round" stroke-width="1.5px"></path><path class="cls-1" d="M17.01 19.537V23" fill="none" stroke="#212121" stroke-linecap="round" stroke-linejoin="round" stroke-width="1.5px"></path><path class="cls-1" d="M13.26 19.791V23" fill="none" stroke="#212121" stroke-linecap="round" stroke-linejoin="round" stroke-width="1.5px"></path><path class="cls-1" d="M4.26 19.147V23" fill="none" stroke="#212121" stroke-linecap="round" stroke-linejoin="round" stroke-width="1.5px"></path></g></svg>