<svg xmlns="http://www.w3.org/2000/svg" width="24" height="24" viewBox="0 0 24 24"><title>livestock cow body</title><g fill="#212121" class="nc-icon-wrapper"><defs></defs><path class="cls-1" d="M17.84 13.186h.72a1.819 1.819 0 0 0 1.776-1.424l1.011-4.548A1.82 1.82 0 0 0 19.571 5H16.83a1.82 1.82 0 0 0-1.776 2.214l1.011 4.548a1.819 1.819 0 0 0 1.775 1.424z" fill="none" stroke="#212121" stroke-linecap="round" stroke-linejoin="round" stroke-width="1.5px"></path><path class="cls-1" d="M15.038 6.5H4.51C2.26 6.5.76 8.75.76 11v10.5" fill="none" stroke="#212121" stroke-linecap="round" stroke-linejoin="round" stroke-width="1.5px"></path><path class="cls-1" d="M20.5 5.255L21.01 5a1.642 1.642 0 0 0 .75-2.25" fill="none" stroke="#212121" stroke-linecap="round" stroke-linejoin="round" stroke-width="1.5px"></path><path class="cls-1" d="M16.081 5.16L15.76 5a1.642 1.642 0 0 1-.75-2.25" fill="none" stroke="#212121" stroke-linecap="round" stroke-linejoin="round" stroke-width="1.5px"></path><path class="cls-1" d="M16.51 16.25v5.25" fill="none" stroke="#212121" stroke-linecap="round" stroke-linejoin="round" stroke-width="1.5px"></path><path class="cls-1" d="M13.51 21.5V17a1.5 1.5 0 0 0-1.5-1.5H5.26c-1.5 0-1.5 1.5-1.5 2.25v3.75" fill="none" stroke="#212121" stroke-linecap="round" stroke-linejoin="round" stroke-width="1.5px"></path><path class="cls-1" d="M9.76 15.5s-.75 3-3 3h-3" fill="none" stroke="#212121" stroke-linecap="round" stroke-linejoin="round" stroke-width="1.5px"></path><path class="cls-1" d="M6.76 18.5V20" fill="none" stroke="#212121" stroke-linecap="round" stroke-linejoin="round" stroke-width="1.5px"></path><path class="cls-1" d="M8.83 17.391l.93 1.859" fill="none" stroke="#212121" stroke-linecap="round" stroke-linejoin="round" stroke-width="1.5px"></path><path class="cls-1" d="M15.054 7.214L13.51 8.75" fill="none" stroke="#212121" stroke-linecap="round" stroke-linejoin="round" stroke-width="1.5px"></path><path class="cls-1" d="M21.391 6.881L23.26 8.75" fill="none" stroke="#212121" stroke-linecap="round" stroke-linejoin="round" stroke-width="1.5px"></path></g></svg>