<svg xmlns="http://www.w3.org/2000/svg" width="24" height="24" viewBox="0 0 24 24"><title>livestock cow</title><g fill="#212121" class="nc-icon-wrapper"><defs></defs><path class="cls-1" d="M7.532 2.776a6.177 6.177 0 0 0-2.576 3.068 5.46 5.46 0 0 0-2.576.906C.13 8.25.88 12 .88 12a8.231 8.231 0 0 0 2.157.085" fill="none" stroke="#212121" stroke-linecap="round" stroke-linejoin="round" stroke-width="1.5px"></path><path class="cls-1" d="M9.76 18.75l.75.75" fill="none" stroke="#212121" stroke-linecap="round" stroke-linejoin="round" stroke-width="1.5px"></path><path class="cls-1" d="M14.26 18.75l-.75.75" fill="none" stroke="#212121" stroke-linecap="round" stroke-linejoin="round" stroke-width="1.5px"></path><path class="cls-1" d="M16.51 3c0-1.243-2.015-2.25-4.5-2.25S7.51 1.757 7.51 3c0 1.5 2.7.75 2.7.75a1.581 1.581 0 0 0 1.8 1.5 1.581 1.581 0 0 0 1.8-1.5s2.7.75 2.7-.75z" fill="none" stroke="#212121" stroke-linecap="round" stroke-linejoin="round" stroke-width="1.5px"></path><path class="cls-1" d="M6.5 3.562L5.38 3A5.6 5.6 0 0 1 3.13.75S1.63 3 2.38 4.5a5.119 5.119 0 0 0 1.308 1.607" fill="none" stroke="#212121" stroke-linecap="round" stroke-linejoin="round" stroke-width="1.5px"></path><path class="cls-1" d="M18.385 11.469c0 12.535-5.366 11.781-5.721 11.781h-1.308c-.356 0-5.721.75-5.721-11.781" fill="none" stroke="#212121" stroke-linecap="round" stroke-linejoin="round" stroke-width="1.5px"></path><path class="cls-1" d="M16.488 2.776a6.177 6.177 0 0 1 2.576 3.068 5.46 5.46 0 0 1 2.576.906c2.25 1.5 1.5 5.25 1.5 5.25a8.231 8.231 0 0 1-2.157.085" fill="none" stroke="#212121" stroke-linecap="round" stroke-linejoin="round" stroke-width="1.5px"></path><path class="cls-1" d="M17.8 17.6l-.526-.351a10.023 10.023 0 0 0-10.534 0l-.526.351" fill="none" stroke="#212121" stroke-linecap="round" stroke-linejoin="round" stroke-width="1.5px"></path><path class="cls-1" d="M17.516 3.562L18.64 3A5.6 5.6 0 0 0 20.89.75s1.5 2.25.75 3.75a5.119 5.119 0 0 1-1.308 1.607" fill="none" stroke="#212121" stroke-linecap="round" stroke-linejoin="round" stroke-width="1.5px"></path><path class="cls-1" d="M8.635 8.25a.375.375 0 0 1 .375.375" fill="none" stroke="#212121" stroke-linecap="round" stroke-linejoin="round" stroke-width="1.5px"></path><path class="cls-1" d="M8.26 8.625a.375.375 0 0 1 .375-.375" fill="none" stroke="#212121" stroke-linecap="round" stroke-linejoin="round" stroke-width="1.5px"></path><path class="cls-1" d="M8.635 9a.375.375 0 0 1-.375-.375" fill="none" stroke="#212121" stroke-linecap="round" stroke-linejoin="round" stroke-width="1.5px"></path><path class="cls-1" d="M9.01 8.625A.375.375 0 0 1 8.635 9" fill="none" stroke="#212121" stroke-linecap="round" stroke-linejoin="round" stroke-width="1.5px"></path><path class="cls-1" d="M15.385 8.25a.375.375 0 0 1 .375.375" fill="none" stroke="#212121" stroke-linecap="round" stroke-linejoin="round" stroke-width="1.5px"></path><path class="cls-1" d="M15.01 8.625a.375.375 0 0 1 .375-.375" fill="none" stroke="#212121" stroke-linecap="round" stroke-linejoin="round" stroke-width="1.5px"></path><path class="cls-1" d="M15.385 9a.375.375 0 0 1-.375-.375" fill="none" stroke="#212121" stroke-linecap="round" stroke-linejoin="round" stroke-width="1.5px"></path><path class="cls-1" d="M15.76 8.625a.375.375 0 0 1-.375.375" fill="none" stroke="#212121" stroke-linecap="round" stroke-linejoin="round" stroke-width="1.5px"></path></g></svg>