<svg xmlns="http://www.w3.org/2000/svg" width="24" height="24" viewBox="0 0 24 24"><title>livestock ram 1</title><g fill="#212121" class="nc-icon-wrapper"><defs></defs><path class="cls-1" d="M9.052 8.506a3 3 0 0 1 3-3 3.755 3.755 0 0 1 3.758 3.751 4.693 4.693 0 0 1-4.693 4.693A5.867 5.867 0 0 1 5.25 8.083 7.333 7.333 0 0 1 12.583.75a9.167 9.167 0 0 1 9.167 9.167V21c0 2.25-3.277 2.816-5.25 1.5a13.427 13.427 0 0 1-3.75-4.5" fill="none" stroke="#212121" stroke-linecap="round" stroke-linejoin="round" stroke-width="1.5px"></path><path class="cls-2" d="M7.54 12.734l-.04.016s-3.75 1.5-4.5 10.5" fill="none" stroke="#212121" stroke-linecap="round" stroke-linejoin="round" stroke-width="1.5px" fill-rule="evenodd"></path><path class="cls-2" d="M21.75 9.917s-3.059 2.889-6.088.515" fill="none" stroke="#212121" stroke-linecap="round" stroke-linejoin="round" stroke-width="1.5px" fill-rule="evenodd"></path><path class="cls-2" d="M18.375 15.75a.375.375 0 0 1 .375.375" fill="none" stroke="#212121" stroke-linecap="round" stroke-linejoin="round" stroke-width="1.5px" fill-rule="evenodd"></path><path class="cls-2" d="M18 16.125a.375.375 0 0 1 .375-.375" fill="none" stroke="#212121" stroke-linecap="round" stroke-linejoin="round" stroke-width="1.5px" fill-rule="evenodd"></path><path class="cls-2" d="M18.375 16.5a.375.375 0 0 1-.375-.375" fill="none" stroke="#212121" stroke-linecap="round" stroke-linejoin="round" stroke-width="1.5px" fill-rule="evenodd"></path><path class="cls-2" d="M18.75 16.125a.375.375 0 0 1-.375.375" fill="none" stroke="#212121" stroke-linecap="round" stroke-linejoin="round" stroke-width="1.5px" fill-rule="evenodd"></path></g></svg>