<svg xmlns="http://www.w3.org/2000/svg" width="24" height="24" viewBox="0 0 24 24"><title>loading 3</title><g fill="#212121" class="nc-icon-wrapper"><defs></defs><path class="a" d="M22.394 16.31a11.281 11.281 0 0 0 0-8.621L17.1 10.766a5.284 5.284 0 0 1 0 2.467z" fill="none" stroke="#212121" stroke-linecap="round" stroke-linejoin="round" stroke-width="1.5px"></path><path class="a" d="M6.75 12a5.283 5.283 0 0 1 .15-1.234L1.606 7.689a11.281 11.281 0 0 0 0 8.621L6.9 13.233A5.281 5.281 0 0 1 6.75 12z" fill="none" stroke="#212121" stroke-linecap="round" stroke-linejoin="round" stroke-width="1.5px"></path><path class="a" d="M13.5 6.968a5.236 5.236 0 0 1 2.094 1.205L20.883 5.1A11.238 11.238 0 0 0 13.5.849z" fill="none" stroke="#212121" stroke-linecap="round" stroke-linejoin="round" stroke-width="1.5px"></path><path class="a" d="M15.594 15.826a5.238 5.238 0 0 1-2.094 1.206v6.118a11.238 11.238 0 0 0 7.383-4.25z" fill="none" stroke="#212121" stroke-linecap="round" stroke-linejoin="round" stroke-width="1.5px"></path><path class="a" d="M8.406 8.173a5.236 5.236 0 0 1 2.094-1.2V.849A11.238 11.238 0 0 0 3.117 5.1z" fill="none" stroke="#212121" stroke-linecap="round" stroke-linejoin="round" stroke-width="1.5px"></path><path class="a" d="M10.5 17.032a5.238 5.238 0 0 1-2.094-1.206L3.117 18.9a11.238 11.238 0 0 0 7.383 4.25z" fill="none" stroke="#212121" stroke-linecap="round" stroke-linejoin="round" stroke-width="1.5px"></path></g></svg>