<svg xmlns="http://www.w3.org/2000/svg" width="24" height="24" viewBox="0 0 24 24"><title>loading 1</title><g fill="#212121" class="nc-icon-wrapper"><defs></defs><path class="a" d="M11.5 7.9a.534.534 0 0 0 1 0l2.436-6.759a11.289 11.289 0 0 0-5.876 0z" fill="none" stroke="#212121" stroke-linecap="round" stroke-linejoin="round" stroke-width="1.5px"></path><path class="a" d="M11.5 16.1a.533.533 0 0 1 1 0l2.436 6.759a11.318 11.318 0 0 1-5.876 0z" fill="none" stroke="#212121" stroke-linecap="round" stroke-linejoin="round" stroke-width="1.5px"></path><path class="a" d="M8.7 14.484a.534.534 0 0 0-.5-.87l-7.071 1.27a11.3 11.3 0 0 0 2.938 5.089z" fill="none" stroke="#212121" stroke-linecap="round" stroke-linejoin="round" stroke-width="1.5px"></path><path class="a" d="M15.805 10.381a.534.534 0 0 1-.5-.87l4.635-5.489a11.287 11.287 0 0 1 2.938 5.089z" fill="none" stroke="#212121" stroke-linecap="round" stroke-linejoin="round" stroke-width="1.5px"></path><path class="a" d="M15.3 14.484a.534.534 0 0 1 .5-.87l7.071 1.27a11.3 11.3 0 0 1-2.938 5.089z" fill="none" stroke="#212121" stroke-linecap="round" stroke-linejoin="round" stroke-width="1.5px"></path><path class="a" d="M8.2 10.381a.534.534 0 0 0 .5-.87L4.064 4.022a11.287 11.287 0 0 0-2.938 5.089z" fill="none" stroke="#212121" stroke-linecap="round" stroke-linejoin="round" stroke-width="1.5px"></path></g></svg>