<svg xmlns="http://www.w3.org/2000/svg" width="24" height="24" viewBox="0 0 24 24"><title>lock</title><g fill="#212121" class="nc-icon-wrapper"><defs></defs><path class="a" d="M12 13.875a.375.375 0 1 0 .375.375.374.374 0 0 0-.375-.375" fill="none" stroke="#212121" stroke-linecap="round" stroke-linejoin="round" stroke-width="1.5px"></path><path class="a" d="M15.75 9.75V7.5A3.76 3.76 0 0 0 12 3.75 3.761 3.761 0 0 0 8.25 7.5v2.25" fill="none" stroke="#212121" stroke-linecap="round" stroke-linejoin="round" stroke-width="1.5px"></path><path class="a" d="M.75 3.75v-1.5a1.5 1.5 0 0 1 1.5-1.5h1.5" fill="none" stroke="#212121" stroke-linecap="round" stroke-linejoin="round" stroke-width="1.5px"></path><path class="a" d="M23.25 3.75v-1.5a1.5 1.5 0 0 0-1.5-1.5h-1.5" fill="none" stroke="#212121" stroke-linecap="round" stroke-linejoin="round" stroke-width="1.5px"></path><path class="a" d="M.75 20.25v1.5a1.5 1.5 0 0 0 1.5 1.5h1.5" fill="none" stroke="#212121" stroke-linecap="round" stroke-linejoin="round" stroke-width="1.5px"></path><path class="a" d="M23.25 20.25v1.5a1.5 1.5 0 0 1-1.5 1.5h-1.5" fill="none" stroke="#212121" stroke-linecap="round" stroke-linejoin="round" stroke-width="1.5px"></path><rect class="a" x="6.75" y="9.75" width="10.5" height="9" rx="1.5" ry="1.5" fill="none" stroke="#212121" stroke-linecap="round" stroke-linejoin="round" stroke-width="1.5px"></rect></g></svg>