<svg xmlns="http://www.w3.org/2000/svg" width="24" height="24" viewBox="0 0 24 24"><title>login 2</title><g fill="#212121" class="nc-icon-wrapper"><defs></defs><path class="a" d="M9.1 11.629a.375.375 0 1 0 .378.371.374.374 0 0 0-.375-.375" fill="none" stroke="#212121" stroke-linecap="round" stroke-linejoin="round" stroke-width="1.5px"></path><path class="a" d="M15.75 3h4.5a1.5 1.5 0 0 1 1.5 1.5v15a1.5 1.5 0 0 1-1.5 1.5h-4.5" fill="none" stroke="#212121" stroke-linecap="round" stroke-linejoin="round" stroke-width="1.5px"></path><path class="a" d="M11.894 23.246l-9-1.286a.749.749 0 0 1-.644-.742V3.725a.75.75 0 0 1 .593-.734l9-2.221a.75.75 0 0 1 .907.734v21a.75.75 0 0 1-.856.742z" fill="none" stroke="#212121" stroke-linecap="round" stroke-linejoin="round" stroke-width="1.5px"></path></g></svg>