<svg xmlns="http://www.w3.org/2000/svg" width="24" height="24" viewBox="0 0 24 24"><title>love heart ranking</title><g fill="#212121" class="nc-icon-wrapper"><defs></defs><path class="a" d="M17.29 1.543a2.559 2.559 0 0 0-3.7 0L12 3.184l-1.587-1.641a2.559 2.559 0 0 0-3.7 0 2.774 2.774 0 0 0 0 3.829l4.726 4.887a.78.78 0 0 0 1.127 0l4.724-4.887a2.774 2.774 0 0 0 0-3.829z" fill="none" stroke="#212121" stroke-linecap="round" stroke-linejoin="round" stroke-width="1.5px"></path><path class="a" d="M.75 23.25v-4.5A.75.75 0 0 1 1.5 18h6" fill="none" stroke="#212121" stroke-linecap="round" stroke-linejoin="round" stroke-width="1.5px"></path><path class="a" d="M23.25 23.25v-4.5a.75.75 0 0 0-.75-.75h-6" fill="none" stroke="#212121" stroke-linecap="round" stroke-linejoin="round" stroke-width="1.5px"></path><path class="a" d="M7.5 23.25v-9a.75.75 0 0 1 .75-.75h7.5a.75.75 0 0 1 .75.75v9" fill="none" stroke="#212121" stroke-linecap="round" stroke-linejoin="round" stroke-width="1.5px"></path></g></svg>