<svg xmlns="http://www.w3.org/2000/svg" width="24" height="24" viewBox="0 0 24 24"><title>love it ribbon 1</title><g fill="#212121" class="nc-icon-wrapper"><defs></defs><path class="a" d="M4.807 13.042L.75 18l3.75.75 1.5 4.5 3.944-6.258" fill="none" stroke="#212121" stroke-linecap="round" stroke-linejoin="round" stroke-width="1.5px"></path><path class="a" d="M19.193 13.042L23.25 18l-3.75.75-1.5 4.5-3.944-6.258" fill="none" stroke="#212121" stroke-linecap="round" stroke-linejoin="round" stroke-width="1.5px"></path><circle class="a" cx="12" cy="9" r="8.25" fill="none" stroke="#212121" stroke-linecap="round" stroke-linejoin="round" stroke-width="1.5px"></circle><path class="a" d="M12 13.5l-3.835-4a2.268 2.268 0 0 1-.425-2.62 2.269 2.269 0 0 1 3.634-.59l.626.626.626-.626a2.269 2.269 0 0 1 3.634.59 2.268 2.268 0 0 1-.425 2.62z" fill="none" stroke="#212121" stroke-linecap="round" stroke-linejoin="round" stroke-width="1.5px"></path></g></svg>