<svg xmlns="http://www.w3.org/2000/svg" width="24" height="24" viewBox="0 0 24 24"><title>love it hand give</title><g fill="#212121" class="nc-icon-wrapper"><defs></defs><path class="a" d="M.75 14.25v9" fill="none" stroke="#212121" stroke-linecap="round" stroke-linejoin="round" stroke-width="1.5px"></path><path class="a" d="M.75 21.75h15a3 3 0 0 0-3-3H9a3 3 0 0 0-3-3H.75" fill="none" stroke="#212121" stroke-linecap="round" stroke-linejoin="round" stroke-width="1.5px"></path><path class="a" d="M6 18.75h3" fill="none" stroke="#212121" stroke-linecap="round" stroke-linejoin="round" stroke-width="1.5px"></path><path class="a" d="M15.75 13.875L9.358 7.207a3.785 3.785 0 0 1-.709-4.366 3.782 3.782 0 0 1 6.057-.983L15.75 2.9l1.044-1.044a3.782 3.782 0 0 1 6.057.983 3.783 3.783 0 0 1-.709 4.366z" fill="none" stroke="#212121" stroke-linecap="round" stroke-linejoin="round" stroke-width="1.5px"></path></g></svg>