<svg xmlns="http://www.w3.org/2000/svg" width="24" height="24" viewBox="0 0 24 24"><title>love lollipop</title><g fill="#212121" class="nc-icon-wrapper"><defs></defs><path class="a" d="M23.25 13.5A5.25 5.25 0 0 0 18 8.25h-2.25V6a5.25 5.25 0 0 0-10.5 0v11.25a1.5 1.5 0 0 0 1.5 1.5H18a5.25 5.25 0 0 0 5.25-5.25z" fill="none" stroke="#212121" stroke-linecap="round" stroke-linejoin="round" stroke-width="1.5px"></path><path class="a" d="M15 11.25h-2.25V9a2.25 2.25 0 0 0-4.5 0v5.25a1.5 1.5 0 0 0 1.5 1.5H15a2.25 2.25 0 0 0 0-4.5z" fill="none" stroke="#212121" stroke-linecap="round" stroke-linejoin="round" stroke-width="1.5px"></path><path class="a" d="M.75 23.25l4.939-4.939" fill="none" stroke="#212121" stroke-linecap="round" stroke-linejoin="round" stroke-width="1.5px"></path></g></svg>