<svg xmlns="http://www.w3.org/2000/svg" width="24" height="24" viewBox="0 0 24 24"><title>love plant pot</title><g fill="#212121" class="nc-icon-wrapper"><defs></defs><path class="a" d="M14.612 23.25h-5.7a.665.665 0 0 1-.668-.482l-1.091-4.8a.627.627 0 0 1 .669-.718H15.7a.627.627 0 0 1 .669.718l-1.091 4.8a.665.665 0 0 1-.666.482z" fill="none" stroke="#212121" stroke-linecap="round" stroke-linejoin="round" stroke-width="1.5px"></path><path class="a" d="M11.643 12v5.25" fill="none" stroke="#212121" stroke-linecap="round" stroke-linejoin="round" stroke-width="1.5px"></path><path class="a" d="M12.726 11.538a1.5 1.5 0 0 1-2.166 0L5.8 6.653a3.456 3.456 0 0 1-.648-3.991 3.458 3.458 0 0 1 5.538-.9l.954.955.954-.955a3.458 3.458 0 0 1 5.538.9 3.457 3.457 0 0 1-.648 3.991z" fill="none" stroke="#212121" stroke-linecap="round" stroke-linejoin="round" stroke-width="1.5px"></path><path class="a" d="M11.643 17.25l3.75-3" fill="none" stroke="#212121" stroke-linecap="round" stroke-linejoin="round" stroke-width="1.5px"></path><path class="a" d="M11.643 17.25l-3.75-3" fill="none" stroke="#212121" stroke-linecap="round" stroke-linejoin="round" stroke-width="1.5px"></path></g></svg>