<svg xmlns="http://www.w3.org/2000/svg" width="24" height="24" viewBox="0 0 24 24"><title>make up mirror 1</title><g fill="#212121" class="nc-icon-wrapper"><defs></defs><path class="cls-1" d="M6.751 18.75a9.75 9.75 0 1 1 10.5 0" fill="none" stroke="#212121" stroke-linecap="round" stroke-linejoin="round" stroke-width="1.5px"></path><path class="cls-1" d="M22.5 18.75h-6.314a.738.738 0 0 0-.632.346c-.271.443-.788 1.154-1.3 1.154H9.75c-.516 0-1.033-.711-1.3-1.154a.738.738 0 0 0-.632-.346H1.5a.75.75 0 0 0-.75.75v.75a3 3 0 0 0 3 3h16.5a3 3 0 0 0 3-3v-.75a.75.75 0 0 0-.75-.75z" fill="none" stroke="#212121" stroke-linecap="round" stroke-linejoin="round" stroke-width="1.5px"></path><circle class="cls-1" cx="12" cy="10.5" r="6.75" fill="none" stroke="#212121" stroke-linecap="round" stroke-linejoin="round" stroke-width="1.5px"></circle></g></svg>