<svg xmlns="http://www.w3.org/2000/svg" width="24" height="24" viewBox="0 0 24 24"><title>make up lipstick</title><g fill="#212121" class="nc-icon-wrapper"><defs></defs><path class="cls-1" d="M7.988 11.124l5.798 5.799a.5.5 0 0 1 0 .707l-5.08 5.08a1 1 0 0 1-1.415 0l-5.09-5.09a1 1 0 0 1 0-1.415l5.08-5.08a.5.5 0 0 1 .707 0z" fill="none" stroke="#212121" stroke-linecap="round" stroke-linejoin="round" stroke-width="1.5px"></path><path class="cls-1" d="M13.045 7.513l4.35 4.35a.5.5 0 0 1 0 .708l-3.981 3.98-5.057-5.057 3.98-3.98a.5.5 0 0 1 .708 0z" fill="none" stroke="#212121" stroke-linecap="round" stroke-linejoin="round" stroke-width="1.5px"></path><path class="cls-1" d="M20.7 7.82l-3.675 3.674-3.611-3.612 6.714-6.714a.511.511 0 0 1 .872.361V7.1a1.026 1.026 0 0 1-.3.72z" fill="none" stroke="#212121" stroke-linecap="round" stroke-linejoin="round" stroke-width="1.5px"></path></g></svg>