<svg xmlns="http://www.w3.org/2000/svg" width="24" height="24" viewBox="0 0 24 24"><title>make up nail polisher</title><g fill="#212121" class="nc-icon-wrapper"><defs></defs><path class="cls-1" d="M18.783 15.085l-2.022 7.078a1.5 1.5 0 0 1-1.442 1.087H8.581a1.5 1.5 0 0 1-1.442-1.087l-2.022-7.078a2.99 2.99 0 0 1 1.759-3.609 13.677 13.677 0 0 1 10.148 0 2.99 2.99 0 0 1 1.759 3.609z" fill="none" stroke="#212121" stroke-linecap="round" stroke-linejoin="round" stroke-width="1.5px"></path><path class="cls-1" d="M8.924 10.842l.723-9.4A.75.75 0 0 1 10.4.75h3.111a.75.75 0 0 1 .747.693l.723 9.4" fill="none" stroke="#212121" stroke-linecap="round" stroke-linejoin="round" stroke-width="1.5px"></path><path class="cls-1" d="M14.2 20.25H9.7l-.75-6h6l-.75 6z" fill="none" stroke="#212121" stroke-linecap="round" stroke-linejoin="round" stroke-width="1.5px"></path></g></svg>