<svg xmlns="http://www.w3.org/2000/svg" width="24" height="24" viewBox="0 0 24 24"><title>make up brush</title><g fill="#212121" class="nc-icon-wrapper"><defs></defs><path class="cls-1" d="M8.9 9.27l-6.92 6.92a4.078 4.078 0 0 0 5.767 5.766l6.92-6.92z" fill="none" stroke="#212121" stroke-linecap="round" stroke-linejoin="round" stroke-width="1.5px"></path><path class="cls-1" d="M8.9 9.27l1.434-7.17A1.62 1.62 0 0 1 12.229.818a13.891 13.891 0 0 1 7.051 3.839 13.9 13.9 0 0 1 3.839 7.051 1.621 1.621 0 0 1-1.286 1.892l-7.166 1.433" fill="none" stroke="#212121" stroke-linecap="round" stroke-linejoin="round" stroke-width="1.5px"></path><path class="cls-1" d="M6.594 11.577l5.766 5.766" fill="none" stroke="#212121" stroke-linecap="round" stroke-linejoin="round" stroke-width="1.5px"></path><path class="cls-1" d="M19.28 4.657l-2.307 2.306" fill="none" stroke="#212121" stroke-linecap="round" stroke-linejoin="round" stroke-width="1.5px"></path><path class="cls-1" d="M14.991 1.702l-1.478 2.955" fill="none" stroke="#212121" stroke-linecap="round" stroke-linejoin="round" stroke-width="1.5px"></path><path class="cls-1" d="M22.235 8.946l-2.955 1.477" fill="none" stroke="#212121" stroke-linecap="round" stroke-linejoin="round" stroke-width="1.5px"></path></g></svg>