<svg xmlns="http://www.w3.org/2000/svg" width="24" height="24" viewBox="0 0 24 24"><title>marine mammal turtle 1</title><g fill="#212121" class="nc-icon-wrapper"><defs></defs><ellipse class="cls-1" cx="12" cy="15.75" rx="6" ry="7.5" fill="none" stroke="#212121" stroke-linecap="round" stroke-linejoin="round" stroke-width="1.5px"></ellipse><path class="cls-1" d="M10.5 8.465c.047-2.419-.75-3.165-.75-4.715 0-1.657 1.5-3 2.25-3s2.25 1.343 2.25 3c0 1.547-.8 2.3-.748 4.715" fill="none" stroke="#212121" stroke-linecap="round" stroke-linejoin="round" stroke-width="1.5px"></path><path class="cls-1" d="M8.257 9.776C7.9 8.339 6.832 6.75 5.25 6.75c-2.25 0-4.5 3-4.5 6.75a3.25 3.25 0 0 0 3-1.5" fill="none" stroke="#212121" stroke-linecap="round" stroke-linejoin="round" stroke-width="1.5px"></path><path class="cls-1" d="M15.743 9.776C16.1 8.339 17.168 6.75 18.75 6.75c2.25 0 4.5 3 4.5 6.75a3.25 3.25 0 0 1-3-1.5" fill="none" stroke="#212121" stroke-linecap="round" stroke-linejoin="round" stroke-width="1.5px"></path><path class="cls-1" d="M6.146 17.318C4.831 16.7 3.3 16.65 2.7 18a5.093 5.093 0 0 0 .66 5.25s1.318 0 1.318-2.25" fill="none" stroke="#212121" stroke-linecap="round" stroke-linejoin="round" stroke-width="1.5px"></path><path class="cls-1" d="M17.854 17.318C19.169 16.7 20.7 16.65 21.3 18a5.093 5.093 0 0 1-.66 5.25s-1.318 0-1.318-2.25" fill="none" stroke="#212121" stroke-linecap="round" stroke-linejoin="round" stroke-width="1.5px"></path><path class="cls-1" d="M7.198 11.099L12 13.5l4.802-2.401" fill="none" stroke="#212121" stroke-linecap="round" stroke-linejoin="round" stroke-width="1.5px"></path><path class="cls-1" d="M10.895 12.947l-4.253 5.954" fill="none" stroke="#212121" stroke-linecap="round" stroke-linejoin="round" stroke-width="1.5px"></path><path class="cls-1" d="M13.105 12.947l4.253 5.954" fill="none" stroke="#212121" stroke-linecap="round" stroke-linejoin="round" stroke-width="1.5px"></path><path class="cls-1" d="M8.132 16.816L12 18.75l3.868-1.934" fill="none" stroke="#212121" stroke-linecap="round" stroke-linejoin="round" stroke-width="1.5px"></path><path class="cls-1" d="M11.455 18.477L8.96 21.803" fill="none" stroke="#212121" stroke-linecap="round" stroke-linejoin="round" stroke-width="1.5px"></path><path class="cls-1" d="M12.6 18.45l1.877 3.754" fill="none" stroke="#212121" stroke-linecap="round" stroke-linejoin="round" stroke-width="1.5px"></path></g></svg>