<svg xmlns="http://www.w3.org/2000/svg" width="24" height="24" viewBox="0 0 24 24"><title>marine mammal penguin crested</title><g fill="#212121" class="nc-icon-wrapper"><defs></defs><path class="cls-1" d="M15.249 2.831A6.4 6.4 0 0 0 12.167 2a6.4 6.4 0 0 0-3.081.831" fill="none" stroke="#212121" stroke-linecap="round" stroke-linejoin="round" stroke-width="1.5px"></path><path class="cls-1" d="M7.234 5a11.881 11.881 0 0 0-3.024 6.368 6.414 6.414 0 0 0-2.819 3.5.75.75 0 0 0 .856 1.016 16.74 16.74 0 0 1 1.709-.284c.384 4.72 3.961 7.4 8.211 7.4s7.833-2.679 8.212-7.4a16.74 16.74 0 0 1 1.709.284.749.749 0 0 0 .856-1.016 6.414 6.414 0 0 0-2.819-3.5A11.881 11.881 0 0 0 17.1 5" fill="none" stroke="#212121" stroke-linecap="round" stroke-linejoin="round" stroke-width="1.5px"></path><path class="cls-1" d="M13.667 10.75c0 .69-.671 2.5-1.5 2.5s-1.5-1.81-1.5-2.5a1.393 1.393 0 0 1 1.5-1.25 1.392 1.392 0 0 1 1.5 1.25z" fill="none" stroke="#212121" stroke-linecap="round" stroke-linejoin="round" stroke-width="1.5px"></path><path class="cls-1" d="M6.167 20.658V20s0-3.75 2.25-6c2.25 3 5.25 3 7.5 0 2.25 1.5 2.25 6 2.25 6v.658" fill="none" stroke="#212121" stroke-linecap="round" stroke-linejoin="round" stroke-width="1.5px"></path><path class="cls-1" d="M5.417 1.25c3 0 6.75 4.5 6.75 4.5s3.75-4.5 6.75-4.5" fill="none" stroke="#212121" stroke-linecap="round" stroke-linejoin="round" stroke-width="1.5px"></path><path class="cls-1" d="M8.792 7.25a.374.374 0 0 1 .375.375" fill="none" stroke="#212121" stroke-linecap="round" stroke-linejoin="round" stroke-width="1.5px"></path><path class="cls-1" d="M8.417 7.625a.375.375 0 0 1 .375-.375" fill="none" stroke="#212121" stroke-linecap="round" stroke-linejoin="round" stroke-width="1.5px"></path><path class="cls-1" d="M8.792 8a.375.375 0 0 1-.375-.375" fill="none" stroke="#212121" stroke-linecap="round" stroke-linejoin="round" stroke-width="1.5px"></path><path class="cls-1" d="M9.167 7.625A.374.374 0 0 1 8.792 8" fill="none" stroke="#212121" stroke-linecap="round" stroke-linejoin="round" stroke-width="1.5px"></path><path class="cls-1" d="M15.542 7.25a.374.374 0 0 1 .375.375" fill="none" stroke="#212121" stroke-linecap="round" stroke-linejoin="round" stroke-width="1.5px"></path><path class="cls-1" d="M15.167 7.625a.375.375 0 0 1 .375-.375" fill="none" stroke="#212121" stroke-linecap="round" stroke-linejoin="round" stroke-width="1.5px"></path><path class="cls-1" d="M15.542 8a.375.375 0 0 1-.375-.375" fill="none" stroke="#212121" stroke-linecap="round" stroke-linejoin="round" stroke-width="1.5px"></path><path class="cls-1" d="M15.917 7.625a.374.374 0 0 1-.375.375" fill="none" stroke="#212121" stroke-linecap="round" stroke-linejoin="round" stroke-width="1.5px"></path></g></svg>