<svg xmlns="http://www.w3.org/2000/svg" width="24" height="24" viewBox="0 0 24 24"><title>martial arts mask helmet</title><g fill="#212121" class="nc-icon-wrapper"><defs></defs><path class="cls-1" d="M15.751 8.25c0 2.9-1.679 6-3.75 6s-3.75-3.1-3.75-6S9.93 3.75 12 3.75s3.751 1.601 3.751 4.5z" fill="none" stroke="#212121" stroke-linecap="round" stroke-linejoin="round" stroke-width="1.5px"></path><path class="cls-1" d="M14.251 21v-2.25a.845.845 0 0 1 1.584-.411A3.859 3.859 0 0 0 19.5 20.25a3.812 3.812 0 0 0 3.648-2.2.974.974 0 0 0-.8-1.4 3.99 3.99 0 0 1-3.6-3.895V7.5a6.75 6.75 0 0 0-13.5 0v5.25a3.989 3.989 0 0 1-3.6 3.895.974.974 0 0 0-.8 1.4A3.811 3.811 0 0 0 4.5 20.25a3.856 3.856 0 0 0 3.666-1.911.845.845 0 0 1 1.584.411V21a2.25 2.25 0 0 0 4.5 0z" fill="none" stroke="#212121" stroke-linecap="round" stroke-linejoin="round" stroke-width="1.5px"></path><path class="cls-1" d="M8.422 6.75h7.159" fill="none" stroke="#212121" stroke-linecap="round" stroke-linejoin="round" stroke-width="1.5px"></path><path class="cls-1" d="M8.814 11.25h6.367" fill="none" stroke="#212121" stroke-linecap="round" stroke-linejoin="round" stroke-width="1.5px"></path></g></svg>