<svg xmlns="http://www.w3.org/2000/svg" width="24" height="24" viewBox="0 0 24 24"><title>mask star</title><g fill="#212121" class="nc-icon-wrapper"><defs></defs><rect class="a" x=".75" y=".75" width="22.5" height="22.5" rx="1" ry="1" fill="none" stroke="#212121" stroke-linecap="round" stroke-linejoin="round" stroke-width="1.5px"></rect><path class="a" d="M12.971 4.367L15.087 9H19.2a1.059 1.059 0 0 1 .712 1.839l-3.574 3.1 1.98 4.749a1.1 1.1 0 0 1-1.532 1.412L12 17.287 7.215 20.1a1.1 1.1 0 0 1-1.536-1.41l1.98-4.749-3.574-3.1A1.058 1.058 0 0 1 4.793 9H8.91l2.12-4.633a1.072 1.072 0 0 1 1.941 0z" fill="none" stroke="#212121" stroke-linecap="round" stroke-linejoin="round" stroke-width="1.5px"></path></g></svg>