<svg xmlns="http://www.w3.org/2000/svg" width="24" height="24" viewBox="0 0 24 24"><title>mask heart double</title><g fill="#212121" class="nc-icon-wrapper"><defs></defs><rect class="a" x=".75" y=".75" width="22.5" height="22.5" rx="1" ry="1" fill="none" stroke="#212121" stroke-linecap="round" stroke-linejoin="round" stroke-width="1.5px"></rect><path class="a" d="M8.258 13.346l-3.677-3.9a2.922 2.922 0 0 1-.532-3.329 2.812 2.812 0 0 1 4.543-.749l.783.8.783-.8a2.812 2.812 0 0 1 4.543.749 2.916 2.916 0 0 1 .283 1.591" fill="none" stroke="#212121" stroke-linecap="round" stroke-linejoin="round" stroke-width="1.5px"></path><path class="a" d="M13.875 20.25l-4.794-5.085a2.924 2.924 0 0 1-.532-3.33 2.812 2.812 0 0 1 4.543-.749l.783.8.783-.8a2.812 2.812 0 0 1 4.543.749 2.924 2.924 0 0 1-.532 3.33z" fill="none" stroke="#212121" stroke-linecap="round" stroke-linejoin="round" stroke-width="1.5px"></path></g></svg>