<svg xmlns="http://www.w3.org/2000/svg" width="24" height="24" viewBox="0 0 24 24"><title>medical specialty knee</title><g fill="#212121" class="nc-icon-wrapper"><defs></defs><path class="cls-1" d="M14.25.75l5.768 6.921a9 9 0 0 1 2.031 4.768l1.2 10.811" fill="none" stroke="#212121" stroke-linecap="round" stroke-linejoin="round" stroke-width="1.5px"></path><path class="cls-1" d="M.75 8.25l6.559 5.466a9 9 0 0 1 3.064 5.149l.877 4.385" fill="none" stroke="#212121" stroke-linecap="round" stroke-linejoin="round" stroke-width="1.5px"></path><path class="cls-1" d="M.75 1.063L11.168 11.35a2.25 2.25 0 0 0 3.164-3.2L6.75.75" fill="none" stroke="#212121" stroke-linecap="round" stroke-linejoin="round" stroke-width="1.5px"></path><path class="cls-1" d="M16.5 14.25a3.226 3.226 0 0 0-3 3A3.061 3.061 0 0 0 15.75 20v3.25h3.75s1.237-9-3-9z" fill="none" stroke="#212121" stroke-linecap="round" stroke-linejoin="round" stroke-width="1.5px"></path><path class="cls-1" d="M17.25 9.75a2.2 2.2 0 0 1 1.5 2.25" fill="none" stroke="#212121" stroke-linecap="round" stroke-linejoin="round" stroke-width="1.5px"></path></g></svg>