<svg xmlns="http://www.w3.org/2000/svg" width="24" height="24" viewBox="0 0 24 24"><title>medical specialty vertebra</title><g fill="#212121" class="nc-icon-wrapper"><defs></defs><path class="cls-1" d="M15.41.75a4.038 4.038 0 0 1-3.16 1.385A4.038 4.038 0 0 1 9.09.75a2.63 2.63 0 0 0-1.34 2.135C7.75 4.542 9.765 6 12.25 6s4.5-1.458 4.5-3.115A2.63 2.63 0 0 0 15.41.75z" fill="none" stroke="#212121" stroke-linecap="round" stroke-linejoin="round" stroke-width="1.5px"></path><path class="cls-1" d="M7.75 2.885l-4.5 1.5" fill="none" stroke="#212121" stroke-linecap="round" stroke-linejoin="round" stroke-width="1.5px"></path><path class="cls-1" d="M16.75 2.885l4.5 1.5" fill="none" stroke="#212121" stroke-linecap="round" stroke-linejoin="round" stroke-width="1.5px"></path><path class="cls-1" d="M15.41 9.375a4.038 4.038 0 0 1-3.16 1.385 4.038 4.038 0 0 1-3.16-1.385 2.63 2.63 0 0 0-1.34 2.135c0 1.657 2.015 3.115 4.5 3.115s4.5-1.458 4.5-3.115a2.63 2.63 0 0 0-1.34-2.135z" fill="none" stroke="#212121" stroke-linecap="round" stroke-linejoin="round" stroke-width="1.5px"></path><path class="cls-1" d="M7.75 11.51l-4.5 1.5" fill="none" stroke="#212121" stroke-linecap="round" stroke-linejoin="round" stroke-width="1.5px"></path><path class="cls-1" d="M16.75 11.51l4.5 1.5" fill="none" stroke="#212121" stroke-linecap="round" stroke-linejoin="round" stroke-width="1.5px"></path><path class="cls-1" d="M15.41 18a4.038 4.038 0 0 1-3.16 1.385A4.038 4.038 0 0 1 9.09 18a2.63 2.63 0 0 0-1.34 2.135c0 1.657 2.015 3.115 4.5 3.115s4.5-1.458 4.5-3.115A2.63 2.63 0 0 0 15.41 18z" fill="none" stroke="#212121" stroke-linecap="round" stroke-linejoin="round" stroke-width="1.5px"></path><path class="cls-1" d="M7.75 20.135l-4.5 1.5" fill="none" stroke="#212121" stroke-linecap="round" stroke-linejoin="round" stroke-width="1.5px"></path><path class="cls-1" d="M16.75 20.135l4.5 1.5" fill="none" stroke="#212121" stroke-linecap="round" stroke-linejoin="round" stroke-width="1.5px"></path></g></svg>