<svg xmlns="http://www.w3.org/2000/svg" width="24" height="24" viewBox="0 0 24 24"><title>medical nanobot heart</title><g fill="#212121" class="nc-icon-wrapper"><defs></defs><path class="cls-1" d="M21.08 7.251L17.33 9.5l-3.75-2.25V3.6a1.5 1.5 0 0 1 .728-1.286l2.25-1.35a1.5 1.5 0 0 1 1.544 0l2.25 1.35A1.5 1.5 0 0 1 21.08 3.6z" fill="none" stroke="#212121" stroke-linecap="round" stroke-linejoin="round" stroke-width="1.5px"></path><path class="cls-1" d="M17.33 9.501v3" fill="none" stroke="#212121" stroke-linecap="round" stroke-linejoin="round" stroke-width="1.5px"></path><path class="cls-1" d="M13.58 7.251l-1 .668A1.5 1.5 0 0 0 12.162 10l.668 1" fill="none" stroke="#212121" stroke-linecap="round" stroke-linejoin="round" stroke-width="1.5px"></path><path class="cls-1" d="M21.08 7.251l1 .668A1.5 1.5 0 0 1 22.5 10l-.668 1" fill="none" stroke="#212121" stroke-linecap="round" stroke-linejoin="round" stroke-width="1.5px"></path><path class="cls-1" d="M16.58 5.001h1.5" fill="none" stroke="#212121" stroke-linecap="round" stroke-linejoin="round" stroke-width="1.5px"></path><path class="cls-1" d="M15.669 14.751a3.767 3.767 0 0 1-.947 1.581L8.33 23l-6.392-6.668a3.781 3.781 0 0 1-.709-4.365 3.782 3.782 0 0 1 6.057-.983l1.044 1.044 1.044-1.044" fill="none" stroke="#212121" stroke-linecap="round" stroke-linejoin="round" stroke-width="1.5px"></path></g></svg>