<svg xmlns="http://www.w3.org/2000/svg" width="24" height="24" viewBox="0 0 24 24"><title>medical app smartphone</title><g fill="#212121" class="nc-icon-wrapper"><defs></defs><rect class="cls-1" x="5.25" y=".75" width="13.5" height="22.5" rx="2.25" ry="2.25" fill="none" stroke="#212121" stroke-linecap="round" stroke-linejoin="round" stroke-width="1.5px"></rect><path class="cls-1" d="M5.25 18.75h13.5" fill="none" stroke="#212121" stroke-linecap="round" stroke-linejoin="round" stroke-width="1.5px"></path><path class="cls-1" d="M15.75 9a.75.75 0 0 0-.75-.75h-1.5v-1.5a.75.75 0 0 0-.75-.75h-1.5a.75.75 0 0 0-.75.75v1.5H9a.75.75 0 0 0-.75.75v1.5a.75.75 0 0 0 .75.75h1.5v1.5a.75.75 0 0 0 .75.75h1.5a.75.75 0 0 0 .75-.75v-1.5H15a.75.75 0 0 0 .75-.75z" fill="none" stroke="#212121" stroke-linecap="round" stroke-linejoin="round" stroke-width="1.5px"></path></g></svg>