<svg xmlns="http://www.w3.org/2000/svg" width="24" height="24" viewBox="0 0 24 24"><title>medical room clock woman</title><g fill="#212121" class="nc-icon-wrapper"><defs></defs><circle class="cls-1" cx="5.25" cy="5.25" r="4.5" fill="none" stroke="#212121" stroke-linecap="round" stroke-linejoin="round" stroke-width="1.5px"></circle><path class="cls-1" d="M5.25 3v2.25h1.5" fill="none" stroke="#212121" stroke-linecap="round" stroke-linejoin="round" stroke-width="1.5px"></path><path class="cls-1" d="M23.25 23.25v-3" fill="none" stroke="#212121" stroke-linecap="round" stroke-linejoin="round" stroke-width="1.5px"></path><path class="cls-1" d="M.75 23.25v-3h6" fill="none" stroke="#212121" stroke-linecap="round" stroke-linejoin="round" stroke-width="1.5px"></path><path class="cls-1" d="M8.25 20.25h-1.5a1.5 1.5 0 0 1-1.138-.524l-4.5-5.25a1.5 1.5 0 0 1 2.276-1.952L7.44 17.25h.81" fill="none" stroke="#212121" stroke-linecap="round" stroke-linejoin="round" stroke-width="1.5px"></path><circle class="cls-1" cx="16.5" cy="4.875" r="2.625" fill="none" stroke="#212121" stroke-linecap="round" stroke-linejoin="round" stroke-width="1.5px"></circle><path class="cls-1" d="M14.25 18.75h-3l1.5-4.5V12a3 3 0 0 1 3-3h1.5a3 3 0 0 1 3 3v2.25l1.5 4.5h-3v3a1.5 1.5 0 0 1-1.5 1.5h-1.5a1.5 1.5 0 0 1-1.5-1.5v-3" fill="none" stroke="#212121" stroke-linecap="round" stroke-linejoin="round" stroke-width="1.5px"></path></g></svg>