<svg xmlns="http://www.w3.org/2000/svg" width="24" height="24" viewBox="0 0 24 24"><title>medical specialty back</title><g fill="#212121" class="nc-icon-wrapper"><defs></defs><circle class="cls-1" cx="12" cy="3.375" r="2.625" fill="none" stroke="#212121" stroke-linecap="round" stroke-linejoin="round" stroke-width="1.5px"></circle><circle class="cls-1" cx="20.25" cy="20.25" r="3" fill="none" stroke="#212121" stroke-linecap="round" stroke-linejoin="round" stroke-width="1.5px"></circle><path class="cls-1" d="M3.75 15.75v3" fill="none" stroke="#212121" stroke-linecap="round" stroke-linejoin="round" stroke-width="1.5px"></path><path class="cls-1" d="M12 15.75v3" fill="none" stroke="#212121" stroke-linecap="round" stroke-linejoin="round" stroke-width="1.5px"></path><path class="cls-1" d="M14.25 11.379l-.311.31a1.5 1.5 0 0 0 2.122 2.122l.75-.75A1.5 1.5 0 0 0 17.25 12v-1.5a3 3 0 0 0-3-3h-4.5a3 3 0 0 0-3 3V12a1.5 1.5 0 0 0 .439 1.061l.75.75a1.5 1.5 0 0 0 2.122-2.122l-.311-.31" fill="none" stroke="#212121" stroke-linecap="round" stroke-linejoin="round" stroke-width="1.5px"></path><path class="cls-1" d="M.75 18.75H13.5a2.25 2.25 0 0 1 0 4.5H.75" fill="none" stroke="#212121" stroke-linecap="round" stroke-linejoin="round" stroke-width="1.5px"></path></g></svg>