<svg xmlns="http://www.w3.org/2000/svg" width="24" height="24" viewBox="0 0 24 24"><title>medical specialty ear</title><g fill="#212121" class="nc-icon-wrapper"><defs></defs><path class="cls-1" d="M10.147 15a3.5 3.5 0 0 0-.447 2.25 10.955 10.955 0 0 1-.046 2.416A4.5 4.5 0 0 1 .75 18.75" fill="none" stroke="#212121" stroke-linecap="round" stroke-linejoin="round" stroke-width="1.5px"></path><path class="cls-1" d="M.75 6A6.5 6.5 0 0 1 6.049.9a6.762 6.762 0 0 1 7.064 2.85" fill="none" stroke="#212121" stroke-linecap="round" stroke-linejoin="round" stroke-width="1.5px"></path><path class="cls-1" d="M3.942 7.67A2.751 2.751 0 0 1 8.25 5.759" fill="none" stroke="#212121" stroke-linecap="round" stroke-linejoin="round" stroke-width="1.5px"></path><path class="cls-1" d="M15.75 6.75h6.5a1 1 0 0 1 1 1v4a1 1 0 0 1-1 1h-6.5v-6z" fill="none" stroke="#212121" stroke-linecap="round" stroke-linejoin="round" stroke-width="1.5px"></path><path class="cls-1" d="M23.25 23.25v-1.5a1.5 1.5 0 0 0-1.5-1.5h-4.5a1.5 1.5 0 0 0-1.5 1.5v1.5" fill="none" stroke="#212121" stroke-linecap="round" stroke-linejoin="round" stroke-width="1.5px"></path><path class="cls-1" d="M19.5 12.75v7.5" fill="none" stroke="#212121" stroke-linecap="round" stroke-linejoin="round" stroke-width="1.5px"></path><path class="cls-1" d="M9.75 11.25a11.541 11.541 0 0 1 6 1.5v-6a11.541 11.541 0 0 1-6 1.5z" fill="none" stroke="#212121" stroke-linecap="round" stroke-linejoin="round" stroke-width="1.5px"></path></g></svg>