<svg xmlns="http://www.w3.org/2000/svg" width="24" height="24" viewBox="0 0 24 24"><title>meeting headphones</title><g fill="#212121" class="nc-icon-wrapper"><defs></defs><path class="a" d="M4.5 18.011h-.75a3 3 0 0 1-3-3v-3a3 3 0 0 1 3-3h.75c.414 0 1.5.336 1.5.75v7.5c0 .414-1.086.75-1.5.75z" fill="none" stroke="#212121" stroke-linecap="round" stroke-linejoin="round" stroke-width="1.5px"></path><path class="a" d="M20.25 18.011h-.75c-.414 0-1.5-.336-1.5-.75v-7.5c0-.414 1.086-.75 1.5-.75h.75a3 3 0 0 1 3 3v3a3 3 0 0 1-3 3z" fill="none" stroke="#212121" stroke-linecap="round" stroke-linejoin="round" stroke-width="1.5px"></path><path class="a" d="M3.75 9.011A8.25 8.25 0 0 1 12 .761a8.25 8.25 0 0 1 8.25 8.25" fill="none" stroke="#212121" stroke-linecap="round" stroke-linejoin="round" stroke-width="1.5px"></path><path class="a" d="M15 21.761h2.25a3 3 0 0 0 3-3v-.75" fill="none" stroke="#212121" stroke-linecap="round" stroke-linejoin="round" stroke-width="1.5px"></path><path class="a" d="M13.5 23.261h-3a1.5 1.5 0 0 1-1.5-1.5 1.5 1.5 0 0 1 1.5-1.5h3a1.5 1.5 0 0 1 1.5 1.5 1.5 1.5 0 0 1-1.5 1.5z" fill="none" stroke="#212121" stroke-linecap="round" stroke-linejoin="round" stroke-width="1.5px"></path></g></svg>