<svg xmlns="http://www.w3.org/2000/svg" width="24" height="24" viewBox="0 0 24 24"><title>meeting headphones 1</title><g fill="#212121" class="nc-icon-wrapper"><defs></defs><path class="a" d="M3.046 10.061a8.931 8.931 0 1 1 17.846 0" fill="none" stroke="#212121" stroke-linecap="round" stroke-linejoin="round" stroke-width="1.5px"></path><path class="a" d="M19.589 18.273a8.917 8.917 0 0 1-5.832 3.632" fill="none" stroke="#212121" stroke-linecap="round" stroke-linejoin="round" stroke-width="1.5px"></path><path class="a" d="M5.775 15.85a2.266 2.266 0 0 1-.412 1.678 2.227 2.227 0 0 1-4-1l-.587-3.879a2.261 2.261 0 0 1 .412-1.678 2.226 2.226 0 0 1 4 1z" fill="none" stroke="#212121" stroke-linecap="round" stroke-linejoin="round" stroke-width="1.5px"></path><path class="a" d="M18.225 15.85a2.266 2.266 0 0 0 .412 1.678 2.227 2.227 0 0 0 4-1l.586-3.879a2.261 2.261 0 0 0-.412-1.678 2.226 2.226 0 0 0-4 1z" fill="none" stroke="#212121" stroke-linecap="round" stroke-linejoin="round" stroke-width="1.5px"></path><ellipse class="a" cx="11.969" cy="21.386" rx="1.86" ry="1.875" fill="none" stroke="#212121" stroke-linecap="round" stroke-linejoin="round" stroke-width="1.5px"></ellipse></g></svg>