<svg xmlns="http://www.w3.org/2000/svg" width="24" height="24" viewBox="0 0 24 24"><title>messages bubble image</title><g fill="#212121" class="nc-icon-wrapper"><defs></defs><path class="a" d="M7.961 6.75a.375.375 0 0 0 0-.75.375.375 0 0 0 0 .75" fill="none" stroke="#212121" stroke-linecap="round" stroke-linejoin="round" stroke-width="1.5px"></path><path class="a" d="M19.5 14.25l-3.87-5.836a.749.749 0 0 0-1.238-.014l-2 2.851-1.236-.989a.75.75 0 0 0-1.092.17L7.521 14.25" fill="none" stroke="#212121" stroke-linecap="round" stroke-linejoin="round" stroke-width="1.5px"></path><path class="a" d="M6 14.25h13.5" fill="none" stroke="#212121" stroke-linecap="round" stroke-linejoin="round" stroke-width="1.5px"></path><path class="a" d="M12.75.75a10.485 10.485 0 0 0-8.917 16.025L.75 23.25l6.474-3.083A10.5 10.5 0 1 0 12.75.75z" fill="none" stroke="#212121" stroke-linecap="round" stroke-linejoin="round" stroke-width="1.5px"></path></g></svg>