<svg xmlns="http://www.w3.org/2000/svg" width="24" height="24" viewBox="0 0 24 24"><title>messages people woman bubble circle 1</title><g fill="#212121" class="nc-icon-wrapper"><defs></defs><path class="a" d="M2.626 12.486v1a5.91 5.91 0 0 1-.859 3.273" fill="none" stroke="#212121" stroke-linecap="round" stroke-linejoin="round" stroke-width="1.5px"></path><path class="a" d="M10.873 12.486v1a5.909 5.909 0 0 0 .86 3.273" fill="none" stroke="#212121" stroke-linecap="round" stroke-linejoin="round" stroke-width="1.5px"></path><path class="a" d="M2.638 12.705a5.487 5.487 0 0 0 4.112-1.9 5.487 5.487 0 0 0 4.112 1.9" fill="none" stroke="#212121" stroke-linecap="round" stroke-linejoin="round" stroke-width="1.5px"></path><circle class="a" cx="6.75" cy="12.375" r="4.125" fill="none" stroke="#212121" stroke-linecap="round" stroke-linejoin="round" stroke-width="1.5px"></circle><path class="a" d="M12.75 23.25a6.054 6.054 0 0 0-12 0" fill="none" stroke="#212121" stroke-linecap="round" stroke-linejoin="round" stroke-width="1.5px"></path><path class="a" d="M18 .75a5.226 5.226 0 0 0-3.938 8.689l-.656 3.78 3.423-2.111A5.246 5.246 0 1 0 18 .75z" fill="none" stroke="#212121" stroke-linecap="round" stroke-linejoin="round" stroke-width="1.5px"></path></g></svg>