<svg xmlns="http://www.w3.org/2000/svg" width="24" height="24" viewBox="0 0 24 24"><title>messages bubble information</title><g fill="#212121" class="nc-icon-wrapper"><defs></defs><path class="a" d="M12.75.75a10.485 10.485 0 0 0-8.917 16.025L.75 23.25l6.474-3.084A10.5 10.5 0 1 0 12.75.75z" fill="none" stroke="#212121" stroke-linecap="round" stroke-linejoin="round" stroke-width="1.5px"></path><path class="a" d="M15 15.75h-.75a1.5 1.5 0 0 1-1.5-1.5V10.5a.75.75 0 0 0-.75-.75h-.75" fill="none" stroke="#212121" stroke-linecap="round" stroke-linejoin="round" stroke-width="1.5px"></path><path class="a" d="M12.375 6" fill="none" stroke="#212121" stroke-linecap="round" stroke-linejoin="round" stroke-width="1.5px"></path><path class="a" d="M12.75 6.375A.375.375 0 0 0 12.375 6" fill="none" stroke="#212121" stroke-linecap="round" stroke-linejoin="round" stroke-width="1.5px"></path><path class="a" d="M12.375 6a.375.375 0 1 0 .375.375" fill="none" stroke="#212121" stroke-linecap="round" stroke-linejoin="round" stroke-width="1.5px"></path></g></svg>