<svg xmlns="http://www.w3.org/2000/svg" width="24" height="24" viewBox="0 0 24 24"><title>microphone 2</title><g fill="#212121" class="nc-icon-wrapper"><defs></defs><path class="a" d="M7.5 11.25V7.501" fill="none" stroke="#212121" stroke-linecap="round" stroke-linejoin="round" stroke-width="1.5px"></path><path class="a" d="M16.5 7.501v3.749" fill="none" stroke="#212121" stroke-linecap="round" stroke-linejoin="round" stroke-width="1.5px"></path><path class="a" d="M7.5 4.5V2.25A1.5 1.5 0 0 1 9 .75h6a1.5 1.5 0 0 1 1.5 1.5V4.5" fill="none" stroke="#212121" stroke-linecap="round" stroke-linejoin="round" stroke-width="1.5px"></path><path class="a" d="M17.25 7.5a1.5 1.5 0 0 0 0-3H6.75a1.5 1.5 0 0 0 0 3h3.75v3.75h-3a1.5 1.5 0 0 0-1.5 1.5V15a1.5 1.5 0 0 0 1.5 1.5h9A1.5 1.5 0 0 0 18 15v-2.25a1.5 1.5 0 0 0-1.5-1.5h-3V7.5z" fill="none" stroke="#212121" stroke-linecap="round" stroke-linejoin="round" stroke-width="1.5px"></path><path class="a" d="M8.25 16.5l.466 1.864a1.5 1.5 0 0 0 1.455 1.136h3.658a1.5 1.5 0 0 0 1.455-1.136l.466-1.864" fill="none" stroke="#212121" stroke-linecap="round" stroke-linejoin="round" stroke-width="1.5px"></path><path class="a" d="M12 19.5v3.75" fill="none" stroke="#212121" stroke-linecap="round" stroke-linejoin="round" stroke-width="1.5px"></path></g></svg>