<svg xmlns="http://www.w3.org/2000/svg" width="24" height="24" viewBox="0 0 24 24"><title>microphone off</title><g fill="#212121" class="nc-icon-wrapper"><defs></defs><path class="a" d="M12 19.5v3.75" fill="none" stroke="#212121" stroke-linecap="round" stroke-linejoin="round" stroke-width="1.5px"></path><path class="a" d="M12.562 16.465A4.535 4.535 0 0 1 12 16.5 4.5 4.5 0 0 1 7.5 12v-.75" fill="none" stroke="#212121" stroke-linecap="round" stroke-linejoin="round" stroke-width="1.5px"></path><path class="a" d="M8.064 3.067A4.5 4.5 0 0 1 12 .75a4.5 4.5 0 0 1 4.5 4.5V12" fill="none" stroke="#212121" stroke-linecap="round" stroke-linejoin="round" stroke-width="1.5px"></path><path class="a" d="M15.128 18.841A7.7 7.7 0 0 1 12 19.5a7.369 7.369 0 0 1-7.5-7.184V9.75" fill="none" stroke="#212121" stroke-linecap="round" stroke-linejoin="round" stroke-width="1.5px"></path><path class="a" d="M19.5 9.75v2.566a6.851 6.851 0 0 1-.56 2.716" fill="none" stroke="#212121" stroke-linecap="round" stroke-linejoin="round" stroke-width="1.5px"></path><path class="a" d="M3 2.25L21 21" fill="none" stroke="#212121" stroke-linecap="round" stroke-linejoin="round" stroke-width="1.5px"></path></g></svg>