<svg xmlns="http://www.w3.org/2000/svg" width="24" height="24" viewBox="0 0 24 24"><title>microphone 1</title><g fill="#212121" class="nc-icon-wrapper"><defs></defs><path class="a" d="M16.65 16.95l-2 1.5a1.5 1.5 0 0 1-.9.3h-3.5a1.5 1.5 0 0 1-.9-.3l-2-1.5a1.5 1.5 0 0 1-.6-1.2V3.165a1.489 1.489 0 0 1 .814-1.344 9.722 9.722 0 0 1 8.872 0 1.489 1.489 0 0 1 .814 1.344V15.75a1.5 1.5 0 0 1-.6 1.2z" fill="none" stroke="#212121" stroke-linecap="round" stroke-linejoin="round" stroke-width="1.5px"></path><path class="a" d="M6.75 8.25h10.5" fill="none" stroke="#212121" stroke-linecap="round" stroke-linejoin="round" stroke-width="1.5px"></path><path class="a" d="M6.75 11.25h10.5" fill="none" stroke="#212121" stroke-linecap="round" stroke-linejoin="round" stroke-width="1.5px"></path><path class="a" d="M10.5 11.25v2.25A1.5 1.5 0 0 0 12 15a1.5 1.5 0 0 0 1.5-1.5v-2.25" fill="none" stroke="#212121" stroke-linecap="round" stroke-linejoin="round" stroke-width="1.5px"></path><path class="a" d="M9.735 18.659l.765 4.591h3l.765-4.591" fill="none" stroke="#212121" stroke-linecap="round" stroke-linejoin="round" stroke-width="1.5px"></path></g></svg>