<svg xmlns="http://www.w3.org/2000/svg" width="24" height="24" viewBox="0 0 24 24"><title>microphone sing man</title><g fill="#212121" class="nc-icon-wrapper"><defs></defs><path class="a" d="M9.75 23.247a6.75 6.75 0 0 1 13.5 0" fill="none" stroke="#212121" stroke-linecap="round" stroke-linejoin="round" stroke-width="1.5px"></path><path class="a" d="M12.958 8.79a6.853 6.853 0 0 0 7.612 1.531" fill="none" stroke="#212121" stroke-linecap="round" stroke-linejoin="round" stroke-width="1.5px"></path><circle class="a" cx="16.5" cy="10.872" r="4.125" fill="none" stroke="#212121" stroke-linecap="round" stroke-linejoin="round" stroke-width="1.5px"></circle><path class="a" d="M9.747 9.382a2.827 2.827 0 0 0-2.985-2.635 2.828 2.828 0 0 0-3 2.614l-.019 5.25a2.828 2.828 0 0 0 2.986 2.635 2.829 2.829 0 0 0 3-2.614z" fill="none" stroke="#212121" stroke-linecap="round" stroke-linejoin="round" stroke-width="1.5px"></path><path class="a" d="M3.743 13.497h2.996" fill="none" stroke="#212121" stroke-linecap="round" stroke-linejoin="round" stroke-width="1.5px"></path><path class="a" d="M3.75 10.497h2.989" fill="none" stroke="#212121" stroke-linecap="round" stroke-linejoin="round" stroke-width="1.5px"></path><path class="a" d="M6.739 3.747L6.75.754" fill="none" stroke="#212121" stroke-linecap="round" stroke-linejoin="round" stroke-width="1.5px"></path><path class="a" d="M.75 12V9.747a6 6 0 0 1 6-6 5.985 5.985 0 0 1 4.45 1.975" fill="none" stroke="#212121" stroke-linecap="round" stroke-linejoin="round" stroke-width="1.5px"></path></g></svg>