<svg xmlns="http://www.w3.org/2000/svg" width="24" height="24" viewBox="0 0 24 24"><title>milk carton</title><g fill="#212121" class="nc-icon-wrapper"><defs></defs><path class="cls-1" d="M18 5.25H6L3.158 9.433A1.5 1.5 0 0 0 3 10.1v11.65a1.5 1.5 0 0 0 1.5 1.5h15a1.5 1.5 0 0 0 1.5-1.5V10.1a1.5 1.5 0 0 0-.158-.671z" fill="none" stroke="#212121" stroke-linecap="round" stroke-linejoin="round" stroke-width="1.5px"></path><path class="cls-1" d="M18 2.25a1.5 1.5 0 0 0-1.5-1.5h-9A1.5 1.5 0 0 0 6 2.25v3h12z" fill="none" stroke="#212121" stroke-linecap="round" stroke-linejoin="round" stroke-width="1.5px"></path><path class="cls-1" d="M6.75 9.75h10.5" fill="none" stroke="#212121" stroke-linecap="round" stroke-linejoin="round" stroke-width="1.5px"></path><circle class="cls-1" cx="12" cy="17.25" r="3" fill="none" stroke="#212121" stroke-linecap="round" stroke-linejoin="round" stroke-width="1.5px"></circle></g></svg>