<svg xmlns="http://www.w3.org/2000/svg" width="24" height="24" viewBox="0 0 24 24"><title>milk can</title><g fill="#212121" class="nc-icon-wrapper"><defs></defs><path class="cls-1" d="M15.75 3.75h-7.5L5.5 7.872a1.5 1.5 0 0 0-.25.828v13.05a1.5 1.5 0 0 0 1.5 1.5h10.5a1.5 1.5 0 0 0 1.5-1.5V8.7a1.5 1.5 0 0 0-.252-.832z" fill="none" stroke="#212121" stroke-linecap="round" stroke-linejoin="round" stroke-width="1.5px"></path><path class="cls-1" d="M17.25 2.25a1.5 1.5 0 0 0-1.5-1.5h-7.5a1.5 1.5 0 0 0 0 3h7.5a1.5 1.5 0 0 0 1.5-1.5z" fill="none" stroke="#212121" stroke-linecap="round" stroke-linejoin="round" stroke-width="1.5px"></path><path class="cls-1" d="M5.32 8.25h13.359" fill="none" stroke="#212121" stroke-linecap="round" stroke-linejoin="round" stroke-width="1.5px"></path><path class="cls-1" d="M5.25 9l-3-3" fill="none" stroke="#212121" stroke-linecap="round" stroke-linejoin="round" stroke-width="1.5px"></path><path class="cls-1" d="M18.75 9l3-3" fill="none" stroke="#212121" stroke-linecap="round" stroke-linejoin="round" stroke-width="1.5px"></path></g></svg>