<svg xmlns="http://www.w3.org/2000/svg" width="24" height="24" viewBox="0 0 24 24"><title>mobile shopping bag</title><g fill="#212121" class="nc-icon-wrapper"><defs></defs><path class="a" d="M9.754 23.25h-6a3 3 0 0 1-3-3V3.75a3 3 0 0 1 3-3h7.5a3 3 0 0 1 3 3v6" fill="none" stroke="#212121" stroke-linecap="round" stroke-linejoin="round" stroke-width="1.5px"></path><path class="a" d="M.754 18.75h9" fill="none" stroke="#212121" stroke-linecap="round" stroke-linejoin="round" stroke-width="1.5px"></path><path class="a" d="M9.379 6.75H7.346a1.342 1.342 0 0 0-.5 2.587l2.064.825a1.342 1.342 0 0 1-.5 2.588H6.379" fill="none" stroke="#212121" stroke-linecap="round" stroke-linejoin="round" stroke-width="1.5px"></path><path class="a" d="M7.879 6.75V6" fill="none" stroke="#212121" stroke-linecap="round" stroke-linejoin="round" stroke-width="1.5px"></path><path class="a" d="M7.879 13.5v-.75" fill="none" stroke="#212121" stroke-linecap="round" stroke-linejoin="round" stroke-width="1.5px"></path><path class="a" d="M21.526 13.507h-7.052a.748.748 0 0 0-.717.707l-1 8.164a.766.766 0 0 0 .718.872h9.048a.766.766 0 0 0 .718-.872l-1-8.164a.748.748 0 0 0-.715-.707z" fill="none" stroke="#212121" stroke-linecap="round" stroke-linejoin="round" stroke-width="1.5px"></path><path class="a" d="M19.84 16.478A1.879 1.879 0 0 1 18 18a1.879 1.879 0 0 1-1.839-1.513" fill="none" stroke="#212121" stroke-linecap="round" stroke-linejoin="round" stroke-width="1.5px"></path></g></svg>