<svg xmlns="http://www.w3.org/2000/svg" width="24" height="24" viewBox="0 0 24 24"><title>mobile shopping shop basket</title><g fill="#212121" class="nc-icon-wrapper"><defs></defs><path class="a" d="M21.749 17.25h-7.5a1.5 1.5 0 0 0-1.4 2.026l1.307 3.487a.75.75 0 0 0 .7.487h6.287a.751.751 0 0 0 .7-.487l1.307-3.487a1.5 1.5 0 0 0-1.401-2.026z" fill="none" stroke="#212121" stroke-linecap="round" stroke-linejoin="round" stroke-width="1.5px"></path><path class="a" d="M14.337 17.25l1.5-3.75" fill="none" stroke="#212121" stroke-linecap="round" stroke-linejoin="round" stroke-width="1.5px"></path><path class="a" d="M21.663 17.25l-1.5-3.75" fill="none" stroke="#212121" stroke-linecap="round" stroke-linejoin="round" stroke-width="1.5px"></path><path class="a" d="M11.25 23.25h-4.5a3 3 0 0 1-3-3V9" fill="none" stroke="#212121" stroke-linecap="round" stroke-linejoin="round" stroke-width="1.5px"></path><path class="a" d="M15.75 9v1.5" fill="none" stroke="#212121" stroke-linecap="round" stroke-linejoin="round" stroke-width="1.5px"></path><path class="a" d="M3.75 18.75h6" fill="none" stroke="#212121" stroke-linecap="round" stroke-linejoin="round" stroke-width="1.5px"></path><path class="a" d="M12.75 6.545a2.769 2.769 0 0 0 3 2.455 2.769 2.769 0 0 0 3-2.455L16.924 1.39a.978.978 0 0 0-.976-.64H3.552a.977.977 0 0 0-.976.64L.75 6.545A2.769 2.769 0 0 0 3.75 9a2.769 2.769 0 0 0 3-2.455A2.769 2.769 0 0 0 9.75 9a2.769 2.769 0 0 0 3-2.455z" fill="none" stroke="#212121" stroke-linecap="round" stroke-linejoin="round" stroke-width="1.5px"></path><path class="a" d="M6.75.75v5.795" fill="none" stroke="#212121" stroke-linecap="round" stroke-linejoin="round" stroke-width="1.5px"></path><path class="a" d="M12.75.75v5.795" fill="none" stroke="#212121" stroke-linecap="round" stroke-linejoin="round" stroke-width="1.5px"></path><path class="a" d="M16.5 19.5V21" fill="none" stroke="#212121" stroke-linecap="round" stroke-linejoin="round" stroke-width="1.5px"></path><path class="a" d="M19.5 19.5V21" fill="none" stroke="#212121" stroke-linecap="round" stroke-linejoin="round" stroke-width="1.5px"></path></g></svg>