<svg xmlns="http://www.w3.org/2000/svg" width="24" height="24" viewBox="0 0 24 24"><title>Modern Architecture Top</title><g fill="#212121" class="nc-icon-wrapper"><defs></defs><path class="a" d="M12 3V.75" fill="none" stroke="#212121" stroke-linecap="round" stroke-linejoin="round" stroke-width="1.5px"></path><path class="a" d="M12 23.25V11.509" fill="none" stroke="#212121" stroke-linecap="round" stroke-linejoin="round" stroke-width="1.5px"></path><path class="a" d="M5.776 23.25A14.17 14.17 0 0 0 12 11.509a13.853 13.853 0 0 0-2.373-7.762H8.086L8.7 7.84A10.4 10.4 0 0 1 .75 19.5" fill="none" stroke="#212121" stroke-linecap="round" stroke-linejoin="round" stroke-width="1.5px"></path><path class="a" d="M18.224 23.25A14.17 14.17 0 0 1 12 11.509a13.853 13.853 0 0 1 2.373-7.762h1.541L15.3 7.84a10.4 10.4 0 0 0 7.95 11.66" fill="none" stroke="#212121" stroke-linecap="round" stroke-linejoin="round" stroke-width="1.5px"></path></g></svg>