<svg xmlns="http://www.w3.org/2000/svg" width="24" height="24" viewBox="0 0 24 24"><title>Modern Architecture 1</title><g fill="#212121" class="nc-icon-wrapper"><defs></defs><path class="a" d="M11.755 22.768a106.345 106.345 0 0 1-1.516-13.142c0-4.485 5.56-5.559 5.56-5.559" fill="none" stroke="#212121" stroke-linecap="round" stroke-linejoin="round" stroke-width="1.5px"></path><path class="a" d="M4.973 22.768A106.345 106.345 0 0 0 6.489 9.626c0-4.485-5.56-5.559-5.56-5.559" fill="none" stroke="#212121" stroke-linecap="round" stroke-linejoin="round" stroke-width="1.5px"></path><path class="a" d="M.75 22.768h22.5" fill="none" stroke="#212121" stroke-linecap="round" stroke-linejoin="round" stroke-width="1.5px"></path><path class="a" d="M7.236 4.71a6.9 6.9 0 0 0-3.747-2.7" fill="none" stroke="#212121" stroke-linecap="round" stroke-linejoin="round" stroke-width="1.5px"></path><path class="a" d="M9.489 4.715a6.9 6.9 0 0 1 3.75-2.706" fill="none" stroke="#212121" stroke-linecap="round" stroke-linejoin="round" stroke-width="1.5px"></path><path class="a" d="M6.305 13.018h4.119" fill="none" stroke="#212121" stroke-linecap="round" stroke-linejoin="round" stroke-width="1.5px"></path><path class="a" d="M20.967 22.768s-1.516-5.971-1.516-9.1 3.538-3.538 3.538-3.538" fill="none" stroke="#212121" stroke-linecap="round" stroke-linejoin="round" stroke-width="1.5px"></path><path class="a" d="M14.511 22.768s1.516-5.971 1.516-9.1-3.538-3.538-3.538-3.538" fill="none" stroke="#212121" stroke-linecap="round" stroke-linejoin="round" stroke-width="1.5px"></path><path class="a" d="M14.739 7.768a9.06 9.06 0 0 1 4.5 5.152l.212.75" fill="none" stroke="#212121" stroke-linecap="round" stroke-linejoin="round" stroke-width="1.5px"></path><path class="a" d="M20.739 7.768a9.42 9.42 0 0 0-3 2.4" fill="none" stroke="#212121" stroke-linecap="round" stroke-linejoin="round" stroke-width="1.5px"></path><path class="a" d="M5.492 2.959L6.992 1" fill="none" stroke="#212121" stroke-linecap="round" stroke-linejoin="round" stroke-width="1.5px"></path><path class="a" d="M11.175 2.959L9.674 1" fill="none" stroke="#212121" stroke-linecap="round" stroke-linejoin="round" stroke-width="1.5px"></path></g></svg>