<svg xmlns="http://www.w3.org/2000/svg" width="24" height="24" viewBox="0 0 24 24"><title>modern tv curvy edge</title><g fill="#212121" class="nc-icon-wrapper"><defs></defs><path class="a" d="M7.5 21.277h9" fill="none" stroke="#212121" stroke-linecap="round" stroke-linejoin="round" stroke-width="1.5px"></path><path class="a" d="M12 16.777v4.5" fill="none" stroke="#212121" stroke-linecap="round" stroke-linejoin="round" stroke-width="1.5px"></path><path class="a" d="M23.25 15.828a1.5 1.5 0 0 1-1.669 1.493 84.606 84.606 0 0 0-19.16 0A1.5 1.5 0 0 1 .75 15.83V4.223a1.5 1.5 0 0 1 1.671-1.49 84.646 84.646 0 0 0 19.158 0 1.5 1.5 0 0 1 1.671 1.49z" fill="none" stroke="#212121" stroke-linecap="round" stroke-linejoin="round" stroke-width="1.5px"></path><path class="a" d="M7.5 21.277h9" fill="none" stroke="#212121" stroke-linecap="round" stroke-linejoin="round" stroke-width="1.5px"></path><path class="a" d="M12 16.777v4.5" fill="none" stroke="#212121" stroke-linecap="round" stroke-linejoin="round" stroke-width="1.5px"></path><path class="a" d="M23.25 15.828a1.5 1.5 0 0 1-1.669 1.493 84.606 84.606 0 0 0-19.16 0A1.5 1.5 0 0 1 .75 15.83V4.223a1.5 1.5 0 0 1 1.671-1.49 84.646 84.646 0 0 0 19.158 0 1.5 1.5 0 0 1 1.671 1.49z" fill="none" stroke="#212121" stroke-linecap="round" stroke-linejoin="round" stroke-width="1.5px"></path></g></svg>