<svg xmlns="http://www.w3.org/2000/svg" width="24" height="24" viewBox="0 0 24 24"><title>Modern Architecture Building 2</title><g fill="#212121" class="nc-icon-wrapper"><defs></defs><path class="a" d="M15.533 1.61l-.3-.5a.751.751 0 0 0-.64-.36H9.442a.749.749 0 0 0-.643.364l-.3.5C4.374 8.015 4.4 15.817 7.32 22.789a.751.751 0 0 0 .692.461h8.011a.751.751 0 0 0 .692-.461c2.92-6.972 2.946-14.774-1.182-21.179z" fill="none" stroke="#212121" stroke-linecap="round" stroke-linejoin="round" stroke-width="1.5px"></path><path class="a" d="M17.325 21.2a18.043 18.043 0 0 1-12-10.118" fill="none" stroke="#212121" stroke-linecap="round" stroke-linejoin="round" stroke-width="1.5px"></path><path class="a" d="M6.373 6h11.289" fill="none" stroke="#212121" stroke-linecap="round" stroke-linejoin="round" stroke-width="1.5px"></path><path class="a" d="M18.636 15.557A18.063 18.063 0 0 1 9.576 6" fill="none" stroke="#212121" stroke-linecap="round" stroke-linejoin="round" stroke-width="1.5px"></path><path class="a" d="M6.709 21.2a18.04 18.04 0 0 0 12-10.118" fill="none" stroke="#212121" stroke-linecap="round" stroke-linejoin="round" stroke-width="1.5px"></path><path class="a" d="M5.4 15.557A18.065 18.065 0 0 0 14.459 6" fill="none" stroke="#212121" stroke-linecap="round" stroke-linejoin="round" stroke-width="1.5px"></path><path class="a" d="M7.517 6A14.614 14.614 0 0 0 14.951.842" fill="none" stroke="#212121" stroke-linecap="round" stroke-linejoin="round" stroke-width="1.5px"></path></g></svg>