<svg xmlns="http://www.w3.org/2000/svg" width="24" height="24" viewBox="0 0 24 24"><title>modern weapon gun 1</title><g fill="#212121" class="nc-icon-wrapper"><defs></defs><path class="a" d="M9 23.25H7.5" fill="none" stroke="#212121" stroke-linecap="round" stroke-linejoin="round" stroke-width="1.5px"></path><path class="a" d="M19.5 6h3.75v3H19.5z" fill="none" stroke="#212121" stroke-linecap="round" stroke-linejoin="round" stroke-width="1.5px"></path><path class="a" d="M17.651.75a.75.75 0 0 0-.624.334L15.75 3H6v-.75A1.5 1.5 0 0 0 4.5.75H2.25L.75 3v8.114a1.5 1.5 0 0 0 .775 1.314L3.469 13.5l-1.114 8.907a.751.751 0 0 0 .745.843h4.4l1.219-9.75H18.75a.75.75 0 0 0 .75-.75V1.5a.75.75 0 0 0-.75-.75z" fill="none" stroke="#212121" stroke-linecap="round" stroke-linejoin="round" stroke-width="1.5px"></path><path class="a" d="M.75 9H19.5" fill="none" stroke="#212121" stroke-linecap="round" stroke-linejoin="round" stroke-width="1.5px"></path><path class="a" d="M10.5 6H12" fill="none" stroke="#212121" stroke-linecap="round" stroke-linejoin="round" stroke-width="1.5px"></path><path class="a" d="M8.344 16.5h2.485a1.5 1.5 0 0 0 1.455-1.136l.466-1.864" fill="none" stroke="#212121" stroke-linecap="round" stroke-linejoin="round" stroke-width="1.5px"></path></g></svg>