<svg xmlns="http://www.w3.org/2000/svg" width="24" height="24" viewBox="0 0 24 24"><title>modern weapon gun</title><g fill="#212121" class="nc-icon-wrapper"><defs></defs><path class="a" d="M20.25 3.25h-15a4.5 4.5 0 0 0-4.5 4.5v4.5a2.771 2.771 0 0 1 2.71 3.35l-1.21 5.65H9l1.674-7.814a1.5 1.5 0 0 1 1.467-1.186h8.109z" fill="none" stroke="#212121" stroke-linecap="round" stroke-linejoin="round" stroke-width="1.5px"></path><path class="a" d="M20.25 4.75h2.5a.5.5 0 0 1 .5.5v3.5a.5.5 0 0 1-.5.5h-2.5v-4.5z" fill="none" stroke="#212121" stroke-linecap="round" stroke-linejoin="round" stroke-width="1.5px"></path><path class="a" d="M10.286 15.25h3.037a1.5 1.5 0 0 0 1.342-.829l1.085-2.171" fill="none" stroke="#212121" stroke-linecap="round" stroke-linejoin="round" stroke-width="1.5px"></path><path class="a" d="M9 21.25h2.25" fill="none" stroke="#212121" stroke-linecap="round" stroke-linejoin="round" stroke-width="1.5px"></path><path class="a" d="M15.75 3.25V5.5a.75.75 0 0 1-.75.75h-4.5a.75.75 0 0 1-.75-.75V3.25" fill="none" stroke="#212121" stroke-linecap="round" stroke-linejoin="round" stroke-width="1.5px"></path><path class="a" d="M11.25 9.25H.75" fill="none" stroke="#212121" stroke-linecap="round" stroke-linejoin="round" stroke-width="1.5px"></path><path class="a" d="M4.554 3.304L3 1.75" fill="none" stroke="#212121" stroke-linecap="round" stroke-linejoin="round" stroke-width="1.5px"></path></g></svg>