<svg xmlns="http://www.w3.org/2000/svg" width="24" height="24" viewBox="0 0 24 24"><title>modern weapon bullets</title><g fill="#212121" class="nc-icon-wrapper"><defs></defs><path class="a" d="M3.75 6.75h6v16.5h-6z" fill="none" stroke="#212121" stroke-linecap="round" stroke-linejoin="round" stroke-width="1.5px"></path><path class="a" d="M3.75 6.75v-.343a6.416 6.416 0 0 1 1.879-4.536 1.586 1.586 0 0 1 2.242 0A6.416 6.416 0 0 1 9.75 6.407v.343z" fill="none" stroke="#212121" stroke-linecap="round" stroke-linejoin="round" stroke-width="1.5px"></path><path class="a" d="M2.25 23.25h9" fill="none" stroke="#212121" stroke-linecap="round" stroke-linejoin="round" stroke-width="1.5px"></path><path class="a" d="M20.25 17.25h-6V.75h6z" fill="none" stroke="#212121" stroke-linecap="round" stroke-linejoin="round" stroke-width="1.5px"></path><path class="a" d="M20.25 17.25v.343a6.416 6.416 0 0 1-1.879 4.536 1.586 1.586 0 0 1-2.242 0 6.416 6.416 0 0 1-1.879-4.536v-.343z" fill="none" stroke="#212121" stroke-linecap="round" stroke-linejoin="round" stroke-width="1.5px"></path><path class="a" d="M21.75.75h-9" fill="none" stroke="#212121" stroke-linecap="round" stroke-linejoin="round" stroke-width="1.5px"></path></g></svg>