<svg xmlns="http://www.w3.org/2000/svg" width="24" height="24" viewBox="0 0 24 24"><title>modern tv remote hand</title><g fill="#212121" class="nc-icon-wrapper"><defs></defs><path class="a" d="M7.687 12.75c.157 0-.375-.058-.375.375a.375.375 0 1 0 .375-.375" fill="none" stroke="#212121" stroke-linecap="round" stroke-linejoin="round" stroke-width="1.5px"></path><path class="a" d="M7.687 17.25c.157 0-.375-.058-.375.375a.375.375 0 1 0 .375-.375" fill="none" stroke="#212121" stroke-linecap="round" stroke-linejoin="round" stroke-width="1.5px"></path><path class="a" d="M13.688 2.873a9.541 9.541 0 0 0-12 0" fill="none" stroke="#212121" stroke-linecap="round" stroke-linejoin="round" stroke-width="1.5px"></path><path class="a" d="M4.187 5.476a5.567 5.567 0 0 1 7 0" fill="none" stroke="#212121" stroke-linecap="round" stroke-linejoin="round" stroke-width="1.5px"></path><path class="a" d="M9.562 23.25h-3.75a3 3 0 0 1-3-3v-9a3 3 0 0 1 3-3h3.75a3 3 0 0 1 3 3" fill="none" stroke="#212121" stroke-linecap="round" stroke-linejoin="round" stroke-width="1.5px"></path><path class="a" d="M15.563 15l-1.674-1.255a1.568 1.568 0 0 0-2.246.385 1.566 1.566 0 0 0 0 1.74l1.644 2.467a4.5 4.5 0 0 0 2.073 1.682l2.453.981v2.25" fill="none" stroke="#212121" stroke-linecap="round" stroke-linejoin="round" stroke-width="1.5px"></path><path class="a" d="M14.259 9.513l4.149 1.778a4.5 4.5 0 0 1 2.364 2.364l1.177 2.745a4.5 4.5 0 0 1 .364 1.773v5.077" fill="none" stroke="#212121" stroke-linecap="round" stroke-linejoin="round" stroke-width="1.5px"></path></g></svg>