<svg xmlns="http://www.w3.org/2000/svg" width="24" height="24" viewBox="0 0 24 24"><title>modern tv 3d glasses</title><g fill="#212121" class="nc-icon-wrapper"><defs></defs><path class="a" d="M13.458 14.738l-.134-.25a1.5 1.5 0 0 0-2.648 0l-1.237 2.323a1.5 1.5 0 0 1-1.06.439H5.25a4.5 4.5 0 0 1-4.5-4.5v-3a1.5 1.5 0 0 1 1.5-1.5h19.5a1.5 1.5 0 0 1 1.5 1.5v3a4.483 4.483 0 0 1-.445 1.953" fill="none" stroke="#212121" stroke-linecap="round" stroke-linejoin="round" stroke-width="1.5px"></path><path class="a" d="M.958 9l3.11-5.493A4.551 4.551 0 0 1 8.25.75" fill="none" stroke="#212121" stroke-linecap="round" stroke-linejoin="round" stroke-width="1.5px"></path><path class="a" d="M23.042 9l-3.11-5.493A4.551 4.551 0 0 0 15.75.75" fill="none" stroke="#212121" stroke-linecap="round" stroke-linejoin="round" stroke-width="1.5px"></path><path class="a" d="M14.25 18.362a1.5 1.5 0 1 1 1.45 1.888 1.5 1.5 0 1 1-1.445 1.9" fill="none" stroke="#212121" stroke-linecap="round" stroke-linejoin="round" stroke-width="1.5px"></path><path class="a" d="M20.2 23.25a2.751 2.751 0 0 0 3-2.4v-1.2a2.751 2.751 0 0 0-3-2.4z" fill="none" stroke="#212121" stroke-linecap="round" stroke-linejoin="round" stroke-width="1.5px"></path></g></svg>