<svg xmlns="http://www.w3.org/2000/svg" width="24" height="24" viewBox="0 0 24 24"><title>modern music bass guitar</title><g fill="#212121" class="nc-icon-wrapper"><defs></defs><path class="a" d="M8.269 6L8.25.75l-3 1.463v3.801L8.269 6z" fill="none" stroke="#212121" stroke-linecap="round" stroke-linejoin="round" stroke-width="1.5px"></path><path class="a" d="M6.75 6v9.713" fill="none" stroke="#212121" stroke-linecap="round" stroke-linejoin="round" stroke-width="1.5px"></path><path class="a" d="M3.75 3.713l1.5-.01" fill="none" stroke="#212121" stroke-linecap="round" stroke-linejoin="round" stroke-width="1.5px"></path><path class="a" d="M9.633 3.703l-1.383.005" fill="none" stroke="#212121" stroke-linecap="round" stroke-linejoin="round" stroke-width="1.5px"></path><path class="a" d="M6.23 11.213a1.5 1.5 0 0 0-1.383.92L.856 21.68a1.1 1.1 0 0 0 1.4 1.49l4.474-1.893 4.486 1.893a1.1 1.1 0 0 0 1.338-.43 1.1 1.1 0 0 0 .064-1.06l-4-9.547a1.5 1.5 0 0 0-1.384-.92z" fill="none" stroke="#212121" stroke-linecap="round" stroke-linejoin="round" stroke-width="1.5px"></path><path class="a" d="M14.439 23.236l6.858.014a1.964 1.964 0 0 0 1.953-1.976V9.462A1.964 1.964 0 0 0 21.283 7.5l-10.05.016" fill="none" stroke="#212121" stroke-linecap="round" stroke-linejoin="round" stroke-width="1.5px"></path><path class="a" d="M23.25 10.5H11.233" fill="none" stroke="#212121" stroke-linecap="round" stroke-linejoin="round" stroke-width="1.5px"></path><path class="a" d="M13.5 6l.004 1.513" fill="none" stroke="#212121" stroke-linecap="round" stroke-linejoin="round" stroke-width="1.5px"></path><path class="a" d="M16.496 6l.004 1.508" fill="none" stroke="#212121" stroke-linecap="round" stroke-linejoin="round" stroke-width="1.5px"></path><path class="a" d="M19.496 6l.004 1.5" fill="none" stroke="#212121" stroke-linecap="round" stroke-linejoin="round" stroke-width="1.5px"></path><path class="a" d="M13.468 15.826a3.005 3.005 0 1 1 1.563 3.333" fill="none" stroke="#212121" stroke-linecap="round" stroke-linejoin="round" stroke-width="1.5px"></path></g></svg>