<svg xmlns="http://www.w3.org/2000/svg" width="24" height="24" viewBox="0 0 24 24"><title>modern tv 3d</title><g fill="#212121" class="nc-icon-wrapper"><defs></defs><path class="a" d="M15 13.5a3 3 0 0 0 3-3V9a3 3 0 0 0-3-3h-1.5v7.5z" fill="none" stroke="#212121" stroke-linecap="round" stroke-linejoin="round" stroke-width="1.5px"></path><path class="a" d="M6 7.5A1.5 1.5 0 0 1 7.5 6h1.135a1.873 1.873 0 0 1-.008 3.75 1.873 1.873 0 0 1 .008 3.75H7.5A1.5 1.5 0 0 1 6 12" fill="none" stroke="#212121" stroke-linecap="round" stroke-linejoin="round" stroke-width="1.5px"></path><rect class="a" x=".75" y="1.5" width="22.5" height="16.5" rx="1" ry="1" fill="none" stroke="#212121" stroke-linecap="round" stroke-linejoin="round" stroke-width="1.5px"></rect><path class="a" d="M14.25 22.5h-4.5l.75-4.5h3l.75 4.5z" fill="none" stroke="#212121" stroke-linecap="round" stroke-linejoin="round" stroke-width="1.5px"></path><path class="a" d="M6.75 22.5h10.5" fill="none" stroke="#212121" stroke-linecap="round" stroke-linejoin="round" stroke-width="1.5px"></path></g></svg>