<svg xmlns="http://www.w3.org/2000/svg" width="24" height="24" viewBox="0 0 24 24"><title>modern weapon machine gun</title><g fill="#212121" class="nc-icon-wrapper"><defs></defs><path class="a" d="M.75 17.25l6 6" fill="none" stroke="#212121" stroke-linecap="round" stroke-linejoin="round" stroke-width="1.5px"></path><path class="a" d="M9 9l1.5 1.5" fill="none" stroke="#212121" stroke-linecap="round" stroke-linejoin="round" stroke-width="1.5px"></path><path class="a" d="M5.25 21.75L17.679 9.321a1.5 1.5 0 0 1 .766-.41l2.324-.465a1.5 1.5 0 0 0 1.177-1.177L23.25.75l-6.519 1.3a1.5 1.5 0 0 0-1.177 1.177l-.465 2.324a1.5 1.5 0 0 1-.41.766L2.25 18.75" fill="none" stroke="#212121" stroke-linecap="round" stroke-linejoin="round" stroke-width="1.5px"></path><path class="a" d="M13.5 6l4.5 4.5" fill="none" stroke="#212121" stroke-linecap="round" stroke-linejoin="round" stroke-width="1.5px"></path><path class="a" d="M13.5 13.5a3.747 3.747 0 0 0 3.558.986" fill="none" stroke="#212121" stroke-linecap="round" stroke-linejoin="round" stroke-width="1.5px"></path><path class="a" d="M10.5 16.5l2.413 4.315a.751.751 0 0 1-.125.9L11.78 22.72a.749.749 0 0 1-1.06 0L7.5 19.5" fill="none" stroke="#212121" stroke-linecap="round" stroke-linejoin="round" stroke-width="1.5px"></path></g></svg>