<svg xmlns="http://www.w3.org/2000/svg" width="24" height="24" viewBox="0 0 24 24"><title>modern music cymbal</title><g fill="#212121" class="nc-icon-wrapper"><defs></defs><path class="a" d="M13.501 23.25v-7.598" fill="none" stroke="#212121" stroke-linecap="round" stroke-linejoin="round" stroke-width="1.5px"></path><path class="a" d="M10.501 15.653v7.597" fill="none" stroke="#212121" stroke-linecap="round" stroke-linejoin="round" stroke-width="1.5px"></path><path class="a" d="M13.5 5.348V2.767a.519.519 0 0 0-.521-.517h-1.956a.519.519 0 0 0-.517.521l.005 2.572" fill="none" stroke="#212121" stroke-linecap="round" stroke-linejoin="round" stroke-width="1.5px"></path><path class="a" d="M12.001.75v1.5" fill="none" stroke="#212121" stroke-linecap="round" stroke-linejoin="round" stroke-width="1.5px"></path><path class="a" d="M2.25 9h19.5" fill="none" stroke="#212121" stroke-linecap="round" stroke-linejoin="round" stroke-width="1.5px"></path><path class="a" d="M19.685 9a1.729 1.729 0 0 0-.185-.75c-.75-1.5-4.186-3-7.5-3s-6.75 1.5-7.5 3a1.729 1.729 0 0 0-.185.75" fill="none" stroke="#212121" stroke-linecap="round" stroke-linejoin="round" stroke-width="1.5px"></path><path class="a" d="M2.25 12h19.5" fill="none" stroke="#212121" stroke-linecap="round" stroke-linejoin="round" stroke-width="1.5px"></path><path class="a" d="M19.685 12a1.729 1.729 0 0 1-.185.75c-.75 1.5-4.186 3-7.5 3s-6.75-1.5-7.5-3a1.729 1.729 0 0 1-.185-.75" fill="none" stroke="#212121" stroke-linecap="round" stroke-linejoin="round" stroke-width="1.5px"></path></g></svg>