<svg xmlns="http://www.w3.org/2000/svg" width="24" height="24" viewBox="0 0 24 24"><title>modern weapon tank machine gun</title><g fill="#212121" class="nc-icon-wrapper"><defs></defs><circle class="a" cx="9.75" cy="20.25" r="3" fill="none" stroke="#212121" stroke-linecap="round" stroke-linejoin="round" stroke-width="1.5px"></circle><path class="a" d="M6.75 20.25l-6 3" fill="none" stroke="#212121" stroke-linecap="round" stroke-linejoin="round" stroke-width="1.5px"></path><path class="a" d="M12.75 20.25h6.879a1.5 1.5 0 0 1 1.06.439l2.561 2.561" fill="none" stroke="#212121" stroke-linecap="round" stroke-linejoin="round" stroke-width="1.5px"></path><path class="a" d="M11.568 17.864L14.03 15.4a.75.75 0 0 0 0-1.061l-2.651-2.652a1.5 1.5 0 0 0-2.122 0L5.545 15.4a.749.749 0 0 0 0 1.06l1.885 1.888" fill="none" stroke="#212121" stroke-linecap="round" stroke-linejoin="round" stroke-width="1.5px"></path><path class="a" d="M11.845 12.155L18.75 5.25" fill="none" stroke="#212121" stroke-linecap="round" stroke-linejoin="round" stroke-width="1.5px"></path><path class="a" d="M18.75 5.25a1.9 1.9 0 0 0 2.825-.156L23.25 3 21 .75l-2.094 1.675a1.9 1.9 0 0 0-.156 2.825z" fill="none" stroke="#212121" stroke-linecap="round" stroke-linejoin="round" stroke-width="1.5px"></path><path class="a" d="M6.723 14.223l-1.162-1.162a1.5 1.5 0 0 1 0-2.122L6.75 9.75" fill="none" stroke="#212121" stroke-linecap="round" stroke-linejoin="round" stroke-width="1.5px"></path></g></svg>