<svg xmlns="http://www.w3.org/2000/svg" width="24" height="24" viewBox="0 0 24 24"><title>money wallet 1</title><g fill="#212121" class="nc-icon-wrapper"><defs></defs><path class="a" d="M21.75 18v3a1.5 1.5 0 0 1-1.5 1.5H3a2.25 2.25 0 0 1-2.25-2.25V3.75A2.25 2.25 0 0 1 3 1.5h15.75a1.5 1.5 0 0 1 1.5 1.5v2.25" fill="none" stroke="#212121" stroke-linecap="round" stroke-linejoin="round" stroke-width="1.5px"></path><path class="a" d="M21.75 18a1.5 1.5 0 0 0 1.5-1.5V12a1.5 1.5 0 0 0-1.5-1.5H18a3.75 3.75 0 0 0 0 7.5z" fill="none" stroke="#212121" stroke-linecap="round" stroke-linejoin="round" stroke-width="1.5px"></path><path class="a" d="M18 13.875a.375.375 0 1 1-.375.375.375.375 0 0 1 .375-.375" fill="none" stroke="#212121" stroke-linecap="round" stroke-linejoin="round" stroke-width="1.5px"></path><path class="a" d="M21.75 10.5V6.75a1.5 1.5 0 0 0-1.5-1.5H5.625a1.756 1.756 0 0 1-1.614-.895" fill="none" stroke="#212121" stroke-linecap="round" stroke-linejoin="round" stroke-width="1.5px"></path></g></svg>