<svg xmlns="http://www.w3.org/2000/svg" width="24" height="24" viewBox="0 0 24 24"><title>monetization phone</title><g fill="#212121" class="nc-icon-wrapper"><defs></defs><path class="a" d="M18.829 13.094a2.225 2.225 0 0 0 1.859.875c1.138 0 2.062-.693 2.062-1.547s-.924-1.547-2.062-1.547-2.063-.693-2.063-1.548.924-1.547 2.063-1.547a2.223 2.223 0 0 1 1.857.875" fill="none" stroke="#212121" stroke-linecap="round" stroke-linejoin="round" stroke-width="1.5px"></path><path class="a" d="M20.688 13.969V15" fill="none" stroke="#212121" stroke-linecap="round" stroke-linejoin="round" stroke-width="1.5px"></path><path class="a" d="M20.688 6.75v1.03" fill="none" stroke="#212121" stroke-linecap="round" stroke-linejoin="round" stroke-width="1.5px"></path><path class="a" d="M1.25 18.75h13.5v1.5a3 3 0 0 1-3 3h-7.5a3 3 0 0 1-3-3V3.75a3 3 0 0 1 3-3h7.5a3 3 0 0 1 3 3v1.5" fill="none" stroke="#212121" stroke-linecap="round" stroke-linejoin="round" stroke-width="1.5px"></path><path class="a" d="M11.75 8.25h3" fill="none" stroke="#212121" stroke-linecap="round" stroke-linejoin="round" stroke-width="1.5px"></path><path class="a" d="M11.75 14.25h3" fill="none" stroke="#212121" stroke-linecap="round" stroke-linejoin="round" stroke-width="1.5px"></path><path class="a" d="M9.5 11.25h6.75" fill="none" stroke="#212121" stroke-linecap="round" stroke-linejoin="round" stroke-width="1.5px"></path><path class="a" d="M7.25 11.25H6.5" fill="none" stroke="#212121" stroke-linecap="round" stroke-linejoin="round" stroke-width="1.5px"></path><path class="a" d="M9.5 8.25h-.75" fill="none" stroke="#212121" stroke-linecap="round" stroke-linejoin="round" stroke-width="1.5px"></path><path class="a" d="M9.5 14.25h-.75" fill="none" stroke="#212121" stroke-linecap="round" stroke-linejoin="round" stroke-width="1.5px"></path></g></svg>