<svg xmlns="http://www.w3.org/2000/svg" width="24" height="24" viewBox="0 0 24 24"><title>money bag euro</title><g fill="#212121" class="nc-icon-wrapper"><defs></defs><path class="a" d="M8.279 14.25h4.5" fill="none" stroke="#212121" stroke-linecap="round" stroke-linejoin="round" stroke-width="1.5px"></path><path class="a" d="M8.279 17.25h4.5" fill="none" stroke="#212121" stroke-linecap="round" stroke-linejoin="round" stroke-width="1.5px"></path><path class="a" d="M12.779 11.525a4.475 4.475 0 0 0 0 8.45" fill="none" stroke="#212121" stroke-linecap="round" stroke-linejoin="round" stroke-width="1.5px"></path><path class="a" d="M6.779 8.25h10.5" fill="none" stroke="#212121" stroke-linecap="round" stroke-linejoin="round" stroke-width="1.5px"></path><path class="a" d="M15.585 5.036l1.438-2.876a.751.751 0 0 0-1.007-1.006l-1.895.946a.749.749 0 0 1-.959-.255l-.509-.763a.75.75 0 0 0-1.248 0l-.509.763a.75.75 0 0 1-.959.255l-1.9-.948A.75.75 0 0 0 7.035 2.16l1.41 2.82" fill="none" stroke="#212121" stroke-linecap="round" stroke-linejoin="round" stroke-width="1.5px"></path><path class="a" d="M7.192 10.5l-2.76 3.2a5.932 5.932 0 0 0 4.7 9.549h5.79a5.932 5.932 0 0 0 4.7-9.549l-2.76-3.2" fill="none" stroke="#212121" stroke-linecap="round" stroke-linejoin="round" stroke-width="1.5px"></path></g></svg>