<svg xmlns="http://www.w3.org/2000/svg" width="24" height="24" viewBox="0 0 24 24"><title>monetization user monitor 1</title><g fill="#212121" class="nc-icon-wrapper"><defs></defs><path class="a" d="M11 .75h1" fill="none" stroke="#212121" stroke-linecap="round" stroke-linejoin="round" stroke-width="1.5px"></path><circle class="a" cx="6" cy="3.75" r="3" fill="none" stroke="#212121" stroke-linecap="round" stroke-linejoin="round" stroke-width="1.5px"></circle><path class="a" d="M11.25 13.5a5.25 5.25 0 0 0-10.5 0v2.25H3l.75 7.5h4.5l.75-7.5h2.25z" fill="none" stroke="#212121" stroke-linecap="round" stroke-linejoin="round" stroke-width="1.5px"></path><path class="a" d="M6 8.25v4.5" fill="none" stroke="#212121" stroke-linecap="round" stroke-linejoin="round" stroke-width="1.5px"></path><path class="a" d="M19.5.75h1.875a1.838 1.838 0 0 1 1.875 1.8v8.4a1.838 1.838 0 0 1-1.875 1.8H15" fill="none" stroke="#212121" stroke-linecap="round" stroke-linejoin="round" stroke-width="1.5px"></path><path class="a" d="M15.75 12.75v3" fill="none" stroke="#212121" stroke-linecap="round" stroke-linejoin="round" stroke-width="1.5px"></path><path class="a" d="M14.25 15.75H18" fill="none" stroke="#212121" stroke-linecap="round" stroke-linejoin="round" stroke-width="1.5px"></path><path class="a" d="M13.892 7.094a2.221 2.221 0 0 0 1.858.875c1.139 0 2.063-.693 2.063-1.547s-.924-1.547-2.063-1.547-2.062-.693-2.062-1.548.923-1.547 2.062-1.547a2.224 2.224 0 0 1 1.858.875" fill="none" stroke="#212121" stroke-linecap="round" stroke-linejoin="round" stroke-width="1.5px"></path><path class="a" d="M15.75 7.969V9" fill="none" stroke="#212121" stroke-linecap="round" stroke-linejoin="round" stroke-width="1.5px"></path><path class="a" d="M15.75.75v1.03" fill="none" stroke="#212121" stroke-linecap="round" stroke-linejoin="round" stroke-width="1.5px"></path></g></svg>