<svg xmlns="http://www.w3.org/2000/svg" width="24" height="24" viewBox="0 0 24 24"><title>monitor heart notes</title><g fill="#212121" class="nc-icon-wrapper"><defs></defs><path class="cls-1" d="M20.25 12.75v-7.5a1.5 1.5 0 0 0-1.5-1.5h-3" fill="none" stroke="#212121" stroke-linecap="round" stroke-linejoin="round" stroke-width="1.5px"></path><path class="cls-1" d="M3.75 18.75v3a1.5 1.5 0 0 0 1.5 1.5h13.5a1.5 1.5 0 0 0 1.5-1.5v-3" fill="none" stroke="#212121" stroke-linecap="round" stroke-linejoin="round" stroke-width="1.5px"></path><path class="cls-1" d="M8.25 3.75h-3a1.5 1.5 0 0 0-1.5 1.5v7.5" fill="none" stroke="#212121" stroke-linecap="round" stroke-linejoin="round" stroke-width="1.5px"></path><path class="cls-1" d="M.75 15.75h5.768a.376.376 0 0 0 .336-.207L8.61 12.03a.375.375 0 0 1 .688.039l2.384 6.558a.375.375 0 0 0 .7.024l2.3-5.175a.375.375 0 0 1 .678-.015l1.04 2.082a.376.376 0 0 0 .336.207h6.514" fill="none" stroke="#212121" stroke-linecap="round" stroke-linejoin="round" stroke-width="1.5px"></path><path class="cls-1" d="M14.205 2.25A2.19 2.19 0 0 0 12 .75a2.19 2.19 0 0 0-2.2 1.5H9a.75.75 0 0 0-.75.75v3a.75.75 0 0 0 .75.75h6a.75.75 0 0 0 .75-.75V3a.75.75 0 0 0-.75-.75z" fill="none" stroke="#212121" stroke-linecap="round" stroke-linejoin="round" stroke-width="1.5px"></path></g></svg>