<svg xmlns="http://www.w3.org/2000/svg" width="24" height="24" viewBox="0 0 24 24"><title>monitor www</title><g fill="#212121" class="nc-icon-wrapper"><defs></defs><path class="a" d="M.75 6.75v2.017a9 9 0 0 0 .644 3.342l.856 2.141L3.75 9l1.5 5.25.856-2.141a9 9 0 0 0 .644-3.342V6.75" fill="none" stroke="#212121" stroke-linecap="round" stroke-linejoin="round" stroke-width="1.5px"></path><path class="a" d="M9 6.75v2.017a9 9 0 0 0 .644 3.342l.856 2.141L12 9l1.5 5.25.856-2.141A9 9 0 0 0 15 8.767V6.75" fill="none" stroke="#212121" stroke-linecap="round" stroke-linejoin="round" stroke-width="1.5px"></path><path class="a" d="M17.25 6.75v2.017a9 9 0 0 0 .644 3.342l.856 2.141L20.25 9l1.5 5.25.856-2.141a9 9 0 0 0 .644-3.342V6.75" fill="none" stroke="#212121" stroke-linecap="round" stroke-linejoin="round" stroke-width="1.5px"></path><path class="a" d="M15 23.25H9l.75-4.5h4.5l.75 4.5z" fill="none" stroke="#212121" stroke-linecap="round" stroke-linejoin="round" stroke-width="1.5px"></path><path class="a" d="M6.75 23.25h10.5" fill="none" stroke="#212121" stroke-linecap="round" stroke-linejoin="round" stroke-width="1.5px"></path><path class="a" d="M.75.75h22.5" fill="none" stroke="#212121" stroke-linecap="round" stroke-linejoin="round" stroke-width="1.5px"></path><path class="a" d="M.75 18.75h22.5" fill="none" stroke="#212121" stroke-linecap="round" stroke-linejoin="round" stroke-width="1.5px"></path></g></svg>