<svg xmlns="http://www.w3.org/2000/svg" width="24" height="24" viewBox="0 0 24 24"><title>monitor heart 2</title><g fill="#212121" class="nc-icon-wrapper"><defs></defs><path class="a" d="M8.25 22.503h7.5" fill="none" stroke="#212121" stroke-linecap="round" stroke-linejoin="round" stroke-width="1.5px"></path><path class="a" d="M12 19.503v3" fill="none" stroke="#212121" stroke-linecap="round" stroke-linejoin="round" stroke-width="1.5px"></path><path class="a" d="M.75 15.753h22.5" fill="none" stroke="#212121" stroke-linecap="round" stroke-linejoin="round" stroke-width="1.5px"></path><rect class="a" x=".75" y="1.503" width="22.5" height="18" rx="1.5" ry="1.5" fill="none" stroke="#212121" stroke-linecap="round" stroke-linejoin="round" stroke-width="1.5px"></rect><path class="a" d="M15.93 5.349a1.9 1.9 0 0 0-2.751 0L12 6.568l-1.179-1.219a1.9 1.9 0 0 0-2.751 0 2.059 2.059 0 0 0 0 2.844l3.511 3.631a.579.579 0 0 0 .838 0l3.511-3.631a2.059 2.059 0 0 0 0-2.844z" fill="none" stroke="#212121" stroke-linecap="round" stroke-linejoin="round" stroke-width="1.5px"></path></g></svg>