<svg xmlns="http://www.w3.org/2000/svg" width="24" height="24" viewBox="0 0 24 24"><title>monitor star</title><g fill="#212121" class="nc-icon-wrapper"><defs></defs><path class="a" d="M8.25 20.25l.75-4.5" fill="none" stroke="#212121" stroke-linecap="round" stroke-linejoin="round" stroke-width="1.5px"></path><path class="a" d="M6 20.25h3.75" fill="none" stroke="#212121" stroke-linecap="round" stroke-linejoin="round" stroke-width="1.5px"></path><path class="a" d="M.75 12.75h12" fill="none" stroke="#212121" stroke-linecap="round" stroke-linejoin="round" stroke-width="1.5px"></path><path class="a" d="M9 15.75H3.75a3 3 0 0 1-3-3v-9a3 3 0 0 1 3-3h16.5a3 3 0 0 1 3 3v9" fill="none" stroke="#212121" stroke-linecap="round" stroke-linejoin="round" stroke-width="1.5px"></path><path class="a" d="M17.952 11.68l1.538 4.073h3a.735.735 0 0 1 .51 1.283l-2.6 1.813 1.44 3.313a.785.785 0 0 1-1.117.982l-3.48-1.961-3.481 1.961a.785.785 0 0 1-1.117-.982l1.44-3.313-2.6-1.813A.734.734 0 0 1 12 15.753h3l1.54-4.073a.8.8 0 0 1 1.412 0z" fill="none" stroke="#212121" stroke-linecap="round" stroke-linejoin="round" stroke-width="1.5px"></path></g></svg>