<svg xmlns="http://www.w3.org/2000/svg" width="24" height="24" viewBox="0 0 24 24"><title>mood question</title><g fill="#212121" class="nc-icon-wrapper"><defs></defs><path class="a" d="M12 16.5" fill="none" stroke="#212121" stroke-linecap="round" stroke-linejoin="round" stroke-width="1.5px"></path><path class="a" d="M12 16.5a.375.375 0 1 0 .375.375A.375.375 0 0 0 12 16.5" fill="none" stroke="#212121" stroke-linecap="round" stroke-linejoin="round" stroke-width="1.5px"></path><path class="a" d="M9 10.5a3 3 0 1 1 3 3" fill="none" stroke="#212121" stroke-linecap="round" stroke-linejoin="round" stroke-width="1.5px"></path><path class="a" d="M23.25 12a3.751 3.751 0 0 0-2.618-3.576 3.75 3.75 0 0 0-5.056-5.056 3.751 3.751 0 0 0-7.152 0 3.75 3.75 0 0 0-5.056 5.056 3.751 3.751 0 0 0 0 7.152 3.75 3.75 0 0 0 5.056 5.056 3.751 3.751 0 0 0 7.152 0 3.75 3.75 0 0 0 5.056-5.056A3.752 3.752 0 0 0 23.25 12z" fill="none" stroke="#212121" stroke-linecap="round" stroke-linejoin="round" stroke-width="1.5px"></path></g></svg>