<svg xmlns="http://www.w3.org/2000/svg" width="24" height="24" viewBox="0 0 24 24"><title>mouse 2</title><g fill="#212121" class="nc-icon-wrapper"><defs></defs><path class="cls-1" d="M8.1 6.127A7.126 7.126 0 0 0 6.76 6a6 6 0 0 0 0 12h15a1.5 1.5 0 1 0 0-3c-1 0-.131.495-4.305-2.844A4.1 4.1 0 0 0 13.885 6a4.183 4.183 0 0 0-4.125 4.125 4.117 4.117 0 0 0 1.5 3.179" fill="none" stroke="#212121" stroke-linecap="round" stroke-linejoin="round" stroke-width="1.5px"></path><path class="cls-1" d="M16.135 14.25a.375.375 0 0 1 .375.375" fill="none" stroke="#212121" stroke-linecap="round" stroke-linejoin="round" stroke-width="1.5px"></path><path class="cls-1" d="M15.76 14.625a.375.375 0 0 1 .375-.375" fill="none" stroke="#212121" stroke-linecap="round" stroke-linejoin="round" stroke-width="1.5px"></path><path class="cls-1" d="M16.135 15a.375.375 0 0 1-.375-.375" fill="none" stroke="#212121" stroke-linecap="round" stroke-linejoin="round" stroke-width="1.5px"></path><path class="cls-1" d="M16.51 14.625a.375.375 0 0 1-.375.375" fill="none" stroke="#212121" stroke-linecap="round" stroke-linejoin="round" stroke-width="1.5px"></path></g></svg>