<svg xmlns="http://www.w3.org/2000/svg" width="24" height="24" viewBox="0 0 24 24"><title>mouse 3</title><g fill="#212121" class="nc-icon-wrapper"><defs></defs><path class="a" d="M6.75 23.25a6 6 0 0 1-6-6v-6a6 6 0 0 1 6-6 6 6 0 0 1 6 6v6a6 6 0 0 1-6 6z" fill="none" stroke="#212121" stroke-linecap="round" stroke-linejoin="round" stroke-width="1.5px"></path><path class="a" d="M.75 12.75h12" fill="none" stroke="#212121" stroke-linecap="round" stroke-linejoin="round" stroke-width="1.5px"></path><path class="a" d="M6.75 12.75v-7.5a4.5 4.5 0 0 1 4.5-4.5 4.5 4.5 0 0 1 4.5 4.5V7.5a3.75 3.75 0 0 0 3.75 3.75 3.75 3.75 0 0 0 3.75-3.75V.75" fill="none" stroke="#212121" stroke-linecap="round" stroke-linejoin="round" stroke-width="1.5px"></path></g></svg>