<svg xmlns="http://www.w3.org/2000/svg" width="24" height="24" viewBox="0 0 24 24"><title>movies director chair</title><g fill="#212121" class="nc-icon-wrapper"><defs></defs><path class="a" d="M6 1.476V.774" fill="none" stroke="#212121" stroke-linecap="round" stroke-linejoin="round" stroke-width="1.5px"></path><path class="a" d="M6 14.226v-2.968" fill="none" stroke="#212121" stroke-linecap="round" stroke-linejoin="round" stroke-width="1.5px"></path><path class="a" d="M18 1.476V.774" fill="none" stroke="#212121" stroke-linecap="round" stroke-linejoin="round" stroke-width="1.5px"></path><path class="a" d="M18 14.226v-3" fill="none" stroke="#212121" stroke-linecap="round" stroke-linejoin="round" stroke-width="1.5px"></path><path class="a" d="M18 11.226l-12 .032V1.476h12v9.75z" fill="none" stroke="#212121" stroke-linecap="round" stroke-linejoin="round" stroke-width="1.5px"></path><path class="a" d="M18.359 14.226H5.641l-1.264 1.292a1.018 1.018 0 0 0-.213 1.09.98.98 0 0 0 .9.618h13.868a.98.98 0 0 0 .9-.618 1.018 1.018 0 0 0-.213-1.09z" fill="none" stroke="#212121" stroke-linecap="round" stroke-linejoin="round" stroke-width="1.5px"></path><path class="a" d="M4.172 15.826l-1.607-6.85" fill="none" stroke="#212121" stroke-linecap="round" stroke-linejoin="round" stroke-width="1.5px"></path><path class="a" d="M19.575 15.469l1.894-6.493" fill="none" stroke="#212121" stroke-linecap="round" stroke-linejoin="round" stroke-width="1.5px"></path><path class="a" d="M6 8.976H.75" fill="none" stroke="#212121" stroke-linecap="round" stroke-linejoin="round" stroke-width="1.5px"></path><path class="a" d="M18 8.976h5.25" fill="none" stroke="#212121" stroke-linecap="round" stroke-linejoin="round" stroke-width="1.5px"></path><path class="a" d="M17.322 17.226l-10.572 6" fill="none" stroke="#212121" stroke-linecap="round" stroke-linejoin="round" stroke-width="1.5px"></path><path class="a" d="M6.75 17.226l10.5 6" fill="none" stroke="#212121" stroke-linecap="round" stroke-linejoin="round" stroke-width="1.5px"></path><path class="a" d="M11.755 4.325a.275.275 0 0 1 .49 0l.568 1.147a.272.272 0 0 0 .205.148l1.276.184a.273.273 0 0 1 .219.182.265.265 0 0 1-.067.275l-.927.9a.265.265 0 0 0-.077.236l.218 1.266a.268.268 0 0 1-.109.263.275.275 0 0 1-.287.019l-1.136-.595a.276.276 0 0 0-.256 0l-1.136.594a.275.275 0 0 1-.287-.019.268.268 0 0 1-.109-.263l.218-1.262a.265.265 0 0 0-.077-.236l-.927-.9a.265.265 0 0 1-.067-.275.273.273 0 0 1 .219-.189l1.276-.184a.272.272 0 0 0 .205-.148z" fill="none" stroke="#212121" stroke-linecap="round" stroke-linejoin="round" stroke-width="1.5px"></path></g></svg>