<svg xmlns="http://www.w3.org/2000/svg" width="24" height="24" viewBox="0 0 24 24"><title>movies 3d glasses</title><g fill="#212121" class="nc-icon-wrapper"><defs></defs><path class="a" d="M21.75 22.125h-6.129a1.5 1.5 0 0 1-1.06-.439L12 19.125l-2.561 2.561a1.5 1.5 0 0 1-1.06.439H2.25a1.5 1.5 0 0 1-1.5-1.5v-7.5a1.5 1.5 0 0 1 1.5-1.5h19.5a1.5 1.5 0 0 1 1.5 1.5v7.5a1.5 1.5 0 0 1-1.5 1.5z" fill="none" stroke="#212121" stroke-linecap="round" stroke-linejoin="round" stroke-width="1.5px"></path><path class="a" d="M15.75 19.125h4.5v-4.5h-6l1.5 4.5z" fill="none" stroke="#212121" stroke-linecap="round" stroke-linejoin="round" stroke-width="1.5px"></path><path class="a" d="M3.75 19.125h4.5l1.5-4.5h-6v4.5z" fill="none" stroke="#212121" stroke-linecap="round" stroke-linejoin="round" stroke-width="1.5px"></path><path class="a" d="M.958 12.375l3.11-7.743A4.551 4.551 0 0 1 8.25 1.875" fill="none" stroke="#212121" stroke-linecap="round" stroke-linejoin="round" stroke-width="1.5px"></path><path class="a" d="M23.042 12.375l-3.11-7.743a4.551 4.551 0 0 0-4.182-2.757" fill="none" stroke="#212121" stroke-linecap="round" stroke-linejoin="round" stroke-width="1.5px"></path></g></svg>