<svg xmlns="http://www.w3.org/2000/svg" width="24" height="24" viewBox="0 0 24 24"><title>movies sit drink</title><g fill="#212121" class="nc-icon-wrapper"><defs></defs><path class="a" d="M6.62 12h3.619l-.489 3.75H7.109L6.62 12z" fill="none" stroke="#212121" stroke-linecap="round" stroke-linejoin="round" stroke-width="1.5px"></path><path class="a" d="M7.826 12l.513-2.051A1.252 1.252 0 0 1 9.554 9h.979" fill="none" stroke="#212121" stroke-linecap="round" stroke-linejoin="round" stroke-width="1.5px"></path><circle class="a" cx="15.913" cy="8.332" r="2.25" fill="none" stroke="#212121" stroke-linecap="round" stroke-linejoin="round" stroke-width="1.5px"></circle><path class="a" d="M12.489 15.75v-.326a3.424 3.424 0 0 1 6.258-1.924l.188.3" fill="none" stroke="#212121" stroke-linecap="round" stroke-linejoin="round" stroke-width="1.5px"></path><path class="a" d="M3.75 13.5h-2a.991.991 0 0 1-1-.981V1.731a.991.991 0 0 1 1-.981h19a.991.991 0 0 1 1 .981V7.5" fill="none" stroke="#212121" stroke-linecap="round" stroke-linejoin="round" stroke-width="1.5px"></path><path class="a" d="M10.375 18.651L6.1 21.094a1.154 1.154 0 0 0 1.035 2.059l4.184-1.831" fill="none" stroke="#212121" stroke-linecap="round" stroke-linejoin="round" stroke-width="1.5px"></path><path class="a" d="M10.043 17.454a1.515 1.515 0 0 0 .087.5L12 23.25h7.826l3.344-9.917a1.517 1.517 0 0 0 .08-.485 1.648 1.648 0 0 0-1.694-1.6 2.025 2.025 0 0 0-1.8 1.048L17.87 15.75h-6.143a1.821 1.821 0 0 0-1.684 1.704z" fill="none" stroke="#212121" stroke-linecap="round" stroke-linejoin="round" stroke-width="1.5px"></path><path class="a" d="M12 15.75H6.13" fill="none" stroke="#212121" stroke-linecap="round" stroke-linejoin="round" stroke-width="1.5px"></path></g></svg>