<svg xmlns="http://www.w3.org/2000/svg" width="24" height="24" viewBox="0 0 24 24"><title>multiple users 1 2</title><g fill="#212121" class="nc-icon-wrapper"><defs></defs><circle class="cls-1" cx="11.5" cy="4.125" r="3.375" fill="none" stroke="#212121" stroke-linecap="round" stroke-linejoin="round" stroke-width="1.5px"></circle><path class="cls-1" d="M15.553 10.5a6.028 6.028 0 0 0-8.106 0" fill="none" stroke="#212121" stroke-linecap="round" stroke-linejoin="round" stroke-width="1.5px"></path><path class="cls-1" d="M14.875 4.236A6.752 6.752 0 0 1 13 4.5a6.723 6.723 0 0 1-4.568-1.781" fill="none" stroke="#212121" stroke-linecap="round" stroke-linejoin="round" stroke-width="1.5px"></path><circle class="cls-1" cx="18.5" cy="16.125" r="3.375" fill="none" stroke="#212121" stroke-linecap="round" stroke-linejoin="round" stroke-width="1.5px"></circle><path class="cls-1" d="M23.25 23.25a6.026 6.026 0 0 0-9.5 0" fill="none" stroke="#212121" stroke-linecap="round" stroke-linejoin="round" stroke-width="1.5px"></path><path class="cls-1" d="M21.875 16.236a6.76 6.76 0 0 1-6.443-1.517" fill="none" stroke="#212121" stroke-linecap="round" stroke-linejoin="round" stroke-width="1.5px"></path><circle class="cls-1" cx="5.5" cy="16.125" r="3.375" fill="none" stroke="#212121" stroke-linecap="round" stroke-linejoin="round" stroke-width="1.5px"></circle><path class="cls-1" d="M10.249 23.25a6.026 6.026 0 0 0-9.5 0" fill="none" stroke="#212121" stroke-linecap="round" stroke-linejoin="round" stroke-width="1.5px"></path><path class="cls-1" d="M8.875 16.236a6.76 6.76 0 0 1-6.443-1.517" fill="none" stroke="#212121" stroke-linecap="round" stroke-linejoin="round" stroke-width="1.5px"></path></g></svg>