<svg xmlns="http://www.w3.org/2000/svg" width="24" height="24" viewBox="0 0 24 24"><title>multiple actions graduate 2</title><g fill="#212121" class="nc-icon-wrapper"><defs></defs><path class="cls-1" d="M11.968 12.61A5.873 5.873 0 0 0 6.75 9a6 6 0 0 0-6 5.25" fill="none" stroke="#212121" stroke-linecap="round" stroke-linejoin="round" stroke-width="1.5px"></path><circle class="cls-1" cx="6.75" cy="4.124" r="3.375" fill="none" stroke="#212121" stroke-linecap="round" stroke-linejoin="round" stroke-width="1.5px"></circle><circle class="cls-1" cx="16.5" cy="3.374" r="2.625" fill="none" stroke="#212121" stroke-linecap="round" stroke-linejoin="round" stroke-width="1.5px"></circle><path class="cls-1" d="M20.4 9a4.5 4.5 0 0 0-7.284-.709" fill="none" stroke="#212121" stroke-linecap="round" stroke-linejoin="round" stroke-width="1.5px"></path><path class="cls-1" d="M16.5 14.307l-6.75 2.78 6.75 2.47 6.75-2.47-6.75-2.78z" fill="none" stroke="#212121" stroke-linecap="round" stroke-linejoin="round" stroke-width="1.5px"></path><path class="cls-1" d="M9.75 17.065v3.772" fill="none" stroke="#212121" stroke-linecap="round" stroke-linejoin="round" stroke-width="1.5px"></path><path class="cls-1" d="M12.75 18.185V21.3a.75.75 0 0 0 .471.7l3 1.2a.755.755 0 0 0 .557 0l3-1.2a.751.751 0 0 0 .472-.7v-3.115" fill="none" stroke="#212121" stroke-linecap="round" stroke-linejoin="round" stroke-width="1.5px"></path></g></svg>