<svg xmlns="http://www.w3.org/2000/svg" width="24" height="24" viewBox="0 0 24 24"><title>multiple actions heart</title><g fill="#212121" class="nc-icon-wrapper"><defs></defs><circle class="cls-1" cx="6" cy="3.75" r="3" fill="none" stroke="#212121" stroke-linecap="round" stroke-linejoin="round" stroke-width="1.5px"></circle><path class="cls-1" d="M10.743 11.245A5.251 5.251 0 0 0 .75 13.5v2.25H3l.75 7.5h4.5l.522-5.216" fill="none" stroke="#212121" stroke-linecap="round" stroke-linejoin="round" stroke-width="1.5px"></path><path class="cls-1" d="M17.25 23.25l-5.113-5.335a3.025 3.025 0 0 1-.567-3.492 3.025 3.025 0 0 1 4.845-.787l.835.835.836-.835a3.025 3.025 0 0 1 4.845.787 3.025 3.025 0 0 1-.567 3.492z" fill="none" stroke="#212121" stroke-linecap="round" stroke-linejoin="round" stroke-width="1.5px"></path><circle class="cls-1" cx="16.5" cy="3.375" r="2.625" fill="none" stroke="#212121" stroke-linecap="round" stroke-linejoin="round" stroke-width="1.5px"></circle><path class="cls-1" d="M20.4 9a4.5 4.5 0 0 0-7.285-.71" fill="none" stroke="#212121" stroke-linecap="round" stroke-linejoin="round" stroke-width="1.5px"></path></g></svg>