<svg xmlns="http://www.w3.org/2000/svg" width="24" height="24" viewBox="0 0 24 24"><title>multiple actions star</title><g fill="#212121" class="nc-icon-wrapper"><defs></defs><path class="cls-1" d="M17.968 11.68L19.509 15h2.979a.735.735 0 0 1 .518 1.283l-2.582 2.562 1.442 3.314a.786.786 0 0 1-1.119.982l-3.486-1.961-3.487 1.961a.786.786 0 0 1-1.119-.982l1.445-3.311-2.6-2.562A.734.734 0 0 1 12.009 15h3l1.544-3.323a.8.8 0 0 1 1.415.003z" fill="none" stroke="#212121" stroke-linecap="round" stroke-linejoin="round" stroke-width="1.5px"></path><path class="cls-1" d="M11.832 11.733A6.021 6.021 0 0 0 6.75 9a6 6 0 0 0-6 5.25" fill="none" stroke="#212121" stroke-linecap="round" stroke-linejoin="round" stroke-width="1.5px"></path><circle class="cls-1" cx="6.75" cy="4.125" r="3.375" fill="none" stroke="#212121" stroke-linecap="round" stroke-linejoin="round" stroke-width="1.5px"></circle><circle class="cls-1" cx="16.5" cy="3.375" r="2.625" fill="none" stroke="#212121" stroke-linecap="round" stroke-linejoin="round" stroke-width="1.5px"></circle><path class="cls-1" d="M20.4 9a4.5 4.5 0 0 0-7.284-.71" fill="none" stroke="#212121" stroke-linecap="round" stroke-linejoin="round" stroke-width="1.5px"></path></g></svg>