<svg xmlns="http://www.w3.org/2000/svg" width="24" height="24" viewBox="0 0 24 24"><title>music genre burn</title><g fill="#212121" class="nc-icon-wrapper"><defs></defs><path class="a" d="M19.568 17.21a9.453 9.453 0 0 0 .188-11.06l-2.7 2.961A12.009 12.009 0 0 1 17.38.75 12.055 12.055 0 0 0 7.4 7.03L5.25 4.937a9.451 9.451 0 0 0-1.062 11.932" fill="none" stroke="#212121" stroke-linecap="round" stroke-linejoin="round" stroke-width="1.5px"></path><circle class="a" cx="6.825" cy="21.375" r="1.875" fill="none" stroke="#212121" stroke-linecap="round" stroke-linejoin="round" stroke-width="1.5px"></circle><circle class="a" cx="14.325" cy="19.125" r="1.875" fill="none" stroke="#212121" stroke-linecap="round" stroke-linejoin="round" stroke-width="1.5px"></circle><path class="a" d="M8.7 21.375v-6.794a1.5 1.5 0 0 1 1.026-1.423l4.5-1.25a1.5 1.5 0 0 1 1.974 1.423v5.794" fill="none" stroke="#212121" stroke-linecap="round" stroke-linejoin="round" stroke-width="1.5px"></path></g></svg>