<svg xmlns="http://www.w3.org/2000/svg" width="24" height="24" viewBox="0 0 24 24"><title>natural disaster earthquake</title><g fill="#212121" class="nc-icon-wrapper"><defs></defs><path class="cls-1" d="M.75 22.5v-6a1.5 1.5 0 0 1 1.5-1.5h5.669a1.5 1.5 0 0 1 1.423 1.026l1.235 3.705a1.5 1.5 0 0 0 2.846 0l1.235-3.705A1.5 1.5 0 0 1 16.081 15h5.669a1.5 1.5 0 0 1 1.5 1.5v6" fill="none" stroke="#212121" stroke-linecap="round" stroke-linejoin="round" stroke-width="1.5px"></path><path class="cls-1" d="M5.25 12v3" fill="none" stroke="#212121" stroke-linecap="round" stroke-linejoin="round" stroke-width="1.5px"></path><path class="cls-1" d="M8.15 9.961A1.5 1.5 0 0 1 6.75 12h-3a1.5 1.5 0 0 1-1.4-2.039L5.25 1.5z" fill="none" stroke="#212121" stroke-linecap="round" stroke-linejoin="round" stroke-width="1.5px"></path><path class="cls-1" d="M18.75 12v3" fill="none" stroke="#212121" stroke-linecap="round" stroke-linejoin="round" stroke-width="1.5px"></path><path class="cls-1" d="M15.85 9.961A1.5 1.5 0 0 0 17.25 12h3a1.5 1.5 0 0 0 1.4-2.039L18.75 1.5z" fill="none" stroke="#212121" stroke-linecap="round" stroke-linejoin="round" stroke-width="1.5px"></path></g></svg>