<svg xmlns="http://www.w3.org/2000/svg" width="24" height="24" viewBox="0 0 24 24"><title>natural disaster water level</title><g fill="#212121" class="nc-icon-wrapper"><defs></defs><path class="cls-1" d="M23.25 15.5c-2.44.494-3.953-1.94-3.953-1.94a4.31 4.31 0 0 1-3.543 2.011 3.742 3.742 0 0 1-3.242-2.011 5.171 5.171 0 0 1-3.837 2.011 4.5 4.5 0 0 1-3.537-2.011S3.156 16.063.75 15.536" fill="none" stroke="#212121" stroke-linecap="round" stroke-linejoin="round" stroke-width="1.5px"></path><path class="cls-1" d="M23.25 10.254c-2.44.494-3.953-1.94-3.953-1.94a4.31 4.31 0 0 1-3.543 2.011 3.742 3.742 0 0 1-3.242-2.011 5.171 5.171 0 0 1-3.837 2.011 4.5 4.5 0 0 1-3.544-2.011S3.156 10.813.75 10.286" fill="none" stroke="#212121" stroke-linecap="round" stroke-linejoin="round" stroke-width="1.5px"></path><path class="cls-1" d="M23.25 5v12.75a1.5 1.5 0 0 1-1.5 1.5H2.25a1.5 1.5 0 0 1-1.5-1.5V5" fill="none" stroke="#212121" stroke-linecap="round" stroke-linejoin="round" stroke-width="1.5px"></path></g></svg>