<svg xmlns="http://www.w3.org/2000/svg" width="24" height="24" viewBox="0 0 24 24"><title>natural disaster flood building</title><g fill="#212121" class="nc-icon-wrapper"><defs></defs><path class="cls-1" d="M.75 23.25V1.941a1.108 1.108 0 0 1 1-1.191h4a1.108 1.108 0 0 1 1 1.191V23.25" fill="none" stroke="#212121" stroke-linecap="round" stroke-linejoin="round" stroke-width="1.5px"></path><path class="cls-1" d="M6.75 4.5H4.5" fill="none" stroke="#212121" stroke-linecap="round" stroke-linejoin="round" stroke-width="1.5px"></path><path class="cls-1" d="M6.75 8.25H4.5" fill="none" stroke="#212121" stroke-linecap="round" stroke-linejoin="round" stroke-width="1.5px"></path><path class="cls-1" d="M6.75 15.75H4.5" fill="none" stroke="#212121" stroke-linecap="round" stroke-linejoin="round" stroke-width="1.5px"></path><path class="cls-1" d="M6.75 12H4.5" fill="none" stroke="#212121" stroke-linecap="round" stroke-linejoin="round" stroke-width="1.5px"></path><path class="cls-1" d="M6.75 19.532H4.5" fill="none" stroke="#212121" stroke-linecap="round" stroke-linejoin="round" stroke-width="1.5px"></path><path class="cls-1" d="M23.25 16.944a3.185 3.185 0 0 1-2.759-1.718 4.4 4.4 0 0 1-3.265 1.718 3.834 3.834 0 0 1-3.011-1.718s-1.674 2.124-3.715 1.688" fill="none" stroke="#212121" stroke-linecap="round" stroke-linejoin="round" stroke-width="1.5px"></path><path class="cls-1" d="M23.25 21.753a3.185 3.185 0 0 1-2.759-1.717 4.4 4.4 0 0 1-3.265 1.717 3.834 3.834 0 0 1-3.011-1.717s-1.668 2.123-3.709 1.687" fill="none" stroke="#212121" stroke-linecap="round" stroke-linejoin="round" stroke-width="1.5px"></path><path class="cls-1" d="M23.25 12.135a3.185 3.185 0 0 1-2.759-1.718 4.4 4.4 0 0 1-3.265 1.718 3.834 3.834 0 0 1-3.011-1.718s-1.668 2.124-3.709 1.688" fill="none" stroke="#212121" stroke-linecap="round" stroke-linejoin="round" stroke-width="1.5px"></path></g></svg>