<svg xmlns="http://www.w3.org/2000/svg" width="24" height="24" viewBox="0 0 24 24"><title>natural disaster flood house indoor</title><g fill="#212121" class="nc-icon-wrapper"><defs></defs><path class="cls-1" d="M21.75 19.947c-2.124.444-3.442-1.684-3.442-1.684a3.736 3.736 0 0 1-3.071 1.749 3.241 3.241 0 0 1-2.809-1.749A4.476 4.476 0 0 1 9.1 20.012a3.9 3.9 0 0 1-3.065-1.749s-1.7 2.163-3.777 1.719" fill="none" stroke="#212121" stroke-linecap="round" stroke-linejoin="round" stroke-width="1.5px"></path><path class="cls-1" d="M21.75 15.381c-2.124.444-3.442-1.683-3.442-1.683a3.736 3.736 0 0 1-3.071 1.749 3.241 3.241 0 0 1-2.812-1.747A4.476 4.476 0 0 1 9.1 15.447 3.9 3.9 0 0 1 6.031 13.7s-1.7 2.162-3.777 1.718" fill="none" stroke="#212121" stroke-linecap="round" stroke-linejoin="round" stroke-width="1.5px"></path><path class="cls-1" d="M21.75 6.947v14.5a1.5 1.5 0 0 1-1.5 1.5H3.75a1.5 1.5 0 0 1-1.5-1.5v-14.5" fill="none" stroke="#212121" stroke-linecap="round" stroke-linejoin="round" stroke-width="1.5px"></path><path class="cls-1" d="M.75 7.947L11.168 1a1.5 1.5 0 0 1 1.664 0L23.25 7.947" fill="none" stroke="#212121" stroke-linecap="round" stroke-linejoin="round" stroke-width="1.5px"></path></g></svg>