<svg xmlns="http://www.w3.org/2000/svg" width="24" height="24" viewBox="0 0 24 24"><title>natural disaster hurricane radar</title><g fill="#212121" class="nc-icon-wrapper"><defs></defs><path class="cls-1" d="M10.551.75v19.5" fill="none" stroke="#212121" stroke-linecap="round" stroke-linejoin="round" stroke-width="1.5px"></path><path class="cls-1" d="M.75 10.5h9.75" fill="none" stroke="#212121" stroke-linecap="round" stroke-linejoin="round" stroke-width="1.5px"></path><path class="cls-1" d="M10.551 10.5l6.75-6.75" fill="none" stroke="#212121" stroke-linecap="round" stroke-linejoin="round" stroke-width="1.5px"></path><ellipse class="cls-1" cx="19.329" cy="14.495" rx="3.922" ry="1.471" fill="none" stroke="#212121" stroke-linecap="round" stroke-linejoin="round" stroke-width="1.5px"></ellipse><path class="cls-1" d="M22.271 18.274c0 .813-1.317 1.471-2.942 1.471s-2.941-.658-2.941-1.471" fill="none" stroke="#212121" stroke-linecap="round" stroke-linejoin="round" stroke-width="1.5px"></path><path class="cls-1" d="M21.29 22.024c0 .677-.878 1.226-1.961 1.226s-1.961-.549-1.961-1.226" fill="none" stroke="#212121" stroke-linecap="round" stroke-linejoin="round" stroke-width="1.5px"></path><path class="cls-1" d="M12.954 19.939a9.76 9.76 0 1 1 7.3-9.439" fill="none" stroke="#212121" stroke-linecap="round" stroke-linejoin="round" stroke-width="1.5px"></path><path class="cls-1" d="M12.418 15.408A5.25 5.25 0 1 1 10.551 5.25a5.248 5.248 0 0 1 5.14 4.159" fill="none" stroke="#212121" stroke-linecap="round" stroke-linejoin="round" stroke-width="1.5px"></path></g></svg>