<svg xmlns="http://www.w3.org/2000/svg" width="24" height="24" viewBox="0 0 24 24"><title>nautic sports surfing</title><g fill="#212121" class="nc-icon-wrapper"><defs></defs><circle class="cls-1" cx="6.75" cy="3.375" r="2.625" fill="none" stroke="#212121" stroke-linecap="round" stroke-linejoin="round" stroke-width="1.5px"></circle><path class="cls-1" d="M6.75 16.5v5.25" fill="none" stroke="#212121" stroke-linecap="round" stroke-linejoin="round" stroke-width="1.5px"></path><path class="cls-1" d="M11.434 13.979a6.016 6.016 0 0 1-1.684-1.727v9.5a1.5 1.5 0 0 1-3 0 1.5 1.5 0 0 1-3 0V15a1.5 1.5 0 0 1-3 0v-3a4.5 4.5 0 0 1 4.5-4.5H7.9A4.5 4.5 0 0 1 11.25 9" fill="none" stroke="#212121" stroke-linecap="round" stroke-linejoin="round" stroke-width="1.5px"></path><path class="cls-1" d="M3.75 15v-3" fill="none" stroke="#212121" stroke-linecap="round" stroke-linejoin="round" stroke-width="1.5px"></path><path class="cls-1" d="M18.262 1.133a.748.748 0 0 1 .977 0A12.15 12.15 0 0 1 23.25 10.5a40.846 40.846 0 0 1-1.9 11.7 1.5 1.5 0 0 1-1.43 1.049h-2.343a1.5 1.5 0 0 1-1.43-1.049 40.846 40.846 0 0 1-1.9-11.7 12.152 12.152 0 0 1 4.015-9.367z" fill="none" stroke="#212121" stroke-linecap="round" stroke-linejoin="round" stroke-width="1.5px"></path><path class="cls-1" d="M14.378 13.372l7.916-7.916" fill="none" stroke="#212121" stroke-linecap="round" stroke-linejoin="round" stroke-width="1.5px"></path><path class="cls-1" d="M15.251 18.874l7.997-7.997" fill="none" stroke="#212121" stroke-linecap="round" stroke-linejoin="round" stroke-width="1.5px"></path></g></svg>