<svg xmlns="http://www.w3.org/2000/svg" width="24" height="24" viewBox="0 0 24 24"><title>nautic sports scooter</title><g fill="#212121" class="nc-icon-wrapper"><defs></defs><path class="cls-1" d="M.789 13.25h22.395" fill="none" stroke="#212121" stroke-linecap="round" stroke-linejoin="round" stroke-width="1.5px"></path><path class="cls-1" d="M20.331 17.34a10.443 10.443 0 0 0 2.369-2.735 4.309 4.309 0 0 0 .55-2.105v-.75a3 3 0 0 0-3-3H10.5L8.245 4.8a1.5 1.5 0 0 0-2.127-.5A11.541 11.541 0 0 0 .78 12.572a3.014 3.014 0 0 0 .227 1.438 9.593 9.593 0 0 0 2.663 3.33" fill="none" stroke="#212121" stroke-linecap="round" stroke-linejoin="round" stroke-width="1.5px"></path><path class="cls-1" d="M9.689 7.331L11.1 5.45a3 3 0 0 1 2.4-1.2h2.25" fill="none" stroke="#212121" stroke-linecap="round" stroke-linejoin="round" stroke-width="1.5px"></path><path class="cls-1" d="M.75 17.75a5.511 5.511 0 0 0 4.5-1.5 4.547 4.547 0 0 0 6.75 0 4.547 4.547 0 0 0 6.75 0 5.511 5.511 0 0 0 4.5 1.5" fill="none" stroke="#212121" stroke-linecap="round" stroke-linejoin="round" stroke-width="1.5px"></path><path class="cls-1" d="M1.305 10.25H5.25" fill="none" stroke="#212121" stroke-linecap="round" stroke-linejoin="round" stroke-width="1.5px"></path><path class="cls-1" d="M14.25 8.75l4.5 4.5" fill="none" stroke="#212121" stroke-linecap="round" stroke-linejoin="round" stroke-width="1.5px"></path></g></svg>