<svg xmlns="http://www.w3.org/2000/svg" width="24" height="24" viewBox="0 0 24 24"><title>navigation car pin</title><g fill="#212121" class="nc-icon-wrapper"><defs></defs><circle class="a" cx="9" cy="21.013" r="2.25" fill="none" stroke="#212121" stroke-linecap="round" stroke-linejoin="round" stroke-width="1.5px"></circle><path class="a" d="M.75 21.013h6" fill="none" stroke="#212121" stroke-linecap="round" stroke-linejoin="round" stroke-width="1.5px"></path><path class="a" d="M11.25 21.013h2.25a1.5 1.5 0 0 0 1.5-1.5v-2.25a3 3 0 0 0-3-3H9L6.829 9.921a3 3 0 0 0-2.683-1.658H.75" fill="none" stroke="#212121" stroke-linecap="round" stroke-linejoin="round" stroke-width="1.5px"></path><path class="a" d="M.75 14.263H9" fill="none" stroke="#212121" stroke-linecap="round" stroke-linejoin="round" stroke-width="1.5px"></path><path class="a" d="M11.027 11.263a8.688 8.688 0 0 1-1.277-3.75 6.75 6.75 0 0 1 13.5 0c0 2.591-3.261 7.015-5.25 9.473" fill="none" stroke="#212121" stroke-linecap="round" stroke-linejoin="round" stroke-width="1.5px"></path><circle class="a" cx="16.5" cy="7.513" r="2.25" fill="none" stroke="#212121" stroke-linecap="round" stroke-linejoin="round" stroke-width="1.5px"></circle></g></svg>