<svg xmlns="http://www.w3.org/2000/svg" width="24" height="24" viewBox="0 0 24 24"><title>office file text graph</title><g fill="#212121" class="nc-icon-wrapper"><defs></defs><path class="a" d="M21.748 21.748a1.5 1.5 0 0 1-1.5 1.5h-18a1.5 1.5 0 0 1-1.5-1.5v-19.5a1.5 1.5 0 0 1 1.5-1.5h15a1.5 1.5 0 0 1 1.047.426l3 2.883a1.5 1.5 0 0 1 .453 1.074z" fill="none" stroke="#212121" stroke-linecap="round" stroke-linejoin="round" stroke-width="1.5px"></path><path class="a" d="M16.498 9.748h.75" fill="none" stroke="#212121" stroke-linecap="round" stroke-linejoin="round" stroke-width="1.5px"></path><path class="a" d="M14.998 5.248h2.25" fill="none" stroke="#212121" stroke-linecap="round" stroke-linejoin="round" stroke-width="1.5px"></path><path class="a" d="M13.498 14.248h3.75" fill="none" stroke="#212121" stroke-linecap="round" stroke-linejoin="round" stroke-width="1.5px"></path><path class="a" d="M5.248 18.748h12" fill="none" stroke="#212121" stroke-linecap="round" stroke-linejoin="round" stroke-width="1.5px"></path><circle class="a" cx="8.248" cy="8.998" r="4.5" fill="none" stroke="#212121" stroke-linecap="round" stroke-linejoin="round" stroke-width="1.5px"></circle><path class="a" d="M4.544 11.467l3.704-2.469v-4.5" fill="none" stroke="#212121" stroke-linecap="round" stroke-linejoin="round" stroke-width="1.5px"></path></g></svg>