<svg xmlns="http://www.w3.org/2000/svg" width="24" height="24" viewBox="0 0 24 24"><title>office file stamp</title><g fill="#212121" class="nc-icon-wrapper"><defs></defs><path class="a" d="M12.748 11.998h-8.25" fill="none" stroke="#212121" stroke-linecap="round" stroke-linejoin="round" stroke-width="1.5px"></path><path class="a" d="M10.498 16.498h-6" fill="none" stroke="#212121" stroke-linecap="round" stroke-linejoin="round" stroke-width="1.5px"></path><path class="a" d="M17.998 7.498h-13.5" fill="none" stroke="#212121" stroke-linecap="round" stroke-linejoin="round" stroke-width="1.5px"></path><path class="a" d="M22.209 19.261a.751.751 0 0 0-.711-.513h-2.25V16.5a2.25 2.25 0 1 0-3 0v2.25H14a.751.751 0 0 0-.712.513l-1 3a.749.749 0 0 0 .712.987h9.5a.749.749 0 0 0 .711-.987z" fill="none" stroke="#212121" stroke-linecap="round" stroke-linejoin="round" stroke-width="1.5px"></path><path class="a" d="M9 23.248H2.248a1.5 1.5 0 0 1-1.5-1.5v-19.5a1.5 1.5 0 0 1 1.5-1.5h15a1.5 1.5 0 0 1 1.047.427l3 2.882a1.5 1.5 0 0 1 .453 1.074V10.5" fill="none" stroke="#212121" stroke-linecap="round" stroke-linejoin="round" stroke-width="1.5px"></path></g></svg>