<svg xmlns="http://www.w3.org/2000/svg" width="24" height="24" viewBox="0 0 24 24"><title>office razor</title><g fill="#212121" class="nc-icon-wrapper"><defs></defs><path class="a" d="M11.207 15.372l-3.558-3.559a.838.838 0 0 1 0-1.186l8.9-8.9a3.355 3.355 0 0 1 4.744 0 3.347 3.347 0 0 1 .007 4.74l-8.909 8.907a.832.832 0 0 1-1.184-.002z" fill="none" stroke="#212121" stroke-linecap="round" stroke-linejoin="round" stroke-width="1.5px"></path><path class="a" d="M11.207 15.372l-3.558-3.559L2 17.466a.841.841 0 0 0-.243.669l.4 4.349a.839.839 0 0 0 1.42.516z" fill="none" stroke="#212121" stroke-linecap="round" stroke-linejoin="round" stroke-width="1.5px"></path><path class="a" d="M9.428 13.592l5.931-5.93" fill="none" stroke="#212121" stroke-linecap="round" stroke-linejoin="round" stroke-width="1.5px"></path><path class="a" d="M15.952 2.324l4.744 4.745" fill="none" stroke="#212121" stroke-linecap="round" stroke-linejoin="round" stroke-width="1.5px"></path><path class="a" d="M5.869 13.592l.594 6.524" fill="none" stroke="#212121" stroke-linecap="round" stroke-linejoin="round" stroke-width="1.5px"></path></g></svg>