<svg xmlns="http://www.w3.org/2000/svg" width="24" height="24" viewBox="0 0 24 24"><title>office business card</title><g fill="#212121" class="nc-icon-wrapper"><defs></defs><path class="a" d="M11.25 5.623h11.022a.977.977 0 0 1 .978.971v14.559a.977.977 0 0 1-.978.97H1.728a.977.977 0 0 1-.978-.97V6.594a.977.977 0 0 1 .978-.971H5.25" fill="none" stroke="#212121" stroke-linecap="round" stroke-linejoin="round" stroke-width="1.5px"></path><path class="a" d="M12 12.373h8.25" fill="none" stroke="#212121" stroke-linecap="round" stroke-linejoin="round" stroke-width="1.5px"></path><path class="a" d="M6.75 16.873h13.5" fill="none" stroke="#212121" stroke-linecap="round" stroke-linejoin="round" stroke-width="1.5px"></path><path class="a" d="M3.75 5.623v-1.5A2.25 2.25 0 0 1 6 1.873a2.25 2.25 0 0 1 2.25 2.25v6.75a1.5 1.5 0 0 1-1.5 1.5 1.5 1.5 0 0 1-1.5-1.5v-2.25" fill="none" stroke="#212121" stroke-linecap="round" stroke-linejoin="round" stroke-width="1.5px"></path></g></svg>