<svg xmlns="http://www.w3.org/2000/svg" width="24" height="24" viewBox="0 0 24 24"><title>office file presentation</title><g fill="#212121" class="nc-icon-wrapper"><defs></defs><path class="a" d="M22.81 5.559a1.5 1.5 0 0 1 .439 1.06V21A2.25 2.25 0 0 1 21 23.248H3A2.25 2.25 0 0 1 .749 21V3A2.25 2.25 0 0 1 3 .748h14.378a1.5 1.5 0 0 1 1.061.439z" fill="none" stroke="#212121" stroke-linecap="round" stroke-linejoin="round" stroke-width="1.5px"></path><path class="a" d="M17.249.748v4.5a1.5 1.5 0 0 0 1.5 1.5h4.5" fill="none" stroke="#212121" stroke-linecap="round" stroke-linejoin="round" stroke-width="1.5px"></path><path class="a" d="M17.249 9.748v4.5a.75.75 0 0 1-.75.75h-9a.75.75 0 0 1-.75-.75v-6A.75.75 0 0 1 7.5 7.5H15" fill="none" stroke="#212121" stroke-linecap="round" stroke-linejoin="round" stroke-width="1.5px"></path><path class="a" d="M11.999 14.998v4.5" fill="none" stroke="#212121" stroke-linecap="round" stroke-linejoin="round" stroke-width="1.5px"></path><path class="a" d="M8.999 19.498l3-3" fill="none" stroke="#212121" stroke-linecap="round" stroke-linejoin="round" stroke-width="1.5px"></path><path class="a" d="M14.999 19.498l-3-3" fill="none" stroke="#212121" stroke-linecap="round" stroke-linejoin="round" stroke-width="1.5px"></path></g></svg>