<svg xmlns="http://www.w3.org/2000/svg" width="24" height="24" viewBox="0 0 24 24"><title>office folder sealed</title><g fill="#212121" class="nc-icon-wrapper"><defs></defs><rect class="a" x="3.75" y=".748" width="16.5" height="22.5" rx="1" ry="1" fill="none" stroke="#212121" stroke-linecap="round" stroke-linejoin="round" stroke-width="1.5px"></rect><path class="a" d="M20.067 22.825l-2.575-2.665a2.238 2.238 0 0 0-1.609-.662H8.118a2.239 2.239 0 0 0-1.61.662l-2.575 2.665" fill="none" stroke="#212121" stroke-linecap="round" stroke-linejoin="round" stroke-width="1.5px"></path><circle class="a" cx="12" cy="5.248" r="1.5" fill="none" stroke="#212121" stroke-linecap="round" stroke-linejoin="round" stroke-width="1.5px"></circle><circle class="a" cx="12" cy="14.248" r="1.5" fill="none" stroke="#212121" stroke-linecap="round" stroke-linejoin="round" stroke-width="1.5px"></circle><path class="a" d="M12 6.748v6" fill="none" stroke="#212121" stroke-linecap="round" stroke-linejoin="round" stroke-width="1.5px"></path><path class="a" d="M15.75 7.5h1.169a1.5 1.5 0 0 0 1.423-1.025L20.1 1.222" fill="none" stroke="#212121" stroke-linecap="round" stroke-linejoin="round" stroke-width="1.5px"></path><path class="a" d="M3.905 1.213l1.753 5.26A1.5 1.5 0 0 0 7.081 7.5H8.25" fill="none" stroke="#212121" stroke-linecap="round" stroke-linejoin="round" stroke-width="1.5px"></path></g></svg>