<svg xmlns="http://www.w3.org/2000/svg" width="24" height="24" viewBox="0 0 24 24"><title>office chair table 2</title><g fill="#212121" class="nc-icon-wrapper"><defs></defs><path class="a" d="M23.25 20.249v-8.378a1.5 1.5 0 0 0-.439-1.061l-2.122-2.121a1.5 1.5 0 0 0-1.06-.44H4.371a1.5 1.5 0 0 0-1.06.44L1.189 10.81a1.5 1.5 0 0 0-.439 1.061v8.378" fill="none" stroke="#212121" stroke-linecap="round" stroke-linejoin="round" stroke-width="1.5px"></path><path class="a" d="M4.5 11.249h15" fill="none" stroke="#212121" stroke-linecap="round" stroke-linejoin="round" stroke-width="1.5px"></path><path class="a" d="M8.25 8.249V7.5a3.75 3.75 0 0 1 7.5 0v.75" fill="none" stroke="#212121" stroke-linecap="round" stroke-linejoin="round" stroke-width="1.5px"></path><path class="a" d="M8.25 11.249v9" fill="none" stroke="#212121" stroke-linecap="round" stroke-linejoin="round" stroke-width="1.5px"></path><path class="a" d="M15.75 11.249v9" fill="none" stroke="#212121" stroke-linecap="round" stroke-linejoin="round" stroke-width="1.5px"></path><path class="a" d="M6.75 14.249a10.376 10.376 0 0 0 5.25 1.5 10.376 10.376 0 0 0 5.25-1.5" fill="none" stroke="#212121" stroke-linecap="round" stroke-linejoin="round" stroke-width="1.5px"></path></g></svg>