<svg xmlns="http://www.w3.org/2000/svg" width="24" height="24" viewBox="0 0 24 24"><title>office file ppt</title><g fill="#212121" class="nc-icon-wrapper"><defs></defs><path class="a" d="M4.503 19.498v-7.5" fill="none" stroke="#212121" stroke-linecap="round" stroke-linejoin="round" stroke-width="1.5px"></path><path class="a" d="M4.5 12h.75a2.25 2.25 0 0 1 0 4.5H4.5" fill="none" stroke="#212121" stroke-linecap="round" stroke-linejoin="round" stroke-width="1.5px"></path><path class="a" d="M10.503 19.498v-7.5" fill="none" stroke="#212121" stroke-linecap="round" stroke-linejoin="round" stroke-width="1.5px"></path><path class="a" d="M10.5 12h.75a2.25 2.25 0 0 1 0 4.5h-.75" fill="none" stroke="#212121" stroke-linecap="round" stroke-linejoin="round" stroke-width="1.5px"></path><path class="a" d="M18.003 19.498v-7.5" fill="none" stroke="#212121" stroke-linecap="round" stroke-linejoin="round" stroke-width="1.5px"></path><path class="a" d="M16.503 11.998h3" fill="none" stroke="#212121" stroke-linecap="round" stroke-linejoin="round" stroke-width="1.5px"></path><path class="a" d="M22.814 5.559a1.5 1.5 0 0 1 .439 1.06V21A2.25 2.25 0 0 1 21 23.248H3A2.25 2.25 0 0 1 .753 21V3A2.25 2.25 0 0 1 3 .748h14.382a1.5 1.5 0 0 1 1.06.439z" fill="none" stroke="#212121" stroke-linecap="round" stroke-linejoin="round" stroke-width="1.5px"></path><path class="a" d="M17.253.748v4.5a1.5 1.5 0 0 0 1.5 1.5h4.5" fill="none" stroke="#212121" stroke-linecap="round" stroke-linejoin="round" stroke-width="1.5px"></path></g></svg>