<svg xmlns="http://www.w3.org/2000/svg" width="24" height="24" viewBox="0 0 24 24"><title>office hole puncher</title><g fill="#212121" class="nc-icon-wrapper"><defs></defs><path class="a" d="M4.132 4.824l-1.01 7.068a.75.75 0 0 0 .743.856h3.723a.749.749 0 0 0 .744-.657l.5-4.029a1.5 1.5 0 0 1 1.488-1.314h3.352a1.5 1.5 0 0 1 1.488 1.314l.5 4.029a.749.749 0 0 0 .744.657h3.723a.75.75 0 0 0 .743-.856l-1.01-7.068a3 3 0 0 0-2.96-2.576H7.1a3 3 0 0 0-2.968 2.576z" fill="none" stroke="#212121" stroke-linecap="round" stroke-linejoin="round" stroke-width="1.5px"></path><path class="a" d="M5.25 12.748v3" fill="none" stroke="#212121" stroke-linecap="round" stroke-linejoin="round" stroke-width="1.5px"></path><path class="a" d="M18.75 12.748v3" fill="none" stroke="#212121" stroke-linecap="round" stroke-linejoin="round" stroke-width="1.5px"></path><path class="a" d="M22.5 15.748l.75 3H.75l.75-3" fill="none" stroke="#212121" stroke-linecap="round" stroke-linejoin="round" stroke-width="1.5px"></path><path class="a" d="M23.25 18.748H.75v1.5a1.5 1.5 0 0 0 1.5 1.5h19.5a1.5 1.5 0 0 0 1.5-1.5z" fill="none" stroke="#212121" stroke-linecap="round" stroke-linejoin="round" stroke-width="1.5px"></path></g></svg>