<svg xmlns="http://www.w3.org/2000/svg" width="24" height="24" viewBox="0 0 24 24"><title>office file stamp alternate</title><g fill="#212121" class="nc-icon-wrapper"><defs></defs><path class="a" d="M22.211 19.262a.751.751 0 0 0-.712-.513h-2.25V16.5a2.25 2.25 0 1 0-3 0v2.25H14a.751.751 0 0 0-.711.513l-1 3a.749.749 0 0 0 .711.987h9.5a.749.749 0 0 0 .712-.987z" fill="none" stroke="#212121" stroke-linecap="round" stroke-linejoin="round" stroke-width="1.5px"></path><path class="a" d="M11.249 14.249h-6.75" fill="none" stroke="#212121" stroke-linecap="round" stroke-linejoin="round" stroke-width="1.5px"></path><path class="a" d="M8.999 18.749h-4.5" fill="none" stroke="#212121" stroke-linecap="round" stroke-linejoin="round" stroke-width="1.5px"></path><path class="a" d="M16.499 9.749h-12" fill="none" stroke="#212121" stroke-linecap="round" stroke-linejoin="round" stroke-width="1.5px"></path><path class="a" d="M8.249 23.249H3A2.25 2.25 0 0 1 .749 21V3A2.251 2.251 0 0 1 3 .749h14.378a1.5 1.5 0 0 1 1.061.44L22.81 5.56a1.5 1.5 0 0 1 .439 1.061v6.128" fill="none" stroke="#212121" stroke-linecap="round" stroke-linejoin="round" stroke-width="1.5px"></path><path class="a" d="M17.249.749v4.5a1.5 1.5 0 0 0 1.5 1.5h4.5" fill="none" stroke="#212121" stroke-linecap="round" stroke-linejoin="round" stroke-width="1.5px"></path></g></svg>