<svg xmlns="http://www.w3.org/2000/svg" width="24" height="24" viewBox="0 0 24 24"><title>office folder 1</title><g fill="#212121" class="nc-icon-wrapper"><defs></defs><path class="a" d="M16.875 23.248H3.447a.819.819 0 0 1-.822-.815V1.727a.983.983 0 0 1 .987-.979h16.776a.983.983 0 0 1 .987.979V4.5" fill="none" stroke="#212121" stroke-linecap="round" stroke-linejoin="round" stroke-width="1.5px"></path><path class="a" d="M21.375 17.674l-4.5 2.027v-6.588l4.5-2.027v6.588z" fill="none" stroke="#212121" stroke-linecap="round" stroke-linejoin="round" stroke-width="1.5px"></path><path class="a" d="M21.375 22.235c0 .56-.672 1.013-1.5 1.013h-3V19.7l4.5-2.027z" fill="none" stroke="#212121" stroke-linecap="round" stroke-linejoin="round" stroke-width="1.5px"></path><path class="a" d="M21.375 11.087l-4.5 2.026V7.539a2.063 2.063 0 0 1 1.248-1.576L21.375 4.5z" fill="none" stroke="#212121" stroke-linecap="round" stroke-linejoin="round" stroke-width="1.5px"></path></g></svg>