<svg xmlns="http://www.w3.org/2000/svg" width="24" height="24" viewBox="0 0 24 24"><title>office file module edit alternate</title><g fill="#212121" class="nc-icon-wrapper"><defs></defs><rect class="a" x="5.251" y="12.749" width="4.5" height="4.5" rx="1" ry="1" fill="none" stroke="#212121" stroke-linecap="round" stroke-linejoin="round" stroke-width="1.5px"></rect><rect class="a" x="8.251" y="5.249" width="6" height="4.5" rx="1" ry="1" fill="none" stroke="#212121" stroke-linecap="round" stroke-linejoin="round" stroke-width="1.5px"></rect><path class="a" d="M14.251 17.249a1.5 1.5 0 0 1-1.5-1.5v-1.5a1.5 1.5 0 0 1 1.5-1.5h1.5a1.5 1.5 0 0 1 1.5 1.5" fill="none" stroke="#212121" stroke-linecap="round" stroke-linejoin="round" stroke-width="1.5px"></path><path class="a" d="M18.28 22.743l-2.529.506.506-2.529 4.552-4.552a1.43 1.43 0 0 1 2.023 0 1.43 1.43 0 0 1 0 2.023z" fill="none" stroke="#212121" stroke-linecap="round" stroke-linejoin="round" stroke-width="1.5px"></path><path class="a" d="M12.751 23.249h-10.5a1.5 1.5 0 0 1-1.5-1.5v-19.5a1.5 1.5 0 0 1 1.5-1.5h15a1.5 1.5 0 0 1 1.048.426l3 2.883a1.5 1.5 0 0 1 .452 1.074v7.617" fill="none" stroke="#212121" stroke-linecap="round" stroke-linejoin="round" stroke-width="1.5px"></path></g></svg>