<svg xmlns="http://www.w3.org/2000/svg" width="24" height="24" viewBox="0 0 24 24"><title>office file pps 1</title><g fill="#212121" class="nc-icon-wrapper"><defs></defs><path class="a" d="M5.25 23.248h-3a1.5 1.5 0 0 1-1.5-1.5v-19.5a1.5 1.5 0 0 1 1.5-1.5h10.629a1.5 1.5 0 0 1 1.061.439l5.871 5.872a1.5 1.5 0 0 1 .439 1.06v4.629" fill="none" stroke="#212121" stroke-linecap="round" stroke-linejoin="round" stroke-width="1.5px"></path><path class="a" d="M20.25 8.248h-6a1.5 1.5 0 0 1-1.5-1.5v-6" fill="none" stroke="#212121" stroke-linecap="round" stroke-linejoin="round" stroke-width="1.5px"></path><path class="a" d="M8.25 23.248v-7.5" fill="none" stroke="#212121" stroke-linecap="round" stroke-linejoin="round" stroke-width="1.5px"></path><path class="a" d="M8.25 15.748H9a2.25 2.25 0 0 1 0 4.5h-.75" fill="none" stroke="#212121" stroke-linecap="round" stroke-linejoin="round" stroke-width="1.5px"></path><path class="a" d="M14.25 23.248v-7.5" fill="none" stroke="#212121" stroke-linecap="round" stroke-linejoin="round" stroke-width="1.5px"></path><path class="a" d="M14.25 15.748H15a2.25 2.25 0 0 1 0 4.5h-.75" fill="none" stroke="#212121" stroke-linecap="round" stroke-linejoin="round" stroke-width="1.5px"></path><path class="a" d="M23.25 15.748h-1.5a1.5 1.5 0 0 0-1.5 1.5c0 2.25 3 2.25 3 4.5a1.5 1.5 0 0 1-1.5 1.5h-1.5" fill="none" stroke="#212121" stroke-linecap="round" stroke-linejoin="round" stroke-width="1.5px"></path></g></svg>