<svg xmlns="http://www.w3.org/2000/svg" width="24" height="24" viewBox="0 0 24 24"><title>office sign document</title><g fill="#212121" class="nc-icon-wrapper"><defs></defs><path class="a" d="M9.164 13.293a2.3 2.3 0 0 1 3.211-.092 2.3 2.3 0 0 1-.092 3.21c-.881.883-4.752 1.632-4.752 1.632s.752-3.869 1.633-4.75z" fill="none" stroke="#212121" stroke-linecap="round" stroke-linejoin="round" stroke-width="1.5px"></path><path class="a" d="M12.73 5.568l3.639-3.639a1.47 1.47 0 0 1 2.079 0l1.04 1.04" fill="none" stroke="#212121" stroke-linecap="round" stroke-linejoin="round" stroke-width="1.5px"></path><path class="a" d="M11.17 11.286l8.318-8.317a2.211 2.211 0 0 1 3.119 0 2.213 2.213 0 0 1 0 3.119l-8.318 8.317z" fill="none" stroke="#212121" stroke-linecap="round" stroke-linejoin="round" stroke-width="1.5px"></path><path class="a" d="M16.369 6.088l3.119 3.119" fill="none" stroke="#212121" stroke-linecap="round" stroke-linejoin="round" stroke-width="1.5px"></path><path class="a" d="M21.22 13.5c0 4.041.425 6.325-1.758 8.508l-1.132 1.131a.378.378 0 0 1-.266.109H1.125a.375.375 0 0 1-.265-.64l.6-.6c2.265-2.265 1.76-3.714 1.76-15.774 0-3.148 2.348-4.834 3-5.486h4.448" fill="none" stroke="#212121" stroke-linecap="round" stroke-linejoin="round" stroke-width="1.5px"></path></g></svg>