<svg xmlns="http://www.w3.org/2000/svg" width="24" height="24" viewBox="0 0 24 24"><title>office desk lamp</title><g fill="#212121" class="nc-icon-wrapper"><defs></defs><path class="a" d="M22.468 16.5H1.562a.751.751 0 0 1-.681-1.065L4.89 6.75h14.25l4.009 8.685a.751.751 0 0 1-.681 1.065z" fill="none" stroke="#212121" stroke-linecap="round" stroke-linejoin="round" stroke-width="1.5px"></path><path class="a" d="M3.061 23.25l2.25-6.75 2.25 6.75" fill="none" stroke="#212121" stroke-linecap="round" stroke-linejoin="round" stroke-width="1.5px"></path><path class="a" d="M16.561 23.25l2.25-6.75 2.25 6.75" fill="none" stroke="#212121" stroke-linecap="round" stroke-linejoin="round" stroke-width="1.5px"></path><path class="a" d="M16.14 13.5l-1.5-3.75H9.39l-1.5 3.75" fill="none" stroke="#212121" stroke-linecap="round" stroke-linejoin="round" stroke-width="1.5px"></path><path class="a" d="M19.14 6.75v-3a3 3 0 0 0-3-3h-5.579a1.5 1.5 0 0 0-1.5 1.5v1.5h6v-3" fill="none" stroke="#212121" stroke-linecap="round" stroke-linejoin="round" stroke-width="1.5px"></path></g></svg>