<svg xmlns="http://www.w3.org/2000/svg" width="24" height="24" viewBox="0 0 24 24"><title>old people man 3</title><g fill="#212121" class="nc-icon-wrapper"><defs></defs><path class="a" d="M1.5 23.25a9.756 9.756 0 0 1 13.5-9" fill="none" stroke="#212121" stroke-linecap="round" stroke-linejoin="round" stroke-width="1.5px"></path><path class="a" d="M13.5 23.25l-2.25-9.75L9 23.25" fill="none" stroke="#212121" stroke-linecap="round" stroke-linejoin="round" stroke-width="1.5px"></path><path class="a" d="M15.629 8.9a3.75 3.75 0 1 0 .871-7.4 3.735 3.735 0 0 0-1.858.493S12.583 6 16.5 6" fill="none" stroke="#212121" stroke-linecap="round" stroke-linejoin="round" stroke-width="1.5px"></path><path class="a" d="M6.871 8.9A3.75 3.75 0 1 1 6 1.5a3.735 3.735 0 0 1 1.858.493S9.917 6 6 6" fill="none" stroke="#212121" stroke-linecap="round" stroke-linejoin="round" stroke-width="1.5px"></path><path class="a" d="M16.5 6A5.25 5.25 0 0 1 6 6" fill="none" stroke="#212121" stroke-linecap="round" stroke-linejoin="round" stroke-width="1.5px"></path><path class="a" d="M14.642 1.993a5.25 5.25 0 0 0-6.784 0" fill="none" stroke="#212121" stroke-linecap="round" stroke-linejoin="round" stroke-width="1.5px"></path><path class="a" d="M18 14.25a2.25 2.25 0 0 1 4.5 0v9" fill="none" stroke="#212121" stroke-linecap="round" stroke-linejoin="round" stroke-width="1.5px"></path></g></svg>