<svg xmlns="http://www.w3.org/2000/svg" width="24" height="24" viewBox="0 0 24 24"><title>old people man 1</title><g fill="#212121" class="nc-icon-wrapper"><defs></defs><path class="a" d="M2.25 23.25a9.75 9.75 0 0 1 19.5 0" fill="none" stroke="#212121" stroke-linecap="round" stroke-linejoin="round" stroke-width="1.5px"></path><path class="a" d="M14.25 23.25L12 13.5l-2.25 9.75" fill="none" stroke="#212121" stroke-linecap="round" stroke-linejoin="round" stroke-width="1.5px"></path><path class="a" d="M16.379 8.9a3.75 3.75 0 1 0 .871-7.4 3.735 3.735 0 0 0-1.858.493S13.333 6 17.25 6" fill="none" stroke="#212121" stroke-linecap="round" stroke-linejoin="round" stroke-width="1.5px"></path><path class="a" d="M7.621 8.9a3.75 3.75 0 1 1-.871-7.4 3.735 3.735 0 0 1 1.858.493S10.667 6 6.75 6" fill="none" stroke="#212121" stroke-linecap="round" stroke-linejoin="round" stroke-width="1.5px"></path><path class="a" d="M17.25 6a5.25 5.25 0 0 1-10.5 0" fill="none" stroke="#212121" stroke-linecap="round" stroke-linejoin="round" stroke-width="1.5px"></path><path class="a" d="M15.392 1.993a5.25 5.25 0 0 0-6.784 0" fill="none" stroke="#212121" stroke-linecap="round" stroke-linejoin="round" stroke-width="1.5px"></path></g></svg>