<svg xmlns="http://www.w3.org/2000/svg" width="24" height="24" viewBox="0 0 24 24"><title>old people woman 2</title><g fill="#212121" class="nc-icon-wrapper"><defs></defs><path class="a" d="M6.727 8.808a3.349 3.349 0 0 0 1.873.567 3.744 3.744 0 0 0 3.373-2.625 3.744 3.744 0 0 0 3.375 2.625 3.346 3.346 0 0 0 1.871-.567" fill="none" stroke="#212121" stroke-linecap="round" stroke-linejoin="round" stroke-width="1.5px"></path><circle class="a" cx="11.973" cy="9" r="5.25" fill="none" stroke="#212121" stroke-linecap="round" stroke-linejoin="round" stroke-width="1.5px"></circle><path class="a" d="M8.223 17.189L11.973 21l3.75-3.811" fill="none" stroke="#212121" stroke-linecap="round" stroke-linejoin="round" stroke-width="1.5px"></path><path class="a" d="M21.783 23.25a10.5 10.5 0 0 0-19.619 0" fill="none" stroke="#212121" stroke-linecap="round" stroke-linejoin="round" stroke-width="1.5px"></path><path class="a" d="M11.973 3.75a5.221 5.221 0 0 1 2.875.857 3 3 0 1 0-5.75 0 5.223 5.223 0 0 1 2.875-.857z" fill="none" stroke="#212121" stroke-linecap="round" stroke-linejoin="round" stroke-width="1.5px"></path><path class="a" d="M9.098 4.607L5.223 2.25" fill="none" stroke="#212121" stroke-linecap="round" stroke-linejoin="round" stroke-width="1.5px"></path><path class="a" d="M14.848 4.607l3.875-2.357" fill="none" stroke="#212121" stroke-linecap="round" stroke-linejoin="round" stroke-width="1.5px"></path></g></svg>