<svg xmlns="http://www.w3.org/2000/svg" width="24" height="24" viewBox="0 0 24 24"><title>outdoors woodchopping</title><g fill="#212121" class="nc-icon-wrapper"><defs></defs><path class="cls-1" d="M10.139 8.987l-.266-3.343-1.55-2.569L12.176.75l1.55 2.569 2.834 1.793a5.437 5.437 0 0 1-6.421 3.875z" fill="none" stroke="#212121" stroke-linecap="round" stroke-linejoin="round" stroke-width="1.5px"></path><path class="cls-1" d="M9.098 4.359L.75 9.397" fill="none" stroke="#212121" stroke-linecap="round" stroke-linejoin="round" stroke-width="1.5px"></path><path class="cls-1" d="M12.951 2.034l1.284-.775" fill="none" stroke="#212121" stroke-linecap="round" stroke-linejoin="round" stroke-width="1.5px"></path><path class="cls-1" d="M14.25 18.75a4.5 4.5 0 1 0 6.75-3.9l-2.25 3.9z" fill="none" stroke="#212121" stroke-linecap="round" stroke-linejoin="round" stroke-width="1.5px"></path><path class="cls-1" d="M13.5 14.625a3.75 3.75 0 0 1 3.75-3.75l.75 4.5z" fill="none" stroke="#212121" stroke-linecap="round" stroke-linejoin="round" stroke-width="1.5px"></path><path class="cls-1" d="M6.75 19.5A3.75 3.75 0 0 1 3 23.25l-1.5-4.5z" fill="none" stroke="#212121" stroke-linecap="round" stroke-linejoin="round" stroke-width="1.5px"></path></g></svg>