<svg xmlns="http://www.w3.org/2000/svg" width="24" height="24" viewBox="0 0 24 24"><title>outdoors kite flying</title><g fill="#212121" class="nc-icon-wrapper"><defs></defs><path class="cls-1" d="M16.881 16.269a.751.751 0 0 1-1.262 0l-5.5-8.979a.751.751 0 0 1 .133-.966l5.5-5.385a.751.751 0 0 1 1 0l5.5 5.385a.751.751 0 0 1 .133.966z" fill="none" stroke="#212121" stroke-linecap="round" stroke-linejoin="round" stroke-width="1.5px"></path><path class="cls-1" d="M10.01 6.75h12.48" fill="none" stroke="#212121" stroke-linecap="round" stroke-linejoin="round" stroke-width="1.5px"></path><path class="cls-1" d="M1.25 23.25l1.982-1.982a5.138 5.138 0 0 1 5.76-1.044 5.14 5.14 0 0 0 6.939-2.874l.319-.737V.75" fill="none" stroke="#212121" stroke-linecap="round" stroke-linejoin="round" stroke-width="1.5px"></path></g></svg>