<svg xmlns="http://www.w3.org/2000/svg" width="24" height="24" viewBox="0 0 24 24"><title>outdoors camp fire guitar</title><g fill="#212121" class="nc-icon-wrapper"><defs></defs><path class="cls-1" d="M11.9 5.277a.309.309 0 0 0-.39.44 4.976 4.976 0 0 1-.085 4.8 1.765 1.765 0 0 1-1.842-1.163.3.3 0 0 0-.427-.16 4.16 4.16 0 0 0-1.767 3.771 4.616 4.616 0 0 0 9.219-.2A7.324 7.324 0 0 0 11.9 5.277z" fill="none" stroke="#212121" stroke-linecap="round" stroke-linejoin="round" stroke-width="1.5px"></path><circle class="cls-1" cx="20.518" cy="5.491" r="1.5" fill="none" stroke="#212121" stroke-linecap="round" stroke-linejoin="round" stroke-width="1.5px"></circle><path class="cls-1" d="M21.955 5.061L20.664.75l2.586.792" fill="none" stroke="#212121" stroke-linecap="round" stroke-linejoin="round" stroke-width="1.5px"></path><circle class="cls-1" cx="2.25" cy="8.461" r="1.5" fill="none" stroke="#212121" stroke-linecap="round" stroke-linejoin="round" stroke-width="1.5px"></circle><path class="cls-1" d="M3.609 7.825L1.699 3.75" fill="none" stroke="#212121" stroke-linecap="round" stroke-linejoin="round" stroke-width="1.5px"></path><path class="cls-1" d="M6 18.75l12 4.5" fill="none" stroke="#212121" stroke-linecap="round" stroke-linejoin="round" stroke-width="1.5px"></path><path class="cls-1" d="M18 18.75l-12 4.5" fill="none" stroke="#212121" stroke-linecap="round" stroke-linejoin="round" stroke-width="1.5px"></path></g></svg>