<svg xmlns="http://www.w3.org/2000/svg" width="24" height="24" viewBox="0 0 24 24"><title>outdoors bench sit</title><g fill="#212121" class="nc-icon-wrapper"><defs></defs><circle class="cls-1" cx="9" cy="3.625" r="2.625" fill="none" stroke="#212121" stroke-linecap="round" stroke-linejoin="round" stroke-width="1.5px"></circle><path class="cls-1" d="M9.75 22.75a1.5 1.5 0 0 1-1.422-1.025L7.169 18.25H3.75a1.5 1.5 0 0 1-1.342-2.171l3.75-7.5a1.5 1.5 0 0 1 2.013-.671l2.683 1.342h3.4a1.5 1.5 0 0 1 0 3H10.5a1.5 1.5 0 0 1-.671-.158l-1.658-.829-1.994 3.987H8.25a1.5 1.5 0 0 1 1.422 1.025l1.5 4.5A1.5 1.5 0 0 1 9.75 22.75z" fill="none" stroke="#212121" stroke-linecap="round" stroke-linejoin="round" stroke-width="1.5px"></path><path class="cls-1" d="M.75 18.25h3v4.5" fill="none" stroke="#212121" stroke-linecap="round" stroke-linejoin="round" stroke-width="1.5px"></path><path class="cls-1" d="M14.25 12.25h9" fill="none" stroke="#212121" stroke-linecap="round" stroke-linejoin="round" stroke-width="1.5px"></path><path class="cls-1" d="M14.25 17.5h7.5" fill="none" stroke="#212121" stroke-linecap="round" stroke-linejoin="round" stroke-width="1.5px"></path><path class="cls-1" d="M16.5 12.25l-3 10.5" fill="none" stroke="#212121" stroke-linecap="round" stroke-linejoin="round" stroke-width="1.5px"></path><path class="cls-1" d="M19.5 12.25l3 10.5" fill="none" stroke="#212121" stroke-linecap="round" stroke-linejoin="round" stroke-width="1.5px"></path></g></svg>