<svg xmlns="http://www.w3.org/2000/svg" width="24" height="24" viewBox="0 0 24 24"><title>paralympics archery</title><g fill="#212121" class="nc-icon-wrapper"><defs></defs><circle class="cls-1" cx="8.643" cy="3.375" r="2.625" fill="none" stroke="#212121" stroke-linecap="round" stroke-linejoin="round" stroke-width="1.5px"></circle><path class="cls-1" d="M11.978 20.227a6 6 0 0 1-10.421-5.954" fill="none" stroke="#212121" stroke-linecap="round" stroke-linejoin="round" stroke-width="1.5px"></path><path class="cls-1" d="M12.768 8.25h4.5a1.5 1.5 0 0 1 0 3h-6v3h2.345a4.485 4.485 0 0 1 3.457 1.62l2.851 3.419a1.5 1.5 0 0 1-2.306 1.922l-2.851-3.42a1.486 1.486 0 0 0-1.151-.541H8.268a1.5 1.5 0 0 1-1.5-1.5v-1.5" fill="none" stroke="#212121" stroke-linecap="round" stroke-linejoin="round" stroke-width="1.5px"></path><path class="cls-1" d="M21.768 16.6a16.549 16.549 0 0 0 0-13.69" fill="none" stroke="#212121" stroke-linecap="round" stroke-linejoin="round" stroke-width="1.5px"></path><path class="cls-1" d="M8.268 11.25h-4.5a1.5 1.5 0 0 1 0-3h4.5a1.5 1.5 0 0 1 0 3z" fill="none" stroke="#212121" stroke-linecap="round" stroke-linejoin="round" stroke-width="1.5px"></path></g></svg>