<svg xmlns="http://www.w3.org/2000/svg" width="24" height="24" viewBox="0 0 24 24"><title>paralympics racing</title><g fill="#212121" class="nc-icon-wrapper"><defs></defs><path class="cls-1" d="M13.535 21.75a1.5 1.5 0 0 1-3 0v-6a1.5 1.5 0 0 1 3 0z" fill="none" stroke="#212121" stroke-linecap="round" stroke-linejoin="round" stroke-width="1.5px"></path><path class="cls-1" d="M5.812 18.964a1.5 1.5 0 1 1-2.934-.626l.939-4.4a1.5 1.5 0 1 1 2.934.627z" fill="none" stroke="#212121" stroke-linecap="round" stroke-linejoin="round" stroke-width="1.5px"></path><path class="cls-1" d="M6.178 17.25h4.357" fill="none" stroke="#212121" stroke-linecap="round" stroke-linejoin="round" stroke-width="1.5px"></path><path class="cls-1" d="M18.262 18.964a1.5 1.5 0 1 0 2.934-.626l-.94-4.4a1.5 1.5 0 1 0-2.934.627z" fill="none" stroke="#212121" stroke-linecap="round" stroke-linejoin="round" stroke-width="1.5px"></path><path class="cls-1" d="M17.896 17.25h-4.357" fill="none" stroke="#212121" stroke-linecap="round" stroke-linejoin="round" stroke-width="1.5px"></path><circle class="cls-1" cx="12.037" cy="3.375" r="2.625" fill="none" stroke="#212121" stroke-linecap="round" stroke-linejoin="round" stroke-width="1.5px"></circle><path class="cls-1" d="M15.036 12.75v-2.56a11.115 11.115 0 0 1 4.026 2.024 1.5 1.5 0 1 0 1.875-2.341 14.246 14.246 0 0 0-18.025.182 1.5 1.5 0 1 0 1.922 2.3 11.23 11.23 0 0 1 4.2-2.195v2.59" fill="none" stroke="#212121" stroke-linecap="round" stroke-linejoin="round" stroke-width="1.5px"></path></g></svg>