<svg xmlns="http://www.w3.org/2000/svg" width="24" height="24" viewBox="0 0 24 24"><title>paralympics swimming</title><g fill="#212121" class="nc-icon-wrapper"><defs></defs><circle class="cls-1" cx="19.5" cy="5.875" r="2.625" fill="none" stroke="#212121" stroke-linecap="round" stroke-linejoin="round" stroke-width="1.5px"></circle><path class="cls-1" d="M7.379 11.307l3.831-2.395L9.9 7.41a1.5 1.5 0 1 1 2.258-1.975l4.515 5.165" fill="none" stroke="#212121" stroke-linecap="round" stroke-linejoin="round" stroke-width="1.5px"></path><path class="cls-1" d="M.75 19.75a4.666 4.666 0 0 0 3.75-1.9 4.649 4.649 0 0 0 7.5 0 4.649 4.649 0 0 0 7.5 0 4.666 4.666 0 0 0 3.75 1.9" fill="none" stroke="#212121" stroke-linecap="round" stroke-linejoin="round" stroke-width="1.5px"></path><path class="cls-1" d="M.75 15.25a4.666 4.666 0 0 0 3.75-1.9 4.649 4.649 0 0 0 7.5 0 4.649 4.649 0 0 0 7.5 0 4.666 4.666 0 0 0 3.75 1.9" fill="none" stroke="#212121" stroke-linecap="round" stroke-linejoin="round" stroke-width="1.5px"></path></g></svg>