<svg xmlns="http://www.w3.org/2000/svg" width="24" height="24" viewBox="0 0 24 24"><title>paralympics tennis</title><g fill="#212121" class="nc-icon-wrapper"><defs></defs><path class="cls-1" d="M14.784 21.875a1.5 1.5 0 0 1-3 0v-6a1.5 1.5 0 0 1 3 0z" fill="none" stroke="#212121" stroke-linecap="round" stroke-linejoin="round" stroke-width="1.5px"></path><path class="cls-1" d="M7.061 19.089a1.5 1.5 0 0 1-2.934-.626l.94-4.4A1.5 1.5 0 1 1 8 14.689z" fill="none" stroke="#212121" stroke-linecap="round" stroke-linejoin="round" stroke-width="1.5px"></path><path class="cls-1" d="M7.427 17.375h4.357" fill="none" stroke="#212121" stroke-linecap="round" stroke-linejoin="round" stroke-width="1.5px"></path><path class="cls-1" d="M19.512 19.089a1.5 1.5 0 1 0 2.933-.626l-.939-4.4a1.5 1.5 0 1 0-2.934.627z" fill="none" stroke="#212121" stroke-linecap="round" stroke-linejoin="round" stroke-width="1.5px"></path><path class="cls-1" d="M19.145 17.375h-4.357" fill="none" stroke="#212121" stroke-linecap="round" stroke-linejoin="round" stroke-width="1.5px"></path><circle class="cls-1" cx="13.286" cy="3.5" r="2.625" fill="none" stroke="#212121" stroke-linecap="round" stroke-linejoin="round" stroke-width="1.5px"></circle><path class="cls-1" d="M16.285 12.875v-2.56a11.132 11.132 0 0 1 4.028 2.024A1.5 1.5 0 1 0 22.188 10a14.292 14.292 0 0 0-8.9-3.123 11.267 11.267 0 0 1-5.3-1.321A1.5 1.5 0 0 0 6.575 8.2a14.2 14.2 0 0 0 3.71 1.335v3.341" fill="none" stroke="#212121" stroke-linecap="round" stroke-linejoin="round" stroke-width="1.5px"></path><ellipse class="cls-1" cx="3.312" cy="2.989" rx="1.875" ry="2.25" transform="rotate(-38.327 3.312 2.99)" fill="none" stroke="#212121" stroke-linecap="round" stroke-linejoin="round" stroke-width="1.5px"></ellipse><path class="cls-1" d="M4.707 4.754l1.202 1.52" fill="none" stroke="#212121" stroke-linecap="round" stroke-linejoin="round" stroke-width="1.5px"></path><path class="cls-1" d="M7.284 1.25a.375.375 0 0 1 .375.375" fill="none" stroke="#212121" stroke-linecap="round" stroke-linejoin="round" stroke-width="1.5px"></path><path class="cls-1" d="M6.909 1.625a.375.375 0 0 1 .375-.375" fill="none" stroke="#212121" stroke-linecap="round" stroke-linejoin="round" stroke-width="1.5px"></path><path class="cls-1" d="M7.284 2a.375.375 0 0 1-.375-.375" fill="none" stroke="#212121" stroke-linecap="round" stroke-linejoin="round" stroke-width="1.5px"></path><path class="cls-1" d="M7.659 1.625A.375.375 0 0 1 7.284 2" fill="none" stroke="#212121" stroke-linecap="round" stroke-linejoin="round" stroke-width="1.5px"></path></g></svg>