<svg xmlns="http://www.w3.org/2000/svg" width="24" height="24" viewBox="0 0 24 24"><title>party throw up</title><g fill="#212121" class="nc-icon-wrapper"><defs></defs><circle class="cls-1" cx="8.25" cy="6.625" r="2.625" fill="none" stroke="#212121" stroke-linecap="round" stroke-linejoin="round" stroke-width="1.5px"></circle><path class="cls-1" d="M9 18.25a1.5 1.5 0 0 1-.9-2.7l2.541-1.905.637-3.189A1.5 1.5 0 0 1 12.75 9.25h6a1.5 1.5 0 0 1 1.488 1.686L19.7 15.25h2.05a1.5 1.5 0 0 1 0 3H18a1.5 1.5 0 0 1-1.488-1.686l.539-4.314h-3.072l-.508 2.544a1.5 1.5 0 0 1-.572.906l-3 2.25a1.49 1.49 0 0 1-.899.3z" fill="none" stroke="#212121" stroke-linecap="round" stroke-linejoin="round" stroke-width="1.5px"></path><path class="cls-1" d="M5.625 16.75a2.2 2.2 0 0 0-.384.062c0-.021.009-.041.009-.062 0-.828-1.007-1.5-2.25-1.5s-2.25.672-2.25 1.5 1.007 1.5 2.25 1.5a3.21 3.21 0 0 0 .774-.1c0 .034-.024.063-.024.1a1.719 1.719 0 0 0 1.875 1.5 1.719 1.719 0 0 0 1.875-1.5 1.719 1.719 0 0 0-1.875-1.5z" fill="none" stroke="#212121" stroke-linecap="round" stroke-linejoin="round" stroke-width="1.5px"></path><path class="cls-1" d="M6.886 13.046a2.656 2.656 0 0 1 .506-.889" fill="none" stroke="#212121" stroke-linecap="round" stroke-linejoin="round" stroke-width="1.5px"></path><path class="cls-1" d="M3.591 11.371a5.662 5.662 0 0 1 .772-.786" fill="none" stroke="#212121" stroke-linecap="round" stroke-linejoin="round" stroke-width="1.5px"></path></g></svg>