<svg xmlns="http://www.w3.org/2000/svg" width="24" height="24" viewBox="0 0 24 24"><title>passport hand</title><g fill="#212121" class="nc-icon-wrapper"><defs></defs><path class="a" d="M7.5 15l1.673-1.256a1.57 1.57 0 0 1 2.247.385 1.571 1.571 0 0 1 0 1.741l-1.645 2.467A4.5 4.5 0 0 1 7.7 20.019L5.25 21" fill="none" stroke="#212121" stroke-linecap="round" stroke-linejoin="round" stroke-width="1.5px"></path><path class="a" d="M8.25 9.75l-3.595 1.54a4.5 4.5 0 0 0-2.364 2.364L1.114 16.4a4.5 4.5 0 0 0-.364 1.773v5.077" fill="none" stroke="#212121" stroke-linecap="round" stroke-linejoin="round" stroke-width="1.5px"></path><path class="a" d="M8.25 14.437V3A2.25 2.25 0 0 1 10.5.75H21A2.25 2.25 0 0 1 23.25 3v18A2.25 2.25 0 0 1 21 23.25H10.5A2.25 2.25 0 0 1 8.25 21v-1.245" fill="none" stroke="#212121" stroke-linecap="round" stroke-linejoin="round" stroke-width="1.5px"></path><path class="a" d="M11.506 10.5a4.5 4.5 0 1 1 2.749 5.746" fill="none" stroke="#212121" stroke-linecap="round" stroke-linejoin="round" stroke-width="1.5px"></path><path class="a" d="M15.75 7.5v9" fill="none" stroke="#212121" stroke-linecap="round" stroke-linejoin="round" stroke-width="1.5px"></path><path class="a" d="M20.25 12H13.5" fill="none" stroke="#212121" stroke-linecap="round" stroke-linejoin="round" stroke-width="1.5px"></path></g></svg>