<svg xmlns="http://www.w3.org/2000/svg" width="24" height="24" viewBox="0 0 24 24"><title>pasta noodles</title><g fill="#212121" class="nc-icon-wrapper"><defs></defs><path class="cls-1" d="M13.114 23.25H4.886A1.5 1.5 0 0 1 3.406 22L1.51 10.623a.75.75 0 0 1 .74-.873h13.5a.75.75 0 0 1 .74.873L14.594 22a1.5 1.5 0 0 1-1.48 1.25z" fill="none" stroke="#212121" stroke-linecap="round" stroke-linejoin="round" stroke-width="1.5px"></path><path class="cls-1" d="M9.557 13.5l-.618.823a1.584 1.584 0 0 0 .243 2.177 1.585 1.585 0 0 1 .242 2.177l-.617.823" fill="none" stroke="#212121" stroke-linecap="round" stroke-linejoin="round" stroke-width="1.5px"></path><path class="cls-1" d="M6 9.75v-7.5" fill="none" stroke="#212121" stroke-linecap="round" stroke-linejoin="round" stroke-width="1.5px"></path><path class="cls-1" d="M9 6.75v-6" fill="none" stroke="#212121" stroke-linecap="round" stroke-linejoin="round" stroke-width="1.5px"></path><path class="cls-1" d="M12 6.75V3" fill="none" stroke="#212121" stroke-linecap="round" stroke-linejoin="round" stroke-width="1.5px"></path><path class="cls-1" d="M14.654 3.448l7.846.302" fill="none" stroke="#212121" stroke-linecap="round" stroke-linejoin="round" stroke-width="1.5px"></path><path class="cls-1" d="M1.5 2.25H3" fill="none" stroke="#212121" stroke-linecap="round" stroke-linejoin="round" stroke-width="1.5px"></path><path class="cls-1" d="M14.852 6.618L22.5 7.5" fill="none" stroke="#212121" stroke-linecap="round" stroke-linejoin="round" stroke-width="1.5px"></path><path class="cls-1" d="M1.5 5.25h1.544" fill="none" stroke="#212121" stroke-linecap="round" stroke-linejoin="round" stroke-width="1.5px"></path></g></svg>