<svg xmlns="http://www.w3.org/2000/svg" width="24" height="24" viewBox="0 0 24 24"><title>peopleman moustache 2</title><g fill="#212121" class="nc-icon-wrapper"><defs></defs><path class="a" d="M2.25 23.25a9.73 9.73 0 0 1 3.659-7.614" fill="none" stroke="#212121" stroke-linecap="round" stroke-linejoin="round" stroke-width="1.5px"></path><path class="a" d="M7.691 9a5.25 5.25 0 1 1 8.618 0" fill="none" stroke="#212121" stroke-linecap="round" stroke-linejoin="round" stroke-width="1.5px"></path><path class="a" d="M6.871 4.875H9a3.743 3.743 0 0 0 3-1.5 3.743 3.743 0 0 0 3 1.5h2.129" fill="none" stroke="#212121" stroke-linecap="round" stroke-linejoin="round" stroke-width="1.5px"></path><path class="a" d="M11.25 9c1.1 2.343-2.968 3.411-5.4 2.53.879-2.43 4.302-4.873 5.4-2.53z" fill="none" stroke="#212121" stroke-linecap="round" stroke-linejoin="round" stroke-width="1.5px"></path><path class="a" d="M12.75 9c-1.1 2.343 2.968 3.411 5.4 2.53-.879-2.43-4.302-4.873-5.4-2.53z" fill="none" stroke="#212121" stroke-linecap="round" stroke-linejoin="round" stroke-width="1.5px"></path><path class="a" d="M21.75 23.25a9.73 9.73 0 0 0-3.659-7.614" fill="none" stroke="#212121" stroke-linecap="round" stroke-linejoin="round" stroke-width="1.5px"></path><path class="a" d="M15 14.25c0 3.812-3 4.5-3 4.5s-3-.688-3-4.5" fill="none" stroke="#212121" stroke-linecap="round" stroke-linejoin="round" stroke-width="1.5px"></path></g></svg>