<svg xmlns="http://www.w3.org/2000/svg" width="24" height="24" viewBox="0 0 24 24"><title>people woman ribbon</title><g fill="#212121" class="nc-icon-wrapper"><defs></defs><path class="a" d="M21.449 23.25a10.484 10.484 0 0 0-18.953 0" fill="none" stroke="#212121" stroke-linecap="round" stroke-linejoin="round" stroke-width="1.5px"></path><path class="a" d="M6.776 11.25a5.25 5.25 0 0 0 10.393 0" fill="none" stroke="#212121" stroke-linecap="round" stroke-linejoin="round" stroke-width="1.5px"></path><path class="a" d="M3.723 10.5v.576a4.5 4.5 0 0 1-.364 1.773l-1.376 3.21a1.5 1.5 0 0 0 .762 1.961 14.607 14.607 0 0 0 3.391 1.007" fill="none" stroke="#212121" stroke-linecap="round" stroke-linejoin="round" stroke-width="1.5px"></path><path class="a" d="M17.809 19.027A14.607 14.607 0 0 0 21.2 18.02a1.5 1.5 0 0 0 .762-1.961l-1.376-3.21a4.5 4.5 0 0 1-.363-1.773V10.5" fill="none" stroke="#212121" stroke-linecap="round" stroke-linejoin="round" stroke-width="1.5px"></path><path class="a" d="M17.677.811l-3.816 2.467a2.244 2.244 0 0 1 0 2.443l3.815 2.467a.75.75 0 0 0 1.047-.688v-6a.75.75 0 0 0-1.046-.689z" fill="none" stroke="#212121" stroke-linecap="round" stroke-linejoin="round" stroke-width="1.5px"></path><path class="a" d="M9.723 4.5a2.231 2.231 0 0 1 .361-1.222L6.268.811a.75.75 0 0 0-1.045.689v6a.75.75 0 0 0 1.045.689l3.815-2.467a2.238 2.238 0 0 1-.36-1.222z" fill="none" stroke="#212121" stroke-linecap="round" stroke-linejoin="round" stroke-width="1.5px"></path><circle class="a" cx="11.973" cy="4.5" r="2.25" fill="none" stroke="#212121" stroke-linecap="round" stroke-linejoin="round" stroke-width="1.5px"></circle><path class="a" d="M9.723 23.25l-2.575-4.834" fill="none" stroke="#212121" stroke-linecap="round" stroke-linejoin="round" stroke-width="1.5px"></path><path class="a" d="M14.223 23.25l2.574-4.834" fill="none" stroke="#212121" stroke-linecap="round" stroke-linejoin="round" stroke-width="1.5px"></path></g></svg>