<svg xmlns="http://www.w3.org/2000/svg" width="24" height="24" viewBox="0 0 24 24"><title>people woman 12</title><g fill="#212121" class="nc-icon-wrapper"><defs></defs><path class="a" d="M17.809 19.026A14.584 14.584 0 0 0 21.2 18.02a1.5 1.5 0 0 0 .763-1.961l-1.376-3.21a4.5 4.5 0 0 1-.364-1.773V9a8.25 8.25 0 1 0-16.5 0v2.076a4.5 4.5 0 0 1-.364 1.773l-1.376 3.21a1.5 1.5 0 0 0 .763 1.961 14.584 14.584 0 0 0 3.391 1.006" fill="none" stroke="#212121" stroke-linecap="round" stroke-linejoin="round" stroke-width="1.5px"></path><path class="a" d="M8.825 17.732a10.4 10.4 0 0 0-2.746 1.334l1.394 4.184 4.5-3z" fill="none" stroke="#212121" stroke-linecap="round" stroke-linejoin="round" stroke-width="1.5px"></path><path class="a" d="M15.121 17.732l-3.148 2.518 4.5 3 1.394-4.184a10.4 10.4 0 0 0-2.746-1.334z" fill="none" stroke="#212121" stroke-linecap="round" stroke-linejoin="round" stroke-width="1.5px"></path><path class="a" d="M2.5 23.25a10.573 10.573 0 0 1 3.582-4.184 10.4 10.4 0 0 1 2.746-1.334l3.148 2.518 3.148-2.518a10.4 10.4 0 0 1 2.746 1.334 10.573 10.573 0 0 1 3.582 4.184" fill="none" stroke="#212121" stroke-linecap="round" stroke-linejoin="round" stroke-width="1.5px"></path><path class="a" d="M17.223 7.5v2.25h-10.5V7.5" fill="none" stroke="#212121" stroke-linecap="round" stroke-linejoin="round" stroke-width="1.5px"></path><path class="a" d="M6.777 9.75a5.142 5.142 0 0 0-.054.75 5.25 5.25 0 0 0 10.5 0 5.142 5.142 0 0 0-.054-.75z" fill="none" stroke="#212121" stroke-linecap="round" stroke-linejoin="round" stroke-width="1.5px"></path><path class="a" d="M14.223 9.75v-1.5" fill="none" stroke="#212121" stroke-linecap="round" stroke-linejoin="round" stroke-width="1.5px"></path><path class="a" d="M9.723 9.75v-1.5" fill="none" stroke="#212121" stroke-linecap="round" stroke-linejoin="round" stroke-width="1.5px"></path></g></svg>