<svg xmlns="http://www.w3.org/2000/svg" width="24" height="24" viewBox="0 0 24 24"><title>people woman 6</title><g fill="#212121" class="nc-icon-wrapper"><defs></defs><path class="a" d="M8.25 17.189V18a3.75 3.75 0 0 0 7.5 0v-.811" fill="none" stroke="#212121" stroke-linecap="round" stroke-linejoin="round" stroke-width="1.5px"></path><path class="a" d="M6.754 8.808a3.346 3.346 0 0 0 1.871.567A3.744 3.744 0 0 0 12 6.75a3.744 3.744 0 0 0 3.375 2.625 3.346 3.346 0 0 0 1.871-.567" fill="none" stroke="#212121" stroke-linecap="round" stroke-linejoin="round" stroke-width="1.5px"></path><circle class="a" cx="12" cy="9" r="5.25" fill="none" stroke="#212121" stroke-linecap="round" stroke-linejoin="round" stroke-width="1.5px"></circle><path class="a" d="M21.809 23.25a10.5 10.5 0 0 0-19.618 0" fill="none" stroke="#212121" stroke-linecap="round" stroke-linejoin="round" stroke-width="1.5px"></path><path class="a" d="M16.531 11.653a16.005 16.005 0 0 0 5.246 2.6 52.5 52.5 0 0 1-1.5-9.75 3.75 3.75 0 0 0-7.437-.683" fill="none" stroke="#212121" stroke-linecap="round" stroke-linejoin="round" stroke-width="1.5px"></path></g></svg>