<svg xmlns="http://www.w3.org/2000/svg" width="24" height="24" viewBox="0 0 24 24"><title>people man 10</title><g fill="#212121" class="nc-icon-wrapper"><defs></defs><path class="a" d="M8.251 17.249V18a3.75 3.75 0 0 0 7.5 0v-.751" fill="none" stroke="#212121" stroke-linecap="round" stroke-linejoin="round" stroke-width="1.5px"></path><path class="a" d="M21.28 23.25a9.753 9.753 0 0 0-18.558 0" fill="none" stroke="#212121" stroke-linecap="round" stroke-linejoin="round" stroke-width="1.5px"></path><path class="a" d="M12 7.5c-1.97 0-3 1.5-5.1.249a5.251 5.251 0 1 0 10.2 0C15 9 13.97 7.5 12 7.5z" fill="none" stroke="#212121" stroke-linecap="round" stroke-linejoin="round" stroke-width="1.5px"></path><path class="a" d="M17.1 7.749l.118-5.467a1.5 1.5 0 0 0-1.5-1.532H8.283a1.5 1.5 0 0 0-1.5 1.532L6.9 7.749" fill="none" stroke="#212121" stroke-linecap="round" stroke-linejoin="round" stroke-width="1.5px"></path><path class="a" d="M9.751.75v3" fill="none" stroke="#212121" stroke-linecap="round" stroke-linejoin="round" stroke-width="1.5px"></path><path class="a" d="M14.251.75v3" fill="none" stroke="#212121" stroke-linecap="round" stroke-linejoin="round" stroke-width="1.5px"></path></g></svg>