<svg xmlns="http://www.w3.org/2000/svg" width="24" height="24" viewBox="0 0 24 24"><title>performance tablet increase</title><g fill="#212121" class="nc-icon-wrapper"><defs></defs><path class="a" d="M23.25 20.985l-1.49-2.235V13.5c0-2-3.8-4.14-5.25-5.25" fill="none" stroke="#212121" stroke-linecap="round" stroke-linejoin="round" stroke-width="1.5px"></path><path class="a" d="M18.44 14.793l-3.648-2.923a1.3 1.3 0 0 0-1.843 1.843l3.533 3.987v2.5c0 1.181 1.688 3.045 1.688 3.045" fill="none" stroke="#212121" stroke-linecap="round" stroke-linejoin="round" stroke-width="1.5px"></path><path class="a" d="M13.51 21.75H2.134A1.375 1.375 0 0 1 .76 20.375V2.124A1.374 1.374 0 0 1 2.134.75h13a1.375 1.375 0 0 1 1.376 1.374v11.123" fill="none" stroke="#212121" stroke-linecap="round" stroke-linejoin="round" stroke-width="1.5px"></path><path class="a" d="M9.76 3.75h3v3" fill="none" stroke="#212121" stroke-linecap="round" stroke-linejoin="round" stroke-width="1.5px"></path><path class="a" d="M12.76 3.75l-9 8.25" fill="none" stroke="#212121" stroke-linecap="round" stroke-linejoin="round" stroke-width="1.5px"></path><path class="a" d="M5.25 15.75v3" fill="none" stroke="#212121" stroke-linecap="round" stroke-linejoin="round" stroke-width="1.5px"></path><path class="a" d="M8.25 13.5v5.25" fill="none" stroke="#212121" stroke-linecap="round" stroke-linejoin="round" stroke-width="1.5px"></path></g></svg>