<svg xmlns="http://www.w3.org/2000/svg" width="24" height="24" viewBox="0 0 24 24"><title>performance decrease</title><g fill="#212121" class="nc-icon-wrapper"><defs></defs><path class="a" d="M23.25 23.25H.75" fill="none" stroke="#212121" stroke-linecap="round" stroke-linejoin="round" stroke-width="1.5px"></path><path class="a" d="M18 17.25h3a.75.75 0 0 1 .75.75v5.25h-4.5V18a.75.75 0 0 1 .75-.75z" fill="none" stroke="#212121" stroke-linecap="round" stroke-linejoin="round" stroke-width="1.5px"></path><path class="a" d="M10.5 12.75h3a.75.75 0 0 1 .75.75v9.75h-4.5V13.5a.75.75 0 0 1 .75-.75z" fill="none" stroke="#212121" stroke-linecap="round" stroke-linejoin="round" stroke-width="1.5px"></path><path class="a" d="M3 9.75h3a.75.75 0 0 1 .75.75v12.75h-4.5V10.5A.75.75 0 0 1 3 9.75z" fill="none" stroke="#212121" stroke-linecap="round" stroke-linejoin="round" stroke-width="1.5px"></path><path class="a" d="M4.5.75l16.068 7.297" fill="none" stroke="#212121" stroke-linecap="round" stroke-linejoin="round" stroke-width="1.5px"></path><path class="a" d="M19.374 4.866l1.194 3.181-3.181 1.194" fill="none" stroke="#212121" stroke-linecap="round" stroke-linejoin="round" stroke-width="1.5px"></path></g></svg>