<svg xmlns="http://www.w3.org/2000/svg" width="24" height="24" viewBox="0 0 24 24"><title>performance decrease 1</title><g fill="#212121" class="nc-icon-wrapper"><defs></defs><path class="a" d="M23.25 23.25H.75" fill="none" stroke="#212121" stroke-linecap="round" stroke-linejoin="round" stroke-width="1.5px"></path><path class="a" d="M18 17.25h3a.75.75 0 0 1 .75.75v5.25h-4.5V18a.75.75 0 0 1 .75-.75z" fill="none" stroke="#212121" stroke-linecap="round" stroke-linejoin="round" stroke-width="1.5px"></path><path class="a" d="M10.5 9.75h3a.75.75 0 0 1 .75.75v12.75h-4.5V10.5a.75.75 0 0 1 .75-.75z" fill="none" stroke="#212121" stroke-linecap="round" stroke-linejoin="round" stroke-width="1.5px"></path><path class="a" d="M3 12.75h3a.75.75 0 0 1 .75.75v9.75h-4.5V13.5a.75.75 0 0 1 .75-.75z" fill="none" stroke="#212121" stroke-linecap="round" stroke-linejoin="round" stroke-width="1.5px"></path><path class="a" d="M23.25 6.753v4.5h-4.5" fill="none" stroke="#212121" stroke-linecap="round" stroke-linejoin="round" stroke-width="1.5px"></path><path class="a" d="M23.25 11.253L18.2 6.2a2.249 2.249 0 0 0-2.237-.564l-5.709 1.529a2.251 2.251 0 0 1-2.172-.583L2.25.75" fill="none" stroke="#212121" stroke-linecap="round" stroke-linejoin="round" stroke-width="1.5px"></path></g></svg>