<svg xmlns="http://www.w3.org/2000/svg" width="24" height="24" viewBox="0 0 24 24"><title>pet tracking dog location</title><g fill="#212121" class="nc-icon-wrapper"><defs></defs><path class="cls-1" d="M12 12H5.25a3 3 0 0 1-3-3V7.5a3 3 0 0 1 3-3h7.65a3.006 3.006 0 0 0 2.555-1.425 5.931 5.931 0 0 0 .456-.917A2.253 2.253 0 0 1 18 .75c1.5 0 2.25 1.758 2.25 3a.75.75 0 0 0 .75.75h.75a1.5 1.5 0 0 1 0 3H19.5l-1.153 1.613" fill="none" stroke="#212121" stroke-linecap="round" stroke-linejoin="round" stroke-width="1.5px"></path><path class="cls-1" d="M.75 2.25s0 3.25 2.533 2.986" fill="none" stroke="#212121" stroke-linecap="round" stroke-linejoin="round" stroke-width="1.5px"></path><path class="cls-1" d="M3.75 11.599v4.902" fill="none" stroke="#212121" stroke-linecap="round" stroke-linejoin="round" stroke-width="1.5px"></path><path class="cls-1" d="M6.75 12.001v4.5" fill="none" stroke="#212121" stroke-linecap="round" stroke-linejoin="round" stroke-width="1.5px"></path><path class="cls-1" d="M18.488 8.917l-4.383-4.67" fill="none" stroke="#212121" stroke-linecap="round" stroke-linejoin="round" stroke-width="1.5px"></path><path class="cls-1" d="M18.75 15.376a.375.375 0 0 1 .375.375" fill="none" stroke="#212121" stroke-linecap="round" stroke-linejoin="round" stroke-width="1.5px"></path><path class="cls-1" d="M18.375 15.751a.375.375 0 0 1 .375-.375" fill="none" stroke="#212121" stroke-linecap="round" stroke-linejoin="round" stroke-width="1.5px"></path><path class="cls-1" d="M18.75 16.126a.375.375 0 0 1-.375-.375" fill="none" stroke="#212121" stroke-linecap="round" stroke-linejoin="round" stroke-width="1.5px"></path><path class="cls-1" d="M19.125 15.751a.375.375 0 0 1-.375.375" fill="none" stroke="#212121" stroke-linecap="round" stroke-linejoin="round" stroke-width="1.5px"></path><path class="cls-1" d="M18.75 11.251a4.5 4.5 0 0 1 4.5 4.5c0 1.92-2.688 5.576-3.909 7.137a.751.751 0 0 1-1.182 0c-1.221-1.562-3.909-5.218-3.909-7.138a4.5 4.5 0 0 1 4.5-4.499z" fill="none" stroke="#212121" stroke-linecap="round" stroke-linejoin="round" stroke-width="1.5px"></path></g></svg>