<svg xmlns="http://www.w3.org/2000/svg" width="24" height="24" viewBox="0 0 24 24"><title>pets nail clipper</title><g fill="#212121" class="nc-icon-wrapper"><defs></defs><path class="cls-1" d="M15 .75a1.7 1.7 0 0 1 1.632 2.163l-1.215 2.3a1.5 1.5 0 0 1-1.289.8C10.662 6.1 7.5 6.822 7.5 10.5" fill="none" stroke="#212121" stroke-linecap="round" stroke-linejoin="round" stroke-width="1.5px"></path><path class="cls-1" d="M5.25 21a2.25 2.25 0 0 0 4.5 0v-9a1.5 1.5 0 0 0-1.5-1.5h-1.5a1.5 1.5 0 0 0-1.5 1.5z" fill="none" stroke="#212121" stroke-linecap="round" stroke-linejoin="round" stroke-width="1.5px"></path><path class="cls-1" d="M9 .75a1.7 1.7 0 0 0-1.632 2.163l1.215 2.3a1.5 1.5 0 0 0 1.289.8c3.466.087 6.628.809 6.628 4.487" fill="none" stroke="#212121" stroke-linecap="round" stroke-linejoin="round" stroke-width="1.5px"></path><path class="cls-1" d="M18.75 21a2.25 2.25 0 0 1-4.5 0v-9a1.5 1.5 0 0 1 1.5-1.5h1.5a1.5 1.5 0 0 1 1.5 1.5z" fill="none" stroke="#212121" stroke-linecap="round" stroke-linejoin="round" stroke-width="1.5px"></path></g></svg>