<svg xmlns="http://www.w3.org/2000/svg" width="24" height="24" viewBox="0 0 24 24"><title>pets paw</title><g fill="#212121" class="nc-icon-wrapper"><defs></defs><ellipse class="cls-1" cx="3" cy="12" rx="2.25" ry="3.75" fill="none" stroke="#212121" stroke-linecap="round" stroke-linejoin="round" stroke-width="1.5px"></ellipse><ellipse class="cls-1" cx="8.25" cy="4.5" rx="2.25" ry="3.75" fill="none" stroke="#212121" stroke-linecap="round" stroke-linejoin="round" stroke-width="1.5px"></ellipse><ellipse class="cls-1" cx="21" cy="11.25" rx="2.25" ry="3.75" fill="none" stroke="#212121" stroke-linecap="round" stroke-linejoin="round" stroke-width="1.5px"></ellipse><ellipse class="cls-1" cx="15.75" cy="4.5" rx="2.25" ry="3.75" fill="none" stroke="#212121" stroke-linecap="round" stroke-linejoin="round" stroke-width="1.5px"></ellipse><path class="cls-1" d="M16.324 15.653a1.506 1.506 0 0 1-.578-1.257v-.146a3.75 3.75 0 0 0-7.5 0v.146a1.5 1.5 0 0 1-.578 1.257A3.963 3.963 0 0 0 6 18.75c0 2.485 2.686 4.5 6 4.5s6-2.015 6-4.5a3.963 3.963 0 0 0-1.676-3.097z" fill="none" stroke="#212121" stroke-linecap="round" stroke-linejoin="round" stroke-width="1.5px"></path></g></svg>