<svg xmlns="http://www.w3.org/2000/svg" width="24" height="24" viewBox="0 0 24 24"><title>pets tick</title><g fill="#212121" class="nc-icon-wrapper"><defs></defs><path class="cls-1" d="M16.5 15.005c0 2.489-2.01 5.25-4.5 5.25s-4.5-2.761-4.5-5.25c0-3.856 1.08-6.886 2.64-8.25h3.585c1.635 1.454 2.775 4.859 2.775 8.25z" fill="none" stroke="#212121" stroke-linecap="round" stroke-linejoin="round" stroke-width="1.5px"></path><path class="cls-1" d="M13.725 6.755H10.14l.93-2.266a.956.956 0 0 1 1.86 0z" fill="none" stroke="#212121" stroke-linecap="round" stroke-linejoin="round" stroke-width="1.5px"></path><path class="cls-1" d="M8.721 8.729A6.509 6.509 0 0 1 8.3.755" fill="none" stroke="#212121" stroke-linecap="round" stroke-linejoin="round" stroke-width="1.5px"></path><path class="cls-1" d="M2.25 6.005l.725 1.812a4.5 4.5 0 0 0 2.755 2.6l2.176.725" fill="none" stroke="#212121" stroke-linecap="round" stroke-linejoin="round" stroke-width="1.5px"></path><path class="cls-1" d="M2.25 17.255a5.4 5.4 0 0 1 4.536-4.291l.833-.119" fill="none" stroke="#212121" stroke-linecap="round" stroke-linejoin="round" stroke-width="1.5px"></path><path class="cls-1" d="M4.5 23.255V21.24A6 6 0 0 1 6.257 17l1.294-1.3" fill="none" stroke="#212121" stroke-linecap="round" stroke-linejoin="round" stroke-width="1.5px"></path><path class="cls-1" d="M15.191 8.828A6.507 6.507 0 0 0 15.7.75" fill="none" stroke="#212121" stroke-linecap="round" stroke-linejoin="round" stroke-width="1.5px"></path><path class="cls-1" d="M21.75 6.005l-.725 1.812a4.5 4.5 0 0 1-2.755 2.6l-2.248.749" fill="none" stroke="#212121" stroke-linecap="round" stroke-linejoin="round" stroke-width="1.5px"></path><path class="cls-1" d="M21.75 17.255a5.4 5.4 0 0 0-4.536-4.291l-.865-.124" fill="none" stroke="#212121" stroke-linecap="round" stroke-linejoin="round" stroke-width="1.5px"></path><path class="cls-1" d="M19.5 23.255V21.24A6 6 0 0 0 17.743 17l-1.294-1.3" fill="none" stroke="#212121" stroke-linecap="round" stroke-linejoin="round" stroke-width="1.5px"></path></g></svg>