<svg xmlns="http://www.w3.org/2000/svg" width="24" height="24" viewBox="0 0 24 24"><title>pets hospital</title><g fill="#212121" class="nc-icon-wrapper"><defs></defs><path class="cls-1" d="M9 3.75H6.75V1.5A.75.75 0 0 0 6 .75H4.5a.75.75 0 0 0-.75.75v2.25H1.5a.75.75 0 0 0-.75.75V6a.75.75 0 0 0 .75.75h2.25V9a.75.75 0 0 0 .75.75H6A.75.75 0 0 0 6.75 9V6.75H9A.75.75 0 0 0 9.75 6V4.5A.75.75 0 0 0 9 3.75z" fill="none" stroke="#212121" stroke-linecap="round" stroke-linejoin="round" stroke-width="1.5px"></path><path class="cls-1" d="M14.25 20.25h-9a3 3 0 0 1-3-3v-1.5a3 3 0 0 1 3-3h7.65a3.007 3.007 0 0 0 2.555-1.424 6.067 6.067 0 0 0 .457-.917A2.25 2.25 0 0 1 18 9a2.1 2.1 0 0 1 2.25 2.25 1.5 1.5 0 0 0 1.5 1.5 1.5 1.5 0 0 1 0 3H19.5l-2.136 2.988a3 3 0 0 1-2.605 1.512h-.509" fill="none" stroke="#212121" stroke-linecap="round" stroke-linejoin="round" stroke-width="1.5px"></path><path class="cls-1" d="M.75 10.5s0 3.246 2.533 2.985" fill="none" stroke="#212121" stroke-linecap="round" stroke-linejoin="round" stroke-width="1.5px"></path><path class="cls-1" d="M14.25 20.25v3" fill="none" stroke="#212121" stroke-linecap="round" stroke-linejoin="round" stroke-width="1.5px"></path><path class="cls-1" d="M17.25 23.25l-.728-3.573" fill="none" stroke="#212121" stroke-linecap="round" stroke-linejoin="round" stroke-width="1.5px"></path><path class="cls-1" d="M3.75 19.849v3.401" fill="none" stroke="#212121" stroke-linecap="round" stroke-linejoin="round" stroke-width="1.5px"></path><path class="cls-1" d="M6.75 20.25v3" fill="none" stroke="#212121" stroke-linecap="round" stroke-linejoin="round" stroke-width="1.5px"></path><path class="cls-1" d="M18.488 17.166l-4.383-4.67" fill="none" stroke="#212121" stroke-linecap="round" stroke-linejoin="round" stroke-width="1.5px"></path></g></svg>