<svg xmlns="http://www.w3.org/2000/svg" width="24" height="24" viewBox="0 0 24 24"><title>phone actions merge</title><g fill="#212121" class="nc-icon-wrapper"><defs></defs><path class="a" d="M12.37 22.54l.01.007a4.5 4.5 0 0 0 5.6-.615l.629-.629a1.5 1.5 0 0 0 0-2.122l-2.653-2.651a1.5 1.5 0 0 0-2.122 0 1.5 1.5 0 0 1-2.121 0l-4.242-4.243a1.5 1.5 0 0 1 0-2.121 1.5 1.5 0 0 0 0-2.122L4.819 5.393a1.5 1.5 0 0 0-2.121 0l-.63.629a4.5 4.5 0 0 0-.614 5.6l.006.01A40.606 40.606 0 0 0 12.37 22.54z" fill="none" stroke="#212121" stroke-linecap="round" stroke-linejoin="round" stroke-width="1.5px"></path><path class="a" d="M17.25 12.75l3-3v-9" fill="none" stroke="#212121" stroke-linecap="round" stroke-linejoin="round" stroke-width="1.5px"></path><path class="a" d="M22.125 11.625l1.125 1.125" fill="none" stroke="#212121" stroke-linecap="round" stroke-linejoin="round" stroke-width="1.5px"></path><path class="a" d="M17.25 3.75l3-3 3 3" fill="none" stroke="#212121" stroke-linecap="round" stroke-linejoin="round" stroke-width="1.5px"></path></g></svg>