<svg xmlns="http://www.w3.org/2000/svg" width="24" height="24" viewBox="0 0 24 24"><title>phone ring</title><g fill="#212121" class="nc-icon-wrapper"><defs></defs><path class="a" d="M9.568 12.43a4.5 4.5 0 0 1 0-6.364" fill="none" stroke="#212121" stroke-linecap="round" stroke-linejoin="round" stroke-width="1.5px"></path><path class="a" d="M6.916 15.082a8.251 8.251 0 0 1 0-11.668" fill="none" stroke="#212121" stroke-linecap="round" stroke-linejoin="round" stroke-width="1.5px"></path><path class="a" d="M4.265 17.733a12 12 0 0 1 0-16.97" fill="none" stroke="#212121" stroke-linecap="round" stroke-linejoin="round" stroke-width="1.5px"></path><path class="a" d="M17.25 23.263l3-3.75V5.263" fill="none" stroke="#212121" stroke-linecap="round" stroke-linejoin="round" stroke-width="1.5px"></path><path class="a" d="M14.25 23.263h9v-18H15a.75.75 0 0 0-.75.75v4.323a1.5 1.5 0 0 0 .829 1.341l2.171 1.086v5.25l-3.671 1.835a1.5 1.5 0 0 0-.829 1.342v.573a1.5 1.5 0 0 0 1.5 1.5z" fill="none" stroke="#212121" stroke-linecap="round" stroke-linejoin="round" stroke-width="1.5px"></path><path class="a" d="M23.25.763v4.5" fill="none" stroke="#212121" stroke-linecap="round" stroke-linejoin="round" stroke-width="1.5px"></path></g></svg>