<svg xmlns="http://www.w3.org/2000/svg" width="24" height="24" viewBox="0 0 24 24"><title>phone book</title><g fill="#212121" class="nc-icon-wrapper"><defs></defs><rect class="a" x="2.25" y=".763" width="18" height="22.5" rx="1.5" ry="1.5" fill="none" stroke="#212121" stroke-linecap="round" stroke-linejoin="round" stroke-width="1.5px"></rect><path class="a" d="M23.25 3.013v3" fill="none" stroke="#212121" stroke-linecap="round" stroke-linejoin="round" stroke-width="1.5px"></path><path class="a" d="M23.25 9.013v3" fill="none" stroke="#212121" stroke-linecap="round" stroke-linejoin="round" stroke-width="1.5px"></path><path class="a" d="M23.25 15.013v3" fill="none" stroke="#212121" stroke-linecap="round" stroke-linejoin="round" stroke-width="1.5px"></path><path class="a" d="M11.972 17.148h.005a2.591 2.591 0 0 0 3.2.526l.447-.251a.864.864 0 0 0 .328-1.176l-1.06-1.877a.864.864 0 0 0-1.176-.328.863.863 0 0 1-1.176-.329L10.845 10.7a.864.864 0 0 1 .328-1.176.864.864 0 0 0 .327-1.174l-1.057-1.881a.864.864 0 0 0-1.176-.329l-.447.252A2.591 2.591 0 0 0 7.612 9.4v.006a23.393 23.393 0 0 0 4.36 7.742z" fill="none" stroke="#212121" stroke-linecap="round" stroke-linejoin="round" stroke-width="1.5px"></path><path class="a" d="M.75 5.263h3" fill="none" stroke="#212121" stroke-linecap="round" stroke-linejoin="round" stroke-width="1.5px"></path><path class="a" d="M.75 14.263h3" fill="none" stroke="#212121" stroke-linecap="round" stroke-linejoin="round" stroke-width="1.5px"></path><path class="a" d="M.75 9.763h3" fill="none" stroke="#212121" stroke-linecap="round" stroke-linejoin="round" stroke-width="1.5px"></path><path class="a" d="M.75 18.763h3" fill="none" stroke="#212121" stroke-linecap="round" stroke-linejoin="round" stroke-width="1.5px"></path></g></svg>