<svg xmlns="http://www.w3.org/2000/svg" width="24" height="24" viewBox="0 0 24 24"><title>phone action bin</title><g fill="#212121" class="nc-icon-wrapper"><defs></defs><path class="a" d="M14.625 13.5v7.018a2.732 2.732 0 0 1-2.733 2.732H5.358a2.732 2.732 0 0 1-2.733-2.732V4.983A2.733 2.733 0 0 1 5.358 2.25h3.267" fill="none" stroke="#212121" stroke-linecap="round" stroke-linejoin="round" stroke-width="1.5px"></path><path class="a" d="M2.625 18.75h12" fill="none" stroke="#212121" stroke-linecap="round" stroke-linejoin="round" stroke-width="1.5px"></path><path class="a" d="M10.875.75h10.5" fill="none" stroke="#212121" stroke-linecap="round" stroke-linejoin="round" stroke-width="1.5px"></path><path class="a" d="M17.736 10.5h-3.222a1.5 1.5 0 0 1-1.495-1.385L12.375.75h7.5l-.643 8.365a1.5 1.5 0 0 1-1.496 1.385z" fill="none" stroke="#212121" stroke-linecap="round" stroke-linejoin="round" stroke-width="1.5px"></path><path class="a" d="M16.125.75v9.75" fill="none" stroke="#212121" stroke-linecap="round" stroke-linejoin="round" stroke-width="1.5px"></path><path class="a" d="M12.721 5.25h6.808" fill="none" stroke="#212121" stroke-linecap="round" stroke-linejoin="round" stroke-width="1.5px"></path></g></svg>