<svg xmlns="http://www.w3.org/2000/svg" width="24" height="24" viewBox="0 0 24 24"><title>phone action location</title><g fill="#212121" class="nc-icon-wrapper"><defs></defs><path class="a" d="M14.625 15v5.518a2.732 2.732 0 0 1-2.733 2.732H5.358a2.732 2.732 0 0 1-2.733-2.732V4.983A2.733 2.733 0 0 1 5.358 2.25h4.017" fill="none" stroke="#212121" stroke-linecap="round" stroke-linejoin="round" stroke-width="1.5px"></path><path class="a" d="M2.625 18.75h12" fill="none" stroke="#212121" stroke-linecap="round" stroke-linejoin="round" stroke-width="1.5px"></path><path class="a" d="M20.042.83L9.954 5.154A.954.954 0 0 0 9.9 6.885l3.558 1.779 1.779 3.559a.955.955 0 0 0 1.731-.051L21.3 2.084A.955.955 0 0 0 20.042.83z" fill="none" stroke="#212121" stroke-linecap="round" stroke-linejoin="round" stroke-width="1.5px"></path></g></svg>