<svg xmlns="http://www.w3.org/2000/svg" width="24" height="24" viewBox="0 0 24 24"><title>phone action email</title><g fill="#212121" class="nc-icon-wrapper"><defs></defs><path class="a" d="M14.25 12.75v7.768a2.732 2.732 0 0 1-2.733 2.732H4.983a2.732 2.732 0 0 1-2.733-2.732V4.983A2.733 2.733 0 0 1 4.983 2.25H6.75" fill="none" stroke="#212121" stroke-linecap="round" stroke-linejoin="round" stroke-width="1.5px"></path><path class="a" d="M2.25 18.75h12" fill="none" stroke="#212121" stroke-linecap="round" stroke-linejoin="round" stroke-width="1.5px"></path><path class="a" d="M21.75 2.25v6a1.5 1.5 0 0 1-1.5 1.5h-9a1.5 1.5 0 0 1-1.5-1.5v-6" fill="none" stroke="#212121" stroke-linecap="round" stroke-linejoin="round" stroke-width="1.5px"></path><path class="a" d="M21.75 2.25a1.5 1.5 0 0 0-1.5-1.5h-9a1.5 1.5 0 0 0-1.5 1.5l5.205 3.25a1.5 1.5 0 0 0 1.59 0z" fill="none" stroke="#212121" stroke-linecap="round" stroke-linejoin="round" stroke-width="1.5px"></path></g></svg>