<svg xmlns="http://www.w3.org/2000/svg" width="24" height="24" viewBox="0 0 24 24"><title>phone hand hold</title><g fill="#212121" class="nc-icon-wrapper"><defs></defs><path class="a" d="M19.011 12.6l.473-.117a2.332 2.332 0 0 0 1.709-2.822L19.8 4a2.332 2.332 0 0 0-2.822-1.709l-.968.238" fill="none" stroke="#212121" stroke-linecap="round" stroke-linejoin="round" stroke-width="1.5px"></path><path class="a" d="M7.011 4.737l-2.495.613a2.333 2.333 0 0 0-1.709 2.823L4.2 13.838a2.333 2.333 0 0 0 2.822 1.709l6.494-1.6" fill="none" stroke="#212121" stroke-linecap="round" stroke-linejoin="round" stroke-width="1.5px"></path><path class="a" d="M7.34 10.258l1.21 4.913" fill="none" stroke="#212121" stroke-linecap="round" stroke-linejoin="round" stroke-width="1.5px"></path><path class="a" d="M14.758 6.824l-6 1a1.5 1.5 0 0 1-1.747-1.48V3.385a1.5 1.5 0 0 1 1.254-1.479l6-1a1.5 1.5 0 0 1 1.746 1.48v2.958a1.5 1.5 0 0 1-1.253 1.48z" fill="none" stroke="#212121" stroke-linecap="round" stroke-linejoin="round" stroke-width="1.5px"></path><path class="a" d="M16.011 23.115V21.24a5.61 5.61 0 0 1 .232-1.6 2.986 2.986 0 0 1 1.623-1.924 1.876 1.876 0 0 0 1.145-1.728v-5.623a1.5 1.5 0 1 0-3 0v2.25a3 3 0 0 0-3 3" fill="none" stroke="#212121" stroke-linecap="round" stroke-linejoin="round" stroke-width="1.5px"></path><path class="a" d="M8.511 23.115V21.24a5.61 5.61 0 0 0-.232-1.6 2.986 2.986 0 0 0-1.623-1.924 1.876 1.876 0 0 1-1.145-1.726v-.583" fill="none" stroke="#212121" stroke-linecap="round" stroke-linejoin="round" stroke-width="1.5px"></path></g></svg>