<svg xmlns="http://www.w3.org/2000/svg" width="24" height="24" viewBox="0 0 24 24"><title>phone action edit 1</title><g fill="#212121" class="nc-icon-wrapper"><defs></defs><path class="a" d="M14.25 6V3.75a3 3 0 0 0-3-3h-7.5a3 3 0 0 0-3 3v16.5a3 3 0 0 0 3 3h7.5a3 3 0 0 0 3-3v-3" fill="none" stroke="#212121" stroke-linecap="round" stroke-linejoin="round" stroke-width="1.5px"></path><path class="a" d="M.75 18.75h13.5" fill="none" stroke="#212121" stroke-linecap="round" stroke-linejoin="round" stroke-width="1.5px"></path><path class="a" d="M14.646 13.725a1.493 1.493 0 0 1-.766.41l-2.206.442.441-2.207a1.5 1.5 0 0 1 .41-.766l7.1-7.1 2.125 2.118z" fill="none" stroke="#212121" stroke-linecap="round" stroke-linejoin="round" stroke-width="1.5px"></path><path class="a" d="M21.75 6.622L19.629 4.5l1.06-1.06a1.5 1.5 0 0 1 2.122 0 1.5 1.5 0 0 1 0 2.121z" fill="none" stroke="#212121" stroke-linecap="round" stroke-linejoin="round" stroke-width="1.5px"></path><path class="a" d="M13.795 10.334l2.121 2.121" fill="none" stroke="#212121" stroke-linecap="round" stroke-linejoin="round" stroke-width="1.5px"></path></g></svg>