<svg xmlns="http://www.w3.org/2000/svg" width="24" height="24" viewBox="0 0 24 24"><title>phone action settings</title><g fill="#212121" class="nc-icon-wrapper"><defs></defs><path class="a" d="M13.125 14.25v6.268a2.732 2.732 0 0 1-2.733 2.732H3.858a2.732 2.732 0 0 1-2.733-2.732V4.983A2.733 2.733 0 0 1 3.858 2.25h4.767" fill="none" stroke="#212121" stroke-linecap="round" stroke-linejoin="round" stroke-width="1.5px"></path><path class="a" d="M1.125 18.75h12" fill="none" stroke="#212121" stroke-linecap="round" stroke-linejoin="round" stroke-width="1.5px"></path><circle class="a" cx="16.875" cy="7.5" r="1.5" fill="none" stroke="#212121" stroke-linecap="round" stroke-linejoin="round" stroke-width="1.5px"></circle><path class="a" d="M18.149 1.7l.442 1.452a.993.993 0 0 0 1.174.681l1.472-.341a1.339 1.339 0 0 1 1.275 2.218l-1.031 1.109a1 1 0 0 0 0 1.362l1.031 1.111a1.339 1.339 0 0 1-1.275 2.219l-1.472-.342a.994.994 0 0 0-1.174.681l-.442 1.45a1.33 1.33 0 0 1-2.548 0l-.442-1.453a.994.994 0 0 0-1.174-.681l-1.472.342a1.339 1.339 0 0 1-1.275-2.219l1.031-1.111a1 1 0 0 0 0-1.362l-1.031-1.108a1.339 1.339 0 0 1 1.275-2.218l1.472.341a.993.993 0 0 0 1.174-.681L15.6 1.7a1.33 1.33 0 0 1 2.549 0z" fill="none" stroke="#212121" stroke-linecap="round" stroke-linejoin="round" stroke-width="1.5px"></path></g></svg>