<svg xmlns="http://www.w3.org/2000/svg" width="24" height="24" viewBox="0 0 24 24"><title>phone action at</title><g fill="#212121" class="nc-icon-wrapper"><defs></defs><path class="a" d="M14.25 15.75v4.768a2.732 2.732 0 0 1-2.733 2.732H4.983a2.732 2.732 0 0 1-2.733-2.732V4.983A2.733 2.733 0 0 1 4.983 2.25H6.75" fill="none" stroke="#212121" stroke-linecap="round" stroke-linejoin="round" stroke-width="1.5px"></path><path class="a" d="M2.25 18.75h12" fill="none" stroke="#212121" stroke-linecap="round" stroke-linejoin="round" stroke-width="1.5px"></path><circle class="a" cx="15.75" cy="6.75" r="2.25" fill="none" stroke="#212121" stroke-linecap="round" stroke-linejoin="round" stroke-width="1.5px"></circle><path class="a" d="M18 6.75v1.125a1.874 1.874 0 0 0 1.875 1.875 1.874 1.874 0 0 0 1.875-1.875v-.846A6.186 6.186 0 0 0 15.905.752a6 6 0 0 0-1.577 11.835 6.152 6.152 0 0 0 2.966-.037" fill="none" stroke="#212121" stroke-linecap="round" stroke-linejoin="round" stroke-width="1.5px"></path></g></svg>