<svg xmlns="http://www.w3.org/2000/svg" width="24" height="24" viewBox="0 0 24 24"><title>phone actions receive</title><g fill="#212121" class="nc-icon-wrapper"><defs></defs><path class="a" d="M12.745 22.165l.01.007a4.5 4.5 0 0 0 5.6-.615l.629-.629a1.5 1.5 0 0 0 0-2.122l-2.651-2.651a1.5 1.5 0 0 0-2.122 0 1.5 1.5 0 0 1-2.121 0l-4.244-4.243a1.5 1.5 0 0 1 0-2.121 1.5 1.5 0 0 0 0-2.122L5.194 5.018a1.5 1.5 0 0 0-2.121 0l-.63.629a4.5 4.5 0 0 0-.614 5.6l.006.01a40.606 40.606 0 0 0 10.91 10.908z" fill="none" stroke="#212121" stroke-linecap="round" stroke-linejoin="round" stroke-width="1.5px"></path><path class="a" d="M13.125 10.875l9.75-9.75" fill="none" stroke="#212121" stroke-linecap="round" stroke-linejoin="round" stroke-width="1.5px"></path><path class="a" d="M19.125 10.875h-6v-6" fill="none" stroke="#212121" stroke-linecap="round" stroke-linejoin="round" stroke-width="1.5px"></path></g></svg>