<svg xmlns="http://www.w3.org/2000/svg" width="24" height="24" viewBox="0 0 24 24"><title>phone scroll</title><g fill="#212121" class="nc-icon-wrapper"><defs></defs><path class="a" d="M15.751 15l-1.674-1.255a1.569 1.569 0 0 0-2.246.385 1.569 1.569 0 0 0 0 1.74l1.644 2.467a4.5 4.5 0 0 0 2.073 1.682L18 21v2.25" fill="none" stroke="#212121" stroke-linecap="round" stroke-linejoin="round" stroke-width="1.5px"></path><path class="a" d="M15 9.75l3.6 1.541a4.5 4.5 0 0 1 2.364 2.364l1.173 2.745a4.5 4.5 0 0 1 .364 1.773v5.077" fill="none" stroke="#212121" stroke-linecap="round" stroke-linejoin="round" stroke-width="1.5px"></path><path class="a" d="M15 14.438V3.75a3 3 0 0 0-3-3H4.5a3 3 0 0 0-3 3v16.5a3 3 0 0 0 3 3H12a3 3 0 0 0 3-3v-.5" fill="none" stroke="#212121" stroke-linecap="round" stroke-linejoin="round" stroke-width="1.5px"></path><path class="a" d="M13.787 18.75H1.501" fill="none" stroke="#212121" stroke-linecap="round" stroke-linejoin="round" stroke-width="1.5px"></path><path class="a" d="M5.251 11.25l3 3 3-3" fill="none" stroke="#212121" stroke-linecap="round" stroke-linejoin="round" stroke-width="1.5px"></path><path class="a" d="M8.251 14.25V3.75" fill="none" stroke="#212121" stroke-linecap="round" stroke-linejoin="round" stroke-width="1.5px"></path><path class="a" d="M5.251 6.75l3-3 3 3" fill="none" stroke="#212121" stroke-linecap="round" stroke-linejoin="round" stroke-width="1.5px"></path></g></svg>