<svg xmlns="http://www.w3.org/2000/svg" width="24" height="24" viewBox="0 0 24 24"><title>phone translate</title><g fill="#212121" class="nc-icon-wrapper"><defs></defs><path class="a" d="M5.25 3.75a3 3 0 0 1 3-3h7.5a3 3 0 0 1 3 3" fill="none" stroke="#212121" stroke-linecap="round" stroke-linejoin="round" stroke-width="1.5px"></path><path class="a" d="M18.75 15.75v4.5a3 3 0 0 1-3 3h-7.5a3 3 0 0 1-3-3v-4.5" fill="none" stroke="#212121" stroke-linecap="round" stroke-linejoin="round" stroke-width="1.5px"></path><path class="a" d="M5.25 17.25h13.5" fill="none" stroke="#212121" stroke-linecap="round" stroke-linejoin="round" stroke-width="1.5px"></path><path class="a" d="M12 19.875a.375.375 0 1 0 .375.375.375.375 0 0 0-.375-.375" fill="none" stroke="#212121" stroke-linecap="round" stroke-linejoin="round" stroke-width="1.5px"></path><path class="a" d="M.75 12.75v-4.5a1.5 1.5 0 0 1 3 0v4.5" fill="none" stroke="#212121" stroke-linecap="round" stroke-linejoin="round" stroke-width="1.5px"></path><path class="a" d="M.75 11.25h3" fill="none" stroke="#212121" stroke-linecap="round" stroke-linejoin="round" stroke-width="1.5px"></path><path class="a" d="M20.25 6.75v1.5" fill="none" stroke="#212121" stroke-linecap="round" stroke-linejoin="round" stroke-width="1.5px"></path><path class="a" d="M17.25 8.25h6" fill="none" stroke="#212121" stroke-linecap="round" stroke-linejoin="round" stroke-width="1.5px"></path><path class="a" d="M21.75 8.25s-1.5 4.5-4.5 4.5" fill="none" stroke="#212121" stroke-linecap="round" stroke-linejoin="round" stroke-width="1.5px"></path><path class="a" d="M20.249 11.017a3.932 3.932 0 0 0 3 1.733" fill="none" stroke="#212121" stroke-linecap="round" stroke-linejoin="round" stroke-width="1.5px"></path><path class="a" d="M12.75 14.25a7.155 7.155 0 0 0 0-9" fill="none" stroke="#212121" stroke-linecap="round" stroke-linejoin="round" stroke-width="1.5px"></path><path class="a" d="M8.364 7.125a4.175 4.175 0 0 1 0 5.25" fill="none" stroke="#212121" stroke-linecap="round" stroke-linejoin="round" stroke-width="1.5px"></path></g></svg>