<svg xmlns="http://www.w3.org/2000/svg" width="24" height="24" viewBox="0 0 24 24"><title>photography equipment battery</title><g fill="#212121" class="nc-icon-wrapper"><defs></defs><path class="a" d="M13.5 3.75V3" fill="none" stroke="#212121" stroke-linecap="round" stroke-linejoin="round" stroke-width="1.5px"></path><path class="a" d="M15.75 3.75V3" fill="none" stroke="#212121" stroke-linecap="round" stroke-linejoin="round" stroke-width="1.5px"></path><path class="a" d="M18.75 4.5V2.25a1.5 1.5 0 0 0-1.5-1.5H12a1.5 1.5 0 0 0-1.5 1.5V4.5h-6A1.5 1.5 0 0 0 3 6v15.75a1.5 1.5 0 0 0 1.5 1.5h15a1.5 1.5 0 0 0 1.5-1.5V6a1.5 1.5 0 0 0-1.5-1.5z" fill="none" stroke="#212121" stroke-linecap="round" stroke-linejoin="round" stroke-width="1.5px"></path><path class="a" d="M13.5 9l-5.14 5.36a.375.375 0 0 0 .265.64h2.625v4.5l4.83-5.36a.375.375 0 0 0-.266-.64H13.5z" fill="none" stroke="#212121" stroke-linecap="round" stroke-linejoin="round" stroke-width="1.5px"></path></g></svg>