<svg xmlns="http://www.w3.org/2000/svg" width="24" height="24" viewBox="0 0 24 24"><title>photography equipment light umbrella</title><g fill="#212121" class="nc-icon-wrapper"><defs></defs><path class="a" d="M16.321 13.467v9.783" fill="none" stroke="#212121" stroke-linecap="round" stroke-linejoin="round" stroke-width="1.5px"></path><path class="a" d="M16.92 9.216l4.114 4.114a.5.5 0 0 1 0 .707l-1.703 1.702a.5.5 0 0 1-.707 0l-4.467-4.466 2.057-2.057a.5.5 0 0 1 .707 0z" fill="none" stroke="#212121" stroke-linecap="round" stroke-linejoin="round" stroke-width="1.5px"></path><path class="a" d="M5.256 14.945a8.316 8.316 0 0 1 11.76-11.76 3.3 3.3 0 0 0-3.828 3.5l.023.3a3.865 3.865 0 0 0-4.15 4.15l-.3-.023a3.3 3.3 0 0 0-3.5 3.828z" fill="none" stroke="#212121" stroke-linecap="round" stroke-linejoin="round" stroke-width="1.5px"></path><path class="a" d="M9.061 11.14C5.813 7.893 4.11 4.332 5.256 3.185s4.708.558 7.955 3.805" fill="none" stroke="#212121" stroke-linecap="round" stroke-linejoin="round" stroke-width="1.5px"></path><path class="a" d="M10.618 7.735l3.539 3.538" fill="none" stroke="#212121" stroke-linecap="round" stroke-linejoin="round" stroke-width="1.5px"></path><path class="a" d="M12.571 23.25l3.75-4.5 3.75 4.5" fill="none" stroke="#212121" stroke-linecap="round" stroke-linejoin="round" stroke-width="1.5px"></path></g></svg>