<svg xmlns="http://www.w3.org/2000/svg" width="24" height="24" viewBox="0 0 24 24"><title>picture double shapes</title><g fill="#212121" class="nc-icon-wrapper"><defs></defs><path class="a" d="M18.75 5.25v-.978a2.011 2.011 0 0 0-2-2.022h-14a2.011 2.011 0 0 0-2 2.022v9.456a2.011 2.011 0 0 0 2 2.022" fill="none" stroke="#212121" stroke-linecap="round" stroke-linejoin="round" stroke-width="1.5px"></path><rect class="a" x="9" y="13.5" width="5.25" height="5.25" rx="1" ry="1" fill="none" stroke="#212121" stroke-linecap="round" stroke-linejoin="round" stroke-width="1.5px"></rect><path class="a" d="M16.75 18.75h2.625a.875.875 0 0 0 .875-.875.857.857 0 0 0-.1-.4l-3.2-6.213a.717.717 0 0 0-1.275 0l-.251.486" fill="none" stroke="#212121" stroke-linecap="round" stroke-linejoin="round" stroke-width="1.5px"></path><rect class="a" x="6" y="8.25" width="17.25" height="13.5" rx="1" ry="1" fill="none" stroke="#212121" stroke-linecap="round" stroke-linejoin="round" stroke-width="1.5px"></rect></g></svg>