<svg xmlns="http://www.w3.org/2000/svg" width="24" height="24" viewBox="0 0 24 24"><title>pie</title><g fill="#212121" class="nc-icon-wrapper"><defs></defs><path class="cls-1" d="M19.483 20.2l-1.43 2.331a1.5 1.5 0 0 1-1.279.716H7.411a1.5 1.5 0 0 1-1.279-.716l-1.409-2.3" fill="none" stroke="#212121" stroke-linecap="round" stroke-linejoin="round" stroke-width="1.5px"></path><path class="cls-1" d="M21.95 18.684a1.35 1.35 0 0 0 .527-1.173C22.019 13.2 17.5 9.821 12 9.821S1.981 13.2 1.523 17.511a1.35 1.35 0 0 0 .527 1.173l1.189.952a2.8 2.8 0 0 0 3.5 0 2.806 2.806 0 0 1 3.5 0 2.806 2.806 0 0 0 3.5 0 2.806 2.806 0 0 1 3.5 0 2.8 2.8 0 0 0 3.5 0z" fill="none" stroke="#212121" stroke-linecap="round" stroke-linejoin="round" stroke-width="1.5px"></path><path class="cls-1" d="M12.017 14.25L12 12.714" fill="none" stroke="#212121" stroke-linecap="round" stroke-linejoin="round" stroke-width="1.5px"></path><path class="cls-1" d="M15.733 14.25l-.75-1.5" fill="none" stroke="#212121" stroke-linecap="round" stroke-linejoin="round" stroke-width="1.5px"></path><path class="cls-1" d="M8.233 14.25l.75-1.5" fill="none" stroke="#212121" stroke-linecap="round" stroke-linejoin="round" stroke-width="1.5px"></path><path class="cls-1" d="M12.733.75l-.617.823a1.584 1.584 0 0 0 .242 2.177 1.585 1.585 0 0 1 .242 2.177l-.618.823" fill="none" stroke="#212121" stroke-linecap="round" stroke-linejoin="round" stroke-width="1.5px"></path><path class="cls-1" d="M6.21 2.25l-.617.823a1.585 1.585 0 0 0 .242 2.177 1.584 1.584 0 0 1 .243 2.177l-.618.823" fill="none" stroke="#212121" stroke-linecap="round" stroke-linejoin="round" stroke-width="1.5px"></path><path class="cls-1" d="M18.733 2.25l.618.823a1.585 1.585 0 0 1-.243 2.177 1.584 1.584 0 0 0-.242 2.177l.617.823" fill="none" stroke="#212121" stroke-linecap="round" stroke-linejoin="round" stroke-width="1.5px"></path></g></svg>