<svg xmlns="http://www.w3.org/2000/svg" width="24" height="24" viewBox="0 0 24 24"><title>pin location 1</title><g fill="#212121" class="nc-icon-wrapper"><defs></defs><circle class="a" cx="12" cy="7.5" r="3" fill="none" stroke="#212121" stroke-linecap="round" stroke-linejoin="round" stroke-width="1.5px"></circle><path class="a" d="M12 .75a6.75 6.75 0 0 1 6.75 6.75c0 3.251-5.132 10.527-6.446 12.337a.377.377 0 0 1-.608 0C10.382 18.027 5.25 10.751 5.25 7.5A6.75 6.75 0 0 1 12 .75z" fill="none" stroke="#212121" stroke-linecap="round" stroke-linejoin="round" stroke-width="1.5px"></path><path class="a" d="M17.979 17.784c2.732.541 4.521 1.444 4.521 2.466 0 1.657-4.7 3-10.5 3s-10.5-1.343-10.5-3c0-1.02 1.781-1.921 4.5-2.463" fill="none" stroke="#212121" stroke-linecap="round" stroke-linejoin="round" stroke-width="1.5px"></path></g></svg>