<svg xmlns="http://www.w3.org/2000/svg" width="24" height="24" viewBox="0 0 24 24"><title>plant bonsai 1</title><g fill="#212121" class="nc-icon-wrapper"><defs></defs><path class="cls-1" d="M14.111 23.266H8.618c-.261 0-.483-.265-.526-.626l-.355-3c-.054-.458.2-.874.525-.874h6.205c.329 0 .58.416.526.874l-.356 3c-.043.36-.265.626-.526.626z" fill="none" stroke="#212121" stroke-linecap="round" stroke-linejoin="round" stroke-width="1.5px"></path><path class="cls-1" d="M21 11.266a2.25 2.25 0 1 0-.81-4.343 3.741 3.741 0 0 0-3.69-3.157 3.7 3.7 0 0 0-.5.05 5.242 5.242 0 0 0-10 2.2c0 .111.026.215.033.325a2.994 2.994 0 1 0-2.283 4.925z" fill="none" stroke="#212121" stroke-linecap="round" stroke-linejoin="round" stroke-width="1.5px"></path><path class="cls-1" d="M11.25 11.266v7.5" fill="none" stroke="#212121" stroke-linecap="round" stroke-linejoin="round" stroke-width="1.5px"></path><path class="cls-1" d="M11.25 16.516a4.2 4.2 0 0 0 4.5-4.5v-.75" fill="none" stroke="#212121" stroke-linecap="round" stroke-linejoin="round" stroke-width="1.5px"></path><path class="cls-1" d="M11.25 15.767c-3.6 0-4.5-2.25-4.5-3.75v-.751" fill="none" stroke="#212121" stroke-linecap="round" stroke-linejoin="round" stroke-width="1.5px"></path></g></svg>