<svg xmlns="http://www.w3.org/2000/svg" width="24" height="24" viewBox="0 0 24 24"><title>plant cactus</title><g fill="#212121" class="nc-icon-wrapper"><defs></defs><path class="cls-1" d="M18.6 17.547a.729.729 0 0 0-.575-.281H5.98a.73.73 0 0 0-.708.907l.678 2.712A3.143 3.143 0 0 0 9 23.266h6a3.143 3.143 0 0 0 3.049-2.381l.678-2.712a.726.726 0 0 0-.127-.626z" fill="none" stroke="#212121" stroke-linecap="round" stroke-linejoin="round" stroke-width="1.5px"></path><path class="cls-1" d="M12 .766v2.25" fill="none" stroke="#212121" stroke-linecap="round" stroke-linejoin="round" stroke-width="1.5px"></path><path class="cls-1" d="M1.5 5.668l.75 1.299" fill="none" stroke="#212121" stroke-linecap="round" stroke-linejoin="round" stroke-width="1.5px"></path><path class="cls-1" d="M4.5 5.668l-.75 1.299" fill="none" stroke="#212121" stroke-linecap="round" stroke-linejoin="round" stroke-width="1.5px"></path><path class="cls-1" d="M7.757 2.266l1.415 1.75" fill="none" stroke="#212121" stroke-linecap="round" stroke-linejoin="round" stroke-width="1.5px"></path><path class="cls-1" d="M16.243 2.266l-1.415 1.75" fill="none" stroke="#212121" stroke-linecap="round" stroke-linejoin="round" stroke-width="1.5px"></path><path class="cls-1" d="M22.5 7.168l-.75 1.299" fill="none" stroke="#212121" stroke-linecap="round" stroke-linejoin="round" stroke-width="1.5px"></path><path class="cls-1" d="M19.5 7.168l.75 1.299" fill="none" stroke="#212121" stroke-linecap="round" stroke-linejoin="round" stroke-width="1.5px"></path><path class="cls-1" d="M21 8.266a1.5 1.5 0 0 0-1.5 1.5 1.5 1.5 0 0 1-1.5 1.5h-1.5v-3.75a4.5 4.5 0 0 0-9 0v2.25H6a1.5 1.5 0 0 1-1.5-1.5 1.5 1.5 0 0 0-3 0 4.5 4.5 0 0 0 4.5 4.5h1.5v4.5h9v-3H18a4.5 4.5 0 0 0 4.5-4.5 1.5 1.5 0 0 0-1.5-1.5z" fill="none" stroke="#212121" stroke-linecap="round" stroke-linejoin="round" stroke-width="1.5px"></path></g></svg>