<svg xmlns="http://www.w3.org/2000/svg" width="24" height="24" viewBox="0 0 24 24"><title>plant bonsai</title><g fill="#212121" class="nc-icon-wrapper"><defs></defs><path class="cls-1" d="M14.861 23.266H9.368c-.261 0-.483-.265-.526-.626l-.355-3c-.054-.458.2-.874.526-.874h6.2c.329 0 .58.416.526.874l-.356 3c-.039.36-.261.626-.522.626z" fill="none" stroke="#212121" stroke-linecap="round" stroke-linejoin="round" stroke-width="1.5px"></path><path class="cls-1" d="M19 14.266a3.632 3.632 0 0 0 3.5-3.75 3.632 3.632 0 0 0-3.5-3.75 3.362 3.362 0 0 0-2.412 1.044 5.553 5.553 0 0 0 .312-1.794A5.085 5.085 0 0 0 12 .766a5.085 5.085 0 0 0-4.9 5.25 5.553 5.553 0 0 0 .312 1.794A3.362 3.362 0 0 0 5 6.766a3.632 3.632 0 0 0-3.5 3.75 3.632 3.632 0 0 0 3.5 3.75z" fill="none" stroke="#212121" stroke-linecap="round" stroke-linejoin="round" stroke-width="1.5px"></path><path class="cls-1" d="M12 14.266v4.5" fill="none" stroke="#212121" stroke-linecap="round" stroke-linejoin="round" stroke-width="1.5px"></path></g></svg>