<svg xmlns="http://www.w3.org/2000/svg" width="24" height="24" viewBox="0 0 24 24"><title>plane trip land check</title><g fill="#212121" class="nc-icon-wrapper"><defs></defs><path class="a" d="M14.972 8.554L4.448 3.952l-.111-2.159L2.138.832a.966.966 0 0 0-1.354.878L.75 6.331a1.932 1.932 0 0 0 1.159 1.785l3.26 1.425-3.779 3.151a.967.967 0 0 0 .231 1.628l1.695.741a.968.968 0 0 0 .82-.021l4.6-2.3.972-.486" fill="none" stroke="#212121" stroke-linecap="round" stroke-linejoin="round" stroke-width="1.5px"></path><path class="a" d="M12.419 7.437l-1-4.234a.968.968 0 0 0-.554-.664L9.2 1.81a.967.967 0 0 0-1.352.936L7.991 5.5" fill="none" stroke="#212121" stroke-linecap="round" stroke-linejoin="round" stroke-width="1.5px"></path><circle class="a" cx="17.25" cy="17.25" r="6" fill="none" stroke="#212121" stroke-linecap="round" stroke-linejoin="round" stroke-width="1.5px"></circle><path class="a" d="M19.902 17.25H17.25v-2.652" fill="none" stroke="#212121" stroke-linecap="round" stroke-linejoin="round" stroke-width="1.5px"></path></g></svg>