<svg xmlns="http://www.w3.org/2000/svg" width="24" height="24" viewBox="0 0 24 24"><title>plane trip person</title><g fill="#212121" class="nc-icon-wrapper"><defs></defs><path class="a" d="M8.625 13v-1.185a4.5 4.5 0 0 0-2.6 2.018 1.5 1.5 0 0 1-1.295.74 1.5 1.5 0 0 1-1.292-2.261 7.487 7.487 0 0 1 12.445-.7 1.5 1.5 0 0 1-2.4 1.8 4.442 4.442 0 0 0-1.859-1.426v2.633l2.4 1.8a1.489 1.489 0 0 1 .38.415l2.313 3.766a1.5 1.5 0 0 1-2.558 1.57L12 18.643l-1.2-.9-.773 1.933a1.52 1.52 0 0 1-.332.5l-2.25 2.25A1.5 1.5 0 0 1 5.314 20.3l.44-.439" fill="none" stroke="#212121" stroke-linecap="round" stroke-linejoin="round" stroke-width="1.5px"></path><circle class="a" cx="10.125" cy="4.49" r="2.625" fill="none" stroke="#212121" stroke-linecap="round" stroke-linejoin="round" stroke-width="1.5px"></circle><rect class="a" x="1.125" y="15.365" width="6" height="4.5" rx=".5" ry=".5" fill="none" stroke="#212121" stroke-linecap="round" stroke-linejoin="round" stroke-width="1.5px"></rect><path class="a" d="M19.125 1.115v6l-1.5 1.5" fill="none" stroke="#212121" stroke-linecap="round" stroke-linejoin="round" stroke-width="1.5px"></path><path class="a" d="M20.625 8.615l-1.5-1.5" fill="none" stroke="#212121" stroke-linecap="round" stroke-linejoin="round" stroke-width="1.5px"></path><path class="a" d="M15.375 5.615l3.75-2.25 3.75 2.25" fill="none" stroke="#212121" stroke-linecap="round" stroke-linejoin="round" stroke-width="1.5px"></path></g></svg>