<svg xmlns="http://www.w3.org/2000/svg" width="24" height="24" viewBox="0 0 24 24"><title>plane trip cocktail service</title><g fill="#212121" class="nc-icon-wrapper"><defs></defs><path class="a" d="M13.9 9.056l1.063-2.668 2.5-.816a1.875 1.875 0 1 0-1.165-3.564L7.381 4.919 6.2 3.726l-1.771.579A.75.75 0 0 0 4.1 5.513l2.367 2.694a1.5 1.5 0 0 0 1.593.436l2.624-.858-.167 1.115" fill="none" stroke="#212121" stroke-linecap="round" stroke-linejoin="round" stroke-width="1.5px"></path><path class="a" d="M13.8 2.823L11.034.885a.751.751 0 0 0-.664-.1l-1.342.438a.75.75 0 0 0-.3 1.24l1.5 1.523" fill="none" stroke="#212121" stroke-linecap="round" stroke-linejoin="round" stroke-width="1.5px"></path><path class="a" d="M3 12h18" fill="none" stroke="#212121" stroke-linecap="round" stroke-linejoin="round" stroke-width="1.5px"></path><path class="a" d="M10.5 20.25v3" fill="none" stroke="#212121" stroke-linecap="round" stroke-linejoin="round" stroke-width="1.5px"></path><path class="a" d="M9 23.25h3" fill="none" stroke="#212121" stroke-linecap="round" stroke-linejoin="round" stroke-width="1.5px"></path><path class="a" d="M8.812 15.75a11.446 11.446 0 0 0-.562 2.812c0 1.125 1.125 1.688 2.25 1.688s2.25-.563 2.25-1.688a11.446 11.446 0 0 0-.562-2.812z" fill="none" stroke="#212121" stroke-linecap="round" stroke-linejoin="round" stroke-width="1.5px"></path></g></svg>