<svg xmlns="http://www.w3.org/2000/svg" width="24" height="24" viewBox="0 0 24 24"><title>plant pot 3</title><g fill="#212121" class="nc-icon-wrapper"><defs></defs><path class="cls-1" d="M20.247 13.516a1.5 1.5 0 0 1-1.5 1.5h-13.5a1.5 1.5 0 1 1 0-3h13.5a1.5 1.5 0 0 1 1.5 1.5z" fill="none" stroke="#212121" stroke-linecap="round" stroke-linejoin="round" stroke-width="1.5px"></path><path class="cls-1" d="M18.747 15.016l-1.3 6.978a1.5 1.5 0 0 1-1.482 1.272H8.034a1.5 1.5 0 0 1-1.482-1.272l-1.3-6.978" fill="none" stroke="#212121" stroke-linecap="round" stroke-linejoin="round" stroke-width="1.5px"></path><path class="cls-1" d="M11.997.766v11.25" fill="none" stroke="#212121" stroke-linecap="round" stroke-linejoin="round" stroke-width="1.5px"></path><path class="cls-1" d="M17.61 2.266a4.5 4.5 0 0 1-5.613 3" fill="none" stroke="#212121" stroke-linecap="round" stroke-linejoin="round" stroke-width="1.5px"></path><path class="cls-1" d="M6.385.766a4.5 4.5 0 0 0 5.612 3" fill="none" stroke="#212121" stroke-linecap="round" stroke-linejoin="round" stroke-width="1.5px"></path><path class="cls-1" d="M6.385 6.016a4.5 4.5 0 0 0 5.612 3" fill="none" stroke="#212121" stroke-linecap="round" stroke-linejoin="round" stroke-width="1.5px"></path></g></svg>