<svg xmlns="http://www.w3.org/2000/svg" width="24" height="24" viewBox="0 0 24 24"><title>plant 1</title><g fill="#212121" class="nc-icon-wrapper"><defs></defs><path class="cls-1" d="M14.372 5.641a7.781 7.781 0 0 1-2.255 4.875 7.781 7.781 0 0 1-2.255-4.875A7.785 7.785 0 0 1 12.117.766a7.785 7.785 0 0 1 2.255 4.875z" fill="none" stroke="#212121" stroke-linecap="round" stroke-linejoin="round" stroke-width="1.5px"></path><path class="cls-1" d="M17.481 14.676a7.783 7.783 0 0 1-5.357-.39 7.786 7.786 0 0 1 3.766-3.831 7.78 7.78 0 0 1 5.357.391 7.78 7.78 0 0 1-3.766 3.83z" fill="none" stroke="#212121" stroke-linecap="round" stroke-linejoin="round" stroke-width="1.5px"></path><path class="cls-1" d="M17.481 22.176a7.783 7.783 0 0 1-5.357-.39 7.786 7.786 0 0 1 3.766-3.831 7.78 7.78 0 0 1 5.357.391 7.78 7.78 0 0 1-3.766 3.83z" fill="none" stroke="#212121" stroke-linecap="round" stroke-linejoin="round" stroke-width="1.5px"></path><path class="cls-1" d="M6.763 14.676a7.783 7.783 0 0 0 5.357-.39 7.782 7.782 0 0 0-3.765-3.831A7.784 7.784 0 0 0 3 10.846a7.786 7.786 0 0 0 3.763 3.83z" fill="none" stroke="#212121" stroke-linecap="round" stroke-linejoin="round" stroke-width="1.5px"></path><path class="cls-1" d="M6.763 22.176a7.783 7.783 0 0 0 5.357-.39 7.782 7.782 0 0 0-3.765-3.831A7.784 7.784 0 0 0 3 18.346a7.786 7.786 0 0 0 3.763 3.83z" fill="none" stroke="#212121" stroke-linecap="round" stroke-linejoin="round" stroke-width="1.5px"></path><path class="cls-1" d="M12.119 10.516l.008 12.75" fill="none" stroke="#212121" stroke-linecap="round" stroke-linejoin="round" stroke-width="1.5px"></path></g></svg>