<svg xmlns="http://www.w3.org/2000/svg" width="24" height="24" viewBox="0 0 24 24"><title>plane trip return</title><g fill="#212121" class="nc-icon-wrapper"><defs></defs><path class="a" d="M21 18.75h-1.5l-3.75-4.5h-1.786a.749.749 0 0 0-.671 1.085L15 18.75h-3l-.75-1.5H9.211a.75.75 0 0 0-.728.931l.983 3.933a1.5 1.5 0 0 0 1.455 1.136H21a2.25 2.25 0 0 0 0-4.5z" fill="none" stroke="#212121" stroke-linecap="round" stroke-linejoin="round" stroke-width="1.5px"></path><path class="a" d="M.75 21.75h1.5" fill="none" stroke="#212121" stroke-linecap="round" stroke-linejoin="round" stroke-width="1.5px"></path><path class="a" d="M5.25 21.75h1.5" fill="none" stroke="#212121" stroke-linecap="round" stroke-linejoin="round" stroke-width="1.5px"></path><path class="a" d="M3 5.25h1.5L8.25.75h1.786a.749.749 0 0 1 .671 1.085L9 5.25h3l.75-1.5h2.039a.75.75 0 0 1 .728.931l-.983 3.933a1.5 1.5 0 0 1-1.455 1.136H3a2.25 2.25 0 0 1 0-4.5z" fill="none" stroke="#212121" stroke-linecap="round" stroke-linejoin="round" stroke-width="1.5px"></path><path class="a" d="M23.25 8.25h-1.5" fill="none" stroke="#212121" stroke-linecap="round" stroke-linejoin="round" stroke-width="1.5px"></path><path class="a" d="M18.75 8.25h-1.5" fill="none" stroke="#212121" stroke-linecap="round" stroke-linejoin="round" stroke-width="1.5px"></path></g></svg>