<svg xmlns="http://www.w3.org/2000/svg" width="24" height="24" viewBox="0 0 24 24"><title>police hat 1</title><g fill="#212121" class="nc-icon-wrapper"><defs></defs><path class="a" d="M16.5 12h5.966c.188-.377.4-.817.619-1.246a1.5 1.5 0 0 0-.944-2.134 7.425 7.425 0 0 1-4.122-2.98A7.4 7.4 0 0 0 12 2.25a7.4 7.4 0 0 0-6.019 3.39 7.425 7.425 0 0 1-4.122 2.98 1.5 1.5 0 0 0-.944 2.134c.22.429.431.869.619 1.246H7.5" fill="none" stroke="#212121" stroke-linecap="round" stroke-linejoin="round" stroke-width="1.5px"></path><path class="a" d="M1.5 15A12.055 12.055 0 0 0 12 21.75 12.055 12.055 0 0 0 22.5 15z" fill="none" stroke="#212121" stroke-linecap="round" stroke-linejoin="round" stroke-width="1.5px"></path><path class="a" d="M14.415 10.335L12 12.75l-2.415-2.415v-3.22h4.83v3.22z" fill="none" stroke="#212121" stroke-linecap="round" stroke-linejoin="round" stroke-width="1.5px"></path><path class="a" d="M1.5 12v3" fill="none" stroke="#212121" stroke-linecap="round" stroke-linejoin="round" stroke-width="1.5px"></path><path class="a" d="M22.5 12v3" fill="none" stroke="#212121" stroke-linecap="round" stroke-linejoin="round" stroke-width="1.5px"></path></g></svg>