<svg xmlns="http://www.w3.org/2000/svg" width="24" height="24" viewBox="0 0 24 24"><title>police woman spy 1</title><g fill="#212121" class="nc-icon-wrapper"><defs></defs><path class="a" d="M6.961 10.959L7.691 12a5.251 5.251 0 0 0 8.618 0l.732-1.041" fill="none" stroke="#212121" stroke-linecap="round" stroke-linejoin="round" stroke-width="1.5px"></path><path class="a" d="M2.25 23.25a10.67 10.67 0 0 1 19.5 0" fill="none" stroke="#212121" stroke-linecap="round" stroke-linejoin="round" stroke-width="1.5px"></path><path class="a" d="M3 6.75h18" fill="none" stroke="#212121" stroke-linecap="round" stroke-linejoin="round" stroke-width="1.5px"></path><path class="a" d="M6 6.752l1.66-4.976A1.5 1.5 0 0 1 9.854.964l1.374.825a1.5 1.5 0 0 0 1.544 0l1.374-.825a1.5 1.5 0 0 1 2.194.812L18 6.752" fill="none" stroke="#212121" stroke-linecap="round" stroke-linejoin="round" stroke-width="1.5px"></path><path class="a" d="M12 23.25l-3.411-5.779L6.75 21.75 9 23.25" fill="none" stroke="#212121" stroke-linecap="round" stroke-linejoin="round" stroke-width="1.5px"></path><path class="a" d="M12 23.25l3.411-5.779 1.839 4.279-2.25 1.5" fill="none" stroke="#212121" stroke-linecap="round" stroke-linejoin="round" stroke-width="1.5px"></path><path class="a" d="M18.75 7.5v.75a3 3 0 0 1-3 3h-1.629a1.5 1.5 0 0 1-1.06-.439L12 9.75l-1.061 1.061a1.5 1.5 0 0 1-1.06.439H8.25a3 3 0 0 1-3-3V7.5" fill="none" stroke="#212121" stroke-linecap="round" stroke-linejoin="round" stroke-width="1.5px"></path><path class="a" d="M6.778 10.864A6.1 6.1 0 0 1 3.75 15.75" fill="none" stroke="#212121" stroke-linecap="round" stroke-linejoin="round" stroke-width="1.5px"></path><path class="a" d="M17.222 10.864a6.1 6.1 0 0 0 3.028 4.886" fill="none" stroke="#212121" stroke-linecap="round" stroke-linejoin="round" stroke-width="1.5px"></path></g></svg>