<svg xmlns="http://www.w3.org/2000/svg" width="24" height="24" viewBox="0 0 24 24"><title>police man 1</title><g fill="#212121" class="nc-icon-wrapper"><defs></defs><path class="a" d="M17.2 11.25a5.251 5.251 0 0 1-10.394 0" fill="none" stroke="#212121" stroke-linecap="round" stroke-linejoin="round" stroke-width="1.5px"></path><path class="a" d="M3 23.219a10.516 10.516 0 0 1 9-4.8 10.516 10.516 0 0 1 9 4.8" fill="none" stroke="#212121" stroke-linecap="round" stroke-linejoin="round" stroke-width="1.5px"></path><path class="a" d="M12 23.25v-4.831" fill="none" stroke="#212121" stroke-linecap="round" stroke-linejoin="round" stroke-width="1.5px"></path><path class="a" d="M18 6.75a11.867 11.867 0 0 0 1.5-4.5 8.368 8.368 0 0 1-5.766-.633L12 .75l-1.734.867A8.368 8.368 0 0 1 4.5 2.25 11.9 11.9 0 0 0 6 6.75z" fill="none" stroke="#212121" stroke-linecap="round" stroke-linejoin="round" stroke-width="1.5px"></path><path class="a" d="M6.054 6.75c.364 2.543 3.3 3 5.946 3s5.582-.457 5.946-3z" fill="none" stroke="#212121" stroke-linecap="round" stroke-linejoin="round" stroke-width="1.5px"></path><path class="a" d="M12 3.75a.375.375 0 1 0 .375.375A.375.375 0 0 0 12 3.75" fill="none" stroke="#212121" stroke-linecap="round" stroke-linejoin="round" stroke-width="1.5px"></path><path class="a" d="M15.75 23.25h1.5" fill="none" stroke="#212121" stroke-linecap="round" stroke-linejoin="round" stroke-width="1.5px"></path></g></svg>