<svg xmlns="http://www.w3.org/2000/svg" width="24" height="24" viewBox="0 0 24 24"><title>police hat</title><g fill="#212121" class="nc-icon-wrapper"><defs></defs><path class="a" d="M1.5 13.75h21" fill="none" stroke="#212121" stroke-linecap="round" stroke-linejoin="round" stroke-width="1.5px"></path><path class="a" d="M22.5 16.75h-21" fill="none" stroke="#212121" stroke-linecap="round" stroke-linejoin="round" stroke-width="1.5px"></path><path class="a" d="M3 16.75s.9 6 9 6 9-6 9-6" fill="none" stroke="#212121" stroke-linecap="round" stroke-linejoin="round" stroke-width="1.5px"></path><path class="a" d="M3 13.75a5.625 5.625 0 0 1-2.25-4.5C.75 6.25 7.5 1 12 1s11.25 5.25 11.25 8.25a5.625 5.625 0 0 1-2.25 4.5" fill="none" stroke="#212121" stroke-linecap="round" stroke-linejoin="round" stroke-width="1.5px"></path><path class="a" d="M12.232 10.673L12 10.75l-.232-.077a3.5 3.5 0 0 1-2.393-3.321V6.25a.75.75 0 0 1 .75-.75h3.75a.75.75 0 0 1 .75.75v1.1a3.5 3.5 0 0 1-2.393 3.323z" fill="none" stroke="#212121" stroke-linecap="round" stroke-linejoin="round" stroke-width="1.5px"></path></g></svg>