<svg xmlns="http://www.w3.org/2000/svg" width="24" height="24" viewBox="0 0 24 24"><title>police woman 1</title><g fill="#212121" class="nc-icon-wrapper"><defs></defs><path class="a" d="M16.888 8.552a5.238 5.238 0 1 1-9.776 0" fill="none" stroke="#212121" stroke-linecap="round" stroke-linejoin="round" stroke-width="1.5px"></path><path class="a" d="M3.047 23.25a10.6 10.6 0 0 1 17.906 0" fill="none" stroke="#212121" stroke-linecap="round" stroke-linejoin="round" stroke-width="1.5px"></path><path class="a" d="M12 23.132v-4.805" fill="none" stroke="#212121" stroke-linecap="round" stroke-linejoin="round" stroke-width="1.5px"></path><path class="a" d="M17.968 6.718a11.811 11.811 0 0 0 1.493-4.476 8.322 8.322 0 0 1-5.736-.629L12 .75l-1.725.863a8.322 8.322 0 0 1-5.736.629 11.829 11.829 0 0 0 1.493 4.476z" fill="none" stroke="#212121" stroke-linecap="round" stroke-linejoin="round" stroke-width="1.5px"></path><path class="a" d="M6.085 6.718C6.447 9.248 9.369 9.7 12 9.7s5.553-.455 5.915-2.985z" fill="none" stroke="#212121" stroke-linecap="round" stroke-linejoin="round" stroke-width="1.5px"></path><path class="a" d="M12 3.734a.373.373 0 1 0 .373.373.373.373 0 0 0-.373-.373" fill="none" stroke="#212121" stroke-linecap="round" stroke-linejoin="round" stroke-width="1.5px"></path><path class="a" d="M15.73 23.132h1.492" fill="none" stroke="#212121" stroke-linecap="round" stroke-linejoin="round" stroke-width="1.5px"></path><path class="a" d="M6.785 10.177a4.856 4.856 0 0 1-2.992 4" fill="none" stroke="#212121" stroke-linecap="round" stroke-linejoin="round" stroke-width="1.5px"></path><path class="a" d="M17.2 10.023a5.02 5.02 0 0 0 3 4.156" fill="none" stroke="#212121" stroke-linecap="round" stroke-linejoin="round" stroke-width="1.5px"></path></g></svg>