<svg xmlns="http://www.w3.org/2000/svg" width="24" height="24" viewBox="0 0 24 24"><title>power tools electric saw 1</title><g fill="#212121" class="nc-icon-wrapper"><defs></defs><path class="a" d="M12.339 18.4a3.75 3.75 0 1 0 5.3-5.3L7.142 2.6a3.75 3.75 0 1 0-5.3 5.3z" fill="none" stroke="#212121" stroke-linecap="round" stroke-linejoin="round" stroke-width="1.5px"></path><path class="a" d="M11.074 6.53a3.75 3.75 0 0 1-5.3 5.3" fill="none" stroke="#212121" stroke-linecap="round" stroke-linejoin="round" stroke-width="1.5px"></path><path class="a" d="M5.24 7.061L6.301 6" fill="none" stroke="#212121" stroke-linecap="round" stroke-linejoin="round" stroke-width="1.5px"></path><path class="a" d="M7.362 9.182l1.06-1.061" fill="none" stroke="#212121" stroke-linecap="round" stroke-linejoin="round" stroke-width="1.5px"></path><path class="a" d="M14.725 15.485a.375.375 0 1 1 0 .53.375.375 0 0 1 0-.53" fill="none" stroke="#212121" stroke-linecap="round" stroke-linejoin="round" stroke-width="1.5px"></path><path class="a" d="M6.554 12.616a8.967 8.967 0 0 0 .167 6.684l4.559-1.959" fill="none" stroke="#212121" stroke-linecap="round" stroke-linejoin="round" stroke-width="1.5px"></path><path class="a" d="M8.1 18.71a7.5 7.5 0 0 0 13.785-5.92" fill="none" stroke="#212121" stroke-linecap="round" stroke-linejoin="round" stroke-width="1.5px"></path><path class="a" d="M18.436 14.27l4.824-2.07a8.995 8.995 0 0 0-7.272-5.393" fill="none" stroke="#212121" stroke-linecap="round" stroke-linejoin="round" stroke-width="1.5px"></path><path class="a" d="M13.379 8.835l5.452-4.244a2.25 2.25 0 1 0-3.181-3.182l-4.245 5.452" fill="none" stroke="#212121" stroke-linecap="round" stroke-linejoin="round" stroke-width="1.5px"></path></g></svg>