<svg xmlns="http://www.w3.org/2000/svg" width="24" height="24" viewBox="0 0 24 24"><title>power tools electric saw</title><g fill="#212121" class="nc-icon-wrapper"><defs></defs><path class="a" d="M8.78 3.047a3.75 3.75 0 1 0-5.3 5.3l7.553 7.5 5.25-5.25z" fill="none" stroke="#212121" stroke-linecap="round" stroke-linejoin="round" stroke-width="1.5px"></path><path class="a" d="M10.811 16.07l6.219-6.219 3.75 3.75-5.25 8.25-4.719-4.72a.75.75 0 0 1 0-1.061z" fill="none" stroke="#212121" stroke-linecap="round" stroke-linejoin="round" stroke-width="1.5px"></path><path class="a" d="M15.53 21.851l.419.419a3 3 0 0 0 4.941-1.1l.737-2.028a3 3 0 0 0-.7-3.147l-1.024-1.023" fill="none" stroke="#212121" stroke-linecap="round" stroke-linejoin="round" stroke-width="1.5px"></path><path class="a" d="M17.03 9.851l1.5-1.5a1.5 1.5 0 0 1 2.122 0l1.628 1.628a1.5 1.5 0 0 1 0 2.122l-1.5 1.5" fill="none" stroke="#212121" stroke-linecap="round" stroke-linejoin="round" stroke-width="1.5px"></path><path class="a" d="M14.03 16.601l2.25-2.25" fill="none" stroke="#212121" stroke-linecap="round" stroke-linejoin="round" stroke-width="1.5px"></path><path class="a" d="M1.28.851l2.197 2.196" fill="none" stroke="#212121" stroke-linecap="round" stroke-linejoin="round" stroke-width="1.5px"></path><path class="a" d="M3.504 8.377L2.03 9.851" fill="none" stroke="#212121" stroke-linecap="round" stroke-linejoin="round" stroke-width="1.5px"></path><path class="a" d="M6.514 11.366L5.03 12.851" fill="none" stroke="#212121" stroke-linecap="round" stroke-linejoin="round" stroke-width="1.5px"></path><path class="a" d="M10.28 1.601L8.807 3.074" fill="none" stroke="#212121" stroke-linecap="round" stroke-linejoin="round" stroke-width="1.5px"></path><path class="a" d="M13.28 4.601l-1.484 1.484" fill="none" stroke="#212121" stroke-linecap="round" stroke-linejoin="round" stroke-width="1.5px"></path></g></svg>