<svg xmlns="http://www.w3.org/2000/svg" width="24" height="24" viewBox="0 0 24 24"><title>power tools drill</title><g fill="#212121" class="nc-icon-wrapper"><defs></defs><path class="a" d="M10.75 2.25h10.5a2 2 0 0 1 2 2v5a2 2 0 0 1-2 2h-10.5a1 1 0 0 1-1-1v-7a1 1 0 0 1 1-1z" fill="none" stroke="#212121" stroke-linecap="round" stroke-linejoin="round" stroke-width="1.5px"></path><path class="a" d="M16.977 19.838a2.227 2.227 0 0 0 4.41-.63L20.25 11.25h-4.5z" fill="none" stroke="#212121" stroke-linecap="round" stroke-linejoin="round" stroke-width="1.5px"></path><path class="a" d="M6.25 3.75h3.5v6h-3.5a1 1 0 0 1-1-1v-4a1 1 0 0 1 1-1z" fill="none" stroke="#212121" stroke-linecap="round" stroke-linejoin="round" stroke-width="1.5px"></path><path class="a" d="M5.25 6.75H.75" fill="none" stroke="#212121" stroke-linecap="round" stroke-linejoin="round" stroke-width="1.5px"></path><path class="a" d="M12.75 11.25l.268 1.338A3 3 0 0 0 15.959 15h.327" fill="none" stroke="#212121" stroke-linecap="round" stroke-linejoin="round" stroke-width="1.5px"></path><path class="a" d="M15.75 5.25h3" fill="none" stroke="#212121" stroke-linecap="round" stroke-linejoin="round" stroke-width="1.5px"></path><path class="a" d="M15.75 8.25h3" fill="none" stroke="#212121" stroke-linecap="round" stroke-linejoin="round" stroke-width="1.5px"></path></g></svg>