<svg xmlns="http://www.w3.org/2000/svg" width="24" height="24" viewBox="0 0 24 24"><title>pregnancy sperm 1</title><g fill="#212121" class="nc-icon-wrapper"><defs></defs><path class="cls-1" d="M12 7c0 1.5 2.25 3.75 6 3.75 2.9 0 5.25-1.679 5.25-3.75S20.9 3.25 18 3.25c-3.75 0-6 2.25-6 3.75z" fill="none" stroke="#212121" stroke-linecap="round" stroke-linejoin="round" stroke-width="1.5px"></path><path class="cls-1" d="M9.75 17.5c0 .9 1.35 2.25 3.6 2.25 1.74 0 3.15-1.007 3.15-2.25s-1.41-2.25-3.15-2.25c-2.25 0-3.6 1.35-3.6 2.25z" fill="none" stroke="#212121" stroke-linecap="round" stroke-linejoin="round" stroke-width="1.5px"></path><path class="cls-1" d="M12 7c-1.5 0-2.25-1.5-3.75-1.5S6 7.75 4.5 7.75 2.25 7 .75 7" fill="none" stroke="#212121" stroke-linecap="round" stroke-linejoin="round" stroke-width="1.5px"></path><path class="cls-1" d="M9.75 17.5c-1.2 0-1.8-1.5-3-1.5s-1.8 2.25-3 2.25-1.8-.75-3-.75" fill="none" stroke="#212121" stroke-linecap="round" stroke-linejoin="round" stroke-width="1.5px"></path></g></svg>