<svg xmlns="http://www.w3.org/2000/svg" width="24" height="24" viewBox="0 0 24 24"><title>pregnancy ultrasound baby</title><g fill="#212121" class="nc-icon-wrapper"><defs></defs><path class="cls-1" d="M3.218 15.9a12.705 12.705 0 0 0 1.162.906" fill="none" stroke="#212121" stroke-linecap="round" stroke-linejoin="round" stroke-width="1.5px"></path><path class="cls-1" d="M8.359 18.688A11.8 11.8 0 0 0 9.8 19" fill="none" stroke="#212121" stroke-linecap="round" stroke-linejoin="round" stroke-width="1.5px"></path><path class="cls-1" d="M14.2 19a11.8 11.8 0 0 0 1.44-.312" fill="none" stroke="#212121" stroke-linecap="round" stroke-linejoin="round" stroke-width="1.5px"></path><path class="cls-1" d="M19.62 16.81a12.705 12.705 0 0 0 1.162-.906" fill="none" stroke="#212121" stroke-linecap="round" stroke-linejoin="round" stroke-width="1.5px"></path><path class="cls-1" d="M23.25 13.18l-8.25-9a3.75 3.75 0 0 1-6 0l-8.25 9" fill="none" stroke="#212121" stroke-linecap="round" stroke-linejoin="round" stroke-width="1.5px"></path><path class="cls-1" d="M23.25 13.18l-8.25-9a3.75 3.75 0 0 1-6 0l-8.25 9" fill="none" stroke="#212121" stroke-linecap="round" stroke-linejoin="round" stroke-width="1.5px"></path><path class="cls-1" d="M9 11.3c-.473-.1-.922-.289-1.383-.43" fill="none" stroke="#212121" stroke-linecap="round" stroke-linejoin="round" stroke-width="1.5px"></path><circle class="cls-1" cx="15" cy="12.43" r="3" fill="none" stroke="#212121" stroke-linecap="round" stroke-linejoin="round" stroke-width="1.5px"></circle></g></svg>