<svg xmlns="http://www.w3.org/2000/svg" width="24" height="24" viewBox="0 0 24 24"><title>presentation microphone 1</title><g fill="#212121" class="nc-icon-wrapper"><defs></defs><path class="a" d="M10.668 22.5v-8.25a.75.75 0 0 1 .75-.75h1.5a.75.75 0 0 1 .75.75v8.25" fill="none" stroke="#212121" stroke-linecap="round" stroke-linejoin="round" stroke-width="1.5px"></path><path class="a" d="M10.668 16.5h-3.46a1.5 1.5 0 0 1-1.408-.974l-1.5-4.013A.75.75 0 0 1 5 10.5h14.336a.749.749 0 0 1 .7 1.013l-1.5 4.013a1.5 1.5 0 0 1-1.4.974h-3.468" fill="none" stroke="#212121" stroke-linecap="round" stroke-linejoin="round" stroke-width="1.5px"></path><rect class="a" x="9.918" y="1.5" width="4.5" height="6" rx="2.25" ry="2.25" fill="none" stroke="#212121" stroke-linecap="round" stroke-linejoin="round" stroke-width="1.5px"></rect><path class="a" d="M12.168 7.5v3" fill="none" stroke="#212121" stroke-linecap="round" stroke-linejoin="round" stroke-width="1.5px"></path><path class="a" d="M18.168 5.25a3.332 3.332 0 0 1 1.246 4.011l-.5 1.239" fill="none" stroke="#212121" stroke-linecap="round" stroke-linejoin="round" stroke-width="1.5px"></path><path class="a" d="M6.153 5.25a3.334 3.334 0 0 0-1.246 4.011L5.4 10.5" fill="none" stroke="#212121" stroke-linecap="round" stroke-linejoin="round" stroke-width="1.5px"></path></g></svg>