<svg xmlns="http://www.w3.org/2000/svg" width="24" height="24" viewBox="0 0 24 24"><title>primitive symbols animal 1</title><g fill="#212121" class="nc-icon-wrapper"><defs></defs><path class="a" d="M5.457 16.565L1 23.25" fill="none" stroke="#212121" stroke-linecap="round" stroke-linejoin="round" stroke-width="1.5px"></path><path class="a" d="M8.924 17.38L5.5 22.272" fill="none" stroke="#212121" stroke-linecap="round" stroke-linejoin="round" stroke-width="1.5px"></path><path class="a" d="M13 17.38l5.87 3.913" fill="none" stroke="#212121" stroke-linecap="round" stroke-linejoin="round" stroke-width="1.5px"></path><path class="a" d="M17.017 16.618l4.526 3.208" fill="none" stroke="#212121" stroke-linecap="round" stroke-linejoin="round" stroke-width="1.5px"></path><path class="a" d="M5.26 10.533H1" fill="none" stroke="#212121" stroke-linecap="round" stroke-linejoin="round" stroke-width="1.5px"></path><path class="a" d="M23.109 5.087a2.026 2.026 0 0 0-1.379-2.362l-.386-.12a2.934 2.934 0 0 0-3.892 1.634l-1.817 4.672a1.007 1.007 0 0 1-.939.643H7.848a3.913 3.913 0 0 0 0 7.826H14.7a3.913 3.913 0 0 0 3.913-3.913 10.506 10.506 0 0 0-.4-2.514l1.677-4.329a.978.978 0 0 1 1.3-.545 1.4 1.4 0 0 0 1.922-.992z" fill="none" stroke="#212121" stroke-linecap="round" stroke-linejoin="round" stroke-width="1.5px"></path><path class="a" d="M16.75.75l2.294 1.85" fill="none" stroke="#212121" stroke-linecap="round" stroke-linejoin="round" stroke-width="1.5px"></path></g></svg>