<svg xmlns="http://www.w3.org/2000/svg" width="24" height="24" viewBox="0 0 24 24"><title>products purse 1</title><g fill="#212121" class="nc-icon-wrapper"><defs></defs><path class="a" d="M21.2 12.075l1.16 4.89a5.123 5.123 0 0 1-5.016 6.285H6.655a5.123 5.123 0 0 1-5.016-6.285l1.161-4.89" fill="none" stroke="#212121" stroke-linecap="round" stroke-linejoin="round" stroke-width="1.5px"></path><path class="a" d="M9.75 14.25H6.583a4.289 4.289 0 0 1-4.333-4.243V6.75a1.5 1.5 0 0 1 1.5-1.5h16.5a1.5 1.5 0 0 1 1.5 1.5v3.257a4.289 4.289 0 0 1-4.333 4.243H14.25" fill="none" stroke="#212121" stroke-linecap="round" stroke-linejoin="round" stroke-width="1.5px"></path><circle class="a" cx="12" cy="14.25" r="2.25" fill="none" stroke="#212121" stroke-linecap="round" stroke-linejoin="round" stroke-width="1.5px"></circle><path class="a" d="M10.25.75h3.5a2 2 0 0 1 2 2v2.5h-7.5v-2.5a2 2 0 0 1 2-2z" fill="none" stroke="#212121" stroke-linecap="round" stroke-linejoin="round" stroke-width="1.5px"></path></g></svg>