<svg xmlns="http://www.w3.org/2000/svg" width="24" height="24" viewBox="0 0 24 24"><title>professions woman welder</title><g fill="#212121" class="nc-icon-wrapper"><defs></defs><path class="a" d="M17.222 6a5.25 5.25 0 0 0-10.5 0v6.75s1.5 1.5 5.25 1.5 5.25-1.5 5.25-1.5z" fill="none" stroke="#212121" stroke-linecap="round" stroke-linejoin="round" stroke-width="1.5px"></path><path class="a" d="M8.222 14.249V15c0 2.071 0 3.75 3.75 3.75s3.75-1.679 3.75-3.75v-.751" fill="none" stroke="#212121" stroke-linecap="round" stroke-linejoin="round" stroke-width="1.5px"></path><path class="a" d="M5.222 23.25v-7.035" fill="none" stroke="#212121" stroke-linecap="round" stroke-linejoin="round" stroke-width="1.5px"></path><path class="a" d="M18.722 23.25v-7.035" fill="none" stroke="#212121" stroke-linecap="round" stroke-linejoin="round" stroke-width="1.5px"></path><path class="a" d="M21.722 23.25a9.754 9.754 0 0 0-6.922-9.334" fill="none" stroke="#212121" stroke-linecap="round" stroke-linejoin="round" stroke-width="1.5px"></path><path class="a" d="M9.147 13.916a9.754 9.754 0 0 0-6.925 9.334" fill="none" stroke="#212121" stroke-linecap="round" stroke-linejoin="round" stroke-width="1.5px"></path><path class="a" d="M8.972 5.25h6v3h-6z" fill="none" stroke="#212121" stroke-linecap="round" stroke-linejoin="round" stroke-width="1.5px"></path><path class="a" d="M6.722 9s0 3.749-3 5.249" fill="none" stroke="#212121" stroke-linecap="round" stroke-linejoin="round" stroke-width="1.5px"></path><path class="a" d="M17.222 9s.054 3.75 3.054 5.25" fill="none" stroke="#212121" stroke-linecap="round" stroke-linejoin="round" stroke-width="1.5px"></path></g></svg>