<svg xmlns="http://www.w3.org/2000/svg" width="24" height="24" viewBox="0 0 24 24"><title>professions woman nurse 1</title><g fill="#212121" class="nc-icon-wrapper"><defs></defs><path class="a" d="M17.974 19.026a14.584 14.584 0 0 0 3.391-1.006 1.5 1.5 0 0 0 .763-1.961l-1.376-3.211a4.5 4.5 0 0 1-.364-1.772V9a8.25 8.25 0 0 0-16.5 0v2.076a4.5 4.5 0 0 1-.364 1.772l-1.376 3.211a1.5 1.5 0 0 0 .763 1.961A14.584 14.584 0 0 0 6.3 19.026" fill="none" stroke="#212121" stroke-linecap="round" stroke-linejoin="round" stroke-width="1.5px"></path><path class="a" d="M21.614 23.25a10.483 10.483 0 0 0-18.952 0" fill="none" stroke="#212121" stroke-linecap="round" stroke-linejoin="round" stroke-width="1.5px"></path><path class="a" d="M12.138 5.25S10.7 8.847 7.107 8.995a5.25 5.25 0 1 0 10.062 0c-3.597-.148-5.031-3.745-5.031-3.745z" fill="none" stroke="#212121" stroke-linecap="round" stroke-linejoin="round" stroke-width="1.5px"></path><path class="a" d="M8.388 21.75h3" fill="none" stroke="#212121" stroke-linecap="round" stroke-linejoin="round" stroke-width="1.5px"></path><path class="a" d="M9.888 20.25v3" fill="none" stroke="#212121" stroke-linecap="round" stroke-linejoin="round" stroke-width="1.5px"></path><path class="a" d="M14.388 23.25v-5.758" fill="none" stroke="#212121" stroke-linecap="round" stroke-linejoin="round" stroke-width="1.5px"></path></g></svg>