<svg xmlns="http://www.w3.org/2000/svg" width="24" height="24" viewBox="0 0 24 24"><title>professions man magician</title><g fill="#212121" class="nc-icon-wrapper"><defs></defs><path class="a" d="M17.2 11.25a5.25 5.25 0 0 1-10.5 0z" fill="none" stroke="#212121" stroke-linecap="round" stroke-linejoin="round" stroke-width="1.5px"></path><path class="a" d="M5.948 2.25l.75 9H17.2l.75-9a1.5 1.5 0 0 0-1.5-1.5h-9a1.5 1.5 0 0 0-1.502 1.5z" fill="none" stroke="#212121" stroke-linecap="round" stroke-linejoin="round" stroke-width="1.5px"></path><path class="a" d="M3.698 11.25h16.5" fill="none" stroke="#212121" stroke-linecap="round" stroke-linejoin="round" stroke-width="1.5px"></path><path class="a" d="M6.698 8.25h10.5" fill="none" stroke="#212121" stroke-linecap="round" stroke-linejoin="round" stroke-width="1.5px"></path><path class="a" d="M8.338 18.833a.6.6 0 0 0-.3-.083.587.587 0 0 0-.587.587v3.325a.587.587 0 0 0 .89.5l7.221-4.333a.588.588 0 0 1 .889.5v3.325a.587.587 0 0 1-.889.5z" fill="none" stroke="#212121" stroke-linecap="round" stroke-linejoin="round" stroke-width="1.5px"></path></g></svg>