<svg xmlns="http://www.w3.org/2000/svg" width="24" height="24" viewBox="0 0 24 24"><title>professions woman doctor 2</title><g fill="#212121" class="nc-icon-wrapper"><defs></defs><path class="a" d="M6.707 19.139a10.567 10.567 0 0 0-3.476 4.111" fill="none" stroke="#212121" stroke-linecap="round" stroke-linejoin="round" stroke-width="1.5px"></path><path class="a" d="M22.183 23.25a10.489 10.489 0 0 0-9.476-6" fill="none" stroke="#212121" stroke-linecap="round" stroke-linejoin="round" stroke-width="1.5px"></path><path class="a" d="M12.707 5.25s-1.434 3.6-5.031 3.745a5.25 5.25 0 1 0 10.062 0c-3.598-.148-5.031-3.745-5.031-3.745z" fill="none" stroke="#212121" stroke-linecap="round" stroke-linejoin="round" stroke-width="1.5px"></path><circle class="a" cx="2.957" cy="12.75" r="1.5" fill="none" stroke="#212121" stroke-linecap="round" stroke-linejoin="round" stroke-width="1.5px"></circle><path class="a" d="M16.457 17.25a3.75 3.75 0 0 1-7.5 0" fill="none" stroke="#212121" stroke-linecap="round" stroke-linejoin="round" stroke-width="1.5px"></path><path class="a" d="M4.457 12.844a3 3 0 0 1 2.25 2.906V21a2.25 2.25 0 0 0 2.25 2.25h1.5a2.251 2.251 0 0 0 2.25-2.25" fill="none" stroke="#212121" stroke-linecap="round" stroke-linejoin="round" stroke-width="1.5px"></path><path class="a" d="M4.457 9a8.25 8.25 0 0 1 16.5 0v2.076a4.5 4.5 0 0 0 .364 1.772l1.379 3.211a1.5 1.5 0 0 1-.762 1.961 14.584 14.584 0 0 1-3.391 1.006" fill="none" stroke="#212121" stroke-linecap="round" stroke-linejoin="round" stroke-width="1.5px"></path></g></svg>