<svg xmlns="http://www.w3.org/2000/svg" width="24" height="24" viewBox="0 0 24 24"><title>professions man doctor 2</title><g fill="#212121" class="nc-icon-wrapper"><defs></defs><path class="a" d="M17.25 14.247a9.753 9.753 0 0 1 6 9" fill="none" stroke="#212121" stroke-linecap="round" stroke-linejoin="round" stroke-width="1.5px"></path><path class="a" d="M3.75 23.25a9.722 9.722 0 0 1 3-7.036" fill="none" stroke="#212121" stroke-linecap="round" stroke-linejoin="round" stroke-width="1.5px"></path><path class="a" d="M17.25 12.75V15a3.75 3.75 0 0 1-7.5 0v-2.25" fill="none" stroke="#212121" stroke-linecap="round" stroke-linejoin="round" stroke-width="1.5px"></path><circle class="a" cx="2.25" cy="9.75" r="1.5" fill="none" stroke="#212121" stroke-linecap="round" stroke-linejoin="round" stroke-width="1.5px"></circle><path class="a" d="M3.75 9.75a3 3 0 0 1 3 3V21A2.25 2.25 0 0 0 9 23.25h2.25A2.25 2.25 0 0 0 13.5 21v-2.25" fill="none" stroke="#212121" stroke-linecap="round" stroke-linejoin="round" stroke-width="1.5px"></path><circle class="a" cx="13.5" cy="6" r="5.25" fill="none" stroke="#212121" stroke-linecap="round" stroke-linejoin="round" stroke-width="1.5px"></circle><path class="a" d="M8.976 3.335A8.71 8.71 0 0 0 15.25 6a8.725 8.725 0 0 0 3.45-.71" fill="none" stroke="#212121" stroke-linecap="round" stroke-linejoin="round" stroke-width="1.5px"></path></g></svg>