<svg xmlns="http://www.w3.org/2000/svg" width="24" height="24" viewBox="0 0 24 24"><title>professions woman chef 3</title><g fill="#212121" class="nc-icon-wrapper"><defs></defs><path class="a" d="M17.388 11.25a5.25 5.25 0 0 1-10.5 0z" fill="none" stroke="#212121" stroke-linecap="round" stroke-linejoin="round" stroke-width="1.5px"></path><path class="a" d="M17.388 6.75a1.5 1.5 0 0 0 1.5-1.5 3 3 0 0 0-4.051-2.811 3 3 0 0 0-5.4 0A3 3 0 0 0 5.388 5.25a1.5 1.5 0 0 0 1.5 1.5v4.5h10.5z" fill="none" stroke="#212121" stroke-linecap="round" stroke-linejoin="round" stroke-width="1.5px"></path><path class="a" d="M19.8 23.25a9.692 9.692 0 0 0-15.314 0" fill="none" stroke="#212121" stroke-linecap="round" stroke-linejoin="round" stroke-width="1.5px"></path><path class="a" d="M12.138 19.5v3.75" fill="none" stroke="#212121" stroke-linecap="round" stroke-linejoin="round" stroke-width="1.5px"></path><path class="a" d="M6.888 11.25s0 3.75-3 5.25" fill="none" stroke="#212121" stroke-linecap="round" stroke-linejoin="round" stroke-width="1.5px"></path><path class="a" d="M17.388 11.25s0 3.75 3 5.25" fill="none" stroke="#212121" stroke-linecap="round" stroke-linejoin="round" stroke-width="1.5px"></path></g></svg>