<svg xmlns="http://www.w3.org/2000/svg" width="24" height="24" viewBox="0 0 24 24"><title>professions woman nurse 2</title><g fill="#212121" class="nc-icon-wrapper"><defs></defs><path class="a" d="M21.614 23.25a10.483 10.483 0 0 0-18.952 0" fill="none" stroke="#212121" stroke-linecap="round" stroke-linejoin="round" stroke-width="1.5px"></path><path class="a" d="M7.854 18.164l4.284 5.086 4.284-5.086" fill="none" stroke="#212121" stroke-linecap="round" stroke-linejoin="round" stroke-width="1.5px"></path><path class="a" d="M17.974 19.026a14.584 14.584 0 0 0 3.391-1.006 1.5 1.5 0 0 0 .763-1.961l-1.376-3.211a4.5 4.5 0 0 1-.364-1.772V9a8.218 8.218 0 0 0-2.169-5.575" fill="none" stroke="#212121" stroke-linecap="round" stroke-linejoin="round" stroke-width="1.5px"></path><path class="a" d="M6.057 3.425A8.218 8.218 0 0 0 3.888 9v2.076a4.5 4.5 0 0 1-.364 1.772l-1.376 3.211a1.5 1.5 0 0 0 .763 1.961A14.584 14.584 0 0 0 6.3 19.026" fill="none" stroke="#212121" stroke-linecap="round" stroke-linejoin="round" stroke-width="1.5px"></path><path class="a" d="M12.356 6.75h-.436a5.252 5.252 0 0 1-5.032 3.75 5.25 5.25 0 0 0 10.5 0 5.252 5.252 0 0 1-5.032-3.75z" fill="none" stroke="#212121" stroke-linecap="round" stroke-linejoin="round" stroke-width="1.5px"></path><path class="a" d="M17.388 6.75h-10.5L5.854 2.613A1.5 1.5 0 0 1 7.309.75h9.658a1.5 1.5 0 0 1 1.455 1.863z" fill="none" stroke="#212121" stroke-linecap="round" stroke-linejoin="round" stroke-width="1.5px"></path></g></svg>