<svg xmlns="http://www.w3.org/2000/svg" width="24" height="24" viewBox="0 0 24 24"><title>programming flag</title><g fill="#212121" class="nc-icon-wrapper"><defs></defs><path class="a" d="M.75 23.253V.753" fill="none" stroke="#212121" stroke-linecap="round" stroke-linejoin="round" stroke-width="1.5px"></path><path class="a" d="M.75 18.373L3.9 17.4a9.607 9.607 0 0 1 7.864 1 9.615 9.615 0 0 0 7.679 1.056l2.987-.854a1.125 1.125 0 0 0 .816-1.082V4.651a1.126 1.126 0 0 0-1.434-1.082l-2.369.677a9.611 9.611 0 0 1-7.675-1.056 9.614 9.614 0 0 0-7.864-1L.75 3.16z" fill="none" stroke="#212121" stroke-linecap="round" stroke-linejoin="round" stroke-width="1.5px"></path><path class="a" d="M15.424 7.601l2.935 2.935-2.935 2.935" fill="none" stroke="#212121" stroke-linecap="round" stroke-linejoin="round" stroke-width="1.5px"></path><path class="a" d="M8.576 7.601l-2.935 2.935 2.935 2.935" fill="none" stroke="#212121" stroke-linecap="round" stroke-linejoin="round" stroke-width="1.5px"></path><path class="a" d="M12.978 7.601l-1.956 5.87" fill="none" stroke="#212121" stroke-linecap="round" stroke-linejoin="round" stroke-width="1.5px"></path></g></svg>