<svg xmlns="http://www.w3.org/2000/svg" width="24" height="24" viewBox="0 0 24 24"><title>programming hold laptop</title><g fill="#212121" class="nc-icon-wrapper"><defs></defs><path class="a" d="M3.75 23.25l-2.014-2.517a4.5 4.5 0 0 1-.986-2.811V12.75a1.5 1.5 0 0 1 1.5-1.5 1.5 1.5 0 0 1 1.5 1.5v3.75" fill="none" stroke="#212121" stroke-linecap="round" stroke-linejoin="round" stroke-width="1.5px"></path><path class="a" d="M8.25 23.25v-3.136a4.493 4.493 0 0 0-.757-2.5L6.351 15.9a1.4 1.4 0 0 0-1.977-.445A1.4 1.4 0 0 0 3.9 17.25l1.35 2.25" fill="none" stroke="#212121" stroke-linecap="round" stroke-linejoin="round" stroke-width="1.5px"></path><path class="a" d="M20.25 23.25l2.014-2.517a4.5 4.5 0 0 0 .986-2.811V12.75a1.5 1.5 0 0 0-1.5-1.5 1.5 1.5 0 0 0-1.5 1.5v3.75" fill="none" stroke="#212121" stroke-linecap="round" stroke-linejoin="round" stroke-width="1.5px"></path><path class="a" d="M15.75 23.25v-3.136a4.493 4.493 0 0 1 .757-2.5l1.142-1.714a1.4 1.4 0 0 1 1.977-.445 1.4 1.4 0 0 1 .474 1.795l-1.35 2.25" fill="none" stroke="#212121" stroke-linecap="round" stroke-linejoin="round" stroke-width="1.5px"></path><path class="a" d="M17.25 8.25H6.75V1.5A.75.75 0 0 1 7.5.75h9a.75.75 0 0 1 .75.75z" fill="none" stroke="#212121" stroke-linecap="round" stroke-linejoin="round" stroke-width="1.5px"></path><path class="a" d="M17.25 8.25H6.75l-.957 1.915a.75.75 0 0 0 .671 1.085h11.072a.75.75 0 0 0 .671-1.085z" fill="none" stroke="#212121" stroke-linecap="round" stroke-linejoin="round" stroke-width="1.5px"></path></g></svg>