<svg xmlns="http://www.w3.org/2000/svg" width="24" height="24" viewBox="0 0 24 24"><title>programming book</title><g fill="#212121" class="nc-icon-wrapper"><defs></defs><path class="a" d="M3.25 3v18.3a1.994 1.994 0 0 0 2.029 1.956h14.206a1 1 0 0 0 1.015-.978V6.753a1.5 1.5 0 0 0-1.5-1.5h-.75" fill="none" stroke="#212121" stroke-linecap="round" stroke-linejoin="round" stroke-width="1.5px"></path><path class="a" d="M19 5.253H5.5A2.25 2.25 0 0 1 3.25 3 2.25 2.25 0 0 1 5.5.753h12a1.5 1.5 0 0 1 1.5 1.5v3" fill="none" stroke="#212121" stroke-linecap="round" stroke-linejoin="round" stroke-width="1.5px"></path><path class="a" d="M7 12.003l2.25 2.25L7 16.503" fill="none" stroke="#212121" stroke-linecap="round" stroke-linejoin="round" stroke-width="1.5px"></path><path class="a" d="M12.087 14.253H16" fill="none" stroke="#212121" stroke-linecap="round" stroke-linejoin="round" stroke-width="1.5px"></path></g></svg>