<svg xmlns="http://www.w3.org/2000/svg" width="24" height="24" viewBox="0 0 24 24"><title>project building shopping</title><g fill="#212121" class="nc-icon-wrapper"><defs></defs><path class="a" d="M.75 17.444h15.443a1.452 1.452 0 0 0 1.436-1.237l1.807-12.043a1.451 1.451 0 0 1 1.435-1.237h1.653" fill="none" stroke="#212121" stroke-linecap="round" stroke-linejoin="round" stroke-width="1.5px"></path><circle class="a" cx="4.016" cy="21.435" r="1.815" fill="none" stroke="#212121" stroke-linecap="round" stroke-linejoin="round" stroke-width="1.5px"></circle><circle class="a" cx="14.177" cy="21.435" r="1.815" fill="none" stroke="#212121" stroke-linecap="round" stroke-linejoin="round" stroke-width="1.5px"></circle><path class="a" d="M4.153 6.556h5.532a.5.5 0 0 1 .5.5v7.484H3.653V7.056a.5.5 0 0 1 .5-.5z" fill="none" stroke="#212121" stroke-linecap="round" stroke-linejoin="round" stroke-width="1.5px"></path><path class="a" d="M10.185 14.54h5.081V1.476A.726.726 0 0 0 14.54.75H8.008a.726.726 0 0 0-.726.726v5.08" fill="none" stroke="#212121" stroke-linecap="round" stroke-linejoin="round" stroke-width="1.5px"></path><path class="a" d="M3.653 14.54H2.202" fill="none" stroke="#212121" stroke-linecap="round" stroke-linejoin="round" stroke-width="1.5px"></path><path class="a" d="M7.282 9.46h2.903" fill="none" stroke="#212121" stroke-linecap="round" stroke-linejoin="round" stroke-width="1.5px"></path><path class="a" d="M13.089 3.653h2.177" fill="none" stroke="#212121" stroke-linecap="round" stroke-linejoin="round" stroke-width="1.5px"></path><path class="a" d="M13.089 6.556h2.177" fill="none" stroke="#212121" stroke-linecap="round" stroke-linejoin="round" stroke-width="1.5px"></path></g></svg>