<svg xmlns="http://www.w3.org/2000/svg" width="24" height="24" viewBox="0 0 24 24"><title>protection shield</title><g fill="#212121" class="nc-icon-wrapper"><defs></defs><path class="a" d="M9.75 20.829a1.5 1.5 0 0 0 .919 1.383A15.063 15.063 0 0 0 16.5 23.25a15.063 15.063 0 0 0 5.831-1.038 1.5 1.5 0 0 0 .919-1.383V7.426a1.5 1.5 0 0 0-1.944-1.434 16.476 16.476 0 0 1-4.806.758 16.476 16.476 0 0 1-4.806-.758A1.5 1.5 0 0 0 9.75 7.426z" fill="none" stroke="#212121" stroke-linecap="round" stroke-linejoin="round" stroke-width="1.5px"></path><path class="a" d="M14.25 11.25h4.5" fill="none" stroke="#212121" stroke-linecap="round" stroke-linejoin="round" stroke-width="1.5px"></path><path class="a" d="M13.5 3.75a3 3 0 0 1 6 0" fill="none" stroke="#212121" stroke-linecap="round" stroke-linejoin="round" stroke-width="1.5px"></path><path class="a" d="M3.75 21.75a1.5 1.5 0 0 0 3 0v-15a1.5 1.5 0 0 0-3 0z" fill="none" stroke="#212121" stroke-linecap="round" stroke-linejoin="round" stroke-width="1.5px"></path><path class="a" d="M6.75 15.75h-6" fill="none" stroke="#212121" stroke-linecap="round" stroke-linejoin="round" stroke-width="1.5px"></path><path class="a" d="M3.75 18.75H6" fill="none" stroke="#212121" stroke-linecap="round" stroke-linejoin="round" stroke-width="1.5px"></path></g></svg>