<svg xmlns="http://www.w3.org/2000/svg" width="24" height="24" viewBox="0 0 24 24"><title>protection sand bag</title><g fill="#212121" class="nc-icon-wrapper"><defs></defs><path class="a" d="M7.5 17.5H3A2.25 2.25 0 0 0 3 22h4.5a2.25 2.25 0 0 0 0-4.5z" fill="none" stroke="#212121" stroke-linecap="round" stroke-linejoin="round" stroke-width="1.5px"></path><path class="a" d="M16.5 17.5H12a2.25 2.25 0 0 0 0 4.5h4.5a2.25 2.25 0 0 0 0-4.5z" fill="none" stroke="#212121" stroke-linecap="round" stroke-linejoin="round" stroke-width="1.5px"></path><path class="a" d="M12 13H7.5a2.25 2.25 0 0 0 0 4.5H12a2.25 2.25 0 0 0 0-4.5z" fill="none" stroke="#212121" stroke-linecap="round" stroke-linejoin="round" stroke-width="1.5px"></path><path class="a" d="M6.75 13.128V4.75a3 3 0 0 1 3-3h12a1.5 1.5 0 0 1 1.5 1.5v15" fill="none" stroke="#212121" stroke-linecap="round" stroke-linejoin="round" stroke-width="1.5px"></path><path class="a" d="M14.457 8.085a.748.748 0 0 1-.671.415H6.75v-3h7.786a.75.75 0 0 1 .671 1.085z" fill="none" stroke="#212121" stroke-linecap="round" stroke-linejoin="round" stroke-width="1.5px"></path></g></svg>