<svg xmlns="http://www.w3.org/2000/svg" width="24" height="24" viewBox="0 0 24 24"><title>public service police 1</title><g fill="#212121" class="nc-icon-wrapper"><defs></defs><circle class="a" cx="17.25" cy="17.963" r="1.5" fill="none" stroke="#212121" stroke-linecap="round" stroke-linejoin="round" stroke-width="1.5px"></circle><circle class="a" cx="5.25" cy="17.963" r="1.5" fill="none" stroke="#212121" stroke-linecap="round" stroke-linejoin="round" stroke-width="1.5px"></circle><path class="a" d="M18 11.963H3.75" fill="none" stroke="#212121" stroke-linecap="round" stroke-linejoin="round" stroke-width="1.5px"></path><path class="a" d="M15.75 17.963h-9" fill="none" stroke="#212121" stroke-linecap="round" stroke-linejoin="round" stroke-width="1.5px"></path><path class="a" d="M3.75 17.963h-1.5a1.5 1.5 0 0 1-1.5-1.5v-1.5a3 3 0 0 1 3-3l1.835-3.671a1.5 1.5 0 0 1 1.342-.829h7.9a1.5 1.5 0 0 1 1.342.829L18 11.963h2.25a3 3 0 0 1 3 3v1.5a1.5 1.5 0 0 1-1.5 1.5h-3" fill="none" stroke="#212121" stroke-linecap="round" stroke-linejoin="round" stroke-width="1.5px"></path><path class="a" d="M12.75 3.713a1.5 1.5 0 0 1 1.5 1.5v2.25h-3v-2.25a1.5 1.5 0 0 1 1.5-1.5z" fill="none" stroke="#212121" stroke-linecap="round" stroke-linejoin="round" stroke-width="1.5px"></path></g></svg>