<svg xmlns="http://www.w3.org/2000/svg" width="24" height="24" viewBox="0 0 24 24"><title>punishment prisoner bars</title><g fill="#212121" class="nc-icon-wrapper"><defs></defs><rect class="a" x=".75" y=".75" width="22.5" height="22.5" rx="1" ry="1" fill="none" stroke="#212121" stroke-linecap="round" stroke-linejoin="round" stroke-width="1.5px"></rect><circle class="a" cx="12" cy="7.5" r="3.75" fill="none" stroke="#212121" stroke-linecap="round" stroke-linejoin="round" stroke-width="1.5px"></circle><path class="a" d="M8.25.75V16.5" fill="none" stroke="#212121" stroke-linecap="round" stroke-linejoin="round" stroke-width="1.5px"></path><path class="a" d="M15.75.75V16.5" fill="none" stroke="#212121" stroke-linecap="round" stroke-linejoin="round" stroke-width="1.5px"></path><path class="a" d="M3.75.75v22.5" fill="none" stroke="#212121" stroke-linecap="round" stroke-linejoin="round" stroke-width="1.5px"></path><path class="a" d="M20.25.75v22.5" fill="none" stroke="#212121" stroke-linecap="round" stroke-linejoin="round" stroke-width="1.5px"></path><path class="a" d="M15.75 18.75a2.25 2.25 0 0 0 0 4.5h.75a3.75 3.75 0 0 0 3.75-3.75v-.75a4.5 4.5 0 0 0-4.5-4.5h-7.5a4.5 4.5 0 0 0-4.5 4.5v.75a3.75 3.75 0 0 0 3.75 3.75h.75a2.25 2.25 0 0 0 0-4.5" fill="none" stroke="#212121" stroke-linecap="round" stroke-linejoin="round" stroke-width="1.5px"></path></g></svg>