<svg xmlns="http://www.w3.org/2000/svg" width="24" height="24" viewBox="0 0 24 24"><title>railroad metro</title><g fill="#212121" class="nc-icon-wrapper"><defs></defs><path class="a" d="M.75 23.263l2.37-2.729" fill="none" stroke="#212121" stroke-linecap="round" stroke-linejoin="round" stroke-width="1.5px"></path><path class="a" d="M23.25 23.263l-2.37-2.729" fill="none" stroke="#212121" stroke-linecap="round" stroke-linejoin="round" stroke-width="1.5px"></path><path class="a" d="M21.75 9.013c0 4.971-3.537 12.75-9.75 12.75s-9.75-7.779-9.75-12.75S5.787.763 12 .763s9.75 3.279 9.75 8.25z" fill="none" stroke="#212121" stroke-linecap="round" stroke-linejoin="round" stroke-width="1.5px"></path><path class="a" d="M12 21.763a7.978 7.978 0 0 0 5.944-2.863c-.4-2.2-2.908-3.886-5.944-3.886S6.455 16.7 6.056 18.9A7.978 7.978 0 0 0 12 21.763z" fill="none" stroke="#212121" stroke-linecap="round" stroke-linejoin="round" stroke-width="1.5px"></path><path class="a" d="M15.75 5.263h-7.5a2.25 2.25 0 0 0 0 4.5h7.5a2.25 2.25 0 0 0 0-4.5z" fill="none" stroke="#212121" stroke-linecap="round" stroke-linejoin="round" stroke-width="1.5px"></path></g></svg>