<svg xmlns="http://www.w3.org/2000/svg" width="24" height="24" viewBox="0 0 24 24"><title>rain umbrella case</title><g fill="#212121" class="nc-icon-wrapper"><defs></defs><path class="cls-1" d="M5.309 15.75l-2.17-8.434a1.978 1.978 0 0 0 3.432-.63A1.976 1.976 0 0 0 10 6.056l-.1 9.694" fill="none" stroke="#212121" stroke-linecap="round" stroke-linejoin="round" stroke-width="1.5px"></path><path class="cls-1" d="M6.571 6.686l-.756-4.117a1.405 1.405 0 1 1 2.745-.5" fill="none" stroke="#212121" stroke-linecap="round" stroke-linejoin="round" stroke-width="1.5px"></path><path class="cls-1" d="M13.143 15.75l.228-9.621a1.977 1.977 0 0 0 3.395.8 1.976 1.976 0 0 0 3.4.8l-2.3 8.019" fill="none" stroke="#212121" stroke-linecap="round" stroke-linejoin="round" stroke-width="1.5px"></path><path class="cls-1" d="M16.766 6.93l.961-4.074a1.405 1.405 0 1 1 2.716.641" fill="none" stroke="#212121" stroke-linecap="round" stroke-linejoin="round" stroke-width="1.5px"></path><path class="cls-1" d="M4.712 23.25l-1.573-7.5h16.684l-1.573 7.5" fill="none" stroke="#212121" stroke-linecap="round" stroke-linejoin="round" stroke-width="1.5px"></path></g></svg>