<svg xmlns="http://www.w3.org/2000/svg" width="24" height="24" viewBox="0 0 24 24"><title>rain umbrella sun</title><g fill="#212121" class="nc-icon-wrapper"><defs></defs><path class="cls-1" d="M8.25 17.185c.454-1.821 3.631-1.821 4.086 0 .014-1.835 3.417-1.821 3.4 0A7.575 7.575 0 0 0 8.25 9a7.575 7.575 0 0 0-7.491 8.185c-.012-1.821 3.391-1.835 3.406 0 .454-1.821 3.635-1.821 4.085 0z" fill="none" stroke="#212121" stroke-linejoin="round" stroke-width="1.5px"></path><path class="cls-2" d="M8.25 9.016V7.5" fill="none" stroke="#212121" stroke-linejoin="round" stroke-width="1.5px" stroke-linecap="round"></path><path class="cls-2" d="M12.562 6.55a4.05 4.05 0 1 1 4.738 4.92" fill="none" stroke="#212121" stroke-linejoin="round" stroke-width="1.5px" stroke-linecap="round"></path><path class="cls-2" d="M16.5 3.45V.75" fill="none" stroke="#212121" stroke-linejoin="round" stroke-width="1.5px" stroke-linecap="round"></path><path class="cls-2" d="M13.636 4.636l-1.909-1.909" fill="none" stroke="#212121" stroke-linejoin="round" stroke-width="1.5px" stroke-linecap="round"></path><path class="cls-2" d="M20.55 7.5h2.7" fill="none" stroke="#212121" stroke-linejoin="round" stroke-width="1.5px" stroke-linecap="round"></path><path class="cls-2" d="M19.364 4.636l1.909-1.909" fill="none" stroke="#212121" stroke-linejoin="round" stroke-width="1.5px" stroke-linecap="round"></path><path class="cls-2" d="M19.364 10.364l1.909 1.909" fill="none" stroke="#212121" stroke-linejoin="round" stroke-width="1.5px" stroke-linecap="round"></path><path class="cls-2" d="M8.25 17.185v4.565a1.5 1.5 0 0 0 3 0" fill="none" stroke="#212121" stroke-linejoin="round" stroke-width="1.5px" stroke-linecap="round"></path></g></svg>