<svg xmlns="http://www.w3.org/2000/svg" width="24" height="24" viewBox="0 0 24 24"><title>rain cloud umbrella</title><g fill="#212121" class="nc-icon-wrapper"><defs></defs><path class="cls-1" d="M7.877 9.009a7.587 7.587 0 0 0-7.118 8.176c-.012-1.821 3.391-1.835 3.406 0 .454-1.821 3.631-1.821 4.085 0 .454-1.821 3.631-1.821 4.086 0 .014-1.835 3.417-1.821 3.4 0A8.35 8.35 0 0 0 15.2 13.8" fill="none" stroke="#212121" stroke-linecap="round" stroke-linejoin="round" stroke-width="1.5px"></path><path class="cls-1" d="M8.25 17.185v4.565a1.5 1.5 0 0 0 3 0" fill="none" stroke="#212121" stroke-linecap="round" stroke-linejoin="round" stroke-width="1.5px"></path><path class="cls-1" d="M14.062 11.25l1.42-2.333" fill="none" stroke="#212121" stroke-linecap="round" stroke-linejoin="round" stroke-width="1.5px"></path><path class="cls-1" d="M17.062 11.25l1.5-2.292" fill="none" stroke="#212121" stroke-linecap="round" stroke-linejoin="round" stroke-width="1.5px"></path><path class="cls-1" d="M14.25 5.25a4.523 4.523 0 0 0 .035.562 4.523 4.523 0 0 1-.035-.562 4.411 4.411 0 0 1 .085-.842" fill="none" stroke="#212121" stroke-linecap="round" stroke-linejoin="round" stroke-width="1.5px"></path><path class="cls-1" d="M21.066 9.109a4.5 4.5 0 1 0-6.731-4.7 2.808 2.808 0 0 0-2.756 4.879" fill="none" stroke="#212121" stroke-linecap="round" stroke-linejoin="round" stroke-width="1.5px"></path></g></svg>