<svg xmlns="http://www.w3.org/2000/svg" width="24" height="24" viewBox="0 0 24 24"><title>rat curve</title><g fill="#212121" class="nc-icon-wrapper"><defs></defs><path class="cls-1" d="M12.879 1.5a10.5 10.5 0 1 1-10.5 10.451" fill="none" stroke="#212121" stroke-linecap="round" stroke-linejoin="round" stroke-width="1.5px"></path><path class="cls-1" d="M3.879 12c-2.25.75-3.53-2.159-3-3.75.75-2.25 2.25-1.5 2.25-1.5a3.742 3.742 0 0 1 3.75-2.25 28.379 28.379 0 0 1 6 .75s.75 6-3.75 6a5.454 5.454 0 0 0 3.75 3.75" fill="none" stroke="#212121" stroke-linecap="round" stroke-linejoin="round" stroke-width="1.5px"></path><path class="cls-1" d="M14.688 19.416A8.454 8.454 0 0 1 17.379 15" fill="none" stroke="#212121" stroke-linecap="round" stroke-linejoin="round" stroke-width="1.5px"></path><path class="cls-1" d="M9.879 17.25a3.344 3.344 0 0 1 3-2.25 3.25 3.25 0 0 1 3 1.5l.054.107" fill="none" stroke="#212121" stroke-linecap="round" stroke-linejoin="round" stroke-width="1.5px"></path><path class="cls-1" d="M11.066 14.127l.313-.627a1.642 1.642 0 0 1 2.25-.75" fill="none" stroke="#212121" stroke-linecap="round" stroke-linejoin="round" stroke-width="1.5px"></path><path class="cls-1" d="M7.254 7.5a.375.375 0 0 1 .375.375" fill="none" stroke="#212121" stroke-linecap="round" stroke-linejoin="round" stroke-width="1.5px"></path><path class="cls-1" d="M6.879 7.875a.375.375 0 0 1 .375-.375" fill="none" stroke="#212121" stroke-linecap="round" stroke-linejoin="round" stroke-width="1.5px"></path><path class="cls-1" d="M7.254 8.25a.375.375 0 0 1-.375-.375" fill="none" stroke="#212121" stroke-linecap="round" stroke-linejoin="round" stroke-width="1.5px"></path><path class="cls-1" d="M7.629 7.875a.375.375 0 0 1-.375.375" fill="none" stroke="#212121" stroke-linecap="round" stroke-linejoin="round" stroke-width="1.5px"></path></g></svg>