<svg xmlns="http://www.w3.org/2000/svg" width="24" height="24" viewBox="0 0 24 24"><title>rating star winner</title><g fill="#212121" class="nc-icon-wrapper"><defs></defs><path class="a" d="M18.825 12.374l1.251 2.252h2.481a.68.68 0 0 1 .489 1.163l-2.278 2.486 1.262 2.9a.688.688 0 0 1-.979.86L18 20.318l-3.05 1.716a.688.688 0 0 1-.98-.86l1.22-2.8" fill="none" stroke="#212121" stroke-linecap="round" stroke-linejoin="round" stroke-width="1.5px"></path><path class="a" d="M5.175 12.374l-1.251 2.252H1.443a.68.68 0 0 0-.489 1.163l2.278 2.486-1.262 2.9a.688.688 0 0 0 .979.86L6 20.318l3.05 1.716a.688.688 0 0 0 .98-.86l-1.22-2.8" fill="none" stroke="#212121" stroke-linecap="round" stroke-linejoin="round" stroke-width="1.5px"></path><path class="a" d="M12.368 2.141l1.989 3.977 3.827.383a.485.485 0 0 1 .294.825l-3.152 3.152 1.168 4.283a.484.484 0 0 1-.684.56l-3.875-1.937-3.875 1.937a.484.484 0 0 1-.683-.56l1.168-4.283-3.152-3.152a.485.485 0 0 1 .294-.826l3.826-.383L11.5 2.141a.484.484 0 0 1 .868 0z" fill="none" stroke="#212121" stroke-linecap="round" stroke-linejoin="round" stroke-width="1.5px"></path></g></svg>