<svg xmlns="http://www.w3.org/2000/svg" width="24" height="24" viewBox="0 0 24 24"><title>rating star bubble</title><g fill="#212121" class="nc-icon-wrapper"><defs></defs><path class="a" d="M12.593 6.8l1.4 2.95h2.377a.651.651 0 0 1 .469 1.114l-2.187 1.946 1.209 2.778a.658.658 0 0 1-.938.823L12 14.767l-2.923 1.644a.658.658 0 0 1-.938-.823l1.209-2.778-2.183-1.946a.651.651 0 0 1 .469-1.114h2.377l1.4-2.95a.665.665 0 0 1 1.182 0z" fill="none" stroke="#212121" stroke-linecap="round" stroke-linejoin="round" stroke-width="1.5px"></path><path class="a" d="M23.25 12a3.751 3.751 0 0 0-2.618-3.576 3.75 3.75 0 0 0-5.056-5.056 3.751 3.751 0 0 0-7.152 0 3.75 3.75 0 0 0-5.056 5.056 3.751 3.751 0 0 0 0 7.152 3.75 3.75 0 0 0 5.056 5.056 3.751 3.751 0 0 0 7.152 0 3.75 3.75 0 0 0 5.056-5.056A3.752 3.752 0 0 0 23.25 12z" fill="none" stroke="#212121" stroke-linecap="round" stroke-linejoin="round" stroke-width="1.5px"></path></g></svg>