<svg xmlns="http://www.w3.org/2000/svg" width="24" height="24" viewBox="0 0 24 24"><title>ray 1</title><g fill="#212121" class="nc-icon-wrapper"><defs></defs><path class="cls-1" d="M17.925 16.868s2.652-3.713 1.591-5.834c-.99-1.981-1.056-3.037.236-7.056a.75.75 0 0 0-.69-.978A14.766 14.766 0 0 0 4.056 18a.751.751 0 0 0 .98.69c4.018-1.291 5.074-1.226 7.056-.235 2.121 1.064 5.833-1.587 5.833-1.587z" fill="none" stroke="#212121" stroke-linecap="round" stroke-linejoin="round" stroke-width="1.5px"></path><path class="cls-1" d="M7.319 13.686l1.06-2.122" fill="none" stroke="#212121" stroke-linecap="round" stroke-linejoin="round" stroke-width="1.5px"></path><path class="cls-1" d="M9.44 14.746l1.061-2.121" fill="none" stroke="#212121" stroke-linecap="round" stroke-linejoin="round" stroke-width="1.5px"></path><path class="cls-1" d="M14.743 6.261l-2.121 1.061" fill="none" stroke="#212121" stroke-linecap="round" stroke-linejoin="round" stroke-width="1.5px"></path><path class="cls-1" d="M15.804 8.382l-2.121 1.061" fill="none" stroke="#212121" stroke-linecap="round" stroke-linejoin="round" stroke-width="1.5px"></path><path class="cls-1" d="M6.953 8.962a3.591 3.591 0 0 1-2.286-2.171" fill="none" stroke="#212121" stroke-linecap="round" stroke-linejoin="round" stroke-width="1.5px"></path><path class="cls-1" d="M10.02 5.9a3.591 3.591 0 0 0-2.171-2.291" fill="none" stroke="#212121" stroke-linecap="round" stroke-linejoin="round" stroke-width="1.5px"></path></g></svg>