<svg xmlns="http://www.w3.org/2000/svg" width="24" height="24" viewBox="0 0 24 24"><title>read light idea</title><g fill="#212121" class="nc-icon-wrapper"><defs></defs><path class="a" d="M12 23.251c-.528-1.663-3.943-3.6-9.843-3.866A1.5 1.5 0 0 1 .75 17.878V4.527a1.5 1.5 0 0 1 1.607-1.5c3.865.2 6.608 1.125 8.157 2.205" fill="none" stroke="#212121" stroke-linecap="round" stroke-linejoin="round" stroke-width="1.5px"></path><path class="a" d="M12 23.251c.528-1.663 3.943-3.6 9.843-3.866a1.5 1.5 0 0 0 1.407-1.507V9" fill="none" stroke="#212121" stroke-linecap="round" stroke-linejoin="round" stroke-width="1.5px"></path><path class="a" d="M9.342 8.773a24.438 24.438 0 0 0-5.574-1.3" fill="none" stroke="#212121" stroke-linecap="round" stroke-linejoin="round" stroke-width="1.5px"></path><path class="a" d="M9.342 12.588a25.017 25.017 0 0 0-5.574-1.3" fill="none" stroke="#212121" stroke-linecap="round" stroke-linejoin="round" stroke-width="1.5px"></path><path class="a" d="M9.342 16.632a25.247 25.247 0 0 0-5.625-1.3" fill="none" stroke="#212121" stroke-linecap="round" stroke-linejoin="round" stroke-width="1.5px"></path><path class="a" d="M12 10.501v12.75" fill="none" stroke="#212121" stroke-linecap="round" stroke-linejoin="round" stroke-width="1.5px"></path><path class="a" d="M17.25.751v1.5" fill="none" stroke="#212121" stroke-linecap="round" stroke-linejoin="round" stroke-width="1.5px"></path><path class="a" d="M12.439 3.221L13.5 4.282" fill="none" stroke="#212121" stroke-linecap="round" stroke-linejoin="round" stroke-width="1.5px"></path><path class="a" d="M22.061 3.221L21 4.282" fill="none" stroke="#212121" stroke-linecap="round" stroke-linejoin="round" stroke-width="1.5px"></path><path class="a" d="M17.25 12.751v1.5" fill="none" stroke="#212121" stroke-linecap="round" stroke-linejoin="round" stroke-width="1.5px"></path><path class="a" d="M20.25 8.251a3 3 0 1 0-4.5 2.584v1.916h3v-1.916a2.986 2.986 0 0 0 1.5-2.584z" fill="none" stroke="#212121" stroke-linecap="round" stroke-linejoin="round" stroke-width="1.5px"></path></g></svg>