<svg xmlns="http://www.w3.org/2000/svg" width="24" height="24" viewBox="0 0 24 24"><title>read search</title><g fill="#212121" class="nc-icon-wrapper"><defs></defs><path class="a" d="M21.75 9.752V2.259A1.5 1.5 0 0 0 20.037.768a15.934 15.934 0 0 0-7.851 3.574 1.525 1.525 0 0 1-1.872 0A15.93 15.93 0 0 0 2.463.768 1.5 1.5 0 0 0 .75 2.259v13.6a1.492 1.492 0 0 0 1.3 1.481 14.64 14.64 0 0 1 5.44 1.741" fill="none" stroke="#212121" stroke-linecap="round" stroke-linejoin="round" stroke-width="1.5px"></path><path class="a" d="M11.25 4.663v2.838" fill="none" stroke="#212121" stroke-linecap="round" stroke-linejoin="round" stroke-width="1.5px"></path><path class="a" d="M8.254 7.23a14.875 14.875 0 0 0-3.712-1.682" fill="none" stroke="#212121" stroke-linecap="round" stroke-linejoin="round" stroke-width="1.5px"></path><path class="a" d="M8.254 10.975a10.342 10.342 0 0 0-4.516-1.891" fill="none" stroke="#212121" stroke-linecap="round" stroke-linejoin="round" stroke-width="1.5px"></path><path class="a" d="M14.246 7.23a14.875 14.875 0 0 1 3.712-1.682" fill="none" stroke="#212121" stroke-linecap="round" stroke-linejoin="round" stroke-width="1.5px"></path><circle class="a" cx="15.75" cy="15.751" r="6" fill="none" stroke="#212121" stroke-linecap="round" stroke-linejoin="round" stroke-width="1.5px"></circle><path class="a" d="M23.25 23.251l-3.257-3.257" fill="none" stroke="#212121" stroke-linecap="round" stroke-linejoin="round" stroke-width="1.5px"></path><path class="a" d="M15.75 17.251v-3" fill="none" stroke="#212121" stroke-linecap="round" stroke-linejoin="round" stroke-width="1.5px"></path><path class="a" d="M14.25 14.251h3" fill="none" stroke="#212121" stroke-linecap="round" stroke-linejoin="round" stroke-width="1.5px"></path></g></svg>