<svg xmlns="http://www.w3.org/2000/svg" width="24" height="24" viewBox="0 0 24 24"><title>read art</title><g fill="#212121" class="nc-icon-wrapper"><defs></defs><path class="a" d="M13.957 5.043a6.16 6.16 0 0 0-2.552-.543C8.42 4.5 6 6.55 6 9.077a4.633 4.633 0 0 0 3.3 4.213c.767.274 1.4.051 1.845-.966a1.6 1.6 0 0 1 1.584-1.018" fill="none" stroke="#212121" stroke-linecap="round" stroke-linejoin="round" stroke-width="1.5px"></path><path class="a" d="M16.476 9.918l-2.819 5.729" fill="none" stroke="#212121" stroke-linecap="round" stroke-linejoin="round" stroke-width="1.5px"></path><path class="a" d="M15.872 8.076a1.383 1.383 0 0 0 .6 1.842 1.342 1.342 0 0 0 1.817-.618 2.959 2.959 0 0 0-.6-3.888c.197 1.641-1.011 1.027-1.817 2.664z" fill="none" stroke="#212121" stroke-linecap="round" stroke-linejoin="round" stroke-width="1.5px"></path><path class="a" d="M9.375 8.909a.378.378 0 0 1 .375.381" fill="none" stroke="#212121" stroke-linecap="round" stroke-linejoin="round" stroke-width="1.5px"></path><path class="a" d="M9 9.29a.378.378 0 0 1 .375-.381" fill="none" stroke="#212121" stroke-linecap="round" stroke-linejoin="round" stroke-width="1.5px"></path><path class="a" d="M9.375 9.671A.378.378 0 0 1 9 9.29" fill="none" stroke="#212121" stroke-linecap="round" stroke-linejoin="round" stroke-width="1.5px"></path><path class="a" d="M9.75 9.29a.378.378 0 0 1-.375.381" fill="none" stroke="#212121" stroke-linecap="round" stroke-linejoin="round" stroke-width="1.5px"></path><path class="a" d="M11.625 6.659A.378.378 0 0 1 12 7.04" fill="none" stroke="#212121" stroke-linecap="round" stroke-linejoin="round" stroke-width="1.5px"></path><path class="a" d="M11.25 7.04a.378.378 0 0 1 .375-.381" fill="none" stroke="#212121" stroke-linecap="round" stroke-linejoin="round" stroke-width="1.5px"></path><path class="a" d="M11.625 7.421a.378.378 0 0 1-.375-.381" fill="none" stroke="#212121" stroke-linecap="round" stroke-linejoin="round" stroke-width="1.5px"></path><path class="a" d="M12 7.04a.378.378 0 0 1-.375.381" fill="none" stroke="#212121" stroke-linecap="round" stroke-linejoin="round" stroke-width="1.5px"></path><path class="a" d="M21 23.251H5.25A2.25 2.25 0 0 1 3 21a2.25 2.25 0 0 1 2.25-2.25H19.5a1.5 1.5 0 0 0 1.5-1.5v-15a1.5 1.5 0 0 0-1.5-1.5H4.957A1.957 1.957 0 0 0 3 2.708V21.3" fill="none" stroke="#212121" stroke-linecap="round" stroke-linejoin="round" stroke-width="1.5px"></path><path class="a" d="M19.5 18.751v4.5" fill="none" stroke="#212121" stroke-linecap="round" stroke-linejoin="round" stroke-width="1.5px"></path></g></svg>