<svg xmlns="http://www.w3.org/2000/svg" width="24" height="24" viewBox="0 0 24 24"><title>read email hand</title><g fill="#212121" class="nc-icon-wrapper"><defs></defs><path class="a" d="M16.5 15l-1.673-1.255a1.569 1.569 0 0 0-2.247.385 1.569 1.569 0 0 0 0 1.74l1.645 2.467a4.5 4.5 0 0 0 2.075 1.682l2.45.981v2.25" fill="none" stroke="#212121" stroke-linecap="round" stroke-linejoin="round" stroke-width="1.5px"></path><path class="a" d="M15.75 9.75l3.6 1.541a4.5 4.5 0 0 1 2.363 2.364l1.173 2.745a4.5 4.5 0 0 1 .364 1.773v5.077" fill="none" stroke="#212121" stroke-linecap="round" stroke-linejoin="round" stroke-width="1.5px"></path><path class="a" d="M15.75 14.437V8.25L8.25 12 .75 8.25v7.5a1.5 1.5 0 0 0 1.5 1.5H13.5" fill="none" stroke="#212121" stroke-linecap="round" stroke-linejoin="round" stroke-width="1.5px"></path><path class="a" d="M14.25 9V2.25a1.5 1.5 0 0 0-1.5-1.5h-9a1.5 1.5 0 0 0-1.5 1.5V9" fill="none" stroke="#212121" stroke-linecap="round" stroke-linejoin="round" stroke-width="1.5px"></path><path class="a" d="M5.25 3.75H9" fill="none" stroke="#212121" stroke-linecap="round" stroke-linejoin="round" stroke-width="1.5px"></path><path class="a" d="M5.25 6.75h6" fill="none" stroke="#212121" stroke-linecap="round" stroke-linejoin="round" stroke-width="1.5px"></path></g></svg>