<svg xmlns="http://www.w3.org/2000/svg" width="24" height="24" viewBox="0 0 24 24"><title>read sports</title><g fill="#212121" class="nc-icon-wrapper"><defs></defs><path class="a" d="M12.1 8.22l.267-1.76a2.176 2.176 0 0 1 3.078 3.078l-1.577.449" fill="none" stroke="#212121" stroke-linecap="round" stroke-linejoin="round" stroke-width="1.5px"></path><path class="a" d="M15.449 9.538s1.539-.77 1.923 1.154c.261 1.3-.325 1.2-5.5 2.659" fill="none" stroke="#212121" stroke-linecap="round" stroke-linejoin="round" stroke-width="1.5px"></path><path class="a" d="M12.371 6.46s.77-1.539-1.154-1.923c-1.419-.284-1.334.7-2.53 5.632" fill="none" stroke="#212121" stroke-linecap="round" stroke-linejoin="round" stroke-width="1.5px"></path><path class="a" d="M11.869 13.351l-.531.53a2.257 2.257 0 0 1-3.182 0 2.257 2.257 0 0 1 0-3.182l.531-.53z" fill="none" stroke="#212121" stroke-linecap="round" stroke-linejoin="round" stroke-width="1.5px"></path><path class="a" d="M21 23.251H5.25A2.25 2.25 0 0 1 3 21a2.25 2.25 0 0 1 2.25-2.25H19.5a1.5 1.5 0 0 0 1.5-1.5v-15a1.5 1.5 0 0 0-1.5-1.5H4.957A1.957 1.957 0 0 0 3 2.708V21" fill="none" stroke="#212121" stroke-linecap="round" stroke-linejoin="round" stroke-width="1.5px"></path><path class="a" d="M19.5 18.751v4.5" fill="none" stroke="#212121" stroke-linecap="round" stroke-linejoin="round" stroke-width="1.5px"></path></g></svg>