<svg xmlns="http://www.w3.org/2000/svg" width="24" height="24" viewBox="0 0 24 24"><title>read music instrument</title><g fill="#212121" class="nc-icon-wrapper"><defs></defs><path class="a" d="M11.041 12.1l.265-2.038c.265-2.038.181-5.157 2.654-5.354 2-.159 2.142 2.351 2.142 2.351.282 1.591 1.311 1.207 1.311 1.207" fill="none" stroke="#212121" stroke-linecap="round" stroke-linejoin="round" stroke-width="1.5px"></path><path class="a" d="M14.266 9.752c-.013 4.154-1.647 6.177-3.689 5.912a3.12 3.12 0 0 1-3.038-2.985 4.143 4.143 0 0 0-.659-1.659.521.521 0 0 1 .283-.79l4.252-1.182" fill="none" stroke="#212121" stroke-linecap="round" stroke-linejoin="round" stroke-width="1.5px"></path><path class="a" d="M21 23.251H5.25A2.25 2.25 0 0 1 3 21a2.25 2.25 0 0 1 2.25-2.25H19.5a1.5 1.5 0 0 0 1.5-1.5v-15a1.5 1.5 0 0 0-1.5-1.5H4.957A1.957 1.957 0 0 0 3 2.708V21.3" fill="none" stroke="#212121" stroke-linecap="round" stroke-linejoin="round" stroke-width="1.5px"></path><path class="a" d="M19.5 18.751v4.5" fill="none" stroke="#212121" stroke-linecap="round" stroke-linejoin="round" stroke-width="1.5px"></path></g></svg>