<svg xmlns="http://www.w3.org/2000/svg" width="24" height="24" viewBox="0 0 24 24"><title>real estate deal document</title><g fill="#212121" class="nc-icon-wrapper"><defs></defs><path class="cls-1" d="M23.25 17.25a6 6 0 1 1-6-6" fill="none" stroke="#212121" stroke-linecap="round" stroke-linejoin="round" stroke-width="1.5px"></path><path class="cls-1" d="M23.25 12.75l-5.47 5.469a.749.749 0 0 1-1.06 0L15 16.5" fill="none" stroke="#212121" stroke-linecap="round" stroke-linejoin="round" stroke-width="1.5px"></path><path class="cls-1" d="M10.5 23.25H2.247a1.5 1.5 0 0 1-1.5-1.5V2.25a1.5 1.5 0 0 1 1.5-1.5H18a1.5 1.5 0 0 1 1.5 1.5v7.5" fill="none" stroke="#212121" stroke-linecap="round" stroke-linejoin="round" stroke-width="1.5px"></path><path class="cls-1" d="M8.991 13.279h-3a.75.75 0 0 1-.75-.75v-2.25" fill="none" stroke="#212121" stroke-linecap="round" stroke-linejoin="round" stroke-width="1.5px"></path><path class="cls-1" d="M3.741 8.029l4.5-3.75 4.5 3.75" fill="none" stroke="#212121" stroke-linecap="round" stroke-linejoin="round" stroke-width="1.5px"></path></g></svg>