<svg xmlns="http://www.w3.org/2000/svg" width="24" height="24" viewBox="0 0 24 24"><title>real estate action building settings</title><g fill="#212121" class="nc-icon-wrapper"><defs></defs><path class="cls-1" d="M15.75 8.25V1.5a.75.75 0 0 0-1.013-.7l-8.25 4.27a.75.75 0 0 0-.487.7v3.98" fill="none" stroke="#212121" stroke-linecap="round" stroke-linejoin="round" stroke-width="1.5px"></path><path class="cls-1" d="M13.5 5.25h2.25" fill="none" stroke="#212121" stroke-linecap="round" stroke-linejoin="round" stroke-width="1.5px"></path><path class="cls-1" d="M12 8.25h3.75" fill="none" stroke="#212121" stroke-linecap="round" stroke-linejoin="round" stroke-width="1.5px"></path><path class="cls-1" d="M.75 12.75H3" fill="none" stroke="#212121" stroke-linecap="round" stroke-linejoin="round" stroke-width="1.5px"></path><path class="cls-1" d="M.75 15.75H4.5" fill="none" stroke="#212121" stroke-linecap="round" stroke-linejoin="round" stroke-width="1.5px"></path><path class="cls-1" d="M8.25 4.156V.751" fill="none" stroke="#212121" stroke-linecap="round" stroke-linejoin="round" stroke-width="1.5px"></path><path class="cls-1" d="M8.25 23.25v-12a1.5 1.5 0 0 0-1.5-1.5h-4.5a1.5 1.5 0 0 0-1.5 1.5v12h9" fill="none" stroke="#212121" stroke-linecap="round" stroke-linejoin="round" stroke-width="1.5px"></path><circle class="cls-1" cx="17.25" cy="16.5" r="1.5" fill="none" stroke="#212121" stroke-linecap="round" stroke-linejoin="round" stroke-width="1.5px"></circle><path class="cls-1" d="M18.524 10.7l.442 1.453a.994.994 0 0 0 1.174.681l1.472-.341a1.339 1.339 0 0 1 1.275 2.218l-1.031 1.111a1 1 0 0 0 0 1.362l1.031 1.111a1.339 1.339 0 0 1-1.275 2.218l-1.472-.341a.994.994 0 0 0-1.174.681l-.442 1.447a1.33 1.33 0 0 1-2.548 0l-.442-1.453a.994.994 0 0 0-1.174-.681l-1.472.341a1.339 1.339 0 0 1-1.275-2.218l1.031-1.111a1 1 0 0 0 0-1.362l-1.031-1.111a1.339 1.339 0 0 1 1.275-2.218l1.472.341a.994.994 0 0 0 1.174-.681l.442-1.453a1.33 1.33 0 0 1 2.548.006z" fill="none" stroke="#212121" stroke-linecap="round" stroke-linejoin="round" stroke-width="1.5px"></path></g></svg>