<svg xmlns="http://www.w3.org/2000/svg" width="24" height="24" viewBox="0 0 24 24"><title>real estate sign building sold</title><g fill="#212121" class="nc-icon-wrapper"><defs></defs><path class="cls-1" d="M9 17.25a1.5 1.5 0 0 0-1.5 1.5v3a1.5 1.5 0 0 0 3 0v-3a1.5 1.5 0 0 0-1.5-1.5z" fill="none" stroke="#212121" stroke-linecap="round" stroke-linejoin="round" stroke-width="1.5px"></path><path class="cls-1" d="M13.5 17.25v4.5a1.5 1.5 0 0 0 1.5 1.5h1.5" fill="none" stroke="#212121" stroke-linecap="round" stroke-linejoin="round" stroke-width="1.5px"></path><path class="cls-1" d="M4.5 17.25H3a1.375 1.375 0 0 0-1.5 1.2c0 1.8 3 1.8 3 3.6a1.375 1.375 0 0 1-1.5 1.2H1.5" fill="none" stroke="#212121" stroke-linecap="round" stroke-linejoin="round" stroke-width="1.5px"></path><path class="cls-1" d="M19.5 23.25a2.751 2.751 0 0 0 3-2.4v-1.2a2.75 2.75 0 0 0-3-2.4z" fill="none" stroke="#212121" stroke-linecap="round" stroke-linejoin="round" stroke-width="1.5px"></path><path class="cls-1" d="M3.75 14.25V1.5A.75.75 0 0 1 4.763.8l8.25 4.27a.75.75 0 0 1 .487.7v8.48" fill="none" stroke="#212121" stroke-linecap="round" stroke-linejoin="round" stroke-width="1.5px"></path><path class="cls-1" d="M6 5.251H3.75" fill="none" stroke="#212121" stroke-linecap="round" stroke-linejoin="round" stroke-width="1.5px"></path><path class="cls-1" d="M7.5 8.251H3.75" fill="none" stroke="#212121" stroke-linecap="round" stroke-linejoin="round" stroke-width="1.5px"></path><path class="cls-1" d="M17.25 9.75H13.5" fill="none" stroke="#212121" stroke-linecap="round" stroke-linejoin="round" stroke-width="1.5px"></path><path class="cls-1" d="M17.25 12.75H13.5" fill="none" stroke="#212121" stroke-linecap="round" stroke-linejoin="round" stroke-width="1.5px"></path><path class="cls-1" d="M9.75 3.379V.751" fill="none" stroke="#212121" stroke-linecap="round" stroke-linejoin="round" stroke-width="1.5px"></path><path class="cls-1" d="M13.5 6.75h6a1.5 1.5 0 0 1 1.5 1.5v6" fill="none" stroke="#212121" stroke-linecap="round" stroke-linejoin="round" stroke-width="1.5px"></path></g></svg>