<svg xmlns="http://www.w3.org/2000/svg" width="24" height="24" viewBox="0 0 24 24"><title>real estate settings house wrench</title><g fill="#212121" class="nc-icon-wrapper"><defs></defs><path class="cls-1" d="M11.25 14.782v6.968a1.5 1.5 0 0 0 1.5 1.5h6a1.5 1.5 0 0 0 1.5-1.5v-6.968" fill="none" stroke="#212121" stroke-linecap="round" stroke-linejoin="round" stroke-width="1.5px"></path><path class="cls-1" d="M23.25 17.482l-6.5-5.847a1.5 1.5 0 0 0-2.007 0l-6.5 5.847" fill="none" stroke="#212121" stroke-linecap="round" stroke-linejoin="round" stroke-width="1.5px"></path><path class="cls-1" d="M21.75 16.132V12" fill="none" stroke="#212121" stroke-linecap="round" stroke-linejoin="round" stroke-width="1.5px"></path><path class="cls-1" d="M6.75 15V9.474a4.436 4.436 0 0 0 2.443-6.349S7.146 5.217 6.929 5.5a1.374 1.374 0 0 1-2.054.13 1.374 1.374 0 0 1 .13-2.054c.278-.217 2.37-2.265 2.37-2.265a4.363 4.363 0 0 0-3.793-.227 4.478 4.478 0 0 0 .168 8.4V21.75a1.5 1.5 0 0 0 1.5 1.5 1.5 1.5 0 0 0 1.5-1.5v-1.5" fill="none" stroke="#212121" stroke-linecap="round" stroke-linejoin="round" stroke-width="1.5px"></path></g></svg>