<svg xmlns="http://www.w3.org/2000/svg" width="24" height="24" viewBox="0 0 24 24"><title>real estate dimensions plan 1</title><g fill="#212121" class="nc-icon-wrapper"><defs></defs><path class="cls-1" d="M13.5 11.25V22.5a.75.75 0 0 1-.75.75H1.5a.75.75 0 0 1-.75-.75V12a.75.75 0 0 1 .75-.75h5.25" fill="none" stroke="#212121" stroke-linecap="round" stroke-linejoin="round" stroke-width="1.5px"></path><path class="cls-1" d="M4.5 11.25V1.5a.75.75 0 0 1 .75-.75h10.5a.75.75 0 0 1 .75.75v9a.75.75 0 0 1-.75.75h-4.5" fill="none" stroke="#212121" stroke-linecap="round" stroke-linejoin="round" stroke-width="1.5px"></path><path class="cls-1" d="M16.5 6h6a.75.75 0 0 1 .75.75v9a.75.75 0 0 1-.75.75h-9" fill="none" stroke="#212121" stroke-linecap="round" stroke-linejoin="round" stroke-width="1.5px"></path><path class="cls-1" d="M.75 17.25H6v6" fill="none" stroke="#212121" stroke-linecap="round" stroke-linejoin="round" stroke-width="1.5px"></path><path class="cls-1" d="M6 20.25H.75" fill="none" stroke="#212121" stroke-linecap="round" stroke-linejoin="round" stroke-width="1.5px"></path></g></svg>