<svg xmlns="http://www.w3.org/2000/svg" width="24" height="24" viewBox="0 0 24 24"><title>real estate favorite hold house</title><g fill="#212121" class="nc-icon-wrapper"><defs></defs><path class="cls-1" d="M7.5 7.732v3.518a1.5 1.5 0 0 0 1.5 1.5h6a1.5 1.5 0 0 0 1.5-1.5V7.732" fill="none" stroke="#212121" stroke-linecap="round" stroke-linejoin="round" stroke-width="1.5px"></path><path class="cls-1" d="M19.5 6.982L13 1.135a1.5 1.5 0 0 0-2.006 0L4.5 6.982" fill="none" stroke="#212121" stroke-linecap="round" stroke-linejoin="round" stroke-width="1.5px"></path><path class="cls-1" d="M18 5.632V1.5" fill="none" stroke="#212121" stroke-linecap="round" stroke-linejoin="round" stroke-width="1.5px"></path><path class="cls-1" d="M3.75 23.25l-2.014-2.517a4.5 4.5 0 0 1-.986-2.812V12.75a1.5 1.5 0 0 1 1.5-1.5 1.5 1.5 0 0 1 1.5 1.5v3.75" fill="none" stroke="#212121" stroke-linecap="round" stroke-linejoin="round" stroke-width="1.5px"></path><path class="cls-1" d="M8.25 23.114v-3a4.493 4.493 0 0 0-.757-2.5L6.351 15.9a1.4 1.4 0 0 0-1.977-.445A1.4 1.4 0 0 0 3.9 17.25l1.35 2.25" fill="none" stroke="#212121" stroke-linecap="round" stroke-linejoin="round" stroke-width="1.5px"></path><path class="cls-1" d="M20.25 23.25l2.014-2.517a4.5 4.5 0 0 0 .986-2.812V12.75a1.5 1.5 0 0 0-1.5-1.5 1.5 1.5 0 0 0-1.5 1.5v3.75" fill="none" stroke="#212121" stroke-linecap="round" stroke-linejoin="round" stroke-width="1.5px"></path><path class="cls-1" d="M15.75 23.114v-3a4.493 4.493 0 0 1 .757-2.5l1.142-1.714a1.4 1.4 0 0 1 1.977-.445 1.4 1.4 0 0 1 .474 1.795l-1.35 2.25" fill="none" stroke="#212121" stroke-linecap="round" stroke-linejoin="round" stroke-width="1.5px"></path></g></svg>