<svg xmlns="http://www.w3.org/2000/svg" width="24" height="24" viewBox="0 0 24 24"><title>real estate action house location</title><g fill="#212121" class="nc-icon-wrapper"><defs></defs><path class="cls-1" d="M9.75 19.5h-4.5a1.5 1.5 0 0 1-1.5-1.5v-7.5" fill="none" stroke="#212121" stroke-linecap="round" stroke-linejoin="round" stroke-width="1.5px"></path><path class="cls-1" d="M.75 9l8.781-7.43a1.5 1.5 0 0 1 1.938 0l7.3 6.177" fill="none" stroke="#212121" stroke-linecap="round" stroke-linejoin="round" stroke-width="1.5px"></path><path class="cls-1" d="M15.75 1.5h3v3" fill="none" stroke="#212121" stroke-linecap="round" stroke-linejoin="round" stroke-width="1.5px"></path><path class="cls-1" d="M10.561 10.745l5.216 11.393a.682.682 0 0 0 1.253-.122l1.527-4.209 4.209-1.527a.682.682 0 0 0 .122-1.253L11.5 9.811a.716.716 0 0 0-.939.934z" fill="none" stroke="#212121" stroke-linecap="round" stroke-linejoin="round" stroke-width="1.5px"></path></g></svg>