<svg xmlns="http://www.w3.org/2000/svg" width="24" height="24" viewBox="0 0 24 24"><title>real estate app house laptop 1</title><g fill="#212121" class="nc-icon-wrapper"><defs></defs><path class="cls-1" d="M2.25 14.25V3.75a1.5 1.5 0 0 1 1.5-1.5h16.5a1.5 1.5 0 0 1 1.5 1.5v10.5" fill="none" stroke="#212121" stroke-linecap="round" stroke-linejoin="round" stroke-width="1.5px"></path><path class="cls-1" d="M14.584 17.25a2.976 2.976 0 0 1-5.168 0H.75v1.5a3 3 0 0 0 3 3h16.5a3 3 0 0 0 3-3v-1.5z" fill="none" stroke="#212121" stroke-linecap="round" stroke-linejoin="round" stroke-width="1.5px"></path><path class="cls-1" d="M15 8.5v4.25a.75.75 0 0 1-.75.75h-4.5a.75.75 0 0 1-.75-.75V8.5" fill="none" stroke="#212121" stroke-linecap="round" stroke-linejoin="round" stroke-width="1.5px"></path><path class="cls-1" d="M7.5 9.75L12 6l4.5 3.75" fill="none" stroke="#212121" stroke-linecap="round" stroke-linejoin="round" stroke-width="1.5px"></path></g></svg>