<svg xmlns="http://www.w3.org/2000/svg" width="24" height="24" viewBox="0 0 24 24"><title>real estate favorite hold building</title><g fill="#212121" class="nc-icon-wrapper"><defs></defs><path class="cls-1" d="M3.75 22.5l-2.014-2.517a4.5 4.5 0 0 1-.986-2.812V12a1.5 1.5 0 0 1 1.5-1.5 1.5 1.5 0 0 1 1.5 1.5v3.75" fill="none" stroke="#212121" stroke-linecap="round" stroke-linejoin="round" stroke-width="1.5px"></path><path class="cls-1" d="M8.25 22.364v-3a4.493 4.493 0 0 0-.757-2.5l-1.142-1.71a1.4 1.4 0 0 0-1.977-.445A1.4 1.4 0 0 0 3.9 16.5l1.35 2.25" fill="none" stroke="#212121" stroke-linecap="round" stroke-linejoin="round" stroke-width="1.5px"></path><path class="cls-1" d="M20.25 22.5l2.014-2.517a4.5 4.5 0 0 0 .986-2.812V12a1.5 1.5 0 0 0-1.5-1.5 1.5 1.5 0 0 0-1.5 1.5v3.75" fill="none" stroke="#212121" stroke-linecap="round" stroke-linejoin="round" stroke-width="1.5px"></path><path class="cls-1" d="M15.75 22.364v-3a4.493 4.493 0 0 1 .757-2.5l1.142-1.712a1.4 1.4 0 0 1 1.977-.445A1.4 1.4 0 0 1 20.1 16.5l-1.35 2.25" fill="none" stroke="#212121" stroke-linecap="round" stroke-linejoin="round" stroke-width="1.5px"></path><path class="cls-1" d="M8.25 12h7.5V2.25A.75.75 0 0 0 15 1.5H9a.75.75 0 0 0-.75.75z" fill="none" stroke="#212121" stroke-linecap="round" stroke-linejoin="round" stroke-width="1.5px"></path><path class="cls-1" d="M12 4.5h3.75" fill="none" stroke="#212121" stroke-linecap="round" stroke-linejoin="round" stroke-width="1.5px"></path><path class="cls-1" d="M12 7.5h3.75" fill="none" stroke="#212121" stroke-linecap="round" stroke-linejoin="round" stroke-width="1.5px"></path><path class="cls-1" d="M17.25 12h-1.5" fill="none" stroke="#212121" stroke-linecap="round" stroke-linejoin="round" stroke-width="1.5px"></path><path class="cls-1" d="M8.25 12h-1.5" fill="none" stroke="#212121" stroke-linecap="round" stroke-linejoin="round" stroke-width="1.5px"></path></g></svg>