<svg xmlns="http://www.w3.org/2000/svg" width="24" height="24" viewBox="0 0 24 24"><title>real estate message buy building</title><g fill="#212121" class="nc-icon-wrapper"><defs></defs><path class="cls-1" d="M10.5 18v4.5a.75.75 0 0 1-.75.75H1.5a.75.75 0 0 1-.75-.75V2.251a.75.75 0 0 1 1.013-.7L7.5 4.517" fill="none" stroke="#212121" stroke-linecap="round" stroke-linejoin="round" stroke-width="1.5px"></path><path class="cls-1" d="M3 6.001H.75" fill="none" stroke="#212121" stroke-linecap="round" stroke-linejoin="round" stroke-width="1.5px"></path><path class="cls-1" d="M4.5 9.001H.75" fill="none" stroke="#212121" stroke-linecap="round" stroke-linejoin="round" stroke-width="1.5px"></path><path class="cls-1" d="M6.75 4.129V1.501" fill="none" stroke="#212121" stroke-linecap="round" stroke-linejoin="round" stroke-width="1.5px"></path><path class="cls-1" d="M16.25.75a6.989 6.989 0 0 0-5.944 10.683L8.25 15.75l4.317-2.056A7 7 0 1 0 16.25.75z" fill="none" stroke="#212121" stroke-linecap="round" stroke-linejoin="round" stroke-width="1.5px"></path><path class="cls-1" d="M17.625 4.5h-2.033a1.342 1.342 0 0 0-.5 2.587l2.064.826a1.342 1.342 0 0 1-.5 2.587h-2.031" fill="none" stroke="#212121" stroke-linecap="round" stroke-linejoin="round" stroke-width="1.5px"></path><path class="cls-1" d="M16.125 4.5v-.75" fill="none" stroke="#212121" stroke-linecap="round" stroke-linejoin="round" stroke-width="1.5px"></path><path class="cls-1" d="M16.125 11.25v-.75" fill="none" stroke="#212121" stroke-linecap="round" stroke-linejoin="round" stroke-width="1.5px"></path></g></svg>