<svg xmlns="http://www.w3.org/2000/svg" width="24" height="24" viewBox="0 0 24 24"><title>real estate deal shake building</title><g fill="#212121" class="nc-icon-wrapper"><defs></defs><path class="cls-1" d="M19.167 19.453l-5.239 1.048" fill="none" stroke="#212121" stroke-linecap="round" stroke-linejoin="round" stroke-width="1.5px"></path><path class="cls-1" d="M14.5 14.583L12.028 15.6a1.6 1.6 0 0 1-1.309-2.916l2.47-1.2a2.215 2.215 0 0 1 1.745-.1l4.509 1.726" fill="none" stroke="#212121" stroke-linecap="round" stroke-linejoin="round" stroke-width="1.5px"></path><path class="cls-1" d="M4.5 20.583h1.865l3.106 2.362a.911.911 0 0 0 1.258.1L15.39 19.3a.912.912 0 0 0 .141-1.266l-2.563-2.823" fill="none" stroke="#212121" stroke-linecap="round" stroke-linejoin="round" stroke-width="1.5px"></path><path class="cls-1" d="M10.514 12.817l-.334-.275a1.957 1.957 0 0 0-1.887-.242L4.5 13.917" fill="none" stroke="#212121" stroke-linecap="round" stroke-linejoin="round" stroke-width="1.5px"></path><path class="cls-1" d="M1.167 21.917h2A1.333 1.333 0 0 0 4.5 20.583v-6.666a1.333 1.333 0 0 0-1.333-1.334h-2" fill="none" stroke="#212121" stroke-linecap="round" stroke-linejoin="round" stroke-width="1.5px"></path><path class="cls-1" d="M22.5 21.917h-2a1.333 1.333 0 0 1-1.333-1.334v-6.666a1.333 1.333 0 0 1 1.333-1.334h2" fill="none" stroke="#212121" stroke-linecap="round" stroke-linejoin="round" stroke-width="1.5px"></path><path class="cls-1" d="M3.583 9.75V1.5A.751.751 0 0 1 4.6.8l8.25 4.27a.751.751 0 0 1 .486.7V9" fill="none" stroke="#212121" stroke-linecap="round" stroke-linejoin="round" stroke-width="1.5px"></path><path class="cls-1" d="M5.833 5.251h-2.25" fill="none" stroke="#212121" stroke-linecap="round" stroke-linejoin="round" stroke-width="1.5px"></path><path class="cls-1" d="M7.333 8.251h-3.75" fill="none" stroke="#212121" stroke-linecap="round" stroke-linejoin="round" stroke-width="1.5px"></path><path class="cls-1" d="M9.583 3.379V.751" fill="none" stroke="#212121" stroke-linecap="round" stroke-linejoin="round" stroke-width="1.5px"></path><path class="cls-1" d="M13.333 6.75h6a1.5 1.5 0 0 1 1.5 1.5V9" fill="none" stroke="#212121" stroke-linecap="round" stroke-linejoin="round" stroke-width="1.5px"></path></g></svg>