<svg xmlns="http://www.w3.org/2000/svg" width="24" height="24" viewBox="0 0 24 24"><title>real estate settings house 2</title><g fill="#212121" class="nc-icon-wrapper"><defs></defs><path class="cls-1" d="M21.562 10.046a1.959 1.959 0 0 0 0 2.908l1.042.94a1.959 1.959 0 0 1-1.413 3.411l-1.4-.072a1.96 1.96 0 0 0-2.057 2.057l.072 1.4a1.959 1.959 0 0 1-3.412 1.41l-.94-1.042a1.959 1.959 0 0 0-2.908 0l-.94 1.042A1.959 1.959 0 0 1 6.2 20.691l.072-1.4a1.958 1.958 0 0 0-2.062-2.058l-1.4.072a1.959 1.959 0 0 1-1.41-3.411l1.042-.94a1.959 1.959 0 0 0 0-2.908" fill="none" stroke="#212121" stroke-linecap="round" stroke-linejoin="round" stroke-width="1.5px"></path><path class="cls-1" d="M15.675 12.25a3.751 3.751 0 0 1-7.35 0" fill="none" stroke="#212121" stroke-linecap="round" stroke-linejoin="round" stroke-width="1.5px"></path><path class="cls-1" d="M15 3.5v5a.75.75 0 0 1-.75.75h-4.5A.75.75 0 0 1 9 8.5v-5" fill="none" stroke="#212121" stroke-linecap="round" stroke-linejoin="round" stroke-width="1.5px"></path><path class="cls-1" d="M7.5 4.75L12 1l4.5 3.75" fill="none" stroke="#212121" stroke-linecap="round" stroke-linejoin="round" stroke-width="1.5px"></path></g></svg>