<svg xmlns="http://www.w3.org/2000/svg" width="24" height="24" viewBox="0 0 24 24"><title>real estate sign house sold</title><g fill="#212121" class="nc-icon-wrapper"><defs></defs><path class="cls-1" d="M3.75 13.75v-3" fill="none" stroke="#212121" stroke-linecap="round" stroke-linejoin="round" stroke-width="1.5px"></path><path class="cls-1" d="M17.25 10.75v3" fill="none" stroke="#212121" stroke-linecap="round" stroke-linejoin="round" stroke-width="1.5px"></path><path class="cls-1" d="M.75 9.25L10.5 1l9.75 8.25" fill="none" stroke="#212121" stroke-linecap="round" stroke-linejoin="round" stroke-width="1.5px"></path><path class="cls-1" d="M15.75 1.75h3v3" fill="none" stroke="#212121" stroke-linecap="round" stroke-linejoin="round" stroke-width="1.5px"></path><path class="cls-1" d="M9.75 16.75a1.5 1.5 0 0 0-1.5 1.5v3a1.5 1.5 0 0 0 3 0v-3a1.5 1.5 0 0 0-1.5-1.5z" fill="none" stroke="#212121" stroke-linecap="round" stroke-linejoin="round" stroke-width="1.5px"></path><path class="cls-1" d="M14.25 16.75v4.5a1.5 1.5 0 0 0 1.5 1.5h1.5" fill="none" stroke="#212121" stroke-linecap="round" stroke-linejoin="round" stroke-width="1.5px"></path><path class="cls-1" d="M5.25 16.75h-1.5a1.375 1.375 0 0 0-1.5 1.2c0 1.8 3 1.8 3 3.6a1.375 1.375 0 0 1-1.5 1.2h-1.5" fill="none" stroke="#212121" stroke-linecap="round" stroke-linejoin="round" stroke-width="1.5px"></path><path class="cls-1" d="M20.25 22.75a2.751 2.751 0 0 0 3-2.4v-1.2a2.751 2.751 0 0 0-3-2.4z" fill="none" stroke="#212121" stroke-linecap="round" stroke-linejoin="round" stroke-width="1.5px"></path></g></svg>