<svg xmlns="http://www.w3.org/2000/svg" width="24" height="24" viewBox="0 0 24 24"><title>real estate favorite house choose</title><g fill="#212121" class="nc-icon-wrapper"><defs></defs><path class="cls-1" d="M12.628 23.25l-2.737-3.078a1.541 1.541 0 0 1 2.3-2.048l1.917 2.157v-8.909a1.485 1.485 0 0 1 2.97 0v6.682h1.485a4.453 4.453 0 0 1 4.453 4.453v.743" fill="none" stroke="#212121" stroke-linecap="round" stroke-linejoin="round" stroke-width="1.5px"></path><path class="cls-1" d="M3.719 8.4v4.454A1.485 1.485 0 0 0 5.2 14.342h5.939" fill="none" stroke="#212121" stroke-linecap="round" stroke-linejoin="round" stroke-width="1.5px"></path><path class="cls-1" d="M15.6 6.918L9.167 1.131a1.486 1.486 0 0 0-1.987 0L.75 6.918" fill="none" stroke="#212121" stroke-linecap="round" stroke-linejoin="round" stroke-width="1.5px"></path><path class="cls-1" d="M14.112 5.582v-3.86" fill="none" stroke="#212121" stroke-linecap="round" stroke-linejoin="round" stroke-width="1.5px"></path></g></svg>