<svg xmlns="http://www.w3.org/2000/svg" width="24" height="24" viewBox="0 0 24 24"><title>receipt slip</title><g fill="#212121" class="nc-icon-wrapper"><defs></defs><path class="a" d="M16.5 23.25a2.605 2.605 0 0 1 4.5 0" fill="none" stroke="#212121" stroke-linecap="round" stroke-linejoin="round" stroke-width="1.5px"></path><path class="a" d="M12 23.25a2.605 2.605 0 0 1 4.5 0" fill="none" stroke="#212121" stroke-linecap="round" stroke-linejoin="round" stroke-width="1.5px"></path><path class="a" d="M21 23.25V.75a2.614 2.614 0 0 1-2.25 1.293A2.613 2.613 0 0 1 16.5.75a2.614 2.614 0 0 1-2.25 1.293A2.613 2.613 0 0 1 12 .75a2.614 2.614 0 0 1-2.25 1.293A2.613 2.613 0 0 1 7.5.75a2.614 2.614 0 0 1-2.25 1.293A2.613 2.613 0 0 1 3 .75v22.5a2.605 2.605 0 0 1 4.5 0 2.605 2.605 0 0 1 4.5 0" fill="none" stroke="#212121" stroke-linecap="round" stroke-linejoin="round" stroke-width="1.5px"></path><path class="a" d="M6 6.75h6" fill="none" stroke="#212121" stroke-linecap="round" stroke-linejoin="round" stroke-width="1.5px"></path><path class="a" d="M6 11.25h6" fill="none" stroke="#212121" stroke-linecap="round" stroke-linejoin="round" stroke-width="1.5px"></path><path class="a" d="M6 15.75h6" fill="none" stroke="#212121" stroke-linecap="round" stroke-linejoin="round" stroke-width="1.5px"></path><path class="a" d="M16.5 6.75H18" fill="none" stroke="#212121" stroke-linecap="round" stroke-linejoin="round" stroke-width="1.5px"></path><path class="a" d="M16.5 11.25H18" fill="none" stroke="#212121" stroke-linecap="round" stroke-linejoin="round" stroke-width="1.5px"></path><path class="a" d="M16.5 15.75H18" fill="none" stroke="#212121" stroke-linecap="round" stroke-linejoin="round" stroke-width="1.5px"></path></g></svg>