<svg xmlns="http://www.w3.org/2000/svg" width="24" height="24" viewBox="0 0 24 24"><title>reflect left</title><g fill="#212121" class="nc-icon-wrapper"><defs></defs><path class="a" d="M7.72 17.03l-4.94 4.94a.75.75 0 0 1-1.28-.531v-9.878a.75.75 0 0 1 1.28-.531l4.94 4.94a.749.749 0 0 1 0 1.06z" fill="none" stroke="#212121" stroke-linecap="round" stroke-linejoin="round" stroke-width="1.5px"></path><path class="a" d="M16.28 17.03l4.94 4.94a.75.75 0 0 0 1.28-.531v-9.878a.75.75 0 0 0-1.28-.531l-4.94 4.94a.749.749 0 0 0 0 1.06z" fill="none" stroke="#212121" stroke-linecap="round" stroke-linejoin="round" stroke-width="1.5px"></path><path class="a" d="M12 23.25V9.75" fill="none" stroke="#212121" stroke-linecap="round" stroke-linejoin="round" stroke-width="1.5px"></path><path class="a" d="M3 1.5l.697 5.257 5.257-.697" fill="none" stroke="#212121" stroke-linecap="round" stroke-linejoin="round" stroke-width="1.5px"></path><path class="a" d="M19.349 6.75a7.5 7.5 0 0 0-14.672-.122" fill="none" stroke="#212121" stroke-linecap="round" stroke-linejoin="round" stroke-width="1.5px"></path></g></svg>