<svg xmlns="http://www.w3.org/2000/svg" width="24" height="24" viewBox="0 0 24 24"><title>reflect down</title><g fill="#212121" class="nc-icon-wrapper"><defs></defs><path class="a" d="M6.97 17.029l-4.94 4.939a.75.75 0 0 0 .531 1.28h9.878a.75.75 0 0 0 .531-1.28l-4.94-4.939a.749.749 0 0 0-1.06 0z" fill="none" stroke="#212121" stroke-linecap="round" stroke-linejoin="round" stroke-width="1.5px"></path><path class="a" d="M6.97 6.968L2.03 2.029A.751.751 0 0 1 2.561.748h9.878a.751.751 0 0 1 .531 1.281L8.03 6.968a.749.749 0 0 1-1.06 0z" fill="none" stroke="#212121" stroke-linecap="round" stroke-linejoin="round" stroke-width="1.5px"></path><path class="a" d="M.75 11.998h13.5" fill="none" stroke="#212121" stroke-linecap="round" stroke-linejoin="round" stroke-width="1.5px"></path><path class="a" d="M22.5 20.998l-5.257-.697.697-5.257" fill="none" stroke="#212121" stroke-linecap="round" stroke-linejoin="round" stroke-width="1.5px"></path><path class="a" d="M17.25 4.65a7.5 7.5 0 0 1 6 7.348 9.032 9.032 0 0 1-6.007 8.3" fill="none" stroke="#212121" stroke-linecap="round" stroke-linejoin="round" stroke-width="1.5px"></path></g></svg>