<svg xmlns="http://www.w3.org/2000/svg" width="24" height="24" viewBox="0 0 24 24"><title>religion angel</title><g fill="#212121" class="nc-icon-wrapper"><defs></defs><ellipse class="a" cx="12.263" cy="3.375" rx="9" ry="2.625" fill="none" stroke="#212121" stroke-linecap="round" stroke-linejoin="round" stroke-width="1.5px"></ellipse><path class="a" d="M14.513 15.449a1.633 1.633 0 0 1 2.25 0" fill="none" stroke="#212121" stroke-linecap="round" stroke-linejoin="round" stroke-width="1.5px"></path><path class="a" d="M10.013 15.449a1.633 1.633 0 0 0-2.25 0" fill="none" stroke="#212121" stroke-linecap="round" stroke-linejoin="round" stroke-width="1.5px"></path><path class="a" d="M19.726 12.75c-9.161 0-9.713-3.068-9.713-3.068-1.018 3.068-4.5 3.068-4.5 3.068H4.8" fill="none" stroke="#212121" stroke-linecap="round" stroke-linejoin="round" stroke-width="1.5px"></path><path class="a" d="M14.063 18.922a2.537 2.537 0 0 1-3.6 0" fill="none" stroke="#212121" stroke-linecap="round" stroke-linejoin="round" stroke-width="1.5px"></path><path class="a" d="M17.619 8.25a7.475 7.475 0 0 1 2.144 5.25v2.25a7.5 7.5 0 0 1-15 0V13.5a7.475 7.475 0 0 1 2.144-5.25" fill="none" stroke="#212121" stroke-linecap="round" stroke-linejoin="round" stroke-width="1.5px"></path></g></svg>