<svg xmlns="http://www.w3.org/2000/svg" width="24" height="24" viewBox="0 0 24 24"><title>religion cross</title><g fill="#212121" class="nc-icon-wrapper"><defs></defs><path class="a" d="M17.25 11.25v-1.5A.75.75 0 0 0 16.5 9h-2.25a.75.75 0 0 1-.75-.75V6a.75.75 0 0 0-.75-.75h-1.5a.75.75 0 0 0-.75.75v2.25a.75.75 0 0 1-.75.75H7.5a.75.75 0 0 0-.75.75v1.5a.75.75 0 0 0 .75.75h2.25a.75.75 0 0 1 .75.75v6a.75.75 0 0 0 .75.75h1.5a.75.75 0 0 0 .75-.75v-6a.75.75 0 0 1 .75-.75h2.25a.75.75 0 0 0 .75-.75z" fill="none" stroke="#212121" stroke-linecap="round" stroke-linejoin="round" stroke-width="1.5px"></path><path class="a" d="M7.5 4.5L4.5.75" fill="none" stroke="#212121" stroke-linecap="round" stroke-linejoin="round" stroke-width="1.5px"></path><path class="a" d="M.75 7.5L4.5 9" fill="none" stroke="#212121" stroke-linecap="round" stroke-linejoin="round" stroke-width="1.5px"></path><path class="a" d="M.75 17.25L4.5 15" fill="none" stroke="#212121" stroke-linecap="round" stroke-linejoin="round" stroke-width="1.5px"></path><path class="a" d="M7.5 19.5l-3 3.75" fill="none" stroke="#212121" stroke-linecap="round" stroke-linejoin="round" stroke-width="1.5px"></path><path class="a" d="M16.5 4.5l3-3.75" fill="none" stroke="#212121" stroke-linecap="round" stroke-linejoin="round" stroke-width="1.5px"></path><path class="a" d="M23.25 7.5L19.5 9" fill="none" stroke="#212121" stroke-linecap="round" stroke-linejoin="round" stroke-width="1.5px"></path><path class="a" d="M23.25 17.25L19.5 15" fill="none" stroke="#212121" stroke-linecap="round" stroke-linejoin="round" stroke-width="1.5px"></path><path class="a" d="M16.5 19.5l3 3.75" fill="none" stroke="#212121" stroke-linecap="round" stroke-linejoin="round" stroke-width="1.5px"></path></g></svg>