<svg xmlns="http://www.w3.org/2000/svg" width="24" height="24" viewBox="0 0 24 24"><title>religion ankh</title><g fill="#212121" class="nc-icon-wrapper"><defs></defs><path class="a" d="M21.75 11.25a1.5 1.5 0 0 0-1.5-1.5H16.5A32.437 32.437 0 0 0 17.25 6a5.25 5.25 0 0 0-10.5 0 32.437 32.437 0 0 0 .75 3.75H3.75a1.5 1.5 0 0 0-1.5 1.5v1.5a1.5 1.5 0 0 0 1.5 1.5h4.5a1.5 1.5 0 0 1 1.5 1.5v6a1.5 1.5 0 0 0 1.5 1.5h1.5a1.5 1.5 0 0 0 1.5-1.5v-6a1.5 1.5 0 0 1 1.5-1.5h4.5a1.5 1.5 0 0 0 1.5-1.5z" fill="none" stroke="#212121" stroke-linecap="round" stroke-linejoin="round" stroke-width="1.5px"></path><path class="a" d="M14.25 6c0 1.243-2.25 3.75-2.25 3.75S9.75 7.243 9.75 6a2.25 2.25 0 0 1 4.5 0z" fill="none" stroke="#212121" stroke-linecap="round" stroke-linejoin="round" stroke-width="1.5px"></path></g></svg>