<svg xmlns="http://www.w3.org/2000/svg" width="24" height="24" viewBox="0 0 24 24"><title>religion devil</title><g fill="#212121" class="nc-icon-wrapper"><defs></defs><path class="a" d="M23.25 13.5l-1.5-1.5-1.5 1.5" fill="none" stroke="#212121" stroke-linecap="round" stroke-linejoin="round" stroke-width="1.5px"></path><circle class="a" cx="13.5" cy="7.5" r="3.75" fill="none" stroke="#212121" stroke-linecap="round" stroke-linejoin="round" stroke-width="1.5px"></circle><path class="a" d="M.75 6.75v4.5a1.5 1.5 0 0 0 1.5 1.5h3a1.5 1.5 0 0 0 1.5-1.5v-4.5" fill="none" stroke="#212121" stroke-linecap="round" stroke-linejoin="round" stroke-width="1.5px"></path><path class="a" d="M3.75 5.25v18" fill="none" stroke="#212121" stroke-linecap="round" stroke-linejoin="round" stroke-width="1.5px"></path><path class="a" d="M16.1 20.25h2.65a3 3 0 0 0 3-3V12" fill="none" stroke="#212121" stroke-linecap="round" stroke-linejoin="round" stroke-width="1.5px"></path><path class="a" d="M15.75 10.5h.563a1.5 1.5 0 0 1 1.49 1.675l-2.053 9.75a1.5 1.5 0 0 1-1.49 1.325h-1.52a1.5 1.5 0 0 1-1.49-1.325l-2.05-9.75a1.5 1.5 0 0 1 1.49-1.675h.563" fill="none" stroke="#212121" stroke-linecap="round" stroke-linejoin="round" stroke-width="1.5px"></path><path class="a" d="M9 .75a3.106 3.106 0 0 0 1.223 3.566l.789.379" fill="none" stroke="#212121" stroke-linecap="round" stroke-linejoin="round" stroke-width="1.5px"></path><path class="a" d="M18 .75a3.106 3.106 0 0 1-1.223 3.566l-.7.463" fill="none" stroke="#212121" stroke-linecap="round" stroke-linejoin="round" stroke-width="1.5px"></path></g></svg>