<svg xmlns="http://www.w3.org/2000/svg" width="24" height="24" viewBox="0 0 24 24"><title>renewable energy water dam 1</title><g fill="#212121" class="nc-icon-wrapper"><defs></defs><path class="cls-1" d="M23.25 23.139A4.383 4.383 0 0 1 21 21.75a3.964 3.964 0 0 1-3 1.5v-.027a4.188 4.188 0 0 1-3-1.473 3.964 3.964 0 0 1-3 1.5v-.027a4.188 4.188 0 0 1-3-1.473 3.964 3.964 0 0 1-3 1.5v-.027a4.188 4.188 0 0 1-3-1.473 4.07 4.07 0 0 1-2.25 1.419" fill="none" stroke="#212121" stroke-linecap="round" stroke-linejoin="round" stroke-width="1.5px"></path><path class="cls-1" d="M2.25.75l2.083 1.389A5.426 5.426 0 0 1 6.75 6.654V12.4a5.425 5.425 0 0 0 3 4.854" fill="none" stroke="#212121" stroke-linecap="round" stroke-linejoin="round" stroke-width="1.5px"></path><path class="cls-1" d="M8.25.75l2.083 1.389a5.426 5.426 0 0 1 2.417 4.515V12.4a5.425 5.425 0 0 0 3 4.854" fill="none" stroke="#212121" stroke-linecap="round" stroke-linejoin="round" stroke-width="1.5px"></path><path class="cls-1" d="M14.25.75l2.083 1.389a5.426 5.426 0 0 1 2.417 4.515V12.4a5.425 5.425 0 0 0 3 4.854" fill="none" stroke="#212121" stroke-linecap="round" stroke-linejoin="round" stroke-width="1.5px"></path></g></svg>