<svg xmlns="http://www.w3.org/2000/svg" width="24" height="24" viewBox="0 0 24 24"><title>renewable energy solar monitor</title><g fill="#212121" class="nc-icon-wrapper"><defs></defs><path class="cls-1" d="M13.5 12.75a.75.75 0 0 0-.75-.75H1.5a.75.75 0 0 0-.75.75v9.75a.75.75 0 0 0 .75.75h1.709a.751.751 0 0 0 .712-.513l.408-1.224A.751.751 0 0 1 5.041 21h4.168a.751.751 0 0 1 .712.513l.408 1.224a.751.751 0 0 0 .712.513h1.709a.75.75 0 0 0 .75-.75z" fill="none" stroke="#212121" stroke-linecap="round" stroke-linejoin="round" stroke-width="1.5px"></path><path class="cls-1" d="M3 12l.75 3h6.75l.75-3" fill="none" stroke="#212121" stroke-linecap="round" stroke-linejoin="round" stroke-width="1.5px"></path><path class="cls-1" d="M5.25 18H9" fill="none" stroke="#212121" stroke-linecap="round" stroke-linejoin="round" stroke-width="1.5px"></path><path class="cls-1" d="M18.75 14.25v3a1.5 1.5 0 0 1-1.5 1.5H13.5" fill="none" stroke="#212121" stroke-linecap="round" stroke-linejoin="round" stroke-width="1.5px"></path><rect class="cls-1" x="12.75" y=".75" width="10.5" height="7.5" rx="1.5" ry="1.5" fill="none" stroke="#212121" stroke-linecap="round" stroke-linejoin="round" stroke-width="1.5px"></rect><path class="cls-1" d="M18 8.25v3" fill="none" stroke="#212121" stroke-linecap="round" stroke-linejoin="round" stroke-width="1.5px"></path><path class="cls-1" d="M15.75 11.25h4.5" fill="none" stroke="#212121" stroke-linecap="round" stroke-linejoin="round" stroke-width="1.5px"></path></g></svg>