<svg xmlns="http://www.w3.org/2000/svg" width="24" height="24" viewBox="0 0 24 24"><title>renewable energy battery charge</title><g fill="#212121" class="nc-icon-wrapper"><defs></defs><path class="cls-1" d="M14.25 8.25v-1.5h-4.5v1.5H9a.75.75 0 0 0-.75.75v7.5a.75.75 0 0 0 .75.75h6a.75.75 0 0 0 .75-.75V9a.75.75 0 0 0-.75-.75z" fill="none" stroke="#212121" stroke-linecap="round" stroke-linejoin="round" stroke-width="1.5px"></path><path class="cls-1" d="M20.25 18.75a3 3 0 0 1-3 3H6.75a3 3 0 0 1-3-3V9" fill="none" stroke="#212121" stroke-linecap="round" stroke-linejoin="round" stroke-width="1.5px"></path><path class="cls-1" d="M3.75 5.25a3 3 0 0 1 3-3h10.5a3 3 0 0 1 3 3V15" fill="none" stroke="#212121" stroke-linecap="round" stroke-linejoin="round" stroke-width="1.5px"></path><path class="cls-1" d="M22.5 12.75L20.25 15 18 12.75" fill="none" stroke="#212121" stroke-linecap="round" stroke-linejoin="round" stroke-width="1.5px"></path><path class="cls-1" d="M1.5 11.25L3.75 9 6 11.25" fill="none" stroke="#212121" stroke-linecap="round" stroke-linejoin="round" stroke-width="1.5px"></path></g></svg>