<svg xmlns="http://www.w3.org/2000/svg" width="24" height="24" viewBox="0 0 24 24"><title>reptile cobra</title><g fill="#212121" class="nc-icon-wrapper"><defs></defs><path class="cls-1" d="M14.26 21.75v-6a5.064 5.064 0 0 1 3-4.5c2.25-.75 3.75-2.015 3.75-4.5a4.5 4.5 0 0 0-4.5-4.5H8.26a4.5 4.5 0 0 0-4.5 4.5c0 2.485 1.5 3.75 3.75 4.5a5.064 5.064 0 0 1 3 4.5v3c0 2.25.75 3 3.75 3z" fill="none" stroke="#212121" stroke-linecap="round" stroke-linejoin="round" stroke-width="1.5px"></path><path class="cls-1" d="M14.26 21.75h7.125a1.875 1.875 0 1 0 0-3.75H14.26" fill="none" stroke="#212121" stroke-linecap="round" stroke-linejoin="round" stroke-width="1.5px"></path><path class="cls-1" d="M10.51 18H2.635a1.875 1.875 0 1 0 0 3.75H7.51" fill="none" stroke="#212121" stroke-linecap="round" stroke-linejoin="round" stroke-width="1.5px"></path><path class="cls-1" d="M8.26 2.25l4.125 4.5 4.125-4.5H8.26z" fill="none" stroke="#212121" stroke-linecap="round" stroke-linejoin="round" stroke-width="1.5px"></path><path class="cls-1" d="M12.385 6.75v1.5" fill="none" stroke="#212121" stroke-linecap="round" stroke-linejoin="round" stroke-width="1.5px"></path><path class="cls-1" d="M10.735 9.75l1.65-1.5 1.65 1.5" fill="none" stroke="#212121" stroke-linecap="round" stroke-linejoin="round" stroke-width="1.5px"></path></g></svg>