<svg xmlns="http://www.w3.org/2000/svg" width="24" height="24" viewBox="0 0 24 24"><title>restaurant seat</title><g fill="#212121" class="nc-icon-wrapper"><defs></defs><circle class="cls-1" cx="3.75" cy="3.563" r="2.625" fill="none" stroke="#212121" stroke-linecap="round" stroke-linejoin="round" stroke-width="1.5px"></circle><path class="cls-1" d="M8.25 23.063a1.5 1.5 0 0 1-1.5-1.5v-3h-3a3 3 0 0 1-3-3v-6a1.5 1.5 0 0 1 2.4-1.2c.025.017 2.652 1.95 5.1 1.95a1.5 1.5 0 0 1 0 3 10.823 10.823 0 0 1-4.5-1.143v3.393h3a3 3 0 0 1 3 3v3a1.5 1.5 0 0 1-1.5 1.5z" fill="none" stroke="#212121" stroke-linecap="round" stroke-linejoin="round" stroke-width="1.5px"></path><path class="cls-1" d="M3.75 21.563h-3" fill="none" stroke="#212121" stroke-linecap="round" stroke-linejoin="round" stroke-width="1.5px"></path><path class="cls-1" d="M23.25 12.563h-9a1.5 1.5 0 0 0 0 3h9" fill="none" stroke="#212121" stroke-linecap="round" stroke-linejoin="round" stroke-width="1.5px"></path><path class="cls-1" d="M20.25 15.563v7.5" fill="none" stroke="#212121" stroke-linecap="round" stroke-linejoin="round" stroke-width="1.5px"></path><path class="cls-1" d="M19.5 8.063H15l.75 4.5h3l.75-4.5z" fill="none" stroke="#212121" stroke-linecap="round" stroke-linejoin="round" stroke-width="1.5px"></path></g></svg>