<svg xmlns="http://www.w3.org/2000/svg" width="24" height="24" viewBox="0 0 24 24"><title>road sign cattle</title><g fill="#212121" class="nc-icon-wrapper"><defs></defs><rect class="a" x="3.779" y="3.78" width="16.441" height="16.441" rx=".907" ry=".907" transform="rotate(-45.002 12 12)" fill="none" stroke="#212121" stroke-linecap="round" stroke-linejoin="round" stroke-width="1.5px"></rect><path class="a" d="M10.378 11.25a1.5 1.5 0 0 0-1.413 2l1.274 3.571A1.5 1.5 0 0 0 11.7 18h.6a1.5 1.5 0 0 0 1.464-1.175l1.274-3.571a1.5 1.5 0 0 0-1.413-2z" fill="none" stroke="#212121" stroke-linecap="round" stroke-linejoin="round" stroke-width="1.5px"></path><path class="a" d="M14.848 11.886l1.652.864" fill="none" stroke="#212121" stroke-linecap="round" stroke-linejoin="round" stroke-width="1.5px"></path><path class="a" d="M9.152 11.886L7.5 12.75" fill="none" stroke="#212121" stroke-linecap="round" stroke-linejoin="round" stroke-width="1.5px"></path><path class="a" d="M17.156 9a3 3 0 0 1-2.906 2.25h-.75" fill="none" stroke="#212121" stroke-linecap="round" stroke-linejoin="round" stroke-width="1.5px"></path><path class="a" d="M6.809 9a3 3 0 0 0 2.906 2.25h.75" fill="none" stroke="#212121" stroke-linecap="round" stroke-linejoin="round" stroke-width="1.5px"></path></g></svg>