<svg xmlns="http://www.w3.org/2000/svg" width="24" height="24" viewBox="0 0 24 24"><title>robot 1</title><g fill="#212121" class="nc-icon-wrapper"><defs></defs><circle class="a" cx="12" cy="11.052" r="8.25" fill="none" stroke="#212121" stroke-linecap="round" stroke-linejoin="round" stroke-width="1.5px"></circle><path class="a" d="M19.707 14a2.948 2.948 0 0 0 .543.05 3 3 0 0 0 0-6 3.038 3.038 0 0 0-.543.05" fill="none" stroke="#212121" stroke-linecap="round" stroke-linejoin="round" stroke-width="1.5px"></path><path class="a" d="M18.408 5.853a3.042 3.042 0 0 0 .315-.445 3 3 0 0 0-5.2-3 2.914 2.914 0 0 0-.228.5" fill="none" stroke="#212121" stroke-linecap="round" stroke-linejoin="round" stroke-width="1.5px"></path><path class="a" d="M10.7 2.9a2.919 2.919 0 0 0-.229-.5 3 3 0 0 0-5.2 3 3.042 3.042 0 0 0 .315.445" fill="none" stroke="#212121" stroke-linecap="round" stroke-linejoin="round" stroke-width="1.5px"></path><path class="a" d="M4.294 8.1a3.049 3.049 0 0 0-.544-.05 3 3 0 0 0 0 6 2.959 2.959 0 0 0 .544-.05" fill="none" stroke="#212121" stroke-linecap="round" stroke-linejoin="round" stroke-width="1.5px"></path><path class="a" d="M5.592 16.251a3.051 3.051 0 0 0-.315.446A3 3 0 1 0 10.7 19.2" fill="none" stroke="#212121" stroke-linecap="round" stroke-linejoin="round" stroke-width="1.5px"></path><path class="a" d="M13.3 19.2a3 3 0 1 0 5.424-2.5 3.051 3.051 0 0 0-.315-.446" fill="none" stroke="#212121" stroke-linecap="round" stroke-linejoin="round" stroke-width="1.5px"></path><path class="a" d="M12 19.302v3.75" fill="none" stroke="#212121" stroke-linecap="round" stroke-linejoin="round" stroke-width="1.5px"></path><circle class="a" cx="9" cy="11.052" r="2.25" fill="none" stroke="#212121" stroke-linecap="round" stroke-linejoin="round" stroke-width="1.5px"></circle><circle class="a" cx="15" cy="11.052" r="2.25" fill="none" stroke="#212121" stroke-linecap="round" stroke-linejoin="round" stroke-width="1.5px"></circle></g></svg>