<svg xmlns="http://www.w3.org/2000/svg" width="24" height="24" viewBox="0 0 24 24"><title>room service staff</title><g fill="#212121" class="nc-icon-wrapper"><defs></defs><path class="a" d="M17.625 3.754a3 3 0 0 1-6 0v-3h6z" fill="none" stroke="#212121" stroke-linecap="round" stroke-linejoin="round" stroke-width="1.5px"></path><path class="a" d="M14.625 17.254v4.5" fill="none" stroke="#212121" stroke-linecap="round" stroke-linejoin="round" stroke-width="1.5px"></path><path class="a" d="M17.632 12l-.007 9.75a1.5 1.5 0 1 1-3 0 1.5 1.5 0 1 1-3 0V12" fill="none" stroke="#212121" stroke-linecap="round" stroke-linejoin="round" stroke-width="1.5px"></path><path class="a" d="M17.625 17.254a3 3 0 0 0 3-3v-3a3 3 0 0 0-3-3h-6a3 3 0 0 0-3 3 1.5 1.5 0 0 1-1.5 1.5h-2.25a1.5 1.5 0 1 0 0 3h3.75" fill="none" stroke="#212121" stroke-linecap="round" stroke-linejoin="round" stroke-width="1.5px"></path><path class="a" d="M11.625 3.754h6" fill="none" stroke="#212121" stroke-linecap="round" stroke-linejoin="round" stroke-width="1.5px"></path></g></svg>