<svg xmlns="http://www.w3.org/2000/svg" width="24" height="24" viewBox="0 0 24 24"><title>room service bring plate</title><g fill="#212121" class="nc-icon-wrapper"><defs></defs><path class="a" d="M3.75 11.579a9 9 0 0 1 18 0z" fill="none" stroke="#212121" stroke-linecap="round" stroke-linejoin="round" stroke-width="1.5px"></path><path class="a" d="M2.25 11.579h21" fill="none" stroke="#212121" stroke-linecap="round" stroke-linejoin="round" stroke-width="1.5px"></path><path class="a" d="M12.75 1.079v1.5" fill="none" stroke="#212121" stroke-linecap="round" stroke-linejoin="round" stroke-width="1.5px"></path><path class="a" d="M.75 22.079l3.75-3.65 5.25 4.5 12.062-8.711a1.17 1.17 0 0 0-.083-1.952 4.5 4.5 0 0 0-4.5-.075L14.3 13.816a4.6 4.6 0 0 1-5.434-.769l-.59-.589a3 3 0 0 0-3.46-.558.856.856 0 0 0-.222 1.37l.458.458a4.5 4.5 0 0 1 1.226 4.062l-.372 1.843" fill="none" stroke="#212121" stroke-linecap="round" stroke-linejoin="round" stroke-width="1.5px"></path></g></svg>