<svg xmlns="http://www.w3.org/2000/svg" width="24" height="24" viewBox="0 0 24 24"><title>rooster</title><g fill="#212121" class="nc-icon-wrapper"><defs></defs><path class="cls-1" d="M14.01.762a2.25 2.25 0 0 0-2.25 2.25 2.25 2.25 0 0 0-4.5 0A2.251 2.251 0 0 0 5.01.762a2.1 2.1 0 0 0-2.25 2.25c0 1.5 1.5 3.75 1.5 3.75l.264.4" fill="none" stroke="#212121" stroke-linecap="round" stroke-linejoin="round" stroke-width="1.5px"></path><path class="cls-1" d="M16.26 3.012a2.1 2.1 0 0 0-2.25-2.25" fill="none" stroke="#212121" stroke-linecap="round" stroke-linejoin="round" stroke-width="1.5px"></path><path class="cls-1" d="M14.5 7.159l.265-.4s1.5-2.25 1.5-3.75" fill="none" stroke="#212121" stroke-linecap="round" stroke-linejoin="round" stroke-width="1.5px"></path><path class="cls-1" d="M16.845 11.192l4.031 1.727a.75.75 0 0 1 .076 1.341l-3.942 2.252" fill="none" stroke="#212121" stroke-linecap="round" stroke-linejoin="round" stroke-width="1.5px"></path><path class="cls-1" d="M18.827 15.474l.433.288s2.25 1.5 2.25 3.75-3 3-4.5 1.5" fill="none" stroke="#212121" stroke-linecap="round" stroke-linejoin="round" stroke-width="1.5px"></path><path class="cls-1" d="M13.635 11.262a.375.375 0 0 0-.375.375" fill="none" stroke="#212121" stroke-linecap="round" stroke-linejoin="round" stroke-width="1.5px"></path><path class="cls-1" d="M14.01 11.637a.375.375 0 0 0-.375-.375" fill="none" stroke="#212121" stroke-linecap="round" stroke-linejoin="round" stroke-width="1.5px"></path><path class="cls-1" d="M13.635 12.012a.374.374 0 0 0 .375-.375" fill="none" stroke="#212121" stroke-linecap="round" stroke-linejoin="round" stroke-width="1.5px"></path><path class="cls-1" d="M13.26 11.637a.374.374 0 0 0 .375.375" fill="none" stroke="#212121" stroke-linecap="round" stroke-linejoin="round" stroke-width="1.5px"></path><path class="cls-1" d="M9.51 5.262a7.5 7.5 0 0 0-7.5 7.5v8.625a1.875 1.875 0 0 0 3.75 0 1.875 1.875 0 0 0 3.75 0 1.875 1.875 0 0 0 3.75 0 1.875 1.875 0 0 0 3.75 0v-8.625a7.5 7.5 0 0 0-7.5-7.5z" fill="none" stroke="#212121" stroke-linecap="round" stroke-linejoin="round" stroke-width="1.5px"></path></g></svg>