<svg xmlns="http://www.w3.org/2000/svg" width="24" height="24" viewBox="0 0 24 24"><title>rotate forward</title><g fill="#212121" class="nc-icon-wrapper"><defs></defs><path class="a" d="M11.25 7.5l3-3-3-3" fill="none" stroke="#212121" stroke-linecap="round" stroke-linejoin="round" stroke-width="1.5px"></path><path class="a" d="M20.969 12.75c.02.247.031.5.031.75a8.973 8.973 0 0 1-.284 2.25" fill="none" stroke="#212121" stroke-linecap="round" stroke-linejoin="round" stroke-width="1.5px"></path><path class="a" d="M18.894 7.715a8.968 8.968 0 0 1 1.229 1.906" fill="none" stroke="#212121" stroke-linecap="round" stroke-linejoin="round" stroke-width="1.5px"></path><path class="a" d="M18.872 19.312q-.24.284-.508.552a8.979 8.979 0 0 1-1.792 1.39" fill="none" stroke="#212121" stroke-linecap="round" stroke-linejoin="round" stroke-width="1.5px"></path><path class="a" d="M12.75 22.469c-.247.02-.5.031-.75.031a9 9 0 0 1 0-18h2.25" fill="none" stroke="#212121" stroke-linecap="round" stroke-linejoin="round" stroke-width="1.5px"></path></g></svg>