<svg xmlns="http://www.w3.org/2000/svg" width="24" height="24" viewBox="0 0 24 24"><title>router signal tech</title><g fill="#212121" class="nc-icon-wrapper"><defs></defs><rect class="a" x="2.25" y="18" width="19.5" height="5.25" rx="1.5" ry="1.5" fill="none" stroke="#212121" stroke-linecap="round" stroke-linejoin="round" stroke-width="1.5px"></rect><path class="a" d="M5.25 21h1.3" fill="none" stroke="#212121" stroke-linecap="round" stroke-linejoin="round" stroke-width="1.5px"></path><path class="a" d="M9.2 21h1.3" fill="none" stroke="#212121" stroke-linecap="round" stroke-linejoin="round" stroke-width="1.5px"></path><path class="a" d="M16.687 12.187a8.449 8.449 0 0 0-9.373 0" fill="none" stroke="#212121" stroke-linecap="round" stroke-linejoin="round" stroke-width="1.5px"></path><path class="a" d="M15.245 15a5.853 5.853 0 0 0-6.49 0" fill="none" stroke="#212121" stroke-linecap="round" stroke-linejoin="round" stroke-width="1.5px"></path><path class="a" d="M2.036 7.5h6.428A1.265 1.265 0 0 0 9.75 6.258V1.993A1.265 1.265 0 0 0 8.464.75H2.036A1.265 1.265 0 0 0 .75 1.993v4.265A1.265 1.265 0 0 0 2.036 7.5z" fill="none" stroke="#212121" stroke-linecap="round" stroke-linejoin="round" stroke-width="1.5px"></path><path class="a" d="M5.25 7.5v2.25h-1.5" fill="none" stroke="#212121" stroke-linecap="round" stroke-linejoin="round" stroke-width="1.5px"></path><path class="a" d="M19.5 10.5h2.55a1.164 1.164 0 0 0 1.2-1.125v-7.5A1.164 1.164 0 0 0 22.05.75h-3.6a1.164 1.164 0 0 0-1.2 1.125V8.25" fill="none" stroke="#212121" stroke-linecap="round" stroke-linejoin="round" stroke-width="1.5px"></path><path class="a" d="M17.25 7.5h6" fill="none" stroke="#212121" stroke-linecap="round" stroke-linejoin="round" stroke-width="1.5px"></path></g></svg>