<svg xmlns="http://www.w3.org/2000/svg" width="24" height="24" viewBox="0 0 24 24"><title>safety electricity danger_1</title><g fill="#212121" class="nc-icon-wrapper"><defs></defs><circle class="a" cx="6.008" cy="3.563" r="2.625" fill="none" stroke="#212121" stroke-linecap="round" stroke-linejoin="round" stroke-width="1.5px"></circle><path class="a" d="M3.758 20.813a2.25 2.25 0 1 0 4.5 0v-3.75a1.5 1.5 0 0 0 1.5-1.5v-4.5a3 3 0 0 0-3-3h-1.5a3 3 0 0 0-3 3v4.5a1.5 1.5 0 0 0 1.5 1.5z" fill="none" stroke="#212121" stroke-linecap="round" stroke-linejoin="round" stroke-width="1.5px"></path><path class="a" d="M19.864 5.419a2.639 2.639 0 0 1-1.177.677" fill="none" stroke="#212121" stroke-linecap="round" stroke-linejoin="round" stroke-width="1.5px"></path><path class="a" d="M16.152 5.419a2.639 2.639 0 0 1-.677-1.177" fill="none" stroke="#212121" stroke-linecap="round" stroke-linejoin="round" stroke-width="1.5px"></path><path class="a" d="M16.152 1.707a2.639 2.639 0 0 1 1.177-.677" fill="none" stroke="#212121" stroke-linecap="round" stroke-linejoin="round" stroke-width="1.5px"></path><path class="a" d="M19.864 1.707a2.639 2.639 0 0 1 .677 1.177" fill="none" stroke="#212121" stroke-linecap="round" stroke-linejoin="round" stroke-width="1.5px"></path><path class="a" d="M21.758 13.922v-1.664" fill="none" stroke="#212121" stroke-linecap="round" stroke-linejoin="round" stroke-width="1.5px"></path><path class="a" d="M21.029 9.106a3.032 3.032 0 0 0-1.371-.9" fill="none" stroke="#212121" stroke-linecap="round" stroke-linejoin="round" stroke-width="1.5px"></path><path class="a" d="M16.357 8.2a3.029 3.029 0 0 0-1.37.9" fill="none" stroke="#212121" stroke-linecap="round" stroke-linejoin="round" stroke-width="1.5px"></path><path class="a" d="M14.258 12.258v1.664" fill="none" stroke="#212121" stroke-linecap="round" stroke-linejoin="round" stroke-width="1.5px"></path><path class="a" d="M15.769 21.041a2.262 2.262 0 0 0 .732 1.44" fill="none" stroke="#212121" stroke-linecap="round" stroke-linejoin="round" stroke-width="1.5px"></path><path class="a" d="M19.514 22.481a2.258 2.258 0 0 0 .732-1.44" fill="none" stroke="#212121" stroke-linecap="round" stroke-linejoin="round" stroke-width="1.5px"></path><path class="a" d="M15.038 16.879a1.508 1.508 0 0 0 .72.184v.75" fill="none" stroke="#212121" stroke-linecap="round" stroke-linejoin="round" stroke-width="1.5px"></path><path class="a" d="M20.977 16.879a1.5 1.5 0 0 1-.719.184v.75" fill="none" stroke="#212121" stroke-linecap="round" stroke-linejoin="round" stroke-width="1.5px"></path></g></svg>