<svg xmlns="http://www.w3.org/2000/svg" width="24" height="24" viewBox="0 0 24 24"><title>safety do not touch fire</title><g fill="#212121" class="nc-icon-wrapper"><defs></defs><path class="a" d="M5.25 23.25h10.5" fill="none" stroke="#212121" stroke-linecap="round" stroke-linejoin="round" stroke-width="1.5px"></path><path class="a" d="M6.75 21l-.544-.544a1.109 1.109 0 0 1 .169-1.706 1.109 1.109 0 0 0 .169-1.706L6 16.5" fill="none" stroke="#212121" stroke-linecap="round" stroke-linejoin="round" stroke-width="1.5px"></path><path class="a" d="M10.5 21l-.544-.544a1.109 1.109 0 0 1 .169-1.706 1.109 1.109 0 0 0 .169-1.706L9.75 16.5" fill="none" stroke="#212121" stroke-linecap="round" stroke-linejoin="round" stroke-width="1.5px"></path><path class="a" d="M14.25 21l-.544-.544a1.109 1.109 0 0 1 .169-1.706 1.109 1.109 0 0 0 .169-1.706L13.5 16.5" fill="none" stroke="#212121" stroke-linecap="round" stroke-linejoin="round" stroke-width="1.5px"></path><path class="a" d="M11.131 10.03l-6.5 2.437a1.5 1.5 0 0 1-1.764-2.426L8.156 6.4a5.654 5.654 0 0 1 5.078-.807 1.5 1.5 0 0 0 1.69-.6L18 .75" fill="none" stroke="#212121" stroke-linecap="round" stroke-linejoin="round" stroke-width="1.5px"></path><path class="a" d="M23.25 4.5l-2.794 5.123a6 6 0 0 1-5.268 3.127H12a1.5 1.5 0 0 1 0-3h2.25" fill="none" stroke="#212121" stroke-linecap="round" stroke-linejoin="round" stroke-width="1.5px"></path><path class="a" d="M4.5 4.5L.75.75" fill="none" stroke="#212121" stroke-linecap="round" stroke-linejoin="round" stroke-width="1.5px"></path><path class="a" d="M23.25 23.25l-6-6" fill="none" stroke="#212121" stroke-linecap="round" stroke-linejoin="round" stroke-width="1.5px"></path></g></svg>