<svg xmlns="http://www.w3.org/2000/svg" width="24" height="24" viewBox="0 0 24 24"><title>safety fire alarm</title><g fill="#212121" class="nc-icon-wrapper"><defs></defs><path class="a" d="M17.669 8.25H6.331a1.5 1.5 0 0 1-1.423-1.025L3.75 3.75v-3h16.5v3l-1.158 3.475a1.5 1.5 0 0 1-1.423 1.025z" fill="none" stroke="#212121" stroke-linecap="round" stroke-linejoin="round" stroke-width="1.5px"></path><path class="a" d="M18 8.213v.037c0 2.486-2.686 4.5-6 4.5s-6-2.014-6-4.5v-.037" fill="none" stroke="#212121" stroke-linecap="round" stroke-linejoin="round" stroke-width="1.5px"></path><path class="a" d="M4.25 5.25h15.5" fill="none" stroke="#212121" stroke-linecap="round" stroke-linejoin="round" stroke-width="1.5px"></path><path class="a" d="M6.75 16.5c-1.437 2.873 2.9 3.882.75 6.75" fill="none" stroke="#212121" stroke-linecap="round" stroke-linejoin="round" stroke-width="1.5px"></path><path class="a" d="M11.548 16.5c-1.437 2.873 2.9 3.882.75 6.75" fill="none" stroke="#212121" stroke-linecap="round" stroke-linejoin="round" stroke-width="1.5px"></path><path class="a" d="M16.346 16.5c-1.436 2.873 2.9 3.882.75 6.75" fill="none" stroke="#212121" stroke-linecap="round" stroke-linejoin="round" stroke-width="1.5px"></path><path class="a" d="M9.75 5.25v3" fill="none" stroke="#212121" stroke-linecap="round" stroke-linejoin="round" stroke-width="1.5px"></path><path class="a" d="M14.25 5.25v3" fill="none" stroke="#212121" stroke-linecap="round" stroke-linejoin="round" stroke-width="1.5px"></path></g></svg>