<svg xmlns="http://www.w3.org/2000/svg" width="24" height="24" viewBox="0 0 24 24"><title>safety extinguish fire</title><g fill="#212121" class="nc-icon-wrapper"><defs></defs><path class="a" d="M13.829 3.75h-3.658a1.5 1.5 0 0 1-1.455-1.136L8.25.75h7.5l-.466 1.864a1.5 1.5 0 0 1-1.455 1.136z" fill="none" stroke="#212121" stroke-linecap="round" stroke-linejoin="round" stroke-width="1.5px"></path><path class="a" d="M10.871 13.872a3.739 3.739 0 0 1 .379 4.263A1.332 1.332 0 0 1 9.829 17a3.015 3.015 0 0 0-1.563 2.84 3.41 3.41 0 0 0 3.41 3.41 3.458 3.458 0 0 0 3.411-3.41 5.67 5.67 0 0 0-4.216-5.968z" fill="none" stroke="#212121" stroke-linecap="round" stroke-linejoin="round" stroke-width="1.5px"></path><path class="a" d="M12 6.75v3.75" fill="none" stroke="#212121" stroke-linecap="round" stroke-linejoin="round" stroke-width="1.5px"></path><path class="a" d="M15.75 6.75l3 3.75" fill="none" stroke="#212121" stroke-linecap="round" stroke-linejoin="round" stroke-width="1.5px"></path><path class="a" d="M8.25 6.75l-3 3.75" fill="none" stroke="#212121" stroke-linecap="round" stroke-linejoin="round" stroke-width="1.5px"></path></g></svg>