<svg xmlns="http://www.w3.org/2000/svg" width="24" height="24" viewBox="0 0 24 24"><title>sauna heat person</title><g fill="#212121" class="nc-icon-wrapper"><defs></defs><path class="a" d="M.722 20.253h7.5" fill="none" stroke="#212121" stroke-linecap="round" stroke-linejoin="round" stroke-width="1.5px"></path><path class="a" d="M14.872 17.253l3.1 5.272a1.5 1.5 0 1 0 2.572-1.544l-3.536-6a1.5 1.5 0 0 0-1.286-.728h-5.073L8.064 9.082a1.5 1.5 0 0 0-1.207-.823 1.48 1.48 0 0 0-1.335.595l-4.5 6a1.5 1.5 0 0 0 2.4 1.8L6.466 12.6l1.914 3.824a1.5 1.5 0 0 0 1.342.829h1.5v4.5a1.5 1.5 0 0 0 3 0v-4.5z" fill="none" stroke="#212121" stroke-linecap="round" stroke-linejoin="round" stroke-width="1.5px"></path><circle class="a" cx="7.472" cy="3.752" r="2.625" fill="none" stroke="#212121" stroke-linecap="round" stroke-linejoin="round" stroke-width="1.5px"></circle><path class="a" d="M22.428.75c1.437 2.873-2.151 2.381 0 5.25" fill="none" stroke="#212121" stroke-linecap="round" stroke-linejoin="round" stroke-width="1.5px"></path><path class="a" d="M18.678.75c1.437 2.873-2.151 2.381 0 5.25" fill="none" stroke="#212121" stroke-linecap="round" stroke-linejoin="round" stroke-width="1.5px"></path><path class="a" d="M14.928.75c1.437 2.873-2.151 2.381 0 5.25" fill="none" stroke="#212121" stroke-linecap="round" stroke-linejoin="round" stroke-width="1.5px"></path></g></svg>