<svg xmlns="http://www.w3.org/2000/svg" width="24" height="24" viewBox="0 0 24 24"><title>sauna heat</title><g fill="#212121" class="nc-icon-wrapper"><defs></defs><path class="a" d="M20 7.074v15.053H3.5V7.074" fill="none" stroke="#212121" stroke-linecap="round" stroke-linejoin="round" stroke-width="1.5px"></path><path class="a" d="M.5 9.074l10.418-6.946a1.5 1.5 0 0 1 1.664 0L23 9.074" fill="none" stroke="#212121" stroke-linecap="round" stroke-linejoin="round" stroke-width="1.5px"></path><path class="a" d="M14.823 10.094A3.725 3.725 0 0 0 14 12.231c0 1.337.823 2.673.823 4.008A3.737 3.737 0 0 1 14 18.377" fill="none" stroke="#212121" stroke-linecap="round" stroke-linejoin="round" stroke-width="1.5px"></path><path class="a" d="M9.573 10.094a3.725 3.725 0 0 0-.823 2.137c0 1.337.823 2.673.823 4.008a3.737 3.737 0 0 1-.823 2.138" fill="none" stroke="#212121" stroke-linecap="round" stroke-linejoin="round" stroke-width="1.5px"></path></g></svg>