<svg xmlns="http://www.w3.org/2000/svg" width="24" height="24" viewBox="0 0 24 24"><title>saving wallet international</title><g fill="#212121" class="nc-icon-wrapper"><defs></defs><path class="a" d="M22.5 20.25v1.227a1.7 1.7 0 0 1-1.607 1.773h-8.036a1.7 1.7 0 0 1-1.607-1.773v-6.2a1.7 1.7 0 0 1 1.607-1.777h8.036a1.7 1.7 0 0 1 1.607 1.773v.977" fill="none" stroke="#212121" stroke-linecap="round" stroke-linejoin="round" stroke-width="1.5px"></path><path class="a" d="M21.04 13.507l-1.282-2.565a.8.8 0 0 0-1.074-.357L12.857 13.5" fill="none" stroke="#212121" stroke-linecap="round" stroke-linejoin="round" stroke-width="1.5px"></path><path class="a" d="M22.45 20.25a.8.8 0 0 0 .8-.8v-2.4a.8.8 0 0 0-.8-.8h-2a2 2 0 0 0 0 4z" fill="none" stroke="#212121" stroke-linecap="round" stroke-linejoin="round" stroke-width="1.5px"></path><path class="a" d="M5.737 21.347A11.251 11.251 0 1 1 22.756 8.693q.073.242.137.483" fill="none" stroke="#212121" stroke-linecap="round" stroke-linejoin="round" stroke-width="1.5px"></path><path class="a" d="M7.981 19.4a26.114 26.114 0 0 1-.905-11.835 16.27 16.27 0 0 1 2.213-6.486" fill="none" stroke="#212121" stroke-linecap="round" stroke-linejoin="round" stroke-width="1.5px"></path><path class="a" d="M.775 11.25H11.25" fill="none" stroke="#212121" stroke-linecap="round" stroke-linejoin="round" stroke-width="1.5px"></path><path class="a" d="M2.482 6h19.036" fill="none" stroke="#212121" stroke-linecap="round" stroke-linejoin="round" stroke-width="1.5px"></path><path class="a" d="M1.687 16.5h5.558" fill="none" stroke="#212121" stroke-linecap="round" stroke-linejoin="round" stroke-width="1.5px"></path><path class="a" d="M14.711 1.079a14.9 14.9 0 0 1 2 5.309q.177.87.286 1.737" fill="none" stroke="#212121" stroke-linecap="round" stroke-linejoin="round" stroke-width="1.5px"></path></g></svg>