<svg xmlns="http://www.w3.org/2000/svg" width="24" height="24" viewBox="0 0 24 24"><title>saving dog guard increase</title><g fill="#212121" class="nc-icon-wrapper"><defs></defs><path class="a" d="M22.5 5.25V.75H18" fill="none" stroke="#212121" stroke-linecap="round" stroke-linejoin="round" stroke-width="1.5px"></path><path class="a" d="M22.5.75L17.45 5.8a2.252 2.252 0 0 1-2.237.565L9.5 4.839a2.249 2.249 0 0 0-2.172.582L1.5 11.254" fill="none" stroke="#212121" stroke-linecap="round" stroke-linejoin="round" stroke-width="1.5px"></path><path class="a" d="M19.3 21.076a5.565 5.565 0 0 0 3.2-4.954 4.6 4.6 0 0 0-.73-2.492 2.25 2.25 0 1 0-3.67-2.325l.008-.024a5.378 5.378 0 0 0-.707-.042l-1.814.015a5.259 5.259 0 0 0-.689.051 2.25 2.25 0 1 0-3.668 2.325 4.606 4.606 0 0 0-.73 2.492 5.565 5.565 0 0 0 3.2 4.954" fill="none" stroke="#212121" stroke-linecap="round" stroke-linejoin="round" stroke-width="1.5px"></path><path class="a" d="M18.771 15.691l.479 4.939a2.2 2.2 0 0 1-2.119 2.624h-1.262a2.2 2.2 0 0 1-2.119-2.624l.479-4.939" fill="none" stroke="#212121" stroke-linecap="round" stroke-linejoin="round" stroke-width="1.5px"></path><path class="a" d="M16.5 19.504v.75" fill="none" stroke="#212121" stroke-linecap="round" stroke-linejoin="round" stroke-width="1.5px"></path></g></svg>