<svg xmlns="http://www.w3.org/2000/svg" width="24" height="24" viewBox="0 0 24 24"><title>saving piggy coins alternate</title><g fill="#212121" class="nc-icon-wrapper"><defs></defs><path class="a" d="M23.25 10.5a3 3 0 0 1-3 3" fill="none" stroke="#212121" stroke-linecap="round" stroke-linejoin="round" stroke-width="1.5px"></path><path class="a" d="M6 6.8a8.318 8.318 0 0 0-3.4 4.45H.75v6h2.49a8.467 8.467 0 0 0 2.01 2.372V22.5a.75.75 0 0 0 .75.75h1.5a.75.75 0 0 0 .75-.75v-1.241a9.512 9.512 0 0 0 6 .011v1.23a.75.75 0 0 0 .75.75h1.5a.75.75 0 0 0 .75-.75v-2.863a7.941 7.941 0 0 0 3-6.137 8.053 8.053 0 0 0-3.757-6.706" fill="none" stroke="#212121" stroke-linecap="round" stroke-linejoin="round" stroke-width="1.5px"></path><path class="a" d="M8.25 7.5a6.763 6.763 0 0 1 6 0" fill="none" stroke="#212121" stroke-linecap="round" stroke-linejoin="round" stroke-width="1.5px"></path><circle class="a" cx="11.25" cy="3.75" r="3" fill="none" stroke="#212121" stroke-linecap="round" stroke-linejoin="round" stroke-width="1.5px"></circle></g></svg>