<svg xmlns="http://www.w3.org/2000/svg" width="24" height="24" viewBox="0 0 24 24"><title>saving bank cash</title><g fill="#212121" class="nc-icon-wrapper"><defs></defs><path class="a" d="M5.25 23.25h18" fill="none" stroke="#212121" stroke-linecap="round" stroke-linejoin="round" stroke-width="1.5px"></path><path class="a" d="M15.575 6.572l7.406 4.937a.6.6 0 0 1 .269.5v.891a.6.6 0 0 1-.6.6H5.25" fill="none" stroke="#212121" stroke-linecap="round" stroke-linejoin="round" stroke-width="1.5px"></path><rect class="a" x="2.625" y="1.875" width="6.75" height="10.5" rx=".887" ry=".887" transform="rotate(-90 6 7.125)" fill="none" stroke="#212121" stroke-linecap="round" stroke-linejoin="round" stroke-width="1.5px"></rect><path class="a" d="M4.443 3.75l.3-2.009A1.163 1.163 0 0 1 6.066.763l6.769 1.013a1.163 1.163 0 0 1 .978 1.324l-.529 3.531a1.187 1.187 0 0 1-2.034.625" fill="none" stroke="#212121" stroke-linecap="round" stroke-linejoin="round" stroke-width="1.5px"></path><path class="a" d="M6 6.75a.375.375 0 1 1-.375.375A.375.375 0 0 1 6 6.75" fill="none" stroke="#212121" stroke-linecap="round" stroke-linejoin="round" stroke-width="1.5px"></path><path class="a" d="M21 23.25V13.5" fill="none" stroke="#212121" stroke-linecap="round" stroke-linejoin="round" stroke-width="1.5px"></path><path class="a" d="M16.5 23.25V13.5" fill="none" stroke="#212121" stroke-linecap="round" stroke-linejoin="round" stroke-width="1.5px"></path><path class="a" d="M12 23.25V13.5" fill="none" stroke="#212121" stroke-linecap="round" stroke-linejoin="round" stroke-width="1.5px"></path><path class="a" d="M7.5 23.25V13.5" fill="none" stroke="#212121" stroke-linecap="round" stroke-linejoin="round" stroke-width="1.5px"></path></g></svg>