<svg xmlns="http://www.w3.org/2000/svg" width="24" height="24" viewBox="0 0 24 24"><title>school bag</title><g fill="#212121" class="nc-icon-wrapper"><defs></defs><path class="a" d="M8.5 3.75h7a4 4 0 0 1 4 4v15.5h-15V7.75a4 4 0 0 1 4-4z" fill="none" stroke="#212121" stroke-linecap="round" stroke-linejoin="round" stroke-width="1.5px"></path><path class="a" d="M9 3.75a2.792 2.792 0 0 1 2.935-3 2.815 2.815 0 0 1 2.935 3" fill="none" stroke="#212121" stroke-linecap="round" stroke-linejoin="round" stroke-width="1.5px"></path><path class="a" d="M2.707 14.25H4.5v9H2.707A1.957 1.957 0 0 1 .75 21.293v-5.086a1.957 1.957 0 0 1 1.957-1.957z" fill="none" stroke="#212121" stroke-linecap="round" stroke-linejoin="round" stroke-width="1.5px"></path><path class="a" d="M19.5 14.446h1.793A1.957 1.957 0 0 1 23.25 16.4v4.891a1.957 1.957 0 0 1-1.957 1.957H19.5v-8.8-.002z" fill="none" stroke="#212121" stroke-linecap="round" stroke-linejoin="round" stroke-width="1.5px"></path><rect class="a" x="7.5" y="13.5" width="9" height="6.75" rx="1" ry="1" fill="none" stroke="#212121" stroke-linecap="round" stroke-linejoin="round" stroke-width="1.5px"></rect><path class="a" d="M7.5 16.5h9" fill="none" stroke="#212121" stroke-linecap="round" stroke-linejoin="round" stroke-width="1.5px"></path><path class="a" d="M12.75 16.5V18" fill="none" stroke="#212121" stroke-linecap="round" stroke-linejoin="round" stroke-width="1.5px"></path><path class="a" d="M.75 17.185H4.5" fill="none" stroke="#212121" stroke-linecap="round" stroke-linejoin="round" stroke-width="1.5px"></path><path class="a" d="M19.5 17.25h3.75" fill="none" stroke="#212121" stroke-linecap="round" stroke-linejoin="round" stroke-width="1.5px"></path></g></svg>