<svg xmlns="http://www.w3.org/2000/svg" width="24" height="24" viewBox="0 0 24 24"><title>science cells</title><g fill="#212121" class="nc-icon-wrapper"><defs></defs><path class="a" d="M3 12.75v-1.5" fill="none" stroke="#212121" stroke-linecap="round" stroke-linejoin="round" stroke-width="1.5px"></path><path class="a" d="M7.5 21L6 20.25" fill="none" stroke="#212121" stroke-linecap="round" stroke-linejoin="round" stroke-width="1.5px"></path><path class="a" d="M6 3.75L7.5 3" fill="none" stroke="#212121" stroke-linecap="round" stroke-linejoin="round" stroke-width="1.5px"></path><path class="a" d="M13.728 22.615a1.828 1.828 0 0 1-1.383.635 1.875 1.875 0 0 1 0-3.75 1.828 1.828 0 0 1 1.38.631" fill="none" stroke="#212121" stroke-linecap="round" stroke-linejoin="round" stroke-width="1.5px"></path><path class="a" d="M13.728 3.865a1.828 1.828 0 0 1-1.383.635A1.86 1.86 0 0 1 10.5 2.625 1.86 1.86 0 0 1 12.345.75a1.828 1.828 0 0 1 1.38.631" fill="none" stroke="#212121" stroke-linecap="round" stroke-linejoin="round" stroke-width="1.5px"></path><path class="a" d="M4.728 8.365A1.828 1.828 0 0 1 3.345 9a1.875 1.875 0 0 1 0-3.75 1.828 1.828 0 0 1 1.38.631" fill="none" stroke="#212121" stroke-linecap="round" stroke-linejoin="round" stroke-width="1.5px"></path><path class="a" d="M4.728 18.115a1.828 1.828 0 0 1-1.383.635 1.875 1.875 0 0 1 0-3.75 1.828 1.828 0 0 1 1.38.631" fill="none" stroke="#212121" stroke-linecap="round" stroke-linejoin="round" stroke-width="1.5px"></path><path class="a" d="M21 12.75v-1.5" fill="none" stroke="#212121" stroke-linecap="round" stroke-linejoin="round" stroke-width="1.5px"></path><path class="a" d="M16.5 21l1.5-.75" fill="none" stroke="#212121" stroke-linecap="round" stroke-linejoin="round" stroke-width="1.5px"></path><path class="a" d="M18 3.75L16.5 3" fill="none" stroke="#212121" stroke-linecap="round" stroke-linejoin="round" stroke-width="1.5px"></path><path class="a" d="M22.5 8.365A1.83 1.83 0 0 1 21.116 9a1.875 1.875 0 0 1 0-3.75 1.828 1.828 0 0 1 1.38.631" fill="none" stroke="#212121" stroke-linecap="round" stroke-linejoin="round" stroke-width="1.5px"></path><path class="a" d="M22.5 18.115a1.83 1.83 0 0 1-1.384.635 1.875 1.875 0 0 1 0-3.75 1.828 1.828 0 0 1 1.38.631" fill="none" stroke="#212121" stroke-linecap="round" stroke-linejoin="round" stroke-width="1.5px"></path></g></svg>