<svg xmlns="http://www.w3.org/2000/svg" width="24" height="24" viewBox="0 0 24 24"><title>science apple gravity</title><g fill="#212121" class="nc-icon-wrapper"><defs></defs><path class="a" d="M3 14.25v5.25" fill="none" stroke="#212121" stroke-linecap="round" stroke-linejoin="round" stroke-width="1.5px"></path><path class="a" d="M.75 18L3 19.5 5.25 18" fill="none" stroke="#212121" stroke-linecap="round" stroke-linejoin="round" stroke-width="1.5px"></path><path class="a" d="M21 13.5v5.25" fill="none" stroke="#212121" stroke-linecap="round" stroke-linejoin="round" stroke-width="1.5px"></path><path class="a" d="M18.75 17.25l2.25 1.5 2.25-1.5" fill="none" stroke="#212121" stroke-linecap="round" stroke-linejoin="round" stroke-width="1.5px"></path><path class="a" d="M12 18v5.25" fill="none" stroke="#212121" stroke-linecap="round" stroke-linejoin="round" stroke-width="1.5px"></path><path class="a" d="M9.75 21.75l2.25 1.5 2.25-1.5" fill="none" stroke="#212121" stroke-linecap="round" stroke-linejoin="round" stroke-width="1.5px"></path><path class="a" d="M8 12.359c.819.706-.2.782 1.441 2.193s5.876-.382 7.758-2.566 1.929-5 .291-6.41-1.883-.936-2.429-1.406-.261-1.2-1.9-2.614S8.748.606 6.865 2.79s-2.881 7.057-1.243 8.468 1.562.396 2.378 1.101z" fill="none" stroke="#212121" stroke-linecap="round" stroke-linejoin="round" stroke-width="1.5px"></path><path class="a" d="M15.061 4.17l1.917-2.453" fill="none" stroke="#212121" stroke-linecap="round" stroke-linejoin="round" stroke-width="1.5px"></path></g></svg>