<svg xmlns="http://www.w3.org/2000/svg" width="24" height="24" viewBox="0 0 24 24"><title>scooter 3</title><g fill="#212121" class="nc-icon-wrapper"><defs></defs><path class="a" d="M16.5 6.75a2.407 2.407 0 0 1 2.349 2.929l-2.024 9.107A1.87 1.87 0 0 1 15 20.25h-1.5" fill="none" stroke="#212121" stroke-linecap="round" stroke-linejoin="round" stroke-width="1.5px"></path><path class="a" d="M12 14.25a1.5 1.5 0 0 1 1.5 1.5v6a1.5 1.5 0 0 1-3 0v-6a1.5 1.5 0 0 1 1.5-1.5z" fill="none" stroke="#212121" stroke-linecap="round" stroke-linejoin="round" stroke-width="1.5px"></path><path class="a" d="M22.5 8.25h-3.75" fill="none" stroke="#212121" stroke-linecap="round" stroke-linejoin="round" stroke-width="1.5px"></path><path class="a" d="M18.849 9.679L15 10.5" fill="none" stroke="#212121" stroke-linecap="round" stroke-linejoin="round" stroke-width="1.5px"></path><path class="a" d="M7.5 6.75a2.407 2.407 0 0 0-2.349 2.929l2.024 9.107A1.87 1.87 0 0 0 9 20.25h1.5" fill="none" stroke="#212121" stroke-linecap="round" stroke-linejoin="round" stroke-width="1.5px"></path><path class="a" d="M1.5 8.25h3.75" fill="none" stroke="#212121" stroke-linecap="round" stroke-linejoin="round" stroke-width="1.5px"></path><path class="a" d="M5.151 9.679L9 10.5" fill="none" stroke="#212121" stroke-linecap="round" stroke-linejoin="round" stroke-width="1.5px"></path><path class="a" d="M7.5 5.25a4.5 4.5 0 0 1 9 0v1.5h-9z" fill="none" stroke="#212121" stroke-linecap="round" stroke-linejoin="round" stroke-width="1.5px"></path></g></svg>