<svg xmlns="http://www.w3.org/2000/svg" width="24" height="24" viewBox="0 0 24 24"><title>sd card sync</title><g fill="#212121" class="nc-icon-wrapper"><defs></defs><path class="a" d="M8.25 23.25h-6a1.5 1.5 0 0 1-1.5-1.5v-10.5h1.5v-3H.75v-6a1.5 1.5 0 0 1 1.5-1.5h10.56a1.5 1.5 0 0 1 1.139.524l4.44 4.305a1.5 1.5 0 0 1 .361.976v1.7" fill="none" stroke="#212121" stroke-linecap="round" stroke-linejoin="round" stroke-width="1.5px"></path><path class="a" d="M6.75 3.75v3" fill="none" stroke="#212121" stroke-linecap="round" stroke-linejoin="round" stroke-width="1.5px"></path><path class="a" d="M11.25 3.75v3" fill="none" stroke="#212121" stroke-linecap="round" stroke-linejoin="round" stroke-width="1.5px"></path><path class="a" d="M15 18.75h-3.75v3.75" fill="none" stroke="#212121" stroke-linecap="round" stroke-linejoin="round" stroke-width="1.5px"></path><path class="a" d="M22.667 19.483a5.572 5.572 0 0 1-10.74-.733" fill="none" stroke="#212121" stroke-linecap="round" stroke-linejoin="round" stroke-width="1.5px"></path><path class="a" d="M19.5 15.75h3.75V12" fill="none" stroke="#212121" stroke-linecap="round" stroke-linejoin="round" stroke-width="1.5px"></path><path class="a" d="M11.833 15.017a5.572 5.572 0 0 1 10.74.733" fill="none" stroke="#212121" stroke-linecap="round" stroke-linejoin="round" stroke-width="1.5px"></path></g></svg>