<svg xmlns="http://www.w3.org/2000/svg" width="24" height="24" viewBox="0 0 24 24"><title>sea transport small boat</title><g fill="#212121" class="nc-icon-wrapper"><defs></defs><path class="a" d="M.75 20.263a5.511 5.511 0 0 0 4.5-1.5 4.547 4.547 0 0 0 6.75 0 4.547 4.547 0 0 0 6.75 0 5.511 5.511 0 0 0 4.5 1.5" fill="none" stroke="#212121" stroke-linecap="round" stroke-linejoin="round" stroke-width="1.5px"></path><path class="a" d="M2.25 17.263v-1.5a1.5 1.5 0 0 1 1.5-1.5H22.5a.751.751 0 0 1 .631 1.156l-1.024 1.592" fill="none" stroke="#212121" stroke-linecap="round" stroke-linejoin="round" stroke-width="1.5px"></path><path class="a" d="M5.25 14.263v-3a1.5 1.5 0 0 0-1.5-1.5 1.5 1.5 0 0 1 0-3h7.582a1.5 1.5 0 0 1 1.115.5l6.3 7" fill="none" stroke="#212121" stroke-linecap="round" stroke-linejoin="round" stroke-width="1.5px"></path><path class="a" d="M9.75 6.763l-3-3.75" fill="none" stroke="#212121" stroke-linecap="round" stroke-linejoin="round" stroke-width="1.5px"></path><path class="a" d="M14.7 9.763H9.75" fill="none" stroke="#212121" stroke-linecap="round" stroke-linejoin="round" stroke-width="1.5px"></path></g></svg>