<svg xmlns="http://www.w3.org/2000/svg" width="24" height="24" viewBox="0 0 24 24"><title>sea transport buoy 1</title><g fill="#212121" class="nc-icon-wrapper"><defs></defs><path class="a" d="M.75 22.263A3.307 3.307 0 0 0 3.565 20.7a3.308 3.308 0 0 0 5.621 0 3.315 3.315 0 0 0 5.628 0 3.308 3.308 0 0 0 5.621 0 3.307 3.307 0 0 0 2.815 1.563" fill="none" stroke="#212121" stroke-linecap="round" stroke-linejoin="round" stroke-width="1.5px"></path><path class="a" d="M7.856 18.413L8.973 14a3 3 0 0 1 3.644-2.173l2.909.735A3 3 0 0 1 17.7 16.2l-.575 2.277" fill="none" stroke="#212121" stroke-linecap="round" stroke-linejoin="round" stroke-width="1.5px"></path><path class="a" d="M14.071 12.192l2.575-10.179L21 6.209l-5.641.894" fill="none" stroke="#212121" stroke-linecap="round" stroke-linejoin="round" stroke-width="1.5px"></path><path class="a" d="M14.807 9.284l2.908.736" fill="none" stroke="#212121" stroke-linecap="round" stroke-linejoin="round" stroke-width="1.5px"></path></g></svg>