<svg xmlns="http://www.w3.org/2000/svg" width="24" height="24" viewBox="0 0 24 24"><title>sea transport bark</title><g fill="#212121" class="nc-icon-wrapper"><defs></defs><path class="a" d="M18.477 19.492a.751.751 0 0 0-.465-.975l-6.012-2-6.012 2a.751.751 0 0 0-.465.975" fill="none" stroke="#212121" stroke-linecap="round" stroke-linejoin="round" stroke-width="1.5px"></path><path class="a" d="M23.25 23.263a5.511 5.511 0 0 1-4.5-1.5 4.547 4.547 0 0 1-6.75 0 4.547 4.547 0 0 1-6.75 0 5.511 5.511 0 0 1-4.5 1.5" fill="none" stroke="#212121" stroke-linecap="round" stroke-linejoin="round" stroke-width="1.5px"></path><path class="a" d="M12 16.513v-2.25" fill="none" stroke="#212121" stroke-linecap="round" stroke-linejoin="round" stroke-width="1.5px"></path><path class="a" d="M12 .763v1.5" fill="none" stroke="#212121" stroke-linecap="round" stroke-linejoin="round" stroke-width="1.5px"></path><path class="a" d="M22.5 2.263h-21" fill="none" stroke="#212121" stroke-linecap="round" stroke-linejoin="round" stroke-width="1.5px"></path><path class="a" d="M20.25 2.263l2.25 10.5s-2.25 1.5-10.5 1.5-10.5-1.5-10.5-1.5l2.25-10.5" fill="none" stroke="#212121" stroke-linecap="round" stroke-linejoin="round" stroke-width="1.5px"></path></g></svg>