<svg xmlns="http://www.w3.org/2000/svg" width="24" height="24" viewBox="0 0 24 24"><title>sea transport ship cargo</title><g fill="#212121" class="nc-icon-wrapper"><defs></defs><path class="a" d="M.75 23.263a5.511 5.511 0 0 0 4.5-1.5 4.547 4.547 0 0 0 6.75 0 4.547 4.547 0 0 0 6.75 0 5.511 5.511 0 0 0 4.5 1.5" fill="none" stroke="#212121" stroke-linecap="round" stroke-linejoin="round" stroke-width="1.5px"></path><path class="a" d="M1.106 18.763h22.026" fill="none" stroke="#212121" stroke-linecap="round" stroke-linejoin="round" stroke-width="1.5px"></path><path class="a" d="M22.275 20.448c.976-1.161.975-1.976.972-3.867a.834.834 0 0 0-.194-.574.752.752 0 0 0-.554-.244h-11.65a1.5 1.5 0 0 1-1.3-.75 1.5 1.5 0 0 0-1.3-.75H1.5a.752.752 0 0 0-.554.244.834.834 0 0 0-.194.574c0 1.949 0 3.953 1.254 5.237" fill="none" stroke="#212121" stroke-linecap="round" stroke-linejoin="round" stroke-width="1.5px"></path><path class="a" d="M20.25 9.763v3" fill="none" stroke="#212121" stroke-linecap="round" stroke-linejoin="round" stroke-width="1.5px"></path><path class="a" d="M8.75 3.763h2a.5.5 0 0 1 .5.5v4h-3v-4a.5.5 0 0 1 .5-.5z" fill="none" stroke="#212121" stroke-linecap="round" stroke-linejoin="round" stroke-width="1.5px"></path><path class="a" d="M6.75 11.263h3" fill="none" stroke="#212121" stroke-linecap="round" stroke-linejoin="round" stroke-width="1.5px"></path><path class="a" d="M18.75 1.513a3.285 3.285 0 0 1-2.25.75c-2.4 0-2.1-1.5-4.5-1.5a3.285 3.285 0 0 0-2.25.75" fill="none" stroke="#212121" stroke-linecap="round" stroke-linejoin="round" stroke-width="1.5px"></path><path class="a" d="M21.75 15.763v-1.5a1.5 1.5 0 0 0-1.5-1.5h-4.5a1.5 1.5 0 0 1-1.5-1.5 3 3 0 0 0-3-3h-3a1.5 1.5 0 0 0-1.5 1.5v4.5" fill="none" stroke="#212121" stroke-linecap="round" stroke-linejoin="round" stroke-width="1.5px"></path><path class="a" d="M17.25 9.763v3" fill="none" stroke="#212121" stroke-linecap="round" stroke-linejoin="round" stroke-width="1.5px"></path><path class="a" d="M13.849 9.763h7.901" fill="none" stroke="#212121" stroke-linecap="round" stroke-linejoin="round" stroke-width="1.5px"></path></g></svg>