<svg xmlns="http://www.w3.org/2000/svg" width="24" height="24" viewBox="0 0 24 24"><title>seafood shrimp</title><g fill="#212121" class="nc-icon-wrapper"><defs></defs><path class="cls-1" d="M23.227 11.25H11.25A10.5 10.5 0 0 1 .75.75H13.5a9.75 9.75 0 0 1 0 19.5H6.75a4.5 4.5 0 0 1 4.5-4.5h3" fill="none" stroke="#212121" stroke-linecap="round" stroke-linejoin="round" stroke-width="1.5px"></path><path class="cls-1" d="M14.25 20.221V11.25c0-2.25-1.5-10.5-6-10.5" fill="none" stroke="#212121" stroke-linecap="round" stroke-linejoin="round" stroke-width="1.5px"></path><path class="cls-1" d="M14.25 11.25L21.1 4.4" fill="none" stroke="#212121" stroke-linecap="round" stroke-linejoin="round" stroke-width="1.5px"></path><path class="cls-1" d="M14.25 11.25l6.144 6.144" fill="none" stroke="#212121" stroke-linecap="round" stroke-linejoin="round" stroke-width="1.5px"></path><path class="cls-1" d="M8.625 5.25a.375.375 0 1 1-.375.375.375.375 0 0 1 .375-.375" fill="none" stroke="#212121" stroke-linecap="round" stroke-linejoin="round" stroke-width="1.5px"></path><path class="cls-1" d="M6.75 20.25l-4.5-3v6l4.5-3z" fill="none" stroke="#212121" stroke-linecap="round" stroke-linejoin="round" stroke-width="1.5px"></path></g></svg>