<svg xmlns="http://www.w3.org/2000/svg" width="24" height="24" viewBox="0 0 24 24"><title>seafood squid</title><g fill="#212121" class="nc-icon-wrapper"><defs></defs><path class="cls-1" d="M7.5 17.25v3a3.009 3.009 0 0 1-3 3 3.009 3.009 0 0 1-3-3" fill="none" stroke="#212121" stroke-linecap="round" stroke-linejoin="round" stroke-width="1.5px"></path><path class="cls-1" d="M16.5 17.25v3a3.009 3.009 0 0 0 3 3 3.009 3.009 0 0 0 3-3" fill="none" stroke="#212121" stroke-linecap="round" stroke-linejoin="round" stroke-width="1.5px"></path><path class="cls-1" d="M14.853 6.75h4.823a.75.75 0 0 0 .372-1.4l-7.3-4.4a1.5 1.5 0 0 0-1.488 0l-7.3 4.4a.75.75 0 0 0 .372 1.4h4.815" fill="none" stroke="#212121" stroke-linecap="round" stroke-linejoin="round" stroke-width="1.5px"></path><path class="cls-1" d="M10.128 5.058A15.642 15.642 0 0 0 7.5 13.737v3.513h9v-3.513a15.642 15.642 0 0 0-2.628-8.679 2.25 2.25 0 0 0-3.744 0z" fill="none" stroke="#212121" stroke-linecap="round" stroke-linejoin="round" stroke-width="1.5px"></path><path class="cls-1" d="M10.5 17.25v4.5" fill="none" stroke="#212121" stroke-linecap="round" stroke-linejoin="round" stroke-width="1.5px"></path><path class="cls-1" d="M13.5 17.25v4.5" fill="none" stroke="#212121" stroke-linecap="round" stroke-linejoin="round" stroke-width="1.5px"></path></g></svg>