<svg xmlns="http://www.w3.org/2000/svg" width="24" height="24" viewBox="0 0 24 24"><title>seasoning pepper ground</title><g fill="#212121" class="nc-icon-wrapper"><defs></defs><circle class="cls-1" cx="12" cy="2.25" r="1.5" fill="none" stroke="#212121" stroke-linecap="round" stroke-linejoin="round" stroke-width="1.5px"></circle><path class="cls-1" d="M9.118 3.75h5.793a2.339 2.339 0 0 1 2.339 2.339v2.726a.935.935 0 0 1-.935.935h-8.63a.935.935 0 0 1-.935-.935v-2.7A2.368 2.368 0 0 1 9.118 3.75z" fill="none" stroke="#212121" stroke-linecap="round" stroke-linejoin="round" stroke-width="1.5px"></path><path class="cls-1" d="M8.68 9.75l-.28 5.792a3.5 3.5 0 0 0-1.65 2.966v.339a1.4 1.4 0 0 0 1.4 1.4h7.694a1.4 1.4 0 0 0 1.4-1.4v-.339a3.5 3.5 0 0 0-1.644-2.967l-.278-5.791" fill="none" stroke="#212121" stroke-linecap="round" stroke-linejoin="round" stroke-width="1.5px"></path><rect class="cls-1" x="6.75" y="20.25" width="10.5" height="3" rx=".866" ry=".866" fill="none" stroke="#212121" stroke-linecap="round" stroke-linejoin="round" stroke-width="1.5px"></rect></g></svg>