<svg xmlns="http://www.w3.org/2000/svg" width="24" height="24" viewBox="0 0 24 24"><title>seat vip</title><g fill="#212121" class="nc-icon-wrapper"><defs></defs><path class="a" d="M17.25 6.75v-6" fill="none" stroke="#212121" stroke-linecap="round" stroke-linejoin="round" stroke-width="1.5px"></path><path class="a" d="M20.25 6.75v-6" fill="none" stroke="#212121" stroke-linecap="round" stroke-linejoin="round" stroke-width="1.5px"></path><path class="a" d="M20.25.75H21a2.25 2.25 0 0 1 0 4.5h-.75" fill="none" stroke="#212121" stroke-linecap="round" stroke-linejoin="round" stroke-width="1.5px"></path><path class="a" d="M11.25.75V1.8a8.932 8.932 0 0 0 1.5 4.954 8.932 8.932 0 0 0 1.5-4.954V.75" fill="none" stroke="#212121" stroke-linecap="round" stroke-linejoin="round" stroke-width="1.5px"></path><circle class="a" cx="6" cy="4.874" r="2.625" fill="none" stroke="#212121" stroke-linecap="round" stroke-linejoin="round" stroke-width="1.5px"></circle><path class="a" d="M13.667 23.241a1.5 1.5 0 0 1-1.659-1.325l-.379-3.4a1.491 1.491 0 0 0-1.481-1.271H8.02a2.992 2.992 0 0 1-2.959-2.5L4.52 11.5a1.5 1.5 0 1 1 2.959-.5l.541 3.246h2.128a4.478 4.478 0 0 1 4.446 3.808c.006.042.4 3.526.4 3.526a1.5 1.5 0 0 1-1.327 1.661z" fill="none" stroke="#212121" stroke-linecap="round" stroke-linejoin="round" stroke-width="1.5px"></path><path class="a" d="M.75 23.25h7.382a.9.9 0 0 0 .895-1l-.135-1.22a.879.879 0 0 0-.872-.781 5.983 5.983 0 0 1-5.92-5.008l-.331-1.988A1.5 1.5 0 0 0 .73 12.065" fill="none" stroke="#212121" stroke-linecap="round" stroke-linejoin="round" stroke-width="1.5px"></path></g></svg>