<svg xmlns="http://www.w3.org/2000/svg" width="24" height="24" viewBox="0 0 24 24"><title>security officer camera</title><g fill="#212121" class="nc-icon-wrapper"><defs></defs><path class="a" d="M15 5.25h1.5v1.5a3 3 0 0 0 6 0v-1.5" fill="none" stroke="#212121" stroke-linecap="round" stroke-linejoin="round" stroke-width="1.5px"></path><path class="a" d="M22.499 5.25h-6l-.75-3 7.5.75-.75 2.25z" fill="none" stroke="#212121" stroke-linecap="round" stroke-linejoin="round" stroke-width="1.5px"></path><path class="a" d="M23.251 11.852A4.485 4.485 0 0 0 21 11.25l-1.5 2.25-1.5-2.25h-1.5a1.5 1.5 0 0 0-1.06.439l-5.25 5.25a1.5 1.5 0 0 0 2.12 2.121l4.19-4.189v6.879" fill="none" stroke="#212121" stroke-linecap="round" stroke-linejoin="round" stroke-width="1.5px"></path><path class="a" d="M.749 21.75h22.5" fill="none" stroke="#212121" stroke-linecap="round" stroke-linejoin="round" stroke-width="1.5px"></path><path class="a" d="M8.249 16.5A2.25 2.25 0 0 1 6 18.75H3a2.25 2.25 0 0 1 0-4.5h3a2.25 2.25 0 0 1 2.249 2.25z" fill="none" stroke="#212121" stroke-linecap="round" stroke-linejoin="round" stroke-width="1.5px"></path><path class="a" d="M4.5 16.125a.375.375 0 1 1-.375.375.374.374 0 0 1 .375-.375" fill="none" stroke="#212121" stroke-linecap="round" stroke-linejoin="round" stroke-width="1.5px"></path><path class="a" d="M4.499 18.75v3" fill="none" stroke="#212121" stroke-linecap="round" stroke-linejoin="round" stroke-width="1.5px"></path></g></svg>