<svg xmlns="http://www.w3.org/2000/svg" width="24" height="24" viewBox="0 0 24 24"><title>security officer luggage reject</title><g fill="#212121" class="nc-icon-wrapper"><defs></defs><path class="a" d="M12.75 6.75h1.5v1.5a3 3 0 0 0 6 0v-1.5" fill="none" stroke="#212121" stroke-linecap="round" stroke-linejoin="round" stroke-width="1.5px"></path><path class="a" d="M20.25 20.25v-3" fill="none" stroke="#212121" stroke-linecap="round" stroke-linejoin="round" stroke-width="1.5px"></path><path class="a" d="M12.932 17.689l1.318-1.318v6.879" fill="none" stroke="#212121" stroke-linecap="round" stroke-linejoin="round" stroke-width="1.5px"></path><path class="a" d="M20.25 23.25v-3a1.5 1.5 0 0 0 3 0v-3a4.5 4.5 0 0 0-4.5-4.5L17.25 15l-1.5-2.25a5.124 5.124 0 0 0-3.438 1.316l-3.247 3.248" fill="none" stroke="#212121" stroke-linecap="round" stroke-linejoin="round" stroke-width="1.5px"></path><path class="a" d="M20.25 6.75h-6l-.75-3 7.5.75-.75 2.25z" fill="none" stroke="#212121" stroke-linecap="round" stroke-linejoin="round" stroke-width="1.5px"></path><path class="a" d="M2.25 20.25h9v2a1 1 0 0 1-1 1h-7a1 1 0 0 1-1-1v-2z" fill="none" stroke="#212121" stroke-linecap="round" stroke-linejoin="round" stroke-width="1.5px"></path><path class="a" d="M3.75 13.5v6.75h-1.5a1.5 1.5 0 0 1-1.5-1.5v-6" fill="none" stroke="#212121" stroke-linecap="round" stroke-linejoin="round" stroke-width="1.5px"></path><circle class="a" cx="5.69" cy="5.625" r="4.875" fill="none" stroke="#212121" stroke-linecap="round" stroke-linejoin="round" stroke-width="1.5px"></circle><path class="a" d="M2.243 9.071l6.893-6.893" fill="none" stroke="#212121" stroke-linecap="round" stroke-linejoin="round" stroke-width="1.5px"></path></g></svg>