<svg xmlns="http://www.w3.org/2000/svg" width="24" height="24" viewBox="0 0 24 24"><title>self payment</title><g fill="#212121" class="nc-icon-wrapper"><defs></defs><path class="a" d="M20.878 19.259a.456.456 0 0 1 .122.308v3.2a.5.5 0 0 1-.525.482H3.525A.5.5 0 0 1 3 22.768v-3.2a.456.456 0 0 1 .122-.308l2.346-2.586a.546.546 0 0 1 .4-.173h12.261a.546.546 0 0 1 .4.173z" fill="none" stroke="#212121" stroke-linecap="round" stroke-linejoin="round" stroke-width="1.5px"></path><path class="a" d="M21 19.5H3" fill="none" stroke="#212121" stroke-linecap="round" stroke-linejoin="round" stroke-width="1.5px"></path><path class="a" d="M12 13.5v3" fill="none" stroke="#212121" stroke-linecap="round" stroke-linejoin="round" stroke-width="1.5px"></path><path class="a" d="M14.829 9.344a2.224 2.224 0 0 0 1.858.875c1.139 0 2.063-.693 2.063-1.547s-.924-1.546-2.063-1.546-2.062-.693-2.062-1.548.924-1.547 2.062-1.547a2.221 2.221 0 0 1 1.858.875" fill="none" stroke="#212121" stroke-linecap="round" stroke-linejoin="round" stroke-width="1.5px"></path><path class="a" d="M16.687 10.219v1.031" fill="none" stroke="#212121" stroke-linecap="round" stroke-linejoin="round" stroke-width="1.5px"></path><path class="a" d="M16.687 3v1.031" fill="none" stroke="#212121" stroke-linecap="round" stroke-linejoin="round" stroke-width="1.5px"></path><path class="a" d="M6 .75V13.5" fill="none" stroke="#212121" stroke-linecap="round" stroke-linejoin="round" stroke-width="1.5px"></path><path class="a" d="M10.5 13.5V.75" fill="none" stroke="#212121" stroke-linecap="round" stroke-linejoin="round" stroke-width="1.5px"></path><path class="a" d="M1.5 5.25h9" fill="none" stroke="#212121" stroke-linecap="round" stroke-linejoin="round" stroke-width="1.5px"></path><path class="a" d="M1.5 9.75h9" fill="none" stroke="#212121" stroke-linecap="round" stroke-linejoin="round" stroke-width="1.5px"></path><rect class="a" x="1.5" y=".75" width="21" height="12.75" rx="1" ry="1" fill="none" stroke="#212121" stroke-linecap="round" stroke-linejoin="round" stroke-width="1.5px"></rect></g></svg>