<svg xmlns="http://www.w3.org/2000/svg" width="24" height="24" viewBox="0 0 24 24"><title>seo network map</title><g fill="#212121" class="nc-icon-wrapper"><defs></defs><path class="a" d="M10.118 3.75c0 1.362-2.03 4.542-2.75 5.628a.3.3 0 0 1-.5 0c-.721-1.086-2.75-4.267-2.75-5.629a3 3 0 0 1 6 0z" fill="none" stroke="#212121" stroke-linecap="round" stroke-linejoin="round" stroke-width="1.5px"></path><path class="a" d="M7.118 3.375a.375.375 0 1 1-.375.375.375.375 0 0 1 .375-.375" fill="none" stroke="#212121" stroke-linecap="round" stroke-linejoin="round" stroke-width="1.5px"></path><circle class="a" cx="15.368" cy="15.75" r="5.25" fill="none" stroke="#212121" stroke-linecap="round" stroke-linejoin="round" stroke-width="1.5px"></circle><path class="a" d="M22.868 23.25l-3.788-3.788" fill="none" stroke="#212121" stroke-linecap="round" stroke-linejoin="round" stroke-width="1.5px"></path><path class="a" d="M11.18 23.188A9.007 9.007 0 0 1 1.118 14.25 8.964 8.964 0 0 1 2.6 9.293" fill="none" stroke="#212121" stroke-linecap="round" stroke-linejoin="round" stroke-width="1.5px"></path><path class="a" d="M12.759 5.643A9 9 0 0 1 16.8 8.222" fill="none" stroke="#212121" stroke-linecap="round" stroke-linejoin="round" stroke-width="1.5px"></path><path class="a" d="M1.867 10.65h1.951a1.8 1.8 0 0 1 1.8 1.8v1.95a1.8 1.8 0 0 0 .527 1.273l1.386 1.386a1.8 1.8 0 0 1 .435 1.842L7.6 20.016a1.792 1.792 0 0 1-.627.871l-1.464 1.094" fill="none" stroke="#212121" stroke-linecap="round" stroke-linejoin="round" stroke-width="1.5px"></path></g></svg>