<svg xmlns="http://www.w3.org/2000/svg" width="24" height="24" viewBox="0 0 24 24"><title>seo search star</title><g fill="#212121" class="nc-icon-wrapper"><defs></defs><path class="a" d="M18.817 3.961A8.84 8.84 0 0 0 3.161 9.589V12" fill="none" stroke="#212121" stroke-linecap="round" stroke-linejoin="round" stroke-width="1.5px"></path><path class="a" d="M5.57 15.654a8.839 8.839 0 0 0 15.269-6.065V7.982" fill="none" stroke="#212121" stroke-linecap="round" stroke-linejoin="round" stroke-width="1.5px"></path><path class="a" d="M.75 9.589L3.161 12l2.41-2.411" fill="none" stroke="#212121" stroke-linecap="round" stroke-linejoin="round" stroke-width="1.5px"></path><path class="a" d="M23.25 10.393l-2.411-2.411-2.41 2.411" fill="none" stroke="#212121" stroke-linecap="round" stroke-linejoin="round" stroke-width="1.5px"></path><path class="a" d="M11.564 5.219a.489.489 0 0 1 .872 0l1.012 2.042a.484.484 0 0 0 .366.262l2.271.329a.482.482 0 0 1 .391.324.476.476 0 0 1-.121.49l-1.65 1.6a.475.475 0 0 0-.138.421l.389 2.255a.473.473 0 0 1-.194.467.491.491 0 0 1-.511.035l-2.024-1.059a.492.492 0 0 0-.454 0l-2.024 1.059a.491.491 0 0 1-.511-.035.473.473 0 0 1-.194-.467l.389-2.255a.475.475 0 0 0-.138-.421l-1.65-1.6a.476.476 0 0 1-.121-.49.482.482 0 0 1 .391-.324l2.271-.329a.484.484 0 0 0 .366-.262z" fill="none" stroke="#212121" stroke-linecap="round" stroke-linejoin="round" stroke-width="1.5px"></path><path class="a" d="M23.25 23.25l-5.893-6.63" fill="none" stroke="#212121" stroke-linecap="round" stroke-linejoin="round" stroke-width="1.5px"></path></g></svg>