<svg xmlns="http://www.w3.org/2000/svg" width="24" height="24" viewBox="0 0 24 24"><title>server cash</title><g fill="#212121" class="nc-icon-wrapper"><defs></defs><path class="a" d="M5.251 4.875a.375.375 0 1 0 .375.375.375.375 0 0 0-.375-.375" fill="none" stroke="#212121" stroke-linecap="round" stroke-linejoin="round" stroke-width="1.5px"></path><path class="a" d="M5.251 13.875a.375.375 0 1 0 .375.375.375.375 0 0 0-.375-.375" fill="none" stroke="#212121" stroke-linecap="round" stroke-linejoin="round" stroke-width="1.5px"></path><path class="a" d="M12 9.75H5.251a4.5 4.5 0 0 1 0-9h12a4.5 4.5 0 0 1 3.014 7.841" fill="none" stroke="#212121" stroke-linecap="round" stroke-linejoin="round" stroke-width="1.5px"></path><path class="a" d="M8.251 18.75h-3a4.5 4.5 0 0 1 0-9" fill="none" stroke="#212121" stroke-linecap="round" stroke-linejoin="round" stroke-width="1.5px"></path><path class="a" d="M10.501 5.25h6.75" fill="none" stroke="#212121" stroke-linecap="round" stroke-linejoin="round" stroke-width="1.5px"></path><path class="a" d="M18.751 14.25h-2.033a1.342 1.342 0 0 0-.5 2.587l2.063.826a1.341 1.341 0 0 1-.5 2.587h-2.03" fill="none" stroke="#212121" stroke-linecap="round" stroke-linejoin="round" stroke-width="1.5px"></path><path class="a" d="M17.251 14.25v-.75" fill="none" stroke="#212121" stroke-linecap="round" stroke-linejoin="round" stroke-width="1.5px"></path><path class="a" d="M17.251 21v-.75" fill="none" stroke="#212121" stroke-linecap="round" stroke-linejoin="round" stroke-width="1.5px"></path><circle class="a" cx="17.251" cy="17.25" r="6" fill="none" stroke="#212121" stroke-linecap="round" stroke-linejoin="round" stroke-width="1.5px"></circle></g></svg>