<svg xmlns="http://www.w3.org/2000/svg" width="24" height="24" viewBox="0 0 24 24"><title>shape cube</title><g fill="#212121" class="nc-icon-wrapper"><defs></defs><path class="a" d="M16.629 23.25a1.5 1.5 0 0 0 1.06-.439l5.122-5.122a1.5 1.5 0 0 0 .439-1.06V2.25a1.5 1.5 0 0 0-1.5-1.5H7.371a1.5 1.5 0 0 0-1.06.439L1.189 6.311a1.5 1.5 0 0 0-.439 1.06V21.75a1.5 1.5 0 0 0 1.5 1.5z" fill="none" stroke="#212121" stroke-linecap="round" stroke-linejoin="round" stroke-width="1.5px"></path><path class="a" d="M17.25 23.115V6.75" fill="none" stroke="#212121" stroke-linecap="round" stroke-linejoin="round" stroke-width="1.5px"></path><path class="a" d="M6.75 17.25h16.365" fill="none" stroke="#212121" stroke-linecap="round" stroke-linejoin="round" stroke-width="1.5px"></path><path class="a" d="M1.189 22.811L6.75 17.25" fill="none" stroke="#212121" stroke-linecap="round" stroke-linejoin="round" stroke-width="1.5px"></path><path class="a" d="M17.25 6.75l5.561-5.561" fill="none" stroke="#212121" stroke-linecap="round" stroke-linejoin="round" stroke-width="1.5px"></path><path class="a" d="M17.25 6.75H.885" fill="none" stroke="#212121" stroke-linecap="round" stroke-linejoin="round" stroke-width="1.5px"></path><path class="a" d="M6.75.885V17.25" fill="none" stroke="#212121" stroke-linecap="round" stroke-linejoin="round" stroke-width="1.5px"></path></g></svg>