<svg xmlns="http://www.w3.org/2000/svg" width="24" height="24" viewBox="0 0 24 24"><title>share location hand</title><g fill="#212121" class="nc-icon-wrapper"><defs></defs><path class="a" d="M2.25 14.25v9" fill="none" stroke="#212121" stroke-linecap="round" stroke-linejoin="round" stroke-width="1.5px"></path><path class="a" d="M17.25 21.75a3 3 0 0 0-3-3H10.5a3 3 0 0 0-3-3H2.25v6z" fill="none" stroke="#212121" stroke-linecap="round" stroke-linejoin="round" stroke-width="1.5px"></path><path class="a" d="M7.5 18.75h3" fill="none" stroke="#212121" stroke-linecap="round" stroke-linejoin="round" stroke-width="1.5px"></path><path class="a" d="M17.785 16.528a27.3 27.3 0 0 0 3.56-7.648 17.2 17.2 0 0 0 .405-2.13 6 6 0 0 0-12 0 17.2 17.2 0 0 0 .4 2.13 26.715 26.715 0 0 0 3.342 7.3" fill="none" stroke="#212121" stroke-linecap="round" stroke-linejoin="round" stroke-width="1.5px"></path><circle class="a" cx="15.75" cy="6.75" r="2.25" fill="none" stroke="#212121" stroke-linecap="round" stroke-linejoin="round" stroke-width="1.5px"></circle></g></svg>