<svg xmlns="http://www.w3.org/2000/svg" width="24" height="24" viewBox="0 0 24 24"><title>shipment previous</title><g fill="#212121" class="nc-icon-wrapper"><defs></defs><path class="a" d="M8.25 19.5h-6A1.5 1.5 0 0 1 .75 18V7.5A1.5 1.5 0 0 1 2.25 6h15a1.5 1.5 0 0 1 1.5 1.5V9" fill="none" stroke="#212121" stroke-linecap="round" stroke-linejoin="round" stroke-width="1.5px"></path><path class="a" d="M18.266 6.4l-2.821-4.232A1.5 1.5 0 0 0 14.2 1.5H5.3a1.5 1.5 0 0 0-1.248.668L1.234 6.4" fill="none" stroke="#212121" stroke-linecap="round" stroke-linejoin="round" stroke-width="1.5px"></path><path class="a" d="M9.75 1.5V6" fill="none" stroke="#212121" stroke-linecap="round" stroke-linejoin="round" stroke-width="1.5px"></path><path class="a" d="M15.75 12l-3 3 3 3" fill="none" stroke="#212121" stroke-linecap="round" stroke-linejoin="round" stroke-width="1.5px"></path><path class="a" d="M12.75 15h3a7.5 7.5 0 0 1 7.5 7.5" fill="none" stroke="#212121" stroke-linecap="round" stroke-linejoin="round" stroke-width="1.5px"></path></g></svg>