<svg xmlns="http://www.w3.org/2000/svg" width="24" height="24" viewBox="0 0 24 24"><title>shipment smartphone arrive</title><g fill="#212121" class="nc-icon-wrapper"><defs></defs><path class="a" d="M14.25 19.5v.75a3 3 0 0 1-3 3h-7.5a3 3 0 0 1-3-3V3.75a3 3 0 0 1 3-3h6.75" fill="none" stroke="#212121" stroke-linecap="round" stroke-linejoin="round" stroke-width="1.5px"></path><path class="a" d="M12.829 3.908l-4.5 2.25A1.5 1.5 0 0 0 7.5 7.5v4.9a1.5 1.5 0 0 0 .829 1.342l4.5 2.249a1.5 1.5 0 0 0 1.342 0l4.5-2.25A1.5 1.5 0 0 0 19.5 12.4V7.5a1.5 1.5 0 0 0-.829-1.342l-4.5-2.25a1.5 1.5 0 0 0-1.342 0z" fill="none" stroke="#212121" stroke-linecap="round" stroke-linejoin="round" stroke-width="1.5px"></path><path class="a" d="M19.263 6.692L13.5 9.573 7.738 6.692" fill="none" stroke="#212121" stroke-linecap="round" stroke-linejoin="round" stroke-width="1.5px"></path><path class="a" d="M13.5 9.573v6.573" fill="none" stroke="#212121" stroke-linecap="round" stroke-linejoin="round" stroke-width="1.5px"></path><path class="a" d="M20.287 3.049l-.46.592" fill="none" stroke="#212121" stroke-linecap="round" stroke-linejoin="round" stroke-width="1.5px"></path><path class="a" d="M17.457 1.802L17.324.75" fill="none" stroke="#212121" stroke-linecap="round" stroke-linejoin="round" stroke-width="1.5px"></path><path class="a" d="M22.198 5.48l1.052-.133" fill="none" stroke="#212121" stroke-linecap="round" stroke-linejoin="round" stroke-width="1.5px"></path><path class="a" d="M.75 18.52h7.5" fill="none" stroke="#212121" stroke-linecap="round" stroke-linejoin="round" stroke-width="1.5px"></path></g></svg>