<svg xmlns="http://www.w3.org/2000/svg" width="24" height="24" viewBox="0 0 24 24"><title>shipment sync</title><g fill="#212121" class="nc-icon-wrapper"><defs></defs><path class="a" d="M8.25 18.75h-6a1.5 1.5 0 0 1-1.5-1.5V6.75a1.5 1.5 0 0 1 1.5-1.5h15a1.5 1.5 0 0 1 1.5 1.5v1.5" fill="none" stroke="#212121" stroke-linecap="round" stroke-linejoin="round" stroke-width="1.5px"></path><path class="a" d="M18.266 5.647l-2.821-4.229A1.5 1.5 0 0 0 14.2.75H5.3a1.5 1.5 0 0 0-1.248.668L1.234 5.647" fill="none" stroke="#212121" stroke-linecap="round" stroke-linejoin="round" stroke-width="1.5px"></path><path class="a" d="M9.75.75v4.5" fill="none" stroke="#212121" stroke-linecap="round" stroke-linejoin="round" stroke-width="1.5px"></path><path class="a" d="M15 18.75h-3.75v3.75" fill="none" stroke="#212121" stroke-linecap="round" stroke-linejoin="round" stroke-width="1.5px"></path><path class="a" d="M22.667 19.483a5.572 5.572 0 0 1-10.74-.733" fill="none" stroke="#212121" stroke-linecap="round" stroke-linejoin="round" stroke-width="1.5px"></path><path class="a" d="M19.5 15.75h3.75V12" fill="none" stroke="#212121" stroke-linecap="round" stroke-linejoin="round" stroke-width="1.5px"></path><path class="a" d="M11.833 15.017a5.572 5.572 0 0 1 10.74.733" fill="none" stroke="#212121" stroke-linecap="round" stroke-linejoin="round" stroke-width="1.5px"></path></g></svg>