<svg xmlns="http://www.w3.org/2000/svg" width="24" height="24" viewBox="0 0 24 24"><title>shipment crane hook</title><g fill="#212121" class="nc-icon-wrapper"><defs></defs><path class="a" d="M12 12.75v3" fill="none" stroke="#212121" stroke-linecap="round" stroke-linejoin="round" stroke-width="1.5px"></path><path class="a" d="M15.75 19.5A3.75 3.75 0 1 1 12 15.75" fill="none" stroke="#212121" stroke-linecap="round" stroke-linejoin="round" stroke-width="1.5px"></path><path class="a" d="M14.475 12.48a.751.751 0 0 1-.576.27H10.1a.751.751 0 0 1-.576-.27l-3.35-4.021A.754.754 0 0 1 6 7.978V1.5a.75.75 0 0 1 .75-.75h10.5a.75.75 0 0 1 .75.75v6.478a.754.754 0 0 1-.174.481z" fill="none" stroke="#212121" stroke-linecap="round" stroke-linejoin="round" stroke-width="1.5px"></path><path class="a" d="M6 7.5L12.75.75" fill="none" stroke="#212121" stroke-linecap="round" stroke-linejoin="round" stroke-width="1.5px"></path><path class="a" d="M9.068 11.932L18 3" fill="none" stroke="#212121" stroke-linecap="round" stroke-linejoin="round" stroke-width="1.5px"></path></g></svg>