<svg xmlns="http://www.w3.org/2000/svg" width="24" height="24" viewBox="0 0 24 24"><title>shipment in transit</title><g fill="#212121" class="nc-icon-wrapper"><defs></defs><path class="a" d="M.766 13.222l2.937 1.487" fill="none" stroke="#212121" stroke-linecap="round" stroke-linejoin="round" stroke-width="1.5px"></path><path class="a" d="M.86 9.234l2.812 1.506" fill="none" stroke="#212121" stroke-linecap="round" stroke-linejoin="round" stroke-width="1.5px"></path><path class="a" d="M2.045 5.918l1.689 1.041" fill="none" stroke="#212121" stroke-linecap="round" stroke-linejoin="round" stroke-width="1.5px"></path><path class="a" d="M10.859 5.151l8.25 4.215" fill="none" stroke="#212121" stroke-linecap="round" stroke-linejoin="round" stroke-width="1.5px"></path><path class="a" d="M14.062 3.514L7.874 6.676a2.113 2.113 0 0 0-1.14 1.885v6.879a2.113 2.113 0 0 0 1.141 1.885l6.187 3.161a2.022 2.022 0 0 0 1.845 0l6.187-3.161a2.112 2.112 0 0 0 1.14-1.885V8.561a2.111 2.111 0 0 0-1.14-1.885l-6.187-3.162a2.028 2.028 0 0 0-1.845 0z" fill="none" stroke="#212121" stroke-linecap="round" stroke-linejoin="round" stroke-width="1.5px"></path><path class="a" d="M22.908 7.425l-7.924 4.048-7.923-4.048" fill="none" stroke="#212121" stroke-linecap="round" stroke-linejoin="round" stroke-width="1.5px"></path><path class="a" d="M14.984 11.473v9.236" fill="none" stroke="#212121" stroke-linecap="round" stroke-linejoin="round" stroke-width="1.5px"></path><path class="a" d="M19.109 9.366v2.912" fill="none" stroke="#212121" stroke-linecap="round" stroke-linejoin="round" stroke-width="1.5px"></path></g></svg>