<svg xmlns="http://www.w3.org/2000/svg" width="24" height="24" viewBox="0 0 24 24"><title>shipment smartphone 1</title><g fill="#212121" class="nc-icon-wrapper"><defs></defs><path class="a" d="M22.389 18.04V21a2.137 2.137 0 0 1-2 2.25h-4.025a2.137 2.137 0 0 1-2-2.25v-8.96a2.138 2.138 0 0 1 2-2.25h4.022a2.138 2.138 0 0 1 2 2.25z" fill="none" stroke="#212121" stroke-linecap="round" stroke-linejoin="round" stroke-width="1.5px"></path><path class="a" d="M14.361 20.25h8.011" fill="none" stroke="#212121" stroke-linecap="round" stroke-linejoin="round" stroke-width="1.5px"></path><path class="a" d="M13.611 6.75V4.5a1.5 1.5 0 0 0-.829-1.342l-4.5-2.25a1.5 1.5 0 0 0-1.342 0l-4.5 2.25A1.5 1.5 0 0 0 1.611 4.5v4.9a1.5 1.5 0 0 0 .829 1.342l4.5 2.249a1.5 1.5 0 0 0 1.342 0l2.983-1.491" fill="none" stroke="#212121" stroke-linecap="round" stroke-linejoin="round" stroke-width="1.5px"></path><path class="a" d="M13.373 3.692L7.611 6.573 1.849 3.692" fill="none" stroke="#212121" stroke-linecap="round" stroke-linejoin="round" stroke-width="1.5px"></path><path class="a" d="M7.611 6.573v6.573" fill="none" stroke="#212121" stroke-linecap="round" stroke-linejoin="round" stroke-width="1.5px"></path></g></svg>