<svg xmlns="http://www.w3.org/2000/svg" width="24" height="24" viewBox="0 0 24 24"><title>shirt male</title><g fill="#212121" class="nc-icon-wrapper"><defs></defs><path class="cls-1" d="M6 8.25V22.5a.75.75 0 0 0 .75.75h10.5a.75.75 0 0 0 .75-.75V8.25" fill="none" stroke="#212121" stroke-linecap="round" stroke-linejoin="round" stroke-width="1.5px"></path><path class="cls-1" d="M18 12.75h3.75a.75.75 0 0 0 .75-.75V6.75a6 6 0 0 0-6-6H15a3 3 0 0 1-6 0H7.5a6 6 0 0 0-6 6V12a.75.75 0 0 0 .75.75H6" fill="none" stroke="#212121" stroke-linecap="round" stroke-linejoin="round" stroke-width="1.5px"></path><path class="cls-1" d="M12 4.5v18.75" fill="none" stroke="#212121" stroke-linecap="round" stroke-linejoin="round" stroke-width="1.5px"></path><path class="cls-1" d="M9 .75L7.9 5.168a.75.75 0 0 0 1.062.853L12 4.5" fill="none" stroke="#212121" stroke-linecap="round" stroke-linejoin="round" stroke-width="1.5px"></path><path class="cls-1" d="M15 .75l1.1 4.418a.75.75 0 0 1-1.062.853L12 4.5" fill="none" stroke="#212121" stroke-linecap="round" stroke-linejoin="round" stroke-width="1.5px"></path></g></svg>