<svg xmlns="http://www.w3.org/2000/svg" width="24" height="24" viewBox="0 0 24 24"><title>shooting rifle person aim</title><g fill="#212121" class="nc-icon-wrapper"><defs></defs><circle class="cls-1" cx="6" cy="3.375" r="2.625" fill="none" stroke="#212121" stroke-linecap="round" stroke-linejoin="round" stroke-width="1.5px"></circle><path class="cls-1" d="M.978 20.955L4.5 15.32V9.75A1.5 1.5 0 0 1 6.961 8.6l2.616 2.181a1.507 1.507 0 0 0 1.9.019l1.836-1.469a1.5 1.5 0 1 1 1.875 2.344l-1.836 1.469a4.525 4.525 0 0 1-5.852-.192v2.367l3.521 5.636a1.5 1.5 0 1 1-2.543 1.59L6 18.58l-2.479 3.965a1.5 1.5 0 0 1-1.273.7 1.48 1.48 0 0 1-.793-.229 1.5 1.5 0 0 1-.477-2.061z" fill="none" stroke="#212121" stroke-linecap="round" stroke-linejoin="round" stroke-width="1.5px"></path><path class="cls-1" d="M23.25 3.75v1.5H13.11a3 3 0 0 0-1.953.722l-3.621 3.1" fill="none" stroke="#212121" stroke-linecap="round" stroke-linejoin="round" stroke-width="1.5px"></path><path class="cls-1" d="M16.5 3H12" fill="none" stroke="#212121" stroke-linecap="round" stroke-linejoin="round" stroke-width="1.5px"></path><path class="cls-1" d="M19.5 5.25v1.5a1.5 1.5 0 0 1-1.5 1.5h-.75" fill="none" stroke="#212121" stroke-linecap="round" stroke-linejoin="round" stroke-width="1.5px"></path></g></svg>