<svg xmlns="http://www.w3.org/2000/svg" width="24" height="24" viewBox="0 0 24 24"><title>shooting rifle target</title><g fill="#212121" class="nc-icon-wrapper"><defs></defs><path class="cls-1" d="M13.608 8.712l9.642-7.217" fill="none" stroke="#212121" stroke-linecap="round" stroke-linejoin="round" stroke-width="1.5px"></path><path class="cls-1" d="M21.643 2.698L20.185.75" fill="none" stroke="#212121" stroke-linecap="round" stroke-linejoin="round" stroke-width="1.5px"></path><path class="cls-1" d="M3 23.01a.586.586 0 0 0 .943-.01l4.392-6.12 6.631-4.963a.75.75 0 0 0 .151-1.05l-1.509-2.155-7.232 5.413-.725 1.765-4.7 3.55a.5.5 0 0 0-.1.7z" fill="none" stroke="#212121" stroke-linecap="round" stroke-linejoin="round" stroke-width="1.5px"></path><circle class="cls-1" cx="5.25" cy="5.25" r="3" fill="none" stroke="#212121" stroke-linecap="round" stroke-linejoin="round" stroke-width="1.5px"></circle><path class="cls-1" d="M5.25 2.25V.75" fill="none" stroke="#212121" stroke-linecap="round" stroke-linejoin="round" stroke-width="1.5px"></path><path class="cls-1" d="M8.25 5.25h1.5" fill="none" stroke="#212121" stroke-linecap="round" stroke-linejoin="round" stroke-width="1.5px"></path><path class="cls-1" d="M5.25 8.25v1.5" fill="none" stroke="#212121" stroke-linecap="round" stroke-linejoin="round" stroke-width="1.5px"></path><path class="cls-1" d="M2.25 5.25H.75" fill="none" stroke="#212121" stroke-linecap="round" stroke-linejoin="round" stroke-width="1.5px"></path></g></svg>