<svg xmlns="http://www.w3.org/2000/svg" width="24" height="24" viewBox="0 0 24 24"><title>shopping bag tag</title><g fill="#212121" class="nc-icon-wrapper"><defs></defs><path class="a" d="M17.174 8.25H4.561a1.5 1.5 0 0 0-1.436 1.413l-2 11.842a1.533 1.533 0 0 0 1.437 1.745h16.611a1.533 1.533 0 0 0 1.437-1.745l-2-11.842a1.5 1.5 0 0 0-1.436-1.413z" fill="none" stroke="#212121" stroke-linecap="round" stroke-linejoin="round" stroke-width="1.5px"></path><path class="a" d="M14.553 5.307a3.763 3.763 0 0 0-3.685-3.057 3.764 3.764 0 0 0-3.682 3.038" fill="none" stroke="#212121" stroke-linecap="round" stroke-linejoin="round" stroke-width="1.5px"></path><rect class="a" x="7.868" y="14.25" width="6" height="4.5" rx="1.5" ry="1.5" fill="none" stroke="#212121" stroke-linecap="round" stroke-linejoin="round" stroke-width="1.5px"></rect><path class="a" d="M20.618.75L18.368 3v2.25h2.25L22.868 3 20.618.75z" fill="none" stroke="#212121" stroke-linecap="round" stroke-linejoin="round" stroke-width="1.5px"></path></g></svg>