<svg xmlns="http://www.w3.org/2000/svg" width="24" height="24" viewBox="0 0 24 24"><title>shopping bag duty free</title><g fill="#212121" class="nc-icon-wrapper"><defs></defs><path class="a" d="M5.992 16.778l1.383.95" fill="none" stroke="#212121" stroke-linecap="round" stroke-linejoin="round" stroke-width="1.5px"></path><path class="a" d="M15.907 13.01l-1.969 1.09-4.147-2.85-1.969 1.088 3.491 3.213-3.938 2.177 2 1.375a1.5 1.5 0 0 0 1.575.076l6.409-3.543a1.5 1.5 0 1 0-1.452-2.626z" fill="none" stroke="#212121" stroke-linecap="round" stroke-linejoin="round" stroke-width="1.5px"></path><path class="a" d="M19.049 6.75H4.936A1.4 1.4 0 0 0 3.5 7.907l-2 13.915a1.357 1.357 0 0 0 1.437 1.428h18.111a1.356 1.356 0 0 0 1.436-1.428l-2-13.915a1.4 1.4 0 0 0-1.435-1.157z" fill="none" stroke="#212121" stroke-linecap="round" stroke-linejoin="round" stroke-width="1.5px"></path><path class="a" d="M15.662 3.807A3.765 3.765 0 0 0 11.976.75 3.763 3.763 0 0 0 8.3 3.788" fill="none" stroke="#212121" stroke-linecap="round" stroke-linejoin="round" stroke-width="1.5px"></path></g></svg>