<svg xmlns="http://www.w3.org/2000/svg" width="24" height="24" viewBox="0 0 24 24"><title>shopping bag user message</title><g fill="#212121" class="nc-icon-wrapper"><defs></defs><path class="a" d="M15.518 4.5H8.466a.747.747 0 0 0-.717.706l-1 8.165a.765.765 0 0 0 .718.871h9.048a.765.765 0 0 0 .718-.871l-1-8.165a.747.747 0 0 0-.715-.706z" fill="none" stroke="#212121" stroke-linecap="round" stroke-linejoin="round" stroke-width="1.5px"></path><path class="a" d="M13.832 7.47a1.878 1.878 0 0 1-1.841 1.522 1.879 1.879 0 0 1-1.839-1.513" fill="none" stroke="#212121" stroke-linecap="round" stroke-linejoin="round" stroke-width="1.5px"></path><path class="a" d="M23.242 16.5a1.5 1.5 0 0 1-1.5 1.5h-3.75v5.25l-7.5-5.25h-8.25a1.5 1.5 0 0 1-1.5-1.5V2.25a1.5 1.5 0 0 1 1.5-1.5h19.5a1.5 1.5 0 0 1 1.5 1.5z" fill="none" stroke="#212121" stroke-linecap="round" stroke-linejoin="round" stroke-width="1.5px"></path></g></svg>