<svg xmlns="http://www.w3.org/2000/svg" width="24" height="24" viewBox="0 0 24 24"><title>shopping cart cash</title><g fill="#212121" class="nc-icon-wrapper"><defs></defs><path class="a" d="M11.925 3.493h-2.44a1.61 1.61 0 0 0-.6 3.105l2.476.99a1.61 1.61 0 0 1-.6 3.1H8.325" fill="none" stroke="#212121" stroke-linecap="round" stroke-linejoin="round" stroke-width="1.5px"></path><path class="a" d="M10.125 3.493v-.9" fill="none" stroke="#212121" stroke-linecap="round" stroke-linejoin="round" stroke-width="1.5px"></path><path class="a" d="M10.125 11.593v-.9" fill="none" stroke="#212121" stroke-linecap="round" stroke-linejoin="round" stroke-width="1.5px"></path><circle class="a" cx="6.375" cy="20.968" r="1.875" fill="none" stroke="#212121" stroke-linecap="round" stroke-linejoin="round" stroke-width="1.5px"></circle><circle class="a" cx="13.875" cy="20.968" r="1.875" fill="none" stroke="#212121" stroke-linecap="round" stroke-linejoin="round" stroke-width="1.5px"></circle><path class="a" d="M.75 7.093l2.329 7.887a1.5 1.5 0 0 0 1.45 1.113h10.818A1.5 1.5 0 0 0 16.8 14.98l3.238-12.154a2.249 2.249 0 0 1 2.174-1.67h1.038" fill="none" stroke="#212121" stroke-linecap="round" stroke-linejoin="round" stroke-width="1.5px"></path></g></svg>