<svg xmlns="http://www.w3.org/2000/svg" width="24" height="24" viewBox="0 0 24 24"><title>shopping bag side</title><g fill="#212121" class="nc-icon-wrapper"><defs></defs><path class="a" d="M8.993 23.25H2.451a1.5 1.5 0 0 1-1.487-1.694l1.858-14.25A1.5 1.5 0 0 1 4.31 6h1.116a1.5 1.5 0 0 1 1.487 1.306z" fill="none" stroke="#212121" stroke-linecap="round" stroke-linejoin="round" stroke-width="1.5px"></path><path class="a" d="M14.243 6h5.433a1.5 1.5 0 0 1 1.487 1.306l1.859 14.25a1.5 1.5 0 0 1-1.488 1.694H8.993" fill="none" stroke="#212121" stroke-linecap="round" stroke-linejoin="round" stroke-width="1.5px"></path><path class="a" d="M5.426 6h6.567" fill="none" stroke="#212121" stroke-linecap="round" stroke-linejoin="round" stroke-width="1.5px"></path><path class="a" d="M17.993 10.5V3.75a3 3 0 1 0-6 0v6.75" fill="none" stroke="#212121" stroke-linecap="round" stroke-linejoin="round" stroke-width="1.5px"></path><path class="a" d="M9.578 1.253a3 3 0 0 0-1.335 2.5V6" fill="none" stroke="#212121" stroke-linecap="round" stroke-linejoin="round" stroke-width="1.5px"></path></g></svg>