<svg xmlns="http://www.w3.org/2000/svg" width="24" height="24" viewBox="0 0 24 24"><title>shop pin</title><g fill="#212121" class="nc-icon-wrapper"><defs></defs><path class="a" d="M21.88 1.337a.749.749 0 0 0-.732-.587H2.852a.751.751 0 0 0-.733.587L.75 7.5a2.25 2.25 0 0 0 4.5 0 2.25 2.25 0 0 0 4.5 0 2.25 2.25 0 0 0 4.5 0 2.25 2.25 0 0 0 4.5 0 2.25 2.25 0 0 0 4.5 0z" fill="none" stroke="#212121" stroke-linecap="round" stroke-linejoin="round" stroke-width="1.5px"></path><path class="a" d="M2.25 9.621v9.129a1.5 1.5 0 0 0 1.5 1.5h4.629a1.5 1.5 0 0 1 1.06.439L12 23.25l2.561-2.561a1.5 1.5 0 0 1 1.06-.439h4.629a1.5 1.5 0 0 0 1.5-1.5V9.621" fill="none" stroke="#212121" stroke-linecap="round" stroke-linejoin="round" stroke-width="1.5px"></path><path class="a" d="M2.25 15h19.5" fill="none" stroke="#212121" stroke-linecap="round" stroke-linejoin="round" stroke-width="1.5px"></path></g></svg>