<svg xmlns="http://www.w3.org/2000/svg" width="24" height="24" viewBox="0 0 24 24"><title>shopping basket man</title><g fill="#212121" class="nc-icon-wrapper"><defs></defs><circle class="a" cx="18" cy="3.75" r="3" fill="none" stroke="#212121" stroke-linecap="round" stroke-linejoin="round" stroke-width="1.5px"></circle><path class="a" d="M23.25 13.5a5.25 5.25 0 0 0-10.5 0v2.25H15l.75 7.5h4.5l.75-7.5h2.25z" fill="none" stroke="#212121" stroke-linecap="round" stroke-linejoin="round" stroke-width="1.5px"></path><path class="a" d="M9.922 17.25H2.251a1.5 1.5 0 0 0-1.4 2.026l1.307 3.487a.75.75 0 0 0 .7.487h6.459a.749.749 0 0 0 .7-.487l1.308-3.487a1.5 1.5 0 0 0-1.403-2.026z" fill="none" stroke="#212121" stroke-linecap="round" stroke-linejoin="round" stroke-width="1.5px"></path><path class="a" d="M2.337 17.25l1.5-3.75" fill="none" stroke="#212121" stroke-linecap="round" stroke-linejoin="round" stroke-width="1.5px"></path><path class="a" d="M9.837 17.25l-1.5-3.75" fill="none" stroke="#212121" stroke-linecap="round" stroke-linejoin="round" stroke-width="1.5px"></path></g></svg>