<svg xmlns="http://www.w3.org/2000/svg" width="24" height="24" viewBox="0 0 24 24"><title>shopping basket handle</title><g fill="#212121" class="nc-icon-wrapper"><defs></defs><path class="a" d="M18.936 23.25H5.064a1.442 1.442 0 0 1-1.383-1.136l-2.138-9a1.484 1.484 0 0 1 1.383-1.864h18.148a1.484 1.484 0 0 1 1.383 1.864l-2.138 9a1.442 1.442 0 0 1-1.383 1.136z" fill="none" stroke="#212121" stroke-linecap="round" stroke-linejoin="round" stroke-width="1.5px"></path><path class="a" d="M7.5 14.25v6" fill="none" stroke="#212121" stroke-linecap="round" stroke-linejoin="round" stroke-width="1.5px"></path><path class="a" d="M12 14.25v6" fill="none" stroke="#212121" stroke-linecap="round" stroke-linejoin="round" stroke-width="1.5px"></path><path class="a" d="M16.5 14.25v6" fill="none" stroke="#212121" stroke-linecap="round" stroke-linejoin="round" stroke-width="1.5px"></path><path class="a" d="M9 2.006a7.585 7.585 0 0 0-5.218 6.265" fill="none" stroke="#212121" stroke-linecap="round" stroke-linejoin="round" stroke-width="1.5px"></path><path class="a" d="M20.221 8.309A7.579 7.579 0 0 0 15 2.006" fill="none" stroke="#212121" stroke-linecap="round" stroke-linejoin="round" stroke-width="1.5px"></path><rect class="a" x="9" y=".75" width="6" height="3" rx="1.125" ry="1.125" fill="none" stroke="#212121" stroke-linecap="round" stroke-linejoin="round" stroke-width="1.5px"></rect></g></svg>