<svg xmlns="http://www.w3.org/2000/svg" width="24" height="24" viewBox="0 0 24 24"><title>shorts 1</title><g fill="#212121" class="nc-icon-wrapper"><defs></defs><path class="cls-1" d="M1.75 2.25h20.5a1 1 0 0 1 1 1v2H.75v-2a1 1 0 0 1 1-1z" fill="none" stroke="#212121" stroke-linecap="round" stroke-linejoin="round" stroke-width="1.5px"></path><path class="cls-1" d="M12 12a1.748 1.748 0 0 1 1.728 1.483l1.172 7.631a.75.75 0 0 0 .741.636h6.109a1.5 1.5 0 0 0 1.5-1.5v-15H.75v15a1.5 1.5 0 0 0 1.5 1.5h6.106a.75.75 0 0 0 .742-.636l1.174-7.631A1.748 1.748 0 0 1 12 12z" fill="none" stroke="#212121" stroke-linecap="round" stroke-linejoin="round" stroke-width="1.5px"></path><path class="cls-1" d="M3.75 5.25v16.5" fill="none" stroke="#212121" stroke-linecap="round" stroke-linejoin="round" stroke-width="1.5px"></path><path class="cls-1" d="M20.25 5.25v16.5" fill="none" stroke="#212121" stroke-linecap="round" stroke-linejoin="round" stroke-width="1.5px"></path><path class="cls-1" d="M10.5 5.25L9 9.75" fill="none" stroke="#212121" stroke-linecap="round" stroke-linejoin="round" stroke-width="1.5px"></path><path class="cls-1" d="M13.5 5.25l1.5 4.5" fill="none" stroke="#212121" stroke-linecap="round" stroke-linejoin="round" stroke-width="1.5px"></path></g></svg>