<svg xmlns="http://www.w3.org/2000/svg" width="24" height="24" viewBox="0 0 24 24"><title>shorts 2</title><g fill="#212121" class="nc-icon-wrapper"><defs></defs><path class="cls-1" d="M2.5 3.75h19a1 1 0 0 1 1 1v2h-21v-2a1 1 0 0 1 1-1z" fill="none" stroke="#212121" stroke-linecap="round" stroke-linejoin="round" stroke-width="1.5px"></path><path class="cls-1" d="M22.5 11.25a4.5 4.5 0 0 1-4.5-4.5" fill="none" stroke="#212121" stroke-linecap="round" stroke-linejoin="round" stroke-width="1.5px"></path><path class="cls-1" d="M1.5 11.25A4.5 4.5 0 0 0 6 6.75" fill="none" stroke="#212121" stroke-linecap="round" stroke-linejoin="round" stroke-width="1.5px"></path><path class="cls-1" d="M10.314 14.238a1.7 1.7 0 0 1 3.372 0l.736 4.742a1.5 1.5 0 0 0 1.478 1.27H21a1.5 1.5 0 0 0 1.5-1.5v-12h-21v12a1.5 1.5 0 0 0 1.5 1.5h5.1a1.5 1.5 0 0 0 1.483-1.27z" fill="none" stroke="#212121" stroke-linecap="round" stroke-linejoin="round" stroke-width="1.5px"></path></g></svg>