<svg xmlns="http://www.w3.org/2000/svg" width="24" height="24" viewBox="0 0 24 24"><title>show theater mask happy</title><g fill="#212121" class="nc-icon-wrapper"><defs></defs><path class="cls-1" d="M3.492.833A1.5 1.5 0 0 0 1.5 2.25v8.643a11.156 11.156 0 0 0 1.008 4.9c1.637 3.359 4.817 5.8 8.965 7.362a1.5 1.5 0 0 0 1.055 0c4.148-1.558 7.327-4 8.964-7.362a11.156 11.156 0 0 0 1.008-4.9V2.25A1.5 1.5 0 0 0 20.508.833a25.235 25.235 0 0 1-17.016 0z" fill="none" stroke="#212121" stroke-linecap="round" stroke-linejoin="round" stroke-width="1.5px"></path><path class="cls-1" d="M7.5 13.125A4.325 4.325 0 0 0 12 17.25a4.325 4.325 0 0 0 4.5-4.125" fill="none" stroke="#212121" stroke-linecap="round" stroke-linejoin="round" stroke-width="1.5px"></path><path class="cls-1" d="M9 8.625a1.875 1.875 0 0 0-3.75 0" fill="none" stroke="#212121" stroke-linecap="round" stroke-linejoin="round" stroke-width="1.5px"></path><path class="cls-1" d="M18.75 8.625a1.875 1.875 0 0 0-3.75 0" fill="none" stroke="#212121" stroke-linecap="round" stroke-linejoin="round" stroke-width="1.5px"></path></g></svg>