<svg xmlns="http://www.w3.org/2000/svg" width="24" height="24" viewBox="0 0 24 24"><title>show hat cards</title><g fill="#212121" class="nc-icon-wrapper"><defs></defs><path class="cls-1" d="M17.625 12l1.122 8.9a1.5 1.5 0 0 1-1.5 1.6H6.75a1.5 1.5 0 0 1-1.5-1.6L6.375 12" fill="none" stroke="#212121" stroke-linecap="round" stroke-linejoin="round" stroke-width="1.5px"></path><path class="cls-1" d="M18.098 15.75H5.902" fill="none" stroke="#212121" stroke-linecap="round" stroke-linejoin="round" stroke-width="1.5px"></path><path class="cls-1" d="M2.25 12h19.5" fill="none" stroke="#212121" stroke-linecap="round" stroke-linejoin="round" stroke-width="1.5px"></path><path class="cls-1" d="M6.375 9.063V2.25a.75.75 0 0 1 .75-.75h6a.75.75 0 0 1 .75.75V4.3" fill="none" stroke="#212121" stroke-linecap="round" stroke-linejoin="round" stroke-width="1.5px"></path><path class="cls-1" d="M10.743 9.465l.868-4.81a.751.751 0 0 1 .871-.605l5.905 1.067a.749.749 0 0 1 .605.871L17.906 12" fill="none" stroke="#212121" stroke-linecap="round" stroke-linejoin="round" stroke-width="1.5px"></path></g></svg>