<svg xmlns="http://www.w3.org/2000/svg" width="24" height="24" viewBox="0 0 24 24"><title>show rabbit hat</title><g fill="#212121" class="nc-icon-wrapper"><defs></defs><path class="cls-1" d="M6.5 14.25H17v8a1 1 0 0 1-1 1H7.5a1 1 0 0 1-1-1v-8z" fill="none" stroke="#212121" stroke-linecap="round" stroke-linejoin="round" stroke-width="1.5px"></path><path class="cls-1" d="M3.5 14.25H20" fill="none" stroke="#212121" stroke-linecap="round" stroke-linejoin="round" stroke-width="1.5px"></path><path class="cls-1" d="M7.812 11.32l-2.64-6.954A2.669 2.669 0 0 1 7.029.837a2.669 2.669 0 0 1 3.287 2.257l.759 5.956" fill="none" stroke="#212121" stroke-linecap="round" stroke-linejoin="round" stroke-width="1.5px"></path><path class="cls-1" d="M15.7 11.276l2.624-6.91A2.669 2.669 0 0 0 16.471.837a2.669 2.669 0 0 0-3.287 2.257l-.759 5.956" fill="none" stroke="#212121" stroke-linecap="round" stroke-linejoin="round" stroke-width="1.5px"></path><path class="cls-1" d="M6.5 17.25H17" fill="none" stroke="#212121" stroke-linecap="round" stroke-linejoin="round" stroke-width="1.5px"></path><path class="cls-1" d="M16.25 14.25v-.75a4.5 4.5 0 0 0-9 0v.75" fill="none" stroke="#212121" stroke-linecap="round" stroke-linejoin="round" stroke-width="1.5px"></path></g></svg>