<svg xmlns="http://www.w3.org/2000/svg" width="24" height="24" viewBox="0 0 24 24"><title>signal flag</title><g fill="#212121" class="nc-icon-wrapper"><defs></defs><circle class="a" cx="12.75" cy="3.375" r="2.625" fill="none" stroke="#212121" stroke-linecap="round" stroke-linejoin="round" stroke-width="1.5px"></circle><path class="a" d="M12.75 17.25v4.5" fill="none" stroke="#212121" stroke-linecap="round" stroke-linejoin="round" stroke-width="1.5px"></path><path class="a" d="M16.8 7.5a3 3 0 0 0 2.069-.827l1.82-1.734a1.5 1.5 0 0 1 2.122 2.122L20.385 9.58a3 3 0 0 1-2.161.92h-2.467l-.007 11.25a1.5 1.5 0 0 1-3 0 1.5 1.5 0 0 1-3 0V10.5h-4.5a1.5 1.5 0 0 1 0-3z" fill="none" stroke="#212121" stroke-linecap="round" stroke-linejoin="round" stroke-width="1.5px"></path><path class="a" d="M6.75 13.5v.75a1.5 1.5 0 0 1-1.5 1.5h-3a1.5 1.5 0 0 1-1.5-1.5v-4.5A.75.75 0 0 1 1.5 9h2.25" fill="none" stroke="#212121" stroke-linecap="round" stroke-linejoin="round" stroke-width="1.5px"></path></g></svg>