<svg xmlns="http://www.w3.org/2000/svg" width="24" height="24" viewBox="0 0 24 24"><title>single woman actions block</title><g fill="#212121" class="nc-icon-wrapper"><defs></defs><path class="cls-1" d="M11.241 17.249a6 6 0 1 1 6 6 6 6 0 0 1-6-6z" fill="none" stroke="#212121" stroke-linecap="round" stroke-linejoin="round" stroke-width="1.5px"></path><path class="cls-1" d="M13 21.49l8.483-8.484" fill="none" stroke="#212121" stroke-linecap="round" stroke-linejoin="round" stroke-width="1.5px"></path><path class="cls-1" d="M3.376 4.987v1a5.91 5.91 0 0 1-.859 3.273" fill="none" stroke="#212121" stroke-linecap="round" stroke-linejoin="round" stroke-width="1.5px"></path><path class="cls-1" d="M11.623 4.987v1a5.909 5.909 0 0 0 .86 3.273" fill="none" stroke="#212121" stroke-linecap="round" stroke-linejoin="round" stroke-width="1.5px"></path><path class="cls-1" d="M3.388 5.206a5.487 5.487 0 0 0 4.112-1.9 5.487 5.487 0 0 0 4.112 1.9" fill="none" stroke="#212121" stroke-linecap="round" stroke-linejoin="round" stroke-width="1.5px"></path><circle class="cls-1" cx="7.5" cy="4.876" r="4.125" fill="none" stroke="#212121" stroke-linecap="round" stroke-linejoin="round" stroke-width="1.5px"></circle><path class="cls-1" d="M.75 17.251a6.753 6.753 0 0 1 9.4-6.208" fill="none" stroke="#212121" stroke-linecap="round" stroke-linejoin="round" stroke-width="1.5px"></path></g></svg>