<svg xmlns="http://www.w3.org/2000/svg" width="24" height="24" viewBox="0 0 24 24"><title>single man actions video 2</title><g fill="#212121" class="nc-icon-wrapper"><defs></defs><path class="cls-1" d="M23.25 15.75l-3 1v-1a1.5 1.5 0 0 0-1.5-1.5h-6a1.5 1.5 0 0 0-1.5 1.5v6a1.5 1.5 0 0 0 1.5 1.5h6a1.5 1.5 0 0 0 1.5-1.5v-1l3 1z" fill="none" stroke="#212121" stroke-linecap="round" stroke-linejoin="round" stroke-width="1.5px"></path><path class="cls-1" d="M.75 17.25a6.753 6.753 0 0 1 9.75-6.05" fill="none" stroke="#212121" stroke-linecap="round" stroke-linejoin="round" stroke-width="1.5px"></path><path class="cls-1" d="M3.945 2.781a6.848 6.848 0 0 0 4.93 2.094 6.847 6.847 0 0 0 2.712-.558" fill="none" stroke="#212121" stroke-linecap="round" stroke-linejoin="round" stroke-width="1.5px"></path><circle class="cls-1" cx="7.5" cy="4.875" r="4.125" fill="none" stroke="#212121" stroke-linecap="round" stroke-linejoin="round" stroke-width="1.5px"></circle></g></svg>