<svg xmlns="http://www.w3.org/2000/svg" width="24" height="24" viewBox="0 0 24 24"><title>single woman actions setting 2</title><g fill="#212121" class="nc-icon-wrapper"><defs></defs><circle class="cls-1" cx="17.25" cy="16.5" r="1.5" fill="none" stroke="#212121" stroke-linecap="round" stroke-linejoin="round" stroke-width="1.5px"></circle><path class="cls-1" d="M18.524 10.7l.442 1.453a.993.993 0 0 0 1.173.681l1.473-.341a1.338 1.338 0 0 1 1.274 2.218l-1.03 1.111a1 1 0 0 0 0 1.362l1.03 1.111a1.338 1.338 0 0 1-1.274 2.218l-1.473-.341a.993.993 0 0 0-1.173.681l-.442 1.447a1.331 1.331 0 0 1-2.549 0l-.442-1.453a.993.993 0 0 0-1.173-.681l-1.473.341a1.338 1.338 0 0 1-1.274-2.218l1.03-1.111a1 1 0 0 0 0-1.362l-1.03-1.111a1.338 1.338 0 0 1 1.274-2.218l1.473.341a.993.993 0 0 0 1.173-.681l.442-1.453a1.331 1.331 0 0 1 2.549.006z" fill="none" stroke="#212121" stroke-linecap="round" stroke-linejoin="round" stroke-width="1.5px"></path><path class="cls-1" d="M3.376 4.986v1a5.918 5.918 0 0 1-.859 3.273" fill="none" stroke="#212121" stroke-linecap="round" stroke-linejoin="round" stroke-width="1.5px"></path><path class="cls-1" d="M11.623 4.986v1a5.909 5.909 0 0 0 .86 3.273" fill="none" stroke="#212121" stroke-linecap="round" stroke-linejoin="round" stroke-width="1.5px"></path><path class="cls-1" d="M3.387 5.205a5.489 5.489 0 0 0 4.113-1.9 5.486 5.486 0 0 0 4.112 1.9" fill="none" stroke="#212121" stroke-linecap="round" stroke-linejoin="round" stroke-width="1.5px"></path><circle class="cls-1" cx="7.5" cy="4.875" r="4.125" fill="none" stroke="#212121" stroke-linecap="round" stroke-linejoin="round" stroke-width="1.5px"></circle><path class="cls-1" d="M.75 17.25a6.753 6.753 0 0 1 9.4-6.208" fill="none" stroke="#212121" stroke-linecap="round" stroke-linejoin="round" stroke-width="1.5px"></path></g></svg>