<svg xmlns="http://www.w3.org/2000/svg" width="24" height="24" viewBox="0 0 24 24"><title>single woman actions graduate</title><g fill="#212121" class="nc-icon-wrapper"><defs></defs><path class="cls-1" d="M16.5 14.308l-6.75 2.78 6.75 2.47 6.75-2.47-6.75-2.78z" fill="none" stroke="#212121" stroke-linecap="round" stroke-linejoin="round" stroke-width="1.5px"></path><path class="cls-1" d="M9.75 17.066v3.772" fill="none" stroke="#212121" stroke-linecap="round" stroke-linejoin="round" stroke-width="1.5px"></path><path class="cls-1" d="M12.75 18.186V21.3a.75.75 0 0 0 .471.7l3 1.2a.755.755 0 0 0 .557 0l3-1.2a.751.751 0 0 0 .472-.7v-3.114" fill="none" stroke="#212121" stroke-linecap="round" stroke-linejoin="round" stroke-width="1.5px"></path><circle class="cls-1" cx="6" cy="3.75" r="3" fill="none" stroke="#212121" stroke-linecap="round" stroke-linejoin="round" stroke-width="1.5px"></circle><path class="cls-1" d="M11.25 13.5a5.243 5.243 0 0 0-2.365-4.385L6 13.5 3.114 9.115A5.244 5.244 0 0 0 .75 13.5v2.25H3l.75 7.5h4.5" fill="none" stroke="#212121" stroke-linecap="round" stroke-linejoin="round" stroke-width="1.5px"></path><path class="cls-1" d="M3 3.75S3 7.5.75 7.5" fill="none" stroke="#212121" stroke-linecap="round" stroke-linejoin="round" stroke-width="1.5px"></path><path class="cls-1" d="M9 3.75S9 7.5 11.25 7.5" fill="none" stroke="#212121" stroke-linecap="round" stroke-linejoin="round" stroke-width="1.5px"></path></g></svg>