<svg xmlns="http://www.w3.org/2000/svg" width="24" height="24" viewBox="0 0 24 24"><title>single neutral actions location</title><g fill="#212121" class="nc-icon-wrapper"><defs></defs><path class="cls-1" d="M18.75 15.443a.375.375 0 1 1-.375.375.375.375 0 0 1 .375-.375" fill="none" stroke="#212121" stroke-linecap="round" stroke-linejoin="round" stroke-width="1.5px"></path><path class="cls-1" d="M18.75 11.318a4.5 4.5 0 0 1 4.5 4.5c0 1.92-2.688 5.576-3.909 7.138a.751.751 0 0 1-1.183 0c-1.221-1.561-3.908-5.217-3.908-7.137a4.5 4.5 0 0 1 4.5-4.501z" fill="none" stroke="#212121" stroke-linecap="round" stroke-linejoin="round" stroke-width="1.5px"></path><circle class="cls-1" cx="7.5" cy="4.881" r="4.125" fill="none" stroke="#212121" stroke-linecap="round" stroke-linejoin="round" stroke-width="1.5px"></circle><path class="cls-1" d="M12.21 12.431A6.743 6.743 0 0 0 .75 17.256" fill="none" stroke="#212121" stroke-linecap="round" stroke-linejoin="round" stroke-width="1.5px"></path></g></svg>