<svg xmlns="http://www.w3.org/2000/svg" width="24" height="24" viewBox="0 0 24 24"><title>single man actions address 2</title><g fill="#212121" class="nc-icon-wrapper"><defs></defs><path class="cls-1" d="M.75 17.25a6.753 6.753 0 0 1 9.4-6.208" fill="none" stroke="#212121" stroke-linecap="round" stroke-linejoin="round" stroke-width="1.5px"></path><path class="cls-1" d="M3.945 2.781a6.848 6.848 0 0 0 4.93 2.094 6.847 6.847 0 0 0 2.712-.558" fill="none" stroke="#212121" stroke-linecap="round" stroke-linejoin="round" stroke-width="1.5px"></path><circle class="cls-1" cx="7.5" cy="4.875" r="4.125" fill="none" stroke="#212121" stroke-linecap="round" stroke-linejoin="round" stroke-width="1.5px"></circle><circle class="cls-1" cx="17.25" cy="17.25" r="2.25" fill="none" stroke="#212121" stroke-linecap="round" stroke-linejoin="round" stroke-width="1.5px"></circle><path class="cls-1" d="M19.5 17.25v1.125a1.875 1.875 0 0 0 1.875 1.875 1.876 1.876 0 0 0 1.875-1.875v-.847a6.186 6.186 0 0 0-5.845-6.276 6 6 0 0 0-1.577 11.834 6.128 6.128 0 0 0 2.966-.037" fill="none" stroke="#212121" stroke-linecap="round" stroke-linejoin="round" stroke-width="1.5px"></path></g></svg>