<svg xmlns="http://www.w3.org/2000/svg" width="24" height="24" viewBox="0 0 24 24"><title>single woman briefcase</title><g fill="#212121" class="nc-icon-wrapper"><defs></defs><circle class="cls-1" cx="6" cy="3.75" r="3" fill="none" stroke="#212121" stroke-linecap="round" stroke-linejoin="round" stroke-width="1.5px"></circle><path class="cls-1" d="M10.744 11.249a5.276 5.276 0 0 0-1.858-2.135L6 13.5 3.114 9.114A5.246 5.246 0 0 0 .75 13.5v2.25H3l.75 7.5h4.5l.281-2.81" fill="none" stroke="#212121" stroke-linecap="round" stroke-linejoin="round" stroke-width="1.5px"></path><path class="cls-1" d="M3 3.75S3 7.5.75 7.5" fill="none" stroke="#212121" stroke-linecap="round" stroke-linejoin="round" stroke-width="1.5px"></path><path class="cls-1" d="M9 3.75S9 7.5 11.25 7.5" fill="none" stroke="#212121" stroke-linecap="round" stroke-linejoin="round" stroke-width="1.5px"></path><rect class="cls-1" x="11.25" y="14.25" width="12" height="9" rx=".75" ry=".75" fill="none" stroke="#212121" stroke-linecap="round" stroke-linejoin="round" stroke-width="1.5px"></rect><path class="cls-1" d="M11.25 17.25h12" fill="none" stroke="#212121" stroke-linecap="round" stroke-linejoin="round" stroke-width="1.5px"></path><path class="cls-1" d="M17.25 17.25v1.5" fill="none" stroke="#212121" stroke-linecap="round" stroke-linejoin="round" stroke-width="1.5px"></path><path class="cls-1" d="M18 11.25h-1.5a1.5 1.5 0 0 0-1.5 1.5v1.5h4.5v-1.5a1.5 1.5 0 0 0-1.5-1.5z" fill="none" stroke="#212121" stroke-linecap="round" stroke-linejoin="round" stroke-width="1.5px"></path></g></svg>