<svg xmlns="http://www.w3.org/2000/svg" width="24" height="24" viewBox="0 0 24 24"><title>single woman money</title><g fill="#212121" class="nc-icon-wrapper"><defs></defs><path class="cls-1" d="M18.75 3.75h-2.033a1.342 1.342 0 0 0-.5 2.587l2.064.825a1.342 1.342 0 0 1-.5 2.588H15.75" fill="none" stroke="#212121" stroke-linecap="round" stroke-linejoin="round" stroke-width="1.5px"></path><path class="cls-1" d="M17.25 3.754V3" fill="none" stroke="#212121" stroke-linecap="round" stroke-linejoin="round" stroke-width="1.5px"></path><path class="cls-1" d="M17.25 10.5v-.746" fill="none" stroke="#212121" stroke-linecap="round" stroke-linejoin="round" stroke-width="1.5px"></path><circle class="cls-1" cx="17.25" cy="6.75" r="6" fill="none" stroke="#212121" stroke-linecap="round" stroke-linejoin="round" stroke-width="1.5px"></circle><circle class="cls-1" cx="5.25" cy="3.75" r="3" fill="none" stroke="#212121" stroke-linecap="round" stroke-linejoin="round" stroke-width="1.5px"></circle><path class="cls-1" d="M8.034 9.216L5.25 12.75 2.466 9.216A4.489 4.489 0 0 0 .75 12.75v3h1.5l.75 7.5h4.5l.75-7.5h1.5v-3a4.489 4.489 0 0 0-1.716-3.534z" fill="none" stroke="#212121" stroke-linecap="round" stroke-linejoin="round" stroke-width="1.5px"></path><path class="cls-1" d="M2.25 3.75s0 3-1.5 3" fill="none" stroke="#212121" stroke-linecap="round" stroke-linejoin="round" stroke-width="1.5px"></path></g></svg>