<svg xmlns="http://www.w3.org/2000/svg" width="24" height="24" viewBox="0 0 24 24"><title>single man focus</title><g fill="#212121" class="nc-icon-wrapper"><defs></defs><path class="cls-1" d="M8.445 6.531a6.858 6.858 0 0 0 7.643 1.536" fill="none" stroke="#212121" stroke-linecap="round" stroke-linejoin="round" stroke-width="1.5px"></path><circle class="cls-1" cx="12" cy="8.625" r="4.125" fill="none" stroke="#212121" stroke-linecap="round" stroke-linejoin="round" stroke-width="1.5px"></circle><path class="cls-1" d="M.75 6.751V2.25a1.5 1.5 0 0 1 1.5-1.5h4.5" fill="none" stroke="#212121" stroke-linecap="round" stroke-linejoin="round" stroke-width="1.5px"></path><path class="cls-1" d="M23.25 6.751V2.25a1.5 1.5 0 0 0-1.5-1.5h-4.5" fill="none" stroke="#212121" stroke-linecap="round" stroke-linejoin="round" stroke-width="1.5px"></path><path class="cls-1" d="M.75 17.25v4.5a1.5 1.5 0 0 0 1.5 1.5h4.5" fill="none" stroke="#212121" stroke-linecap="round" stroke-linejoin="round" stroke-width="1.5px"></path><path class="cls-1" d="M23.25 17.25v4.5a1.5 1.5 0 0 1-1.5 1.5h-4.5" fill="none" stroke="#212121" stroke-linecap="round" stroke-linejoin="round" stroke-width="1.5px"></path><path class="cls-1" d="M18.337 18.75a6.712 6.712 0 0 0-12.674 0" fill="none" stroke="#212121" stroke-linecap="round" stroke-linejoin="round" stroke-width="1.5px"></path></g></svg>