<svg xmlns="http://www.w3.org/2000/svg" width="24" height="24" viewBox="0 0 24 24"><title>single woman actions key 2</title><g fill="#212121" class="nc-icon-wrapper"><defs></defs><path class="cls-1" d="M15.575 18.925a.375.375 0 1 1-.531 0 .375.375 0 0 1 .531 0" fill="none" stroke="#212121" stroke-linecap="round" stroke-linejoin="round" stroke-width="1.5px"></path><path class="cls-1" d="M19.086 17.71l3.688-3.688a1.624 1.624 0 1 0-2.3-2.3l-3.684 3.691a4.061 4.061 0 1 0 2.3 2.3z" fill="none" stroke="#212121" stroke-linecap="round" stroke-linejoin="round" stroke-width="1.5px"></path><circle class="cls-1" cx="6" cy="3.75" r="3" fill="none" stroke="#212121" stroke-linecap="round" stroke-linejoin="round" stroke-width="1.5px"></circle><path class="cls-1" d="M8.25 23.25l.75-7.5h2.25V13.5a5.244 5.244 0 0 0-2.365-4.386L6 13.5 3.114 9.114A5.246 5.246 0 0 0 .75 13.5v2.25H3l.75 7.5z" fill="none" stroke="#212121" stroke-linecap="round" stroke-linejoin="round" stroke-width="1.5px"></path><path class="cls-1" d="M3 3.75S3 7.5.75 7.5" fill="none" stroke="#212121" stroke-linecap="round" stroke-linejoin="round" stroke-width="1.5px"></path><path class="cls-1" d="M9 3.75S9 7.5 11.25 7.5" fill="none" stroke="#212121" stroke-linecap="round" stroke-linejoin="round" stroke-width="1.5px"></path></g></svg>