<svg xmlns="http://www.w3.org/2000/svg" width="24" height="24" viewBox="0 0 24 24"><title>skateboard person 1</title><g fill="#212121" class="nc-icon-wrapper"><defs></defs><path class="cls-1" d="M15.75 20.25v-2.468a5.965 5.965 0 0 0-3.279-5.345l2.443-2.687H21a1.5 1.5 0 0 0 0-3H5.25a1.5 1.5 0 0 0 0 3h5.609l-4.327 4.759A1.5 1.5 0 0 1 5.423 15H3a1.5 1.5 0 0 0 0 3h2.423a4.507 4.507 0 0 0 3.329-1.472l1.625-1.787.715.357a2.985 2.985 0 0 1 1.658 2.684v2.468" fill="none" stroke="#212121" stroke-linecap="round" stroke-linejoin="round" stroke-width="1.5px"></path><path class="cls-1" d="M6.75 20.25H21" fill="none" stroke="#212121" stroke-linecap="round" stroke-linejoin="round" stroke-width="1.5px"></path><circle class="cls-1" cx="9.75" cy="21.75" r="1.5" fill="none" stroke="#212121" stroke-linecap="round" stroke-linejoin="round" stroke-width="1.5px"></circle><circle class="cls-1" cx="18" cy="21.75" r="1.5" fill="none" stroke="#212121" stroke-linecap="round" stroke-linejoin="round" stroke-width="1.5px"></circle><circle class="cls-1" cx="15.75" cy="3.375" r="2.625" fill="none" stroke="#212121" stroke-linecap="round" stroke-linejoin="round" stroke-width="1.5px"></circle></g></svg>