<svg xmlns="http://www.w3.org/2000/svg" width="24" height="24" viewBox="0 0 24 24"><title>skateboard</title><g fill="#212121" class="nc-icon-wrapper"><defs></defs><path class="cls-1" d="M5.856 10.1a1.5 1.5 0 0 0-2.122 0l-1.591 1.589a1.5 1.5 0 0 0 2.122 2.122l1.591-1.591a1.5 1.5 0 0 0 0-2.12z" fill="none" stroke="#212121" stroke-linecap="round" stroke-linejoin="round" stroke-width="1.5px"></path><path class="cls-1" d="M13.9 18.144a1.5 1.5 0 0 0-2.122 0l-1.591 1.591a1.5 1.5 0 0 0 2.122 2.122l1.591-1.591a1.5 1.5 0 0 0 0-2.122z" fill="none" stroke="#212121" stroke-linecap="round" stroke-linejoin="round" stroke-width="1.5px"></path><path class="cls-1" d="M10.1 5.856a1.5 1.5 0 0 1 0-2.122l1.591-1.591a1.5 1.5 0 0 1 2.122 2.122L12.22 5.856a1.5 1.5 0 0 1-2.12 0z" fill="none" stroke="#212121" stroke-linecap="round" stroke-linejoin="round" stroke-width="1.5px"></path><path class="cls-1" d="M18.144 13.9a1.5 1.5 0 0 1 0-2.122l1.591-1.591a1.5 1.5 0 0 1 2.122 2.122L20.266 13.9a1.5 1.5 0 0 1-2.122 0z" fill="none" stroke="#212121" stroke-linecap="round" stroke-linejoin="round" stroke-width="1.5px"></path><path class="cls-1" d="M13.819 2.153a5.689 5.689 0 0 1 8.028 8.027" fill="none" stroke="#212121" stroke-linecap="round" stroke-linejoin="round" stroke-width="1.5px"></path><path class="cls-1" d="M5.856 10.098l4.242-4.242" fill="none" stroke="#212121" stroke-linecap="round" stroke-linejoin="round" stroke-width="1.5px"></path><path class="cls-1" d="M10.181 21.847a5.69 5.69 0 0 1-8.028-8.028" fill="none" stroke="#212121" stroke-linecap="round" stroke-linejoin="round" stroke-width="1.5px"></path><path class="cls-1" d="M18.144 13.902l-4.242 4.242" fill="none" stroke="#212121" stroke-linecap="round" stroke-linejoin="round" stroke-width="1.5px"></path><path class="cls-1" d="M18.939 10.985L13.015 5.06" fill="none" stroke="#212121" stroke-linecap="round" stroke-linejoin="round" stroke-width="1.5px"></path><path class="cls-1" d="M10.985 18.94l-5.924-5.924" fill="none" stroke="#212121" stroke-linecap="round" stroke-linejoin="round" stroke-width="1.5px"></path></g></svg>