<svg xmlns="http://www.w3.org/2000/svg" width="24" height="24" viewBox="0 0 24 24"><title>skating 1</title><g fill="#212121" class="nc-icon-wrapper"><defs></defs><path class="cls-1" d="M1.75 18h5.424a4.5 4.5 0 0 0 3.326-1.473l1.624-1.786.715.357a3 3 0 0 1 1.661 2.684v5.468" fill="none" stroke="#212121" stroke-linecap="round" stroke-linejoin="round" stroke-width="1.5px"></path><path class="cls-1" d="M17.5 23.25v-5.468a5.966 5.966 0 0 0-3.278-5.345l2.888-3.178A1.5 1.5 0 0 0 16 6.75H7a1.5 1.5 0 0 0 0 3h5.609l-4.326 4.759a1.5 1.5 0 0 1-1.11.491H1.75" fill="none" stroke="#212121" stroke-linecap="round" stroke-linejoin="round" stroke-width="1.5px"></path><circle class="cls-1" cx="20.5" cy="3.375" r="2.625" fill="none" stroke="#212121" stroke-linecap="round" stroke-linejoin="round" stroke-width="1.5px"></circle><path class="cls-1" d="M20.5 21.75a1.5 1.5 0 0 1-1.5 1.5h-7.5" fill="none" stroke="#212121" stroke-linecap="round" stroke-linejoin="round" stroke-width="1.5px"></path><path class="cls-1" d="M3.25 21a1.5 1.5 0 0 1-1.5-1.5V12" fill="none" stroke="#212121" stroke-linecap="round" stroke-linejoin="round" stroke-width="1.5px"></path><path class="cls-1" d="M4.75 15v3" fill="none" stroke="#212121" stroke-linecap="round" stroke-linejoin="round" stroke-width="1.5px"></path><path class="cls-1" d="M14.5 20.25h3" fill="none" stroke="#212121" stroke-linecap="round" stroke-linejoin="round" stroke-width="1.5px"></path></g></svg>