<svg xmlns="http://www.w3.org/2000/svg" width="24" height="24" viewBox="0 0 24 24"><title>skirt 1</title><g fill="#212121" class="nc-icon-wrapper"><defs></defs><path class="cls-1" d="M5.25.75h13.5v3H5.25z" fill="none" stroke="#212121" stroke-linecap="round" stroke-linejoin="round" stroke-width="1.5px"></path><path class="cls-1" d="M5.25 3.75s-3 1.5-3 4.5c0 2.638 0 8.175-1.02 9.983a.751.751 0 0 0 .29 1.025 8.2 8.2 0 0 0 3.98.992" fill="none" stroke="#212121" stroke-linecap="round" stroke-linejoin="round" stroke-width="1.5px"></path><path class="cls-1" d="M18.75 3.75s3 1.5 3 4.5c0 2.638 0 8.175 1.02 9.983a.751.751 0 0 1-.29 1.025 8.2 8.2 0 0 1-3.976.992" fill="none" stroke="#212121" stroke-linecap="round" stroke-linejoin="round" stroke-width="1.5px"></path><path class="cls-1" d="M14.25 3.75s3 3 3 9a21.735 21.735 0 0 0 1.792 8.839.75.75 0 0 1-.586 1.053c-1.648.218-4.833.608-6.456.608s-4.808-.39-6.456-.608a.75.75 0 0 1-.586-1.053A21.735 21.735 0 0 0 6.75 12.75c0-6 3-9 3-9" fill="none" stroke="#212121" stroke-linecap="round" stroke-linejoin="round" stroke-width="1.5px"></path><path class="cls-1" d="M12 3.75v19.5" fill="none" stroke="#212121" stroke-linecap="round" stroke-linejoin="round" stroke-width="1.5px"></path></g></svg>