<svg xmlns="http://www.w3.org/2000/svg" width="24" height="24" viewBox="0 0 24 24"><title>smart watch square ringing</title><g fill="#212121" class="nc-icon-wrapper"><defs></defs><rect class="a" x="3.75" y="3.75" width="16.5" height="16.5" rx="3" ry="3" fill="none" stroke="#212121" stroke-linecap="round" stroke-linejoin="round" stroke-width="1.5px"></rect><path class="a" d="M17.25 3.75H6.75v-1.5a1.5 1.5 0 0 1 1.5-1.5h7.5a1.5 1.5 0 0 1 1.5 1.5z" fill="none" stroke="#212121" stroke-linecap="round" stroke-linejoin="round" stroke-width="1.5px"></path><path class="a" d="M15.75 23.25h-7.5a1.5 1.5 0 0 1-1.5-1.5v-1.5h10.5v1.5a1.5 1.5 0 0 1-1.5 1.5z" fill="none" stroke="#212121" stroke-linecap="round" stroke-linejoin="round" stroke-width="1.5px"></path><path class="a" d="M9.838 12.422V15.2A1.235 1.235 0 0 1 8.6 16.432h-.615A1.235 1.235 0 0 1 6.75 15.2v-.536a1.235 1.235 0 0 1 .6-1.059A8.353 8.353 0 0 1 12 12.109a8.285 8.285 0 0 1 4.65 1.491 1.235 1.235 0 0 1 .6 1.059v.541a1.235 1.235 0 0 1-1.235 1.235H15.4a1.235 1.235 0 0 1-1.238-1.235v-2.771" fill="none" stroke="#212121" stroke-linecap="round" stroke-linejoin="round" stroke-width="1.5px"></path><path class="a" d="M12 9V6.75" fill="none" stroke="#212121" stroke-linecap="round" stroke-linejoin="round" stroke-width="1.5px"></path><path class="a" d="M15 9.75l.75-1.5" fill="none" stroke="#212121" stroke-linecap="round" stroke-linejoin="round" stroke-width="1.5px"></path><path class="a" d="M9 9.75l-.75-1.5" fill="none" stroke="#212121" stroke-linecap="round" stroke-linejoin="round" stroke-width="1.5px"></path></g></svg>