<svg xmlns="http://www.w3.org/2000/svg" width="24" height="24" viewBox="0 0 24 24"><title>smart light signal</title><g fill="#212121" class="nc-icon-wrapper"><defs></defs><path class="cls-1" d="M4.045 21.455a11.25 11.25 0 1 1 15.91 0" fill="none" stroke="#212121" stroke-linecap="round" stroke-linejoin="round" stroke-width="1.5px"></path><path class="cls-1" d="M6.166 19.334a8.251 8.251 0 1 1 11.668 0" fill="none" stroke="#212121" stroke-linecap="round" stroke-linejoin="round" stroke-width="1.5px"></path><path class="cls-1" d="M12.75 20.25h-1.5a1.5 1.5 0 0 1-1.5-1.5V16.5h4.5v2.25a1.5 1.5 0 0 1-1.5 1.5z" fill="none" stroke="#212121" stroke-linecap="round" stroke-linejoin="round" stroke-width="1.5px"></path><path class="cls-1" d="M12 9.75a3.75 3.75 0 0 0-2.25 6.75h4.5A3.75 3.75 0 0 0 12 9.75z" fill="none" stroke="#212121" stroke-linecap="round" stroke-linejoin="round" stroke-width="1.5px"></path><path class="cls-1" d="M12 20.25v1.5" fill="none" stroke="#212121" stroke-linecap="round" stroke-linejoin="round" stroke-width="1.5px"></path></g></svg>