<svg xmlns="http://www.w3.org/2000/svg" width="24" height="24" viewBox="0 0 24 24"><title>smart watch circle missed call</title><g fill="#212121" class="nc-icon-wrapper"><defs></defs><path class="a" d="M14.083 13.5A6.751 6.751 0 1 1 7.5 5.25" fill="none" stroke="#212121" stroke-linecap="round" stroke-linejoin="round" stroke-width="1.5px"></path><path class="a" d="M3 6.97V2.25A1.5 1.5 0 0 1 4.5.75H9" fill="none" stroke="#212121" stroke-linecap="round" stroke-linejoin="round" stroke-width="1.5px"></path><path class="a" d="M12 17.03v4.72a1.5 1.5 0 0 1-1.5 1.5h-6a1.5 1.5 0 0 1-1.5-1.5v-4.72" fill="none" stroke="#212121" stroke-linecap="round" stroke-linejoin="round" stroke-width="1.5px"></path><path class="a" d="M16.27 11.589L18.659 9.2a1.5 1.5 0 0 1 2.121 0l.531.53a1.5 1.5 0 0 1 0 2.121l-.46.461a1.5 1.5 0 0 1-1.425.394l-.872-.218a9.479 9.479 0 0 1-6.9-6.895l-.218-.873a1.5 1.5 0 0 1 .4-1.424l.46-.46a1.5 1.5 0 0 1 2.121 0l.531.53a1.5 1.5 0 0 1 0 2.122l-2.395 2.38" fill="none" stroke="#212121" stroke-linecap="round" stroke-linejoin="round" stroke-width="1.5px"></path><path class="a" d="M18.75 2.25v3h3" fill="none" stroke="#212121" stroke-linecap="round" stroke-linejoin="round" stroke-width="1.5px"></path><path class="a" d="M18.75 5.25l4.5-4.5" fill="none" stroke="#212121" stroke-linecap="round" stroke-linejoin="round" stroke-width="1.5px"></path></g></svg>