<svg xmlns="http://www.w3.org/2000/svg" width="24" height="24" viewBox="0 0 24 24"><title>smart watch circle microphone</title><g fill="#212121" class="nc-icon-wrapper"><defs></defs><path class="a" d="M13.878 17.031v4.719a1.5 1.5 0 0 1-1.5 1.5h-6a1.5 1.5 0 0 1-1.5-1.5v-4.719" fill="none" stroke="#212121" stroke-linecap="round" stroke-linejoin="round" stroke-width="1.5px"></path><path class="a" d="M4.878 6.969V2.25a1.5 1.5 0 0 1 1.5-1.5h6" fill="none" stroke="#212121" stroke-linecap="round" stroke-linejoin="round" stroke-width="1.5px"></path><path class="a" d="M17.624 6.75a2.25 2.25 0 0 1-2.25-2.25V3a2.25 2.25 0 0 1 2.25-2.25A2.25 2.25 0 0 1 19.874 3v1.5a2.25 2.25 0 0 1-2.25 2.25z" fill="none" stroke="#212121" stroke-linecap="round" stroke-linejoin="round" stroke-width="1.5px"></path><path class="a" d="M21.374 8.174a5.232 5.232 0 0 1-3.75 1.576 5.234 5.234 0 0 1-3.746-1.571" fill="none" stroke="#212121" stroke-linecap="round" stroke-linejoin="round" stroke-width="1.5px"></path><path class="a" d="M17.624 9.75V12" fill="none" stroke="#212121" stroke-linecap="round" stroke-linejoin="round" stroke-width="1.5px"></path><path class="a" d="M15.427 15a6.748 6.748 0 1 1-3.48-9.244" fill="none" stroke="#212121" stroke-linecap="round" stroke-linejoin="round" stroke-width="1.5px"></path></g></svg>