<svg xmlns="http://www.w3.org/2000/svg" width="24" height="24" viewBox="0 0 24 24"><title>smart watch wrist</title><g fill="#212121" class="nc-icon-wrapper"><defs></defs><path class="a" d="M11.25 2.342a7.155 7.155 0 0 0-9 0" fill="none" stroke="#212121" stroke-linecap="round" stroke-linejoin="round" stroke-width="1.5px"></path><path class="a" d="M4.125 5.136a4.177 4.177 0 0 1 5.25 0" fill="none" stroke="#212121" stroke-linecap="round" stroke-linejoin="round" stroke-width="1.5px"></path><path class="a" d="M9.75 11.25h-6l.75-3H9l.75 3z" fill="none" stroke="#212121" stroke-linecap="round" stroke-linejoin="round" stroke-width="1.5px"></path><path class="a" d="M9 23.25H4.5l-.75-3h6l-.75 3z" fill="none" stroke="#212121" stroke-linecap="round" stroke-linejoin="round" stroke-width="1.5px"></path><rect class="a" x="2.25" y="11.25" width="9" height="9" rx="1.5" ry="1.5" fill="none" stroke="#212121" stroke-linecap="round" stroke-linejoin="round" stroke-width="1.5px"></rect><path class="a" d="M4.125 9.75H.75" fill="none" stroke="#212121" stroke-linecap="round" stroke-linejoin="round" stroke-width="1.5px"></path><path class="a" d="M4.125 21.75H.75" fill="none" stroke="#212121" stroke-linecap="round" stroke-linejoin="round" stroke-width="1.5px"></path><path class="a" d="M9.375 9.75h3.375l1.733-.867a6.007 6.007 0 0 1 2.683-.633h3.084a3 3 0 0 1 3 3v6a3 3 0 0 1-3 3h-3" fill="none" stroke="#212121" stroke-linecap="round" stroke-linejoin="round" stroke-width="1.5px"></path><path class="a" d="M9.375 21.75h3.375l1.733.867a6.007 6.007 0 0 0 2.683.633h.084a3 3 0 0 0 3-3" fill="none" stroke="#212121" stroke-linecap="round" stroke-linejoin="round" stroke-width="1.5px"></path></g></svg>