<svg xmlns="http://www.w3.org/2000/svg" width="24" height="24" viewBox="0 0 24 24"><title>smart house door</title><g fill="#212121" class="nc-icon-wrapper"><defs></defs><path class="a" d="M5.25 12.75V6.862a1.5 1.5 0 0 1 .744-1.3L14.25.75l8.256 4.816a1.5 1.5 0 0 1 .744 1.3V18.75a1.5 1.5 0 0 1-1.5 1.5h-9.437" fill="none" stroke="#212121" stroke-linecap="round" stroke-linejoin="round" stroke-width="1.5px"></path><path class="a" d="M2.438 20.654a3.978 3.978 0 0 1 5.625 0" fill="none" stroke="#212121" stroke-linecap="round" stroke-linejoin="round" stroke-width="1.5px"></path><path class="a" d="M.75 17.989a6.364 6.364 0 0 1 9 0" fill="none" stroke="#212121" stroke-linecap="round" stroke-linejoin="round" stroke-width="1.5px"></path><path class="a" d="M5.25 22.5a.375.375 0 1 1-.375.375.375.375 0 0 1 .375-.375" fill="none" stroke="#212121" stroke-linecap="round" stroke-linejoin="round" stroke-width="1.5px"></path><path class="a" d="M14.75 10.25a.25.25 0 1 1-.25.25.25.25 0 0 1 .25-.25" fill="none" stroke="#212121" stroke-linecap="round" stroke-linejoin="round" stroke-width="1.5px"></path><rect class="a" x="11.25" y="6" width="6" height="9" rx=".75" ry=".75" fill="none" stroke="#212121" stroke-linecap="round" stroke-linejoin="round" stroke-width="1.5px"></rect></g></svg>