<svg xmlns="http://www.w3.org/2000/svg" width="24" height="24" viewBox="0 0 24 24"><title>smart watch circle flash</title><g fill="#212121" class="nc-icon-wrapper"><defs></defs><path class="a" d="M4.117 6.97V2.25a1.5 1.5 0 0 1 1.5-1.5h6" fill="none" stroke="#212121" stroke-linecap="round" stroke-linejoin="round" stroke-width="1.5px"></path><path class="a" d="M13.117 17v4.75a1.5 1.5 0 0 1-1.5 1.5h-6a1.5 1.5 0 0 1-1.5-1.5v-4.72" fill="none" stroke="#212121" stroke-linecap="round" stroke-linejoin="round" stroke-width="1.5px"></path><path class="a" d="M19.117.75l-5.911 6.882a.375.375 0 0 0 .286.618h2.625v6l5.91-6.882a.375.375 0 0 0-.285-.618h-2.625z" fill="none" stroke="#212121" stroke-linecap="round" stroke-linejoin="round" stroke-width="1.5px"></path><path class="a" d="M10.867 5.663A6.742 6.742 0 1 0 13.615 16.5" fill="none" stroke="#212121" stroke-linecap="round" stroke-linejoin="round" stroke-width="1.5px"></path></g></svg>