<svg xmlns="http://www.w3.org/2000/svg" width="24" height="24" viewBox="0 0 24 24"><title>smart watch square music</title><g fill="#212121" class="nc-icon-wrapper"><defs></defs><rect class="a" x="3.75" y="3.75" width="16.5" height="16.5" rx="3" ry="3" fill="none" stroke="#212121" stroke-linecap="round" stroke-linejoin="round" stroke-width="1.5px"></rect><path class="a" d="M17.25 3.75H6.75v-1.5a1.5 1.5 0 0 1 1.5-1.5h7.5a1.5 1.5 0 0 1 1.5 1.5z" fill="none" stroke="#212121" stroke-linecap="round" stroke-linejoin="round" stroke-width="1.5px"></path><path class="a" d="M15.75 23.25h-7.5a1.5 1.5 0 0 1-1.5-1.5v-1.5h10.5v1.5a1.5 1.5 0 0 1-1.5 1.5z" fill="none" stroke="#212121" stroke-linecap="round" stroke-linejoin="round" stroke-width="1.5px"></path><circle class="a" cx="8.25" cy="15.329" r="1.5" fill="none" stroke="#212121" stroke-linecap="round" stroke-linejoin="round" stroke-width="1.5px"></circle><circle class="a" cx="14.25" cy="13.829" r="1.5" fill="none" stroke="#212121" stroke-linecap="round" stroke-linejoin="round" stroke-width="1.5px"></circle><path class="a" d="M15.75 13.829V9a1.5 1.5 0 0 0-1.864-1.455l-3 .75A1.5 1.5 0 0 0 9.75 9.75v5.579" fill="none" stroke="#212121" stroke-linecap="round" stroke-linejoin="round" stroke-width="1.5px"></path></g></svg>