<svg xmlns="http://www.w3.org/2000/svg" width="24" height="24" viewBox="0 0 24 24"><title>smiley crying rainbow</title><g fill="#212121" class="nc-icon-wrapper"><defs></defs><path class="a" d="M18.475 9a2.25 2.25 0 0 0-4.243 0" fill="none" stroke="#212121" stroke-linecap="round" stroke-linejoin="round" stroke-width="1.5px"></path><path class="a" d="M9.732 9a2.25 2.25 0 0 0-4.243 0" fill="none" stroke="#212121" stroke-linecap="round" stroke-linejoin="round" stroke-width="1.5px"></path><rect class="a" x="10.5" y="14.25" width="3" height="4.5" rx="1.5" ry="1.5" fill="none" stroke="#212121" stroke-linecap="round" stroke-linejoin="round" stroke-width="1.5px"></rect><path class="a" d="M4.5 12.75v7.5a2.25 2.25 0 0 0-2.25 2.25.75.75 0 0 0 .75.75h6a.75.75 0 0 0 .75-.75 2.25 2.25 0 0 0-2.25-2.25v-7.5" fill="none" stroke="#212121" stroke-linecap="round" stroke-linejoin="round" stroke-width="1.5px"></path><path class="a" d="M16.5 12.75v7.5a2.25 2.25 0 0 0-2.25 2.25.75.75 0 0 0 .75.75h6a.75.75 0 0 0 .75-.75 2.25 2.25 0 0 0-2.25-2.25v-7.5" fill="none" stroke="#212121" stroke-linecap="round" stroke-linejoin="round" stroke-width="1.5px"></path><path class="a" d="M22.6 15.75a11.251 11.251 0 1 0-21.193 0" fill="none" stroke="#212121" stroke-linecap="round" stroke-linejoin="round" stroke-width="1.5px"></path></g></svg>