<svg xmlns="http://www.w3.org/2000/svg" width="24" height="24" viewBox="0 0 24 24"><title>smiley lol sideways</title><g fill="#212121" class="nc-icon-wrapper"><defs></defs><path class="a" d="M9.69 17.486c2.487 1.75 5.686 1.739 7.611-.185s1.935-5.124.185-7.611a23.471 23.471 0 0 1-7.796 7.796z" fill="none" stroke="#212121" stroke-linecap="round" stroke-linejoin="round" stroke-width="1.5px"></path><path class="a" d="M4.585 11.985h4.243l-2.652 2.651" fill="none" stroke="#212121" stroke-linecap="round" stroke-linejoin="round" stroke-width="1.5px"></path><path class="a" d="M12.01 4.56v4.243l2.651-2.652" fill="none" stroke="#212121" stroke-linecap="round" stroke-linejoin="round" stroke-width="1.5px"></path><path class="a" d="M17.536 2.216a11.237 11.237 0 0 0-15.32 15.32" fill="none" stroke="#212121" stroke-linecap="round" stroke-linejoin="round" stroke-width="1.5px"></path><path class="a" d="M7.888 22.47A11.25 11.25 0 0 0 22.47 7.888" fill="none" stroke="#212121" stroke-linecap="round" stroke-linejoin="round" stroke-width="1.5px"></path><path class="a" d="M19.8 4.383a1.25 1.25 0 0 1 0 2.5 8.256 8.256 0 0 1-2.5-1.25 8.256 8.256 0 0 1 2.5-1.25z" fill="none" stroke="#212121" stroke-linecap="round" stroke-linejoin="round" stroke-width="1.5px"></path><path class="a" d="M4.383 19.8a1.25 1.25 0 0 0 2.5 0 8.256 8.256 0 0 0-1.25-2.5 8.256 8.256 0 0 0-1.25 2.5z" fill="none" stroke="#212121" stroke-linecap="round" stroke-linejoin="round" stroke-width="1.5px"></path></g></svg>