<svg xmlns="http://www.w3.org/2000/svg" width="24" height="24" viewBox="0 0 24 24"><title>smiley rage</title><g fill="#212121" class="nc-icon-wrapper"><defs></defs><path class="a" d="M3.685 17.894a1.4 1.4 0 1 0-1.261 2.469 1.39 1.39 0 1 0 1.963 1.963 1.4 1.4 0 1 0 2.469-1.261l3.194-5.475a.651.651 0 0 0-.89-.89z" fill="none" stroke="#212121" stroke-linecap="round" stroke-linejoin="round" stroke-width="1.5px"></path><path class="a" d="M1.177 15.08a11.25 11.25 0 1 1 21.688-.151" fill="none" stroke="#212121" stroke-linecap="round" stroke-linejoin="round" stroke-width="1.5px"></path><path class="a" d="M14.37 23a11.365 11.365 0 0 1-4.76 0" fill="none" stroke="#212121" stroke-linecap="round" stroke-linejoin="round" stroke-width="1.5px"></path><path class="a" d="M6 11.2a1.8 1.8 0 0 0 3 0" fill="none" stroke="#212121" stroke-linecap="round" stroke-linejoin="round" stroke-width="1.5px"></path><path class="a" d="M15 11.2a1.8 1.8 0 0 0 3 0" fill="none" stroke="#212121" stroke-linecap="round" stroke-linejoin="round" stroke-width="1.5px"></path><path class="a" d="M9 8.25l-3.75-1.5" fill="none" stroke="#212121" stroke-linecap="round" stroke-linejoin="round" stroke-width="1.5px"></path><path class="a" d="M15 8.25l3.75-1.5" fill="none" stroke="#212121" stroke-linecap="round" stroke-linejoin="round" stroke-width="1.5px"></path><path class="a" d="M20.315 17.894a1.386 1.386 0 0 1 .785-.242 1.4 1.4 0 0 1 .476 2.711 1.39 1.39 0 1 1-1.963 1.963 1.4 1.4 0 1 1-2.47-1.261L13.95 15.59a.651.651 0 0 1 .89-.89z" fill="none" stroke="#212121" stroke-linecap="round" stroke-linejoin="round" stroke-width="1.5px"></path></g></svg>