<svg xmlns="http://www.w3.org/2000/svg" width="24" height="24" viewBox="0 0 24 24"><title>smiley nose blow 1</title><g fill="#212121" class="nc-icon-wrapper"><defs></defs><path class="a" d="M8.6 12.824a1.237 1.237 0 0 0-.947.44c-.722.855-2.488 2.666-4.524 2.736A2.378 2.378 0 0 0 .76 18.05a2.267 2.267 0 0 0 2.256 2.48 1.361 1.361 0 0 0-1.324 1.675A1.406 1.406 0 0 0 3.1 23.249c4.254-.064 6.227-5.038 6.641-9.16A1.151 1.151 0 0 0 8.6 12.824z" fill="none" stroke="#212121" stroke-linecap="round" stroke-linejoin="round" stroke-width="1.5px"></path><path class="a" d="M3.016 20.53a3.915 3.915 0 0 0 1.659-.4" fill="none" stroke="#212121" stroke-linecap="round" stroke-linejoin="round" stroke-width="1.5px"></path><path class="a" d="M.832 13.368A11.434 11.434 0 0 1 .75 12a11.238 11.238 0 1 1 8.918 11.008" fill="none" stroke="#212121" stroke-linecap="round" stroke-linejoin="round" stroke-width="1.5px"></path><path class="a" d="M6.75 6.75l3 3H6" fill="none" stroke="#212121" stroke-linecap="round" stroke-linejoin="round" stroke-width="1.5px"></path><path class="a" d="M17.25 6.75l-3 3H18" fill="none" stroke="#212121" stroke-linecap="round" stroke-linejoin="round" stroke-width="1.5px"></path><path class="a" d="M9.644 14.895L12 17.25 14.25 15l2.25 2.25" fill="none" stroke="#212121" stroke-linecap="round" stroke-linejoin="round" stroke-width="1.5px"></path></g></svg>