<svg xmlns="http://www.w3.org/2000/svg" width="24" height="24" viewBox="0 0 24 24"><title>smiley cowboy</title><g fill="#212121" class="nc-icon-wrapper"><defs></defs><path class="a" d="M19.826 7.5l-1.693-4.673A2.96 2.96 0 0 0 15.424.75H8.576a2.96 2.96 0 0 0-2.709 2.077L4.174 7.5" fill="none" stroke="#212121" stroke-linecap="round" stroke-linejoin="round" stroke-width="1.5px"></path><path class="a" d="M22.677 3.659a2.421 2.421 0 0 1 .573 1.591 2.119 2.119 0 0 1-1.957 2.25H2.706A2.119 2.119 0 0 1 .75 5.25a2.421 2.421 0 0 1 .573-1.591" fill="none" stroke="#212121" stroke-linecap="round" stroke-linejoin="round" stroke-width="1.5px"></path><path class="a" d="M21.337 10.686a9.75 9.75 0 1 1-18.65-.086" fill="none" stroke="#212121" stroke-linecap="round" stroke-linejoin="round" stroke-width="1.5px"></path><path class="a" d="M6.974 15a.75.75 0 0 0-.707 1A6.157 6.157 0 0 0 12 20.25 6.158 6.158 0 0 0 17.731 16a.751.751 0 0 0-.708-1z" fill="none" stroke="#212121" stroke-linecap="round" stroke-linejoin="round" stroke-width="1.5px"></path><path class="a" d="M8.249 10.5a.375.375 0 1 1-.375.375.375.375 0 0 1 .375-.375" fill="none" stroke="#212121" stroke-linecap="round" stroke-linejoin="round" stroke-width="1.5px"></path><path class="a" d="M15.749 10.5a.375.375 0 1 1-.375.375.375.375 0 0 1 .375-.375" fill="none" stroke="#212121" stroke-linecap="round" stroke-linejoin="round" stroke-width="1.5px"></path></g></svg>