<svg xmlns="http://www.w3.org/2000/svg" width="24" height="24" viewBox="0 0 24 24"><title>smiley disapointed 2</title><g fill="#212121" class="nc-icon-wrapper"><defs></defs><circle class="a" cx="12" cy="12" r="11.25" fill="none" stroke="#212121" stroke-linecap="round" stroke-linejoin="round" stroke-width="1.5px"></circle><path class="a" d="M10.5 10.5L9.75 12" fill="none" stroke="#212121" stroke-linecap="round" stroke-linejoin="round" stroke-width="1.5px"></path><path class="a" d="M13.5 10.5l.75 1.5" fill="none" stroke="#212121" stroke-linecap="round" stroke-linejoin="round" stroke-width="1.5px"></path><path class="a" d="M7.018 9.143a.375.375 0 1 1-.375.375.375.375 0 0 1 .375-.375" fill="none" stroke="#212121" stroke-linecap="round" stroke-linejoin="round" stroke-width="1.5px"></path><path class="a" d="M16.982 9.143a.375.375 0 1 1-.375.375.375.375 0 0 1 .375-.375" fill="none" stroke="#212121" stroke-linecap="round" stroke-linejoin="round" stroke-width="1.5px"></path><path class="a" d="M15.665 18.75a.76.76 0 0 0 .744-.9 4.5 4.5 0 0 0-8.818 0 .759.759 0 0 0 .744.9 9.33 9.33 0 0 1 7.33 0z" fill="none" stroke="#212121" stroke-linecap="round" stroke-linejoin="round" stroke-width="1.5px"></path><path class="a" d="M8.518 6.084a3.542 3.542 0 0 0-2.335.291A3.544 3.544 0 0 0 4.5 8.018" fill="none" stroke="#212121" stroke-linecap="round" stroke-linejoin="round" stroke-width="1.5px"></path><path class="a" d="M15.482 6.084A3.689 3.689 0 0 1 19.5 8.018" fill="none" stroke="#212121" stroke-linecap="round" stroke-linejoin="round" stroke-width="1.5px"></path></g></svg>