<svg xmlns="http://www.w3.org/2000/svg" width="24" height="24" viewBox="0 0 24 24"><title>smiley rich</title><g fill="#212121" class="nc-icon-wrapper"><defs></defs><circle class="a" cx="12" cy="12" r="11.25" fill="none" stroke="#212121" stroke-linecap="round" stroke-linejoin="round" stroke-width="1.5px"></circle><path class="a" d="M18.048 15.75a6.752 6.752 0 0 1-12.1 0" fill="none" stroke="#212121" stroke-linecap="round" stroke-linejoin="round" stroke-width="1.5px"></path><path class="a" d="M6.392 10.844a2.221 2.221 0 0 0 1.858.875c1.139 0 2.062-.693 2.062-1.547S9.389 8.626 8.25 8.626s-2.063-.693-2.063-1.548.924-1.547 2.063-1.547a2.223 2.223 0 0 1 1.858.875" fill="none" stroke="#212121" stroke-linecap="round" stroke-linejoin="round" stroke-width="1.5px"></path><path class="a" d="M8.25 11.719v1.031" fill="none" stroke="#212121" stroke-linecap="round" stroke-linejoin="round" stroke-width="1.5px"></path><path class="a" d="M8.25 4.5v1.031" fill="none" stroke="#212121" stroke-linecap="round" stroke-linejoin="round" stroke-width="1.5px"></path><path class="a" d="M13.892 10.844a2.221 2.221 0 0 0 1.858.875c1.139 0 2.062-.693 2.062-1.547s-.923-1.546-2.062-1.546-2.063-.693-2.063-1.548.924-1.547 2.063-1.547a2.223 2.223 0 0 1 1.858.875" fill="none" stroke="#212121" stroke-linecap="round" stroke-linejoin="round" stroke-width="1.5px"></path><path class="a" d="M15.75 11.719v1.031" fill="none" stroke="#212121" stroke-linecap="round" stroke-linejoin="round" stroke-width="1.5px"></path><path class="a" d="M15.75 4.5v1.031" fill="none" stroke="#212121" stroke-linecap="round" stroke-linejoin="round" stroke-width="1.5px"></path></g></svg>