<svg xmlns="http://www.w3.org/2000/svg" width="24" height="24" viewBox="0 0 24 24"><title>smiley sad crying_1</title><g fill="#212121" class="nc-icon-wrapper"><defs></defs><path class="a" d="M8.25 10.5a.375.375 0 1 1-.375.375.375.375 0 0 1 .375-.375" fill="none" stroke="#212121" stroke-linecap="round" stroke-linejoin="round" stroke-width="1.5px"></path><path class="a" d="M15.75 10.5a.375.375 0 1 1-.375.375.375.375 0 0 1 .375-.375" fill="none" stroke="#212121" stroke-linecap="round" stroke-linejoin="round" stroke-width="1.5px"></path><path class="a" d="M18.316 21.311A11.25 11.25 0 1 1 22.6 8.234" fill="none" stroke="#212121" stroke-linecap="round" stroke-linejoin="round" stroke-width="1.5px"></path><path class="a" d="M15.728 18.75a.764.764 0 0 0 .757-.9 4.595 4.595 0 0 0-8.97 0 .764.764 0 0 0 .757.9 9.64 9.64 0 0 1 7.456 0z" fill="none" stroke="#212121" stroke-linecap="round" stroke-linejoin="round" stroke-width="1.5px"></path><path class="a" d="M5.25 8.166a3.539 3.539 0 0 0 2.334-.291 3.542 3.542 0 0 0 1.684-1.643" fill="none" stroke="#212121" stroke-linecap="round" stroke-linejoin="round" stroke-width="1.5px"></path><path class="a" d="M18.834 8.166a3.689 3.689 0 0 1-4.018-1.934" fill="none" stroke="#212121" stroke-linecap="round" stroke-linejoin="round" stroke-width="1.5px"></path><path class="a" d="M23.25 16.25a2.384 2.384 0 0 1-2.25 2.5 2.384 2.384 0 0 1-2.25-2.5c0-1.381 2.25-5 2.25-5s2.25 3.619 2.25 5z" fill="none" stroke="#212121" stroke-linecap="round" stroke-linejoin="round" stroke-width="1.5px"></path></g></svg>