<svg xmlns="http://www.w3.org/2000/svg" width="24" height="24" viewBox="0 0 24 24"><title>smiley lol</title><g fill="#212121" class="nc-icon-wrapper"><defs></defs><path class="a" d="M6.505 14.25c.521 3 2.791 5.25 5.513 5.25s4.991-2.255 5.512-5.25a23.481 23.481 0 0 1-11.025 0z" fill="none" stroke="#212121" stroke-linecap="round" stroke-linejoin="round" stroke-width="1.5px"></path><path class="a" d="M18.511 9a2.25 2.25 0 0 0-4.243 0" fill="none" stroke="#212121" stroke-linecap="round" stroke-linejoin="round" stroke-width="1.5px"></path><path class="a" d="M9.768 9a2.25 2.25 0 0 0-4.243 0" fill="none" stroke="#212121" stroke-linecap="round" stroke-linejoin="round" stroke-width="1.5px"></path><path class="a" d="M22.851 9A11.237 11.237 0 0 0 1.185 9" fill="none" stroke="#212121" stroke-linecap="round" stroke-linejoin="round" stroke-width="1.5px"></path><path class="a" d="M1.707 16.5a11.25 11.25 0 0 0 20.622 0" fill="none" stroke="#212121" stroke-linecap="round" stroke-linejoin="round" stroke-width="1.5px"></path><path class="a" d="M22.884 12.134a1.25 1.25 0 1 1-1.768 1.766 8.277 8.277 0 0 1-.884-2.652 8.269 8.269 0 0 1 2.652.886z" fill="none" stroke="#212121" stroke-linecap="round" stroke-linejoin="round" stroke-width="1.5px"></path><path class="a" d="M1.116 12.134A1.25 1.25 0 1 0 2.884 13.9a8.277 8.277 0 0 0 .884-2.652 8.269 8.269 0 0 0-2.652.886z" fill="none" stroke="#212121" stroke-linecap="round" stroke-linejoin="round" stroke-width="1.5px"></path></g></svg>