<svg xmlns="http://www.w3.org/2000/svg" width="24" height="24" viewBox="0 0 24 24"><title>snail shell</title><g fill="#212121" class="nc-icon-wrapper"><defs></defs><path class="cls-1" d="M12.576 10.039a2.135 2.135 0 0 1 2.135 2.135" fill="none" stroke="#212121" stroke-linecap="round" stroke-linejoin="round" stroke-width="1.5px"></path><path class="cls-1" d="M9.374 13.241a3.2 3.2 0 0 1 3.2-3.2" fill="none" stroke="#212121" stroke-linecap="round" stroke-linejoin="round" stroke-width="1.5px"></path><path class="cls-1" d="M13.644 17.511a4.27 4.27 0 0 1-4.27-4.27" fill="none" stroke="#212121" stroke-linecap="round" stroke-linejoin="round" stroke-width="1.5px"></path><path class="cls-1" d="M18.981 12.174a5.338 5.338 0 0 1-5.337 5.337" fill="none" stroke="#212121" stroke-linecap="round" stroke-linejoin="round" stroke-width="1.5px"></path><path class="cls-1" d="M12.576 5.769a6.405 6.405 0 0 1 6.405 6.4" fill="none" stroke="#212121" stroke-linecap="round" stroke-linejoin="round" stroke-width="1.5px"></path><path class="cls-1" d="M5.1 13.241a7.472 7.472 0 0 1 7.472-7.472" fill="none" stroke="#212121" stroke-linecap="round" stroke-linejoin="round" stroke-width="1.5px"></path><path class="cls-1" d="M5.1 13.241a8.54 8.54 0 0 0 8.54 8.539" fill="none" stroke="#212121" stroke-linecap="round" stroke-linejoin="round" stroke-width="1.5px"></path><path class="cls-1" d="M23.25 12.174a9.606 9.606 0 0 1-9.606 9.606" fill="none" stroke="#212121" stroke-linecap="round" stroke-linejoin="round" stroke-width="1.5px"></path><path class="cls-1" d="M12.576 1.5A10.675 10.675 0 0 1 23.25 12.174" fill="none" stroke="#212121" stroke-linecap="round" stroke-linejoin="round" stroke-width="1.5px"></path><path class="cls-1" d="M12.576 1.5A11.741 11.741 0 0 0 .835 13.241H5.1" fill="none" stroke="#212121" stroke-linecap="round" stroke-linejoin="round" stroke-width="1.5px"></path></g></svg>