<svg xmlns="http://www.w3.org/2000/svg" width="24" height="24" viewBox="0 0 24 24"><title>soccer kick ball</title><g fill="#212121" class="nc-icon-wrapper"><defs></defs><circle class="cls-1" cx="6.375" cy="6.375" r="5.625" fill="none" stroke="#212121" stroke-linecap="round" stroke-linejoin="round" stroke-width="1.5px"></circle><path class="cls-1" d="M14.443 14.563h-7.81a2.24 2.24 0 0 0-.677 4.375l11.621 3.691a.75.75 0 0 0 .942-.487l1.814-5.711-.706.365c-1.449.754-3.987.074-5.184-2.233z" fill="none" stroke="#212121" stroke-linecap="round" stroke-linejoin="round" stroke-width="1.5px"></path><path class="cls-1" d="M15.81 23.25l.34-1.071" fill="none" stroke="#212121" stroke-linecap="round" stroke-linejoin="round" stroke-width="1.5px"></path><path class="cls-1" d="M12.597 22.229l.34-1.071" fill="none" stroke="#212121" stroke-linecap="round" stroke-linejoin="round" stroke-width="1.5px"></path><path class="cls-1" d="M6.171 20.188l.34-1.071" fill="none" stroke="#212121" stroke-linecap="round" stroke-linejoin="round" stroke-width="1.5px"></path><path class="cls-1" d="M9.384 21.209l.34-1.071" fill="none" stroke="#212121" stroke-linecap="round" stroke-linejoin="round" stroke-width="1.5px"></path><path class="cls-1" d="M14.443 14.563l1.47-9.213a.562.562 0 0 1 .719-.449c2.2.668 4.007 1.051 6.22 1.726a.563.563 0 0 1 .372.707l-2.891 9.1" fill="none" stroke="#212121" stroke-linecap="round" stroke-linejoin="round" stroke-width="1.5px"></path><path class="cls-1" d="M15.476 8.087l6.857 2.052" fill="none" stroke="#212121" stroke-linecap="round" stroke-linejoin="round" stroke-width="1.5px"></path><path class="cls-1" d="M10.16 14.567l1.25 6.106" fill="none" stroke="#212121" stroke-linecap="round" stroke-linejoin="round" stroke-width="1.5px"></path></g></svg>