<svg xmlns="http://www.w3.org/2000/svg" width="24" height="24" viewBox="0 0 24 24"><title>sofa double modern</title><g fill="#212121" class="nc-icon-wrapper"><defs></defs><path class="cls-1" d="M16.5 19.875h-9a6.757 6.757 0 0 1-6.75-6.75 2.25 2.25 0 0 1 4.5 0 2.252 2.252 0 0 0 2.25 2.25h9a2.252 2.252 0 0 0 2.25-2.25 2.25 2.25 0 0 1 4.5 0 6.757 6.757 0 0 1-6.75 6.75z" fill="none" stroke="#212121" stroke-linecap="round" stroke-linejoin="round" stroke-width="1.5px"></path><path class="cls-1" d="M3.75 21.375l1.036-2.071" fill="none" stroke="#212121" stroke-linecap="round" stroke-linejoin="round" stroke-width="1.5px"></path><path class="cls-1" d="M20.25 21.375l-1.036-2.071" fill="none" stroke="#212121" stroke-linecap="round" stroke-linejoin="round" stroke-width="1.5px"></path><path class="cls-1" d="M19.944 11.139l-.8-5.97a3 3 0 0 0-2.966-2.544H7.824a3 3 0 0 0-2.965 2.544l-.8 5.97" fill="none" stroke="#212121" stroke-linecap="round" stroke-linejoin="round" stroke-width="1.5px"></path><path class="cls-1" d="M15.75 12.375v-1.5a1.5 1.5 0 0 0-1.5-1.5h-4.5a1.5 1.5 0 0 0-1.5 1.5v1.5" fill="none" stroke="#212121" stroke-linecap="round" stroke-linejoin="round" stroke-width="1.5px"></path></g></svg>