<svg xmlns="http://www.w3.org/2000/svg" width="24" height="24" viewBox="0 0 24 24"><title>spa flame</title><g fill="#212121" class="nc-icon-wrapper"><defs></defs><path class="a" d="M23.135 17.1a2.089 2.089 0 0 0-3.181-1.792 2.073 2.073 0 0 0 .031-.308 2.1 2.1 0 1 0-4.2 0 2.073 2.073 0 0 0 .031.308 2.1 2.1 0 1 0-1.137 3.886 2.093 2.093 0 1 0 3.206 2.578 2.093 2.093 0 1 0 3.207-2.578 2.1 2.1 0 0 0 2.043-2.094z" fill="none" stroke="#212121" stroke-linecap="round" stroke-linejoin="round" stroke-width="1.5px"></path><path class="a" d="M17.885 17.775a.375.375 0 1 1-.375.375.375.375 0 0 1 .375-.375" fill="none" stroke="#212121" stroke-linecap="round" stroke-linejoin="round" stroke-width="1.5px"></path><path class="a" d="M8.025 1.125a3.891 3.891 0 0 1 .394 4.432 1.386 1.386 0 0 1-1.478-1.182 3.134 3.134 0 0 0-1.625 2.954 3.547 3.547 0 0 0 3.546 3.546 3.594 3.594 0 0 0 3.545-3.546 5.893 5.893 0 0 0-4.382-6.204z" fill="none" stroke="#212121" stroke-linecap="round" stroke-linejoin="round" stroke-width="1.5px"></path><path class="a" d="M10.567 21.032a7.508 7.508 0 0 1-9.7-6.293.761.761 0 0 1 .745-.864h9.524" fill="none" stroke="#212121" stroke-linecap="round" stroke-linejoin="round" stroke-width="1.5px"></path></g></svg>