<svg xmlns="http://www.w3.org/2000/svg" width="24" height="24" viewBox="0 0 24 24"><title>space science</title><g fill="#212121" class="nc-icon-wrapper"><defs></defs><path class="a" d="M4.75 16.5h10a1 1 0 0 1 1 1v5.75h-12V17.5a1 1 0 0 1 1-1z" fill="none" stroke="#212121" stroke-linecap="round" stroke-linejoin="round" stroke-width="1.5px"></path><path class="a" d="M.89 12.633L11.934.9a.479.479 0 0 1 .814.409A13.219 13.219 0 0 1 1.275 13.5a.51.51 0 0 1-.385-.867z" fill="none" stroke="#212121" stroke-linecap="round" stroke-linejoin="round" stroke-width="1.5px"></path><path class="a" d="M12 16.5v-5.027" fill="none" stroke="#212121" stroke-linecap="round" stroke-linejoin="round" stroke-width="1.5px"></path><path class="a" d="M.75 23.25h22.5" fill="none" stroke="#212121" stroke-linecap="round" stroke-linejoin="round" stroke-width="1.5px"></path><path class="a" d="M8.25 19.5h3v3.75h-3z" fill="none" stroke="#212121" stroke-linecap="round" stroke-linejoin="round" stroke-width="1.5px"></path><path class="a" d="M11.21 6.553A3.357 3.357 0 1 1 6.787 11.5" fill="none" stroke="#212121" stroke-linecap="round" stroke-linejoin="round" stroke-width="1.5px"></path><path class="a" d="M21.75 23.25h-6v-8.489a.5.5 0 0 1 .658-.484l5 1.7a.51.51 0 0 1 .342.485z" fill="none" stroke="#212121" stroke-linecap="round" stroke-linejoin="round" stroke-width="1.5px"></path><path class="a" d="M20.25 15.587V12" fill="none" stroke="#212121" stroke-linecap="round" stroke-linejoin="round" stroke-width="1.5px"></path><path class="a" d="M17.25 12.75v1.813" fill="none" stroke="#212121" stroke-linecap="round" stroke-linejoin="round" stroke-width="1.5px"></path><path class="a" d="M4.37 8.935L3.264 6.168A1.5 1.5 0 0 1 3.6 4.551l.847-.851a1.5 1.5 0 0 1 1.618-.332L8.641 4.4" fill="none" stroke="#212121" stroke-linecap="round" stroke-linejoin="round" stroke-width="1.5px"></path><path class="a" d="M4.022 4.125L2.147 2.25" fill="none" stroke="#212121" stroke-linecap="round" stroke-linejoin="round" stroke-width="1.5px"></path></g></svg>