<svg xmlns="http://www.w3.org/2000/svg" width="24" height="24" viewBox="0 0 24 24"><title>space astronaut alternate</title><g fill="#212121" class="nc-icon-wrapper"><defs></defs><rect class="a" x="6.75" y="19.5" width="6" height="3.75" rx="1" ry="1" fill="none" stroke="#212121" stroke-linecap="round" stroke-linejoin="round" stroke-width="1.5px"></rect><path class="a" d="M18.75 23.25v-3a4.5 4.5 0 0 0-3.239-4.32 1.748 1.748 0 0 1-1.261-1.68v-3a4.5 4.5 0 0 0-9 0v3a1.748 1.748 0 0 1-1.261 1.679 4.5 4.5 0 0 0-3.239 4.32v3" fill="none" stroke="#212121" stroke-linecap="round" stroke-linejoin="round" stroke-width="1.5px"></path><path class="a" d="M5.25 11.25l1.658-.829a6.354 6.354 0 0 1 5.684 0l1.658.829" fill="none" stroke="#212121" stroke-linecap="round" stroke-linejoin="round" stroke-width="1.5px"></path><path class="a" d="M5.25 14.25l1.658.829a6.354 6.354 0 0 0 5.684 0l1.658-.829" fill="none" stroke="#212121" stroke-linecap="round" stroke-linejoin="round" stroke-width="1.5px"></path><path class="a" d="M.75 20.25V13.5A2.25 2.25 0 0 1 3 11.25" fill="none" stroke="#212121" stroke-linecap="round" stroke-linejoin="round" stroke-width="1.5px"></path><path class="a" d="M18.75 20.25V13.5a2.25 2.25 0 0 0-2.25-2.25" fill="none" stroke="#212121" stroke-linecap="round" stroke-linejoin="round" stroke-width="1.5px"></path><path class="a" d="M11.25.75v3" fill="none" stroke="#212121" stroke-linecap="round" stroke-linejoin="round" stroke-width="1.5px"></path><path class="a" d="M9.75 2.25h3" fill="none" stroke="#212121" stroke-linecap="round" stroke-linejoin="round" stroke-width="1.5px"></path><path class="a" d="M21.75 8.25v3" fill="none" stroke="#212121" stroke-linecap="round" stroke-linejoin="round" stroke-width="1.5px"></path><path class="a" d="M20.25 9.75h3" fill="none" stroke="#212121" stroke-linecap="round" stroke-linejoin="round" stroke-width="1.5px"></path><path class="a" d="M18.75.75a3.024 3.024 0 0 1-3 3 3.024 3.024 0 0 1 3 3 3.024 3.024 0 0 1 3-3 3.024 3.024 0 0 1-3-3" fill="none" stroke="#212121" stroke-linecap="round" stroke-linejoin="round" stroke-width="1.5px"></path></g></svg>