<svg xmlns="http://www.w3.org/2000/svg" width="24" height="24" viewBox="0 0 24 24"><title>space rocket 2</title><g fill="#212121" class="nc-icon-wrapper"><defs></defs><path class="a" d="M22.5 11.25V7.062a4.506 4.506 0 0 0-.475-2.012l-.857-1.715a.189.189 0 0 0-.336 0l-.857 1.715a4.506 4.506 0 0 0-.475 2.012V8.25" fill="none" stroke="#212121" stroke-linecap="round" stroke-linejoin="round" stroke-width="1.5px"></path><path class="a" d="M1.5 11.25V7.062a4.506 4.506 0 0 1 .475-2.012l.857-1.715a.189.189 0 0 1 .336 0l.857 1.715A4.506 4.506 0 0 1 4.5 7.062V8.25" fill="none" stroke="#212121" stroke-linecap="round" stroke-linejoin="round" stroke-width="1.5px"></path><path class="a" d="M10.494 7.356a2 2 0 0 1 2.994.138" fill="none" stroke="#212121" stroke-linecap="round" stroke-linejoin="round" stroke-width="1.5px"></path><path class="a" d="M8.514 3.75h6.972" fill="none" stroke="#212121" stroke-linecap="round" stroke-linejoin="round" stroke-width="1.5px"></path><path class="a" d="M12 18v5.25" fill="none" stroke="#212121" stroke-linecap="round" stroke-linejoin="round" stroke-width="1.5px"></path><path class="a" d="M15.75 23.25h-7.5L7.5 7.5C7.5 5.015 9.515.75 12 .75s4.5 4.265 4.5 6.75z" fill="none" stroke="#212121" stroke-linecap="round" stroke-linejoin="round" stroke-width="1.5px"></path><path class="a" d="M16.363 10.38l5.113 4.474a3 3 0 0 1 1.024 2.257v3.139a1.5 1.5 0 0 1-1.5 1.5h-5.179" fill="none" stroke="#212121" stroke-linecap="round" stroke-linejoin="round" stroke-width="1.5px"></path><path class="a" d="M7.637 10.38l-5.113 4.474A3 3 0 0 0 1.5 17.111v3.139a1.5 1.5 0 0 0 1.5 1.5h5.179" fill="none" stroke="#212121" stroke-linecap="round" stroke-linejoin="round" stroke-width="1.5px"></path></g></svg>