<svg xmlns="http://www.w3.org/2000/svg" width="24" height="24" viewBox="0 0 24 24"><title>space ship</title><g fill="#212121" class="nc-icon-wrapper"><defs></defs><path class="a" d="M12 16.5V21" fill="none" stroke="#212121" stroke-linecap="round" stroke-linejoin="round" stroke-width="1.5px"></path><path class="a" d="M5.25 23.25a2.25 2.25 0 0 0-4.5 0h4.5z" fill="none" stroke="#212121" stroke-linecap="round" stroke-linejoin="round" stroke-width="1.5px"></path><path class="a" d="M14.25 23.25a2.25 2.25 0 0 0-4.5 0z" fill="none" stroke="#212121" stroke-linecap="round" stroke-linejoin="round" stroke-width="1.5px"></path><path class="a" d="M23.25 23.25a2.25 2.25 0 0 0-4.5 0z" fill="none" stroke="#212121" stroke-linecap="round" stroke-linejoin="round" stroke-width="1.5px"></path><path class="a" d="M18 18l-1.061-1.061a1.5 1.5 0 0 0-1.06-.439H8.121a1.5 1.5 0 0 0-1.06.439L6 18" fill="none" stroke="#212121" stroke-linecap="round" stroke-linejoin="round" stroke-width="1.5px"></path><path class="a" d="M21 21v-3.879a1.5 1.5 0 0 0-.439-1.06l-2.122-2.122a1.5 1.5 0 0 0-1.06-.439H6.618a1.5 1.5 0 0 0-1.057.436l-2.118 2.1A1.5 1.5 0 0 0 3 17.1V21" fill="none" stroke="#212121" stroke-linecap="round" stroke-linejoin="round" stroke-width="1.5px"></path><path class="a" d="M7.5 10.5h9v3h-9z" fill="none" stroke="#212121" stroke-linecap="round" stroke-linejoin="round" stroke-width="1.5px"></path><path class="a" d="M7.5 10.5A4.7 4.7 0 0 1 6 7.1C6 4.132 8.686.75 12 .75s6 3.382 6 6.35a4.7 4.7 0 0 1-1.5 3.4" fill="none" stroke="#212121" stroke-linecap="round" stroke-linejoin="round" stroke-width="1.5px"></path><path class="a" d="M13.5 10.5h-3V7.483A1.483 1.483 0 0 1 11.983 6h.034A1.483 1.483 0 0 1 13.5 7.483z" fill="none" stroke="#212121" stroke-linecap="round" stroke-linejoin="round" stroke-width="1.5px"></path><path class="a" d="M10.5 10.5v3" fill="none" stroke="#212121" stroke-linecap="round" stroke-linejoin="round" stroke-width="1.5px"></path><path class="a" d="M13.5 10.5v3" fill="none" stroke="#212121" stroke-linecap="round" stroke-linejoin="round" stroke-width="1.5px"></path></g></svg>