<svg xmlns="http://www.w3.org/2000/svg" width="24" height="24" viewBox="0 0 24 24"><title>space moon flag</title><g fill="#212121" class="nc-icon-wrapper"><defs></defs><path class="a" d="M14.993 21.682a39.339 39.339 0 0 1 8.257 1.483" fill="none" stroke="#212121" stroke-linecap="round" stroke-linejoin="round" stroke-width="1.5px"></path><path class="a" d="M.75 23.25a39.356 39.356 0 0 1 8.912-1.592" fill="none" stroke="#212121" stroke-linecap="round" stroke-linejoin="round" stroke-width="1.5px"></path><path class="a" d="M12 23.25V12h9v6h-9" fill="none" stroke="#212121" stroke-linecap="round" stroke-linejoin="round" stroke-width="1.5px"></path><path class="a" d="M12 15h9" fill="none" stroke="#212121" stroke-linecap="round" stroke-linejoin="round" stroke-width="1.5px"></path><path class="a" d="M8.206 12.572A6 6 0 1 1 12.52 8.4" fill="none" stroke="#212121" stroke-linecap="round" stroke-linejoin="round" stroke-width="1.5px"></path><path class="a" d="M1.552 3.751H3a1.5 1.5 0 0 1 1.5 1.5v.7A1.5 1.5 0 0 0 5.168 7.2l.958.639a1.4 1.4 0 0 1 0 2.332L3.6 11.854" fill="none" stroke="#212121" stroke-linecap="round" stroke-linejoin="round" stroke-width="1.5px"></path><path class="a" d="M11.948 3.751h-.7a1.5 1.5 0 0 0-1.34 2.171c.427.854.525.9.789 1.054l1.9 1.138" fill="none" stroke="#212121" stroke-linecap="round" stroke-linejoin="round" stroke-width="1.5px"></path><path class="a" d="M15.75 12v3" fill="none" stroke="#212121" stroke-linecap="round" stroke-linejoin="round" stroke-width="1.5px"></path></g></svg>