<svg xmlns="http://www.w3.org/2000/svg" width="24" height="24" viewBox="0 0 24 24"><title>space rocket 1</title><g fill="#212121" class="nc-icon-wrapper"><defs></defs><path class="a" d="M7 20.25l1.5-12h5.999l1.501 12" fill="none" stroke="#212121" stroke-linecap="round" stroke-linejoin="round" stroke-width="1.5px"></path><path class="a" d="M14.5 8.25h-6V6.93a6.007 6.007 0 0 1 .633-2.683L10.606 1.3a1 1 0 0 1 1.788 0l1.473 2.944A6.007 6.007 0 0 1 14.5 6.93z" fill="none" stroke="#212121" stroke-linecap="round" stroke-linejoin="round" stroke-width="1.5px"></path><path class="a" d="M12.737 22.131a1.243 1.243 0 0 1-2.474 0l-.451-4.515a1.7 1.7 0 1 1 3.376 0z" fill="none" stroke="#212121" stroke-linecap="round" stroke-linejoin="round" stroke-width="1.5px"></path><path class="a" d="M7.556 15.8A3 3 0 0 0 4 18.75l.58 3.482a1.218 1.218 0 0 0 2.42-.2V20.25h3.075" fill="none" stroke="#212121" stroke-linecap="round" stroke-linejoin="round" stroke-width="1.5px"></path><path class="a" d="M15.444 15.8A3 3 0 0 1 19 18.75l-.58 3.482a1.218 1.218 0 0 1-2.42-.2V20.25h-3.075" fill="none" stroke="#212121" stroke-linecap="round" stroke-linejoin="round" stroke-width="1.5px"></path></g></svg>