<svg xmlns="http://www.w3.org/2000/svg" width="24" height="24" viewBox="0 0 24 24"><title>speaker 1</title><g fill="#212121" class="nc-icon-wrapper"><defs></defs><circle class="a" cx="12" cy="12" r="7.5" fill="none" stroke="#212121" stroke-linecap="round" stroke-linejoin="round" stroke-width="1.5px"></circle><circle class="a" cx="12" cy="12" r="2.25" fill="none" stroke="#212121" stroke-linecap="round" stroke-linejoin="round" stroke-width="1.5px"></circle><path class="a" d="M21.784 6.459l.587-.588a3 3 0 1 0-4.242-4.242l-.588.587a11.2 11.2 0 0 0-11.082 0l-.588-.587a3 3 0 0 0-4.242 4.242l.587.588a11.2 11.2 0 0 0 0 11.082l-.587.588a3 3 0 0 0 4.242 4.242l.588-.587a11.2 11.2 0 0 0 11.082 0l.588.587a3 3 0 0 0 4.242-4.242l-.587-.588a11.2 11.2 0 0 0 0-11.082z" fill="none" stroke="#212121" stroke-linecap="round" stroke-linejoin="round" stroke-width="1.5px"></path></g></svg>