<svg xmlns="http://www.w3.org/2000/svg" width="24" height="24" viewBox="0 0 24 24"><title>spirits</title><g fill="#212121" class="nc-icon-wrapper"><defs></defs><path class="cls-1" d="M19.871 8.8l-4.688-1.959a1.686 1.686 0 0 1-.933-1.509V3.75h-4.5v1.582a1.686 1.686 0 0 1-.933 1.509L4.129 8.8a3.37 3.37 0 0 0-1.874 3.18 20.173 20.173 0 0 0 3.663 10.492 1.691 1.691 0 0 0 1.421.778h9.322a1.691 1.691 0 0 0 1.421-.778 20.173 20.173 0 0 0 3.663-10.492 3.37 3.37 0 0 0-1.874-3.18z" fill="none" stroke="#212121" stroke-linecap="round" stroke-linejoin="round" stroke-width="1.5px"></path><path class="cls-1" d="M4.322 19.714L12 9.75l7.678 9.964" fill="none" stroke="#212121" stroke-linecap="round" stroke-linejoin="round" stroke-width="1.5px"></path><path class="cls-1" d="M3.697 9.75L12 20.25l8.258-10.446" fill="none" stroke="#212121" stroke-linecap="round" stroke-linejoin="round" stroke-width="1.5px"></path><path class="cls-1" d="M2.964 9.75H21" fill="none" stroke="#212121" stroke-linecap="round" stroke-linejoin="round" stroke-width="1.5px"></path><path class="cls-1" d="M4.603 20.25h14.794" fill="none" stroke="#212121" stroke-linecap="round" stroke-linejoin="round" stroke-width="1.5px"></path><path class="cls-1" d="M14.893.75H9.107c-.541 0-.946.346-.84.718l.514 1.8a.838.838 0 0 0 .84.482h4.758a.838.838 0 0 0 .84-.482l.514-1.8c.106-.368-.299-.718-.84-.718z" fill="none" stroke="#212121" stroke-linecap="round" stroke-linejoin="round" stroke-width="1.5px"></path></g></svg>