<svg xmlns="http://www.w3.org/2000/svg" width="24" height="24" viewBox="0 0 24 24"><title>spirits glass</title><g fill="#212121" class="nc-icon-wrapper"><defs></defs><path class="cls-1" d="M13.106 11.25h9a.75.75 0 0 1 .75.75v9.75a1.5 1.5 0 0 1-1.5 1.5h-7.5a1.5 1.5 0 0 1-1.5-1.5V12a.75.75 0 0 1 .75-.75z" fill="none" stroke="#212121" stroke-linecap="round" stroke-linejoin="round" stroke-width="1.5px"></path><path class="cls-1" d="M15.731 18a.375.375 0 1 1-.375.375.375.375 0 0 1 .375-.375" fill="none" stroke="#212121" stroke-linecap="round" stroke-linejoin="round" stroke-width="1.5px"></path><path class="cls-1" d="M19.481 19.5a.375.375 0 1 1-.375.375.375.375 0 0 1 .375-.375" fill="none" stroke="#212121" stroke-linecap="round" stroke-linejoin="round" stroke-width="1.5px"></path><path class="cls-1" d="M12.356 15.75h10.5" fill="none" stroke="#212121" stroke-linecap="round" stroke-linejoin="round" stroke-width="1.5px"></path><path class="cls-1" d="M10.068 9.065l-.342-.391a1.5 1.5 0 0 1-.37-.987V1.5a.75.75 0 0 0-.75-.75h-3a.75.75 0 0 0-.75.75v6.187a1.5 1.5 0 0 1-.371.987L1.8 11.789a3 3 0 0 0-.626 2.3l1.267 7.9a1.5 1.5 0 0 0 1.482 1.261h4.721" fill="none" stroke="#212121" stroke-linecap="round" stroke-linejoin="round" stroke-width="1.5px"></path><path class="cls-1" d="M4.856 5.25h4.5" fill="none" stroke="#212121" stroke-linecap="round" stroke-linejoin="round" stroke-width="1.5px"></path><path class="cls-1" d="M9.356 18.75h-3.75l-.75-4.5h4.5" fill="none" stroke="#212121" stroke-linecap="round" stroke-linejoin="round" stroke-width="1.5px"></path></g></svg>