<svg xmlns="http://www.w3.org/2000/svg" width="24" height="24" viewBox="0 0 24 24"><title>sports car 1</title><g fill="#212121" class="nc-icon-wrapper"><defs></defs><circle class="a" cx="18.795" cy="15.75" r="1.5" fill="none" stroke="#212121" stroke-linecap="round" stroke-linejoin="round" stroke-width="1.5px"></circle><circle class="a" cx="6.795" cy="15.75" r="1.5" fill="none" stroke="#212121" stroke-linecap="round" stroke-linejoin="round" stroke-width="1.5px"></circle><path class="a" d="M17.295 15.75h-9" fill="none" stroke="#212121" stroke-linecap="round" stroke-linejoin="round" stroke-width="1.5px"></path><path class="a" d="M20.3 15.75h1.5a1.5 1.5 0 0 0 1.5-1.5v-1.608a3 3 0 0 0-2.1-2.862A14.668 14.668 0 0 0 17.641 9H9.8c-3 0-3-1.5-9-1.5v3.75a4.5 4.5 0 0 0 4.5 4.5" fill="none" stroke="#212121" stroke-linecap="round" stroke-linejoin="round" stroke-width="1.5px"></path><path class="a" d="M20.3 9.513s-3.75-4.263-9-4.263c-6.75 0-6 2.25-9.75 2.25H.8" fill="none" stroke="#212121" stroke-linecap="round" stroke-linejoin="round" stroke-width="1.5px"></path><path class="a" d="M14.295 12.75h-4.5" fill="none" stroke="#212121" stroke-linecap="round" stroke-linejoin="round" stroke-width="1.5px"></path><path class="a" d="M.795 10.5h2.25" fill="none" stroke="#212121" stroke-linecap="round" stroke-linejoin="round" stroke-width="1.5px"></path></g></svg>