<svg xmlns="http://www.w3.org/2000/svg" width="24" height="24" viewBox="0 0 24 24"><title>sport curling 1</title><g fill="#212121" class="nc-icon-wrapper"><defs></defs><circle class="cls-1" cx="13.5" cy="3.5" r="2.625" fill="none" stroke="#212121" stroke-linecap="round" stroke-linejoin="round" stroke-width="1.5px"></circle><path class="cls-1" d="M19.84 8.735a4.64 4.64 0 0 0-4.683-.19L8.282 12.3a1.5 1.5 0 1 0 1.436 2.634L15 12.047v2.733l-2.414 1.931a6.063 6.063 0 0 0-1.62 2l-1.058 2.118a1.5 1.5 0 0 0 2.684 1.342l1.056-2.115a3.048 3.048 0 0 1 .811-1l1.2-.958a5.926 5.926 0 0 0 .734 1.114l2.707 3.247a1.5 1.5 0 1 0 2.3-1.918l-2.7-3.251a3 3 0 0 1-.7-1.919v-4.213a2.561 2.561 0 0 1 .308.157 4.3 4.3 0 0 1 1.942 3.51v.287a1.5 1.5 0 1 0 3 0v-.287a7.282 7.282 0 0 0-3.41-6.09z" fill="none" stroke="#212121" stroke-linecap="round" stroke-linejoin="round" stroke-width="1.5px"></path><ellipse class="cls-1" cx="3.75" cy="21.5" rx="3" ry="1.5" fill="none" stroke="#212121" stroke-linecap="round" stroke-linejoin="round" stroke-width="1.5px"></ellipse><path class="cls-1" d="M4.92 20.12l3.438-5.157" fill="none" stroke="#212121" stroke-linecap="round" stroke-linejoin="round" stroke-width="1.5px"></path><path class="cls-1" d="M.75 14h3" fill="none" stroke="#212121" stroke-linecap="round" stroke-linejoin="round" stroke-width="1.5px"></path><path class="cls-1" d="M2.25 17h1.5" fill="none" stroke="#212121" stroke-linecap="round" stroke-linejoin="round" stroke-width="1.5px"></path></g></svg>