<svg xmlns="http://www.w3.org/2000/svg" width="24" height="24" viewBox="0 0 24 24"><title>standing lamp double</title><g fill="#212121" class="nc-icon-wrapper"><defs></defs><path class="cls-1" d="M11.253.75v22.5" fill="none" stroke="#212121" stroke-linecap="round" stroke-linejoin="round" stroke-width="1.5px"></path><path class="cls-1" d="M4.503 23.25h13.5" fill="none" stroke="#212121" stroke-linecap="round" stroke-linejoin="round" stroke-width="1.5px"></path><path class="cls-1" d="M5.016 14.727l-3.99-3.99A.932.932 0 0 1 1.3 9.228l3.677-1.641a.932.932 0 0 1 1.038.192l1.9 1.9a.931.931 0 0 1 .2 1.02l-1.583 3.732a.931.931 0 0 1-1.516.296z" fill="none" stroke="#212121" stroke-linecap="round" stroke-linejoin="round" stroke-width="1.5px"></path><path class="cls-1" d="M22.977 6.429l-3.945 3.945a.922.922 0 0 1-1.5-.288l-1.553-3.617a.92.92 0 0 1 .2-1.016l1.882-1.882a.924.924 0 0 1 1.017-.2l3.611 1.559a.922.922 0 0 1 .288 1.499z" fill="none" stroke="#212121" stroke-linecap="round" stroke-linejoin="round" stroke-width="1.5px"></path><path class="cls-1" d="M11.253 2.25h3.129a1.5 1.5 0 0 1 1.06.439L17.1 4.5" fill="none" stroke="#212121" stroke-linecap="round" stroke-linejoin="round" stroke-width="1.5px"></path><path class="cls-1" d="M11.253 6.75H9.624a1.5 1.5 0 0 0-1.06.439L7 8.765" fill="none" stroke="#212121" stroke-linecap="round" stroke-linejoin="round" stroke-width="1.5px"></path></g></svg>