<svg xmlns="http://www.w3.org/2000/svg" width="24" height="24" viewBox="0 0 24 24"><title>steampunk decoration</title><g fill="#212121" class="nc-icon-wrapper"><defs></defs><circle class="cls-1" cx="12" cy="12" r="11.25" fill="none" stroke="#212121" stroke-linecap="round" stroke-linejoin="round" stroke-width="1.5px"></circle><path class="cls-1" d="M12.087 5.816a1.5 1.5 0 1 1-2.92.687c-.19-.806.945-2.534.945-2.534S11.9 5.01 12.087 5.816z" fill="none" stroke="#212121" stroke-linecap="round" stroke-linejoin="round" stroke-width="1.5px"></path><circle class="cls-1" cx="12" cy="12" r="1.5" fill="none" stroke="#212121" stroke-linecap="round" stroke-linejoin="round" stroke-width="1.5px"></circle><path class="cls-1" d="M11.657 10.54l-.687-2.92" fill="none" stroke="#212121" stroke-linecap="round" stroke-linejoin="round" stroke-width="1.5px"></path><path class="cls-1" d="M14.972 17.424a1.5 1.5 0 1 1 2.2-2.037c.562.608.426 2.67.426 2.67s-2.063-.025-2.626-.633z" fill="none" stroke="#212121" stroke-linecap="round" stroke-linejoin="round" stroke-width="1.5px"></path><path class="cls-1" d="M13.018 13.102l2.037 2.202" fill="none" stroke="#212121" stroke-linecap="round" stroke-linejoin="round" stroke-width="1.5px"></path><path class="cls-1" d="M12 18.75A6.75 6.75 0 0 1 6.969 7.5" fill="none" stroke="#212121" stroke-linecap="round" stroke-linejoin="round" stroke-width="1.5px"></path><path class="cls-1" d="M15.74 6.381A6.742 6.742 0 0 1 18.75 12" fill="none" stroke="#212121" stroke-linecap="round" stroke-linejoin="round" stroke-width="1.5px"></path></g></svg>