<svg xmlns="http://www.w3.org/2000/svg" width="24" height="24" viewBox="0 0 24 24"><title>strategy split</title><g fill="#212121" class="nc-icon-wrapper"><defs></defs><path class="a" d="M9.651 6a.553.553 0 0 1-.476-.834L11.524 1a.553.553 0 0 1 .952 0l2.35 4.165a.554.554 0 0 1-.477.835z" fill="none" stroke="#212121" stroke-linecap="round" stroke-linejoin="round" stroke-width="1.5px"></path><path class="a" d="M6.412 10.94a.555.555 0 0 0-.589-.761l-4.6.647a.553.553 0 0 0-.365.882l2.792 3.707a.555.555 0 0 0 .955-.122l.9-2.176z" fill="none" stroke="#212121" stroke-linecap="round" stroke-linejoin="round" stroke-width="1.5px"></path><path class="a" d="M5.38 13.432c4.149 1.3 6.62 3.8 6.62 8.519v1.3" fill="none" stroke="#212121" stroke-linecap="round" stroke-linejoin="round" stroke-width="1.5px"></path><path class="a" d="M17.588 10.94a.555.555 0 0 1 .589-.761l4.6.647a.553.553 0 0 1 .365.882l-2.792 3.707a.555.555 0 0 1-.955-.122l-.9-2.176z" fill="none" stroke="#212121" stroke-linecap="round" stroke-linejoin="round" stroke-width="1.5px"></path><path class="a" d="M18.62 13.432c-4.149 1.3-6.62 3.8-6.62 8.519v1.3" fill="none" stroke="#212121" stroke-linecap="round" stroke-linejoin="round" stroke-width="1.5px"></path><path class="a" d="M12 6v15.951" fill="none" stroke="#212121" stroke-linecap="round" stroke-linejoin="round" stroke-width="1.5px"></path></g></svg>