<svg xmlns="http://www.w3.org/2000/svg" width="24" height="24" viewBox="0 0 24 24"><title>study desk</title><g fill="#212121" class="nc-icon-wrapper"><defs></defs><path class="a" d="M22.125 15.789H1.875a.749.749 0 0 1-.727-.568l-.375-1.5a.749.749 0 0 1 .727-.932h21a.749.749 0 0 1 .727.932l-.375 1.5a.749.749 0 0 1-.727.568z" fill="none" stroke="#212121" stroke-linecap="round" stroke-linejoin="round" stroke-width="1.5px"></path><path class="a" d="M3 15.789l-1.5 7.5" fill="none" stroke="#212121" stroke-linecap="round" stroke-linejoin="round" stroke-width="1.5px"></path><path class="a" d="M21 15.789l1.5 7.5" fill="none" stroke="#212121" stroke-linecap="round" stroke-linejoin="round" stroke-width="1.5px"></path><path class="a" d="M14.25 12.789a3 3 0 0 1 6 0" fill="none" stroke="#212121" stroke-linecap="round" stroke-linejoin="round" stroke-width="1.5px"></path><path class="a" d="M15 2.289a2.25 2.25 0 0 1 2.25 2.25v5.25" fill="none" stroke="#212121" stroke-linecap="round" stroke-linejoin="round" stroke-width="1.5px"></path><path class="a" d="M10.824 1.539a3 3 0 0 1 3.426 4.926z" fill="none" stroke="#212121" stroke-linecap="round" stroke-linejoin="round" stroke-width="1.5px"></path><path class="a" d="M10.473 12.789H3.75a1.5 1.5 0 0 1 0-3h6.723" fill="none" stroke="#212121" stroke-linecap="round" stroke-linejoin="round" stroke-width="1.5px"></path><path class="a" d="M8.973 9.789v3" fill="none" stroke="#212121" stroke-linecap="round" stroke-linejoin="round" stroke-width="1.5px"></path><path class="a" d="M10.473 9.789H3.75a1.5 1.5 0 0 1 0-3h6.723" fill="none" stroke="#212121" stroke-linecap="round" stroke-linejoin="round" stroke-width="1.5px"></path><path class="a" d="M8.973 6.789v3" fill="none" stroke="#212121" stroke-linecap="round" stroke-linejoin="round" stroke-width="1.5px"></path></g></svg>