<svg xmlns="http://www.w3.org/2000/svg" width="24" height="24" viewBox="0 0 24 24"><title>study notebook maths</title><g fill="#212121" class="nc-icon-wrapper"><defs></defs><path class="a" d="M22.822 13.387l-6.51 8.606-3.612 1.258.228-3.817 6.51-8.606a2.115 2.115 0 0 1 2.963-.411l.01.007a2.116 2.116 0 0 1 .411 2.963z" fill="none" stroke="#212121" stroke-linecap="round" stroke-linejoin="round" stroke-width="1.5px"></path><path class="a" d="M9 23.251H2.25a1.556 1.556 0 0 1-1.5-1.607V5.359a1.557 1.557 0 0 1 1.5-1.608h19.5a1.557 1.557 0 0 1 1.5 1.608v1.392" fill="none" stroke="#212121" stroke-linecap="round" stroke-linejoin="round" stroke-width="1.5px"></path><path class="a" d="M5.25.751v4.5" fill="none" stroke="#212121" stroke-linecap="round" stroke-linejoin="round" stroke-width="1.5px"></path><path class="a" d="M9.75.751v4.5" fill="none" stroke="#212121" stroke-linecap="round" stroke-linejoin="round" stroke-width="1.5px"></path><path class="a" d="M14.25.751v4.5" fill="none" stroke="#212121" stroke-linecap="round" stroke-linejoin="round" stroke-width="1.5px"></path><path class="a" d="M18.75.751v4.5" fill="none" stroke="#212121" stroke-linecap="round" stroke-linejoin="round" stroke-width="1.5px"></path><path class="a" d="M3.75 9.376a1.125 1.125 0 0 1 1.125-1.125A1.125 1.125 0 0 1 6 9.376a1.6 1.6 0 0 1-.351 1l-1.9 2.373H6" fill="none" stroke="#212121" stroke-linecap="round" stroke-linejoin="round" stroke-width="1.5px"></path><path class="a" d="M12.75 8.251h.75a.75.75 0 0 1 .75.75v3.75" fill="none" stroke="#212121" stroke-linecap="round" stroke-linejoin="round" stroke-width="1.5px"></path><path class="a" d="M12.75 12.751H15" fill="none" stroke="#212121" stroke-linecap="round" stroke-linejoin="round" stroke-width="1.5px"></path><path class="a" d="M9.75 9.001v3" fill="none" stroke="#212121" stroke-linecap="round" stroke-linejoin="round" stroke-width="1.5px"></path><path class="a" d="M8.25 10.501h3" fill="none" stroke="#212121" stroke-linecap="round" stroke-linejoin="round" stroke-width="1.5px"></path></g></svg>