<svg xmlns="http://www.w3.org/2000/svg" width="24" height="24" viewBox="0 0 24 24"><title>style two pin warning</title><g fill="#212121" class="nc-icon-wrapper"><defs></defs><path class="a" d="M12.359 12.493a.375.375 0 0 1-.469.248" fill="none" stroke="#212121" stroke-linecap="round" stroke-linejoin="round" stroke-width="1.5px"></path><path class="a" d="M12.11 12.024a.377.377 0 0 1 .249.469" fill="none" stroke="#212121" stroke-linecap="round" stroke-linejoin="round" stroke-width="1.5px"></path><path class="a" d="M11.641 12.273a.377.377 0 0 1 .469-.249" fill="none" stroke="#212121" stroke-linecap="round" stroke-linejoin="round" stroke-width="1.5px"></path><path class="a" d="M11.89 12.741a.375.375 0 0 1-.249-.468" fill="none" stroke="#212121" stroke-linecap="round" stroke-linejoin="round" stroke-width="1.5px"></path><path class="a" d="M12 9.758v-3" fill="none" stroke="#212121" stroke-linecap="round" stroke-linejoin="round" stroke-width="1.5px"></path><path class="a" d="M21 9.758c0 7.9-6.932 12.331-8.629 13.3a.749.749 0 0 1-.743 0C9.931 22.088 3 17.656 3 9.758a9 9 0 0 1 18 0z" fill="none" stroke="#212121" stroke-linecap="round" stroke-linejoin="round" stroke-width="1.5px"></path></g></svg>