<svg xmlns="http://www.w3.org/2000/svg" width="24" height="24" viewBox="0 0 24 24"><title>style three pin lotus</title><g fill="#212121" class="nc-icon-wrapper"><defs></defs><path class="a" d="M12 .8a9 9 0 0 1 9 9c0 7.9-6.932 12.331-8.629 13.3a.751.751 0 0 1-.743 0C9.931 22.132 3 17.7 3 9.8a9 9 0 0 1 9-9z" fill="none" stroke="#212121" stroke-linecap="round" stroke-linejoin="round" stroke-width="1.5px"></path><path class="a" d="M13.5 8.2a4.677 4.677 0 0 1-1.5 3 4.677 4.677 0 0 1-1.5-3 4.677 4.677 0 0 1 1.5-3 4.677 4.677 0 0 1 1.5 3z" fill="none" stroke="#212121" stroke-linecap="round" stroke-linejoin="round" stroke-width="1.5px"></path><path class="a" d="M13.257 9.36a3.2 3.2 0 0 1 1.006-.637 4.675 4.675 0 0 1 3.338.325 4.676 4.676 0 0 1-2.263 2.475A4.677 4.677 0 0 1 12 11.2" fill="none" stroke="#212121" stroke-linecap="round" stroke-linejoin="round" stroke-width="1.5px"></path><path class="a" d="M10.743 9.36a3.2 3.2 0 0 0-1.006-.637 4.675 4.675 0 0 0-3.337.325 4.676 4.676 0 0 0 2.263 2.475A4.677 4.677 0 0 0 12 11.2" fill="none" stroke="#212121" stroke-linecap="round" stroke-linejoin="round" stroke-width="1.5px"></path><path class="a" d="M12 11.198v3" fill="none" stroke="#212121" stroke-linecap="round" stroke-linejoin="round" stroke-width="1.5px"></path></g></svg>