<svg xmlns="http://www.w3.org/2000/svg" width="24" height="24" viewBox="0 0 24 24"><title>style three pin cart</title><g fill="#212121" class="nc-icon-wrapper"><defs></defs><path class="a" d="M15.835 8.3h-7.67a1.5 1.5 0 0 0-1.4 2.027l1.308 3.486a.748.748 0 0 0 .7.487h6.46a.748.748 0 0 0 .7-.487l1.308-3.486A1.5 1.5 0 0 0 15.835 8.3z" fill="none" stroke="#212121" stroke-linecap="round" stroke-linejoin="round" stroke-width="1.5px"></path><path class="a" d="M8.25 8.302l1.5-3.75" fill="none" stroke="#212121" stroke-linecap="round" stroke-linejoin="round" stroke-width="1.5px"></path><path class="a" d="M15.75 8.302l-1.5-3.75" fill="none" stroke="#212121" stroke-linecap="round" stroke-linejoin="round" stroke-width="1.5px"></path><path class="a" d="M21 9.8c0 7.9-6.932 12.331-8.629 13.3a.751.751 0 0 1-.743 0C9.931 22.132 3 17.7 3 9.8a9 9 0 0 1 18 0z" fill="none" stroke="#212121" stroke-linecap="round" stroke-linejoin="round" stroke-width="1.5px"></path></g></svg>