<svg xmlns="http://www.w3.org/2000/svg" width="24" height="24" viewBox="0 0 24 24"><title>style two pin photography</title><g fill="#212121" class="nc-icon-wrapper"><defs></defs><path class="a" d="M12 10.5a.375.375 0 0 1 .375.375" fill="none" stroke="#212121" stroke-linecap="round" stroke-linejoin="round" stroke-width="1.5px"></path><path class="a" d="M11.625 10.879A.375.375 0 0 1 12 10.5" fill="none" stroke="#212121" stroke-linecap="round" stroke-linejoin="round" stroke-width="1.5px"></path><path class="a" d="M12 11.254a.375.375 0 0 1-.375-.375" fill="none" stroke="#212121" stroke-linecap="round" stroke-linejoin="round" stroke-width="1.5px"></path><path class="a" d="M12.375 10.879a.375.375 0 0 1-.375.375" fill="none" stroke="#212121" stroke-linecap="round" stroke-linejoin="round" stroke-width="1.5px"></path><path class="a" d="M16.5 9.754a1.5 1.5 0 0 0-1.5-1.5h-.75V7.89a1.5 1.5 0 0 0-1.45-1.136h-1.879c-.688 0-1 .468-1.171 1.136v.364H9a1.5 1.5 0 0 0-1.5 1.5v3a1.5 1.5 0 0 0 1.5 1.5h6a1.5 1.5 0 0 0 1.5-1.5z" fill="none" stroke="#212121" stroke-linecap="round" stroke-linejoin="round" stroke-width="1.5px"></path><path class="a" d="M21 9.754c0 7.9-6.932 12.331-8.629 13.3a.749.749 0 0 1-.743 0C9.931 22.084 3 17.652 3 9.754a9 9 0 0 1 18 0z" fill="none" stroke="#212121" stroke-linecap="round" stroke-linejoin="round" stroke-width="1.5px"></path></g></svg>