<svg xmlns="http://www.w3.org/2000/svg" width="24" height="24" viewBox="0 0 24 24"><title>style one pin car</title><g fill="#212121" class="nc-icon-wrapper"><defs></defs><path class="a" d="M21.25 9.75a9 9 0 1 0-10.8 8.819l1.8 4.681 1.8-4.681a9 9 0 0 0 7.2-8.819z" fill="none" stroke="#212121" stroke-linecap="round" stroke-linejoin="round" stroke-width="1.5px"></path><path class="a" d="M9.25 11.25v1.5" fill="none" stroke="#212121" stroke-linecap="round" stroke-linejoin="round" stroke-width="1.5px"></path><path class="a" d="M15.25 11.25v1.5" fill="none" stroke="#212121" stroke-linecap="round" stroke-linejoin="round" stroke-width="1.5px"></path><path class="a" d="M16.75 9.75a1.5 1.5 0 0 1-1.5 1.5h-6a1.5 1.5 0 0 1 0-3h6a1.5 1.5 0 0 1 1.5 1.5z" fill="none" stroke="#212121" stroke-linecap="round" stroke-linejoin="round" stroke-width="1.5px"></path><path class="a" d="M10.25 5.25h4a1 1 0 0 1 1 1v2h-6v-2a1 1 0 0 1 1-1z" fill="none" stroke="#212121" stroke-linecap="round" stroke-linejoin="round" stroke-width="1.5px"></path></g></svg>