<svg xmlns="http://www.w3.org/2000/svg" width="24" height="24" viewBox="0 0 24 24"><title>style one pin cross</title><g fill="#212121" class="nc-icon-wrapper"><defs></defs><path class="a" d="M16.5 9a.75.75 0 0 0-.75-.75H13.5V6a.75.75 0 0 0-.75-.75h-1.5a.75.75 0 0 0-.75.75v2.25H8.25A.75.75 0 0 0 7.5 9v1.5a.75.75 0 0 0 .75.75h2.25v2.25a.75.75 0 0 0 .75.75h1.5a.75.75 0 0 0 .75-.75v-2.25h2.25a.75.75 0 0 0 .75-.75z" fill="none" stroke="#212121" stroke-linecap="round" stroke-linejoin="round" stroke-width="1.5px"></path><path class="a" d="M21 9.75a9 9 0 1 0-10.8 8.82l1.8 4.68 1.8-4.68A9 9 0 0 0 21 9.75z" fill="none" stroke="#212121" stroke-linecap="round" stroke-linejoin="round" stroke-width="1.5px"></path></g></svg>