<svg xmlns="http://www.w3.org/2000/svg" width="24" height="24" viewBox="0 0 24 24"><title>style two pin plane</title><g fill="#212121" class="nc-icon-wrapper"><defs></defs><path class="a" d="M5.609 12.433l1.382.95" fill="none" stroke="#212121" stroke-linecap="round" stroke-linejoin="round" stroke-width="1.5px"></path><path class="a" d="M15.524 8.665l-1.969 1.089-4.147-2.849-1.969 1.088 3.49 3.213-3.938 2.177 2 1.375a1.5 1.5 0 0 0 1.575.076l6.409-3.543a1.5 1.5 0 0 0-1.452-2.626z" fill="none" stroke="#212121" stroke-linecap="round" stroke-linejoin="round" stroke-width="1.5px"></path><path class="a" d="M20.75 9.754c0 7.9-6.932 12.331-8.629 13.3a.749.749 0 0 1-.743 0c-1.7-.967-8.628-5.4-8.628-13.3a9 9 0 0 1 18 0z" fill="none" stroke="#212121" stroke-linecap="round" stroke-linejoin="round" stroke-width="1.5px"></path></g></svg>