<svg xmlns="http://www.w3.org/2000/svg" width="24" height="24" viewBox="0 0 24 24"><title>surveillance cctv 1</title><g fill="#212121" class="nc-icon-wrapper"><defs></defs><path class="a" d="M8.25 14v3.333a2.848 2.848 0 0 1-3 2.667H.75" fill="none" stroke="#212121" stroke-linecap="round" stroke-linejoin="round" stroke-width="1.5px"></path><path class="a" d="M.75 17.75v3.75" fill="none" stroke="#212121" stroke-linecap="round" stroke-linejoin="round" stroke-width="1.5px"></path><path class="a" d="M15 11H1.5a.75.75 0 0 1-.75-.75V6.5A4.5 4.5 0 0 1 5.25 2h16.5a1.5 1.5 0 0 1 1.5 1.5v1.275a1.5 1.5 0 0 1-.891 1.371L16.5 8.751V9.5A1.5 1.5 0 0 1 15 11z" fill="none" stroke="#212121" stroke-linecap="round" stroke-linejoin="round" stroke-width="1.5px"></path><path class="a" d="M20.25 7.084V12.5a1.5 1.5 0 0 1-1.5 1.5H5.25a3 3 0 0 1-3-3" fill="none" stroke="#212121" stroke-linecap="round" stroke-linejoin="round" stroke-width="1.5px"></path><path class="a" d="M23.25 8.75v3" fill="none" stroke="#212121" stroke-linecap="round" stroke-linejoin="round" stroke-width="1.5px"></path></g></svg>