<svg xmlns="http://www.w3.org/2000/svg" width="24" height="24" viewBox="0 0 24 24"><title>swimming lifeguard</title><g fill="#212121" class="nc-icon-wrapper"><defs></defs><circle class="cls-1" cx="5.249" cy="3.375" r="2.625" fill="none" stroke="#212121" stroke-linecap="round" stroke-linejoin="round" stroke-width="1.5px"></circle><path class="cls-1" d="M10.5 18.75a1.5 1.5 0 0 1-1.343-.829L8.073 15.75H5.25a1.5 1.5 0 0 1-1.5-1.5v-4.5a1.5 1.5 0 0 1 3 0v3H9a1.5 1.5 0 0 1 1.342.829l1.5 3A1.5 1.5 0 0 1 10.5 18.75z" fill="none" stroke="#212121" stroke-linecap="round" stroke-linejoin="round" stroke-width="1.5px"></path><path class="cls-1" d="M7.5 15.75H.75V10.5" fill="none" stroke="#212121" stroke-linecap="round" stroke-linejoin="round" stroke-width="1.5px"></path><path class="cls-1" d="M6 15.75l.75 7.5" fill="none" stroke="#212121" stroke-linecap="round" stroke-linejoin="round" stroke-width="1.5px"></path><path class="cls-1" d="M1.5 15.75l-.75 7.5" fill="none" stroke="#212121" stroke-linecap="round" stroke-linejoin="round" stroke-width="1.5px"></path><path class="cls-1" d="M1.05 20.25h5.4" fill="none" stroke="#212121" stroke-linecap="round" stroke-linejoin="round" stroke-width="1.5px"></path><path class="cls-1" d="M11.25 23.25a3.735 3.735 0 0 0 3-1.521 3.719 3.719 0 0 0 6 0 3.735 3.735 0 0 0 3 1.521" fill="none" stroke="#212121" stroke-linecap="round" stroke-linejoin="round" stroke-width="1.5px"></path><path class="cls-1" d="M17.25 19.5a3.735 3.735 0 0 0 3-1.521 3.735 3.735 0 0 0 3 1.521" fill="none" stroke="#212121" stroke-linecap="round" stroke-linejoin="round" stroke-width="1.5px"></path></g></svg>