<svg xmlns="http://www.w3.org/2000/svg" width="24" height="24" viewBox="0 0 24 24"><title>swimming jump</title><g fill="#212121" class="nc-icon-wrapper"><defs></defs><path class="cls-1" d="M.75 18h10.5v5.25" fill="none" stroke="#212121" stroke-linecap="round" stroke-linejoin="round" stroke-width="1.5px"></path><circle class="cls-1" cx="13.5" cy="4.875" r="2.625" fill="none" stroke="#212121" stroke-linecap="round" stroke-linejoin="round" stroke-width="1.5px"></circle><path class="cls-1" d="M3.214 14.978l1.648-2.745L1.19 8.561A1.5 1.5 0 0 1 2.25 6h3.085L3.28 3.122a1.5 1.5 0 0 1 2.441-1.744l3.75 5.25A1.5 1.5 0 0 1 8.25 9H5.871l1.94 1.939a1.5 1.5 0 0 1 .225 1.833l-1.323 2.206" fill="none" stroke="#212121" stroke-linecap="round" stroke-linejoin="round" stroke-width="1.5px"></path><path class="cls-1" d="M11.25 23.25a3.732 3.732 0 0 0 3-1.521 3.719 3.719 0 0 0 6 0 3.735 3.735 0 0 0 3 1.521" fill="none" stroke="#212121" stroke-linecap="round" stroke-linejoin="round" stroke-width="1.5px"></path></g></svg>