<svg xmlns="http://www.w3.org/2000/svg" width="24" height="24" viewBox="0 0 24 24"><title>swimming diving</title><g fill="#212121" class="nc-icon-wrapper"><defs></defs><circle class="cls-1" cx="18.423" cy="7.721" r="2.25" fill="none" stroke="#212121" stroke-linecap="round" stroke-linejoin="round" stroke-width="1.5px"></circle><path class="cls-1" d="M4.831 3.428a.746.746 0 0 1 .368.3l2.544 3.986 5.851 2.2a1.515 1.515 0 0 1 .627.447l3.86 4.655a1.5 1.5 0 0 1-2.31 1.915l-3.605-4.351-5.946-2.233a1.5 1.5 0 0 1-.736-.6L1.6 3.653a.75.75 0 0 1 .9-1.1z" fill="none" stroke="#212121" stroke-linecap="round" stroke-linejoin="round" stroke-width="1.5px"></path><path class="cls-1" d="M9.163 8.247l-1.055 2.809" fill="none" stroke="#212121" stroke-linecap="round" stroke-linejoin="round" stroke-width="1.5px"></path><path class="cls-1" d="M7.173 6.821L4.414 8.073" fill="none" stroke="#212121" stroke-linecap="round" stroke-linejoin="round" stroke-width="1.5px"></path><path class="cls-1" d="M.75 21.672a4.668 4.668 0 0 0 3.75-1.9 4.649 4.649 0 0 0 7.5 0 4.649 4.649 0 0 0 7.5 0 4.668 4.668 0 0 0 3.75 1.9" fill="none" stroke="#212121" stroke-linecap="round" stroke-linejoin="round" stroke-width="1.5px"></path></g></svg>