<svg xmlns="http://www.w3.org/2000/svg" width="24" height="24" viewBox="0 0 24 24"><title>table lamp colorful</title><g fill="#212121" class="nc-icon-wrapper"><defs></defs><path class="cls-1" d="M18.639 22.107C17.25 21 17.1 19.343 18.4 17.769a1.5 1.5 0 0 0 .309-1.292l-3.444-14.56A1.5 1.5 0 0 0 13.8.75h-3.6a1.5 1.5 0 0 0-1.465 1.167l-3.448 14.56a1.5 1.5 0 0 0 .313 1.292c1.3 1.574 1.15 3.231-.239 4.338-.212.17-.148.522-.016.76A.751.751 0 0 0 6 23.25h12a.751.751 0 0 0 .655-.383c.132-.238.196-.59-.016-.76z" fill="none" stroke="#212121" stroke-linecap="round" stroke-linejoin="round" stroke-width="1.5px"></path><circle class="cls-1" cx="10.875" cy="11.625" r="1.875" fill="none" stroke="#212121" stroke-linecap="round" stroke-linejoin="round" stroke-width="1.5px"></circle><path class="cls-1" d="M14.625 14.25a.375.375 0 1 1-.375.375.375.375 0 0 1 .375-.375" fill="none" stroke="#212121" stroke-linecap="round" stroke-linejoin="round" stroke-width="1.5px"></path><path class="cls-1" d="M13.125 6.75a.375.375 0 1 1-.375.375.375.375 0 0 1 .375-.375" fill="none" stroke="#212121" stroke-linecap="round" stroke-linejoin="round" stroke-width="1.5px"></path><path class="cls-1" d="M10.875 3.75a.375.375 0 1 1-.375.375.375.375 0 0 1 .375-.375" fill="none" stroke="#212121" stroke-linecap="round" stroke-linejoin="round" stroke-width="1.5px"></path><path class="cls-1" d="M5.317 17.25h13.367" fill="none" stroke="#212121" stroke-linecap="round" stroke-linejoin="round" stroke-width="1.5px"></path></g></svg>