<svg xmlns="http://www.w3.org/2000/svg" width="24" height="24" viewBox="0 0 24 24"><title>table candles</title><g fill="#212121" class="nc-icon-wrapper"><defs></defs><path class="cls-1" d="M12 7.875v15" fill="none" stroke="#212121" stroke-linecap="round" stroke-linejoin="round" stroke-width="1.5px"></path><path class="cls-1" d="M14.25 5.175a2.506 2.506 0 0 1-2.25 2.7 2.506 2.506 0 0 1-2.25-2.7c0-2.025 2.25-4.05 2.25-4.05s2.25 2.025 2.25 4.05z" fill="none" stroke="#212121" stroke-linecap="round" stroke-linejoin="round" stroke-width="1.5px"></path><path class="cls-1" d="M6 7.425a2.506 2.506 0 0 1-2.25 2.7 2.506 2.506 0 0 1-2.25-2.7c0-2.025 2.25-4.05 2.25-4.05S6 5.4 6 7.425z" fill="none" stroke="#212121" stroke-linecap="round" stroke-linejoin="round" stroke-width="1.5px"></path><path class="cls-1" d="M22.5 7.425a2.506 2.506 0 0 1-2.25 2.7 2.506 2.506 0 0 1-2.25-2.7c0-2.025 2.25-4.05 2.25-4.05S22.5 5.4 22.5 7.425z" fill="none" stroke="#212121" stroke-linecap="round" stroke-linejoin="round" stroke-width="1.5px"></path><path class="cls-1" d="M20.25 10.125a8.25 8.25 0 0 1-16.5 0" fill="none" stroke="#212121" stroke-linecap="round" stroke-linejoin="round" stroke-width="1.5px"></path><path class="cls-1" d="M8.25 22.875h7.5" fill="none" stroke="#212121" stroke-linecap="round" stroke-linejoin="round" stroke-width="1.5px"></path></g></svg>