<svg xmlns="http://www.w3.org/2000/svg" width="24" height="24" viewBox="0 0 24 24"><title>table restaurant beach</title><g fill="#212121" class="nc-icon-wrapper"><defs></defs><path class="cls-1" d="M1.5 15.75l1.5 4.5h3a1.5 1.5 0 0 1 1.5 1.5v1.5" fill="none" stroke="#212121" stroke-linecap="round" stroke-linejoin="round" stroke-width="1.5px"></path><path class="cls-1" d="M3 20.25v3" fill="none" stroke="#212121" stroke-linecap="round" stroke-linejoin="round" stroke-width="1.5px"></path><path class="cls-1" d="M22.5 15.75l-1.5 4.5h-3a1.5 1.5 0 0 0-1.5 1.5v1.5" fill="none" stroke="#212121" stroke-linecap="round" stroke-linejoin="round" stroke-width="1.5px"></path><path class="cls-1" d="M21 20.25v3" fill="none" stroke="#212121" stroke-linecap="round" stroke-linejoin="round" stroke-width="1.5px"></path><path class="cls-1" d="M12 11.716V23.25" fill="none" stroke="#212121" stroke-linecap="round" stroke-linejoin="round" stroke-width="1.5px"></path><path class="cls-1" d="M22.06 9.216a1.5 1.5 0 0 1 .344 1.589 3.129 3.129 0 0 1-2.9 1.945 2.987 2.987 0 0 1-2.625-1.575 2.971 2.971 0 0 1-4.879.541 2.971 2.971 0 0 1-4.875-.541A2.987 2.987 0 0 1 4.5 12.75a3.13 3.13 0 0 1-2.9-1.945 1.5 1.5 0 0 1 .34-1.589l9-8.026a1.5 1.5 0 0 1 2.122 0z" fill="none" stroke="#212121" stroke-linecap="round" stroke-linejoin="round" stroke-width="1.5px"></path><path class="cls-1" d="M7.125 11.175L12 .75" fill="none" stroke="#212121" stroke-linecap="round" stroke-linejoin="round" stroke-width="1.5px"></path><path class="cls-1" d="M16.875 11.175L12 .75" fill="none" stroke="#212121" stroke-linecap="round" stroke-linejoin="round" stroke-width="1.5px"></path></g></svg>