<svg xmlns="http://www.w3.org/2000/svg" width="24" height="24" viewBox="0 0 24 24"><title>table lamp 3</title><g fill="#212121" class="nc-icon-wrapper"><defs></defs><path class="cls-1" d="M5.25 23.25s1.5-3 6.75-3 6.75 3 6.75 3z" fill="none" stroke="#212121" stroke-linecap="round" stroke-linejoin="round" stroke-width="1.5px"></path><path class="cls-1" d="M12 13.666v6.584" fill="none" stroke="#212121" stroke-linecap="round" stroke-linejoin="round" stroke-width="1.5px"></path><path class="cls-1" d="M4.5 12A2.384 2.384 0 0 0 7 14.25a2.642 2.642 0 0 0 1.667-.584 2.67 2.67 0 0 0 3.333 0 2.67 2.67 0 0 0 3.333 0A2.642 2.642 0 0 0 17 14.25 2.384 2.384 0 0 0 19.5 12l-1.474-9.948A1.619 1.619 0 0 0 16.374.75H7.626a1.619 1.619 0 0 0-1.652 1.3z" fill="none" stroke="#212121" stroke-linecap="round" stroke-linejoin="round" stroke-width="1.5px"></path><path class="cls-1" d="M16.5 14.206V16.5" fill="none" stroke="#212121" stroke-linecap="round" stroke-linejoin="round" stroke-width="1.5px"></path></g></svg>