<svg xmlns="http://www.w3.org/2000/svg" width="24" height="24" viewBox="0 0 24 24"><title>tag euro</title><g fill="#212121" class="nc-icon-wrapper"><defs></defs><path class="a" d="M10.293 16.5c-1.975-1.975-1.975-4.156 0-6.131s4.156-1.975 6.131 0" fill="none" stroke="#212121" stroke-linecap="round" stroke-linejoin="round" stroke-width="1.5px"></path><path class="a" d="M10.293 8.326l4.087 4.087" fill="none" stroke="#212121" stroke-linecap="round" stroke-linejoin="round" stroke-width="1.5px"></path><path class="a" d="M8.25 10.369l3.065 3.065" fill="none" stroke="#212121" stroke-linecap="round" stroke-linejoin="round" stroke-width="1.5px"></path><circle class="a" cx="18.244" cy="5.45" r="1.445" fill="none" stroke="#212121" stroke-linecap="round" stroke-linejoin="round" stroke-width="1.5px"></circle><path class="a" d="M21.705.75h-9.374a1.546 1.546 0 0 0-1.127.487L1.168 11.908a1.536 1.536 0 0 0 .11 2.212l10.031 8.749a1.549 1.549 0 0 0 2.146-.108l9.379-10.017a1.538 1.538 0 0 0 .416-1.051V2.29A1.542 1.542 0 0 0 21.705.75z" fill="none" stroke="#212121" stroke-linecap="round" stroke-linejoin="round" stroke-width="1.5px"></path></g></svg>