<svg xmlns="http://www.w3.org/2000/svg" width="24" height="24" viewBox="0 0 24 24"><title>tag dollar</title><g fill="#212121" class="nc-icon-wrapper"><defs></defs><path class="a" d="M15.75 11.758l-2.316-2.316a1.293 1.293 0 0 0-1.968 0c-1.079 1.079 1.4 5.2.318 6.282a1.366 1.366 0 0 1-1.968 0L7.5 13.408" fill="none" stroke="#212121" stroke-linecap="round" stroke-linejoin="round" stroke-width="1.5px"></path><path class="a" d="M14.1 10.108l1.237-1.237" fill="none" stroke="#212121" stroke-linecap="round" stroke-linejoin="round" stroke-width="1.5px"></path><path class="a" d="M7.912 16.296l1.238-1.238" fill="none" stroke="#212121" stroke-linecap="round" stroke-linejoin="round" stroke-width="1.5px"></path><circle class="a" cx="18.244" cy="5.45" r="1.445" fill="none" stroke="#212121" stroke-linecap="round" stroke-linejoin="round" stroke-width="1.5px"></circle><path class="a" d="M21.705.75h-9.374a1.546 1.546 0 0 0-1.127.487L1.168 11.908a1.536 1.536 0 0 0 .11 2.212l10.031 8.749a1.549 1.549 0 0 0 2.146-.108l9.379-10.017a1.538 1.538 0 0 0 .416-1.051V2.29A1.542 1.542 0 0 0 21.705.75z" fill="none" stroke="#212121" stroke-linecap="round" stroke-linejoin="round" stroke-width="1.5px"></path></g></svg>