<svg xmlns="http://www.w3.org/2000/svg" width="24" height="24" viewBox="0 0 24 24"><title>tags share</title><g fill="#212121" class="nc-icon-wrapper"><defs></defs><path class="a" d="M9 19.188a1.5 1.5 0 0 1-2.121 0L1.5 13.81a1.5 1.5 0 0 1 0-2.122L12 1.188a1.5 1.5 0 0 1 1.061-.439h5.378a1.5 1.5 0 0 1 1.5 1.5v5.379a1.5 1.5 0 0 1-.439 1.06" fill="none" stroke="#212121" stroke-linecap="round" stroke-linejoin="round" stroke-width="1.5px"></path><path class="a" d="M16.189 4.124a.375.375 0 1 0 .375.375.375.375 0 0 0-.375-.375" fill="none" stroke="#212121" stroke-linecap="round" stroke-linejoin="round" stroke-width="1.5px"></path><circle class="a" cx="13.189" cy="17.999" r="2.25" fill="none" stroke="#212121" stroke-linecap="round" stroke-linejoin="round" stroke-width="1.5px"></circle><circle class="a" cx="20.689" cy="20.999" r="2.25" fill="none" stroke="#212121" stroke-linecap="round" stroke-linejoin="round" stroke-width="1.5px"></circle><circle class="a" cx="20.689" cy="13.499" r="2.25" fill="none" stroke="#212121" stroke-linecap="round" stroke-linejoin="round" stroke-width="1.5px"></circle><path class="a" d="M15.114 16.844l3.65-2.19" fill="none" stroke="#212121" stroke-linecap="round" stroke-linejoin="round" stroke-width="1.5px"></path><path class="a" d="M15.277 18.834l3.325 1.33" fill="none" stroke="#212121" stroke-linecap="round" stroke-linejoin="round" stroke-width="1.5px"></path></g></svg>