<svg xmlns="http://www.w3.org/2000/svg" width="24" height="24" viewBox="0 0 24 24"><title>task checklist</title><g fill="#212121" class="nc-icon-wrapper"><defs></defs><path class="a" d="M7.75 3.749h-4a1.5 1.5 0 0 0-1.5 1.5v16.5a1.5 1.5 0 0 0 1.5 1.5h16.5a1.5 1.5 0 0 0 1.5-1.5v-16.5a1.5 1.5 0 0 0-1.5-1.5h-4" fill="none" stroke="#212121" stroke-linecap="round" stroke-linejoin="round" stroke-width="1.5px"></path><path class="a" d="M15.921 4.736a.751.751 0 0 1-.712.513H8.791a.751.751 0 0 1-.712-.513l-1-3a.749.749 0 0 1 .712-.987h8.418a.749.749 0 0 1 .712.987z" fill="none" stroke="#212121" stroke-linecap="round" stroke-linejoin="round" stroke-width="1.5px"></path><path class="a" d="M18.75 6.749v9.878a1.5 1.5 0 0 1-.439 1.061l-2.122 2.121a1.5 1.5 0 0 1-1.06.44H6a.75.75 0 0 1-.75-.75V6.749" fill="none" stroke="#212121" stroke-linecap="round" stroke-linejoin="round" stroke-width="1.5px"></path><path class="a" d="M14.25 20.249v-3a1.5 1.5 0 0 1 1.5-1.5h3" fill="none" stroke="#212121" stroke-linecap="round" stroke-linejoin="round" stroke-width="1.5px"></path></g></svg>