<svg xmlns="http://www.w3.org/2000/svg" width="24" height="24" viewBox="0 0 24 24"><title>task list delete</title><g fill="#212121" class="nc-icon-wrapper"><defs></defs><path class="a" d="M22.372 17.39l-4.993 4.993a3 3 0 0 1-2.121.879H3.75a3 3 0 0 1-3-3v-16.5a3 3 0 0 1 3-3h16.5a3 3 0 0 1 3 3v11.507a3 3 0 0 1-.878 2.121z" fill="none" stroke="#212121" stroke-linecap="round" stroke-linejoin="round" stroke-width="1.5px"></path><path class="a" d="M15.75 23.221v-4.459a3 3 0 0 1 3-3h4.459" fill="none" stroke="#212121" stroke-linecap="round" stroke-linejoin="round" stroke-width="1.5px"></path><path class="a" d="M15 6.762l-6 6" fill="none" stroke="#212121" stroke-linecap="round" stroke-linejoin="round" stroke-width="1.5px"></path><path class="a" d="M9 6.762l6 6" fill="none" stroke="#212121" stroke-linecap="round" stroke-linejoin="round" stroke-width="1.5px"></path></g></svg>