<svg xmlns="http://www.w3.org/2000/svg" width="24" height="24" viewBox="0 0 24 24"><title>task list settings</title><g fill="#212121" class="nc-icon-wrapper"><defs></defs><circle class="a" cx="17.25" cy="16.511" r="1.5" fill="none" stroke="#212121" stroke-linecap="round" stroke-linejoin="round" stroke-width="1.5px"></circle><path class="a" d="M18.524 10.708l.442 1.453a.994.994 0 0 0 1.174.681l1.472-.341a1.339 1.339 0 0 1 1.275 2.218l-1.031 1.111a1 1 0 0 0 0 1.362l1.031 1.108a1.339 1.339 0 0 1-1.275 2.218l-1.472-.338a.994.994 0 0 0-1.174.681l-.442 1.453a1.33 1.33 0 0 1-2.548 0l-.442-1.453a.994.994 0 0 0-1.174-.681l-1.472.341a1.339 1.339 0 0 1-1.275-2.221l1.031-1.111a1 1 0 0 0 0-1.362l-1.031-1.111a1.339 1.339 0 0 1 1.275-2.216l1.472.341a.994.994 0 0 0 1.174-.681l.442-1.453a1.33 1.33 0 0 1 2.548.001z" fill="none" stroke="#212121" stroke-linecap="round" stroke-linejoin="round" stroke-width="1.5px"></path><path class="a" d="M5.25 10.511h4.5" fill="none" stroke="#212121" stroke-linecap="round" stroke-linejoin="round" stroke-width="1.5px"></path><path class="a" d="M5.25 14.261H7.5" fill="none" stroke="#212121" stroke-linecap="round" stroke-linejoin="round" stroke-width="1.5px"></path><path class="a" d="M5.25 18.011H7.5" fill="none" stroke="#212121" stroke-linecap="round" stroke-linejoin="round" stroke-width="1.5px"></path><path class="a" d="M9.75 23.261h-7.5a1.5 1.5 0 0 1-1.5-1.5V6.011a1.5 1.5 0 0 1 1.5-1.5H6a3.75 3.75 0 0 1 7.5 0h3.75a1.5 1.5 0 0 1 1.5 1.5v.75" fill="none" stroke="#212121" stroke-linecap="round" stroke-linejoin="round" stroke-width="1.5px"></path><path class="a" d="M9.75 3.761a.375.375 0 1 1-.375.375.375.375 0 0 1 .375-.375" fill="none" stroke="#212121" stroke-linecap="round" stroke-linejoin="round" stroke-width="1.5px"></path></g></svg>