<svg xmlns="http://www.w3.org/2000/svg" width="24" height="24" viewBox="0 0 24 24"><title>tea bottle herbal</title><g fill="#212121" class="nc-icon-wrapper"><defs></defs><path class="cls-1" d="M14.83 11.138a6.574 6.574 0 0 0-3.58-2.888v-4.5h-6v4.5a6.582 6.582 0 0 0-4.5 6.243v7.257a1.5 1.5 0 0 0 1.5 1.5H7.5" fill="none" stroke="#212121" stroke-linecap="round" stroke-linejoin="round" stroke-width="1.5px"></path><path class="cls-1" d="M12.75 2.25a1.5 1.5 0 0 1-1.5 1.5h-6a1.5 1.5 0 0 1 0-3h6a1.5 1.5 0 0 1 1.5 1.5z" fill="none" stroke="#212121" stroke-linecap="round" stroke-linejoin="round" stroke-width="1.5px"></path><path class="cls-1" d="M10.558 23.25l11.343-11.343" fill="none" stroke="#212121" stroke-linecap="round" stroke-linejoin="round" stroke-width="1.5px"></path><path class="cls-1" d="M16.287 13.74l.299 3.481 3.482.3" fill="none" stroke="#212121" stroke-linecap="round" stroke-linejoin="round" stroke-width="1.5px"></path><path class="cls-1" d="M13.105 16.922l.299 3.481 3.482.3" fill="none" stroke="#212121" stroke-linecap="round" stroke-linejoin="round" stroke-width="1.5px"></path><path class="cls-1" d="M19.469 10.558l.299 3.481 3.482.3" fill="none" stroke="#212121" stroke-linecap="round" stroke-linejoin="round" stroke-width="1.5px"></path><path class="cls-1" d="M10.5 15A2.25 2.25 0 0 1 6 15c0-1.243 2.25-3.75 2.25-3.75S10.5 13.757 10.5 15z" fill="none" stroke="#212121" stroke-linecap="round" stroke-linejoin="round" stroke-width="1.5px"></path></g></svg>