<svg xmlns="http://www.w3.org/2000/svg" width="24" height="24" viewBox="0 0 24 24"><title>tea kettle</title><g fill="#212121" class="nc-icon-wrapper"><defs></defs><path class="cls-1" d="M6.9 12h14.7" fill="none" stroke="#212121" stroke-linecap="round" stroke-linejoin="round" stroke-width="1.5px"></path><path class="cls-1" d="M6.136 14.25H3.621a2.121 2.121 0 0 0-1.5 3.621L6 21.75" fill="none" stroke="#212121" stroke-linecap="round" stroke-linejoin="round" stroke-width="1.5px"></path><path class="cls-1" d="M22.5 21.75a1.5 1.5 0 0 1-1.5 1.5H7.5a1.5 1.5 0 0 1-1.5-1.5v-6a8.25 8.25 0 0 1 16.5 0z" fill="none" stroke="#212121" stroke-linecap="round" stroke-linejoin="round" stroke-width="1.5px"></path><circle class="cls-1" cx="14.25" cy="6" r="1.5" fill="none" stroke="#212121" stroke-linecap="round" stroke-linejoin="round" stroke-width="1.5px"></circle><path class="cls-1" d="M21 11.005v-3.13A6.965 6.965 0 0 0 14.25.75 6.965 6.965 0 0 0 7.5 7.875v3.13" fill="none" stroke="#212121" stroke-linecap="round" stroke-linejoin="round" stroke-width="1.5px"></path></g></svg>