<svg xmlns="http://www.w3.org/2000/svg" width="24" height="24" viewBox="0 0 24 24"><title>tennis backhand</title><g fill="#212121" class="nc-icon-wrapper"><defs></defs><circle class="cls-1" cx="10.501" cy="3.375" r="2.625" fill="none" stroke="#212121" stroke-linecap="round" stroke-linejoin="round" stroke-width="1.5px"></circle><path class="cls-1" d="M21 17.624a.375.375 0 0 1 .375.375" fill="none" stroke="#212121" stroke-linecap="round" stroke-linejoin="round" stroke-width="1.5px"></path><path class="cls-1" d="M20.626 18a.375.375 0 0 1 .374-.376" fill="none" stroke="#212121" stroke-linecap="round" stroke-linejoin="round" stroke-width="1.5px"></path><path class="cls-1" d="M21 18.374a.375.375 0 0 1-.374-.374" fill="none" stroke="#212121" stroke-linecap="round" stroke-linejoin="round" stroke-width="1.5px"></path><path class="cls-1" d="M21.376 18a.375.375 0 0 1-.375.375" fill="none" stroke="#212121" stroke-linecap="round" stroke-linejoin="round" stroke-width="1.5px"></path><ellipse class="cls-1" cx="20.167" cy="6.148" rx="3.75" ry="2.813" transform="rotate(-59.388 20.168 6.148)" fill="none" stroke="#212121" stroke-linecap="round" stroke-linejoin="round" stroke-width="1.5px"></ellipse><path class="cls-1" d="M16.859 11.738l1.398-2.363" fill="none" stroke="#212121" stroke-linecap="round" stroke-linejoin="round" stroke-width="1.5px"></path><path class="cls-1" d="M11.352 13.876a1.5 1.5 0 0 0 .99.373h3.409a1.5 1.5 0 1 0 0-3h-3.225L9.674 8.112a1.5 1.5 0 0 0-2.452.338l-3 5.994a4.526 4.526 0 0 0-.476 2.014v2.291l-2.4 1.8a1.5 1.5 0 0 0 1.8 2.4l2.4-1.8a3.011 3.011 0 0 0 1.2-2.4v-.725l2.589 1.11 1.269 3.173a1.5 1.5 0 1 0 2.785-1.115l-1.269-3.173a2.978 2.978 0 0 0-1.6-1.643L7.3 15l1.625-3.25z" fill="none" stroke="#212121" stroke-linecap="round" stroke-linejoin="round" stroke-width="1.5px"></path></g></svg>