<svg xmlns="http://www.w3.org/2000/svg" width="24" height="24" viewBox="0 0 24 24"><title>ticket day 7</title><g fill="#212121" class="nc-icon-wrapper"><defs></defs><path class="a" d="M20.25 12a3.009 3.009 0 0 0 3 3v3.75a3.009 3.009 0 0 1-3 3H3.75a3.009 3.009 0 0 1-3-3V15a3 3 0 0 0 0-6V5.25a3.009 3.009 0 0 1 3-3h16.5a3.009 3.009 0 0 1 3 3V9a3.009 3.009 0 0 0-3 3z" fill="none" stroke="#212121" stroke-linecap="round" stroke-linejoin="round" stroke-width="1.5px"></path><path class="a" d="M10.5 18.75v-4.5a1.5 1.5 0 0 1 3 0v4.5" fill="none" stroke="#212121" stroke-linecap="round" stroke-linejoin="round" stroke-width="1.5px"></path><path class="a" d="M10.5 17.25h3" fill="none" stroke="#212121" stroke-linecap="round" stroke-linejoin="round" stroke-width="1.5px"></path><path class="a" d="M15.75 12.75v1.5a1.5 1.5 0 0 0 3 0v-1.5" fill="none" stroke="#212121" stroke-linecap="round" stroke-linejoin="round" stroke-width="1.5px"></path><path class="a" d="M17.25 15.75v3" fill="none" stroke="#212121" stroke-linecap="round" stroke-linejoin="round" stroke-width="1.5px"></path><path class="a" d="M5.25 18.75c4.008 0 3.922-6 0-6z" fill="none" stroke="#212121" stroke-linecap="round" stroke-linejoin="round" stroke-width="1.5px"></path><path class="a" d="M11.25 5.25h1.918a.751.751 0 0 1 .7 1.014l-1.282 3.425" fill="none" stroke="#212121" stroke-linecap="round" stroke-linejoin="round" stroke-width="1.5px"></path></g></svg>