<svg xmlns="http://www.w3.org/2000/svg" width="24" height="24" viewBox="0 0 24 24"><title>ticket exchange</title><g fill="#212121" class="nc-icon-wrapper"><defs></defs><path class="a" d="M15.75 15.75V13.5a.75.75 0 0 0-.75-.75H1.5a.75.75 0 0 0-.75.75v2.25a1.5 1.5 0 0 1 0 3V21a.75.75 0 0 0 .75.75H15a.75.75 0 0 0 .75-.75v-2.25a1.5 1.5 0 0 1 0-3z" fill="none" stroke="#212121" stroke-linecap="round" stroke-linejoin="round" stroke-width="1.5px"></path><path class="a" d="M5.25 15.75v3" fill="none" stroke="#212121" stroke-linecap="round" stroke-linejoin="round" stroke-width="1.5px"></path><path class="a" d="M8.25 9.75v-1.5a1.5 1.5 0 0 0 0-3V3A.75.75 0 0 1 9 2.25h13.5a.75.75 0 0 1 .75.75v2.25a1.5 1.5 0 0 0 0 3v2.25a.75.75 0 0 1-.75.75h-3.75" fill="none" stroke="#212121" stroke-linecap="round" stroke-linejoin="round" stroke-width="1.5px"></path><path class="a" d="M12.75 5.25v3" fill="none" stroke="#212121" stroke-linecap="round" stroke-linejoin="round" stroke-width="1.5px"></path><path class="a" d="M23.25 15a3 3 0 0 1-3 3h-1.5" fill="none" stroke="#212121" stroke-linecap="round" stroke-linejoin="round" stroke-width="1.5px"></path><path class="a" d="M.75 9a3 3 0 0 1 3-3h1.5" fill="none" stroke="#212121" stroke-linecap="round" stroke-linejoin="round" stroke-width="1.5px"></path><path class="a" d="M3.75 4.5L5.25 6l-1.5 1.5" fill="none" stroke="#212121" stroke-linecap="round" stroke-linejoin="round" stroke-width="1.5px"></path><path class="a" d="M20.25 16.5l-1.5 1.5 1.5 1.5" fill="none" stroke="#212121" stroke-linecap="round" stroke-linejoin="round" stroke-width="1.5px"></path></g></svg>