<svg xmlns="http://www.w3.org/2000/svg" width="24" height="24" viewBox="0 0 24 24"><title>time clock six 1</title><g fill="#212121" class="nc-icon-wrapper"><defs></defs><path class="a" d="M13.5.75a11.25 11.25 0 0 0 0 22.5z" fill="none" stroke="#212121" stroke-linecap="round" stroke-linejoin="round" stroke-width="1.5px" fill-rule="evenodd"></path><path class="b" d="M5.625 11.625A.375.375 0 1 0 6 12a.375.375 0 0 0-.375-.375" fill="none" stroke="#212121" stroke-linecap="round" stroke-linejoin="round" stroke-width="1.5px"></path><path class="b" d="M7.666 6.167a.375.375 0 1 0 .266-.11.374.374 0 0 0-.266.11" fill="none" stroke="#212121" stroke-linecap="round" stroke-linejoin="round" stroke-width="1.5px"></path><path class="b" d="M7.932 17.194a.375.375 0 0 0-.266.64.375.375 0 0 0 .534-.534.373.373 0 0 0-.265-.11" fill="none" stroke="#212121" stroke-linecap="round" stroke-linejoin="round" stroke-width="1.5px"></path><path class="b" d="M21.375 11.625a.375.375 0 1 0 .375.375.375.375 0 0 0-.375-.375" fill="none" stroke="#212121" stroke-linecap="round" stroke-linejoin="round" stroke-width="1.5px"></path><path class="b" d="M19.068 6.057a.37.37 0 0 0-.265.11.375.375 0 1 0 .265-.11" fill="none" stroke="#212121" stroke-linecap="round" stroke-linejoin="round" stroke-width="1.5px"></path><path class="b" d="M19.068 17.194a.37.37 0 0 0-.265.11.375.375 0 1 0 .265-.11" fill="none" stroke="#212121" stroke-linecap="round" stroke-linejoin="round" stroke-width="1.5px"></path></g></svg>