<svg xmlns="http://www.w3.org/2000/svg" width="24" height="24" viewBox="0 0 24 24"><title>time clock nine</title><g fill="#212121" class="nc-icon-wrapper"><defs></defs><path class="a" d="M12 .75c-.253 0-.5.022-.75.038V11.25H.788c-.017.249-.038.5-.038.75A11.25 11.25 0 1 0 12 .75z" fill="none" stroke="#212121" stroke-linecap="round" stroke-linejoin="round" stroke-width="1.5px"></path><path class="a" d="M19.875 11.625a.375.375 0 1 0 .375.375.375.375 0 0 0-.375-.375" fill="none" stroke="#212121" stroke-linecap="round" stroke-linejoin="round" stroke-width="1.5px"></path><path class="a" d="M17.568 6.057a.37.37 0 0 0-.265.11.375.375 0 1 0 .265-.11" fill="none" stroke="#212121" stroke-linecap="round" stroke-linejoin="round" stroke-width="1.5px"></path><path class="a" d="M17.568 17.194a.37.37 0 0 0-.265.11.375.375 0 1 0 .265-.11" fill="none" stroke="#212121" stroke-linecap="round" stroke-linejoin="round" stroke-width="1.5px"></path><path class="a" d="M12 19.5a.375.375 0 1 0 .375.375A.375.375 0 0 0 12 19.5" fill="none" stroke="#212121" stroke-linecap="round" stroke-linejoin="round" stroke-width="1.5px"></path><path class="a" d="M6.7 17.3a.372.372 0 0 0-.265-.11.375.375 0 0 0-.266.64.375.375 0 0 0 .531-.53" fill="none" stroke="#212121" stroke-linecap="round" stroke-linejoin="round" stroke-width="1.5px"></path></g></svg>