<svg xmlns="http://www.w3.org/2000/svg" width="24" height="24" viewBox="0 0 24 24"><title>toilet need 1</title><g fill="#212121" class="nc-icon-wrapper"><defs></defs><circle class="a" cx="12.003" cy="3.378" r="2.625" fill="none" stroke="#212121" stroke-linecap="round" stroke-linejoin="round" stroke-width="1.5px"></circle><path class="a" d="M15 12a1.5 1.5 0 0 1-.6 1.2l-1.8 1.351a1.5 1.5 0 1 0 1.8 2.4l1.8-1.35A4.5 4.5 0 0 0 18 12v-.747a3 3 0 0 0-3-3H9a3 3 0 0 0-3 3V12a4.5 4.5 0 0 0 1.8 3.6l1.8 1.35a1.5 1.5 0 0 0 1.8-2.4L9.6 13.2A1.5 1.5 0 0 1 9 12" fill="none" stroke="#212121" stroke-linecap="round" stroke-linejoin="round" stroke-width="1.5px"></path><path class="a" d="M16.135 15.639L18 18.753h-2.383l1.94 1.939a1.5 1.5 0 0 1-2.121 2.121L12 19.374l-3.44 3.439a1.5 1.5 0 0 1-2.121-2.121l1.94-1.939H6l1.859-3.1" fill="none" stroke="#212121" stroke-linecap="round" stroke-linejoin="round" stroke-width="1.5px"></path><path class="a" d="M12.003 19.374v-3.477" fill="none" stroke="#212121" stroke-linecap="round" stroke-linejoin="round" stroke-width="1.5px"></path></g></svg>