<svg xmlns="http://www.w3.org/2000/svg" width="24" height="24" viewBox="0 0 24 24"><title>tools crescent double</title><g fill="#212121" class="nc-icon-wrapper"><defs></defs><path class="a" d="M4.235 19.235a.375.375 0 1 0 .53 0 .374.374 0 0 0-.53 0" fill="none" stroke="#212121" stroke-linecap="round" stroke-linejoin="round" stroke-width="1.5px"></path><path class="a" d="M19.235 4.222a.375.375 0 1 1 0 .53.375.375 0 0 1 0-.53" fill="none" stroke="#212121" stroke-linecap="round" stroke-linejoin="round" stroke-width="1.5px"></path><path class="a" d="M19.5.75a3.749 3.749 0 0 0-3.416 2.2l-3.822.85a2.251 2.251 0 0 0-1.744 1.918l-1.3 10.427-2.275.5a3.749 3.749 0 1 0 .977 4.393l3.822-.849a2.251 2.251 0 0 0 1.744-1.918l1.3-10.427 2.275-.5A3.75 3.75 0 1 0 19.5.75z" fill="none" stroke="#212121" stroke-linecap="round" stroke-linejoin="round" stroke-width="1.5px"></path></g></svg>