<svg xmlns="http://www.w3.org/2000/svg" width="24" height="24" viewBox="0 0 24 24"><title>tools kitchen scale</title><g fill="#212121" class="nc-icon-wrapper"><defs></defs><circle class="cls-1" cx="12" cy="17.25" r="3" fill="none" stroke="#212121" stroke-linecap="round" stroke-linejoin="round" stroke-width="1.5px"></circle><path class="cls-1" d="M12 14.25v2.25" fill="none" stroke="#212121" stroke-linecap="round" stroke-linejoin="round" stroke-width="1.5px"></path><path class="cls-1" d="M22.432 21.3A1.5 1.5 0 0 1 21 23.25H3a1.5 1.5 0 0 1-1.432-1.95l2.813-9a1.5 1.5 0 0 1 1.431-1.05h12.375a1.5 1.5 0 0 1 1.432 1.05z" fill="none" stroke="#212121" stroke-linecap="round" stroke-linejoin="round" stroke-width="1.5px"></path><path class="cls-1" d="M3 .75a.75.75 0 0 0-.692 1.039A10.5 10.5 0 0 0 12 8.25a10.5 10.5 0 0 0 9.689-6.462A.75.75 0 0 0 21 .75z" fill="none" stroke="#212121" stroke-linecap="round" stroke-linejoin="round" stroke-width="1.5px"></path><path class="cls-1" d="M9 7.815v3.435" fill="none" stroke="#212121" stroke-linecap="round" stroke-linejoin="round" stroke-width="1.5px"></path><path class="cls-1" d="M15 7.815v3.435" fill="none" stroke="#212121" stroke-linecap="round" stroke-linejoin="round" stroke-width="1.5px"></path></g></svg>