<svg xmlns="http://www.w3.org/2000/svg" width="24" height="24" viewBox="0 0 24 24"><title>tools slip joint pliers</title><g fill="#212121" class="nc-icon-wrapper"><defs></defs><path class="a" d="M18.75 4.2H9.737a3.1 3.1 0 0 1-1.829-.632 4.5 4.5 0 0 0-5.84 6.813l2.121-2.124a1.5 1.5 0 0 1 2.122 0l2.121 2.121A4.489 4.489 0 0 0 9.493 8.7h9.257a1.5 1.5 0 0 0 1.5-1.5V5.7a1.5 1.5 0 0 0-1.5-1.5z" fill="none" stroke="#212121" stroke-linecap="round" stroke-linejoin="round" stroke-width="1.5px"></path><path class="a" d="M23.25 4.197v4.5" fill="none" stroke="#212121" stroke-linecap="round" stroke-linejoin="round" stroke-width="1.5px"></path><path class="a" d="M20.25 6.447h3" fill="none" stroke="#212121" stroke-linecap="round" stroke-linejoin="round" stroke-width="1.5px"></path><path class="a" d="M8.25 10.2v3s10.5 3.75 12 7.5c0 0-2.883 1.365-4.5 0-2.488-2.1-6.994-4.065-8.25-3.75a3.029 3.029 0 0 1-3.75-2.25z" fill="none" stroke="#212121" stroke-linecap="round" stroke-linejoin="round" stroke-width="1.5px"></path><path class="a" d="M15.75 8.697l-5.347 5.346" fill="none" stroke="#212121" stroke-linecap="round" stroke-linejoin="round" stroke-width="1.5px"></path></g></svg>