<svg xmlns="http://www.w3.org/2000/svg" width="24" height="24" viewBox="0 0 24 24"><title>tools gasket 1</title><g fill="#212121" class="nc-icon-wrapper"><defs></defs><path class="a" d="M15 23.25H9a.75.75 0 0 1-.75-.75v-3.749l1.5-3h4.5l1.5 3V22.5a.75.75 0 0 1-.75.75z" fill="none" stroke="#212121" stroke-linecap="round" stroke-linejoin="round" stroke-width="1.5px"></path><path class="a" d="M21 .75H3a.75.75 0 0 0-.75.75V3a.75.75 0 0 0 .75.75h6a.75.75 0 0 1 .75.75v11.25h4.5V4.5a.75.75 0 0 1 .75-.75h6a.75.75 0 0 0 .75-.75V1.5A.75.75 0 0 0 21 .75z" fill="none" stroke="#212121" stroke-linecap="round" stroke-linejoin="round" stroke-width="1.5px"></path><path class="a" d="M9.75 12.75h4.5" fill="none" stroke="#212121" stroke-linecap="round" stroke-linejoin="round" stroke-width="1.5px"></path></g></svg>