<svg xmlns="http://www.w3.org/2000/svg" width="24" height="24" viewBox="0 0 24 24"><title>tools axe</title><g fill="#212121" class="nc-icon-wrapper"><defs></defs><path class="a" d="M16.012 3.755a9.685 9.685 0 0 0-7.1 7.1" fill="none" stroke="#212121" stroke-linecap="round" stroke-linejoin="round" stroke-width="1.5px"></path><path class="a" d="M11.9 12.228l-8.387 8.4a1.5 1.5 0 1 0 2.121 2.121l8.485-8.485" fill="none" stroke="#212121" stroke-linecap="round" stroke-linejoin="round" stroke-width="1.5px"></path><path class="a" d="M19.425 8.964l1.06-1.06a1.5 1.5 0 1 0-2.121-2.122l-.962.963" fill="none" stroke="#212121" stroke-linecap="round" stroke-linejoin="round" stroke-width="1.5px"></path><path class="a" d="M18.364 7.9a8.975 8.975 0 0 1-2.6-7.1 9.741 9.741 0 0 0-9.8 9.8 8.975 8.975 0 0 1 7.1 2.6l2.121 2.121 5.3-5.3z" fill="none" stroke="#212121" stroke-linecap="round" stroke-linejoin="round" stroke-width="1.5px"></path></g></svg>