<svg xmlns="http://www.w3.org/2000/svg" width="24" height="24" viewBox="0 0 24 24"><title>tools wench screwdriver</title><g fill="#212121" class="nc-icon-wrapper"><defs></defs><path class="a" d="M4.591 22.542a2.25 2.25 0 0 1-3.182-3.182L7.773 13l3.182 3.182z" fill="none" stroke="#212121" stroke-linecap="round" stroke-linejoin="round" stroke-width="1.5px"></path><path class="a" d="M18.379 5.572l-9.015 9.015" fill="none" stroke="#212121" stroke-linecap="round" stroke-linejoin="round" stroke-width="1.5px"></path><path class="a" d="M20.5 5.572a1.5 1.5 0 0 1-2.121-2.122L21.031.8l2.121 2.12z" fill="none" stroke="#212121" stroke-linecap="round" stroke-linejoin="round" stroke-width="1.5px"></path><path class="a" d="M10.49 8.32L8.2 6.025a3.748 3.748 0 0 0-.837-4.019A3.708 3.708 0 0 0 5.123.948 2.993 2.993 0 0 1 1 5.074a3.721 3.721 0 0 0 5.073 3.072l1.576 1.576" fill="none" stroke="#212121" stroke-linecap="round" stroke-linejoin="round" stroke-width="1.5px"></path><path class="a" d="M14.237 16.31l1.775 1.774a3.75 3.75 0 1 0 2.121-2.121l-2.511-2.511" fill="none" stroke="#212121" stroke-linecap="round" stroke-linejoin="round" stroke-width="1.5px"></path><path class="a" d="M19.235 19.186a.375.375 0 1 1 0 .53.375.375 0 0 1 0-.53" fill="none" stroke="#212121" stroke-linecap="round" stroke-linejoin="round" stroke-width="1.5px"></path></g></svg>