<svg xmlns="http://www.w3.org/2000/svg" width="24" height="24" viewBox="0 0 24 24"><title>touch id user</title><g fill="#212121" class="nc-icon-wrapper"><defs></defs><path class="a" d="M12 1.753A7.5 7.5 0 0 0 .75 8.25" fill="none" stroke="#212121" stroke-linecap="round" stroke-linejoin="round" stroke-width="1.5px"></path><path class="a" d="M15.75 8.25a7.478 7.478 0 0 0-.624-3" fill="none" stroke="#212121" stroke-linecap="round" stroke-linejoin="round" stroke-width="1.5px"></path><path class="a" d="M8.25 23.25a7.563 7.563 0 0 0 1.5-.15" fill="none" stroke="#212121" stroke-linecap="round" stroke-linejoin="round" stroke-width="1.5px"></path><path class="a" d="M.75 12.75v3a7.5 7.5 0 0 0 4.5 6.876" fill="none" stroke="#212121" stroke-linecap="round" stroke-linejoin="round" stroke-width="1.5px"></path><path class="a" d="M12.75 10.5V8.25A4.5 4.5 0 0 0 6 4.352" fill="none" stroke="#212121" stroke-linecap="round" stroke-linejoin="round" stroke-width="1.5px"></path><path class="a" d="M3.75 8.25v7.5a4.5 4.5 0 0 0 6 4.244" fill="none" stroke="#212121" stroke-linecap="round" stroke-linejoin="round" stroke-width="1.5px"></path><path class="a" d="M6.75 15.75a1.5 1.5 0 0 0 3 0v-7.5a1.5 1.5 0 0 0-3 0v3" fill="none" stroke="#212121" stroke-linecap="round" stroke-linejoin="round" stroke-width="1.5px"></path><circle class="a" cx="18" cy="13.125" r="2.625" fill="none" stroke="#212121" stroke-linecap="round" stroke-linejoin="round" stroke-width="1.5px"></circle><path class="a" d="M18 16.5a5.25 5.25 0 0 0-5.25 5.25v1.5h10.5v-1.5A5.249 5.249 0 0 0 18 16.5z" fill="none" stroke="#212121" stroke-linecap="round" stroke-linejoin="round" stroke-width="1.5px"></path></g></svg>