<svg xmlns="http://www.w3.org/2000/svg" width="24" height="24" viewBox="0 0 24 24"><title>toys lego</title><g fill="#212121" class="nc-icon-wrapper"><defs></defs><path class="a" d="M8.25 23.25H1.5a.75.75 0 0 1-.75-.75v-5.25" fill="none" stroke="#212121" stroke-linecap="round" stroke-linejoin="round" stroke-width="1.5px"></path><path class="a" d="M8.25 17.25H.75v-6" fill="none" stroke="#212121" stroke-linecap="round" stroke-linejoin="round" stroke-width="1.5px"></path><path class="a" d="M12.75 11.25h-12V6a.75.75 0 0 1 .75-.75H12a.75.75 0 0 1 .75.75v5.25" fill="none" stroke="#212121" stroke-linecap="round" stroke-linejoin="round" stroke-width="1.5px"></path><path class="a" d="M1.5 5.25V3a.75.75 0 0 1 .75-.75H4.5a.75.75 0 0 1 .75.75v2.25" fill="none" stroke="#212121" stroke-linecap="round" stroke-linejoin="round" stroke-width="1.5px"></path><path class="a" d="M8.25 5.25V3A.75.75 0 0 1 9 2.25h2.25A.75.75 0 0 1 12 3v2.25" fill="none" stroke="#212121" stroke-linecap="round" stroke-linejoin="round" stroke-width="1.5px"></path><path class="a" d="M12 17.25V15a.75.75 0 0 1 .75-.75H15a.75.75 0 0 1 .75.75v2.25" fill="none" stroke="#212121" stroke-linecap="round" stroke-linejoin="round" stroke-width="1.5px"></path><path class="a" d="M18.75 17.25V15a.75.75 0 0 1 .75-.75h2.25a.75.75 0 0 1 .75.75v2.25" fill="none" stroke="#212121" stroke-linecap="round" stroke-linejoin="round" stroke-width="1.5px"></path><rect class="a" x="11.25" y="17.25" width="12" height="6" rx=".75" ry=".75" fill="none" stroke="#212121" stroke-linecap="round" stroke-linejoin="round" stroke-width="1.5px"></rect></g></svg>