<svg xmlns="http://www.w3.org/2000/svg" width="24" height="24" viewBox="0 0 24 24"><title>transportation ticket car transfer plane</title><g fill="#212121" class="nc-icon-wrapper"><defs></defs><path class="a" d="M.75 6.47l1.364 1.225" fill="none" stroke="#212121" stroke-linecap="round" stroke-linejoin="round" stroke-width="1.5px"></path><path class="a" d="M12.03 3.785l-2.288.9-4.093-3.672-2.288.9 3.33 3.977L2.114 7.7l1.975 1.767a1.638 1.638 0 0 0 1.7.3l7.448-2.936a1.64 1.64 0 1 0-1.2-3.051z" fill="none" stroke="#212121" stroke-linecap="round" stroke-linejoin="round" stroke-width="1.5px"></path><path class="a" d="M22.5 6.263l-2.25 2.25L18 6.263" fill="none" stroke="#212121" stroke-linecap="round" stroke-linejoin="round" stroke-width="1.5px"></path><path class="a" d="M17.25 2.513a3 3 0 0 1 3 3v3" fill="none" stroke="#212121" stroke-linecap="round" stroke-linejoin="round" stroke-width="1.5px"></path><path class="a" d="M1.5 16.763l2.25-2.25L6 16.763" fill="none" stroke="#212121" stroke-linecap="round" stroke-linejoin="round" stroke-width="1.5px"></path><path class="a" d="M6.75 20.513a3 3 0 0 1-3-3v-3" fill="none" stroke="#212121" stroke-linecap="round" stroke-linejoin="round" stroke-width="1.5px"></path><path class="a" d="M12.75 18.263h1.5" fill="none" stroke="#212121" stroke-linecap="round" stroke-linejoin="round" stroke-width="1.5px"></path><path class="a" d="M18.75 18.263h1.5" fill="none" stroke="#212121" stroke-linecap="round" stroke-linejoin="round" stroke-width="1.5px"></path><path class="a" d="M11.25 21.263v1.5" fill="none" stroke="#212121" stroke-linecap="round" stroke-linejoin="round" stroke-width="1.5px"></path><path class="a" d="M21.75 21.263v1.5" fill="none" stroke="#212121" stroke-linecap="round" stroke-linejoin="round" stroke-width="1.5px"></path><path class="a" d="M11.25 15.263h10.5" fill="none" stroke="#212121" stroke-linecap="round" stroke-linejoin="round" stroke-width="1.5px"></path><path class="a" d="M23 17.135l-1.25-1.872-1.158-3.474a1.5 1.5 0 0 0-1.423-1.026h-5.338a1.5 1.5 0 0 0-1.423 1.026l-1.158 3.474L10 17.135a1.5 1.5 0 0 0-.252.832v1.8a1.5 1.5 0 0 0 1.5 1.5h10.5a1.5 1.5 0 0 0 1.5-1.5v-1.8a1.5 1.5 0 0 0-.248-.832z" fill="none" stroke="#212121" stroke-linecap="round" stroke-linejoin="round" stroke-width="1.5px"></path></g></svg>