<svg xmlns="http://www.w3.org/2000/svg" width="24" height="24" viewBox="0 0 24 24"><title>travel luggage</title><g fill="#212121" class="nc-icon-wrapper"><defs></defs><path class="a" d="M9 20.248H3.746a3 3 0 0 1-3-3v-9a3 3 0 0 1 3-3h13.5a3 3 0 0 1 3 3V9" fill="none" stroke="#212121" stroke-linecap="round" stroke-linejoin="round" stroke-width="1.5px"></path><path class="a" d="M5.996 5.248v15" fill="none" stroke="#212121" stroke-linecap="round" stroke-linejoin="round" stroke-width="1.5px"></path><path class="a" d="M14.996 5.248v3.751" fill="none" stroke="#212121" stroke-linecap="round" stroke-linejoin="round" stroke-width="1.5px"></path><path class="a" d="M13.5 5.248v-3a1.5 1.5 0 0 0-1.5-1.5H9a1.5 1.5 0 0 0-1.5 1.5v3" fill="none" stroke="#212121" stroke-linecap="round" stroke-linejoin="round" stroke-width="1.5px"></path><circle class="a" cx="17.246" cy="17.248" r="6" fill="none" stroke="#212121" stroke-linecap="round" stroke-linejoin="round" stroke-width="1.5px"></circle><path class="a" d="M15.405 11.536L17.1 13.8a1.5 1.5 0 0 1-.3 2.1L15 17.248V18a1.5 1.5 0 0 1-1.5 1.5h-1.817" fill="none" stroke="#212121" stroke-linecap="round" stroke-linejoin="round" stroke-width="1.5px"></path><path class="a" d="M23.234 16.871l-2.661 1.339a1.5 1.5 0 0 0-.785 1.706l.621 2.431" fill="none" stroke="#212121" stroke-linecap="round" stroke-linejoin="round" stroke-width="1.5px"></path></g></svg>