<svg xmlns="http://www.w3.org/2000/svg" width="24" height="24" viewBox="0 0 24 24"><title>tree christmas</title><g fill="#212121" class="nc-icon-wrapper"><defs></defs><path class="cls-1" d="M18.933 20a.749.749 0 0 0 .592-1.21l-4.308-5.54h1.5a.751.751 0 0 0 .6-1.2l-3.6-4.8h1.6a.75.75 0 0 0 .624-1.166l-3.1-4.648a.751.751 0 0 0-1.249 0l-3.1 4.648a.75.75 0 0 0 .626 1.166h1.6l-3.6 4.8a.75.75 0 0 0 .6 1.2h1.5l-4.31 5.54A.749.749 0 0 0 5.5 20z" fill="none" stroke="#212121" stroke-linecap="round" stroke-linejoin="round" stroke-width="1.5px"></path><path class="cls-1" d="M12.217 20v3" fill="none" stroke="#212121" stroke-linecap="round" stroke-linejoin="round" stroke-width="1.5px"></path></g></svg>