<svg xmlns="http://www.w3.org/2000/svg" width="24" height="24" viewBox="0 0 24 24"><title>trekking stick</title><g fill="#212121" class="nc-icon-wrapper"><defs></defs><path class="cls-1" d="M12.751 12a4.545 4.545 0 0 1-4.086-2.525l-.572-1.146A1.525 1.525 0 0 0 6.657 7.5a1.5 1.5 0 0 0-1.321 1l-4.5 12.75a1.5 1.5 0 0 0 .915 1.915 1.536 1.536 0 0 0 .5.085 1.5 1.5 0 0 0 1.415-1l1.623-4.6a5.732 5.732 0 0 1 2.211 4.1 1.5 1.5 0 0 0 3 0c0-3.883-3.133-6.368-4.161-7.079l.771-2.186A7.52 7.52 0 0 0 12.751 15a1.5 1.5 0 0 0 0-3z" fill="none" stroke="#212121" stroke-linecap="round" stroke-linejoin="round" stroke-width="1.5px"></path><circle class="cls-1" cx="9.751" cy="3.75" r="2.625" fill="none" stroke="#212121" stroke-linecap="round" stroke-linejoin="round" stroke-width="1.5px"></circle><path class="cls-1" d="M.751 12.75l2.25-5.25" fill="none" stroke="#212121" stroke-linecap="round" stroke-linejoin="round" stroke-width="1.5px"></path><path class="cls-1" d="M15.001 19.5l4.5-2.25" fill="none" stroke="#212121" stroke-linecap="round" stroke-linejoin="round" stroke-width="1.5px"></path><path class="cls-1" d="M17.251 18.375v4.875" fill="none" stroke="#212121" stroke-linecap="round" stroke-linejoin="round" stroke-width="1.5px"></path><path class="cls-1" d="M18.001.75L15.751 3l2.25 2.25" fill="none" stroke="#212121" stroke-linecap="round" stroke-linejoin="round" stroke-width="1.5px"></path><path class="cls-1" d="M15.751 3h3.75" fill="none" stroke="#212121" stroke-linecap="round" stroke-linejoin="round" stroke-width="1.5px"></path><path class="cls-1" d="M20.251 21h3" fill="none" stroke="#212121" stroke-linecap="round" stroke-linejoin="round" stroke-width="1.5px"></path><path class="cls-1" d="M23.251 3v2.25" fill="none" stroke="#212121" stroke-linecap="round" stroke-linejoin="round" stroke-width="1.5px"></path><path class="cls-1" d="M23.251 9v2.25" fill="none" stroke="#212121" stroke-linecap="round" stroke-linejoin="round" stroke-width="1.5px"></path><path class="cls-1" d="M23.251 15v2.25" fill="none" stroke="#212121" stroke-linecap="round" stroke-linejoin="round" stroke-width="1.5px"></path></g></svg>