<svg xmlns="http://www.w3.org/2000/svg" width="24" height="24" viewBox="0 0 24 24"><title>trends torch 1</title><g fill="#212121" class="nc-icon-wrapper"><defs></defs><path class="a" d="M12 23.25a2.25 2.25 0 0 1-2.077-1.385L6.75 14.25h10.5l-3.173 7.615A2.25 2.25 0 0 1 12 23.25z" fill="none" stroke="#212121" stroke-linecap="round" stroke-linejoin="round" stroke-width="1.5px"></path><path class="a" d="M5.25 14.25h13.5" fill="none" stroke="#212121" stroke-linecap="round" stroke-linejoin="round" stroke-width="1.5px"></path><path class="a" d="M7.075 11.251a6.546 6.546 0 0 1-.325-2.144C6.75 5.379 12 .75 12 .75s5.25 4.629 5.25 8.357a6.534 6.534 0 0 1-.325 2.142" fill="none" stroke="#212121" stroke-linecap="round" stroke-linejoin="round" stroke-width="1.5px"></path><path class="a" d="M9.786 11.25A9.057 9.057 0 0 1 12 7.5a9.057 9.057 0 0 1 2.214 3.75" fill="none" stroke="#212121" stroke-linecap="round" stroke-linejoin="round" stroke-width="1.5px"></path></g></svg>