<svg xmlns="http://www.w3.org/2000/svg" width="24" height="24" viewBox="0 0 24 24"><title>trip road circle</title><g fill="#212121" class="nc-icon-wrapper"><defs></defs><path class="a" d="M23.25 12A11.25 11.25 0 1 1 12 .75" fill="none" stroke="#212121" stroke-linecap="round" stroke-width="1.5px" stroke-miterlimit="10"></path><path class="a" d="M3.985 13.272a7.467 7.467 0 0 1 .861-.506" fill="none" stroke="#212121" stroke-linecap="round" stroke-width="1.5px" stroke-miterlimit="10"></path><path class="b" d="M6.758 12.107c4.087-.781 6.507 2.94 10.323 3.565" fill="none" stroke="#212121" stroke-linecap="round" stroke-width="1.5px" stroke-miterlimit="10" stroke-dasharray="2.025 2.025"></path><path class="a" d="M18.091 15.76a6.945 6.945 0 0 0 1-.064" fill="none" stroke="#212121" stroke-linecap="round" stroke-width="1.5px" stroke-miterlimit="10"></path><path class="c" d="M18.75 4.875a.375.375 0 0 1 .375.375" fill="none" stroke="#212121" stroke-linecap="round" stroke-width="1.5px" stroke-linejoin="round"></path><path class="c" d="M18.375 5.25a.375.375 0 0 1 .375-.375" fill="none" stroke="#212121" stroke-linecap="round" stroke-width="1.5px" stroke-linejoin="round"></path><path class="c" d="M18.75 5.625a.375.375 0 0 1-.375-.375" fill="none" stroke="#212121" stroke-linecap="round" stroke-width="1.5px" stroke-linejoin="round"></path><path class="c" d="M19.125 5.25a.375.375 0 0 1-.375.375" fill="none" stroke="#212121" stroke-linecap="round" stroke-width="1.5px" stroke-linejoin="round"></path><path class="c" d="M18.75.75a4.5 4.5 0 0 1 4.5 4.5c0 1.921-2.688 5.577-3.909 7.138a.75.75 0 0 1-1.182 0c-1.221-1.562-3.909-5.217-3.909-7.138a4.5 4.5 0 0 1 4.5-4.5z" fill="none" stroke="#212121" stroke-linecap="round" stroke-width="1.5px" stroke-linejoin="round"></path></g></svg>