<svg xmlns="http://www.w3.org/2000/svg" width="24" height="24" viewBox="0 0 24 24"><title>truck</title><g fill="#212121" class="nc-icon-wrapper"><defs></defs><path class="a" d="M2.25 20.263v1.5a1.5 1.5 0 0 0 3 0v-1.5" fill="none" stroke="#212121" stroke-linecap="round" stroke-linejoin="round" stroke-width="1.5px"></path><path class="a" d="M.75 17.263h4.5" fill="none" stroke="#212121" stroke-linecap="round" stroke-linejoin="round" stroke-width="1.5px"></path><path class="a" d="M21.75 20.263v1.5a1.5 1.5 0 1 1-3 0v-1.5" fill="none" stroke="#212121" stroke-linecap="round" stroke-linejoin="round" stroke-width="1.5px"></path><path class="a" d="M23.25 15.763a3 3 0 0 0-3-3h-1.5v-9a3 3 0 0 0-3-3h-7.5a3 3 0 0 0-3 3v9h-1.5a3 3 0 0 0-3 3v3a1.5 1.5 0 0 0 1.5 1.5h19.5a1.5 1.5 0 0 0 1.5-1.5z" fill="none" stroke="#212121" stroke-linecap="round" stroke-linejoin="round" stroke-width="1.5px"></path><path class="a" d="M23.25 17.263h-4.5" fill="none" stroke="#212121" stroke-linecap="round" stroke-linejoin="round" stroke-width="1.5px"></path><path class="a" d="M5.25 3.763h13.5v6H5.25z" fill="none" stroke="#212121" stroke-linecap="round" stroke-linejoin="round" stroke-width="1.5px"></path><path class="a" d="M14.421 16.75a.751.751 0 0 1-.712.513h-3.418a.751.751 0 0 1-.712-.513l-1-3a.749.749 0 0 1 .712-.987h5.418a.749.749 0 0 1 .712.987z" fill="none" stroke="#212121" stroke-linecap="round" stroke-linejoin="round" stroke-width="1.5px"></path><path class="a" d="M.75 5.263a1.5 1.5 0 0 1 1.5 1.5v6.4" fill="none" stroke="#212121" stroke-linecap="round" stroke-linejoin="round" stroke-width="1.5px"></path><path class="a" d="M23.25 5.263a1.5 1.5 0 0 0-1.5 1.5v6.4" fill="none" stroke="#212121" stroke-linecap="round" stroke-linejoin="round" stroke-width="1.5px"></path></g></svg>