<svg xmlns="http://www.w3.org/2000/svg" width="24" height="24" viewBox="0 0 24 24"><title>tuk tuk 1</title><g fill="#212121" class="nc-icon-wrapper"><defs></defs><path class="a" d="M1.5 18.763v3a1.5 1.5 0 0 0 3 0v-3" fill="none" stroke="#212121" stroke-linecap="round" stroke-linejoin="round" stroke-width="1.5px"></path><path class="a" d="M3.75 14.263a2.25 2.25 0 0 0-2.25 2.25v2.25H6v-2.25a2.25 2.25 0 0 0-2.25-2.25z" fill="none" stroke="#212121" stroke-linecap="round" stroke-linejoin="round" stroke-width="1.5px"></path><path class="a" d="M22.5 18.763v3a1.5 1.5 0 1 1-3 0v-3" fill="none" stroke="#212121" stroke-linecap="round" stroke-linejoin="round" stroke-width="1.5px"></path><path class="a" d="M20.25 14.263a2.25 2.25 0 0 1 2.25 2.25v2.25H18v-2.25a2.25 2.25 0 0 1 2.25-2.25z" fill="none" stroke="#212121" stroke-linecap="round" stroke-linejoin="round" stroke-width="1.5px"></path><path class="a" d="M10.5 20.263h-3a1.5 1.5 0 0 1-1.5-1.5v-7.5l2.25-7.5h7.5l2.25 7.5v7.5a1.5 1.5 0 0 1-1.5 1.5h-3" fill="none" stroke="#212121" stroke-linecap="round" stroke-linejoin="round" stroke-width="1.5px"></path><path class="a" d="M6 11.263h12" fill="none" stroke="#212121" stroke-linecap="round" stroke-linejoin="round" stroke-width="1.5px"></path><path class="a" d="M12 17.263a1.5 1.5 0 0 0-1.5 1.5v3a1.5 1.5 0 1 0 3 0v-3a1.5 1.5 0 0 0-1.5-1.5z" fill="none" stroke="#212121" stroke-linecap="round" stroke-linejoin="round" stroke-width="1.5px"></path><path class="a" d="M9 13.888a.375.375 0 0 1 .375.375" fill="none" stroke="#212121" stroke-linecap="round" stroke-linejoin="round" stroke-width="1.5px"></path><path class="a" d="M8.625 14.263A.375.375 0 0 1 9 13.888" fill="none" stroke="#212121" stroke-linecap="round" stroke-linejoin="round" stroke-width="1.5px"></path><path class="a" d="M9 14.638a.375.375 0 0 1-.375-.375" fill="none" stroke="#212121" stroke-linecap="round" stroke-linejoin="round" stroke-width="1.5px"></path><path class="a" d="M9.375 14.263a.375.375 0 0 1-.375.375" fill="none" stroke="#212121" stroke-linecap="round" stroke-linejoin="round" stroke-width="1.5px"></path><path class="a" d="M15 13.888a.375.375 0 0 0-.375.375" fill="none" stroke="#212121" stroke-linecap="round" stroke-linejoin="round" stroke-width="1.5px"></path><path class="a" d="M15.375 14.263a.375.375 0 0 0-.375-.375" fill="none" stroke="#212121" stroke-linecap="round" stroke-linejoin="round" stroke-width="1.5px"></path><path class="a" d="M15 14.638a.375.375 0 0 0 .375-.375" fill="none" stroke="#212121" stroke-linecap="round" stroke-linejoin="round" stroke-width="1.5px"></path><path class="a" d="M14.625 14.263a.375.375 0 0 0 .375.375" fill="none" stroke="#212121" stroke-linecap="round" stroke-linejoin="round" stroke-width="1.5px"></path><path class="a" d="M18 3.763H6" fill="none" stroke="#212121" stroke-linecap="round" stroke-linejoin="round" stroke-width="1.5px"></path><path class="a" d="M10.75.763h2.5a1 1 0 0 1 1 1v2h-4.5v-2a1 1 0 0 1 1-1z" fill="none" stroke="#212121" stroke-linecap="round" stroke-linejoin="round" stroke-width="1.5px"></path></g></svg>