<svg xmlns="http://www.w3.org/2000/svg" width="24" height="24" viewBox="0 0 24 24"><title>tux</title><g fill="#212121" class="nc-icon-wrapper"><defs></defs><path class="cls-1" d="M.893 15.75H5.25" fill="none" stroke="#212121" stroke-linecap="round" stroke-linejoin="round" stroke-width="1.5px"></path><path class="cls-1" d="M20.889 2.758c-2.532 2.476-2.139 8.492-2.139 8.492v10.5s-1.5 1.5-6.75 1.5-6.75-1.5-6.75-1.5v-10.5s.393-6.016-2.139-8.492" fill="none" stroke="#212121" stroke-linecap="round" stroke-linejoin="round" stroke-width="1.5px"></path><path class="cls-1" d="M18.75 18.75h4.5l-.571-12a6 6 0 0 0-3.63-5.229L17.25.75S15.75 9 12 12C8.25 9 6.75.75 6.75.75l-1.8.771A6 6 0 0 0 1.321 6.75l-.571 12h4.5" fill="none" stroke="#212121" stroke-linecap="round" stroke-linejoin="round" stroke-width="1.5px"></path><path class="cls-1" d="M23.107 15.75H18.75" fill="none" stroke="#212121" stroke-linecap="round" stroke-linejoin="round" stroke-width="1.5px"></path><path class="cls-1" d="M12 12v11.25" fill="none" stroke="#212121" stroke-linecap="round" stroke-linejoin="round" stroke-width="1.5px"></path><path class="cls-1" d="M6.75.75A10.376 10.376 0 0 0 12 2.25a10.376 10.376 0 0 0 5.25-1.5" fill="none" stroke="#212121" stroke-linecap="round" stroke-linejoin="round" stroke-width="1.5px"></path><path class="cls-1" d="M11.25 5.25h1.5" fill="none" stroke="#212121" stroke-linecap="round" stroke-linejoin="round" stroke-width="1.5px"></path></g></svg>