<svg xmlns="http://www.w3.org/2000/svg" width="24" height="24" viewBox="0 0 24 24"><title>underwear bra</title><g fill="#212121" class="nc-icon-wrapper"><defs></defs><path class="cls-1" d="M2.415 12.133A1.5 1.5 0 0 0 .75 13.624V16.5a6 6 0 0 0 6 6 5.917 5.917 0 0 0 5.25-3c-1.342-5.02-4.678-6.831-9.585-7.367z" fill="none" stroke="#212121" stroke-linecap="round" stroke-linejoin="round" stroke-width="1.5px"></path><path class="cls-1" d="M21.585 12.133a1.5 1.5 0 0 1 1.665 1.491V16.5a6 6 0 0 1-6 6 5.917 5.917 0 0 1-5.25-3c1.342-5.02 4.678-6.831 9.585-7.367z" fill="none" stroke="#212121" stroke-linecap="round" stroke-linejoin="round" stroke-width="1.5px"></path><path class="cls-1" d="M2.214 12.124L5.25 1.5" fill="none" stroke="#212121" stroke-linecap="round" stroke-linejoin="round" stroke-width="1.5px"></path><path class="cls-1" d="M21.785 12.124L18.75 1.5" fill="none" stroke="#212121" stroke-linecap="round" stroke-linejoin="round" stroke-width="1.5px"></path></g></svg>