<svg xmlns="http://www.w3.org/2000/svg" width="24" height="24" viewBox="0 0 24 24"><title>underwear bra 1</title><g fill="#212121" class="nc-icon-wrapper"><defs></defs><path class="cls-1" d="M2.25 9.555V.75" fill="none" stroke="#212121" stroke-linecap="round" stroke-linejoin="round" stroke-width="1.5px"></path><path class="cls-1" d="M4.631 8.674a1.5 1.5 0 0 0-1.68.192C.2 11.242.419 14.15 1.5 17.25a7.44 7.44 0 0 0 8.059-.781 1.5 1.5 0 0 0 .523-1.821 11.755 11.755 0 0 0-5.451-5.974z" fill="none" stroke="#212121" stroke-linecap="round" stroke-linejoin="round" stroke-width="1.5px"></path><path class="cls-1" d="M21.75 9.555V.75" fill="none" stroke="#212121" stroke-linecap="round" stroke-linejoin="round" stroke-width="1.5px"></path><path class="cls-1" d="M19.369 8.674a1.5 1.5 0 0 1 1.68.192c2.751 2.376 2.532 5.284 1.451 8.384a7.44 7.44 0 0 1-8.059-.781 1.5 1.5 0 0 1-.523-1.821 11.755 11.755 0 0 1 5.451-5.974z" fill="none" stroke="#212121" stroke-linecap="round" stroke-linejoin="round" stroke-width="1.5px"></path><path class="cls-1" d="M8.25 17.25h7.5" fill="none" stroke="#212121" stroke-linecap="round" stroke-linejoin="round" stroke-width="1.5px"></path><path class="cls-1" d="M9.084 12.75h5.832" fill="none" stroke="#212121" stroke-linecap="round" stroke-linejoin="round" stroke-width="1.5px"></path><path class="cls-1" d="M21 23.25a40.99 40.99 0 0 0-9-1.5 40.99 40.99 0 0 0-9 1.5l-1.5-6" fill="none" stroke="#212121" stroke-linecap="round" stroke-linejoin="round" stroke-width="1.5px"></path><path class="cls-1" d="M22.5 17.25l-1.5 6" fill="none" stroke="#212121" stroke-linecap="round" stroke-linejoin="round" stroke-width="1.5px"></path></g></svg>