<svg xmlns="http://www.w3.org/2000/svg" width="24" height="24" viewBox="0 0 24 24"><title>underwear bikini bottom</title><g fill="#212121" class="nc-icon-wrapper"><defs></defs><path class="cls-1" d="M12 7.95A60.055 60.055 0 0 1 .75 6.45c4.522 4.38 7.925 8.435 9.388 13.528a2.033 2.033 0 0 0 1.953 1.472 1.79 1.79 0 0 0 1.725-1.311c1.438-5.169 4.865-9.263 9.434-13.689A60.055 60.055 0 0 1 12 7.95z" fill="none" stroke="#212121" stroke-linecap="round" stroke-linejoin="round" stroke-width="1.5px"></path><path class="cls-1" d="M22.65 3.15c.5.663.6 3.3.6 3.3s-2.5-.837-3-1.5a1.5 1.5 0 1 1 2.4-1.8z" fill="none" stroke="#212121" stroke-linecap="round" stroke-linejoin="round" stroke-width="1.5px"></path><path class="cls-1" d="M23.25 6.45v4.5" fill="none" stroke="#212121" stroke-linecap="round" stroke-linejoin="round" stroke-width="1.5px"></path><path class="cls-1" d="M1.35 3.15c-.5.663-.6 3.3-.6 3.3s2.5-.837 3-1.5a1.5 1.5 0 0 0-2.4-1.8z" fill="none" stroke="#212121" stroke-linecap="round" stroke-linejoin="round" stroke-width="1.5px"></path><path class="cls-1" d="M.75 6.45v4.5" fill="none" stroke="#212121" stroke-linecap="round" stroke-linejoin="round" stroke-width="1.5px"></path></g></svg>