<svg xmlns="http://www.w3.org/2000/svg" width="24" height="24" viewBox="0 0 24 24"><title>underwear corset 1</title><g fill="#212121" class="nc-icon-wrapper"><defs></defs><path class="cls-1" d="M12 23.25c5.25 0 10.5-3 10.5-3 0-3.75-3-4.5-3-6.75s3.75-4.125 3.75-7.125A5.694 5.694 0 0 0 17.625.75C14.518.75 12 3 12 5.25 12 3 9.482.75 6.375.75A5.694 5.694 0 0 0 .75 6.375c0 3 3.75 4.875 3.75 7.125s-3 3-3 6.75c0 0 5.25 3 10.5 3z" fill="none" stroke="#212121" stroke-linecap="round" stroke-linejoin="round" stroke-width="1.5px"></path><path class="cls-1" d="M22.706 8.357c-.841-.924-1.837-2.577-3.956-3.107-2.6-.649-6.1 4.058-6.75 4.5-.653-.442-4.154-5.149-6.75-4.5-2.12.53-3.115 2.183-3.956 3.107" fill="none" stroke="#212121" stroke-linecap="round" stroke-linejoin="round" stroke-width="1.5px"></path><path class="cls-1" d="M12 9.75v13.5" fill="none" stroke="#212121" stroke-linecap="round" stroke-linejoin="round" stroke-width="1.5px"></path></g></svg>