<svg xmlns="http://www.w3.org/2000/svg" width="24" height="24" viewBox="0 0 24 24"><title>underwear bra lace</title><g fill="#212121" class="nc-icon-wrapper"><defs></defs><path class="cls-1" d="M2.25 11.767v-8.85" fill="none" stroke="#212121" stroke-linecap="round" stroke-linejoin="round" stroke-width="1.5px"></path><path class="cls-1" d="M4.605 10.814a1.5 1.5 0 0 0-1.641.207C.2 13.393.372 18.288 2.25 20.167c1.7 1.7 6.5.931 8.487-1.47a1.5 1.5 0 0 0 .23-1.536 12.611 12.611 0 0 0-6.362-6.347z" fill="none" stroke="#212121" stroke-linecap="round" stroke-linejoin="round" stroke-width="1.5px"></path><path class="cls-1" d="M21.75 11.767v-8.85" fill="none" stroke="#212121" stroke-linecap="round" stroke-linejoin="round" stroke-width="1.5px"></path><path class="cls-1" d="M19.4 10.814a1.5 1.5 0 0 1 1.641.207c2.765 2.372 2.592 7.267.714 9.146-1.7 1.7-6.5.931-8.487-1.47a1.5 1.5 0 0 1-.23-1.536 12.611 12.611 0 0 1 6.362-6.347z" fill="none" stroke="#212121" stroke-linecap="round" stroke-linejoin="round" stroke-width="1.5px"></path></g></svg>