<svg xmlns="http://www.w3.org/2000/svg" width="24" height="24" viewBox="0 0 24 24"><title>user logout</title><g fill="#212121" class="nc-icon-wrapper"><defs></defs><path class="a" d="M20.999 2.254l2.25 3h-7.5" fill="none" stroke="#212121" stroke-linejoin="round" stroke-width="1.5px" stroke-linecap="round"></path><path class="a" d="M21 8.254l2.25-3" fill="none" stroke="#212121" stroke-linejoin="round" stroke-width="1.5px" stroke-linecap="round"></path><circle class="b" cx="6.75" cy="3.754" r="3" fill="none" stroke="#212121" stroke-linejoin="round" stroke-width="1.5px"></circle><path class="b" d="M6.75 7.5a6 6 0 0 0-6 6v2.25a1.5 1.5 0 0 0 1.5 1.5h1.5v4.5a1.5 1.5 0 0 0 1.5 1.5h3a1.5 1.5 0 0 0 1.5-1.5v-4.5h1.5a1.5 1.5 0 0 0 1.5-1.5V13.5a6 6 0 0 0-6-6z" fill="none" stroke="#212121" stroke-linejoin="round" stroke-width="1.5px"></path></g></svg>