<svg xmlns="http://www.w3.org/2000/svg" width="24" height="24" viewBox="0 0 24 24"><title>user woman stress</title><g fill="#212121" class="nc-icon-wrapper"><defs></defs><path class="a" d="M20.249 1.25L18.28 3.218l.984 1.477-1.968 1.477" fill="none" stroke="#212121" stroke-linecap="round" stroke-linejoin="round" stroke-width="1.5px"></path><path class="a" d="M3.749 1.242l1.969 1.969-.985 1.476 1.969 1.477" fill="none" stroke="#212121" stroke-linecap="round" stroke-linejoin="round" stroke-width="1.5px"></path><path class="a" d="M12.327.75l-.984 1.476.984.985" fill="none" stroke="#212121" stroke-linecap="round" stroke-linejoin="round" stroke-width="1.5px"></path><path class="a" d="M7.828 10.986v1a5.906 5.906 0 0 1-.859 3.272" fill="none" stroke="#212121" stroke-linecap="round" stroke-linejoin="round" stroke-width="1.5px"></path><path class="a" d="M16.075 10.986v1a5.905 5.905 0 0 0 .86 3.272" fill="none" stroke="#212121" stroke-linecap="round" stroke-linejoin="round" stroke-width="1.5px"></path><path class="a" d="M7.84 11.2a5.486 5.486 0 0 0 4.112-1.9 5.486 5.486 0 0 0 4.112 1.9" fill="none" stroke="#212121" stroke-linecap="round" stroke-linejoin="round" stroke-width="1.5px"></path><circle class="a" cx="11.952" cy="10.875" r="4.125" fill="none" stroke="#212121" stroke-linecap="round" stroke-linejoin="round" stroke-width="1.5px"></circle><path class="a" d="M18.7 23.25a6.741 6.741 0 0 0-4.243-6.257L11.952 19.5l-2.507-2.507A6.741 6.741 0 0 0 5.2 23.25" fill="none" stroke="#212121" stroke-linecap="round" stroke-linejoin="round" stroke-width="1.5px"></path></g></svg>