<svg xmlns="http://www.w3.org/2000/svg" width="24" height="24" viewBox="0 0 24 24"><title>user live</title><g fill="#212121" class="nc-icon-wrapper"><defs></defs><path class="a" d="M9.149 23.23v-4.458" fill="none" stroke="#212121" stroke-linecap="round" stroke-linejoin="round" stroke-width="1.5px"></path><path class="a" d="M12.149 18.772v1.293a5.129 5.129 0 0 0 1.125 3.165 5.122 5.122 0 0 0 1.126-3.165v-1.293" fill="none" stroke="#212121" stroke-linecap="round" stroke-linejoin="round" stroke-width="1.5px"></path><path class="a" d="M3.9 18.772v3.533a1.055 1.055 0 0 0 1.125.967h1.124" fill="none" stroke="#212121" stroke-linecap="round" stroke-linejoin="round" stroke-width="1.5px"></path><path class="a" d="M19.316 23.272h-.958a.931.931 0 0 1-.959-.9v-2.7a.931.931 0 0 1 .959-.9h.958" fill="none" stroke="#212121" stroke-linecap="round" stroke-linejoin="round" stroke-width="1.5px"></path><path class="a" d="M17.399 21.022h2.25" fill="none" stroke="#212121" stroke-linecap="round" stroke-linejoin="round" stroke-width="1.5px"></path><path class="a" d="M6.2 11.907a6 6 0 1 1 11.136.022" fill="none" stroke="#212121" stroke-linecap="round" stroke-linejoin="round" stroke-width="1.5px"></path><path class="a" d="M4.69 14.414a8.664 8.664 0 1 1 14.168 0" fill="none" stroke="#212121" stroke-linecap="round" stroke-linejoin="round" stroke-width="1.5px"></path><circle class="a" cx="11.774" cy="9.304" r="2.625" fill="none" stroke="#212121" stroke-linecap="round" stroke-linejoin="round" stroke-width="1.5px"></circle><path class="a" d="M16 15.679a4.474 4.474 0 0 0-8.449 0z" fill="none" stroke="#212121" stroke-linecap="round" stroke-linejoin="round" stroke-width="1.5px"></path></g></svg>