<svg xmlns="http://www.w3.org/2000/svg" width="24" height="24" viewBox="0 0 24 24"><title>vectors pen draw</title><g fill="#212121" class="nc-icon-wrapper"><defs></defs><path class="a" d="M15.246 16.692l6.354-6.333a5.626 5.626 0 0 0 1.06-6.491 5.625 5.625 0 0 0-7.543-2.527 5.626 5.626 0 0 0-3.061 5.823l1.255 8.88a1.141 1.141 0 0 0 1.935.648z" fill="none" stroke="#212121" stroke-linecap="round" stroke-linejoin="round" stroke-width="1.5px"></path><path class="a" d="M14.079 16.965L16.96 8.36" fill="none" stroke="#212121" stroke-linecap="round" stroke-linejoin="round" stroke-width="1.5px"></path><path class="a" d="M.75 11.257c3.1-3.939 6.037-2.119 6.037-.145 0 2.121-3.892 5.039-3.892 8.185a4.071 4.071 0 0 0 4.317 3.953 8.327 8.327 0 0 0 5.49-2.529" fill="none" stroke="#212121" stroke-linecap="round" stroke-linejoin="round" stroke-width="1.5px"></path><circle class="a" cx="17.51" cy="6.719" r="1.731" fill="none" stroke="#212121" stroke-linecap="round" stroke-linejoin="round" stroke-width="1.5px"></circle></g></svg>