<svg xmlns="http://www.w3.org/2000/svg" width="24" height="24" viewBox="0 0 24 24"><title>vectors pen add 1</title><g fill="#212121" class="nc-icon-wrapper"><defs></defs><path class="a" d="M.75 4.5h7.5" fill="none" stroke="#212121" stroke-linecap="round" stroke-linejoin="round" stroke-width="1.5px"></path><path class="a" d="M4.5.75v7.5" fill="none" stroke="#212121" stroke-linecap="round" stroke-linejoin="round" stroke-width="1.5px"></path><path class="a" d="M20.147 12.9l-4.7-4.7 2.526-2.526a1.968 1.968 0 0 1 2.784 0l1.918 1.918a1.969 1.969 0 0 1 0 2.783z" fill="none" stroke="#212121" stroke-linecap="round" stroke-linejoin="round" stroke-width="1.5px"></path><path class="a" d="M20.147 12.9l-4.7-4.7-6.072 2.548a2.216 2.216 0 0 0-1.522 1.522L5.119 22.544a.554.554 0 0 0 .685.685L16.077 20.5a2.219 2.219 0 0 0 1.523-1.527z" fill="none" stroke="#212121" stroke-linecap="round" stroke-linejoin="round" stroke-width="1.5px"></path><path class="a" d="M5.26 23.088l7.466-7.467" fill="none" stroke="#212121" stroke-linecap="round" stroke-linejoin="round" stroke-width="1.5px"></path></g></svg>