<svg xmlns="http://www.w3.org/2000/svg" width="24" height="24" viewBox="0 0 24 24"><title>vectors pen 1</title><g fill="#212121" class="nc-icon-wrapper"><defs></defs><path class="a" d="M9.04 7.505a5.986 5.986 0 0 0-2.44 2.554 5.989 5.989 0 0 0 .011 5.376l3.26 6.456A2.355 2.355 0 0 0 12 23.25a2.355 2.355 0 0 0 2.134-1.359l3.26-6.456a5.989 5.989 0 0 0 .011-5.376 5.991 5.991 0 0 0-2.373-2.514z" fill="none" stroke="#212121" stroke-linecap="round" stroke-linejoin="round" stroke-width="1.5px"></path><path class="a" d="M12 19.5v-5.25" fill="none" stroke="#212121" stroke-linecap="round" stroke-linejoin="round" stroke-width="1.5px"></path><circle class="a" cx="12" cy="12.75" r="1.5" fill="none" stroke="#212121" stroke-linecap="round" stroke-linejoin="round" stroke-width="1.5px"></circle><path class="a" d="M9.036 7.497L8.287.75h7.5l-.755 6.795" fill="none" stroke="#212121" stroke-linecap="round" stroke-linejoin="round" stroke-width="1.5px"></path></g></svg>