<svg xmlns="http://www.w3.org/2000/svg" width="24" height="24" viewBox="0 0 24 24"><title>vectors pen anchor</title><g fill="#212121" class="nc-icon-wrapper"><defs></defs><rect class="a" x="9.75" y="1.371" width="4.5" height="4.5" rx=".75" ry=".75" transform="rotate(-45 12 3.621)" fill="none" stroke="#212121" stroke-linecap="round" stroke-linejoin="round" stroke-width="1.5px"></rect><rect class="a" x="1.371" y="9.75" width="4.5" height="4.5" rx=".75" ry=".75" transform="rotate(-45 3.62 12)" fill="none" stroke="#212121" stroke-linecap="round" stroke-linejoin="round" stroke-width="1.5px"></rect><rect class="a" x="18.129" y="9.75" width="4.5" height="4.5" rx=".75" ry=".75" transform="rotate(-45 20.379 12)" fill="none" stroke="#212121" stroke-linecap="round" stroke-linejoin="round" stroke-width="1.5px"></rect><path class="a" d="M10.409 5.212l-5.197 5.197" fill="none" stroke="#212121" stroke-linecap="round" stroke-linejoin="round" stroke-width="1.5px"></path><path class="a" d="M13.591 5.212l5.197 5.197" fill="none" stroke="#212121" stroke-linecap="round" stroke-linejoin="round" stroke-width="1.5px"></path><path class="a" d="M11.292 9.721l-2.985 5.97a4.187 4.187 0 0 0 .784 4.833 4.187 4.187 0 0 0 5.921 0 4.187 4.187 0 0 0 .784-4.833l-2.985-5.97a.849.849 0 0 0-1.519 0z" fill="none" stroke="#212121" stroke-linecap="round" stroke-linejoin="round" stroke-width="1.5px"></path><path class="a" d="M12.052 9.252v7.217" fill="none" stroke="#212121" stroke-linecap="round" stroke-linejoin="round" stroke-width="1.5px"></path><path class="a" d="M7.5 23.25h9" fill="none" stroke="#212121" stroke-linecap="round" stroke-linejoin="round" stroke-width="1.5px"></path></g></svg>