<svg xmlns="http://www.w3.org/2000/svg" width="24" height="24" viewBox="0 0 24 24"><title>vegetables plate</title><g fill="#212121" class="nc-icon-wrapper"><defs></defs><circle class="cls-1" cx="11.999" cy="12" r="11.25" fill="none" stroke="#212121" stroke-linecap="round" stroke-linejoin="round" stroke-width="1.5px"></circle><path class="cls-1" d="M14.735 16.851a2.4 2.4 0 0 1-4.134 2.4l-4.541-6.8a1.5 1.5 0 0 1 .494-2.13L8.98 8.914a1.5 1.5 0 0 1 2.095.625z" fill="none" stroke="#212121" stroke-linecap="round" stroke-linejoin="round" stroke-width="1.5px"></path><path class="cls-1" d="M7.677 14.875l2.351-1.366" fill="none" stroke="#212121" stroke-linecap="round" stroke-linejoin="round" stroke-width="1.5px"></path><path class="cls-1" d="M7.767 9.619L4.314 8.155" fill="none" stroke="#212121" stroke-linecap="round" stroke-linejoin="round" stroke-width="1.5px"></path><path class="cls-1" d="M7.767 9.619l.438-3.725" fill="none" stroke="#212121" stroke-linecap="round" stroke-linejoin="round" stroke-width="1.5px"></path><path class="cls-1" d="M12.374 6.8a3 3 0 0 1 5.25 2.9z" fill="none" stroke="#212121" stroke-linecap="round" stroke-linejoin="round" stroke-width="1.5px"></path><path class="cls-1" d="M16.418 9.036a3 3 0 0 0-2.169 1.512l5.25 2.9a3 3 0 0 0-1.643-4.287" fill="none" stroke="#212121" stroke-linecap="round" stroke-linejoin="round" stroke-width="1.5px"></path></g></svg>