<svg xmlns="http://www.w3.org/2000/svg" width="24" height="24" viewBox="0 0 24 24"><title>vest male</title><g fill="#212121" class="nc-icon-wrapper"><defs></defs><path class="cls-1" d="M8.25.75h7.5" fill="none" stroke="#212121" stroke-linecap="round" stroke-linejoin="round" stroke-width="1.5px"></path><path class="cls-1" d="M15.75.75l4.5 1.5v4.5a3 3 0 0 0 2 2.829 1.5 1.5 0 0 1 1 1.415v8.446a1.5 1.5 0 0 1-.943 1.393l-5.774 2.31a1.5 1.5 0 0 1-1.457-.193l-5.326-4.2v-9c6-2.25 6-9 6-9z" fill="none" stroke="#212121" stroke-linecap="round" stroke-linejoin="round" stroke-width="1.5px"></path><path class="cls-1" d="M12 8.521C8.251 5.684 8.25.75 8.25.75l-4.5 1.5v4.5a3 3 0 0 1-2 2.829 1.5 1.5 0 0 0-1 1.415v8.446a1.5 1.5 0 0 0 .943 1.393l5.774 2.31a1.5 1.5 0 0 0 1.457-.193L12 20.525" fill="none" stroke="#212121" stroke-linecap="round" stroke-linejoin="round" stroke-width="1.5px"></path><path class="cls-1" d="M.75 15.75h4.5" fill="none" stroke="#212121" stroke-linecap="round" stroke-linejoin="round" stroke-width="1.5px"></path><path class="cls-1" d="M18.75 15.75h4.5" fill="none" stroke="#212121" stroke-linecap="round" stroke-linejoin="round" stroke-width="1.5px"></path><path class="cls-1" d="M12.375 12.75a.375.375 0 1 1 .375.375.375.375 0 0 1-.375-.375" fill="none" stroke="#212121" stroke-linecap="round" stroke-linejoin="round" stroke-width="1.5px"></path><path class="cls-1" d="M12.375 16.5a.375.375 0 1 1 .375.375.375.375 0 0 1-.375-.375" fill="none" stroke="#212121" stroke-linecap="round" stroke-linejoin="round" stroke-width="1.5px"></path></g></svg>