<svg xmlns="http://www.w3.org/2000/svg" width="24" height="24" viewBox="0 0 24 24"><title>video game mario turtle</title><g fill="#212121" class="nc-icon-wrapper"><defs></defs><path class="cls-1" d="M14.881 18h.869a4.5 4.5 0 0 0 4.5-4.5V9h1.5a1.5 1.5 0 0 0 1.5-1.5v-3a3 3 0 0 0-3-3H16.5a3.113 3.113 0 0 0-2.25 3V6" fill="none" stroke="#212121" stroke-linecap="round" stroke-linejoin="round" stroke-width="1.5px"></path><path class="cls-1" d="M12.945 9.151A7.468 7.468 0 0 0 8.25 7.5c-4.142 0-6 3.358-6 7.5v1.5" fill="none" stroke="#212121" stroke-linecap="round" stroke-linejoin="round" stroke-width="1.5px"></path><path class="cls-1" d="M2.25 16.5a1.5 1.5 0 0 0 0 3H12c3 0 3.75-3 3.75-4.5a7.489 7.489 0 0 0-2.8-5.85A7.537 7.537 0 0 1 13.5 12c0 1.5-.75 4.5-3.75 4.5z" fill="none" stroke="#212121" stroke-linecap="round" stroke-linejoin="round" stroke-width="1.5px"></path><path class="cls-1" d="M11.518 8.247L3.265 16.5" fill="none" stroke="#212121" stroke-linecap="round" stroke-linejoin="round" stroke-width="1.5px"></path><path class="cls-1" d="M5.751 8.001l6.927 6.927" fill="none" stroke="#212121" stroke-linecap="round" stroke-linejoin="round" stroke-width="1.5px"></path><path class="cls-1" d="M3.136 10.636l5.863 5.863" fill="none" stroke="#212121" stroke-linecap="round" stroke-linejoin="round" stroke-width="1.5px"></path><path class="cls-1" d="M6.75 19.5V21a1.5 1.5 0 0 1-1.5 1.5H2.888a.75.75 0 0 1-.468-1.336L4.5 19.5z" fill="none" stroke="#212121" stroke-linecap="round" stroke-linejoin="round" stroke-width="1.5px"></path><path class="cls-1" d="M11.25 19.5V21a1.5 1.5 0 0 0 1.5 1.5h2.362a.75.75 0 0 0 .468-1.336L13.253 19.3" fill="none" stroke="#212121" stroke-linecap="round" stroke-linejoin="round" stroke-width="1.5px"></path><path class="cls-1" d="M18.75 4.125a.375.375 0 0 1 .375.375" fill="none" stroke="#212121" stroke-linecap="round" stroke-linejoin="round" stroke-width="1.5px"></path><path class="cls-1" d="M18.375 4.5a.375.375 0 0 1 .375-.375" fill="none" stroke="#212121" stroke-linecap="round" stroke-linejoin="round" stroke-width="1.5px"></path><path class="cls-1" d="M18.75 4.875a.375.375 0 0 1-.375-.375" fill="none" stroke="#212121" stroke-linecap="round" stroke-linejoin="round" stroke-width="1.5px"></path><path class="cls-1" d="M19.125 4.5a.375.375 0 0 1-.375.375" fill="none" stroke="#212121" stroke-linecap="round" stroke-linejoin="round" stroke-width="1.5px"></path></g></svg>