<svg xmlns="http://www.w3.org/2000/svg" width="24" height="24" viewBox="0 0 24 24"><title>video edit peel</title><g fill="#212121" class="nc-icon-wrapper"><defs></defs><path class="a" d="M19.5 3.75h2.772a.978.978 0 0 1 .978.978v17.544a.978.978 0 0 1-.978.978H1.728a.978.978 0 0 1-.978-.978V4.728a.978.978 0 0 1 .978-.978H14.25" fill="none" stroke="#212121" stroke-linecap="round" stroke-linejoin="round" stroke-width="1.5px"></path><path class="a" d="M15.825 23.25a3.556 3.556 0 0 0 3.675-3.424 3.556 3.556 0 0 0-3.675-3.426H14.25V.75h1.575A3.556 3.556 0 0 1 19.5 4.174v15.652" fill="none" stroke="#212121" stroke-linecap="round" stroke-linejoin="round" stroke-width="1.5px"></path><path class="a" d="M10.5 18h-6" fill="none" stroke="#212121" stroke-linecap="round" stroke-linejoin="round" stroke-width="1.5px"></path><path class="a" d="M6.75 20.25L4.5 18l2.25-2.25" fill="none" stroke="#212121" stroke-linecap="round" stroke-linejoin="round" stroke-width="1.5px"></path><path class="a" d="M4.5 9h6" fill="none" stroke="#212121" stroke-linecap="round" stroke-linejoin="round" stroke-width="1.5px"></path><path class="a" d="M8.25 6.75L10.5 9l-2.25 2.25" fill="none" stroke="#212121" stroke-linecap="round" stroke-linejoin="round" stroke-width="1.5px"></path></g></svg>