<svg xmlns="http://www.w3.org/2000/svg" width="24" height="24" viewBox="0 0 24 24"><title>video game mario mushroom 1</title><g fill="#212121" class="nc-icon-wrapper"><defs></defs><path class="cls-1" d="M6.75 19.471c-3.568-.725-6-2.526-6-6.534C.75 7.168 5.787.75 12 .75s11.25 6.418 11.25 12.187c0 4.008-2.432 5.809-6 6.534" fill="none" stroke="#212121" stroke-linecap="round" stroke-linejoin="round" stroke-width="1.5px"></path><circle class="cls-1" cx="12" cy="9" r="3.75" fill="none" stroke="#212121" stroke-linecap="round" stroke-linejoin="round" stroke-width="1.5px"></circle><path class="cls-1" d="M4.5 13.807a8.137 8.137 0 0 1-1.144 4.37 5.736 5.736 0 0 1-2.606-5.24A11.835 11.835 0 0 1 1.894 8.01c1.518.784 2.606 3.081 2.606 5.797z" fill="none" stroke="#212121" stroke-linecap="round" stroke-linejoin="round" stroke-width="1.5px"></path><path class="cls-1" d="M23.25 12.937a5.736 5.736 0 0 1-2.606 5.24 8.137 8.137 0 0 1-1.144-4.37c0-2.716 1.088-5.013 2.606-5.8a11.835 11.835 0 0 1 1.144 4.93z" fill="none" stroke="#212121" stroke-linecap="round" stroke-linejoin="round" stroke-width="1.5px"></path><path class="cls-1" d="M15.788 16.521l-.911-.131a20.389 20.389 0 0 0-5.754 0l-.911.131A1.588 1.588 0 0 0 6.75 18v2.25a3.279 3.279 0 0 0 3.5 3h3.5a3.279 3.279 0 0 0 3.5-3V18a1.588 1.588 0 0 0-1.462-1.479z" fill="none" stroke="#212121" stroke-linecap="round" stroke-linejoin="round" stroke-width="1.5px"></path><path class="cls-1" d="M9.75 18.75v.75" fill="none" stroke="#212121" stroke-linecap="round" stroke-linejoin="round" stroke-width="1.5px"></path><path class="cls-1" d="M14.25 18.75v.75" fill="none" stroke="#212121" stroke-linecap="round" stroke-linejoin="round" stroke-width="1.5px"></path></g></svg>