<svg xmlns="http://www.w3.org/2000/svg" width="24" height="24" viewBox="0 0 24 24"><title>video game logo streamplay</title><g fill="#212121" class="nc-icon-wrapper"><defs></defs><path class="a" d="M21 5a11.254 11.254 0 0 1 0 13.5" fill="none" stroke="#212121" stroke-linecap="round" stroke-linejoin="round" stroke-width="1.5px"></path><path class="a" d="M18.916 7.251a8.257 8.257 0 0 1 0 9" fill="none" stroke="#212121" stroke-linecap="round" stroke-linejoin="round" stroke-width="1.5px"></path><path class="a" d="M3 5a11.254 11.254 0 0 0 0 13.5" fill="none" stroke="#212121" stroke-linecap="round" stroke-linejoin="round" stroke-width="1.5px"></path><path class="a" d="M5.084 7.251a8.257 8.257 0 0 0 0 9" fill="none" stroke="#212121" stroke-linecap="round" stroke-linejoin="round" stroke-width="1.5px"></path><path class="a" d="M10.886 7.932a.75.75 0 0 0-1.136.643v6.351a.749.749 0 0 0 1.136.643l5.25-3.175a.75.75 0 0 0 0-1.286z" fill="none" stroke="#212121" stroke-linecap="round" stroke-linejoin="round" stroke-width="1.5px"></path></g></svg>