<svg xmlns="http://www.w3.org/2000/svg" width="24" height="24" viewBox="0 0 24 24"><title>video game mario flame</title><g fill="#212121" class="nc-icon-wrapper"><defs></defs><ellipse class="cls-1" cx="14.106" cy="14.103" rx="5.615" ry="5.639" fill="none" stroke="#212121" stroke-linecap="round" stroke-linejoin="round" stroke-width="1.5px"></ellipse><path class="cls-1" d="M12.702 13.399v1.409" fill="none" stroke="#212121" stroke-linecap="round" stroke-linejoin="round" stroke-width="1.5px"></path><path class="cls-1" d="M15.51 13.399v1.409" fill="none" stroke="#212121" stroke-linecap="round" stroke-linejoin="round" stroke-width="1.5px"></path><path class="cls-1" d="M2.875 1.415v2.82" fill="none" stroke="#212121" stroke-linecap="round" stroke-linejoin="round" stroke-width="1.5px"></path><path class="cls-1" d="M1.471 2.825h2.808" fill="none" stroke="#212121" stroke-linecap="round" stroke-linejoin="round" stroke-width="1.5px"></path><path class="cls-1" d="M22.529 14.1V5a.7.7 0 0 0-1.141-.55l-2.369 1.9s-1.165-1.17-.841-4.045a.708.708 0 0 0-.222-.6.7.7 0 0 0-.611-.174A9.641 9.641 0 0 0 10.6 7.054a6.221 6.221 0 0 1-.847-2.289.7.7 0 0 0-1.267-.3 16.494 16.494 0 0 0-2.8 9.641 8.423 8.423 0 1 0 16.846 0z" fill="none" stroke="#212121" stroke-linecap="round" stroke-linejoin="round" stroke-width="1.5px"></path><path class="cls-1" d="M2.875 10.226a.352.352 0 0 1 .351.353" fill="none" stroke="#212121" stroke-linecap="round" stroke-linejoin="round" stroke-width="1.5px"></path><path class="cls-1" d="M2.524 10.579a.352.352 0 0 1 .351-.353" fill="none" stroke="#212121" stroke-linecap="round" stroke-linejoin="round" stroke-width="1.5px"></path><path class="cls-1" d="M2.875 10.931a.351.351 0 0 1-.351-.352" fill="none" stroke="#212121" stroke-linecap="round" stroke-linejoin="round" stroke-width="1.5px"></path><path class="cls-1" d="M3.226 10.579a.351.351 0 0 1-.351.352" fill="none" stroke="#212121" stroke-linecap="round" stroke-linejoin="round" stroke-width="1.5px"></path><path class="cls-1" d="M7.087 1.063a.352.352 0 0 1 .351.352" fill="none" stroke="#212121" stroke-linecap="round" stroke-linejoin="round" stroke-width="1.5px"></path><path class="cls-1" d="M6.736 1.415a.351.351 0 0 1 .351-.352" fill="none" stroke="#212121" stroke-linecap="round" stroke-linejoin="round" stroke-width="1.5px"></path><path class="cls-1" d="M7.087 1.767a.351.351 0 0 1-.351-.352" fill="none" stroke="#212121" stroke-linecap="round" stroke-linejoin="round" stroke-width="1.5px"></path><path class="cls-1" d="M7.438 1.415a.352.352 0 0 1-.351.352" fill="none" stroke="#212121" stroke-linecap="round" stroke-linejoin="round" stroke-width="1.5px"></path></g></svg>