<svg xmlns="http://www.w3.org/2000/svg" width="24" height="24" viewBox="0 0 24 24"><title>video game shwings</title><g fill="#212121" class="nc-icon-wrapper"><defs></defs><path class="cls-1" d="M16.16 13.461a1.943 1.943 0 0 1 3.169-2.249 3.263 3.263 0 0 1-.79 4.532 3.858 3.858 0 0 1-5.379-.914 5.211 5.211 0 0 1 1.234-7.264 4.895 4.895 0 0 1 1.883-.938 4.539 4.539 0 0 0 3.353-2.956L20.643.75l1.5 2.113a4.535 4.535 0 0 1-1.074 6.322" fill="none" stroke="#212121" stroke-linecap="round" stroke-linejoin="round" stroke-width="1.5px"></path><path class="cls-1" d="M19.761 14.083l2.124-1.507a3.239 3.239 0 0 0 .767-4.516L22.4 7.7" fill="none" stroke="#212121" stroke-linecap="round" stroke-linejoin="round" stroke-width="1.5px"></path><path class="cls-1" d="M17.178 16.357l-7.164 6.5A1.5 1.5 0 0 1 9 23.25H2.25a1.5 1.5 0 0 1-1.5-1.5 4.5 4.5 0 0 1 4.5-4.5l3-3-5.267-7.6a1.5 1.5 0 0 1 .373-2.082l5.072-3.547a1.5 1.5 0 0 1 2.072.345l4.339 5.892" fill="none" stroke="#212121" stroke-linecap="round" stroke-linejoin="round" stroke-width="1.5px"></path><path class="cls-1" d="M4.523 8.876L7.5 6.75" fill="none" stroke="#212121" stroke-linecap="round" stroke-linejoin="round" stroke-width="1.5px"></path><path class="cls-1" d="M6.513 11.748L9.49 9.622" fill="none" stroke="#212121" stroke-linecap="round" stroke-linejoin="round" stroke-width="1.5px"></path><path class="cls-1" d="M1.006 20.25H8.25l5.25-5.005" fill="none" stroke="#212121" stroke-linecap="round" stroke-linejoin="round" stroke-width="1.5px"></path></g></svg>