<svg xmlns="http://www.w3.org/2000/svg" width="24" height="24" viewBox="0 0 24 24"><title>video game goomba</title><g fill="#212121" class="nc-icon-wrapper"><defs></defs><path class="cls-1" d="M21.105 7.168a3.7 3.7 0 0 1 2.136 3.591 3.157 3.157 0 0 1-3.2 2.848H3.957a3.159 3.159 0 0 1-3.2-2.848A3.688 3.688 0 0 1 2.838 7.2" fill="none" stroke="#212121" stroke-linecap="round" stroke-linejoin="round" stroke-width="1.5px"></path><path class="cls-1" d="M20.036 3.964c0-1.775-.636-3.214-2.411-3.214-2.411 0-4.018 4.018-5.625 4.018S8.786.75 6.375.75C4.6.75 3.964 2.189 3.964 3.964" fill="none" stroke="#212121" stroke-linecap="round" stroke-linejoin="round" stroke-width="1.5px"></path><path class="cls-1" d="M8.786 7.179v1.607" fill="none" stroke="#212121" stroke-linecap="round" stroke-linejoin="round" stroke-width="1.5px"></path><path class="cls-1" d="M15.214 7.179v1.607" fill="none" stroke="#212121" stroke-linecap="round" stroke-linejoin="round" stroke-width="1.5px"></path><path class="cls-1" d="M9.107 13.607c-2.732 3.214-2.732 4.822-.787 7.133" fill="none" stroke="#212121" stroke-linecap="round" stroke-linejoin="round" stroke-width="1.5px"></path><path class="cls-1" d="M14.893 13.607c2.732 3.214 2.732 4.822.787 7.133" fill="none" stroke="#212121" stroke-linecap="round" stroke-linejoin="round" stroke-width="1.5px"></path><path class="cls-1" d="M3.161 23.25a3.214 3.214 0 0 1 3.214-3.214c2.411 0 4.018 3.214 4.018 3.214z" fill="none" stroke="#212121" stroke-linecap="round" stroke-linejoin="round" stroke-width="1.5px"></path><path class="cls-1" d="M20.839 23.25a3.214 3.214 0 0 0-3.214-3.214c-2.411 0-4.018 3.214-4.018 3.214z" fill="none" stroke="#212121" stroke-linecap="round" stroke-linejoin="round" stroke-width="1.5px"></path><path class="cls-1" d="M15.567 1.69a7.238 7.238 0 0 0-7.134 0" fill="none" stroke="#212121" stroke-linecap="round" stroke-linejoin="round" stroke-width="1.5px"></path></g></svg>