<svg xmlns="http://www.w3.org/2000/svg" width="24" height="24" viewBox="0 0 24 24"><title>video player slider</title><g fill="#212121" class="nc-icon-wrapper"><defs></defs><path class="a" d="M10.341 9.092a.973.973 0 0 0-.9.039.863.863 0 0 0-.441.744v4.249a.864.864 0 0 0 .44.745.975.975 0 0 0 .9.039l3.987-1.883a1.118 1.118 0 0 0 0-2.05z" fill="none" stroke="#212121" stroke-linecap="round" stroke-linejoin="round" stroke-width="1.5px"></path><rect class="a" x="4.5" y="3" width="15" height="18" rx=".779" ry=".779" fill="none" stroke="#212121" stroke-linecap="round" stroke-linejoin="round" stroke-width="1.5px"></rect><path class="a" d="M1.934 5.25A1.192 1.192 0 0 0 .75 6.45v11.1a1.192 1.192 0 0 0 1.184 1.2" fill="none" stroke="#212121" stroke-linecap="round" stroke-linejoin="round" stroke-width="1.5px"></path><path class="a" d="M22.066 5.25a1.192 1.192 0 0 1 1.184 1.2v11.1a1.192 1.192 0 0 1-1.184 1.2" fill="none" stroke="#212121" stroke-linecap="round" stroke-linejoin="round" stroke-width="1.5px"></path></g></svg>