<svg xmlns="http://www.w3.org/2000/svg" width="24" height="24" viewBox="0 0 24 24"><title>video game disk controller</title><g fill="#212121" class="nc-icon-wrapper"><defs></defs><rect class="cls-1" x="8.25" y="14.25" width="15" height="9" rx="1.5" ry="1.5" fill="none" stroke="#212121" stroke-linecap="round" stroke-linejoin="round" stroke-width="1.5px"></rect><path class="cls-1" d="M10.5 18.75h3" fill="none" stroke="#212121" stroke-linecap="round" stroke-linejoin="round" stroke-width="1.5px"></path><path class="cls-1" d="M12 17.25v3" fill="none" stroke="#212121" stroke-linecap="round" stroke-linejoin="round" stroke-width="1.5px"></path><path class="cls-1" d="M19.875 17.25a.375.375 0 0 1 .375.375" fill="none" stroke="#212121" stroke-linecap="round" stroke-linejoin="round" stroke-width="1.5px"></path><path class="cls-1" d="M19.5 17.625a.375.375 0 0 1 .375-.375" fill="none" stroke="#212121" stroke-linecap="round" stroke-linejoin="round" stroke-width="1.5px"></path><path class="cls-1" d="M19.875 18a.375.375 0 0 1-.375-.375" fill="none" stroke="#212121" stroke-linecap="round" stroke-linejoin="round" stroke-width="1.5px"></path><path class="cls-1" d="M20.25 17.625a.375.375 0 0 1-.375.375" fill="none" stroke="#212121" stroke-linecap="round" stroke-linejoin="round" stroke-width="1.5px"></path><path class="cls-1" d="M18.375 19.5a.375.375 0 0 1 .375.375" fill="none" stroke="#212121" stroke-linecap="round" stroke-linejoin="round" stroke-width="1.5px"></path><path class="cls-1" d="M18 19.875a.375.375 0 0 1 .375-.375" fill="none" stroke="#212121" stroke-linecap="round" stroke-linejoin="round" stroke-width="1.5px"></path><path class="cls-1" d="M18.375 20.25a.375.375 0 0 1-.375-.375" fill="none" stroke="#212121" stroke-linecap="round" stroke-linejoin="round" stroke-width="1.5px"></path><path class="cls-1" d="M18.75 19.875a.375.375 0 0 1-.375.375" fill="none" stroke="#212121" stroke-linecap="round" stroke-linejoin="round" stroke-width="1.5px"></path><path class="cls-1" d="M5.25 19.3A10.125 10.125 0 1 1 21 10.875c0 .126 0 .251-.007.375" fill="none" stroke="#212121" stroke-linecap="round" stroke-linejoin="round" stroke-width="1.5px"></path><path class="cls-1" d="M8.277 11.25a2.576 2.576 0 0 1-.027-.375 2.625 2.625 0 0 1 5.25 0 2.576 2.576 0 0 1-.027.375" fill="none" stroke="#212121" stroke-linecap="round" stroke-linejoin="round" stroke-width="1.5px"></path></g></svg>