<svg xmlns="http://www.w3.org/2000/svg" width="24" height="24" viewBox="0 0 24 24"><title>video game flower enemy</title><g fill="#212121" class="nc-icon-wrapper"><defs></defs><path class="cls-1" d="M14.376 8.274a3 3 0 0 1-3.929 0L6.009 4.428a2.1 2.1 0 1 1 2.956-2.955l2.88 3.327a.749.749 0 0 0 1.134 0l2.879-3.322a2.1 2.1 0 1 1 2.956 2.955z" fill="none" stroke="#212121" stroke-linecap="round" stroke-linejoin="round" stroke-width="1.5px"></path><path class="cls-1" d="M18.084 5.059l-1.479 5.917a4.323 4.323 0 0 1-8.387 0L6.739 5.059" fill="none" stroke="#212121" stroke-linecap="round" stroke-linejoin="round" stroke-width="1.5px"></path><path class="cls-1" d="M12.786 14.25l-2.25 9" fill="none" stroke="#212121" stroke-linecap="round" stroke-linejoin="round" stroke-width="1.5px"></path><path class="cls-1" d="M9.036 20.25H5.464a1.5 1.5 0 0 1-1.342-.829l-1.293-2.586A.75.75 0 0 1 3.5 15.75h2.359a1.5 1.5 0 0 1 1.342.829z" fill="none" stroke="#212121" stroke-linecap="round" stroke-linejoin="round" stroke-width="1.5px"></path><path class="cls-1" d="M21.244 16.835a.75.75 0 0 0-.671-1.085h-2.359a1.5 1.5 0 0 0-1.342.829l-1.836 3.671h3.573a1.5 1.5 0 0 0 1.342-.829z" fill="none" stroke="#212121" stroke-linecap="round" stroke-linejoin="round" stroke-width="1.5px"></path></g></svg>