<svg xmlns="http://www.w3.org/2000/svg" width="24" height="24" viewBox="0 0 24 24"><title>video game pinball</title><g fill="#212121" class="nc-icon-wrapper"><defs></defs><circle class="cls-1" cx="12" cy="12" r="3" fill="none" stroke="#212121" stroke-linecap="round" stroke-linejoin="round" stroke-width="1.5px"></circle><path class="cls-1" d="M1.936 21.069a2.176 2.176 0 0 1-.961-2.921 2.175 2.175 0 0 1 2.868-1.109 49.594 49.594 0 0 1 6.319 4.278 1.128 1.128 0 0 1-.912 1.924 49.576 49.576 0 0 1-7.314-2.172z" fill="none" stroke="#212121" stroke-linecap="round" stroke-linejoin="round" stroke-width="1.5px"></path><path class="cls-1" d="M22.064 21.069a2.232 2.232 0 0 0-1.907-4.03 49.594 49.594 0 0 0-6.319 4.278 1.128 1.128 0 0 0 .912 1.924 49.576 49.576 0 0 0 7.314-2.172z" fill="none" stroke="#212121" stroke-linecap="round" stroke-linejoin="round" stroke-width="1.5px"></path><path class="cls-1" d="M12 .75v3" fill="none" stroke="#212121" stroke-linecap="round" stroke-linejoin="round" stroke-width="1.5px"></path><path class="cls-1" d="M15 3v3" fill="none" stroke="#212121" stroke-linecap="round" stroke-linejoin="round" stroke-width="1.5px"></path><path class="cls-1" d="M9 3v3" fill="none" stroke="#212121" stroke-linecap="round" stroke-linejoin="round" stroke-width="1.5px"></path></g></svg>