<svg xmlns="http://www.w3.org/2000/svg" width="24" height="24" viewBox="0 0 24 24"><title>video game mario flower 2</title><g fill="#212121" class="nc-icon-wrapper"><defs></defs><path class="cls-1" d="M23.1 7.5a6.75 6.75 0 0 1-6.75 6.75h-4.5a6.75 6.75 0 0 1 0-13.5h4.5A6.75 6.75 0 0 1 23.1 7.5z" fill="none" stroke="#212121" stroke-linecap="round" stroke-linejoin="round" stroke-width="1.5px"></path><path class="cls-1" d="M20.1 7.5a3.75 3.75 0 0 1-3.75 3.75h-4.5a3.75 3.75 0 0 1 0-7.5h4.5A3.75 3.75 0 0 1 20.1 7.5z" fill="none" stroke="#212121" stroke-linecap="round" stroke-linejoin="round" stroke-width="1.5px"></path><path class="cls-1" d="M17.099 6.75v1.5" fill="none" stroke="#212121" stroke-linecap="round" stroke-linejoin="round" stroke-width="1.5px"></path><path class="cls-1" d="M11.099 6.75v1.5" fill="none" stroke="#212121" stroke-linecap="round" stroke-linejoin="round" stroke-width="1.5px"></path><path class="cls-1" d="M14.099 14.25l-3.75 9" fill="none" stroke="#212121" stroke-linecap="round" stroke-linejoin="round" stroke-width="1.5px"></path><path class="cls-1" d="M8.1 23.25H5.2a3 3 0 0 1-2.5-1.336l-1.332-2A.75.75 0 0 1 2 18.75h1.493a3 3 0 0 1 2.5 1.336z" fill="none" stroke="#212121" stroke-linecap="round" stroke-linejoin="round" stroke-width="1.5px"></path><path class="cls-1" d="M14.1 23.25h2.894a3 3 0 0 0 2.5-1.336l1.332-2a.75.75 0 0 0-.626-1.164h-1.5a3 3 0 0 0-2.5 1.336z" fill="none" stroke="#212121" stroke-linecap="round" stroke-linejoin="round" stroke-width="1.5px"></path></g></svg>