<svg xmlns="http://www.w3.org/2000/svg" width="24" height="24" viewBox="0 0 24 24"><title>video player cloud</title><g fill="#212121" class="nc-icon-wrapper"><defs></defs><rect class="a" x="4.5" y="10.5" width="12.75" height="12.75" rx=".639" ry=".639" fill="none" stroke="#212121" stroke-linecap="round" stroke-linejoin="round" stroke-width="1.5px"></rect><path class="a" d="M1.454 12a4.646 4.646 0 0 1-.7-2.574 4.85 4.85 0 0 1 5.063-4.81A6.858 6.858 0 0 1 18.827 7.1a3.655 3.655 0 0 1 4.423 3.539 3.35 3.35 0 0 1-2.79 3.47" fill="none" stroke="#212121" stroke-linecap="round" stroke-linejoin="round" stroke-width="1.5px"></path><path class="a" d="M9.424 14.331a.853.853 0 0 0-.789.033.759.759 0 0 0-.385.652v3.718a.76.76 0 0 0 .385.652.853.853 0 0 0 .789.033l3.489-1.647a.979.979 0 0 0 0-1.794z" fill="none" stroke="#212121" stroke-linecap="round" stroke-linejoin="round" stroke-width="1.5px"></path></g></svg>