<svg xmlns="http://www.w3.org/2000/svg" width="24" height="24" viewBox="0 0 24 24"><title>video game mario plant</title><g fill="#212121" class="nc-icon-wrapper"><defs></defs><path class="cls-1" d="M10.049 6.668l3.86-5.575a.8.8 0 0 1 1.447.366l.258 2.321a.8.8 0 0 0 .7.7l2.321.258a.8.8 0 0 1 .366 1.448l-5.571 3.863" fill="none" stroke="#212121" stroke-linecap="round" stroke-linejoin="round" stroke-width="1.5px"></path><path class="cls-1" d="M6.668 10.049L1.093 6.19a.8.8 0 0 1 .366-1.448l2.321-.258a.8.8 0 0 0 .7-.7l.258-2.321a.8.8 0 0 1 1.452-.37l3.859 5.575" fill="none" stroke="#212121" stroke-linecap="round" stroke-linejoin="round" stroke-width="1.5px"></path><path class="cls-1" d="M10.049 13.43L6.19 19.005a.8.8 0 0 1-1.448-.366l-.258-2.321a.8.8 0 0 0-.7-.7l-2.321-.258a.8.8 0 0 1-.366-1.447l5.575-3.86" fill="none" stroke="#212121" stroke-linecap="round" stroke-linejoin="round" stroke-width="1.5px"></path><path class="cls-1" d="M13.43 10.049l5.575 3.86a.8.8 0 0 1-.366 1.447l-2.321.258a.8.8 0 0 0-.7.7l-.258 2.321a.8.8 0 0 1-1.447.366l-3.86-5.575" fill="none" stroke="#212121" stroke-linecap="round" stroke-linejoin="round" stroke-width="1.5px"></path><path class="cls-1" d="M11.176 8.922l-2.254 2.254" fill="none" stroke="#212121" stroke-linecap="round" stroke-linejoin="round" stroke-width="1.5px"></path><path class="cls-1" d="M8.922 8.922l2.254 2.254" fill="none" stroke="#212121" stroke-linecap="round" stroke-linejoin="round" stroke-width="1.5px"></path><path class="cls-1" d="M9.735 13.884l1.561 9.366" fill="none" stroke="#212121" stroke-linecap="round" stroke-linejoin="round" stroke-width="1.5px"></path><path class="cls-1" d="M21.122 23.25h-3.45v-1.063a2.125 2.125 0 0 1 2.125-2.125h3.453v1.063a2.125 2.125 0 0 1-2.128 2.125z" fill="none" stroke="#212121" stroke-linecap="round" stroke-linejoin="round" stroke-width="1.5px"></path></g></svg>