<svg xmlns="http://www.w3.org/2000/svg" width="24" height="24" viewBox="0 0 24 24"><title>video projector</title><g fill="#212121" class="nc-icon-wrapper"><defs></defs><path class="a" d="M11.506 14.25H3.75a3 3 0 0 0-3 3v4.5a1.5 1.5 0 0 0 1.5 1.5h19.5a1.5 1.5 0 0 0 1.5-1.5v-4.5a3 3 0 0 0-3-3h-.256" fill="none" stroke="#212121" stroke-linecap="round" stroke-linejoin="round" stroke-width="1.5px"></path><circle class="a" cx="15.75" cy="15.75" r="4.5" fill="none" stroke="#212121" stroke-linecap="round" stroke-linejoin="round" stroke-width="1.5px"></circle><path class="a" d="M3.75 18v1.5" fill="none" stroke="#212121" stroke-linecap="round" stroke-linejoin="round" stroke-width="1.5px"></path><path class="a" d="M6.75 18v1.5" fill="none" stroke="#212121" stroke-linecap="round" stroke-linejoin="round" stroke-width="1.5px"></path><path class="a" d="M15.75 14.25a1.5 1.5 0 1 0 1.5 1.5 1.5 1.5 0 0 0-1.5-1.5z" fill="none" stroke="#212121" stroke-linecap="round" stroke-linejoin="round" stroke-width="1.5px"></path><path class="a" d="M9 7.4a.856.856 0 0 0 1.239.765l5.788-2.894a.856.856 0 0 0 0-1.531L10.239.841A.856.856 0 0 0 9 1.606z" fill="none" stroke="#212121" stroke-linecap="round" stroke-linejoin="round" stroke-width="1.5px"></path><path class="a" d="M23.065.759a.25.25 0 1 1-.307.177.25.25 0 0 1 .307-.177" fill="none" stroke="#212121" stroke-linecap="round" stroke-linejoin="round" stroke-width="1.5px"></path><path class="a" d="M22.1 4.819a.25.25 0 1 1-.31.181.251.251 0 0 1 .306-.177" fill="none" stroke="#212121" stroke-linecap="round" stroke-linejoin="round" stroke-width="1.5px"></path><path class="a" d="M20.735 9.452a.25.25 0 1 1-.306.177.25.25 0 0 1 .306-.177" fill="none" stroke="#212121" stroke-linecap="round" stroke-linejoin="round" stroke-width="1.5px"></path><path class="a" d="M.935.759a.25.25 0 1 0 .307.177.25.25 0 0 0-.307-.177" fill="none" stroke="#212121" stroke-linecap="round" stroke-linejoin="round" stroke-width="1.5px"></path><path class="a" d="M1.9 4.819A.25.25 0 1 0 2.21 5a.251.251 0 0 0-.31-.181" fill="none" stroke="#212121" stroke-linecap="round" stroke-linejoin="round" stroke-width="1.5px"></path><path class="a" d="M3.265 9.452a.25.25 0 1 0 .306.177.25.25 0 0 0-.306-.177" fill="none" stroke="#212121" stroke-linecap="round" stroke-linejoin="round" stroke-width="1.5px"></path></g></svg>