<svg xmlns="http://www.w3.org/2000/svg" width="24" height="24" viewBox="0 0 24 24"><title>video game logo companion cube</title><g fill="#212121" class="nc-icon-wrapper"><defs></defs><path class="a" d="M12 17s4.4-3.2 4.4-5.569c0-2.736-3.6-3.6-4.4-.275-.8-3.325-4.4-2.461-4.4.275C7.6 13.8 12 17 12 17z" fill="none" stroke="#212121" stroke-linecap="round" stroke-linejoin="round" stroke-width="1.5px"></path><path class="a" d="M6.75.75a1 1 0 0 1 1 1v4.52a6.5 6.5 0 0 0-1.48 1.48H1.75a1 1 0 0 1-1-1v-5a1 1 0 0 1 1-1z" fill="none" stroke="#212121" stroke-linecap="round" stroke-linejoin="round" stroke-width="1.5px"></path><path class="a" d="M22.25.75a1 1 0 0 1 1 1v5a1 1 0 0 1-1 1h-4.52a6.5 6.5 0 0 0-1.48-1.48V1.75a1 1 0 0 1 1-1z" fill="none" stroke="#212121" stroke-linecap="round" stroke-linejoin="round" stroke-width="1.5px"></path><path class="a" d="M7.75 17.73v4.52a1 1 0 0 1-1 1h-5a1 1 0 0 1-1-1v-5a1 1 0 0 1 1-1h4.52a6.5 6.5 0 0 0 1.48 1.48z" fill="none" stroke="#212121" stroke-linecap="round" stroke-linejoin="round" stroke-width="1.5px"></path><path class="a" d="M22.25 16.25a1 1 0 0 1 1 1v5a1 1 0 0 1-1 1h-5a1 1 0 0 1-1-1v-4.52a6.5 6.5 0 0 0 1.48-1.48z" fill="none" stroke="#212121" stroke-linecap="round" stroke-linejoin="round" stroke-width="1.5px"></path><path class="a" d="M2.75 7.75v8.5" fill="none" stroke="#212121" stroke-linecap="round" stroke-linejoin="round" stroke-width="1.5px"></path><path class="a" d="M7.75 2.75h8.5" fill="none" stroke="#212121" stroke-linecap="round" stroke-linejoin="round" stroke-width="1.5px"></path><path class="a" d="M21.25 7.75v8.5" fill="none" stroke="#212121" stroke-linecap="round" stroke-linejoin="round" stroke-width="1.5px"></path><path class="a" d="M7.75 21.25h8.5" fill="none" stroke="#212121" stroke-linecap="round" stroke-linejoin="round" stroke-width="1.5px"></path></g></svg>