<svg xmlns="http://www.w3.org/2000/svg" width="24" height="24" viewBox="0 0 24 24"><title>video game boo</title><g fill="#212121" class="nc-icon-wrapper"><defs></defs><path class="cls-1" d="M13.417 5.25a2.409 2.409 0 0 1-2.541 2.25 2.639 2.639 0 0 1-2.118-1.006A2.639 2.639 0 0 1 6.64 7.5 2.42 2.42 0 0 1 4.1 5.316" fill="none" stroke="#212121" stroke-linecap="round" stroke-linejoin="round" stroke-width="1.5px"></path><path class="cls-1" d="M6.508 7.5v2.25" fill="none" stroke="#212121" stroke-linecap="round" stroke-linejoin="round" stroke-width="1.5px"></path><path class="cls-1" d="M11.008 7.5v2.25" fill="none" stroke="#212121" stroke-linecap="round" stroke-linejoin="round" stroke-width="1.5px"></path><path class="cls-1" d="M5.758 12.75h7.5" fill="none" stroke="#212121" stroke-linecap="round" stroke-linejoin="round" stroke-width="1.5px"></path><path class="cls-1" d="M12.508 12.75l-1.252 3.13a4.5 4.5 0 0 0-.278 1.044 3 3 0 0 1-2.97 2.576 2.843 2.843 0 0 1-2.64-3.9l1.14-2.85" fill="none" stroke="#212121" stroke-linecap="round" stroke-linejoin="round" stroke-width="1.5px"></path><path class="cls-1" d="M9.508 12.75l-1.5 3" fill="none" stroke="#212121" stroke-linecap="round" stroke-linejoin="round" stroke-width="1.5px"></path><path class="cls-1" d="M2.876 14.319a10.146 10.146 0 0 1-2.1-3.776.749.749 0 0 1 1.055-.879l1.673.836V8.25a7.5 7.5 0 0 1 15 0v1.5l3.28-.547a.751.751 0 0 1 .817 1.026c-.536 1.294-1.707 4.087-4.1 5.521h4.5s-3.75 7.5-11.25 7.5a12.445 12.445 0 0 1-5.3-1.281" fill="none" stroke="#212121" stroke-linecap="round" stroke-linejoin="round" stroke-width="1.5px"></path></g></svg>