<svg xmlns="http://www.w3.org/2000/svg" width="24" height="24" viewBox="0 0 24 24"><title>video game control directions</title><g fill="#212121" class="nc-icon-wrapper"><defs></defs><path class="cls-1" d="M9 8.25V.75" fill="none" stroke="#212121" stroke-linecap="round" stroke-linejoin="round" stroke-width="1.5px"></path><path class="cls-1" d="M9 .75h1.5a1.5 1.5 0 0 1 1.5 1.5V3a1.5 1.5 0 0 1-1.5 1.5H9" fill="none" stroke="#212121" stroke-linecap="round" stroke-linejoin="round" stroke-width="1.5px"></path><path class="cls-1" d="M9 4.5h1.5A1.5 1.5 0 0 1 12 6v.75a1.5 1.5 0 0 1-1.5 1.5H9" fill="none" stroke="#212121" stroke-linecap="round" stroke-linejoin="round" stroke-width="1.5px"></path><path class="cls-1" d="M1.5 14.25v-6a1.5 1.5 0 0 1 3 0v6" fill="none" stroke="#212121" stroke-linecap="round" stroke-linejoin="round" stroke-width="1.5px"></path><path class="cls-1" d="M1.5 11.25h3" fill="none" stroke="#212121" stroke-linecap="round" stroke-linejoin="round" stroke-width="1.5px"></path><path class="cls-1" d="M22.5 15.75a.75.75 0 0 0-.75-.75h-3v-3a.75.75 0 0 0-.75-.75h-3a.75.75 0 0 0-.75.75v3h-3a.75.75 0 0 0-.75.75v3a.75.75 0 0 0 .75.75h3v3a.75.75 0 0 0 .75.75h3a.75.75 0 0 0 .75-.75v-3h3a.75.75 0 0 0 .75-.75z" fill="none" stroke="#212121" stroke-linecap="round" stroke-linejoin="round" stroke-width="1.5px"></path></g></svg>