<svg xmlns="http://www.w3.org/2000/svg" width="24" height="24" viewBox="0 0 24 24"><title>view off</title><g fill="#212121" class="nc-icon-wrapper"><defs></defs><path class="a" d="M2.783 21l18.75-18" fill="none" stroke="#212121" stroke-linecap="round" stroke-linejoin="round" stroke-width="1.5px"></path><path class="a" d="M8.964 19.051A9.985 9.985 0 0 0 12 19.5c4.1.069 8.258-2.813 10.824-5.637a1.663 1.663 0 0 0 0-2.226A20.568 20.568 0 0 0 19.75 8.88" fill="none" stroke="#212121" stroke-linecap="round" stroke-linejoin="round" stroke-width="1.5px"></path><path class="a" d="M14.413 6.282A9.549 9.549 0 0 0 12 6c-4.031-.067-8.2 2.752-10.821 5.635a1.663 1.663 0 0 0 0 2.226 20.8 20.8 0 0 0 2.6 2.4" fill="none" stroke="#212121" stroke-linecap="round" stroke-linejoin="round" stroke-width="1.5px"></path><path class="a" d="M8.25 12.75A3.749 3.749 0 0 1 12 9" fill="none" stroke="#212121" stroke-linecap="round" stroke-linejoin="round" stroke-width="1.5px"></path><path class="a" d="M15.75 12.749A3.75 3.75 0 0 1 12 16.5" fill="none" stroke="#212121" stroke-linecap="round" stroke-linejoin="round" stroke-width="1.5px"></path></g></svg>