<svg xmlns="http://www.w3.org/2000/svg" width="24" height="24" viewBox="0 0 24 24"><title>vintage man moustache 1</title><g fill="#212121" class="nc-icon-wrapper"><defs></defs><path class="a" d="M2.25 23.25a10.669 10.669 0 0 1 19.5 0" fill="none" stroke="#212121" stroke-linecap="round" stroke-linejoin="round" stroke-width="1.5px"></path><path class="a" d="M17.25 9.162a5.23 5.23 0 0 1-.941 3" fill="none" stroke="#212121" stroke-linecap="round" stroke-linejoin="round" stroke-width="1.5px"></path><path class="a" d="M7.691 12.163a5.23 5.23 0 0 1-.941-3" fill="none" stroke="#212121" stroke-linecap="round" stroke-linejoin="round" stroke-width="1.5px"></path><path class="a" d="M11.25 12.162c1.1 2.344-2.968 3.412-5.4 2.531.879-2.433 4.302-4.874 5.4-2.531z" fill="none" stroke="#212121" stroke-linecap="round" stroke-linejoin="round" stroke-width="1.5px"></path><path class="a" d="M12.75 12.162c-1.1 2.344 2.968 3.412 5.4 2.531-.879-2.433-4.302-4.874-5.4-2.531z" fill="none" stroke="#212121" stroke-linecap="round" stroke-linejoin="round" stroke-width="1.5px"></path><path class="a" d="M3 6.75a54.753 54.753 0 0 0 18 0" fill="none" stroke="#212121" stroke-linecap="round" stroke-linejoin="round" stroke-width="1.5px"></path><path class="a" d="M12 23.25l-3.337-5.804L6.75 21.75 9 23.25" fill="none" stroke="#212121" stroke-linecap="round" stroke-linejoin="round" stroke-width="1.5px"></path><path class="a" d="M12 23.25l3.337-5.804 1.913 4.304-2.25 1.5" fill="none" stroke="#212121" stroke-linecap="round" stroke-linejoin="round" stroke-width="1.5px"></path><path class="a" d="M6.75 7.242V6a5.25 5.25 0 0 1 10.5 0v1.242" fill="none" stroke="#212121" stroke-linecap="round" stroke-linejoin="round" stroke-width="1.5px"></path></g></svg>