<svg xmlns="http://www.w3.org/2000/svg" width="24" height="24" viewBox="0 0 24 24"><title>vintage camera polaroid</title><g fill="#212121" class="nc-icon-wrapper"><defs></defs><path class="a" d="M3.75 11.25l-2.68 3.631" fill="none" stroke="#212121" stroke-linecap="round" stroke-linejoin="round" stroke-width="1.5px"></path><path class="a" d="M20.25 11.25l2.68 3.631" fill="none" stroke="#212121" stroke-linecap="round" stroke-linejoin="round" stroke-width="1.5px"></path><path class="a" d="M21.519 20.25a1.628 1.628 0 0 0 1.731-1.5v-3a1.628 1.628 0 0 0-1.731-1.5H2.481a1.628 1.628 0 0 0-1.731 1.5v3a1.628 1.628 0 0 0 1.731 1.5" fill="none" stroke="#212121" stroke-linecap="round" stroke-linejoin="round" stroke-width="1.5px"></path><path class="a" d="M5.25 17.25h13.5" fill="none" stroke="#212121" stroke-linecap="round" stroke-linejoin="round" stroke-width="1.5px"></path><circle class="a" cx="12" cy="6" r="3" fill="none" stroke="#212121" stroke-linecap="round" stroke-linejoin="round" stroke-width="1.5px"></circle><path class="a" d="M6.75 7.875a.375.375 0 1 1-.375.375.375.375 0 0 1 .375-.375" fill="none" stroke="#212121" stroke-linecap="round" stroke-linejoin="round" stroke-width="1.5px"></path><path class="a" d="M6.75 17.25l-2.25 6h15l-2.25-6H6.75z" fill="none" stroke="#212121" stroke-linecap="round" stroke-linejoin="round" stroke-width="1.5px"></path><path class="a" d="M20.25 11.25H3.75v-7.5a3 3 0 0 1 3-3h10.5a3 3 0 0 1 3 3z" fill="none" stroke="#212121" stroke-linecap="round" stroke-linejoin="round" stroke-width="1.5px"></path></g></svg>