<svg xmlns="http://www.w3.org/2000/svg" width="24" height="24" viewBox="0 0 24 24"><title>vintage tv 3</title><g fill="#212121" class="nc-icon-wrapper"><defs></defs><path class="a" d="M1.728 1.5a.978.978 0 0 0-.978.978v17.087a.978.978 0 0 0 .978.978h.979l.707 1.416a.978.978 0 0 0 .875.541h15.422a.978.978 0 0 0 .875-.541l.707-1.416h.979a.978.978 0 0 0 .978-.978V2.478a.978.978 0 0 0-.978-.978z" fill="none" stroke="#212121" stroke-linecap="round" stroke-linejoin="round" stroke-width="1.5px"></path><path class="a" d="M5.25 19.5h2.935" fill="none" stroke="#212121" stroke-linecap="round" stroke-linejoin="round" stroke-width="1.5px"></path><path class="a" d="M17.022 19.5H18" fill="none" stroke="#212121" stroke-linecap="round" stroke-linejoin="round" stroke-width="1.5px"></path><path class="a" d="M12.75 19.5h.978" fill="none" stroke="#212121" stroke-linecap="round" stroke-linejoin="round" stroke-width="1.5px"></path><path class="a" d="M20.25 15.587a.434.434 0 0 1-.367.429 56.358 56.358 0 0 1-7.883.367 56.358 56.358 0 0 1-7.883-.367.433.433 0 0 1-.367-.429V5.022a.434.434 0 0 1 .367-.429A56.266 56.266 0 0 1 12 4.225a56.266 56.266 0 0 1 7.883.368.432.432 0 0 1 .367.429z" fill="none" stroke="#212121" stroke-linecap="round" stroke-linejoin="round" stroke-width="1.5px"></path></g></svg>