<svg xmlns="http://www.w3.org/2000/svg" width="24" height="24" viewBox="0 0 24 24"><title>vintage car 3</title><g fill="#212121" class="nc-icon-wrapper"><defs></defs><circle class="a" cx="18.75" cy="16.75" r="1.5" fill="none" stroke="#212121" stroke-linecap="round" stroke-linejoin="round" stroke-width="1.5px"></circle><circle class="a" cx="6.75" cy="16.75" r="1.5" fill="none" stroke="#212121" stroke-linecap="round" stroke-linejoin="round" stroke-width="1.5px"></circle><path class="a" d="M10.89 16.75a4.139 4.139 0 0 0-4.14-4.14c-2.287 0-6 1.853-6 4.14" fill="none" stroke="#212121" stroke-linecap="round" stroke-linejoin="round" stroke-width="1.5px"></path><path class="a" d="M22.861 16.257a4.14 4.14 0 0 0-4.111-3.647c-3.733 0-7.75 3.964-7.75 3.964" fill="none" stroke="#212121" stroke-linecap="round" stroke-linejoin="round" stroke-width="1.5px"></path><path class="a" d="M17.25 16.75h-9" fill="none" stroke="#212121" stroke-linecap="round" stroke-linejoin="round" stroke-width="1.5px"></path><path class="a" d="M20.25 16.75h1.5a1.5 1.5 0 0 0 1.5-1.5l-1.475-4.5a2 2 0 0 0-1.832-1.2H13l-1-3.8H6.75a6 6 0 0 0-6 6v5h4.5" fill="none" stroke="#212121" stroke-linecap="round" stroke-linejoin="round" stroke-width="1.5px"></path><path class="a" d="M7.707 5.75l.793 3.8H13" fill="none" stroke="#212121" stroke-linecap="round" stroke-linejoin="round" stroke-width="1.5px"></path></g></svg>