<svg xmlns="http://www.w3.org/2000/svg" width="24" height="24" viewBox="0 0 24 24"><title>vintage car 6</title><g fill="#212121" class="nc-icon-wrapper"><defs></defs><circle class="a" cx="18.751" cy="15.875" r="1.5" fill="none" stroke="#212121" stroke-linecap="round" stroke-linejoin="round" stroke-width="1.5px"></circle><circle class="a" cx="5.25" cy="15.875" r="1.5" fill="none" stroke="#212121" stroke-linecap="round" stroke-linejoin="round" stroke-width="1.5px"></circle><path class="a" d="M17.251 15.875H6.75" fill="none" stroke="#212121" stroke-linecap="round" stroke-linejoin="round" stroke-width="1.5px"></path><path class="a" d="M20.251 15.875s1.406-.7 1.921-.961c.845-.431 1.078-.539 1.078-2.039s-.367-2.2-1.224-2.309L16.5 9.875l-3.3-3.96a1.5 1.5 0 0 0-1.153-.54H5.871a1.5 1.5 0 0 0-1.06.439L1.189 9.436A1.5 1.5 0 0 0 .75 10.5v2.379a3 3 0 0 0 3 3" fill="none" stroke="#212121" stroke-linecap="round" stroke-linejoin="round" stroke-width="1.5px"></path><path class="a" d="M16.5 9.875l-2.25 6" fill="none" stroke="#212121" stroke-linecap="round" stroke-linejoin="round" stroke-width="1.5px"></path><path class="a" d="M7.5 5.375v5.25l2.25 5.25" fill="none" stroke="#212121" stroke-linecap="round" stroke-linejoin="round" stroke-width="1.5px"></path><path class="a" d="M.75 10.625h15.469" fill="none" stroke="#212121" stroke-linecap="round" stroke-linejoin="round" stroke-width="1.5px"></path></g></svg>