<svg xmlns="http://www.w3.org/2000/svg" width="24" height="24" viewBox="0 0 24 24"><title>vip crown king 1</title><g fill="#212121" class="nc-icon-wrapper"><defs></defs><path class="a" d="M21 18.75a2.235 2.235 0 0 1 .922.2l1.32-7.934a.75.75 0 0 0-1.078-.777L19 12.65a1.784 1.784 0 0 1-2.722-2.119l1.629-3.826L12 .75 6.094 6.705l1.629 3.826A1.784 1.784 0 0 1 5 12.65l-3.164-2.409a.75.75 0 0 0-1.078.777l1.32 7.934A2.235 2.235 0 0 1 3 18.75z" fill="none" stroke="#212121" stroke-linecap="round" stroke-linejoin="round" stroke-width="1.5px"></path><path class="a" d="M23.25 21A2.25 2.25 0 0 0 21 18.75H3A2.25 2.25 0 0 0 .75 21 2.25 2.25 0 0 0 3 23.25h18A2.25 2.25 0 0 0 23.25 21z" fill="none" stroke="#212121" stroke-linecap="round" stroke-linejoin="round" stroke-width="1.5px"></path><path class="a" d="M12 7.5" fill="none" stroke="#212121" stroke-linecap="round" stroke-linejoin="round" stroke-width="1.5px"></path><path class="a" d="M12 7.5a.375.375 0 1 0 .375.375A.375.375 0 0 0 12 7.5" fill="none" stroke="#212121" stroke-linecap="round" stroke-linejoin="round" stroke-width="1.5px"></path></g></svg>