<svg xmlns="http://www.w3.org/2000/svg" width="24" height="24" viewBox="0 0 24 24"><title>vip crown king</title><g fill="#212121" class="nc-icon-wrapper"><defs></defs><path class="a" d="M21 18.75H3A2.25 2.25 0 0 0 .75 21 2.25 2.25 0 0 0 3 23.25h18A2.25 2.25 0 0 0 23.25 21 2.25 2.25 0 0 0 21 18.75z" fill="none" stroke="#212121" stroke-linecap="round" stroke-linejoin="round" stroke-width="1.5px"></path><path class="a" d="M6.75 12.75a5.25 5.25 0 0 1 10.5 0" fill="none" stroke="#212121" stroke-linecap="round" stroke-linejoin="round" stroke-width="1.5px"></path><path class="a" d="M12 7.5V.75" fill="none" stroke="#212121" stroke-linecap="round" stroke-linejoin="round" stroke-width="1.5px"></path><path class="a" d="M9.75 3h4.5" fill="none" stroke="#212121" stroke-linecap="round" stroke-linejoin="round" stroke-width="1.5px"></path><path class="a" d="M16.354 9.816a6.145 6.145 0 0 1 .9-.066 6 6 0 0 1 4.975 9.355" fill="none" stroke="#212121" stroke-linecap="round" stroke-linejoin="round" stroke-width="1.5px"></path><path class="a" d="M7.646 9.816a6.145 6.145 0 0 0-.9-.066 6 6 0 0 0-4.975 9.355" fill="none" stroke="#212121" stroke-linecap="round" stroke-linejoin="round" stroke-width="1.5px"></path></g></svg>