<svg xmlns="http://www.w3.org/2000/svg" width="24" height="24" viewBox="0 0 24 24"><title>volume control full</title><g fill="#212121" class="nc-icon-wrapper"><defs></defs><path class="a" d="M14.171 4.658A1.5 1.5 0 0 0 12.6 4.8L6 9H3a1.5 1.5 0 0 0-1.5 1.5v3A1.5 1.5 0 0 0 3 15h3l6.6 4.2A1.5 1.5 0 0 0 15 18V6a1.5 1.5 0 0 0-.829-1.342z" fill="none" stroke="#212121" stroke-linecap="round" stroke-linejoin="round" stroke-width="1.5px"></path><path class="a" d="M21.463 15.75a6.6 6.6 0 0 0 0-7.1" fill="none" stroke="#212121" stroke-linecap="round" stroke-linejoin="round" stroke-width="1.5px"></path><path class="a" d="M18.562 14.441a3.493 3.493 0 0 0 0-4.405" fill="none" stroke="#212121" stroke-linecap="round" stroke-linejoin="round" stroke-width="1.5px"></path><path class="a" d="M6 9v6" fill="none" stroke="#212121" stroke-linecap="round" stroke-linejoin="round" stroke-width="1.5px"></path></g></svg>