<svg xmlns="http://www.w3.org/2000/svg" width="24" height="24" viewBox="0 0 24 24"><title>vr laptop</title><g fill="#212121" class="nc-icon-wrapper"><defs></defs><rect class="a" x="11.25" y="5.25" width="12" height="6" rx="1.5" ry="1.5" fill="none" stroke="#212121" stroke-linecap="round" stroke-linejoin="round" stroke-width="1.5px"></rect><path class="a" d="M23.178 6.289L21.75.75h-1.5l-.75 1.5H15l-.75-1.5h-1.5l-1.428 5.539" fill="none" stroke="#212121" stroke-linecap="round" stroke-linejoin="round" stroke-width="1.5px"></path><path class="a" d="M11.25 8.25h3" fill="none" stroke="#212121" stroke-linecap="round" stroke-linejoin="round" stroke-width="1.5px"></path><path class="a" d="M20.25 8.25h3" fill="none" stroke="#212121" stroke-linecap="round" stroke-linejoin="round" stroke-width="1.5px"></path><path class="a" d="M21.75 11.25v8.25a2.25 2.25 0 0 1-4.5 0v-.75a1.5 1.5 0 0 0-1.5-1.5H12" fill="none" stroke="#212121" stroke-linecap="round" stroke-linejoin="round" stroke-width="1.5px"></path><path class="a" d="M.75 20.25a3 3 0 0 0 3 3h6a3 3 0 0 0 3-3z" fill="none" stroke="#212121" stroke-linecap="round" stroke-linejoin="round" stroke-width="1.5px"></path><path class="a" d="M10.5 14.25H3a1.5 1.5 0 0 0-1.5 1.5v4.5H12v-4.5a1.5 1.5 0 0 0-1.5-1.5z" fill="none" stroke="#212121" stroke-linecap="round" stroke-linejoin="round" stroke-width="1.5px"></path></g></svg>