<svg xmlns="http://www.w3.org/2000/svg" width="24" height="24" viewBox="0 0 24 24"><title>vr phone</title><g fill="#212121" class="nc-icon-wrapper"><defs></defs><rect class="a" x="5.25" y=".75" width="13.5" height="7.5" rx="1.5" ry="1.5" fill="none" stroke="#212121" stroke-linecap="round" stroke-linejoin="round" stroke-width="1.5px"></rect><path class="a" d="M8.25 8.25V.75" fill="none" stroke="#212121" stroke-linecap="round" stroke-linejoin="round" stroke-width="1.5px"></path><path class="a" d="M15.75.75v7.5" fill="none" stroke="#212121" stroke-linecap="round" stroke-linejoin="round" stroke-width="1.5px"></path><path class="a" d="M6 12.75H3.75a3 3 0 0 0-3 3v4.5a3 3 0 0 0 3 3h2.391a2.946 2.946 0 0 0 2.128-.885c.849-.885 2.29-2.115 3.731-2.115s2.882 1.23 3.732 2.115a2.942 2.942 0 0 0 2.127.885h2.391a3 3 0 0 0 3-3v-4.5a3 3 0 0 0-3-3H18" fill="none" stroke="#212121" stroke-linecap="round" stroke-linejoin="round" stroke-width="1.5px"></path><path class="a" d="M12 11.25v6" fill="none" stroke="#212121" stroke-linecap="round" stroke-linejoin="round" stroke-width="1.5px"></path><path class="a" d="M15 14.25l-3 3-3-3" fill="none" stroke="#212121" stroke-linecap="round" stroke-linejoin="round" stroke-width="1.5px"></path></g></svg>