<svg xmlns="http://www.w3.org/2000/svg" width="24" height="24" viewBox="0 0 24 24"><title>vr user play</title><g fill="#212121" class="nc-icon-wrapper"><defs></defs><path class="a" d="M10.459 11.359l2.291-.859V3l-6 2.25V9" fill="none" stroke="#212121" stroke-linecap="round" stroke-linejoin="round" stroke-width="1.5px"></path><path class="a" d="M3.041 11.359L.75 10.5V3l6 2.25V9" fill="none" stroke="#212121" stroke-linecap="round" stroke-linejoin="round" stroke-width="1.5px"></path><path class="a" d="M12.75 3l-6-2.25L.75 3" fill="none" stroke="#212121" stroke-linecap="round" stroke-linejoin="round" stroke-width="1.5px"></path><path class="a" d="M15.357 15.115c-.357.941-.716 1.908-1.107 2.885h3v1.5a3 3 0 0 0 3 3h1.5v.75" fill="none" stroke="#212121" stroke-linecap="round" stroke-linejoin="round" stroke-width="1.5px"></path><path class="a" d="M23.25 4.816A7.667 7.667 0 0 0 21 5.8" fill="none" stroke="#212121" stroke-linecap="round" stroke-linejoin="round" stroke-width="1.5px"></path><path class="a" d="M17.25 6.75a6.226 6.226 0 0 0-2.25 6h8.25V9z" fill="none" stroke="#212121" stroke-linecap="round" stroke-linejoin="round" stroke-width="1.5px"></path><path class="a" d="M8.25 23.25l2.929-2.343a1.639 1.639 0 0 0 .566-1.676 1.638 1.638 0 0 0-2.321-1.068l-1.174.587V13.5a1.5 1.5 0 0 0-1.5-1.5 1.5 1.5 0 0 0-1.5 1.5v3l-1.993.333A3 3 0 0 0 .75 19.792v3.458" fill="none" stroke="#212121" stroke-linecap="round" stroke-linejoin="round" stroke-width="1.5px"></path></g></svg>