<svg xmlns="http://www.w3.org/2000/svg" width="24" height="24" viewBox="0 0 24 24"><title>vr user laptop</title><g fill="#212121" class="nc-icon-wrapper"><defs></defs><path class="a" d="M6.75 14.25v-1.5a1.5 1.5 0 0 0-1.5-1.5H3a2.25 2.25 0 0 1 0-4.5h8.25" fill="none" stroke="#212121" stroke-linecap="round" stroke-linejoin="round" stroke-width="1.5px"></path><path class="a" d="M.75 20.25a3 3 0 0 0 3 3h6a3 3 0 0 0 3-3z" fill="none" stroke="#212121" stroke-linecap="round" stroke-linejoin="round" stroke-width="1.5px"></path><path class="a" d="M10.5 14.25H3a1.5 1.5 0 0 0-1.5 1.5v4.5H12v-4.5a1.5 1.5 0 0 0-1.5-1.5z" fill="none" stroke="#212121" stroke-linecap="round" stroke-linejoin="round" stroke-width="1.5px"></path><rect class="a" x="11.25" y="4.5" width="12" height="6" rx="1.5" ry="1.5" fill="none" stroke="#212121" stroke-linecap="round" stroke-linejoin="round" stroke-width="1.5px"></rect><path class="a" d="M15.75 7.5h3" fill="none" stroke="#212121" stroke-linecap="round" stroke-linejoin="round" stroke-width="1.5px"></path><path class="a" d="M12.122 4.638C12.6 2.162 14.421.75 17.25.75s4.655 1.412 5.128 3.888" fill="none" stroke="#212121" stroke-linecap="round" stroke-linejoin="round" stroke-width="1.5px"></path><path class="a" d="M21.643 10.5c-.87 2.4-2.377 4.5-4.393 4.5s-3.522-2.105-4.393-4.5" fill="none" stroke="#212121" stroke-linecap="round" stroke-linejoin="round" stroke-width="1.5px"></path></g></svg>