<svg xmlns="http://www.w3.org/2000/svg" width="24" height="24" viewBox="0 0 24 24"><title>walking forbidden</title><g fill="#212121" class="nc-icon-wrapper"><defs></defs><circle class="a" cx="11.401" cy="3.558" r="2.625" fill="none" stroke="#212121" stroke-linecap="round" stroke-linejoin="round" stroke-width="1.5px"></circle><path class="a" d="M12.151 8.058a6.006 6.006 0 0 1 6 6" fill="none" stroke="#212121" stroke-linecap="round" stroke-linejoin="round" stroke-width="1.5px"></path><path class="a" d="M8.448 12.838a5.225 5.225 0 0 1-4.1 1.97 1.5 1.5 0 0 1 0-3 2.239 2.239 0 0 0 1.756-.844" fill="none" stroke="#212121" stroke-linecap="round" stroke-linejoin="round" stroke-width="1.5px"></path><path class="a" d="M15.649 20.726a1.5 1.5 0 0 1-2.5 1.664A19.388 19.388 0 0 1 10.9 17.8a8.036 8.036 0 0 0-3.329 4.234 1.5 1.5 0 0 1-2.844-.95 11.045 11.045 0 0 1 5.425-6.307" fill="none" stroke="#212121" stroke-linecap="round" stroke-linejoin="round" stroke-width="1.5px"></path><path class="a" d="M.75.745l22.5 22.5" fill="none" stroke="#212121" stroke-linecap="round" stroke-linejoin="round" stroke-width="1.5px"></path></g></svg>