<svg xmlns="http://www.w3.org/2000/svg" width="24" height="24" viewBox="0 0 24 24"><title>warehouse cart package ribbon 1</title><g fill="#212121" class="nc-icon-wrapper"><defs></defs><path class="a" d="M12 20.774l-8.238-1.736a1.954 1.954 0 0 0-1.784.531l-.717.717" fill="none" stroke="#212121" stroke-linecap="round" stroke-linejoin="round" stroke-width="1.5px"></path><path class="a" d="M15.646 17.335L18.992 2.28A1.954 1.954 0 0 1 20.9.75h1.852" fill="none" stroke="#212121" stroke-linecap="round" stroke-linejoin="round" stroke-width="1.5px"></path><circle class="a" cx="14.936" cy="20.25" r="3" fill="none" stroke="#212121" stroke-linecap="round" stroke-linejoin="round" stroke-width="1.5px"></circle><path class="a" d="M9.115 16.823L3.163 15.4a1.5 1.5 0 0 1-1.11-1.807L4.666 2.652a1.5 1.5 0 0 1 1.808-1.111l7.3 1.743a1.5 1.5 0 0 1 1.11 1.807l-1.923 8.029" fill="none" stroke="#212121" stroke-linecap="round" stroke-linejoin="round" stroke-width="1.5px"></path><path class="a" d="M8.663 2.064l2.918.697-1.045 4.377-2.918-.697z" fill="none" stroke="#212121" stroke-linecap="round" stroke-linejoin="round" stroke-width="1.5px"></path></g></svg>