<svg xmlns="http://www.w3.org/2000/svg" width="24" height="24" viewBox="0 0 24 24"><title>warehouse cart packages</title><g fill="#212121" class="nc-icon-wrapper"><defs></defs><circle class="a" cx="3.756" cy="20.25" r="1.5" fill="none" stroke="#212121" stroke-linecap="round" stroke-linejoin="round" stroke-width="1.5px"></circle><circle class="a" cx="20.256" cy="20.25" r="1.5" fill="none" stroke="#212121" stroke-linecap="round" stroke-linejoin="round" stroke-width="1.5px"></circle><path class="a" d="M.756 2.25h1.5a1.5 1.5 0 0 1 1.5 1.5V15a1.5 1.5 0 0 0 1.5 1.5h18" fill="none" stroke="#212121" stroke-linecap="round" stroke-linejoin="round" stroke-width="1.5px"></path><path class="a" d="M6.756 16.5h7.5v-6.429A1.072 1.072 0 0 0 13.184 9H7.827a1.071 1.071 0 0 0-1.071 1.071z" fill="none" stroke="#212121" stroke-linecap="round" stroke-linejoin="round" stroke-width="1.5px"></path><path class="a" d="M14.256 16.5h7.5v-5.143a.983.983 0 0 0-1.072-.857h-5.357a.982.982 0 0 0-1.071.857z" fill="none" stroke="#212121" stroke-linecap="round" stroke-linejoin="round" stroke-width="1.5px"></path><path class="a" d="M10.506 6v-.75a1.5 1.5 0 0 1 1.5-1.5h4.5a1.5 1.5 0 0 1 1.5 1.5V7.5" fill="none" stroke="#212121" stroke-linecap="round" stroke-linejoin="round" stroke-width="1.5px"></path><circle class="a" cx="3.756" cy="20.25" r="1.5" fill="none" stroke="#212121" stroke-linecap="round" stroke-linejoin="round" stroke-width="1.5px"></circle><circle class="a" cx="20.256" cy="20.25" r="1.5" fill="none" stroke="#212121" stroke-linecap="round" stroke-linejoin="round" stroke-width="1.5px"></circle><path class="a" d="M.756 2.25h1.5a1.5 1.5 0 0 1 1.5 1.5V15a1.5 1.5 0 0 0 1.5 1.5h18" fill="none" stroke="#212121" stroke-linecap="round" stroke-linejoin="round" stroke-width="1.5px"></path><path class="a" d="M6.756 16.5h7.5v-6.429A1.072 1.072 0 0 0 13.184 9H7.827a1.071 1.071 0 0 0-1.071 1.071z" fill="none" stroke="#212121" stroke-linecap="round" stroke-linejoin="round" stroke-width="1.5px"></path><path class="a" d="M14.256 16.5h7.5v-5.143a.983.983 0 0 0-1.072-.857h-5.357a.982.982 0 0 0-1.071.857z" fill="none" stroke="#212121" stroke-linecap="round" stroke-linejoin="round" stroke-width="1.5px"></path><path class="a" d="M10.506 6v-.75a1.5 1.5 0 0 1 1.5-1.5h4.5a1.5 1.5 0 0 1 1.5 1.5V7.5" fill="none" stroke="#212121" stroke-linecap="round" stroke-linejoin="round" stroke-width="1.5px"></path></g></svg>