<svg xmlns="http://www.w3.org/2000/svg" width="24" height="24" viewBox="0 0 24 24"><title>water glass half full</title><g fill="#212121" class="nc-icon-wrapper"><defs></defs><path class="cls-1" d="M18.75 21a2.25 2.25 0 0 1-4.5 0 2.25 2.25 0 0 1-4.5 0 2.25 2.25 0 0 1-4.5 0v-3.75a6.066 6.066 0 0 0 0-6v-1.5c0-2.9 2.35-6 5.25-6h3c2.9 0 5.25 3.1 5.25 6v1.5a6.059 6.059 0 0 0 0 6z" fill="none" stroke="#212121" stroke-linecap="round" stroke-linejoin="round" stroke-width="1.5px"></path><path class="cls-1" d="M10.5.75h3v3h-3z" fill="none" stroke="#212121" stroke-linecap="round" stroke-linejoin="round" stroke-width="1.5px"></path><path class="cls-1" d="M5.25 11.25h13.5" fill="none" stroke="#212121" stroke-linecap="round" stroke-linejoin="round" stroke-width="1.5px"></path><path class="cls-1" d="M5.25 17.25h13.5" fill="none" stroke="#212121" stroke-linecap="round" stroke-linejoin="round" stroke-width="1.5px"></path></g></svg>