<svg xmlns="http://www.w3.org/2000/svg" width="24" height="24" viewBox="0 0 24 24"><title>water protection drop</title><g fill="#212121" class="nc-icon-wrapper"><defs></defs><path class="cls-1" d="M16.426 13.537a4.463 4.463 0 1 1-8.925 0c0-3.825 3.825-8.287 4.462-8.287s4.463 4.462 4.463 8.287z" fill="none" stroke="#212121" stroke-linecap="round" stroke-linejoin="round" stroke-width="1.5px"></path><path class="cls-1" d="M.85 13.5a11.429 11.429 0 0 1-.1-1.5A11.25 11.25 0 0 1 12 .75" fill="none" stroke="#212121" stroke-linecap="round" stroke-linejoin="round" stroke-width="1.5px"></path><path class="cls-1" d="M23.152 13.5a11.429 11.429 0 0 0 .1-1.5A11.25 11.25 0 0 0 12 .75" fill="none" stroke="#212121" stroke-linecap="round" stroke-linejoin="round" stroke-width="1.5px"></path><path class="cls-1" d="M22.317 16.492a10.7 10.7 0 0 1-1.41 2.38" fill="none" stroke="#212121" stroke-linecap="round" stroke-linejoin="round" stroke-width="1.5px"></path><path class="cls-1" d="M18.738 21.006a10.576 10.576 0 0 1-2.4 1.372" fill="none" stroke="#212121" stroke-linecap="round" stroke-linejoin="round" stroke-width="1.5px"></path><path class="cls-1" d="M7.687 22.378a10.5 10.5 0 0 1-2.4-1.372" fill="none" stroke="#212121" stroke-linecap="round" stroke-linejoin="round" stroke-width="1.5px"></path><path class="cls-1" d="M3.115 18.873a10.706 10.706 0 0 1-1.41-2.381" fill="none" stroke="#212121" stroke-linecap="round" stroke-linejoin="round" stroke-width="1.5px"></path><path class="cls-1" d="M13.5 23.151a11.413 11.413 0 0 1-3 0" fill="none" stroke="#212121" stroke-linecap="round" stroke-linejoin="round" stroke-width="1.5px"></path></g></svg>