<svg xmlns="http://www.w3.org/2000/svg" width="24" height="24" viewBox="0 0 24 24"><title>water pitcher 1</title><g fill="#212121" class="nc-icon-wrapper"><defs></defs><path class="cls-1" d="M15.75 15.75a7.5 7.5 0 0 1-7.5 7.5 7.281 7.281 0 0 1-7.5-7.5c0-4.5 4.5-5.25 4.5-9S.75 3 .75 3A2.25 2.25 0 0 1 3 .75h12.75s-4.5 2.25-4.5 6c0 3 4.5 3 4.5 9z" fill="none" stroke="#212121" stroke-linecap="round" stroke-linejoin="round" stroke-width="1.5px"></path><path class="cls-1" d="M15.75.75a5.609 5.609 0 0 1 5.476 4.393l2.024 9.107" fill="none" stroke="#212121" stroke-linecap="round" stroke-linejoin="round" stroke-width="1.5px"></path><path class="cls-1" d="M.75 15.75h15" fill="none" stroke="#212121" stroke-linecap="round" stroke-linejoin="round" stroke-width="1.5px"></path></g></svg>