<svg xmlns="http://www.w3.org/2000/svg" width="24" height="24" viewBox="0 0 24 24"><title>weather cloud thunder</title><g fill="#212121" class="nc-icon-wrapper"><defs></defs><path class="cls-1" d="M8.658 6.75a5.993 5.993 0 0 0 .042.75 5.993 5.993 0 0 1-.046-.75 5.848 5.848 0 0 1 .113-1.122" fill="none" stroke="#212121" stroke-linecap="round" stroke-linejoin="round" stroke-width="1.5px"></path><path class="cls-1" d="M15.568 12.681a6 6 0 1 0-6.8-7.053 3.745 3.745 0 1 0-1.61 7.122h1.5" fill="none" stroke="#212121" stroke-linecap="round" stroke-linejoin="round" stroke-width="1.5px"></path><path class="cls-1" d="M12.408 12.75l-5.36 5.36a.375.375 0 0 0 .265.64h2.095v4.5l5.359-5.36a.375.375 0 0 0-.265-.64h-2.094z" fill="none" stroke="#212121" stroke-linecap="round" stroke-linejoin="round" stroke-width="1.5px"></path></g></svg>