<svg xmlns="http://www.w3.org/2000/svg" width="24" height="24" viewBox="0 0 24 24"><title>weather night windy</title><g fill="#212121" class="nc-icon-wrapper"><defs></defs><path class="cls-1" d="M20.677 12.285a5.982 5.982 0 0 0 2.555-1.966A5.6 5.6 0 0 1 18.361.744a5.977 5.977 0 0 0-5.886 5.23" fill="none" stroke="#212121" stroke-linecap="round" stroke-linejoin="round" stroke-width="1.5px"></path><path class="cls-1" d="M.835 13.836a6.084 6.084 0 0 1-.1-1.112A6 6 0 0 1 12.619 11.6a3.723 3.723 0 0 1 5.229 2.374" fill="none" stroke="#212121" stroke-linecap="round" stroke-linejoin="round" stroke-width="1.5px"></path><path class="cls-1" d="M12.732 12.724a5.993 5.993 0 0 1-.046.75 5.993 5.993 0 0 0 .046-.75 5.848 5.848 0 0 0-.113-1.122" fill="none" stroke="#212121" stroke-linecap="round" stroke-linejoin="round" stroke-width="1.5px"></path><path class="cls-1" d="M5.232 20.224h17.887" fill="none" stroke="#212121" stroke-linecap="round" stroke-linejoin="round" stroke-width="1.5px"></path><path class="cls-1" d="M.732 17.224h17.887" fill="none" stroke="#212121" stroke-linecap="round" stroke-linejoin="round" stroke-width="1.5px"></path><path class="cls-1" d="M.732 23.224h17.887" fill="none" stroke="#212121" stroke-linecap="round" stroke-linejoin="round" stroke-width="1.5px"></path></g></svg>