<svg xmlns="http://www.w3.org/2000/svg" width="24" height="24" viewBox="0 0 24 24"><title>weather app rain location</title><g fill="#212121" class="nc-icon-wrapper"><defs></defs><path class="cls-1" d="M18.75 15.449a.375.375 0 0 1 .375.375" fill="none" stroke="#212121" stroke-linecap="round" stroke-linejoin="round" stroke-width="1.5px"></path><path class="cls-1" d="M18.375 15.824a.375.375 0 0 1 .375-.375" fill="none" stroke="#212121" stroke-linecap="round" stroke-linejoin="round" stroke-width="1.5px"></path><path class="cls-1" d="M18.75 16.2a.375.375 0 0 1-.375-.375" fill="none" stroke="#212121" stroke-linecap="round" stroke-linejoin="round" stroke-width="1.5px"></path><path class="cls-1" d="M19.125 15.824a.375.375 0 0 1-.375.375" fill="none" stroke="#212121" stroke-linecap="round" stroke-linejoin="round" stroke-width="1.5px"></path><path class="cls-1" d="M18.75 11.324a4.5 4.5 0 0 1 4.5 4.5c0 1.921-2.688 5.576-3.909 7.138a.751.751 0 0 1-1.182 0c-1.221-1.561-3.909-5.217-3.909-7.138a4.5 4.5 0 0 1 4.5-4.5z" fill="none" stroke="#212121" stroke-linecap="round" stroke-linejoin="round" stroke-width="1.5px"></path><path class="cls-1" d="M6.75 15.75L4.5 18" fill="none" stroke="#212121" stroke-linecap="round" stroke-linejoin="round" stroke-width="1.5px"></path><path class="cls-1" d="M10.5 15.75L8.25 18" fill="none" stroke="#212121" stroke-linecap="round" stroke-linejoin="round" stroke-width="1.5px"></path><path class="cls-1" d="M3 15.75L.75 18" fill="none" stroke="#212121" stroke-linecap="round" stroke-linejoin="round" stroke-width="1.5px"></path><path class="cls-1" d="M6.75 6.75a5.993 5.993 0 0 0 .05.75 5.993 5.993 0 0 1-.047-.75 5.848 5.848 0 0 1 .113-1.122" fill="none" stroke="#212121" stroke-linecap="round" stroke-linejoin="round" stroke-width="1.5px"></path><path class="cls-1" d="M18.555 8.273A6 6 0 1 0 6.863 5.628 3.745 3.745 0 1 0 5.25 12.75h5.219" fill="none" stroke="#212121" stroke-linecap="round" stroke-linejoin="round" stroke-width="1.5px"></path></g></svg>