<svg xmlns="http://www.w3.org/2000/svg" width="24" height="24" viewBox="0 0 24 24"><title>weather app rain umbrella</title><g fill="#212121" class="nc-icon-wrapper"><defs></defs><path class="cls-1" d="M12.75 13.5v7.017a2.732 2.732 0 0 1-2.733 2.733H3.483A2.732 2.732 0 0 1 .75 20.517V4.983A2.732 2.732 0 0 1 3.483 2.25H8.25" fill="none" stroke="#212121" stroke-linejoin="round" stroke-width="1.5px" stroke-linecap="round"></path><path class="cls-1" d="M.75 18.75h12" fill="none" stroke="#212121" stroke-linejoin="round" stroke-width="1.5px" stroke-linecap="round"></path><path class="cls-2" d="M16.5 9.75c.409-1.669 3.268-1.669 3.677 0 .013-1.682 3.076-1.669 3.065 0a6.892 6.892 0 0 0-6.742-7.5 6.892 6.892 0 0 0-6.742 7.5c-.011-1.669 3.052-1.682 3.065 0 .409-1.669 3.268-1.669 3.677 0z" fill="none" stroke="#212121" stroke-linejoin="round" stroke-width="1.5px"></path><path class="cls-1" d="M16.5 2.25V.75" fill="none" stroke="#212121" stroke-linejoin="round" stroke-width="1.5px" stroke-linecap="round"></path><path class="cls-1" d="M16.5 9.75V15a1.5 1.5 0 0 0 3 0" fill="none" stroke="#212121" stroke-linejoin="round" stroke-width="1.5px" stroke-linecap="round"></path></g></svg>