<svg xmlns="http://www.w3.org/2000/svg" width="24" height="24" viewBox="0 0 24 24"><title>wedding certificate</title><g fill="#212121" class="nc-icon-wrapper"><defs></defs><path class="a" d="M3.75 6.75h9.75" fill="none" stroke="#212121" stroke-linecap="round" stroke-linejoin="round" stroke-width="1.5px"></path><path class="a" d="M3.75 11.25h6" fill="none" stroke="#212121" stroke-linecap="round" stroke-linejoin="round" stroke-width="1.5px"></path><path class="a" d="M3.75 15.75h6" fill="none" stroke="#212121" stroke-linecap="round" stroke-linejoin="round" stroke-width="1.5px"></path><path class="a" d="M15.154 15.94l-.704 7.31 3.65-1.5 3.65 1.5-.695-7.216" fill="none" stroke="#212121" stroke-linecap="round" stroke-linejoin="round" stroke-width="1.5px"></path><path class="a" d="M11.25 20.25h-9a1.5 1.5 0 0 1-1.5-1.5V2.25a1.5 1.5 0 0 1 1.5-1.5H12.8a1.5 1.5 0 0 1 1.153.54L16.9 4.833a1.5 1.5 0 0 1 .348.96V8.25" fill="none" stroke="#212121" stroke-linecap="round" stroke-linejoin="round" stroke-width="1.5px"></path><path class="a" d="M22.6 11.208a2.154 2.154 0 0 0-3.118 0l-1.332 1.381-1.336-1.381a2.154 2.154 0 0 0-3.118 0 2.335 2.335 0 0 0 0 3.224l3.98 4.115a.654.654 0 0 0 .948 0l3.98-4.115a2.335 2.335 0 0 0-.004-3.224z" fill="none" stroke="#212121" stroke-linecap="round" stroke-linejoin="round" stroke-width="1.5px"></path></g></svg>