<svg xmlns="http://www.w3.org/2000/svg" width="24" height="24" viewBox="0 0 24 24"><title>wedding couple dance</title><g fill="#212121" class="nc-icon-wrapper"><defs></defs><path class="a" d="M12 22.5l-4.475-4.572a2.557 2.557 0 0 1-.5-2.994 2.677 2.677 0 0 1 4.24-.674l.731.716.731-.716a2.677 2.677 0 0 1 4.24.674 2.557 2.557 0 0 1-.5 2.994z" fill="none" stroke="#212121" stroke-linecap="round" stroke-linejoin="round" stroke-width="1.5px"></path><path class="a" d="M22.68 5.839a1.9 1.9 0 0 0-2.751 0L18.75 7.058l-1.179-1.219a1.9 1.9 0 0 0-2.751 0 2.06 2.06 0 0 0 0 2.845l3.511 3.631a.579.579 0 0 0 .838 0l3.511-3.631a2.06 2.06 0 0 0 0-2.845z" fill="none" stroke="#212121" stroke-linecap="round" stroke-linejoin="round" stroke-width="1.5px"></path><path class="a" d="M12 1.5V15" fill="none" stroke="#212121" stroke-linecap="round" stroke-linejoin="round" stroke-width="1.5px"></path><path class="a" d="M18.75 7.058V1.5" fill="none" stroke="#212121" stroke-linecap="round" stroke-linejoin="round" stroke-width="1.5px"></path><path class="a" d="M9.18 5.839a1.9 1.9 0 0 0-2.751 0L5.25 7.058 4.071 5.839a1.9 1.9 0 0 0-2.751 0 2.06 2.06 0 0 0 0 2.845l3.511 3.631a.579.579 0 0 0 .838 0L9.18 8.684a2.06 2.06 0 0 0 0-2.845z" fill="none" stroke="#212121" stroke-linecap="round" stroke-linejoin="round" stroke-width="1.5px"></path><path class="a" d="M5.25 7.058V1.5" fill="none" stroke="#212121" stroke-linecap="round" stroke-linejoin="round" stroke-width="1.5px"></path></g></svg>