<svg xmlns="http://www.w3.org/2000/svg" width="24" height="24" viewBox="0 0 24 24"><title>wedding dress</title><g fill="#212121" class="nc-icon-wrapper"><defs></defs><path class="a" d="M15.442 8.481l1.714-3.315A3.084 3.084 0 0 0 17.5 3.75a3 3 0 0 0-6 0 3 3 0 0 0-6 0 3.084 3.084 0 0 0 .344 1.416l1.714 3.315C6.121 9.717 4.75 11.5 4.75 13.5v3.256a.751.751 0 0 0 .463.693 15.838 15.838 0 0 0 12.574 0 .751.751 0 0 0 .463-.693V13.5c0-2-1.371-3.783-2.808-5.019z" fill="none" stroke="#212121" stroke-linecap="round" stroke-linejoin="round" stroke-width="1.5px"></path><path class="a" d="M4.75 14.25a15.938 15.938 0 0 0 13.5 0" fill="none" stroke="#212121" stroke-linecap="round" stroke-linejoin="round" stroke-width="1.5px"></path><path class="a" d="M11.5 23.25v-4.5" fill="none" stroke="#212121" stroke-linecap="round" stroke-linejoin="round" stroke-width="1.5px"></path><path class="a" d="M8.5 23.25h6" fill="none" stroke="#212121" stroke-linecap="round" stroke-linejoin="round" stroke-width="1.5px"></path></g></svg>