<svg xmlns="http://www.w3.org/2000/svg" width="24" height="24" viewBox="0 0 24 24"><title>wedding car</title><g fill="#212121" class="nc-icon-wrapper"><defs></defs><path class="a" d="M21 9l-1.929-6.431A1.5 1.5 0 0 0 17.634 1.5H6.366a1.5 1.5 0 0 0-1.437 1.069L3 9 .964 12.394a1.5 1.5 0 0 0-.214.771V18a1.5 1.5 0 0 0 1.5 1.5h19.5a1.5 1.5 0 0 0 1.5-1.5v-4.835a1.5 1.5 0 0 0-.214-.771z" fill="none" stroke="#212121" stroke-linecap="round" stroke-linejoin="round" stroke-width="1.5px"></path><path class="a" d="M3.9 6h16.2" fill="none" stroke="#212121" stroke-linecap="round" stroke-linejoin="round" stroke-width="1.5px"></path><path class="a" d="M6.75 21a1.5 1.5 0 0 1-1.5 1.5h-1.5a1.5 1.5 0 0 1-1.5-1.5v-1.5h4.5z" fill="none" stroke="#212121" stroke-linecap="round" stroke-linejoin="round" stroke-width="1.5px"></path><path class="a" d="M21.75 21a1.5 1.5 0 0 1-1.5 1.5h-1.5a1.5 1.5 0 0 1-1.5-1.5v-1.5h4.5z" fill="none" stroke="#212121" stroke-linecap="round" stroke-linejoin="round" stroke-width="1.5px"></path><path class="a" d="M15.74 13.598l6.546-2.455" fill="none" stroke="#212121" stroke-linecap="round" stroke-linejoin="round" stroke-width="1.5px"></path><path class="a" d="M1.839 10.935l6.17 2.469" fill="none" stroke="#212121" stroke-linecap="round" stroke-linejoin="round" stroke-width="1.5px"></path><path class="a" d="M.75 16.5H4.5" fill="none" stroke="#212121" stroke-linecap="round" stroke-linejoin="round" stroke-width="1.5px"></path><path class="a" d="M19.5 16.5h3.75" fill="none" stroke="#212121" stroke-linecap="round" stroke-linejoin="round" stroke-width="1.5px"></path><path class="a" d="M16.422 9.668a2.153 2.153 0 0 0-3.118 0l-1.336 1.381-1.336-1.381a2.153 2.153 0 0 0-3.118 0 2.335 2.335 0 0 0 0 3.224l3.98 4.114a.656.656 0 0 0 .949 0l3.979-4.114a2.335 2.335 0 0 0 0-3.224z" fill="none" stroke="#212121" stroke-linecap="round" stroke-linejoin="round" stroke-width="1.5px"></path></g></svg>