<svg xmlns="http://www.w3.org/2000/svg" width="24" height="24" viewBox="0 0 24 24"><title>wifi transfer hand</title><g fill="#212121" class="nc-icon-wrapper"><defs></defs><path class="a" d="M15.75 15l-1.673-1.255a1.569 1.569 0 0 0-2.246.385 1.566 1.566 0 0 0 0 1.74l1.644 2.467a4.5 4.5 0 0 0 2.073 1.682L18 21v2.25" fill="none" stroke="#212121" stroke-linecap="round" stroke-linejoin="round" stroke-width="1.5px"></path><path class="a" d="M15 9.75l3.6 1.541a4.5 4.5 0 0 1 2.363 2.364l1.173 2.745a4.483 4.483 0 0 1 .364 1.773v5.077" fill="none" stroke="#212121" stroke-linecap="round" stroke-linejoin="round" stroke-width="1.5px"></path><path class="a" d="M15 14.438V7.5a2.25 2.25 0 0 0-2.25-2.25h-6A2.251 2.251 0 0 0 4.5 7.5V21a2.25 2.25 0 0 0 2.25 2.25h6A2.25 2.25 0 0 0 15 21v-1.245" fill="none" stroke="#212121" stroke-linecap="round" stroke-linejoin="round" stroke-width="1.5px"></path><path class="a" d="M13.786 18.75H4.5" fill="none" stroke="#212121" stroke-linecap="round" stroke-linejoin="round" stroke-width="1.5px"></path><path class="a" d="M1.5 6A5.251 5.251 0 0 1 6.75.75" fill="none" stroke="#212121" stroke-linecap="round" stroke-linejoin="round" stroke-width="1.5px"></path><path class="a" d="M18 6A5.25 5.25 0 0 0 12.75.75" fill="none" stroke="#212121" stroke-linecap="round" stroke-linejoin="round" stroke-width="1.5px"></path></g></svg>