<svg xmlns="http://www.w3.org/2000/svg" width="24" height="24" viewBox="0 0 24 24"><title>wifi heart</title><g fill="#212121" class="nc-icon-wrapper"><defs></defs><path class="a" d="M8.21 11.284a5.25 5.25 0 0 1 7.417 0" fill="none" stroke="#212121" stroke-linecap="round" stroke-linejoin="round" stroke-width="1.5px"></path><path class="a" d="M5.32 7.822a9.75 9.75 0 0 1 13.165-.029" fill="none" stroke="#212121" stroke-linecap="round" stroke-linejoin="round" stroke-width="1.5px"></path><path class="a" d="M3 3.885a14.252 14.252 0 0 1 17.991.126" fill="none" stroke="#212121" stroke-linecap="round" stroke-linejoin="round" stroke-width="1.5px"></path><path class="a" d="M16.8 14.982a2.361 2.361 0 0 0-3.418 0L11.918 16.5l-1.464-1.515a2.361 2.361 0 0 0-3.418 0 2.56 2.56 0 0 0 0 3.535l4.362 4.51a.72.72 0 0 0 1.041 0l4.362-4.51a2.56 2.56 0 0 0-.001-3.538z" fill="none" stroke="#212121" stroke-linecap="round" stroke-linejoin="round" stroke-width="1.5px"></path></g></svg>