<svg xmlns="http://www.w3.org/2000/svg" width="24" height="24" viewBox="0 0 24 24"><title>wifi star</title><g fill="#212121" class="nc-icon-wrapper"><defs></defs><path class="a" d="M5.96 11.284a5.25 5.25 0 0 1 6.756-.559" fill="none" stroke="#212121" stroke-linecap="round" stroke-linejoin="round" stroke-width="1.5px"></path><path class="a" d="M3.07 7.822a9.75 9.75 0 0 1 13.165-.029" fill="none" stroke="#212121" stroke-linecap="round" stroke-linejoin="round" stroke-width="1.5px"></path><path class="a" d="M.75 3.885a14.252 14.252 0 0 1 17.85.007" fill="none" stroke="#212121" stroke-linecap="round" stroke-linejoin="round" stroke-width="1.5px"></path><path class="a" d="M17.947 11.68l1.541 4.07h3a.735.735 0 0 1 .518 1.283l-2.6 1.816 1.442 3.313a.785.785 0 0 1-1.119.982l-3.489-1.961-3.487 1.961a.785.785 0 0 1-1.119-.982l1.443-3.313-2.6-1.816a.734.734 0 0 1 .515-1.283h3l1.544-4.07a.8.8 0 0 1 1.411 0z" fill="none" stroke="#212121" stroke-linecap="round" stroke-linejoin="round" stroke-width="1.5px"></path></g></svg>