<svg xmlns="http://www.w3.org/2000/svg" width="24" height="24" viewBox="0 0 24 24"><title>wifi warning</title><g fill="#212121" class="nc-icon-wrapper"><defs></defs><path class="a" d="M5.96 11.284a5.25 5.25 0 0 1 6.629-.647" fill="none" stroke="#212121" stroke-linecap="round" stroke-linejoin="round" stroke-width="1.5px"></path><path class="a" d="M3.07 7.822a9.75 9.75 0 0 1 13.165-.029" fill="none" stroke="#212121" stroke-linecap="round" stroke-linejoin="round" stroke-width="1.5px"></path><path class="a" d="M.75 3.885a14.252 14.252 0 0 1 17.85.007" fill="none" stroke="#212121" stroke-linecap="round" stroke-linejoin="round" stroke-width="1.5px"></path><path class="a" d="M17.25 20.25a.375.375 0 1 1-.375.375.375.375 0 0 1 .375-.375" fill="none" stroke="#212121" stroke-linecap="round" stroke-linejoin="round" stroke-width="1.5px"></path><path class="a" d="M17.25 18v-3" fill="none" stroke="#212121" stroke-linecap="round" stroke-linejoin="round" stroke-width="1.5px"></path><path class="a" d="M23.063 20.683a1.774 1.774 0 0 1-1.587 2.567h-8.452a1.774 1.774 0 0 1-1.587-2.567l4.226-8.452a1.774 1.774 0 0 1 3.174 0z" fill="none" stroke="#212121" stroke-linecap="round" stroke-linejoin="round" stroke-width="1.5px"></path></g></svg>