<svg xmlns="http://www.w3.org/2000/svg" width="24" height="24" viewBox="0 0 24 24"><title>wild bird eagle 1</title><g fill="#212121" class="nc-icon-wrapper"><defs></defs><path class="cls-1" d="M16.449 8.368a5.95 5.95 0 0 0-5.9-6.686H.881S.137 5.4 3.111 6.143H.881S.137 9.861 3.111 10.6v9.67a2.231 2.231 0 0 0 4.461 0 2.231 2.231 0 0 0 4.461 0 2.231 2.231 0 0 0 4.461 0v-5.948" fill="none" stroke="#212121" stroke-linecap="round" stroke-linejoin="round" stroke-width="1.5px"></path><path class="cls-1" d="M16.494 8.374h2.974c2.23 0 3.717 1.487 3.717 5.2v.744a.742.742 0 0 1-1.194.591 2.867 2.867 0 0 0-1.78-.591h-5.948c-2.23 0-2.23-3.718 0-3.718a1.972 1.972 0 0 1 2.231-2.226z" fill="none" stroke="#212121" stroke-linecap="round" stroke-linejoin="round" stroke-width="1.5px"></path><path class="cls-1" d="M9.431 7.627A.375.375 0 0 1 9.806 8" fill="none" stroke="#212121" stroke-linecap="round" stroke-linejoin="round" stroke-width="1.5px"></path><path class="cls-1" d="M9.056 8a.375.375 0 0 1 .375-.375" fill="none" stroke="#212121" stroke-linecap="round" stroke-linejoin="round" stroke-width="1.5px"></path><path class="cls-1" d="M9.431 8.377A.375.375 0 0 1 9.056 8" fill="none" stroke="#212121" stroke-linecap="round" stroke-linejoin="round" stroke-width="1.5px"></path><path class="cls-1" d="M9.806 8a.375.375 0 0 1-.375.375" fill="none" stroke="#212121" stroke-linecap="round" stroke-linejoin="round" stroke-width="1.5px"></path><path class="cls-1" d="M12.776 6.143l-4.46-1.487A3.316 3.316 0 0 0 6.085 7.63a3.163 3.163 0 0 0 4.461 2.97" fill="none" stroke="#212121" stroke-linecap="round" stroke-linejoin="round" stroke-width="1.5px"></path></g></svg>