<svg xmlns="http://www.w3.org/2000/svg" width="24" height="24" viewBox="0 0 24 24"><title>wild bird parrot</title><g fill="#212121" class="nc-icon-wrapper"><defs></defs><path class="cls-1" d="M2.3 23.25A97.4 97.4 0 0 1 .8 9.75c0-5.25 1.5-9 9-9 7.414 0 12.15 4.77 13.407 7.056a.749.749 0 0 1-.7 1.11c-2.561-.143-9.482-.316-11.207.834 1.5 3.75 3.75 15-5.25 12.75" fill="none" stroke="#212121" stroke-linecap="round" stroke-linejoin="round" stroke-width="1.5px" fill-rule="evenodd"></path><path class="cls-1" d="M11.3 9.75a9.069 9.069 0 0 1-.757-8.984" fill="none" stroke="#212121" stroke-linecap="round" stroke-linejoin="round" stroke-width="1.5px" fill-rule="evenodd"></path><path class="cls-1" d="M11.882 11.493L11.3 12s-3 2.618-6 .838S3.8 7.5 3.8 7.5" fill="none" stroke="#212121" stroke-linecap="round" stroke-linejoin="round" stroke-width="1.5px" fill-rule="evenodd"></path><path class="cls-1" d="M6.425 4.5a.375.375 0 0 0-.375.375" fill="none" stroke="#212121" stroke-linecap="round" stroke-linejoin="round" stroke-width="1.5px" fill-rule="evenodd"></path><path class="cls-1" d="M6.8 4.875a.375.375 0 0 0-.375-.375" fill="none" stroke="#212121" stroke-linecap="round" stroke-linejoin="round" stroke-width="1.5px" fill-rule="evenodd"></path><path class="cls-1" d="M6.425 5.25a.375.375 0 0 0 .375-.375" fill="none" stroke="#212121" stroke-linecap="round" stroke-linejoin="round" stroke-width="1.5px" fill-rule="evenodd"></path><path class="cls-1" d="M6.05 4.875a.375.375 0 0 0 .375.375" fill="none" stroke="#212121" stroke-linecap="round" stroke-linejoin="round" stroke-width="1.5px" fill-rule="evenodd"></path><path class="cls-2" d="M13.55 5.25v3.845" fill="none" stroke="#212121" stroke-linecap="round" stroke-linejoin="round" stroke-width="1.5px"></path><path class="cls-2" d="M16.55 6.75v2.099" fill="none" stroke="#212121" stroke-linecap="round" stroke-linejoin="round" stroke-width="1.5px"></path><path class="cls-1" d="M4.55 15.75s.847 4.235-2.86 3.7" fill="none" stroke="#212121" stroke-linecap="round" stroke-linejoin="round" stroke-width="1.5px" fill-rule="evenodd"></path></g></svg>