<svg xmlns="http://www.w3.org/2000/svg" width="24" height="24" viewBox="0 0 24 24"><title>wine glass bottle</title><g fill="#212121" class="nc-icon-wrapper"><defs></defs><path class="cls-1" d="M13.811 9.311L11.25 6.75V1.5a.75.75 0 0 0-.75-.75H9a.75.75 0 0 0-.75.75v5.25L5.689 9.311a1.5 1.5 0 0 0-.439 1.06V21.75a1.5 1.5 0 0 0 1.5 1.5h3.75" fill="none" stroke="#212121" stroke-linecap="round" stroke-linejoin="round" stroke-width="1.5px"></path><path class="cls-1" d="M8.25 4.5h3" fill="none" stroke="#212121" stroke-linecap="round" stroke-linejoin="round" stroke-width="1.5px"></path><path class="cls-1" d="M18.75 15.682a3 3 0 1 1-6 0V12h6z" fill="none" stroke="#212121" stroke-linecap="round" stroke-linejoin="round" stroke-width="1.5px"></path><path class="cls-1" d="M15.75 18.75v4.5" fill="none" stroke="#212121" stroke-linecap="round" stroke-linejoin="round" stroke-width="1.5px"></path><path class="cls-1" d="M18 23.25h-4.5" fill="none" stroke="#212121" stroke-linecap="round" stroke-linejoin="round" stroke-width="1.5px"></path></g></svg>