<svg xmlns="http://www.w3.org/2000/svg" width="24" height="24" viewBox="0 0 24 24"><title>wolf body howl</title><g fill="#212121" class="nc-icon-wrapper"><defs></defs><path class="cls-1" d="M21.6 20.25V15c0-3 1.5-3 1.5-6.75v-6a1.5 1.5 0 0 0-1.5-1.5h-.75L19.35 3s-2.25.75-3 2.25A35.314 35.314 0 0 0 14.85 9l3-.75" fill="none" stroke="#212121" stroke-linecap="round" stroke-linejoin="round" stroke-width="1.5px"></path><path class="cls-1" d="M15.6 11.25a19.374 19.374 0 0 1-6 3.75c-3.75 1.5-3.75 5.25-3.75 8.25" fill="none" stroke="#212121" stroke-linecap="round" stroke-linejoin="round" stroke-width="1.5px"></path><path class="cls-1" d="M11.1 18a3.029 3.029 0 0 1-2.25 3.75v1.5" fill="none" stroke="#212121" stroke-linecap="round" stroke-linejoin="round" stroke-width="1.5px"></path><path class="cls-1" d="M12.6 23.25s2.25-3 5.25-3h5.25" fill="none" stroke="#212121" stroke-linecap="round" stroke-linejoin="round" stroke-width="1.5px"></path><path class="cls-1" d="M18.6 15v5.25" fill="none" stroke="#212121" stroke-linecap="round" stroke-linejoin="round" stroke-width="1.5px"></path><path class="cls-1" d="M6.894 17.25H6.6a4.646 4.646 0 0 1-3-1.5c-1.5-1.5-.75-4.5-.75-4.5S-.606 14.088 1.35 18a3.285 3.285 0 0 0 4.5 1.5l.263-.131" fill="none" stroke="#212121" stroke-linecap="round" stroke-linejoin="round" stroke-width="1.5px"></path></g></svg>