<svg xmlns="http://www.w3.org/2000/svg" width="24" height="24" viewBox="0 0 24 24"><title>wolf 1</title><g fill="#212121" class="nc-icon-wrapper"><defs></defs><path class="cls-1" d="M19.493 11.686c0-2.692-1.058-4.125-3.75-4.125a10.349 10.349 0 0 0-3.75 1.5 10.363 10.363 0 0 0-3.75-1.5c-2.693 0-3.75 1.433-3.75 4.125a4.872 4.872 0 0 0 3.023 4.506c.121 3.961 2.069 7.119 4.477 7.119s4.355-3.158 4.477-7.119a4.873 4.873 0 0 0 3.023-4.506z" fill="none" stroke="#212121" stroke-linecap="round" stroke-linejoin="round" stroke-width="1.5px"></path><path class="cls-1" d="M19.967 18c1.739-1.619 3.143-4.463 3.267-8.375a1.5 1.5 0 0 0-.328-.984l-2.663-3.33v-4.5a4.728 4.728 0 0 0-5.25 3l-.923-.48a4.5 4.5 0 0 0-4.155 0l-.922.48a4.728 4.728 0 0 0-5.25-3v4.5l-2.664 3.33a1.5 1.5 0 0 0-.328.984C.875 13.537 2.279 16.381 4.018 18" fill="none" stroke="#212121" stroke-linecap="round" stroke-linejoin="round" stroke-width="1.5px"></path><path class="cls-1" d="M8.618 11.311a.375.375 0 0 1 .375.375" fill="none" stroke="#212121" stroke-linecap="round" stroke-linejoin="round" stroke-width="1.5px"></path><path class="cls-1" d="M8.243 11.686a.374.374 0 0 1 .375-.375" fill="none" stroke="#212121" stroke-linecap="round" stroke-linejoin="round" stroke-width="1.5px"></path><path class="cls-1" d="M8.618 12.061a.374.374 0 0 1-.375-.375" fill="none" stroke="#212121" stroke-linecap="round" stroke-linejoin="round" stroke-width="1.5px"></path><path class="cls-1" d="M8.993 11.686a.375.375 0 0 1-.375.375" fill="none" stroke="#212121" stroke-linecap="round" stroke-linejoin="round" stroke-width="1.5px"></path><path class="cls-1" d="M15.368 11.311a.375.375 0 0 1 .375.375" fill="none" stroke="#212121" stroke-linecap="round" stroke-linejoin="round" stroke-width="1.5px"></path><path class="cls-1" d="M14.993 11.686a.374.374 0 0 1 .375-.375" fill="none" stroke="#212121" stroke-linecap="round" stroke-linejoin="round" stroke-width="1.5px"></path><path class="cls-1" d="M15.368 12.061a.374.374 0 0 1-.375-.375" fill="none" stroke="#212121" stroke-linecap="round" stroke-linejoin="round" stroke-width="1.5px"></path><path class="cls-1" d="M15.743 11.686a.375.375 0 0 1-.375.375" fill="none" stroke="#212121" stroke-linecap="round" stroke-linejoin="round" stroke-width="1.5px"></path><path class="cls-1" d="M11.243 19.561h1.5" fill="none" stroke="#212121" stroke-linecap="round" stroke-linejoin="round" stroke-width="1.5px"></path></g></svg>