<svg xmlns="http://www.w3.org/2000/svg" width="24" height="24" viewBox="0 0 24 24"><title>wolf</title><g fill="#212121" class="nc-icon-wrapper"><defs></defs><path class="cls-1" d="M14.24 5.345s.086-1.37 2.238-2.984C19.462.123 21.7.869 21.7.869s0 5.223-2.238 6.715a10.524 10.524 0 0 0 2.81 5.129 1.492 1.492 0 0 1 .076 1.994c-.915 1.095-2.5 2.575-4.378 2.575 0 0-2.238 5.968-5.968 5.968s-5.968-5.968-5.968-5.968c-1.88 0-3.463-1.48-4.378-2.575a1.488 1.488 0 0 1 .076-1.994 10.524 10.524 0 0 0 2.81-5.129C2.3 6.092 2.3.869 2.3.869S4.542.123 7.526 2.361c2.152 1.614 2.238 2.984 2.238 2.984a4.036 4.036 0 0 1 4.476 0z" fill="none" stroke="#212121" stroke-linecap="round" stroke-linejoin="round" stroke-width="1.5px" fill-rule="evenodd"></path><path class="cls-2" d="M11.256 19.52h1.492" fill="none" stroke="#212121" stroke-linecap="round" stroke-linejoin="round" stroke-width="1.5px"></path><path class="cls-2" d="M8.645 12.058a.375.375 0 0 1 .375.375" fill="none" stroke="#212121" stroke-linecap="round" stroke-linejoin="round" stroke-width="1.5px"></path><path class="cls-2" d="M8.27 12.433a.375.375 0 0 1 .375-.375" fill="none" stroke="#212121" stroke-linecap="round" stroke-linejoin="round" stroke-width="1.5px"></path><path class="cls-2" d="M8.645 12.808a.375.375 0 0 1-.375-.375" fill="none" stroke="#212121" stroke-linecap="round" stroke-linejoin="round" stroke-width="1.5px"></path><path class="cls-2" d="M9.02 12.433a.375.375 0 0 1-.375.375" fill="none" stroke="#212121" stroke-linecap="round" stroke-linejoin="round" stroke-width="1.5px"></path><path class="cls-2" d="M15.359 12.058a.375.375 0 0 1 .375.375" fill="none" stroke="#212121" stroke-linecap="round" stroke-linejoin="round" stroke-width="1.5px"></path><path class="cls-2" d="M14.984 12.433a.375.375 0 0 1 .375-.375" fill="none" stroke="#212121" stroke-linecap="round" stroke-linejoin="round" stroke-width="1.5px"></path><path class="cls-2" d="M15.359 12.808a.375.375 0 0 1-.375-.375" fill="none" stroke="#212121" stroke-linecap="round" stroke-linejoin="round" stroke-width="1.5px"></path><path class="cls-2" d="M15.734 12.433a.375.375 0 0 1-.375.375" fill="none" stroke="#212121" stroke-linecap="round" stroke-linejoin="round" stroke-width="1.5px"></path><path class="cls-2" d="M13.494 10.568l2.238-1.492" fill="none" stroke="#212121" stroke-linecap="round" stroke-linejoin="round" stroke-width="1.5px"></path><path class="cls-2" d="M10.51 10.568L8.272 9.076" fill="none" stroke="#212121" stroke-linecap="round" stroke-linejoin="round" stroke-width="1.5px"></path></g></svg>