<svg xmlns="http://www.w3.org/2000/svg" width="24" height="24" viewBox="0 0 24 24"><title>yoga stretch 1</title><g fill="#212121" class="nc-icon-wrapper"><defs></defs><circle class="cls-1" cx="3.375" cy="12.125" r="2.625" fill="none" stroke="#212121" stroke-linecap="round" stroke-linejoin="round" stroke-width="1.5px"></circle><path class="cls-1" d="M18.03 5.716l3.845 3.466a4.161 4.161 0 0 1 .8 5.206l-1.625 2.747a4.471 4.471 0 0 1-3.814 2.115h-3.985a4.475 4.475 0 0 1-4.024-2.487l-2.171-4.342a1.5 1.5 0 0 1 .281-1.732l5.25-5.25a1.5 1.5 0 1 1 2.121 2.122l-4.485 4.485 1.687 3.375a1.491 1.491 0 0 0 1.341.829h3.984a1.489 1.489 0 0 0 1.27-.7l1.518-2.424a1.5 1.5 0 0 0-.286-1.925L17.116 8.9" fill="none" stroke="#212121" stroke-linecap="round" stroke-linejoin="round" stroke-width="1.5px"></path><path class="cls-1" d="M9.138 8.888l2.121 2.122" fill="none" stroke="#212121" stroke-linecap="round" stroke-linejoin="round" stroke-width="1.5px"></path><path class="cls-1" d="M16.5 16.25v3" fill="none" stroke="#212121" stroke-linecap="round" stroke-linejoin="round" stroke-width="1.5px"></path></g></svg>